%TF.GenerationSoftware,KiCad,Pcbnew,5.0.2-bee76a0~70~ubuntu18.04.1*%
%TF.CreationDate,2020-02-09T18:50:43+01:00*%
%TF.ProjectId,Mini-BT-Pcb-328P,4d696e69-2d42-4542-9d50-63622d333238,2.0*%
%TF.SameCoordinates,Original*%
%TF.FileFunction,Soldermask,Top*%
%TF.FilePolarity,Negative*%
%FSLAX46Y46*%
G04 Gerber Fmt 4.6, Leading zero omitted, Abs format (unit mm)*
G04 Created by KiCad (PCBNEW 5.0.2-bee76a0~70~ubuntu18.04.1) date dom 09 feb 2020 18:50:43 CET*
%MOMM*%
%LPD*%
G01*
G04 APERTURE LIST*
%ADD10C,0.150000*%
G04 APERTURE END LIST*
D10*
X132080000Y-108406000D02*
X132080000Y-73406000D01*
X187080000Y-108406000D02*
X132080000Y-108406000D01*
X187080000Y-73406000D02*
X187080000Y-108406000D01*
X132080000Y-73406000D02*
X187080000Y-73406000D01*
G36*
X159807000Y-106765000D02*
X158709000Y-106765000D01*
X158709000Y-103517000D01*
X159807000Y-103517000D01*
X159807000Y-106765000D01*
X159807000Y-106765000D01*
G37*
G36*
X157267000Y-106765000D02*
X156169000Y-106765000D01*
X156169000Y-103517000D01*
X157267000Y-103517000D01*
X157267000Y-106765000D01*
X157267000Y-106765000D01*
G37*
G36*
X154727000Y-106765000D02*
X153629000Y-106765000D01*
X153629000Y-103517000D01*
X154727000Y-103517000D01*
X154727000Y-106765000D01*
X154727000Y-106765000D01*
G37*
G36*
X152187000Y-106765000D02*
X151089000Y-106765000D01*
X151089000Y-103517000D01*
X152187000Y-103517000D01*
X152187000Y-106765000D01*
X152187000Y-106765000D01*
G37*
G36*
X149647000Y-106765000D02*
X148549000Y-106765000D01*
X148549000Y-103517000D01*
X149647000Y-103517000D01*
X149647000Y-106765000D01*
X149647000Y-106765000D01*
G37*
G36*
X147107000Y-106765000D02*
X146009000Y-106765000D01*
X146009000Y-103517000D01*
X147107000Y-103517000D01*
X147107000Y-106765000D01*
X147107000Y-106765000D01*
G37*
G36*
X142027000Y-106765000D02*
X140929000Y-106765000D01*
X140929000Y-103517000D01*
X142027000Y-103517000D01*
X142027000Y-106765000D01*
X142027000Y-106765000D01*
G37*
G36*
X144567000Y-106765000D02*
X143469000Y-106765000D01*
X143469000Y-103517000D01*
X144567000Y-103517000D01*
X144567000Y-106765000D01*
X144567000Y-106765000D01*
G37*
G36*
X134407000Y-106765000D02*
X133309000Y-106765000D01*
X133309000Y-103517000D01*
X134407000Y-103517000D01*
X134407000Y-106765000D01*
X134407000Y-106765000D01*
G37*
G36*
X139487000Y-106765000D02*
X138389000Y-106765000D01*
X138389000Y-103517000D01*
X139487000Y-103517000D01*
X139487000Y-106765000D01*
X139487000Y-106765000D01*
G37*
G36*
X136947000Y-106765000D02*
X135849000Y-106765000D01*
X135849000Y-103517000D01*
X136947000Y-103517000D01*
X136947000Y-106765000D01*
X136947000Y-106765000D01*
G37*
G36*
X172607000Y-106593000D02*
X171309000Y-106593000D01*
X171309000Y-103495000D01*
X172607000Y-103495000D01*
X172607000Y-106593000D01*
X172607000Y-106593000D01*
G37*
G36*
X174607000Y-106593000D02*
X173309000Y-106593000D01*
X173309000Y-103495000D01*
X174607000Y-103495000D01*
X174607000Y-106593000D01*
X174607000Y-106593000D01*
G37*
G36*
X176607000Y-106593000D02*
X175309000Y-106593000D01*
X175309000Y-103495000D01*
X176607000Y-103495000D01*
X176607000Y-106593000D01*
X176607000Y-106593000D01*
G37*
G36*
X178607000Y-106593000D02*
X177309000Y-106593000D01*
X177309000Y-103495000D01*
X178607000Y-103495000D01*
X178607000Y-106593000D01*
X178607000Y-106593000D01*
G37*
G36*
X182607000Y-106593000D02*
X181309000Y-106593000D01*
X181309000Y-103495000D01*
X182607000Y-103495000D01*
X182607000Y-106593000D01*
X182607000Y-106593000D01*
G37*
G36*
X184607000Y-106593000D02*
X183309000Y-106593000D01*
X183309000Y-103495000D01*
X184607000Y-103495000D01*
X184607000Y-106593000D01*
X184607000Y-106593000D01*
G37*
G36*
X180607000Y-106593000D02*
X179309000Y-106593000D01*
X179309000Y-103495000D01*
X180607000Y-103495000D01*
X180607000Y-106593000D01*
X180607000Y-106593000D01*
G37*
G36*
X186607000Y-106593000D02*
X185309000Y-106593000D01*
X185309000Y-103495000D01*
X186607000Y-103495000D01*
X186607000Y-106593000D01*
X186607000Y-106593000D01*
G37*
G36*
X170275069Y-103295674D02*
X170318346Y-103308802D01*
X170358231Y-103330121D01*
X170393189Y-103358811D01*
X170421879Y-103393769D01*
X170443198Y-103433654D01*
X170456326Y-103476931D01*
X170461000Y-103524391D01*
X170461000Y-104755609D01*
X170456326Y-104803069D01*
X170443198Y-104846346D01*
X170421879Y-104886231D01*
X170393189Y-104921189D01*
X170358231Y-104949879D01*
X170318346Y-104971198D01*
X170275069Y-104984326D01*
X170227609Y-104989000D01*
X167096391Y-104989000D01*
X167048931Y-104984326D01*
X167005654Y-104971198D01*
X166965769Y-104949879D01*
X166930811Y-104921189D01*
X166902121Y-104886231D01*
X166880802Y-104846346D01*
X166867674Y-104803069D01*
X166863000Y-104755609D01*
X166863000Y-103524391D01*
X166867674Y-103476931D01*
X166880802Y-103433654D01*
X166902121Y-103393769D01*
X166930811Y-103358811D01*
X166965769Y-103330121D01*
X167005654Y-103308802D01*
X167048931Y-103295674D01*
X167096391Y-103291000D01*
X170227609Y-103291000D01*
X170275069Y-103295674D01*
X170275069Y-103295674D01*
G37*
G36*
X164675069Y-103295674D02*
X164718346Y-103308802D01*
X164758231Y-103330121D01*
X164793189Y-103358811D01*
X164821879Y-103393769D01*
X164843198Y-103433654D01*
X164856326Y-103476931D01*
X164861000Y-103524391D01*
X164861000Y-104755609D01*
X164856326Y-104803069D01*
X164843198Y-104846346D01*
X164821879Y-104886231D01*
X164793189Y-104921189D01*
X164758231Y-104949879D01*
X164718346Y-104971198D01*
X164675069Y-104984326D01*
X164627609Y-104989000D01*
X161496391Y-104989000D01*
X161448931Y-104984326D01*
X161405654Y-104971198D01*
X161365769Y-104949879D01*
X161330811Y-104921189D01*
X161302121Y-104886231D01*
X161280802Y-104846346D01*
X161267674Y-104803069D01*
X161263000Y-104755609D01*
X161263000Y-103524391D01*
X161267674Y-103476931D01*
X161280802Y-103433654D01*
X161302121Y-103393769D01*
X161330811Y-103358811D01*
X161365769Y-103330121D01*
X161405654Y-103308802D01*
X161448931Y-103295674D01*
X161496391Y-103291000D01*
X164627609Y-103291000D01*
X164675069Y-103295674D01*
X164675069Y-103295674D01*
G37*
G36*
X149647000Y-101715000D02*
X148549000Y-101715000D01*
X148549000Y-98467000D01*
X149647000Y-98467000D01*
X149647000Y-101715000D01*
X149647000Y-101715000D01*
G37*
G36*
X134407000Y-101715000D02*
X133309000Y-101715000D01*
X133309000Y-98467000D01*
X134407000Y-98467000D01*
X134407000Y-101715000D01*
X134407000Y-101715000D01*
G37*
G36*
X136947000Y-101715000D02*
X135849000Y-101715000D01*
X135849000Y-98467000D01*
X136947000Y-98467000D01*
X136947000Y-101715000D01*
X136947000Y-101715000D01*
G37*
G36*
X139487000Y-101715000D02*
X138389000Y-101715000D01*
X138389000Y-98467000D01*
X139487000Y-98467000D01*
X139487000Y-101715000D01*
X139487000Y-101715000D01*
G37*
G36*
X144567000Y-101715000D02*
X143469000Y-101715000D01*
X143469000Y-98467000D01*
X144567000Y-98467000D01*
X144567000Y-101715000D01*
X144567000Y-101715000D01*
G37*
G36*
X154727000Y-101715000D02*
X153629000Y-101715000D01*
X153629000Y-98467000D01*
X154727000Y-98467000D01*
X154727000Y-101715000D01*
X154727000Y-101715000D01*
G37*
G36*
X157267000Y-101715000D02*
X156169000Y-101715000D01*
X156169000Y-98467000D01*
X157267000Y-98467000D01*
X157267000Y-101715000D01*
X157267000Y-101715000D01*
G37*
G36*
X142027000Y-101715000D02*
X140929000Y-101715000D01*
X140929000Y-98467000D01*
X142027000Y-98467000D01*
X142027000Y-101715000D01*
X142027000Y-101715000D01*
G37*
G36*
X159807000Y-101715000D02*
X158709000Y-101715000D01*
X158709000Y-98467000D01*
X159807000Y-98467000D01*
X159807000Y-101715000D01*
X159807000Y-101715000D01*
G37*
G36*
X147107000Y-101715000D02*
X146009000Y-101715000D01*
X146009000Y-98467000D01*
X147107000Y-98467000D01*
X147107000Y-101715000D01*
X147107000Y-101715000D01*
G37*
G36*
X152187000Y-101715000D02*
X151089000Y-101715000D01*
X151089000Y-98467000D01*
X152187000Y-98467000D01*
X152187000Y-101715000D01*
X152187000Y-101715000D01*
G37*
G36*
X136885000Y-97783000D02*
X134387000Y-97783000D01*
X134387000Y-96185000D01*
X136885000Y-96185000D01*
X136885000Y-97783000D01*
X136885000Y-97783000D01*
G37*
G36*
X165097605Y-93319708D02*
X165106842Y-93322510D01*
X165115356Y-93327061D01*
X165122816Y-93333184D01*
X165128939Y-93340644D01*
X165133490Y-93349158D01*
X165136292Y-93358395D01*
X165137479Y-93370453D01*
X165137479Y-93865547D01*
X165135977Y-93880798D01*
X165135312Y-93884141D01*
X165135071Y-93889045D01*
X165135071Y-93914556D01*
X165133642Y-93929072D01*
X165115479Y-94020383D01*
X165111243Y-94034346D01*
X165075614Y-94120363D01*
X165068736Y-94133231D01*
X165017010Y-94210645D01*
X165007755Y-94221921D01*
X164941921Y-94287755D01*
X164930645Y-94297010D01*
X164853231Y-94348736D01*
X164840363Y-94355614D01*
X164754346Y-94391243D01*
X164740383Y-94395479D01*
X164649072Y-94413642D01*
X164634556Y-94415071D01*
X164609045Y-94415071D01*
X164599290Y-94416032D01*
X164598673Y-94416187D01*
X164585547Y-94417479D01*
X164090453Y-94417479D01*
X164075202Y-94415977D01*
X164071859Y-94415312D01*
X164066955Y-94415071D01*
X164041444Y-94415071D01*
X164026928Y-94413642D01*
X163935617Y-94395479D01*
X163921654Y-94391243D01*
X163835637Y-94355614D01*
X163822769Y-94348736D01*
X163745355Y-94297010D01*
X163734079Y-94287755D01*
X163668245Y-94221921D01*
X163658990Y-94210645D01*
X163607264Y-94133231D01*
X163600386Y-94120363D01*
X163564757Y-94034346D01*
X163560521Y-94020383D01*
X163542358Y-93929072D01*
X163540929Y-93914556D01*
X163540929Y-93889045D01*
X163539968Y-93879290D01*
X163539813Y-93878673D01*
X163538521Y-93865547D01*
X163538521Y-93370453D01*
X163539708Y-93358395D01*
X163542510Y-93349158D01*
X163547061Y-93340644D01*
X163553184Y-93333184D01*
X163560644Y-93327061D01*
X163569158Y-93322510D01*
X163578395Y-93319708D01*
X163590453Y-93318521D01*
X165085547Y-93318521D01*
X165097605Y-93319708D01*
X165097605Y-93319708D01*
G37*
G36*
X149670000Y-94253000D02*
X149022000Y-94253000D01*
X149022000Y-92555000D01*
X149670000Y-92555000D01*
X149670000Y-94253000D01*
X149670000Y-94253000D01*
G37*
G36*
X154470000Y-94253000D02*
X153822000Y-94253000D01*
X153822000Y-92555000D01*
X154470000Y-92555000D01*
X154470000Y-94253000D01*
X154470000Y-94253000D01*
G37*
G36*
X153670000Y-94253000D02*
X153022000Y-94253000D01*
X153022000Y-92555000D01*
X153670000Y-92555000D01*
X153670000Y-94253000D01*
X153670000Y-94253000D01*
G37*
G36*
X152070000Y-94253000D02*
X151422000Y-94253000D01*
X151422000Y-92555000D01*
X152070000Y-92555000D01*
X152070000Y-94253000D01*
X152070000Y-94253000D01*
G37*
G36*
X151270000Y-94253000D02*
X150622000Y-94253000D01*
X150622000Y-92555000D01*
X151270000Y-92555000D01*
X151270000Y-94253000D01*
X151270000Y-94253000D01*
G37*
G36*
X150470000Y-94253000D02*
X149822000Y-94253000D01*
X149822000Y-92555000D01*
X150470000Y-92555000D01*
X150470000Y-94253000D01*
X150470000Y-94253000D01*
G37*
G36*
X155270000Y-94253000D02*
X154622000Y-94253000D01*
X154622000Y-92555000D01*
X155270000Y-92555000D01*
X155270000Y-94253000D01*
X155270000Y-94253000D01*
G37*
G36*
X152870000Y-94253000D02*
X152222000Y-94253000D01*
X152222000Y-92555000D01*
X152870000Y-92555000D01*
X152870000Y-94253000D01*
X152870000Y-94253000D01*
G37*
G36*
X164600798Y-92020023D02*
X164604141Y-92020688D01*
X164609045Y-92020929D01*
X164634556Y-92020929D01*
X164649072Y-92022358D01*
X164740383Y-92040521D01*
X164754346Y-92044757D01*
X164840363Y-92080386D01*
X164853231Y-92087264D01*
X164930645Y-92138990D01*
X164941921Y-92148245D01*
X165007755Y-92214079D01*
X165017010Y-92225355D01*
X165068736Y-92302769D01*
X165075614Y-92315637D01*
X165111243Y-92401654D01*
X165115479Y-92415617D01*
X165133642Y-92506928D01*
X165135071Y-92521444D01*
X165135071Y-92546955D01*
X165136032Y-92556710D01*
X165136187Y-92557327D01*
X165137479Y-92570453D01*
X165137479Y-93065547D01*
X165136292Y-93077605D01*
X165133490Y-93086842D01*
X165128939Y-93095356D01*
X165122816Y-93102816D01*
X165115356Y-93108939D01*
X165106842Y-93113490D01*
X165097605Y-93116292D01*
X165085547Y-93117479D01*
X163590453Y-93117479D01*
X163578395Y-93116292D01*
X163569158Y-93113490D01*
X163560644Y-93108939D01*
X163553184Y-93102816D01*
X163547061Y-93095356D01*
X163542510Y-93086842D01*
X163539708Y-93077605D01*
X163538521Y-93065547D01*
X163538521Y-92570453D01*
X163540023Y-92555202D01*
X163540688Y-92551859D01*
X163540929Y-92546955D01*
X163540929Y-92521444D01*
X163542358Y-92506928D01*
X163560521Y-92415617D01*
X163564757Y-92401654D01*
X163600386Y-92315637D01*
X163607264Y-92302769D01*
X163658990Y-92225355D01*
X163668245Y-92214079D01*
X163734079Y-92148245D01*
X163745355Y-92138990D01*
X163822769Y-92087264D01*
X163835637Y-92080386D01*
X163921654Y-92044757D01*
X163935617Y-92040521D01*
X164026928Y-92022358D01*
X164041444Y-92020929D01*
X164066955Y-92020929D01*
X164076710Y-92019968D01*
X164077327Y-92019813D01*
X164090453Y-92018521D01*
X164585547Y-92018521D01*
X164600798Y-92020023D01*
X164600798Y-92020023D01*
G37*
G36*
X136885000Y-92283000D02*
X134387000Y-92283000D01*
X134387000Y-90685000D01*
X136885000Y-90685000D01*
X136885000Y-92283000D01*
X136885000Y-92283000D01*
G37*
G36*
X157245000Y-92278000D02*
X155547000Y-92278000D01*
X155547000Y-91630000D01*
X157245000Y-91630000D01*
X157245000Y-92278000D01*
X157245000Y-92278000D01*
G37*
G36*
X148745000Y-92278000D02*
X147047000Y-92278000D01*
X147047000Y-91630000D01*
X148745000Y-91630000D01*
X148745000Y-92278000D01*
X148745000Y-92278000D01*
G37*
G36*
X161044158Y-90187911D02*
X161089745Y-90201739D01*
X161131758Y-90224197D01*
X161168583Y-90254417D01*
X161198803Y-90291242D01*
X161221261Y-90333255D01*
X161235089Y-90378842D01*
X161240000Y-90428704D01*
X161240000Y-91435296D01*
X161235089Y-91485158D01*
X161221261Y-91530745D01*
X161198803Y-91572758D01*
X161168583Y-91609583D01*
X161131758Y-91639803D01*
X161089745Y-91662261D01*
X161044158Y-91676089D01*
X160994296Y-91681000D01*
X160412704Y-91681000D01*
X160362842Y-91676089D01*
X160317255Y-91662261D01*
X160275242Y-91639803D01*
X160238417Y-91609583D01*
X160208197Y-91572758D01*
X160185739Y-91530745D01*
X160171911Y-91485158D01*
X160167000Y-91435296D01*
X160167000Y-90428704D01*
X160171911Y-90378842D01*
X160185739Y-90333255D01*
X160208197Y-90291242D01*
X160238417Y-90254417D01*
X160275242Y-90224197D01*
X160317255Y-90201739D01*
X160362842Y-90187911D01*
X160412704Y-90183000D01*
X160994296Y-90183000D01*
X161044158Y-90187911D01*
X161044158Y-90187911D01*
G37*
G36*
X159169158Y-90187911D02*
X159214745Y-90201739D01*
X159256758Y-90224197D01*
X159293583Y-90254417D01*
X159323803Y-90291242D01*
X159346261Y-90333255D01*
X159360089Y-90378842D01*
X159365000Y-90428704D01*
X159365000Y-91435296D01*
X159360089Y-91485158D01*
X159346261Y-91530745D01*
X159323803Y-91572758D01*
X159293583Y-91609583D01*
X159256758Y-91639803D01*
X159214745Y-91662261D01*
X159169158Y-91676089D01*
X159119296Y-91681000D01*
X158537704Y-91681000D01*
X158487842Y-91676089D01*
X158442255Y-91662261D01*
X158400242Y-91639803D01*
X158363417Y-91609583D01*
X158333197Y-91572758D01*
X158310739Y-91530745D01*
X158296911Y-91485158D01*
X158292000Y-91435296D01*
X158292000Y-90428704D01*
X158296911Y-90378842D01*
X158310739Y-90333255D01*
X158333197Y-90291242D01*
X158363417Y-90254417D01*
X158400242Y-90224197D01*
X158442255Y-90201739D01*
X158487842Y-90187911D01*
X158537704Y-90183000D01*
X159119296Y-90183000D01*
X159169158Y-90187911D01*
X159169158Y-90187911D01*
G37*
G36*
X157245000Y-91478000D02*
X155547000Y-91478000D01*
X155547000Y-90830000D01*
X157245000Y-90830000D01*
X157245000Y-91478000D01*
X157245000Y-91478000D01*
G37*
G36*
X148745000Y-91478000D02*
X147047000Y-91478000D01*
X147047000Y-90830000D01*
X148745000Y-90830000D01*
X148745000Y-91478000D01*
X148745000Y-91478000D01*
G37*
G36*
X170091000Y-91227000D02*
X167483000Y-91227000D01*
X167483000Y-90129000D01*
X170091000Y-90129000D01*
X170091000Y-91227000D01*
X170091000Y-91227000D01*
G37*
G36*
X146058158Y-89425911D02*
X146103745Y-89439739D01*
X146145758Y-89462197D01*
X146182583Y-89492417D01*
X146212803Y-89529242D01*
X146235261Y-89571255D01*
X146249089Y-89616842D01*
X146254000Y-89666704D01*
X146254000Y-90673296D01*
X146249089Y-90723158D01*
X146235261Y-90768745D01*
X146212803Y-90810758D01*
X146182583Y-90847583D01*
X146145758Y-90877803D01*
X146103745Y-90900261D01*
X146058158Y-90914089D01*
X146008296Y-90919000D01*
X145426704Y-90919000D01*
X145376842Y-90914089D01*
X145331255Y-90900261D01*
X145289242Y-90877803D01*
X145252417Y-90847583D01*
X145222197Y-90810758D01*
X145199739Y-90768745D01*
X145185911Y-90723158D01*
X145181000Y-90673296D01*
X145181000Y-89666704D01*
X145185911Y-89616842D01*
X145199739Y-89571255D01*
X145222197Y-89529242D01*
X145252417Y-89492417D01*
X145289242Y-89462197D01*
X145331255Y-89439739D01*
X145376842Y-89425911D01*
X145426704Y-89421000D01*
X146008296Y-89421000D01*
X146058158Y-89425911D01*
X146058158Y-89425911D01*
G37*
G36*
X144183158Y-89425911D02*
X144228745Y-89439739D01*
X144270758Y-89462197D01*
X144307583Y-89492417D01*
X144337803Y-89529242D01*
X144360261Y-89571255D01*
X144374089Y-89616842D01*
X144379000Y-89666704D01*
X144379000Y-90673296D01*
X144374089Y-90723158D01*
X144360261Y-90768745D01*
X144337803Y-90810758D01*
X144307583Y-90847583D01*
X144270758Y-90877803D01*
X144228745Y-90900261D01*
X144183158Y-90914089D01*
X144133296Y-90919000D01*
X143551704Y-90919000D01*
X143501842Y-90914089D01*
X143456255Y-90900261D01*
X143414242Y-90877803D01*
X143377417Y-90847583D01*
X143347197Y-90810758D01*
X143324739Y-90768745D01*
X143310911Y-90723158D01*
X143306000Y-90673296D01*
X143306000Y-89666704D01*
X143310911Y-89616842D01*
X143324739Y-89571255D01*
X143347197Y-89529242D01*
X143377417Y-89492417D01*
X143414242Y-89462197D01*
X143456255Y-89439739D01*
X143501842Y-89425911D01*
X143551704Y-89421000D01*
X144133296Y-89421000D01*
X144183158Y-89425911D01*
X144183158Y-89425911D01*
G37*
G36*
X148745000Y-90678000D02*
X147047000Y-90678000D01*
X147047000Y-90030000D01*
X148745000Y-90030000D01*
X148745000Y-90678000D01*
X148745000Y-90678000D01*
G37*
G36*
X157245000Y-90678000D02*
X155547000Y-90678000D01*
X155547000Y-90030000D01*
X157245000Y-90030000D01*
X157245000Y-90678000D01*
X157245000Y-90678000D01*
G37*
G36*
X180635000Y-90203000D02*
X179537000Y-90203000D01*
X179537000Y-88105000D01*
X180635000Y-88105000D01*
X180635000Y-90203000D01*
X180635000Y-90203000D01*
G37*
G36*
X179365000Y-90203000D02*
X178267000Y-90203000D01*
X178267000Y-88105000D01*
X179365000Y-88105000D01*
X179365000Y-90203000D01*
X179365000Y-90203000D01*
G37*
G36*
X176825000Y-90203000D02*
X175727000Y-90203000D01*
X175727000Y-88105000D01*
X176825000Y-88105000D01*
X176825000Y-90203000D01*
X176825000Y-90203000D01*
G37*
G36*
X181905000Y-90203000D02*
X180807000Y-90203000D01*
X180807000Y-88105000D01*
X181905000Y-88105000D01*
X181905000Y-90203000D01*
X181905000Y-90203000D01*
G37*
G36*
X183175000Y-90203000D02*
X182077000Y-90203000D01*
X182077000Y-88105000D01*
X183175000Y-88105000D01*
X183175000Y-90203000D01*
X183175000Y-90203000D01*
G37*
G36*
X184445000Y-90203000D02*
X183347000Y-90203000D01*
X183347000Y-88105000D01*
X184445000Y-88105000D01*
X184445000Y-90203000D01*
X184445000Y-90203000D01*
G37*
G36*
X185715000Y-90203000D02*
X184617000Y-90203000D01*
X184617000Y-88105000D01*
X185715000Y-88105000D01*
X185715000Y-90203000D01*
X185715000Y-90203000D01*
G37*
G36*
X178095000Y-90203000D02*
X176997000Y-90203000D01*
X176997000Y-88105000D01*
X178095000Y-88105000D01*
X178095000Y-90203000D01*
X178095000Y-90203000D01*
G37*
G36*
X135929000Y-90156000D02*
X133311000Y-90156000D01*
X133311000Y-87748000D01*
X135929000Y-87748000D01*
X135929000Y-90156000D01*
X135929000Y-90156000D01*
G37*
G36*
X157245000Y-89878000D02*
X155547000Y-89878000D01*
X155547000Y-89230000D01*
X157245000Y-89230000D01*
X157245000Y-89878000D01*
X157245000Y-89878000D01*
G37*
G36*
X148745000Y-89878000D02*
X147047000Y-89878000D01*
X147047000Y-89230000D01*
X148745000Y-89230000D01*
X148745000Y-89878000D01*
X148745000Y-89878000D01*
G37*
G36*
X161044158Y-88155911D02*
X161089745Y-88169739D01*
X161131758Y-88192197D01*
X161168583Y-88222417D01*
X161198803Y-88259242D01*
X161221261Y-88301255D01*
X161235089Y-88346842D01*
X161240000Y-88396704D01*
X161240000Y-89403296D01*
X161235089Y-89453158D01*
X161221261Y-89498745D01*
X161198803Y-89540758D01*
X161168583Y-89577583D01*
X161131758Y-89607803D01*
X161089745Y-89630261D01*
X161044158Y-89644089D01*
X160994296Y-89649000D01*
X160412704Y-89649000D01*
X160362842Y-89644089D01*
X160317255Y-89630261D01*
X160275242Y-89607803D01*
X160238417Y-89577583D01*
X160208197Y-89540758D01*
X160185739Y-89498745D01*
X160171911Y-89453158D01*
X160167000Y-89403296D01*
X160167000Y-88396704D01*
X160171911Y-88346842D01*
X160185739Y-88301255D01*
X160208197Y-88259242D01*
X160238417Y-88222417D01*
X160275242Y-88192197D01*
X160317255Y-88169739D01*
X160362842Y-88155911D01*
X160412704Y-88151000D01*
X160994296Y-88151000D01*
X161044158Y-88155911D01*
X161044158Y-88155911D01*
G37*
G36*
X159169158Y-88155911D02*
X159214745Y-88169739D01*
X159256758Y-88192197D01*
X159293583Y-88222417D01*
X159323803Y-88259242D01*
X159346261Y-88301255D01*
X159360089Y-88346842D01*
X159365000Y-88396704D01*
X159365000Y-89403296D01*
X159360089Y-89453158D01*
X159346261Y-89498745D01*
X159323803Y-89540758D01*
X159293583Y-89577583D01*
X159256758Y-89607803D01*
X159214745Y-89630261D01*
X159169158Y-89644089D01*
X159119296Y-89649000D01*
X158537704Y-89649000D01*
X158487842Y-89644089D01*
X158442255Y-89630261D01*
X158400242Y-89607803D01*
X158363417Y-89577583D01*
X158333197Y-89540758D01*
X158310739Y-89498745D01*
X158296911Y-89453158D01*
X158292000Y-89403296D01*
X158292000Y-88396704D01*
X158296911Y-88346842D01*
X158310739Y-88301255D01*
X158333197Y-88259242D01*
X158363417Y-88222417D01*
X158400242Y-88192197D01*
X158442255Y-88169739D01*
X158487842Y-88155911D01*
X158537704Y-88151000D01*
X159119296Y-88151000D01*
X159169158Y-88155911D01*
X159169158Y-88155911D01*
G37*
G36*
X157245000Y-89078000D02*
X155547000Y-89078000D01*
X155547000Y-88430000D01*
X157245000Y-88430000D01*
X157245000Y-89078000D01*
X157245000Y-89078000D01*
G37*
G36*
X148745000Y-89078000D02*
X147047000Y-89078000D01*
X147047000Y-88430000D01*
X148745000Y-88430000D01*
X148745000Y-89078000D01*
X148745000Y-89078000D01*
G37*
G36*
X144183158Y-87393911D02*
X144228745Y-87407739D01*
X144270758Y-87430197D01*
X144307583Y-87460417D01*
X144337803Y-87497242D01*
X144360261Y-87539255D01*
X144374089Y-87584842D01*
X144379000Y-87634704D01*
X144379000Y-88641296D01*
X144374089Y-88691158D01*
X144360261Y-88736745D01*
X144337803Y-88778758D01*
X144307583Y-88815583D01*
X144270758Y-88845803D01*
X144228745Y-88868261D01*
X144183158Y-88882089D01*
X144133296Y-88887000D01*
X143551704Y-88887000D01*
X143501842Y-88882089D01*
X143456255Y-88868261D01*
X143414242Y-88845803D01*
X143377417Y-88815583D01*
X143347197Y-88778758D01*
X143324739Y-88736745D01*
X143310911Y-88691158D01*
X143306000Y-88641296D01*
X143306000Y-87634704D01*
X143310911Y-87584842D01*
X143324739Y-87539255D01*
X143347197Y-87497242D01*
X143377417Y-87460417D01*
X143414242Y-87430197D01*
X143456255Y-87407739D01*
X143501842Y-87393911D01*
X143551704Y-87389000D01*
X144133296Y-87389000D01*
X144183158Y-87393911D01*
X144183158Y-87393911D01*
G37*
G36*
X146058158Y-87393911D02*
X146103745Y-87407739D01*
X146145758Y-87430197D01*
X146182583Y-87460417D01*
X146212803Y-87497242D01*
X146235261Y-87539255D01*
X146249089Y-87584842D01*
X146254000Y-87634704D01*
X146254000Y-88641296D01*
X146249089Y-88691158D01*
X146235261Y-88736745D01*
X146212803Y-88778758D01*
X146182583Y-88815583D01*
X146145758Y-88845803D01*
X146103745Y-88868261D01*
X146058158Y-88882089D01*
X146008296Y-88887000D01*
X145426704Y-88887000D01*
X145376842Y-88882089D01*
X145331255Y-88868261D01*
X145289242Y-88845803D01*
X145252417Y-88815583D01*
X145222197Y-88778758D01*
X145199739Y-88736745D01*
X145185911Y-88691158D01*
X145181000Y-88641296D01*
X145181000Y-87634704D01*
X145185911Y-87584842D01*
X145199739Y-87539255D01*
X145222197Y-87497242D01*
X145252417Y-87460417D01*
X145289242Y-87430197D01*
X145331255Y-87407739D01*
X145376842Y-87393911D01*
X145426704Y-87389000D01*
X146008296Y-87389000D01*
X146058158Y-87393911D01*
X146058158Y-87393911D01*
G37*
G36*
X166781000Y-88687000D02*
X164173000Y-88687000D01*
X164173000Y-87589000D01*
X166781000Y-87589000D01*
X166781000Y-88687000D01*
X166781000Y-88687000D01*
G37*
G36*
X148745000Y-88278000D02*
X147047000Y-88278000D01*
X147047000Y-87630000D01*
X148745000Y-87630000D01*
X148745000Y-88278000D01*
X148745000Y-88278000D01*
G37*
G36*
X157245000Y-88278000D02*
X155547000Y-88278000D01*
X155547000Y-87630000D01*
X157245000Y-87630000D01*
X157245000Y-88278000D01*
X157245000Y-88278000D01*
G37*
G36*
X140516000Y-87531000D02*
X139768000Y-87531000D01*
X139768000Y-86373000D01*
X140516000Y-86373000D01*
X140516000Y-87531000D01*
X140516000Y-87531000D01*
G37*
G36*
X138616000Y-87531000D02*
X137868000Y-87531000D01*
X137868000Y-86373000D01*
X138616000Y-86373000D01*
X138616000Y-87531000D01*
X138616000Y-87531000D01*
G37*
G36*
X157245000Y-87478000D02*
X155547000Y-87478000D01*
X155547000Y-86830000D01*
X157245000Y-86830000D01*
X157245000Y-87478000D01*
X157245000Y-87478000D01*
G37*
G36*
X148745000Y-87478000D02*
X147047000Y-87478000D01*
X147047000Y-86830000D01*
X148745000Y-86830000D01*
X148745000Y-87478000D01*
X148745000Y-87478000D01*
G37*
G36*
X178607000Y-86893000D02*
X177309000Y-86893000D01*
X177309000Y-83795000D01*
X178607000Y-83795000D01*
X178607000Y-86893000D01*
X178607000Y-86893000D01*
G37*
G36*
X172607000Y-86893000D02*
X171309000Y-86893000D01*
X171309000Y-83795000D01*
X172607000Y-83795000D01*
X172607000Y-86893000D01*
X172607000Y-86893000D01*
G37*
G36*
X184607000Y-86893000D02*
X183309000Y-86893000D01*
X183309000Y-83795000D01*
X184607000Y-83795000D01*
X184607000Y-86893000D01*
X184607000Y-86893000D01*
G37*
G36*
X186607000Y-86893000D02*
X185309000Y-86893000D01*
X185309000Y-83795000D01*
X186607000Y-83795000D01*
X186607000Y-86893000D01*
X186607000Y-86893000D01*
G37*
G36*
X182607000Y-86893000D02*
X181309000Y-86893000D01*
X181309000Y-83795000D01*
X182607000Y-83795000D01*
X182607000Y-86893000D01*
X182607000Y-86893000D01*
G37*
G36*
X180607000Y-86893000D02*
X179309000Y-86893000D01*
X179309000Y-83795000D01*
X180607000Y-83795000D01*
X180607000Y-86893000D01*
X180607000Y-86893000D01*
G37*
G36*
X174607000Y-86893000D02*
X173309000Y-86893000D01*
X173309000Y-83795000D01*
X174607000Y-83795000D01*
X174607000Y-86893000D01*
X174607000Y-86893000D01*
G37*
G36*
X176607000Y-86893000D02*
X175309000Y-86893000D01*
X175309000Y-83795000D01*
X176607000Y-83795000D01*
X176607000Y-86893000D01*
X176607000Y-86893000D01*
G37*
G36*
X157245000Y-86678000D02*
X155547000Y-86678000D01*
X155547000Y-86030000D01*
X157245000Y-86030000D01*
X157245000Y-86678000D01*
X157245000Y-86678000D01*
G37*
G36*
X148745000Y-86678000D02*
X147047000Y-86678000D01*
X147047000Y-86030000D01*
X148745000Y-86030000D01*
X148745000Y-86678000D01*
X148745000Y-86678000D01*
G37*
G36*
X155270000Y-85753000D02*
X154622000Y-85753000D01*
X154622000Y-84055000D01*
X155270000Y-84055000D01*
X155270000Y-85753000D01*
X155270000Y-85753000D01*
G37*
G36*
X149670000Y-85753000D02*
X149022000Y-85753000D01*
X149022000Y-84055000D01*
X149670000Y-84055000D01*
X149670000Y-85753000D01*
X149670000Y-85753000D01*
G37*
G36*
X150470000Y-85753000D02*
X149822000Y-85753000D01*
X149822000Y-84055000D01*
X150470000Y-84055000D01*
X150470000Y-85753000D01*
X150470000Y-85753000D01*
G37*
G36*
X151270000Y-85753000D02*
X150622000Y-85753000D01*
X150622000Y-84055000D01*
X151270000Y-84055000D01*
X151270000Y-85753000D01*
X151270000Y-85753000D01*
G37*
G36*
X152070000Y-85753000D02*
X151422000Y-85753000D01*
X151422000Y-84055000D01*
X152070000Y-84055000D01*
X152070000Y-85753000D01*
X152070000Y-85753000D01*
G37*
G36*
X152870000Y-85753000D02*
X152222000Y-85753000D01*
X152222000Y-84055000D01*
X152870000Y-84055000D01*
X152870000Y-85753000D01*
X152870000Y-85753000D01*
G37*
G36*
X153670000Y-85753000D02*
X153022000Y-85753000D01*
X153022000Y-84055000D01*
X153670000Y-84055000D01*
X153670000Y-85753000D01*
X153670000Y-85753000D01*
G37*
G36*
X154470000Y-85753000D02*
X153822000Y-85753000D01*
X153822000Y-84055000D01*
X154470000Y-84055000D01*
X154470000Y-85753000D01*
X154470000Y-85753000D01*
G37*
G36*
X138616000Y-85331000D02*
X137868000Y-85331000D01*
X137868000Y-84173000D01*
X138616000Y-84173000D01*
X138616000Y-85331000D01*
X138616000Y-85331000D01*
G37*
G36*
X139566000Y-85331000D02*
X138818000Y-85331000D01*
X138818000Y-84173000D01*
X139566000Y-84173000D01*
X139566000Y-85331000D01*
X139566000Y-85331000D01*
G37*
G36*
X140516000Y-85331000D02*
X139768000Y-85331000D01*
X139768000Y-84173000D01*
X140516000Y-84173000D01*
X140516000Y-85331000D01*
X140516000Y-85331000D01*
G37*
G36*
X135929000Y-83956000D02*
X133311000Y-83956000D01*
X133311000Y-81548000D01*
X135929000Y-81548000D01*
X135929000Y-83956000D01*
X135929000Y-83956000D01*
G37*
G36*
X160604560Y-81770166D02*
X160752153Y-81831301D01*
X160884535Y-81919756D01*
X160884985Y-81920057D01*
X160997943Y-82033015D01*
X160997945Y-82033018D01*
X161086699Y-82165847D01*
X161147834Y-82313440D01*
X161179000Y-82470123D01*
X161179000Y-82629877D01*
X161147834Y-82786560D01*
X161086699Y-82934153D01*
X160998244Y-83066535D01*
X160997943Y-83066985D01*
X160884985Y-83179943D01*
X160884982Y-83179945D01*
X160752153Y-83268699D01*
X160604560Y-83329834D01*
X160447877Y-83361000D01*
X160288123Y-83361000D01*
X160131440Y-83329834D01*
X159983847Y-83268699D01*
X159851018Y-83179945D01*
X159851015Y-83179943D01*
X159738057Y-83066985D01*
X159737756Y-83066535D01*
X159649301Y-82934153D01*
X159588166Y-82786560D01*
X159557000Y-82629877D01*
X159557000Y-82470123D01*
X159588166Y-82313440D01*
X159649301Y-82165847D01*
X159738055Y-82033018D01*
X159738057Y-82033015D01*
X159851015Y-81920057D01*
X159851465Y-81919756D01*
X159983847Y-81831301D01*
X160131440Y-81770166D01*
X160288123Y-81739000D01*
X160447877Y-81739000D01*
X160604560Y-81770166D01*
X160604560Y-81770166D01*
G37*
G36*
X140604560Y-81770166D02*
X140752153Y-81831301D01*
X140884535Y-81919756D01*
X140884985Y-81920057D01*
X140997943Y-82033015D01*
X140997945Y-82033018D01*
X141086699Y-82165847D01*
X141147834Y-82313440D01*
X141179000Y-82470123D01*
X141179000Y-82629877D01*
X141147834Y-82786560D01*
X141086699Y-82934153D01*
X140998244Y-83066535D01*
X140997943Y-83066985D01*
X140884985Y-83179943D01*
X140884982Y-83179945D01*
X140752153Y-83268699D01*
X140604560Y-83329834D01*
X140447877Y-83361000D01*
X140288123Y-83361000D01*
X140131440Y-83329834D01*
X139983847Y-83268699D01*
X139851018Y-83179945D01*
X139851015Y-83179943D01*
X139738057Y-83066985D01*
X139737756Y-83066535D01*
X139649301Y-82934153D01*
X139588166Y-82786560D01*
X139557000Y-82629877D01*
X139557000Y-82470123D01*
X139588166Y-82313440D01*
X139649301Y-82165847D01*
X139738055Y-82033018D01*
X139738057Y-82033015D01*
X139851015Y-81920057D01*
X139851465Y-81919756D01*
X139983847Y-81831301D01*
X140131440Y-81770166D01*
X140288123Y-81739000D01*
X140447877Y-81739000D01*
X140604560Y-81770166D01*
X140604560Y-81770166D01*
G37*
G36*
X184795000Y-82179000D02*
X182997000Y-82179000D01*
X182997000Y-80381000D01*
X184795000Y-80381000D01*
X184795000Y-82179000D01*
X184795000Y-82179000D01*
G37*
G36*
X165977000Y-80813000D02*
X162729000Y-80813000D01*
X162729000Y-79715000D01*
X165977000Y-79715000D01*
X165977000Y-80813000D01*
X165977000Y-80813000D01*
G37*
G36*
X171027000Y-80813000D02*
X167779000Y-80813000D01*
X167779000Y-79715000D01*
X171027000Y-79715000D01*
X171027000Y-80813000D01*
X171027000Y-80813000D01*
G37*
G36*
X152445158Y-79653911D02*
X152490745Y-79667739D01*
X152532758Y-79690197D01*
X152569583Y-79720417D01*
X152599803Y-79757242D01*
X152622261Y-79799255D01*
X152636089Y-79844842D01*
X152641000Y-79894704D01*
X152641000Y-80476296D01*
X152636089Y-80526158D01*
X152622261Y-80571745D01*
X152599803Y-80613758D01*
X152569583Y-80650583D01*
X152532758Y-80680803D01*
X152490745Y-80703261D01*
X152445158Y-80717089D01*
X152395296Y-80722000D01*
X151388704Y-80722000D01*
X151338842Y-80717089D01*
X151293255Y-80703261D01*
X151251242Y-80680803D01*
X151214417Y-80650583D01*
X151184197Y-80613758D01*
X151161739Y-80571745D01*
X151147911Y-80526158D01*
X151143000Y-80476296D01*
X151143000Y-79894704D01*
X151147911Y-79844842D01*
X151161739Y-79799255D01*
X151184197Y-79757242D01*
X151214417Y-79720417D01*
X151251242Y-79690197D01*
X151293255Y-79667739D01*
X151338842Y-79653911D01*
X151388704Y-79649000D01*
X152395296Y-79649000D01*
X152445158Y-79653911D01*
X152445158Y-79653911D01*
G37*
G36*
X156001158Y-79653911D02*
X156046745Y-79667739D01*
X156088758Y-79690197D01*
X156125583Y-79720417D01*
X156155803Y-79757242D01*
X156178261Y-79799255D01*
X156192089Y-79844842D01*
X156197000Y-79894704D01*
X156197000Y-80476296D01*
X156192089Y-80526158D01*
X156178261Y-80571745D01*
X156155803Y-80613758D01*
X156125583Y-80650583D01*
X156088758Y-80680803D01*
X156046745Y-80703261D01*
X156001158Y-80717089D01*
X155951296Y-80722000D01*
X154944704Y-80722000D01*
X154894842Y-80717089D01*
X154849255Y-80703261D01*
X154807242Y-80680803D01*
X154770417Y-80650583D01*
X154740197Y-80613758D01*
X154717739Y-80571745D01*
X154703911Y-80526158D01*
X154699000Y-80476296D01*
X154699000Y-79894704D01*
X154703911Y-79844842D01*
X154717739Y-79799255D01*
X154740197Y-79757242D01*
X154770417Y-79720417D01*
X154807242Y-79690197D01*
X154849255Y-79667739D01*
X154894842Y-79653911D01*
X154944704Y-79649000D01*
X155951296Y-79649000D01*
X156001158Y-79653911D01*
X156001158Y-79653911D01*
G37*
G36*
X142539158Y-79575411D02*
X142584745Y-79589239D01*
X142626758Y-79611697D01*
X142663583Y-79641917D01*
X142693803Y-79678742D01*
X142716261Y-79720755D01*
X142730089Y-79766342D01*
X142735000Y-79816204D01*
X142735000Y-80397796D01*
X142730089Y-80447658D01*
X142716261Y-80493245D01*
X142693803Y-80535258D01*
X142663583Y-80572083D01*
X142626758Y-80602303D01*
X142584745Y-80624761D01*
X142539158Y-80638589D01*
X142489296Y-80643500D01*
X141482704Y-80643500D01*
X141432842Y-80638589D01*
X141387255Y-80624761D01*
X141345242Y-80602303D01*
X141308417Y-80572083D01*
X141278197Y-80535258D01*
X141255739Y-80493245D01*
X141241911Y-80447658D01*
X141237000Y-80397796D01*
X141237000Y-79816204D01*
X141241911Y-79766342D01*
X141255739Y-79720755D01*
X141278197Y-79678742D01*
X141308417Y-79641917D01*
X141345242Y-79611697D01*
X141387255Y-79589239D01*
X141432842Y-79575411D01*
X141482704Y-79570500D01*
X142489296Y-79570500D01*
X142539158Y-79575411D01*
X142539158Y-79575411D01*
G37*
G36*
X148635158Y-79575411D02*
X148680745Y-79589239D01*
X148722758Y-79611697D01*
X148759583Y-79641917D01*
X148789803Y-79678742D01*
X148812261Y-79720755D01*
X148826089Y-79766342D01*
X148831000Y-79816204D01*
X148831000Y-80397796D01*
X148826089Y-80447658D01*
X148812261Y-80493245D01*
X148789803Y-80535258D01*
X148759583Y-80572083D01*
X148722758Y-80602303D01*
X148680745Y-80624761D01*
X148635158Y-80638589D01*
X148585296Y-80643500D01*
X147578704Y-80643500D01*
X147528842Y-80638589D01*
X147483255Y-80624761D01*
X147441242Y-80602303D01*
X147404417Y-80572083D01*
X147374197Y-80535258D01*
X147351739Y-80493245D01*
X147337911Y-80447658D01*
X147333000Y-80397796D01*
X147333000Y-79816204D01*
X147337911Y-79766342D01*
X147351739Y-79720755D01*
X147374197Y-79678742D01*
X147404417Y-79641917D01*
X147441242Y-79611697D01*
X147483255Y-79589239D01*
X147528842Y-79575411D01*
X147578704Y-79570500D01*
X148585296Y-79570500D01*
X148635158Y-79575411D01*
X148635158Y-79575411D01*
G37*
G36*
X156001158Y-77778911D02*
X156046745Y-77792739D01*
X156088758Y-77815197D01*
X156125583Y-77845417D01*
X156155803Y-77882242D01*
X156178261Y-77924255D01*
X156192089Y-77969842D01*
X156197000Y-78019704D01*
X156197000Y-78601296D01*
X156192089Y-78651158D01*
X156178261Y-78696745D01*
X156155803Y-78738758D01*
X156125583Y-78775583D01*
X156088758Y-78805803D01*
X156046745Y-78828261D01*
X156001158Y-78842089D01*
X155951296Y-78847000D01*
X154944704Y-78847000D01*
X154894842Y-78842089D01*
X154849255Y-78828261D01*
X154807242Y-78805803D01*
X154770417Y-78775583D01*
X154740197Y-78738758D01*
X154717739Y-78696745D01*
X154703911Y-78651158D01*
X154699000Y-78601296D01*
X154699000Y-78019704D01*
X154703911Y-77969842D01*
X154717739Y-77924255D01*
X154740197Y-77882242D01*
X154770417Y-77845417D01*
X154807242Y-77815197D01*
X154849255Y-77792739D01*
X154894842Y-77778911D01*
X154944704Y-77774000D01*
X155951296Y-77774000D01*
X156001158Y-77778911D01*
X156001158Y-77778911D01*
G37*
G36*
X152445158Y-77778911D02*
X152490745Y-77792739D01*
X152532758Y-77815197D01*
X152569583Y-77845417D01*
X152599803Y-77882242D01*
X152622261Y-77924255D01*
X152636089Y-77969842D01*
X152641000Y-78019704D01*
X152641000Y-78601296D01*
X152636089Y-78651158D01*
X152622261Y-78696745D01*
X152599803Y-78738758D01*
X152569583Y-78775583D01*
X152532758Y-78805803D01*
X152490745Y-78828261D01*
X152445158Y-78842089D01*
X152395296Y-78847000D01*
X151388704Y-78847000D01*
X151338842Y-78842089D01*
X151293255Y-78828261D01*
X151251242Y-78805803D01*
X151214417Y-78775583D01*
X151184197Y-78738758D01*
X151161739Y-78696745D01*
X151147911Y-78651158D01*
X151143000Y-78601296D01*
X151143000Y-78019704D01*
X151147911Y-77969842D01*
X151161739Y-77924255D01*
X151184197Y-77882242D01*
X151214417Y-77845417D01*
X151251242Y-77815197D01*
X151293255Y-77792739D01*
X151338842Y-77778911D01*
X151388704Y-77774000D01*
X152395296Y-77774000D01*
X152445158Y-77778911D01*
X152445158Y-77778911D01*
G37*
G36*
X148635158Y-77700411D02*
X148680745Y-77714239D01*
X148722758Y-77736697D01*
X148759583Y-77766917D01*
X148789803Y-77803742D01*
X148812261Y-77845755D01*
X148826089Y-77891342D01*
X148831000Y-77941204D01*
X148831000Y-78522796D01*
X148826089Y-78572658D01*
X148812261Y-78618245D01*
X148789803Y-78660258D01*
X148759583Y-78697083D01*
X148722758Y-78727303D01*
X148680745Y-78749761D01*
X148635158Y-78763589D01*
X148585296Y-78768500D01*
X147578704Y-78768500D01*
X147528842Y-78763589D01*
X147483255Y-78749761D01*
X147441242Y-78727303D01*
X147404417Y-78697083D01*
X147374197Y-78660258D01*
X147351739Y-78618245D01*
X147337911Y-78572658D01*
X147333000Y-78522796D01*
X147333000Y-77941204D01*
X147337911Y-77891342D01*
X147351739Y-77845755D01*
X147374197Y-77803742D01*
X147404417Y-77766917D01*
X147441242Y-77736697D01*
X147483255Y-77714239D01*
X147528842Y-77700411D01*
X147578704Y-77695500D01*
X148585296Y-77695500D01*
X148635158Y-77700411D01*
X148635158Y-77700411D01*
G37*
G36*
X142539158Y-77700411D02*
X142584745Y-77714239D01*
X142626758Y-77736697D01*
X142663583Y-77766917D01*
X142693803Y-77803742D01*
X142716261Y-77845755D01*
X142730089Y-77891342D01*
X142735000Y-77941204D01*
X142735000Y-78522796D01*
X142730089Y-78572658D01*
X142716261Y-78618245D01*
X142693803Y-78660258D01*
X142663583Y-78697083D01*
X142626758Y-78727303D01*
X142584745Y-78749761D01*
X142539158Y-78763589D01*
X142489296Y-78768500D01*
X141482704Y-78768500D01*
X141432842Y-78763589D01*
X141387255Y-78749761D01*
X141345242Y-78727303D01*
X141308417Y-78697083D01*
X141278197Y-78660258D01*
X141255739Y-78618245D01*
X141241911Y-78572658D01*
X141237000Y-78522796D01*
X141237000Y-77941204D01*
X141241911Y-77891342D01*
X141255739Y-77845755D01*
X141278197Y-77803742D01*
X141308417Y-77766917D01*
X141345242Y-77736697D01*
X141387255Y-77714239D01*
X141432842Y-77700411D01*
X141482704Y-77695500D01*
X142489296Y-77695500D01*
X142539158Y-77700411D01*
X142539158Y-77700411D01*
G37*
G36*
X182710486Y-76815306D02*
X182804901Y-76824605D01*
X182844939Y-76836750D01*
X182976926Y-76876788D01*
X183135464Y-76961528D01*
X183158334Y-76980297D01*
X183274428Y-77075572D01*
X183362372Y-77182733D01*
X183388472Y-77214536D01*
X183473212Y-77373074D01*
X183496268Y-77449080D01*
X183525395Y-77545099D01*
X183543015Y-77724000D01*
X183525395Y-77902901D01*
X183518917Y-77924255D01*
X183473212Y-78074926D01*
X183388472Y-78233464D01*
X183388470Y-78233466D01*
X183274428Y-78372428D01*
X183158334Y-78467703D01*
X183135464Y-78486472D01*
X182976926Y-78571212D01*
X182844939Y-78611250D01*
X182804901Y-78623395D01*
X182737864Y-78629997D01*
X182670828Y-78636600D01*
X182581172Y-78636600D01*
X182514136Y-78629997D01*
X182447099Y-78623395D01*
X182407061Y-78611250D01*
X182275074Y-78571212D01*
X182116536Y-78486472D01*
X182093666Y-78467703D01*
X181977572Y-78372428D01*
X181863530Y-78233466D01*
X181863528Y-78233464D01*
X181778788Y-78074926D01*
X181733083Y-77924255D01*
X181726605Y-77902901D01*
X181708985Y-77724000D01*
X181726605Y-77545099D01*
X181755732Y-77449080D01*
X181778788Y-77373074D01*
X181863528Y-77214536D01*
X181889628Y-77182733D01*
X181977572Y-77075572D01*
X182093666Y-76980297D01*
X182116536Y-76961528D01*
X182275074Y-76876788D01*
X182407061Y-76836750D01*
X182447099Y-76824605D01*
X182541514Y-76815306D01*
X182581172Y-76811400D01*
X182670828Y-76811400D01*
X182710486Y-76815306D01*
X182710486Y-76815306D01*
G37*
G36*
X177630486Y-76815306D02*
X177724901Y-76824605D01*
X177764939Y-76836750D01*
X177896926Y-76876788D01*
X178055464Y-76961528D01*
X178078334Y-76980297D01*
X178194428Y-77075572D01*
X178282372Y-77182733D01*
X178308472Y-77214536D01*
X178393212Y-77373074D01*
X178416268Y-77449080D01*
X178445395Y-77545099D01*
X178463015Y-77724000D01*
X178445395Y-77902901D01*
X178438917Y-77924255D01*
X178393212Y-78074926D01*
X178308472Y-78233464D01*
X178308470Y-78233466D01*
X178194428Y-78372428D01*
X178078334Y-78467703D01*
X178055464Y-78486472D01*
X177896926Y-78571212D01*
X177764939Y-78611250D01*
X177724901Y-78623395D01*
X177657864Y-78629997D01*
X177590828Y-78636600D01*
X177501172Y-78636600D01*
X177434136Y-78629997D01*
X177367099Y-78623395D01*
X177327061Y-78611250D01*
X177195074Y-78571212D01*
X177036536Y-78486472D01*
X177013666Y-78467703D01*
X176897572Y-78372428D01*
X176783530Y-78233466D01*
X176783528Y-78233464D01*
X176698788Y-78074926D01*
X176653083Y-77924255D01*
X176646605Y-77902901D01*
X176628985Y-77724000D01*
X176646605Y-77545099D01*
X176675732Y-77449080D01*
X176698788Y-77373074D01*
X176783528Y-77214536D01*
X176809628Y-77182733D01*
X176897572Y-77075572D01*
X177013666Y-76980297D01*
X177036536Y-76961528D01*
X177195074Y-76876788D01*
X177327061Y-76836750D01*
X177367099Y-76824605D01*
X177461514Y-76815306D01*
X177501172Y-76811400D01*
X177590828Y-76811400D01*
X177630486Y-76815306D01*
X177630486Y-76815306D01*
G37*
G36*
X180170486Y-76815306D02*
X180264901Y-76824605D01*
X180304939Y-76836750D01*
X180436926Y-76876788D01*
X180595464Y-76961528D01*
X180618334Y-76980297D01*
X180734428Y-77075572D01*
X180822372Y-77182733D01*
X180848472Y-77214536D01*
X180933212Y-77373074D01*
X180956268Y-77449080D01*
X180985395Y-77545099D01*
X181003015Y-77724000D01*
X180985395Y-77902901D01*
X180978917Y-77924255D01*
X180933212Y-78074926D01*
X180848472Y-78233464D01*
X180848470Y-78233466D01*
X180734428Y-78372428D01*
X180618334Y-78467703D01*
X180595464Y-78486472D01*
X180436926Y-78571212D01*
X180304939Y-78611250D01*
X180264901Y-78623395D01*
X180197864Y-78629997D01*
X180130828Y-78636600D01*
X180041172Y-78636600D01*
X179974136Y-78629997D01*
X179907099Y-78623395D01*
X179867061Y-78611250D01*
X179735074Y-78571212D01*
X179576536Y-78486472D01*
X179553666Y-78467703D01*
X179437572Y-78372428D01*
X179323530Y-78233466D01*
X179323528Y-78233464D01*
X179238788Y-78074926D01*
X179193083Y-77924255D01*
X179186605Y-77902901D01*
X179168985Y-77724000D01*
X179186605Y-77545099D01*
X179215732Y-77449080D01*
X179238788Y-77373074D01*
X179323528Y-77214536D01*
X179349628Y-77182733D01*
X179437572Y-77075572D01*
X179553666Y-76980297D01*
X179576536Y-76961528D01*
X179735074Y-76876788D01*
X179867061Y-76836750D01*
X179907099Y-76824605D01*
X180001514Y-76815306D01*
X180041172Y-76811400D01*
X180130828Y-76811400D01*
X180170486Y-76815306D01*
X180170486Y-76815306D01*
G37*
G36*
X185250486Y-76815306D02*
X185344901Y-76824605D01*
X185384939Y-76836750D01*
X185516926Y-76876788D01*
X185675464Y-76961528D01*
X185698334Y-76980297D01*
X185814428Y-77075572D01*
X185902372Y-77182733D01*
X185928472Y-77214536D01*
X186013212Y-77373074D01*
X186036268Y-77449080D01*
X186065395Y-77545099D01*
X186083015Y-77724000D01*
X186065395Y-77902901D01*
X186058917Y-77924255D01*
X186013212Y-78074926D01*
X185928472Y-78233464D01*
X185928470Y-78233466D01*
X185814428Y-78372428D01*
X185698334Y-78467703D01*
X185675464Y-78486472D01*
X185516926Y-78571212D01*
X185384939Y-78611250D01*
X185344901Y-78623395D01*
X185277864Y-78629997D01*
X185210828Y-78636600D01*
X185121172Y-78636600D01*
X185054136Y-78629997D01*
X184987099Y-78623395D01*
X184947061Y-78611250D01*
X184815074Y-78571212D01*
X184656536Y-78486472D01*
X184633666Y-78467703D01*
X184517572Y-78372428D01*
X184403530Y-78233466D01*
X184403528Y-78233464D01*
X184318788Y-78074926D01*
X184273083Y-77924255D01*
X184266605Y-77902901D01*
X184248985Y-77724000D01*
X184266605Y-77545099D01*
X184295732Y-77449080D01*
X184318788Y-77373074D01*
X184403528Y-77214536D01*
X184429628Y-77182733D01*
X184517572Y-77075572D01*
X184633666Y-76980297D01*
X184656536Y-76961528D01*
X184815074Y-76876788D01*
X184947061Y-76836750D01*
X184987099Y-76824605D01*
X185081514Y-76815306D01*
X185121172Y-76811400D01*
X185210828Y-76811400D01*
X185250486Y-76815306D01*
X185250486Y-76815306D01*
G37*
G36*
X171027000Y-78273000D02*
X167779000Y-78273000D01*
X167779000Y-77175000D01*
X171027000Y-77175000D01*
X171027000Y-78273000D01*
X171027000Y-78273000D01*
G37*
G36*
X165977000Y-78273000D02*
X162729000Y-78273000D01*
X162729000Y-77175000D01*
X165977000Y-77175000D01*
X165977000Y-78273000D01*
X165977000Y-78273000D01*
G37*
G36*
X139123767Y-76664244D02*
X139264626Y-76722590D01*
X139390544Y-76806726D01*
X139391399Y-76807297D01*
X139499203Y-76915101D01*
X139499205Y-76915104D01*
X139583910Y-77041874D01*
X139602780Y-77087431D01*
X139642256Y-77182733D01*
X139672000Y-77332267D01*
X139672000Y-77484733D01*
X139659992Y-77545100D01*
X139642256Y-77634267D01*
X139583910Y-77775126D01*
X139564789Y-77803742D01*
X139499203Y-77901899D01*
X139391399Y-78009703D01*
X139391396Y-78009705D01*
X139264626Y-78094410D01*
X139123767Y-78152756D01*
X138974233Y-78182500D01*
X138821767Y-78182500D01*
X138672233Y-78152756D01*
X138531374Y-78094410D01*
X138404604Y-78009705D01*
X138404601Y-78009703D01*
X138296797Y-77901899D01*
X138231211Y-77803742D01*
X138212090Y-77775126D01*
X138153744Y-77634267D01*
X138136008Y-77545100D01*
X138124000Y-77484733D01*
X138124000Y-77332267D01*
X138153744Y-77182733D01*
X138193220Y-77087431D01*
X138212090Y-77041874D01*
X138296795Y-76915104D01*
X138296797Y-76915101D01*
X138404601Y-76807297D01*
X138405456Y-76806726D01*
X138531374Y-76722590D01*
X138672233Y-76664244D01*
X138821767Y-76634500D01*
X138974233Y-76634500D01*
X139123767Y-76664244D01*
X139123767Y-76664244D01*
G37*
G36*
X134123767Y-76664244D02*
X134264626Y-76722590D01*
X134390544Y-76806726D01*
X134391399Y-76807297D01*
X134499203Y-76915101D01*
X134499205Y-76915104D01*
X134583910Y-77041874D01*
X134602780Y-77087431D01*
X134642256Y-77182733D01*
X134672000Y-77332267D01*
X134672000Y-77484733D01*
X134659992Y-77545100D01*
X134642256Y-77634267D01*
X134583910Y-77775126D01*
X134564789Y-77803742D01*
X134499203Y-77901899D01*
X134391399Y-78009703D01*
X134391396Y-78009705D01*
X134264626Y-78094410D01*
X134123767Y-78152756D01*
X133974233Y-78182500D01*
X133821767Y-78182500D01*
X133672233Y-78152756D01*
X133531374Y-78094410D01*
X133404604Y-78009705D01*
X133404601Y-78009703D01*
X133296797Y-77901899D01*
X133231211Y-77803742D01*
X133212090Y-77775126D01*
X133153744Y-77634267D01*
X133136008Y-77545100D01*
X133124000Y-77484733D01*
X133124000Y-77332267D01*
X133153744Y-77182733D01*
X133193220Y-77087431D01*
X133212090Y-77041874D01*
X133296795Y-76915104D01*
X133296797Y-76915101D01*
X133404601Y-76807297D01*
X133405456Y-76806726D01*
X133531374Y-76722590D01*
X133672233Y-76664244D01*
X133821767Y-76634500D01*
X133974233Y-76634500D01*
X134123767Y-76664244D01*
X134123767Y-76664244D01*
G37*
G36*
X159958904Y-74950920D02*
X160195307Y-75048841D01*
X160257480Y-75090384D01*
X160408066Y-75191002D01*
X160588998Y-75371934D01*
X160588999Y-75371936D01*
X160731159Y-75584693D01*
X160829080Y-75821096D01*
X160879000Y-76072060D01*
X160879000Y-76327940D01*
X160829080Y-76578904D01*
X160731159Y-76815307D01*
X160661007Y-76920296D01*
X160588998Y-77028066D01*
X160408066Y-77208998D01*
X160336825Y-77256599D01*
X160195307Y-77351159D01*
X160142399Y-77373074D01*
X159958904Y-77449080D01*
X159707941Y-77499000D01*
X159452059Y-77499000D01*
X159201096Y-77449080D01*
X159017601Y-77373074D01*
X158964693Y-77351159D01*
X158823175Y-77256599D01*
X158751934Y-77208998D01*
X158571002Y-77028066D01*
X158498993Y-76920296D01*
X158428841Y-76815307D01*
X158330920Y-76578904D01*
X158281000Y-76327940D01*
X158281000Y-76072060D01*
X158330920Y-75821096D01*
X158428841Y-75584693D01*
X158571001Y-75371936D01*
X158571002Y-75371934D01*
X158751934Y-75191002D01*
X158902520Y-75090384D01*
X158964693Y-75048841D01*
X159201096Y-74950920D01*
X159452059Y-74901000D01*
X159707941Y-74901000D01*
X159958904Y-74950920D01*
X159958904Y-74950920D01*
G37*
G36*
X142539158Y-76097911D02*
X142584745Y-76111739D01*
X142626758Y-76134197D01*
X142663583Y-76164417D01*
X142693803Y-76201242D01*
X142716261Y-76243255D01*
X142730089Y-76288842D01*
X142735000Y-76338704D01*
X142735000Y-76920296D01*
X142730089Y-76970158D01*
X142716261Y-77015745D01*
X142693803Y-77057758D01*
X142663583Y-77094583D01*
X142626758Y-77124803D01*
X142584745Y-77147261D01*
X142539158Y-77161089D01*
X142489296Y-77166000D01*
X141482704Y-77166000D01*
X141432842Y-77161089D01*
X141387255Y-77147261D01*
X141345242Y-77124803D01*
X141308417Y-77094583D01*
X141278197Y-77057758D01*
X141255739Y-77015745D01*
X141241911Y-76970158D01*
X141237000Y-76920296D01*
X141237000Y-76338704D01*
X141241911Y-76288842D01*
X141255739Y-76243255D01*
X141278197Y-76201242D01*
X141308417Y-76164417D01*
X141345242Y-76134197D01*
X141387255Y-76111739D01*
X141432842Y-76097911D01*
X141482704Y-76093000D01*
X142489296Y-76093000D01*
X142539158Y-76097911D01*
X142539158Y-76097911D01*
G37*
G36*
X152445158Y-76097911D02*
X152490745Y-76111739D01*
X152532758Y-76134197D01*
X152569583Y-76164417D01*
X152599803Y-76201242D01*
X152622261Y-76243255D01*
X152636089Y-76288842D01*
X152641000Y-76338704D01*
X152641000Y-76920296D01*
X152636089Y-76970158D01*
X152622261Y-77015745D01*
X152599803Y-77057758D01*
X152569583Y-77094583D01*
X152532758Y-77124803D01*
X152490745Y-77147261D01*
X152445158Y-77161089D01*
X152395296Y-77166000D01*
X151388704Y-77166000D01*
X151338842Y-77161089D01*
X151293255Y-77147261D01*
X151251242Y-77124803D01*
X151214417Y-77094583D01*
X151184197Y-77057758D01*
X151161739Y-77015745D01*
X151147911Y-76970158D01*
X151143000Y-76920296D01*
X151143000Y-76338704D01*
X151147911Y-76288842D01*
X151161739Y-76243255D01*
X151184197Y-76201242D01*
X151214417Y-76164417D01*
X151251242Y-76134197D01*
X151293255Y-76111739D01*
X151338842Y-76097911D01*
X151388704Y-76093000D01*
X152395296Y-76093000D01*
X152445158Y-76097911D01*
X152445158Y-76097911D01*
G37*
G36*
X156001158Y-76097911D02*
X156046745Y-76111739D01*
X156088758Y-76134197D01*
X156125583Y-76164417D01*
X156155803Y-76201242D01*
X156178261Y-76243255D01*
X156192089Y-76288842D01*
X156197000Y-76338704D01*
X156197000Y-76920296D01*
X156192089Y-76970158D01*
X156178261Y-77015745D01*
X156155803Y-77057758D01*
X156125583Y-77094583D01*
X156088758Y-77124803D01*
X156046745Y-77147261D01*
X156001158Y-77161089D01*
X155951296Y-77166000D01*
X154944704Y-77166000D01*
X154894842Y-77161089D01*
X154849255Y-77147261D01*
X154807242Y-77124803D01*
X154770417Y-77094583D01*
X154740197Y-77057758D01*
X154717739Y-77015745D01*
X154703911Y-76970158D01*
X154699000Y-76920296D01*
X154699000Y-76338704D01*
X154703911Y-76288842D01*
X154717739Y-76243255D01*
X154740197Y-76201242D01*
X154770417Y-76164417D01*
X154807242Y-76134197D01*
X154849255Y-76111739D01*
X154894842Y-76097911D01*
X154944704Y-76093000D01*
X155951296Y-76093000D01*
X156001158Y-76097911D01*
X156001158Y-76097911D01*
G37*
G36*
X148635158Y-76097911D02*
X148680745Y-76111739D01*
X148722758Y-76134197D01*
X148759583Y-76164417D01*
X148789803Y-76201242D01*
X148812261Y-76243255D01*
X148826089Y-76288842D01*
X148831000Y-76338704D01*
X148831000Y-76920296D01*
X148826089Y-76970158D01*
X148812261Y-77015745D01*
X148789803Y-77057758D01*
X148759583Y-77094583D01*
X148722758Y-77124803D01*
X148680745Y-77147261D01*
X148635158Y-77161089D01*
X148585296Y-77166000D01*
X147578704Y-77166000D01*
X147528842Y-77161089D01*
X147483255Y-77147261D01*
X147441242Y-77124803D01*
X147404417Y-77094583D01*
X147374197Y-77057758D01*
X147351739Y-77015745D01*
X147337911Y-76970158D01*
X147333000Y-76920296D01*
X147333000Y-76338704D01*
X147337911Y-76288842D01*
X147351739Y-76243255D01*
X147374197Y-76201242D01*
X147404417Y-76164417D01*
X147441242Y-76134197D01*
X147483255Y-76111739D01*
X147528842Y-76097911D01*
X147578704Y-76093000D01*
X148585296Y-76093000D01*
X148635158Y-76097911D01*
X148635158Y-76097911D01*
G37*
G36*
X186078600Y-76096600D02*
X184253400Y-76096600D01*
X184253400Y-74271400D01*
X186078600Y-74271400D01*
X186078600Y-76096600D01*
X186078600Y-76096600D01*
G37*
G36*
X182737864Y-74278003D02*
X182804901Y-74284605D01*
X182844340Y-74296569D01*
X182976926Y-74336788D01*
X183135464Y-74421528D01*
X183135466Y-74421530D01*
X183274428Y-74535572D01*
X183369703Y-74651666D01*
X183388472Y-74674536D01*
X183473212Y-74833074D01*
X183508960Y-74950920D01*
X183525395Y-75005099D01*
X183543015Y-75184000D01*
X183532477Y-75291000D01*
X183525395Y-75362900D01*
X183473212Y-75534926D01*
X183388472Y-75693464D01*
X183388470Y-75693466D01*
X183274428Y-75832428D01*
X183158334Y-75927703D01*
X183135464Y-75946472D01*
X182976926Y-76031212D01*
X182844939Y-76071250D01*
X182804901Y-76083395D01*
X182737864Y-76089997D01*
X182670828Y-76096600D01*
X182581172Y-76096600D01*
X182514136Y-76089997D01*
X182447099Y-76083395D01*
X182407061Y-76071250D01*
X182275074Y-76031212D01*
X182116536Y-75946472D01*
X182093666Y-75927703D01*
X181977572Y-75832428D01*
X181863530Y-75693466D01*
X181863528Y-75693464D01*
X181778788Y-75534926D01*
X181726605Y-75362900D01*
X181719524Y-75291000D01*
X181708985Y-75184000D01*
X181726605Y-75005099D01*
X181743040Y-74950920D01*
X181778788Y-74833074D01*
X181863528Y-74674536D01*
X181882297Y-74651666D01*
X181977572Y-74535572D01*
X182116534Y-74421530D01*
X182116536Y-74421528D01*
X182275074Y-74336788D01*
X182407660Y-74296569D01*
X182447099Y-74284605D01*
X182514136Y-74278003D01*
X182581172Y-74271400D01*
X182670828Y-74271400D01*
X182737864Y-74278003D01*
X182737864Y-74278003D01*
G37*
G36*
X180197864Y-74278003D02*
X180264901Y-74284605D01*
X180304340Y-74296569D01*
X180436926Y-74336788D01*
X180595464Y-74421528D01*
X180595466Y-74421530D01*
X180734428Y-74535572D01*
X180829703Y-74651666D01*
X180848472Y-74674536D01*
X180933212Y-74833074D01*
X180968960Y-74950920D01*
X180985395Y-75005099D01*
X181003015Y-75184000D01*
X180992477Y-75291000D01*
X180985395Y-75362900D01*
X180933212Y-75534926D01*
X180848472Y-75693464D01*
X180848470Y-75693466D01*
X180734428Y-75832428D01*
X180618334Y-75927703D01*
X180595464Y-75946472D01*
X180436926Y-76031212D01*
X180304939Y-76071250D01*
X180264901Y-76083395D01*
X180197864Y-76089997D01*
X180130828Y-76096600D01*
X180041172Y-76096600D01*
X179974136Y-76089997D01*
X179907099Y-76083395D01*
X179867061Y-76071250D01*
X179735074Y-76031212D01*
X179576536Y-75946472D01*
X179553666Y-75927703D01*
X179437572Y-75832428D01*
X179323530Y-75693466D01*
X179323528Y-75693464D01*
X179238788Y-75534926D01*
X179186605Y-75362900D01*
X179179524Y-75291000D01*
X179168985Y-75184000D01*
X179186605Y-75005099D01*
X179203040Y-74950920D01*
X179238788Y-74833074D01*
X179323528Y-74674536D01*
X179342297Y-74651666D01*
X179437572Y-74535572D01*
X179576534Y-74421530D01*
X179576536Y-74421528D01*
X179735074Y-74336788D01*
X179867660Y-74296569D01*
X179907099Y-74284605D01*
X179974136Y-74278003D01*
X180041172Y-74271400D01*
X180130828Y-74271400D01*
X180197864Y-74278003D01*
X180197864Y-74278003D01*
G37*
G36*
X177657864Y-74278003D02*
X177724901Y-74284605D01*
X177764340Y-74296569D01*
X177896926Y-74336788D01*
X178055464Y-74421528D01*
X178055466Y-74421530D01*
X178194428Y-74535572D01*
X178289703Y-74651666D01*
X178308472Y-74674536D01*
X178393212Y-74833074D01*
X178428960Y-74950920D01*
X178445395Y-75005099D01*
X178463015Y-75184000D01*
X178452477Y-75291000D01*
X178445395Y-75362900D01*
X178393212Y-75534926D01*
X178308472Y-75693464D01*
X178308470Y-75693466D01*
X178194428Y-75832428D01*
X178078334Y-75927703D01*
X178055464Y-75946472D01*
X177896926Y-76031212D01*
X177764939Y-76071250D01*
X177724901Y-76083395D01*
X177657864Y-76089997D01*
X177590828Y-76096600D01*
X177501172Y-76096600D01*
X177434136Y-76089997D01*
X177367099Y-76083395D01*
X177327061Y-76071250D01*
X177195074Y-76031212D01*
X177036536Y-75946472D01*
X177013666Y-75927703D01*
X176897572Y-75832428D01*
X176783530Y-75693466D01*
X176783528Y-75693464D01*
X176698788Y-75534926D01*
X176646605Y-75362900D01*
X176639524Y-75291000D01*
X176628985Y-75184000D01*
X176646605Y-75005099D01*
X176663040Y-74950920D01*
X176698788Y-74833074D01*
X176783528Y-74674536D01*
X176802297Y-74651666D01*
X176897572Y-74535572D01*
X177036534Y-74421530D01*
X177036536Y-74421528D01*
X177195074Y-74336788D01*
X177327660Y-74296569D01*
X177367099Y-74284605D01*
X177434136Y-74278003D01*
X177501172Y-74271400D01*
X177590828Y-74271400D01*
X177657864Y-74278003D01*
X177657864Y-74278003D01*
G37*
G36*
X171027000Y-75733000D02*
X167779000Y-75733000D01*
X167779000Y-74635000D01*
X171027000Y-74635000D01*
X171027000Y-75733000D01*
X171027000Y-75733000D01*
G37*
G36*
X165977000Y-75733000D02*
X162729000Y-75733000D01*
X162729000Y-74635000D01*
X165977000Y-74635000D01*
X165977000Y-75733000D01*
X165977000Y-75733000D01*
G37*
G36*
X140025225Y-73718890D02*
X140147562Y-73756001D01*
X140260309Y-73816265D01*
X140359133Y-73897367D01*
X140440235Y-73996190D01*
X140500498Y-74108936D01*
X140500499Y-74108937D01*
X140537610Y-74231274D01*
X140547000Y-74326616D01*
X140547000Y-75090384D01*
X140537610Y-75185726D01*
X140507165Y-75286089D01*
X140500499Y-75308063D01*
X140440235Y-75420810D01*
X140359133Y-75519633D01*
X140260310Y-75600735D01*
X140147563Y-75660999D01*
X140025226Y-75698110D01*
X139898000Y-75710640D01*
X139770775Y-75698110D01*
X139648438Y-75660999D01*
X139535691Y-75600735D01*
X139436868Y-75519633D01*
X139355766Y-75420810D01*
X139295501Y-75308063D01*
X139258391Y-75185726D01*
X139258390Y-75185724D01*
X139249000Y-75090384D01*
X139249000Y-74326617D01*
X139258390Y-74231275D01*
X139295501Y-74108938D01*
X139355766Y-73996190D01*
X139355767Y-73996189D01*
X139436867Y-73897367D01*
X139535690Y-73816265D01*
X139648437Y-73756001D01*
X139770774Y-73718890D01*
X139898000Y-73706360D01*
X140025225Y-73718890D01*
X140025225Y-73718890D01*
G37*
G36*
X133025226Y-73718890D02*
X133147563Y-73756001D01*
X133260310Y-73816265D01*
X133359133Y-73897367D01*
X133440235Y-73996190D01*
X133500498Y-74108936D01*
X133500499Y-74108937D01*
X133537610Y-74231274D01*
X133547000Y-74326616D01*
X133547000Y-75090384D01*
X133537610Y-75185726D01*
X133507165Y-75286089D01*
X133500499Y-75308063D01*
X133440235Y-75420810D01*
X133359133Y-75519633D01*
X133260309Y-75600735D01*
X133147562Y-75660999D01*
X133025225Y-75698110D01*
X132898000Y-75710640D01*
X132770774Y-75698110D01*
X132648437Y-75660999D01*
X132535690Y-75600735D01*
X132436867Y-75519633D01*
X132355765Y-75420809D01*
X132295501Y-75308062D01*
X132290325Y-75291000D01*
X132258390Y-75185725D01*
X132249000Y-75090383D01*
X132249000Y-74326616D01*
X132258390Y-74231276D01*
X132265374Y-74208253D01*
X132295501Y-74108937D01*
X132355766Y-73996190D01*
X132436868Y-73897367D01*
X132535691Y-73816265D01*
X132648438Y-73756001D01*
X132770775Y-73718890D01*
X132898000Y-73706360D01*
X133025226Y-73718890D01*
X133025226Y-73718890D01*
G37*
G36*
X148635158Y-74222911D02*
X148680745Y-74236739D01*
X148722758Y-74259197D01*
X148759583Y-74289417D01*
X148789803Y-74326242D01*
X148812261Y-74368255D01*
X148826089Y-74413842D01*
X148831000Y-74463704D01*
X148831000Y-75045296D01*
X148826089Y-75095158D01*
X148812261Y-75140745D01*
X148789803Y-75182758D01*
X148759583Y-75219583D01*
X148722758Y-75249803D01*
X148680745Y-75272261D01*
X148635158Y-75286089D01*
X148585296Y-75291000D01*
X147578704Y-75291000D01*
X147528842Y-75286089D01*
X147483255Y-75272261D01*
X147441242Y-75249803D01*
X147404417Y-75219583D01*
X147374197Y-75182758D01*
X147351739Y-75140745D01*
X147337911Y-75095158D01*
X147333000Y-75045296D01*
X147333000Y-74463704D01*
X147337911Y-74413842D01*
X147351739Y-74368255D01*
X147374197Y-74326242D01*
X147404417Y-74289417D01*
X147441242Y-74259197D01*
X147483255Y-74236739D01*
X147528842Y-74222911D01*
X147578704Y-74218000D01*
X148585296Y-74218000D01*
X148635158Y-74222911D01*
X148635158Y-74222911D01*
G37*
G36*
X142539158Y-74222911D02*
X142584745Y-74236739D01*
X142626758Y-74259197D01*
X142663583Y-74289417D01*
X142693803Y-74326242D01*
X142716261Y-74368255D01*
X142730089Y-74413842D01*
X142735000Y-74463704D01*
X142735000Y-75045296D01*
X142730089Y-75095158D01*
X142716261Y-75140745D01*
X142693803Y-75182758D01*
X142663583Y-75219583D01*
X142626758Y-75249803D01*
X142584745Y-75272261D01*
X142539158Y-75286089D01*
X142489296Y-75291000D01*
X141482704Y-75291000D01*
X141432842Y-75286089D01*
X141387255Y-75272261D01*
X141345242Y-75249803D01*
X141308417Y-75219583D01*
X141278197Y-75182758D01*
X141255739Y-75140745D01*
X141241911Y-75095158D01*
X141237000Y-75045296D01*
X141237000Y-74463704D01*
X141241911Y-74413842D01*
X141255739Y-74368255D01*
X141278197Y-74326242D01*
X141308417Y-74289417D01*
X141345242Y-74259197D01*
X141387255Y-74236739D01*
X141432842Y-74222911D01*
X141482704Y-74218000D01*
X142489296Y-74218000D01*
X142539158Y-74222911D01*
X142539158Y-74222911D01*
G37*
G36*
X152445158Y-74222911D02*
X152490745Y-74236739D01*
X152532758Y-74259197D01*
X152569583Y-74289417D01*
X152599803Y-74326242D01*
X152622261Y-74368255D01*
X152636089Y-74413842D01*
X152641000Y-74463704D01*
X152641000Y-75045296D01*
X152636089Y-75095158D01*
X152622261Y-75140745D01*
X152599803Y-75182758D01*
X152569583Y-75219583D01*
X152532758Y-75249803D01*
X152490745Y-75272261D01*
X152445158Y-75286089D01*
X152395296Y-75291000D01*
X151388704Y-75291000D01*
X151338842Y-75286089D01*
X151293255Y-75272261D01*
X151251242Y-75249803D01*
X151214417Y-75219583D01*
X151184197Y-75182758D01*
X151161739Y-75140745D01*
X151147911Y-75095158D01*
X151143000Y-75045296D01*
X151143000Y-74463704D01*
X151147911Y-74413842D01*
X151161739Y-74368255D01*
X151184197Y-74326242D01*
X151214417Y-74289417D01*
X151251242Y-74259197D01*
X151293255Y-74236739D01*
X151338842Y-74222911D01*
X151388704Y-74218000D01*
X152395296Y-74218000D01*
X152445158Y-74222911D01*
X152445158Y-74222911D01*
G37*
G36*
X156001158Y-74222911D02*
X156046745Y-74236739D01*
X156088758Y-74259197D01*
X156125583Y-74289417D01*
X156155803Y-74326242D01*
X156178261Y-74368255D01*
X156192089Y-74413842D01*
X156197000Y-74463704D01*
X156197000Y-75045296D01*
X156192089Y-75095158D01*
X156178261Y-75140745D01*
X156155803Y-75182758D01*
X156125583Y-75219583D01*
X156088758Y-75249803D01*
X156046745Y-75272261D01*
X156001158Y-75286089D01*
X155951296Y-75291000D01*
X154944704Y-75291000D01*
X154894842Y-75286089D01*
X154849255Y-75272261D01*
X154807242Y-75249803D01*
X154770417Y-75219583D01*
X154740197Y-75182758D01*
X154717739Y-75140745D01*
X154703911Y-75095158D01*
X154699000Y-75045296D01*
X154699000Y-74463704D01*
X154703911Y-74413842D01*
X154717739Y-74368255D01*
X154740197Y-74326242D01*
X154770417Y-74289417D01*
X154807242Y-74259197D01*
X154849255Y-74236739D01*
X154894842Y-74222911D01*
X154944704Y-74218000D01*
X155951296Y-74218000D01*
X156001158Y-74222911D01*
X156001158Y-74222911D01*
G37*
M02*
