G04 #@! TF.GenerationSoftware,KiCad,Pcbnew,5.1.6-c6e7f7d~87~ubuntu18.04.1*
G04 #@! TF.CreationDate,2020-07-15T21:40:22+02:00*
G04 #@! TF.ProjectId,Mini-BT-Pcb-328P,4d696e69-2d42-4542-9d50-63622d333238,2.0*
G04 #@! TF.SameCoordinates,Original*
G04 #@! TF.FileFunction,Copper,L2,Bot*
G04 #@! TF.FilePolarity,Positive*
%FSLAX46Y46*%
G04 Gerber Fmt 4.6, Leading zero omitted, Abs format (unit mm)*
G04 Created by KiCad (PCBNEW 5.1.6-c6e7f7d~87~ubuntu18.04.1) date 2020-07-15 21:40:22*
%MOMM*%
%LPD*%
G01*
G04 APERTURE LIST*
G04 #@! TA.AperFunction,SMDPad,CuDef*
%ADD10C,0.100000*%
G04 #@! TD*
G04 #@! TA.AperFunction,ComponentPad*
%ADD11C,1.524000*%
G04 #@! TD*
G04 #@! TA.AperFunction,SMDPad,CuDef*
%ADD12R,2.180000X1.600000*%
G04 #@! TD*
G04 #@! TA.AperFunction,SMDPad,CuDef*
%ADD13R,1.500000X1.000000*%
G04 #@! TD*
G04 #@! TA.AperFunction,SMDPad,CuDef*
%ADD14R,2.540000X3.510000*%
G04 #@! TD*
G04 #@! TA.AperFunction,SMDPad,CuDef*
%ADD15R,3.020000X1.510000*%
G04 #@! TD*
G04 #@! TA.AperFunction,ComponentPad*
%ADD16R,1.700000X1.700000*%
G04 #@! TD*
G04 #@! TA.AperFunction,SMDPad,CuDef*
%ADD17R,2.510000X1.000000*%
G04 #@! TD*
G04 #@! TA.AperFunction,SMDPad,CuDef*
%ADD18R,1.500000X1.900000*%
G04 #@! TD*
G04 #@! TA.AperFunction,ComponentPad*
%ADD19C,1.450000*%
G04 #@! TD*
G04 #@! TA.AperFunction,SMDPad,CuDef*
%ADD20R,0.400000X1.350000*%
G04 #@! TD*
G04 #@! TA.AperFunction,ComponentPad*
%ADD21O,1.200000X1.900000*%
G04 #@! TD*
G04 #@! TA.AperFunction,SMDPad,CuDef*
%ADD22R,1.200000X1.900000*%
G04 #@! TD*
G04 #@! TA.AperFunction,SMDPad,CuDef*
%ADD23R,1.000000X1.400000*%
G04 #@! TD*
G04 #@! TA.AperFunction,SMDPad,CuDef*
%ADD24R,2.000000X3.800000*%
G04 #@! TD*
G04 #@! TA.AperFunction,SMDPad,CuDef*
%ADD25R,2.000000X1.500000*%
G04 #@! TD*
G04 #@! TA.AperFunction,SMDPad,CuDef*
%ADD26R,0.800000X1.900000*%
G04 #@! TD*
G04 #@! TA.AperFunction,SMDPad,CuDef*
%ADD27R,3.960000X5.080000*%
G04 #@! TD*
G04 #@! TA.AperFunction,SMDPad,CuDef*
%ADD28R,3.960000X2.340000*%
G04 #@! TD*
G04 #@! TA.AperFunction,SMDPad,CuDef*
%ADD29R,1.750000X2.650000*%
G04 #@! TD*
G04 #@! TA.AperFunction,ComponentPad*
%ADD30O,1.727200X1.727200*%
G04 #@! TD*
G04 #@! TA.AperFunction,ComponentPad*
%ADD31R,1.727200X1.727200*%
G04 #@! TD*
G04 #@! TA.AperFunction,ViaPad*
%ADD32C,0.650000*%
G04 #@! TD*
G04 #@! TA.AperFunction,Conductor*
%ADD33C,0.160000*%
G04 #@! TD*
G04 #@! TA.AperFunction,Conductor*
%ADD34C,0.300000*%
G04 #@! TD*
G04 #@! TA.AperFunction,Conductor*
%ADD35C,0.200000*%
G04 #@! TD*
G04 APERTURE END LIST*
G04 #@! TA.AperFunction,SMDPad,CuDef*
D10*
G36*
X185570000Y-106438000D02*
G01*
X186070000Y-106438000D01*
X186070000Y-106438602D01*
X186094534Y-106438602D01*
X186143365Y-106443412D01*
X186191490Y-106452984D01*
X186238445Y-106467228D01*
X186283778Y-106486005D01*
X186327051Y-106509136D01*
X186367850Y-106536396D01*
X186405779Y-106567524D01*
X186440476Y-106602221D01*
X186471604Y-106640150D01*
X186498864Y-106680949D01*
X186521995Y-106724222D01*
X186540772Y-106769555D01*
X186555016Y-106816510D01*
X186564588Y-106864635D01*
X186569398Y-106913466D01*
X186569398Y-106938000D01*
X186570000Y-106938000D01*
X186570000Y-107438000D01*
X186569398Y-107438000D01*
X186569398Y-107462534D01*
X186564588Y-107511365D01*
X186555016Y-107559490D01*
X186540772Y-107606445D01*
X186521995Y-107651778D01*
X186498864Y-107695051D01*
X186471604Y-107735850D01*
X186440476Y-107773779D01*
X186405779Y-107808476D01*
X186367850Y-107839604D01*
X186327051Y-107866864D01*
X186283778Y-107889995D01*
X186238445Y-107908772D01*
X186191490Y-107923016D01*
X186143365Y-107932588D01*
X186094534Y-107937398D01*
X186070000Y-107937398D01*
X186070000Y-107938000D01*
X185570000Y-107938000D01*
X185570000Y-106438000D01*
G37*
G04 #@! TD.AperFunction*
G04 #@! TA.AperFunction,SMDPad,CuDef*
G36*
X184770000Y-107937398D02*
G01*
X184745466Y-107937398D01*
X184696635Y-107932588D01*
X184648510Y-107923016D01*
X184601555Y-107908772D01*
X184556222Y-107889995D01*
X184512949Y-107866864D01*
X184472150Y-107839604D01*
X184434221Y-107808476D01*
X184399524Y-107773779D01*
X184368396Y-107735850D01*
X184341136Y-107695051D01*
X184318005Y-107651778D01*
X184299228Y-107606445D01*
X184284984Y-107559490D01*
X184275412Y-107511365D01*
X184270602Y-107462534D01*
X184270602Y-107438000D01*
X184270000Y-107438000D01*
X184270000Y-106938000D01*
X184270602Y-106938000D01*
X184270602Y-106913466D01*
X184275412Y-106864635D01*
X184284984Y-106816510D01*
X184299228Y-106769555D01*
X184318005Y-106724222D01*
X184341136Y-106680949D01*
X184368396Y-106640150D01*
X184399524Y-106602221D01*
X184434221Y-106567524D01*
X184472150Y-106536396D01*
X184512949Y-106509136D01*
X184556222Y-106486005D01*
X184601555Y-106467228D01*
X184648510Y-106452984D01*
X184696635Y-106443412D01*
X184745466Y-106438602D01*
X184770000Y-106438602D01*
X184770000Y-106438000D01*
X185270000Y-106438000D01*
X185270000Y-107938000D01*
X184770000Y-107938000D01*
X184770000Y-107937398D01*
G37*
G04 #@! TD.AperFunction*
D11*
X140368000Y-82550000D03*
X160368000Y-82550000D03*
D12*
X180622000Y-81280000D03*
X171422000Y-81280000D03*
G04 #@! TA.AperFunction,SMDPad,CuDef*
G36*
G01*
X169020000Y-77004000D02*
X169020000Y-75904000D01*
G75*
G02*
X169270000Y-75654000I250000J0D01*
G01*
X171770000Y-75654000D01*
G75*
G02*
X172020000Y-75904000I0J-250000D01*
G01*
X172020000Y-77004000D01*
G75*
G02*
X171770000Y-77254000I-250000J0D01*
G01*
X169270000Y-77254000D01*
G75*
G02*
X169020000Y-77004000I0J250000D01*
G01*
G37*
G04 #@! TD.AperFunction*
G04 #@! TA.AperFunction,SMDPad,CuDef*
G36*
G01*
X173420000Y-77004000D02*
X173420000Y-75904000D01*
G75*
G02*
X173670000Y-75654000I250000J0D01*
G01*
X176170000Y-75654000D01*
G75*
G02*
X176420000Y-75904000I0J-250000D01*
G01*
X176420000Y-77004000D01*
G75*
G02*
X176170000Y-77254000I-250000J0D01*
G01*
X173670000Y-77254000D01*
G75*
G02*
X173420000Y-77004000I0J250000D01*
G01*
G37*
G04 #@! TD.AperFunction*
G04 #@! TA.AperFunction,SMDPad,CuDef*
D10*
G36*
X134008000Y-106438000D02*
G01*
X134508000Y-106438000D01*
X134508000Y-106438602D01*
X134532534Y-106438602D01*
X134581365Y-106443412D01*
X134629490Y-106452984D01*
X134676445Y-106467228D01*
X134721778Y-106486005D01*
X134765051Y-106509136D01*
X134805850Y-106536396D01*
X134843779Y-106567524D01*
X134878476Y-106602221D01*
X134909604Y-106640150D01*
X134936864Y-106680949D01*
X134959995Y-106724222D01*
X134978772Y-106769555D01*
X134993016Y-106816510D01*
X135002588Y-106864635D01*
X135007398Y-106913466D01*
X135007398Y-106938000D01*
X135008000Y-106938000D01*
X135008000Y-107438000D01*
X135007398Y-107438000D01*
X135007398Y-107462534D01*
X135002588Y-107511365D01*
X134993016Y-107559490D01*
X134978772Y-107606445D01*
X134959995Y-107651778D01*
X134936864Y-107695051D01*
X134909604Y-107735850D01*
X134878476Y-107773779D01*
X134843779Y-107808476D01*
X134805850Y-107839604D01*
X134765051Y-107866864D01*
X134721778Y-107889995D01*
X134676445Y-107908772D01*
X134629490Y-107923016D01*
X134581365Y-107932588D01*
X134532534Y-107937398D01*
X134508000Y-107937398D01*
X134508000Y-107938000D01*
X134008000Y-107938000D01*
X134008000Y-106438000D01*
G37*
G04 #@! TD.AperFunction*
G04 #@! TA.AperFunction,SMDPad,CuDef*
G36*
X133208000Y-107937398D02*
G01*
X133183466Y-107937398D01*
X133134635Y-107932588D01*
X133086510Y-107923016D01*
X133039555Y-107908772D01*
X132994222Y-107889995D01*
X132950949Y-107866864D01*
X132910150Y-107839604D01*
X132872221Y-107808476D01*
X132837524Y-107773779D01*
X132806396Y-107735850D01*
X132779136Y-107695051D01*
X132756005Y-107651778D01*
X132737228Y-107606445D01*
X132722984Y-107559490D01*
X132713412Y-107511365D01*
X132708602Y-107462534D01*
X132708602Y-107438000D01*
X132708000Y-107438000D01*
X132708000Y-106938000D01*
X132708602Y-106938000D01*
X132708602Y-106913466D01*
X132713412Y-106864635D01*
X132722984Y-106816510D01*
X132737228Y-106769555D01*
X132756005Y-106724222D01*
X132779136Y-106680949D01*
X132806396Y-106640150D01*
X132837524Y-106602221D01*
X132872221Y-106567524D01*
X132910150Y-106536396D01*
X132950949Y-106509136D01*
X132994222Y-106486005D01*
X133039555Y-106467228D01*
X133086510Y-106452984D01*
X133134635Y-106443412D01*
X133183466Y-106438602D01*
X133208000Y-106438602D01*
X133208000Y-106438000D01*
X133708000Y-106438000D01*
X133708000Y-107938000D01*
X133208000Y-107938000D01*
X133208000Y-107937398D01*
G37*
G04 #@! TD.AperFunction*
G04 #@! TA.AperFunction,SMDPad,CuDef*
G36*
X184162000Y-95232000D02*
G01*
X184162000Y-94682000D01*
X184162602Y-94682000D01*
X184162602Y-94657466D01*
X184167412Y-94608635D01*
X184176984Y-94560510D01*
X184191228Y-94513555D01*
X184210005Y-94468222D01*
X184233136Y-94424949D01*
X184260396Y-94384150D01*
X184291524Y-94346221D01*
X184326221Y-94311524D01*
X184364150Y-94280396D01*
X184404949Y-94253136D01*
X184448222Y-94230005D01*
X184493555Y-94211228D01*
X184540510Y-94196984D01*
X184588635Y-94187412D01*
X184637466Y-94182602D01*
X184662000Y-94182602D01*
X184662000Y-94182000D01*
X185162000Y-94182000D01*
X185162000Y-94182602D01*
X185186534Y-94182602D01*
X185235365Y-94187412D01*
X185283490Y-94196984D01*
X185330445Y-94211228D01*
X185375778Y-94230005D01*
X185419051Y-94253136D01*
X185459850Y-94280396D01*
X185497779Y-94311524D01*
X185532476Y-94346221D01*
X185563604Y-94384150D01*
X185590864Y-94424949D01*
X185613995Y-94468222D01*
X185632772Y-94513555D01*
X185647016Y-94560510D01*
X185656588Y-94608635D01*
X185661398Y-94657466D01*
X185661398Y-94682000D01*
X185662000Y-94682000D01*
X185662000Y-95232000D01*
X184162000Y-95232000D01*
G37*
G04 #@! TD.AperFunction*
G04 #@! TA.AperFunction,SMDPad,CuDef*
G36*
X185661398Y-97282000D02*
G01*
X185661398Y-97306534D01*
X185656588Y-97355365D01*
X185647016Y-97403490D01*
X185632772Y-97450445D01*
X185613995Y-97495778D01*
X185590864Y-97539051D01*
X185563604Y-97579850D01*
X185532476Y-97617779D01*
X185497779Y-97652476D01*
X185459850Y-97683604D01*
X185419051Y-97710864D01*
X185375778Y-97733995D01*
X185330445Y-97752772D01*
X185283490Y-97767016D01*
X185235365Y-97776588D01*
X185186534Y-97781398D01*
X185162000Y-97781398D01*
X185162000Y-97782000D01*
X184662000Y-97782000D01*
X184662000Y-97781398D01*
X184637466Y-97781398D01*
X184588635Y-97776588D01*
X184540510Y-97767016D01*
X184493555Y-97752772D01*
X184448222Y-97733995D01*
X184404949Y-97710864D01*
X184364150Y-97683604D01*
X184326221Y-97652476D01*
X184291524Y-97617779D01*
X184260396Y-97579850D01*
X184233136Y-97539051D01*
X184210005Y-97495778D01*
X184191228Y-97450445D01*
X184176984Y-97403490D01*
X184167412Y-97355365D01*
X184162602Y-97306534D01*
X184162602Y-97282000D01*
X184162000Y-97282000D01*
X184162000Y-96732000D01*
X185662000Y-96732000D01*
X185662000Y-97282000D01*
X185661398Y-97282000D01*
G37*
G04 #@! TD.AperFunction*
D13*
X184912000Y-95982000D03*
D14*
X144900000Y-96266000D03*
X174260000Y-96266000D03*
D15*
X151638000Y-77650000D03*
X151638000Y-74750000D03*
G04 #@! TA.AperFunction,SMDPad,CuDef*
G36*
G01*
X133662000Y-97587750D02*
X133662000Y-98500250D01*
G75*
G02*
X133418250Y-98744000I-243750J0D01*
G01*
X132930750Y-98744000D01*
G75*
G02*
X132687000Y-98500250I0J243750D01*
G01*
X132687000Y-97587750D01*
G75*
G02*
X132930750Y-97344000I243750J0D01*
G01*
X133418250Y-97344000D01*
G75*
G02*
X133662000Y-97587750I0J-243750D01*
G01*
G37*
G04 #@! TD.AperFunction*
G04 #@! TA.AperFunction,SMDPad,CuDef*
G36*
G01*
X135537000Y-97587750D02*
X135537000Y-98500250D01*
G75*
G02*
X135293250Y-98744000I-243750J0D01*
G01*
X134805750Y-98744000D01*
G75*
G02*
X134562000Y-98500250I0J243750D01*
G01*
X134562000Y-97587750D01*
G75*
G02*
X134805750Y-97344000I243750J0D01*
G01*
X135293250Y-97344000D01*
G75*
G02*
X135537000Y-97587750I0J-243750D01*
G01*
G37*
G04 #@! TD.AperFunction*
G04 #@! TA.AperFunction,SMDPad,CuDef*
G36*
G01*
X137513000Y-79958250D02*
X137513000Y-79045750D01*
G75*
G02*
X137756750Y-78802000I243750J0D01*
G01*
X138244250Y-78802000D01*
G75*
G02*
X138488000Y-79045750I0J-243750D01*
G01*
X138488000Y-79958250D01*
G75*
G02*
X138244250Y-80202000I-243750J0D01*
G01*
X137756750Y-80202000D01*
G75*
G02*
X137513000Y-79958250I0J243750D01*
G01*
G37*
G04 #@! TD.AperFunction*
G04 #@! TA.AperFunction,SMDPad,CuDef*
G36*
G01*
X139388000Y-79958250D02*
X139388000Y-79045750D01*
G75*
G02*
X139631750Y-78802000I243750J0D01*
G01*
X140119250Y-78802000D01*
G75*
G02*
X140363000Y-79045750I0J-243750D01*
G01*
X140363000Y-79958250D01*
G75*
G02*
X140119250Y-80202000I-243750J0D01*
G01*
X139631750Y-80202000D01*
G75*
G02*
X139388000Y-79958250I0J243750D01*
G01*
G37*
G04 #@! TD.AperFunction*
G04 #@! TA.AperFunction,SMDPad,CuDef*
G36*
G01*
X134562000Y-85292250D02*
X134562000Y-84379750D01*
G75*
G02*
X134805750Y-84136000I243750J0D01*
G01*
X135293250Y-84136000D01*
G75*
G02*
X135537000Y-84379750I0J-243750D01*
G01*
X135537000Y-85292250D01*
G75*
G02*
X135293250Y-85536000I-243750J0D01*
G01*
X134805750Y-85536000D01*
G75*
G02*
X134562000Y-85292250I0J243750D01*
G01*
G37*
G04 #@! TD.AperFunction*
G04 #@! TA.AperFunction,SMDPad,CuDef*
G36*
G01*
X132687000Y-85292250D02*
X132687000Y-84379750D01*
G75*
G02*
X132930750Y-84136000I243750J0D01*
G01*
X133418250Y-84136000D01*
G75*
G02*
X133662000Y-84379750I0J-243750D01*
G01*
X133662000Y-85292250D01*
G75*
G02*
X133418250Y-85536000I-243750J0D01*
G01*
X132930750Y-85536000D01*
G75*
G02*
X132687000Y-85292250I0J243750D01*
G01*
G37*
G04 #@! TD.AperFunction*
G04 #@! TA.AperFunction,SMDPad,CuDef*
G36*
G01*
X169573000Y-82347750D02*
X169573000Y-83260250D01*
G75*
G02*
X169329250Y-83504000I-243750J0D01*
G01*
X168841750Y-83504000D01*
G75*
G02*
X168598000Y-83260250I0J243750D01*
G01*
X168598000Y-82347750D01*
G75*
G02*
X168841750Y-82104000I243750J0D01*
G01*
X169329250Y-82104000D01*
G75*
G02*
X169573000Y-82347750I0J-243750D01*
G01*
G37*
G04 #@! TD.AperFunction*
G04 #@! TA.AperFunction,SMDPad,CuDef*
G36*
G01*
X167698000Y-82347750D02*
X167698000Y-83260250D01*
G75*
G02*
X167454250Y-83504000I-243750J0D01*
G01*
X166966750Y-83504000D01*
G75*
G02*
X166723000Y-83260250I0J243750D01*
G01*
X166723000Y-82347750D01*
G75*
G02*
X166966750Y-82104000I243750J0D01*
G01*
X167454250Y-82104000D01*
G75*
G02*
X167698000Y-82347750I0J-243750D01*
G01*
G37*
G04 #@! TD.AperFunction*
D16*
X183896000Y-81280000D03*
D17*
X167009000Y-75184000D03*
X167009000Y-80264000D03*
X163699000Y-77724000D03*
D18*
X137398000Y-74708500D03*
D19*
X133898000Y-77408500D03*
D20*
X135748000Y-77408500D03*
X135098000Y-77408500D03*
X137698000Y-77408500D03*
X137048000Y-77408500D03*
X136398000Y-77408500D03*
D19*
X138898000Y-77408500D03*
D18*
X135398000Y-74708500D03*
D21*
X132898000Y-74708500D03*
X139898000Y-74708500D03*
D22*
X139298000Y-74708500D03*
X133498000Y-74708500D03*
D23*
X151638000Y-82126000D03*
X152588000Y-79926000D03*
X150688000Y-79926000D03*
X133858000Y-93896000D03*
X132908000Y-96096000D03*
X134808000Y-96096000D03*
D24*
X148438000Y-77216000D03*
D25*
X142138000Y-77216000D03*
X142138000Y-74916000D03*
X142138000Y-79516000D03*
D26*
X135062000Y-82526000D03*
X133162000Y-82526000D03*
X134112000Y-79526000D03*
G04 #@! TA.AperFunction,SMDPad,CuDef*
G36*
G01*
X157277750Y-80714000D02*
X158190250Y-80714000D01*
G75*
G02*
X158434000Y-80957750I0J-243750D01*
G01*
X158434000Y-81445250D01*
G75*
G02*
X158190250Y-81689000I-243750J0D01*
G01*
X157277750Y-81689000D01*
G75*
G02*
X157034000Y-81445250I0J243750D01*
G01*
X157034000Y-80957750D01*
G75*
G02*
X157277750Y-80714000I243750J0D01*
G01*
G37*
G04 #@! TD.AperFunction*
G04 #@! TA.AperFunction,SMDPad,CuDef*
G36*
G01*
X157277750Y-78839000D02*
X158190250Y-78839000D01*
G75*
G02*
X158434000Y-79082750I0J-243750D01*
G01*
X158434000Y-79570250D01*
G75*
G02*
X158190250Y-79814000I-243750J0D01*
G01*
X157277750Y-79814000D01*
G75*
G02*
X157034000Y-79570250I0J243750D01*
G01*
X157034000Y-79082750D01*
G75*
G02*
X157277750Y-78839000I243750J0D01*
G01*
G37*
G04 #@! TD.AperFunction*
G04 #@! TA.AperFunction,SMDPad,CuDef*
G36*
G01*
X162000250Y-79814000D02*
X161087750Y-79814000D01*
G75*
G02*
X160844000Y-79570250I0J243750D01*
G01*
X160844000Y-79082750D01*
G75*
G02*
X161087750Y-78839000I243750J0D01*
G01*
X162000250Y-78839000D01*
G75*
G02*
X162244000Y-79082750I0J-243750D01*
G01*
X162244000Y-79570250D01*
G75*
G02*
X162000250Y-79814000I-243750J0D01*
G01*
G37*
G04 #@! TD.AperFunction*
G04 #@! TA.AperFunction,SMDPad,CuDef*
G36*
G01*
X162000250Y-81689000D02*
X161087750Y-81689000D01*
G75*
G02*
X160844000Y-81445250I0J243750D01*
G01*
X160844000Y-80957750D01*
G75*
G02*
X161087750Y-80714000I243750J0D01*
G01*
X162000250Y-80714000D01*
G75*
G02*
X162244000Y-80957750I0J-243750D01*
G01*
X162244000Y-81445250D01*
G75*
G02*
X162000250Y-81689000I-243750J0D01*
G01*
G37*
G04 #@! TD.AperFunction*
G04 #@! TA.AperFunction,SMDPad,CuDef*
G36*
G01*
X139093000Y-81585750D02*
X139093000Y-82498250D01*
G75*
G02*
X138849250Y-82742000I-243750J0D01*
G01*
X138361750Y-82742000D01*
G75*
G02*
X138118000Y-82498250I0J243750D01*
G01*
X138118000Y-81585750D01*
G75*
G02*
X138361750Y-81342000I243750J0D01*
G01*
X138849250Y-81342000D01*
G75*
G02*
X139093000Y-81585750I0J-243750D01*
G01*
G37*
G04 #@! TD.AperFunction*
G04 #@! TA.AperFunction,SMDPad,CuDef*
G36*
G01*
X137218000Y-81585750D02*
X137218000Y-82498250D01*
G75*
G02*
X136974250Y-82742000I-243750J0D01*
G01*
X136486750Y-82742000D01*
G75*
G02*
X136243000Y-82498250I0J243750D01*
G01*
X136243000Y-81585750D01*
G75*
G02*
X136486750Y-81342000I243750J0D01*
G01*
X136974250Y-81342000D01*
G75*
G02*
X137218000Y-81585750I0J-243750D01*
G01*
G37*
G04 #@! TD.AperFunction*
G04 #@! TA.AperFunction,SMDPad,CuDef*
G36*
G01*
X148024000Y-82752250D02*
X148024000Y-81839750D01*
G75*
G02*
X148267750Y-81596000I243750J0D01*
G01*
X148755250Y-81596000D01*
G75*
G02*
X148999000Y-81839750I0J-243750D01*
G01*
X148999000Y-82752250D01*
G75*
G02*
X148755250Y-82996000I-243750J0D01*
G01*
X148267750Y-82996000D01*
G75*
G02*
X148024000Y-82752250I0J243750D01*
G01*
G37*
G04 #@! TD.AperFunction*
G04 #@! TA.AperFunction,SMDPad,CuDef*
G36*
G01*
X146149000Y-82752250D02*
X146149000Y-81839750D01*
G75*
G02*
X146392750Y-81596000I243750J0D01*
G01*
X146880250Y-81596000D01*
G75*
G02*
X147124000Y-81839750I0J-243750D01*
G01*
X147124000Y-82752250D01*
G75*
G02*
X146880250Y-82996000I-243750J0D01*
G01*
X146392750Y-82996000D01*
G75*
G02*
X146149000Y-82752250I0J243750D01*
G01*
G37*
G04 #@! TD.AperFunction*
G04 #@! TA.AperFunction,SMDPad,CuDef*
G36*
G01*
X153593500Y-83006250D02*
X153593500Y-82093750D01*
G75*
G02*
X153837250Y-81850000I243750J0D01*
G01*
X154324750Y-81850000D01*
G75*
G02*
X154568500Y-82093750I0J-243750D01*
G01*
X154568500Y-83006250D01*
G75*
G02*
X154324750Y-83250000I-243750J0D01*
G01*
X153837250Y-83250000D01*
G75*
G02*
X153593500Y-83006250I0J243750D01*
G01*
G37*
G04 #@! TD.AperFunction*
G04 #@! TA.AperFunction,SMDPad,CuDef*
G36*
G01*
X155468500Y-83006250D02*
X155468500Y-82093750D01*
G75*
G02*
X155712250Y-81850000I243750J0D01*
G01*
X156199750Y-81850000D01*
G75*
G02*
X156443500Y-82093750I0J-243750D01*
G01*
X156443500Y-83006250D01*
G75*
G02*
X156199750Y-83250000I-243750J0D01*
G01*
X155712250Y-83250000D01*
G75*
G02*
X155468500Y-83006250I0J243750D01*
G01*
G37*
G04 #@! TD.AperFunction*
G04 #@! TA.AperFunction,SMDPad,CuDef*
G36*
G01*
X165509000Y-82347750D02*
X165509000Y-83260250D01*
G75*
G02*
X165265250Y-83504000I-243750J0D01*
G01*
X164777750Y-83504000D01*
G75*
G02*
X164534000Y-83260250I0J243750D01*
G01*
X164534000Y-82347750D01*
G75*
G02*
X164777750Y-82104000I243750J0D01*
G01*
X165265250Y-82104000D01*
G75*
G02*
X165509000Y-82347750I0J-243750D01*
G01*
G37*
G04 #@! TD.AperFunction*
G04 #@! TA.AperFunction,SMDPad,CuDef*
G36*
G01*
X163634000Y-82347750D02*
X163634000Y-83260250D01*
G75*
G02*
X163390250Y-83504000I-243750J0D01*
G01*
X162902750Y-83504000D01*
G75*
G02*
X162659000Y-83260250I0J243750D01*
G01*
X162659000Y-82347750D01*
G75*
G02*
X162902750Y-82104000I243750J0D01*
G01*
X163390250Y-82104000D01*
G75*
G02*
X163634000Y-82347750I0J-243750D01*
G01*
G37*
G04 #@! TD.AperFunction*
D27*
X148335500Y-102616000D03*
D28*
X135255500Y-102616000D03*
X183896000Y-102616000D03*
D27*
X170816000Y-102616000D03*
X170942500Y-89408000D03*
D28*
X184022500Y-89408000D03*
X135382000Y-89408000D03*
D27*
X148462000Y-89408000D03*
D29*
X155194000Y-75066000D03*
X155194000Y-79366000D03*
D30*
X177546000Y-75184000D03*
X177546000Y-77724000D03*
X180086000Y-75184000D03*
X180086000Y-77724000D03*
X182626000Y-75184000D03*
X182626000Y-77724000D03*
D31*
X185166000Y-75184000D03*
D30*
X185166000Y-77724000D03*
D32*
X176881000Y-96012000D03*
X173482000Y-101854000D03*
X176881000Y-101346000D03*
X144018000Y-107806000D03*
X173736000Y-107806000D03*
X148336000Y-84836000D03*
X176838001Y-83312000D03*
X185077999Y-87376000D03*
X186182644Y-91188546D03*
X171704000Y-83312000D03*
X171704000Y-74930000D03*
X155823010Y-81280000D03*
X151892000Y-83351002D03*
X157988000Y-100838000D03*
X162005200Y-82850800D03*
X144614003Y-85090000D03*
X145172999Y-99741991D03*
X145094800Y-102047200D03*
X137795868Y-103376265D03*
X146558000Y-74676000D03*
X168656000Y-96266000D03*
X146050000Y-79502000D03*
X167894000Y-102616000D03*
X150368000Y-106934000D03*
X151384000Y-102783001D03*
X168148000Y-106426000D03*
X134620000Y-87376000D03*
X137414000Y-87122000D03*
X147320000Y-93218000D03*
X144780000Y-87122000D03*
X157988000Y-74930000D03*
X161036000Y-74930000D03*
X157988000Y-77470000D03*
X161036000Y-77470000D03*
X136398000Y-107442000D03*
X159766000Y-95250000D03*
X164592000Y-101092000D03*
X165354000Y-95504000D03*
X172212000Y-94996000D03*
X169504999Y-95417001D03*
X144018000Y-93218000D03*
X183642000Y-92710000D03*
X176022000Y-80264000D03*
X180594000Y-101346000D03*
X176022000Y-78232000D03*
X179324000Y-76454000D03*
X144526000Y-75692000D03*
X144526000Y-78486000D03*
X173736000Y-74168000D03*
X175514000Y-93218000D03*
X179832000Y-93218000D03*
X148844000Y-95250000D03*
X147066000Y-97282000D03*
X138176000Y-102616000D03*
X152908000Y-104648000D03*
X141732000Y-102616000D03*
X136398000Y-80264000D03*
X141732000Y-82112999D03*
X137414000Y-97028000D03*
X135636000Y-76200000D03*
X133858000Y-91694000D03*
X156396000Y-92710000D03*
X180086000Y-91694000D03*
X177546000Y-99822000D03*
X155194000Y-99822000D03*
X178816000Y-90932000D03*
X175198000Y-90932000D03*
X178816000Y-107188000D03*
X154178000Y-107188000D03*
X156718000Y-102108000D03*
X152792999Y-102108000D03*
X173990000Y-92456000D03*
X181356000Y-92456000D03*
X157226000Y-93315000D03*
X182626000Y-87630000D03*
X182626000Y-82804000D03*
X182626000Y-94742000D03*
X152187999Y-95036230D03*
X182021000Y-91440000D03*
X181864000Y-98371001D03*
X137912998Y-100076000D03*
X135128000Y-100076000D03*
X138034430Y-98180205D03*
X163068000Y-96266000D03*
X140462000Y-89408000D03*
X140462000Y-96266000D03*
X140462000Y-93980000D03*
X167640000Y-101600000D03*
X167894000Y-91948000D03*
X165100000Y-81534000D03*
X170688000Y-105918000D03*
X142748000Y-105410000D03*
X173228000Y-81280000D03*
X145796000Y-84241000D03*
X145796000Y-86196001D03*
X151384000Y-90424000D03*
X161544000Y-87630000D03*
X154178000Y-87630000D03*
X153874960Y-81074220D03*
X133841363Y-97036577D03*
X166878000Y-86106000D03*
X166878000Y-76454000D03*
X157734000Y-82296000D03*
X158496000Y-86106000D03*
X133293263Y-86135531D03*
X135636000Y-92964000D03*
X139700000Y-92964000D03*
X134874000Y-105410000D03*
X147320000Y-84846000D03*
X154940000Y-91948000D03*
X145288000Y-106041001D03*
X167132000Y-106041001D03*
X166878000Y-91948000D03*
X168402000Y-88900000D03*
X151551000Y-89191193D03*
X151638000Y-91948000D03*
X141899000Y-92202000D03*
X154940000Y-90424000D03*
X166878000Y-90424000D03*
X154940000Y-88235000D03*
X163576000Y-88138000D03*
X167553000Y-85441000D03*
X166116000Y-106583000D03*
X151638000Y-107188000D03*
X153477010Y-76200000D03*
X149963002Y-76200000D03*
X157228680Y-85431000D03*
X152146000Y-96941000D03*
X163737000Y-96867042D03*
X162814000Y-84231000D03*
X155746002Y-84231000D03*
X162052000Y-86868000D03*
X154940000Y-86781000D03*
X153416000Y-90678000D03*
X151340262Y-94974222D03*
X150734081Y-95570079D03*
X152609617Y-90946794D03*
X142503002Y-100076000D03*
X137668000Y-101092000D03*
X143764000Y-85090000D03*
X136906000Y-85090000D03*
X166116000Y-82804000D03*
X170180000Y-98892001D03*
X165862000Y-86868000D03*
X170434000Y-86342998D03*
X142469990Y-99046001D03*
X149808453Y-80020068D03*
X141224000Y-95504000D03*
X141478000Y-83566000D03*
X150368000Y-81651001D03*
X132680000Y-76454000D03*
X132680000Y-106172000D03*
X169164000Y-79248000D03*
X172379000Y-78486000D03*
D33*
X184882000Y-96012000D02*
X184912000Y-95982000D01*
X184912000Y-95982000D02*
X176911000Y-95982000D01*
X176911000Y-95982000D02*
X176881000Y-96012000D01*
X173990000Y-101346000D02*
X176881000Y-101346000D01*
X173482000Y-101854000D02*
X173990000Y-101346000D01*
X144018000Y-107806000D02*
X173736000Y-107806000D01*
X175314001Y-84836000D02*
X176838001Y-83312000D01*
X162278608Y-84591010D02*
X162523598Y-84836000D01*
X157173268Y-84591010D02*
X162278608Y-84591010D01*
X162523598Y-84836000D02*
X175314001Y-84836000D01*
X156928278Y-84836000D02*
X157173268Y-84591010D01*
X148336000Y-84836000D02*
X156928278Y-84836000D01*
X186333801Y-88172183D02*
X186333801Y-91037389D01*
X185077999Y-87376000D02*
X185537618Y-87376000D01*
X186333801Y-91037389D02*
X186182644Y-91188546D01*
X185537618Y-87376000D02*
X186333801Y-88172183D01*
D34*
X155194000Y-79816000D02*
X155542010Y-80164010D01*
X155194000Y-79366000D02*
X155194000Y-79816000D01*
X155194000Y-81788000D02*
X155956000Y-82550000D01*
X155194000Y-79366000D02*
X155194000Y-81788000D01*
X156543500Y-82550000D02*
X157655501Y-83662001D01*
X155956000Y-82550000D02*
X156543500Y-82550000D01*
X169250000Y-77724000D02*
X170520000Y-76454000D01*
X163699000Y-77724000D02*
X169250000Y-77724000D01*
X171161990Y-83854010D02*
X171704000Y-83312000D01*
X163146500Y-82804000D02*
X164196510Y-83854010D01*
X164196510Y-83854010D02*
X171161990Y-83854010D01*
X171704000Y-75270000D02*
X170520000Y-76454000D01*
X171704000Y-74930000D02*
X171704000Y-75270000D01*
D33*
X184022399Y-78867601D02*
X184302401Y-78587599D01*
X174784051Y-78867601D02*
X184022399Y-78867601D01*
X184302401Y-78587599D02*
X185166000Y-77724000D01*
X173241160Y-77324710D02*
X174784051Y-78867601D01*
X171390710Y-77324710D02*
X173241160Y-77324710D01*
X170520000Y-76454000D02*
X171390710Y-77324710D01*
D34*
X133174500Y-82538500D02*
X133162000Y-82526000D01*
D33*
X155823010Y-82417010D02*
X155956000Y-82550000D01*
X155823010Y-81280000D02*
X155823010Y-82417010D01*
D34*
X152141008Y-83600010D02*
X151892000Y-83351002D01*
X155956000Y-82550000D02*
X154905990Y-83600010D01*
X154905990Y-83600010D02*
X152141008Y-83600010D01*
D33*
X138605500Y-81612500D02*
X138710001Y-81507999D01*
X138605500Y-82042000D02*
X138605500Y-81612500D01*
D34*
X162288499Y-83662001D02*
X163146500Y-82804000D01*
X157655501Y-83662001D02*
X162288499Y-83662001D01*
X163099700Y-82850800D02*
X163146500Y-82804000D01*
X162005200Y-82850800D02*
X163099700Y-82850800D01*
D33*
X144614003Y-85135399D02*
X144614003Y-85090000D01*
D34*
X145188991Y-99725999D02*
X145172999Y-99741991D01*
X157988000Y-100838000D02*
X151638000Y-100838000D01*
X150525999Y-99725999D02*
X145188991Y-99725999D01*
X151638000Y-100838000D02*
X150525999Y-99725999D01*
X145094800Y-102047200D02*
X143765735Y-103376265D01*
X143765735Y-103376265D02*
X137795868Y-103376265D01*
D33*
X144289004Y-85414999D02*
X144614003Y-85090000D01*
X144289004Y-85460398D02*
X144289004Y-85414999D01*
X144054401Y-85695001D02*
X144289004Y-85460398D01*
X135908501Y-85695001D02*
X144054401Y-85695001D01*
X135049500Y-84836000D02*
X135908501Y-85695001D01*
X135811500Y-84836000D02*
X138605500Y-82042000D01*
X135049500Y-84836000D02*
X135811500Y-84836000D01*
X133162000Y-82948500D02*
X133162000Y-82526000D01*
X135049500Y-84836000D02*
X133162000Y-82948500D01*
X133162000Y-84823500D02*
X133174500Y-84836000D01*
X185166000Y-74160400D02*
X185166000Y-75184000D01*
X185045999Y-74040399D02*
X185166000Y-74160400D01*
X176433601Y-74040399D02*
X185045999Y-74040399D01*
X174920000Y-75554000D02*
X176433601Y-74040399D01*
X174920000Y-76454000D02*
X174920000Y-75554000D01*
D34*
X142124000Y-79502000D02*
X142138000Y-79516000D01*
X139875500Y-79502000D02*
X142124000Y-79502000D01*
X151638000Y-74750000D02*
X146632000Y-74750000D01*
X146632000Y-74750000D02*
X146558000Y-74676000D01*
X142152000Y-79502000D02*
X142138000Y-79516000D01*
X174260000Y-96266000D02*
X168656000Y-96266000D01*
X146050000Y-79502000D02*
X142152000Y-79502000D01*
X167726999Y-102783001D02*
X167894000Y-102616000D01*
X148335500Y-102616000D02*
X150615500Y-102616000D01*
X150615500Y-102616000D02*
X150782501Y-102783001D01*
X138103500Y-106934000D02*
X150368000Y-106934000D01*
X135255500Y-102616000D02*
X135255500Y-104086000D01*
X135255500Y-104086000D02*
X138103500Y-106934000D01*
X150782501Y-102783001D02*
X151384000Y-102783001D01*
X151384000Y-102783001D02*
X167726999Y-102783001D01*
X168479990Y-106757990D02*
X168148000Y-106426000D01*
X178247008Y-106757990D02*
X168479990Y-106757990D01*
X178491999Y-106512999D02*
X178247008Y-106757990D01*
X184770000Y-107188000D02*
X184094999Y-106512999D01*
X184094999Y-106512999D02*
X178491999Y-106512999D01*
D33*
X183134000Y-97282000D02*
X184912000Y-97282000D01*
X161544000Y-81374000D02*
X161544000Y-81201500D01*
D34*
X139875500Y-79502000D02*
X139700000Y-79502000D01*
D33*
X152588000Y-79926000D02*
X152588000Y-79726000D01*
D34*
X134620000Y-87376000D02*
X137160000Y-87376000D01*
X137160000Y-87376000D02*
X137414000Y-87122000D01*
X138788501Y-80588999D02*
X139875500Y-79502000D01*
X136398000Y-80264000D02*
X136722999Y-80588999D01*
X136722999Y-80588999D02*
X138788501Y-80588999D01*
X139875500Y-79502000D02*
X139875500Y-79072500D01*
X139875500Y-79502000D02*
X139875500Y-79854500D01*
X140891500Y-78486000D02*
X139875500Y-79502000D01*
X144526000Y-78486000D02*
X140891500Y-78486000D01*
D33*
X146636500Y-82296000D02*
X141915001Y-82296000D01*
X141915001Y-82296000D02*
X141732000Y-82112999D01*
X132435010Y-80642990D02*
X133552000Y-79526000D01*
X133552000Y-79526000D02*
X134112000Y-79526000D01*
X132435010Y-84096510D02*
X132435010Y-80642990D01*
X133174500Y-84836000D02*
X132435010Y-84096510D01*
D34*
X133431947Y-87244595D02*
X133684999Y-87244595D01*
X132618263Y-86430911D02*
X133431947Y-87244595D01*
X132618263Y-85392237D02*
X132618263Y-86430911D01*
X136065500Y-97028000D02*
X135049500Y-98044000D01*
X137414000Y-97028000D02*
X136065500Y-97028000D01*
X133174500Y-84836000D02*
X132618263Y-85392237D01*
X160368000Y-82377500D02*
X161544000Y-81201500D01*
X160368000Y-82550000D02*
X160368000Y-82377500D01*
D33*
X173856598Y-91694000D02*
X180086000Y-91694000D01*
X156396000Y-92710000D02*
X172840598Y-92710000D01*
X172840598Y-92710000D02*
X173856598Y-91694000D01*
X155518999Y-99497001D02*
X155194000Y-99822000D01*
X177546000Y-99822000D02*
X177221001Y-99497001D01*
X177221001Y-99497001D02*
X155518999Y-99497001D01*
X178816000Y-90932000D02*
X175198000Y-90932000D01*
X178816000Y-107188000D02*
X154178000Y-107188000D01*
X156718000Y-102108000D02*
X152792999Y-102108000D01*
X173990000Y-92456000D02*
X181356000Y-92456000D01*
X173990000Y-92456000D02*
X173131000Y-93315000D01*
X173131000Y-93315000D02*
X157226000Y-93315000D01*
X182626000Y-82804000D02*
X182626000Y-87630000D01*
X184852000Y-94742000D02*
X184912000Y-94682000D01*
X182626000Y-94742000D02*
X184852000Y-94742000D01*
X182114999Y-94230999D02*
X182626000Y-94742000D01*
X152647618Y-95036230D02*
X153452849Y-94230999D01*
X153452849Y-94230999D02*
X182114999Y-94230999D01*
X152187999Y-95036230D02*
X152647618Y-95036230D01*
D34*
X137912998Y-100076000D02*
X135128000Y-100076000D01*
X167312999Y-98371001D02*
X139617997Y-98371001D01*
X171894129Y-98010871D02*
X167673129Y-98010871D01*
X181864000Y-98371001D02*
X172254259Y-98371001D01*
X167673129Y-98010871D02*
X167312999Y-98371001D01*
X172254259Y-98371001D02*
X171894129Y-98010871D01*
X168698001Y-80129999D02*
X168564000Y-80264000D01*
X174655002Y-80129999D02*
X168698001Y-80129999D01*
X177513002Y-82987999D02*
X174655002Y-80129999D01*
X177513002Y-86932002D02*
X177513002Y-82987999D01*
X168564000Y-80264000D02*
X167009000Y-80264000D01*
X182021000Y-91440000D02*
X177513002Y-86932002D01*
X139427201Y-98180205D02*
X139617997Y-98371001D01*
X138034430Y-98180205D02*
X139427201Y-98180205D01*
X163068000Y-96266000D02*
X144900000Y-96266000D01*
X135382000Y-89408000D02*
X140462000Y-89408000D01*
X140462000Y-89408000D02*
X148462000Y-89408000D01*
X140462000Y-96266000D02*
X144900000Y-96266000D01*
X133858000Y-93896000D02*
X140378000Y-93896000D01*
X140378000Y-93896000D02*
X140462000Y-93980000D01*
X183896000Y-101146000D02*
X183896000Y-102616000D01*
X186012010Y-99029990D02*
X183896000Y-101146000D01*
X186012010Y-92867510D02*
X186012010Y-99029990D01*
X184022500Y-90878000D02*
X186012010Y-92867510D01*
X184022500Y-89408000D02*
X184022500Y-90878000D01*
X184706000Y-102616000D02*
X183896000Y-102616000D01*
X186176000Y-104086000D02*
X184706000Y-102616000D01*
X186176000Y-104684000D02*
X186176000Y-104086000D01*
X186070000Y-104790000D02*
X186176000Y-104684000D01*
X186070000Y-107188000D02*
X186070000Y-104790000D01*
X170816000Y-102616000D02*
X183896000Y-102616000D01*
X170816000Y-102616000D02*
X169800000Y-101600000D01*
X169800000Y-101600000D02*
X167640000Y-101600000D01*
X170434000Y-89408000D02*
X170942500Y-89408000D01*
X167894000Y-91948000D02*
X170434000Y-89408000D01*
D33*
X171422000Y-82240000D02*
X171422000Y-81280000D01*
X170858000Y-82804000D02*
X171422000Y-82240000D01*
X169085500Y-82804000D02*
X170858000Y-82804000D01*
X168105490Y-81823990D02*
X169085500Y-82804000D01*
X166001510Y-81823990D02*
X168105490Y-81823990D01*
X165021500Y-82804000D02*
X166001510Y-81823990D01*
X165021500Y-82804000D02*
X165021500Y-81612500D01*
X165021500Y-81612500D02*
X165100000Y-81534000D01*
X142774001Y-105436001D02*
X142748000Y-105410000D01*
X170688000Y-105918000D02*
X170206001Y-105436001D01*
X170206001Y-105436001D02*
X142774001Y-105436001D01*
X171422000Y-81280000D02*
X173228000Y-81280000D01*
X153657000Y-82126000D02*
X154081000Y-82550000D01*
X151638000Y-82126000D02*
X153657000Y-82126000D01*
X145796000Y-84241000D02*
X148007210Y-84241000D01*
X148007210Y-84241000D02*
X149347209Y-82901001D01*
X149347209Y-82901001D02*
X150202999Y-82901001D01*
X150202999Y-82901001D02*
X150978000Y-82126000D01*
X150978000Y-82126000D02*
X151638000Y-82126000D01*
X151384000Y-90424000D02*
X151384000Y-89964381D01*
X151384000Y-89964381D02*
X150945999Y-89526380D01*
X145796000Y-86196001D02*
X150712001Y-86196001D01*
X150945999Y-86429999D02*
X150945999Y-89526380D01*
X150712001Y-86196001D02*
X150945999Y-86429999D01*
X161544000Y-87630000D02*
X154178000Y-87630000D01*
X136246500Y-82526000D02*
X136730500Y-82042000D01*
X135062000Y-82526000D02*
X136246500Y-82526000D01*
X153846740Y-81046000D02*
X153874960Y-81074220D01*
X136730500Y-82042000D02*
X137726500Y-81046000D01*
X137726500Y-81046000D02*
X153846740Y-81046000D01*
D34*
X132908000Y-97777500D02*
X133174500Y-98044000D01*
X133174500Y-96362500D02*
X132908000Y-96096000D01*
X133174500Y-98044000D02*
X133174500Y-96362500D01*
X133841363Y-97377137D02*
X133174500Y-98044000D01*
X133841363Y-97036577D02*
X133841363Y-97377137D01*
X166878000Y-75315000D02*
X167009000Y-75184000D01*
X166878000Y-76454000D02*
X166878000Y-75315000D01*
D33*
X157734000Y-81201500D02*
X157734000Y-82296000D01*
D34*
X158496000Y-86106000D02*
X166878000Y-86106000D01*
X155525990Y-86106000D02*
X154930991Y-85511001D01*
X158496000Y-86106000D02*
X155525990Y-86106000D01*
X154930991Y-85511001D02*
X147654001Y-85511001D01*
X147644001Y-85521001D02*
X145211001Y-85521001D01*
X145211001Y-85521001D02*
X144626002Y-86106000D01*
X147654001Y-85511001D02*
X147644001Y-85521001D01*
X143987514Y-86370013D02*
X133556367Y-86370013D01*
X144251526Y-86106000D02*
X143987514Y-86370013D01*
X144626002Y-86106000D02*
X144251526Y-86106000D01*
X133556367Y-86370013D02*
X133527745Y-86370013D01*
X133527745Y-86370013D02*
X133293263Y-86135531D01*
X135636000Y-92964000D02*
X139700000Y-92964000D01*
X134874000Y-106822000D02*
X134508000Y-107188000D01*
X134874000Y-105410000D02*
X134874000Y-106822000D01*
D33*
X145505598Y-84846000D02*
X147320000Y-84846000D01*
X144830599Y-84171001D02*
X145505598Y-84846000D01*
X140911371Y-84171001D02*
X144830599Y-84171001D01*
X140368000Y-82550000D02*
X140368000Y-83627630D01*
X140368000Y-83627630D02*
X140911371Y-84171001D01*
X154940000Y-91948000D02*
X166878000Y-91948000D01*
X167068998Y-105977999D02*
X167132000Y-106041001D01*
X145810621Y-105977999D02*
X167068998Y-105977999D01*
X145288000Y-106041001D02*
X145747619Y-106041001D01*
X145747619Y-106041001D02*
X145810621Y-105977999D01*
X168110807Y-89191193D02*
X168402000Y-88900000D01*
X151551000Y-89191193D02*
X168110807Y-89191193D01*
X151638000Y-91948000D02*
X151313001Y-92272999D01*
X151313001Y-92272999D02*
X141969999Y-92272999D01*
X141969999Y-92272999D02*
X141899000Y-92202000D01*
X154940000Y-90424000D02*
X166878000Y-90424000D01*
X154940000Y-88235000D02*
X163479000Y-88235000D01*
X163479000Y-88235000D02*
X163576000Y-88138000D01*
X167456000Y-85344000D02*
X167553000Y-85441000D01*
X166116000Y-106583000D02*
X153319000Y-106583000D01*
X153038999Y-106863001D02*
X153319000Y-106583000D01*
X151962999Y-106863001D02*
X153038999Y-106863001D01*
X151638000Y-107188000D02*
X151962999Y-106863001D01*
X149963002Y-76200000D02*
X153477010Y-76200000D01*
X167543000Y-85431000D02*
X167553000Y-85441000D01*
X157228680Y-85431000D02*
X167543000Y-85431000D01*
X152146000Y-96941000D02*
X163663042Y-96941000D01*
X163663042Y-96941000D02*
X163737000Y-96867042D01*
X162814000Y-84231000D02*
X155746002Y-84231000D01*
X162052000Y-86868000D02*
X155027000Y-86868000D01*
X155027000Y-86868000D02*
X154940000Y-86781000D01*
X151340262Y-94785738D02*
X151340262Y-94974222D01*
X153416000Y-90678000D02*
X153416000Y-92710000D01*
X153416000Y-92710000D02*
X151340262Y-94785738D01*
X150734081Y-95570079D02*
X150734081Y-93747321D01*
X150734081Y-93747321D02*
X152546000Y-91935402D01*
X152546000Y-91935402D02*
X152546000Y-90883177D01*
X152546000Y-90883177D02*
X152609617Y-90946794D01*
X142503002Y-100076000D02*
X140208000Y-100076000D01*
X140208000Y-100076000D02*
X139192000Y-101092000D01*
X139192000Y-101092000D02*
X137668000Y-101092000D01*
X143764000Y-85090000D02*
X136906000Y-85090000D01*
X133498000Y-74708500D02*
X139898000Y-74708500D01*
X139138000Y-74708500D02*
X139898000Y-74708500D01*
X138898000Y-74948500D02*
X139138000Y-74708500D01*
X138898000Y-77408500D02*
X138898000Y-74948500D01*
X167210500Y-82804000D02*
X166116000Y-82804000D01*
X169475391Y-99136991D02*
X168910000Y-99136991D01*
X169720381Y-98892001D02*
X169475391Y-99136991D01*
X170180000Y-98892001D02*
X169720381Y-98892001D01*
X169135390Y-99136991D02*
X168910000Y-99136991D01*
X168910000Y-99136991D02*
X144703009Y-99136991D01*
X167536404Y-86342998D02*
X170434000Y-86342998D01*
X165862000Y-86868000D02*
X167011402Y-86868000D01*
X167011402Y-86868000D02*
X167536404Y-86342998D01*
X144612019Y-99046001D02*
X142469990Y-99046001D01*
X144703009Y-99136991D02*
X144612019Y-99046001D01*
D34*
X151638000Y-77650000D02*
X151564000Y-77650000D01*
X148438000Y-77216000D02*
X148438000Y-76316000D01*
X154878000Y-74750000D02*
X155194000Y-75066000D01*
X142138000Y-77216000D02*
X148438000Y-77216000D01*
D33*
X150248000Y-79926000D02*
X150688000Y-79926000D01*
X148438000Y-77216000D02*
X148438000Y-78116000D01*
X150604000Y-80010000D02*
X150688000Y-79926000D01*
X150593932Y-80020068D02*
X150688000Y-79926000D01*
X149808453Y-80020068D02*
X150593932Y-80020068D01*
X148438000Y-77476000D02*
X148438000Y-77216000D01*
X150688000Y-79926000D02*
X150688000Y-79726000D01*
D34*
X151204000Y-77216000D02*
X151638000Y-77650000D01*
X148438000Y-77216000D02*
X151204000Y-77216000D01*
X153060000Y-77650000D02*
X151638000Y-77650000D01*
X155194000Y-75516000D02*
X153060000Y-77650000D01*
X155194000Y-75066000D02*
X155194000Y-75516000D01*
X150688000Y-78600000D02*
X151638000Y-77650000D01*
X150688000Y-79926000D02*
X150688000Y-78600000D01*
X136200000Y-95504000D02*
X141224000Y-95504000D01*
X134808000Y-96096000D02*
X135608000Y-96096000D01*
X135608000Y-96096000D02*
X136200000Y-95504000D01*
X147241500Y-83566000D02*
X141478000Y-83566000D01*
X148511500Y-82296000D02*
X147241500Y-83566000D01*
X149723001Y-82296000D02*
X150368000Y-81651001D01*
X148511500Y-82296000D02*
X149723001Y-82296000D01*
X136216500Y-79502000D02*
X138000500Y-79502000D01*
X135098000Y-78383500D02*
X136216500Y-79502000D01*
X135098000Y-77408500D02*
X135098000Y-78383500D01*
X141888000Y-74916000D02*
X142138000Y-74916000D01*
X140787999Y-76016001D02*
X141888000Y-74916000D01*
X140787999Y-77109503D02*
X140787999Y-76016001D01*
X139414001Y-78483501D02*
X140787999Y-77109503D01*
X139018999Y-78483501D02*
X139414001Y-78483501D01*
X138000500Y-79502000D02*
X139018999Y-78483501D01*
X135098000Y-76933500D02*
X135098000Y-77408500D01*
X134293501Y-76129001D02*
X135098000Y-76933500D01*
X133004999Y-76129001D02*
X134293501Y-76129001D01*
X132680000Y-76454000D02*
X133004999Y-76129001D01*
X133208000Y-107188000D02*
X133208000Y-106700000D01*
X133208000Y-106700000D02*
X132680000Y-106172000D01*
D33*
X161544000Y-79326500D02*
X169085500Y-79326500D01*
X169085500Y-79326500D02*
X169164000Y-79248000D01*
X160103290Y-79326500D02*
X157734000Y-79326500D01*
X160925789Y-78504001D02*
X160103290Y-79326500D01*
X165178001Y-78504001D02*
X160925789Y-78504001D01*
X172379000Y-78486000D02*
X165196002Y-78486000D01*
X165196002Y-78486000D02*
X165178001Y-78504001D01*
D35*
G36*
X136806000Y-97536000D02*
G01*
X136807921Y-97555509D01*
X136813612Y-97574268D01*
X136822853Y-97591557D01*
X136835289Y-97606711D01*
X136850443Y-97619147D01*
X136867732Y-97628388D01*
X136886491Y-97634079D01*
X136906000Y-97636000D01*
X137723920Y-97636000D01*
X137636016Y-97694736D01*
X137548961Y-97781791D01*
X137480562Y-97884157D01*
X137433449Y-97997899D01*
X137409430Y-98118648D01*
X137409430Y-98241762D01*
X137433449Y-98362511D01*
X137480562Y-98476253D01*
X137548961Y-98578619D01*
X137636016Y-98665674D01*
X137738382Y-98734073D01*
X137852124Y-98781186D01*
X137972873Y-98805205D01*
X138095987Y-98805205D01*
X138216736Y-98781186D01*
X138330478Y-98734073D01*
X138432844Y-98665674D01*
X138468313Y-98630205D01*
X139240806Y-98630205D01*
X139284168Y-98673567D01*
X139298260Y-98690738D01*
X139366781Y-98746972D01*
X139444956Y-98788758D01*
X139529782Y-98814490D01*
X139595892Y-98821001D01*
X139595904Y-98821001D01*
X139617996Y-98823177D01*
X139640088Y-98821001D01*
X141886693Y-98821001D01*
X141869009Y-98863695D01*
X141844990Y-98984444D01*
X141844990Y-99107558D01*
X141869009Y-99228307D01*
X141916122Y-99342049D01*
X141984521Y-99444415D01*
X142071576Y-99531470D01*
X142132277Y-99572029D01*
X142104588Y-99590531D01*
X142017533Y-99677586D01*
X142005229Y-99696000D01*
X140226654Y-99696000D01*
X140208000Y-99694163D01*
X140189346Y-99696000D01*
X140189339Y-99696000D01*
X140133507Y-99701499D01*
X140061877Y-99723228D01*
X139995862Y-99758513D01*
X139938000Y-99806000D01*
X139926104Y-99820495D01*
X139034600Y-100712000D01*
X138165773Y-100712000D01*
X138153469Y-100693586D01*
X138124691Y-100664808D01*
X138209046Y-100629868D01*
X138311412Y-100561469D01*
X138398467Y-100474414D01*
X138466866Y-100372048D01*
X138513979Y-100258306D01*
X138537998Y-100137557D01*
X138537998Y-100014443D01*
X138513979Y-99893694D01*
X138466866Y-99779952D01*
X138398467Y-99677586D01*
X138311412Y-99590531D01*
X138209046Y-99522132D01*
X138095304Y-99475019D01*
X137974555Y-99451000D01*
X137851441Y-99451000D01*
X137730692Y-99475019D01*
X137616950Y-99522132D01*
X137514584Y-99590531D01*
X137479115Y-99626000D01*
X135561883Y-99626000D01*
X135526414Y-99590531D01*
X135424048Y-99522132D01*
X135310306Y-99475019D01*
X135189557Y-99451000D01*
X135066443Y-99451000D01*
X134945694Y-99475019D01*
X134831952Y-99522132D01*
X134729586Y-99590531D01*
X134642531Y-99677586D01*
X134574132Y-99779952D01*
X134527019Y-99893694D01*
X134503000Y-100014443D01*
X134503000Y-100137557D01*
X134527019Y-100258306D01*
X134574132Y-100372048D01*
X134642531Y-100474414D01*
X134729586Y-100561469D01*
X134831952Y-100629868D01*
X134945694Y-100676981D01*
X135066443Y-100701000D01*
X135189557Y-100701000D01*
X135310306Y-100676981D01*
X135424048Y-100629868D01*
X135526414Y-100561469D01*
X135561883Y-100526000D01*
X137401242Y-100526000D01*
X137371952Y-100538132D01*
X137269586Y-100606531D01*
X137182531Y-100693586D01*
X137114132Y-100795952D01*
X137097834Y-100835300D01*
X135561500Y-100838000D01*
X135409500Y-100990000D01*
X135409500Y-100992000D01*
X135101500Y-100992000D01*
X135101500Y-100990000D01*
X134949500Y-100838000D01*
X133275500Y-100835058D01*
X133156311Y-100846797D01*
X133041703Y-100881563D01*
X132936079Y-100938020D01*
X132843499Y-101013999D01*
X132767520Y-101106579D01*
X132711063Y-101212203D01*
X132676297Y-101326811D01*
X132664558Y-101446000D01*
X132667500Y-102310000D01*
X132819500Y-102462000D01*
X132996000Y-102462000D01*
X132996000Y-102770000D01*
X132819500Y-102770000D01*
X132667500Y-102922000D01*
X132664558Y-103786000D01*
X132676297Y-103905189D01*
X132711063Y-104019797D01*
X132767520Y-104125421D01*
X132843499Y-104218001D01*
X132936079Y-104293980D01*
X133041703Y-104350437D01*
X133156311Y-104385203D01*
X133275500Y-104396942D01*
X134746961Y-104394356D01*
X138107955Y-107515279D01*
X138120443Y-107525147D01*
X138137732Y-107534388D01*
X138156491Y-107540079D01*
X138176000Y-107542000D01*
X143450857Y-107542000D01*
X143417019Y-107623694D01*
X143393000Y-107744443D01*
X143393000Y-107867557D01*
X143417019Y-107988306D01*
X143434703Y-108031000D01*
X135045020Y-108031000D01*
X135107664Y-107968356D01*
X135145153Y-107922675D01*
X135199609Y-107841176D01*
X135227467Y-107789057D01*
X135264976Y-107698501D01*
X135282130Y-107641952D01*
X135301252Y-107545819D01*
X135307044Y-107487009D01*
X135307044Y-107462450D01*
X135309452Y-107438000D01*
X135309452Y-106938000D01*
X135309356Y-106937025D01*
X135317489Y-106910215D01*
X135324000Y-106844105D01*
X135324000Y-106844095D01*
X135326176Y-106822001D01*
X135324000Y-106799907D01*
X135324000Y-105843883D01*
X135359469Y-105808414D01*
X135427868Y-105706048D01*
X135474981Y-105592306D01*
X135499000Y-105471557D01*
X135499000Y-105348443D01*
X135474981Y-105227694D01*
X135427868Y-105113952D01*
X135359469Y-105011586D01*
X135272414Y-104924531D01*
X135170048Y-104856132D01*
X135056306Y-104809019D01*
X134935557Y-104785000D01*
X134812443Y-104785000D01*
X134691694Y-104809019D01*
X134577952Y-104856132D01*
X134475586Y-104924531D01*
X134388531Y-105011586D01*
X134320132Y-105113952D01*
X134273019Y-105227694D01*
X134249000Y-105348443D01*
X134249000Y-105471557D01*
X134273019Y-105592306D01*
X134320132Y-105706048D01*
X134388531Y-105808414D01*
X134424000Y-105843883D01*
X134424001Y-106136548D01*
X134008000Y-106136548D01*
X133949190Y-106142340D01*
X133892639Y-106159495D01*
X133858000Y-106178010D01*
X133823361Y-106159495D01*
X133766810Y-106142340D01*
X133708000Y-106136548D01*
X133305000Y-106136548D01*
X133305000Y-106110443D01*
X133280981Y-105989694D01*
X133233868Y-105875952D01*
X133165469Y-105773586D01*
X133078414Y-105686531D01*
X132976048Y-105618132D01*
X132862306Y-105571019D01*
X132741557Y-105547000D01*
X132618443Y-105547000D01*
X132497694Y-105571019D01*
X132455000Y-105588703D01*
X132455000Y-98761180D01*
X132477432Y-98803147D01*
X132545235Y-98885765D01*
X132627853Y-98953568D01*
X132722111Y-99003950D01*
X132824387Y-99034975D01*
X132930750Y-99045451D01*
X133418250Y-99045451D01*
X133524613Y-99034975D01*
X133626889Y-99003950D01*
X133721147Y-98953568D01*
X133803765Y-98885765D01*
X133871568Y-98803147D01*
X133921950Y-98708889D01*
X133952061Y-98609625D01*
X133951058Y-98744000D01*
X133962797Y-98863189D01*
X133997563Y-98977797D01*
X134054020Y-99083421D01*
X134129999Y-99176001D01*
X134222579Y-99251980D01*
X134328203Y-99308437D01*
X134442811Y-99343203D01*
X134562000Y-99354942D01*
X134743500Y-99352000D01*
X134895500Y-99200000D01*
X134895500Y-98198000D01*
X135203500Y-98198000D01*
X135203500Y-99200000D01*
X135355500Y-99352000D01*
X135537000Y-99354942D01*
X135656189Y-99343203D01*
X135770797Y-99308437D01*
X135876421Y-99251980D01*
X135969001Y-99176001D01*
X136044980Y-99083421D01*
X136101437Y-98977797D01*
X136136203Y-98863189D01*
X136147942Y-98744000D01*
X136145000Y-98350000D01*
X135993000Y-98198000D01*
X135203500Y-98198000D01*
X134895500Y-98198000D01*
X134875500Y-98198000D01*
X134875500Y-97890000D01*
X134895500Y-97890000D01*
X134895500Y-97870000D01*
X135203500Y-97870000D01*
X135203500Y-97890000D01*
X135282000Y-97890000D01*
X135282000Y-98044000D01*
X135283921Y-98063509D01*
X135289612Y-98082268D01*
X135298853Y-98099557D01*
X135311289Y-98114711D01*
X135326443Y-98127147D01*
X135343732Y-98136388D01*
X135362491Y-98142079D01*
X135382000Y-98144000D01*
X135401509Y-98142079D01*
X135420268Y-98136388D01*
X135437557Y-98127147D01*
X135452711Y-98114711D01*
X135677422Y-97890000D01*
X135993000Y-97890000D01*
X136145000Y-97738000D01*
X136147374Y-97420048D01*
X136185422Y-97382000D01*
X136806000Y-97382000D01*
X136806000Y-97536000D01*
G37*
X136806000Y-97536000D02*
X136807921Y-97555509D01*
X136813612Y-97574268D01*
X136822853Y-97591557D01*
X136835289Y-97606711D01*
X136850443Y-97619147D01*
X136867732Y-97628388D01*
X136886491Y-97634079D01*
X136906000Y-97636000D01*
X137723920Y-97636000D01*
X137636016Y-97694736D01*
X137548961Y-97781791D01*
X137480562Y-97884157D01*
X137433449Y-97997899D01*
X137409430Y-98118648D01*
X137409430Y-98241762D01*
X137433449Y-98362511D01*
X137480562Y-98476253D01*
X137548961Y-98578619D01*
X137636016Y-98665674D01*
X137738382Y-98734073D01*
X137852124Y-98781186D01*
X137972873Y-98805205D01*
X138095987Y-98805205D01*
X138216736Y-98781186D01*
X138330478Y-98734073D01*
X138432844Y-98665674D01*
X138468313Y-98630205D01*
X139240806Y-98630205D01*
X139284168Y-98673567D01*
X139298260Y-98690738D01*
X139366781Y-98746972D01*
X139444956Y-98788758D01*
X139529782Y-98814490D01*
X139595892Y-98821001D01*
X139595904Y-98821001D01*
X139617996Y-98823177D01*
X139640088Y-98821001D01*
X141886693Y-98821001D01*
X141869009Y-98863695D01*
X141844990Y-98984444D01*
X141844990Y-99107558D01*
X141869009Y-99228307D01*
X141916122Y-99342049D01*
X141984521Y-99444415D01*
X142071576Y-99531470D01*
X142132277Y-99572029D01*
X142104588Y-99590531D01*
X142017533Y-99677586D01*
X142005229Y-99696000D01*
X140226654Y-99696000D01*
X140208000Y-99694163D01*
X140189346Y-99696000D01*
X140189339Y-99696000D01*
X140133507Y-99701499D01*
X140061877Y-99723228D01*
X139995862Y-99758513D01*
X139938000Y-99806000D01*
X139926104Y-99820495D01*
X139034600Y-100712000D01*
X138165773Y-100712000D01*
X138153469Y-100693586D01*
X138124691Y-100664808D01*
X138209046Y-100629868D01*
X138311412Y-100561469D01*
X138398467Y-100474414D01*
X138466866Y-100372048D01*
X138513979Y-100258306D01*
X138537998Y-100137557D01*
X138537998Y-100014443D01*
X138513979Y-99893694D01*
X138466866Y-99779952D01*
X138398467Y-99677586D01*
X138311412Y-99590531D01*
X138209046Y-99522132D01*
X138095304Y-99475019D01*
X137974555Y-99451000D01*
X137851441Y-99451000D01*
X137730692Y-99475019D01*
X137616950Y-99522132D01*
X137514584Y-99590531D01*
X137479115Y-99626000D01*
X135561883Y-99626000D01*
X135526414Y-99590531D01*
X135424048Y-99522132D01*
X135310306Y-99475019D01*
X135189557Y-99451000D01*
X135066443Y-99451000D01*
X134945694Y-99475019D01*
X134831952Y-99522132D01*
X134729586Y-99590531D01*
X134642531Y-99677586D01*
X134574132Y-99779952D01*
X134527019Y-99893694D01*
X134503000Y-100014443D01*
X134503000Y-100137557D01*
X134527019Y-100258306D01*
X134574132Y-100372048D01*
X134642531Y-100474414D01*
X134729586Y-100561469D01*
X134831952Y-100629868D01*
X134945694Y-100676981D01*
X135066443Y-100701000D01*
X135189557Y-100701000D01*
X135310306Y-100676981D01*
X135424048Y-100629868D01*
X135526414Y-100561469D01*
X135561883Y-100526000D01*
X137401242Y-100526000D01*
X137371952Y-100538132D01*
X137269586Y-100606531D01*
X137182531Y-100693586D01*
X137114132Y-100795952D01*
X137097834Y-100835300D01*
X135561500Y-100838000D01*
X135409500Y-100990000D01*
X135409500Y-100992000D01*
X135101500Y-100992000D01*
X135101500Y-100990000D01*
X134949500Y-100838000D01*
X133275500Y-100835058D01*
X133156311Y-100846797D01*
X133041703Y-100881563D01*
X132936079Y-100938020D01*
X132843499Y-101013999D01*
X132767520Y-101106579D01*
X132711063Y-101212203D01*
X132676297Y-101326811D01*
X132664558Y-101446000D01*
X132667500Y-102310000D01*
X132819500Y-102462000D01*
X132996000Y-102462000D01*
X132996000Y-102770000D01*
X132819500Y-102770000D01*
X132667500Y-102922000D01*
X132664558Y-103786000D01*
X132676297Y-103905189D01*
X132711063Y-104019797D01*
X132767520Y-104125421D01*
X132843499Y-104218001D01*
X132936079Y-104293980D01*
X133041703Y-104350437D01*
X133156311Y-104385203D01*
X133275500Y-104396942D01*
X134746961Y-104394356D01*
X138107955Y-107515279D01*
X138120443Y-107525147D01*
X138137732Y-107534388D01*
X138156491Y-107540079D01*
X138176000Y-107542000D01*
X143450857Y-107542000D01*
X143417019Y-107623694D01*
X143393000Y-107744443D01*
X143393000Y-107867557D01*
X143417019Y-107988306D01*
X143434703Y-108031000D01*
X135045020Y-108031000D01*
X135107664Y-107968356D01*
X135145153Y-107922675D01*
X135199609Y-107841176D01*
X135227467Y-107789057D01*
X135264976Y-107698501D01*
X135282130Y-107641952D01*
X135301252Y-107545819D01*
X135307044Y-107487009D01*
X135307044Y-107462450D01*
X135309452Y-107438000D01*
X135309452Y-106938000D01*
X135309356Y-106937025D01*
X135317489Y-106910215D01*
X135324000Y-106844105D01*
X135324000Y-106844095D01*
X135326176Y-106822001D01*
X135324000Y-106799907D01*
X135324000Y-105843883D01*
X135359469Y-105808414D01*
X135427868Y-105706048D01*
X135474981Y-105592306D01*
X135499000Y-105471557D01*
X135499000Y-105348443D01*
X135474981Y-105227694D01*
X135427868Y-105113952D01*
X135359469Y-105011586D01*
X135272414Y-104924531D01*
X135170048Y-104856132D01*
X135056306Y-104809019D01*
X134935557Y-104785000D01*
X134812443Y-104785000D01*
X134691694Y-104809019D01*
X134577952Y-104856132D01*
X134475586Y-104924531D01*
X134388531Y-105011586D01*
X134320132Y-105113952D01*
X134273019Y-105227694D01*
X134249000Y-105348443D01*
X134249000Y-105471557D01*
X134273019Y-105592306D01*
X134320132Y-105706048D01*
X134388531Y-105808414D01*
X134424000Y-105843883D01*
X134424001Y-106136548D01*
X134008000Y-106136548D01*
X133949190Y-106142340D01*
X133892639Y-106159495D01*
X133858000Y-106178010D01*
X133823361Y-106159495D01*
X133766810Y-106142340D01*
X133708000Y-106136548D01*
X133305000Y-106136548D01*
X133305000Y-106110443D01*
X133280981Y-105989694D01*
X133233868Y-105875952D01*
X133165469Y-105773586D01*
X133078414Y-105686531D01*
X132976048Y-105618132D01*
X132862306Y-105571019D01*
X132741557Y-105547000D01*
X132618443Y-105547000D01*
X132497694Y-105571019D01*
X132455000Y-105588703D01*
X132455000Y-98761180D01*
X132477432Y-98803147D01*
X132545235Y-98885765D01*
X132627853Y-98953568D01*
X132722111Y-99003950D01*
X132824387Y-99034975D01*
X132930750Y-99045451D01*
X133418250Y-99045451D01*
X133524613Y-99034975D01*
X133626889Y-99003950D01*
X133721147Y-98953568D01*
X133803765Y-98885765D01*
X133871568Y-98803147D01*
X133921950Y-98708889D01*
X133952061Y-98609625D01*
X133951058Y-98744000D01*
X133962797Y-98863189D01*
X133997563Y-98977797D01*
X134054020Y-99083421D01*
X134129999Y-99176001D01*
X134222579Y-99251980D01*
X134328203Y-99308437D01*
X134442811Y-99343203D01*
X134562000Y-99354942D01*
X134743500Y-99352000D01*
X134895500Y-99200000D01*
X134895500Y-98198000D01*
X135203500Y-98198000D01*
X135203500Y-99200000D01*
X135355500Y-99352000D01*
X135537000Y-99354942D01*
X135656189Y-99343203D01*
X135770797Y-99308437D01*
X135876421Y-99251980D01*
X135969001Y-99176001D01*
X136044980Y-99083421D01*
X136101437Y-98977797D01*
X136136203Y-98863189D01*
X136147942Y-98744000D01*
X136145000Y-98350000D01*
X135993000Y-98198000D01*
X135203500Y-98198000D01*
X134895500Y-98198000D01*
X134875500Y-98198000D01*
X134875500Y-97890000D01*
X134895500Y-97890000D01*
X134895500Y-97870000D01*
X135203500Y-97870000D01*
X135203500Y-97890000D01*
X135282000Y-97890000D01*
X135282000Y-98044000D01*
X135283921Y-98063509D01*
X135289612Y-98082268D01*
X135298853Y-98099557D01*
X135311289Y-98114711D01*
X135326443Y-98127147D01*
X135343732Y-98136388D01*
X135362491Y-98142079D01*
X135382000Y-98144000D01*
X135401509Y-98142079D01*
X135420268Y-98136388D01*
X135437557Y-98127147D01*
X135452711Y-98114711D01*
X135677422Y-97890000D01*
X135993000Y-97890000D01*
X136145000Y-97738000D01*
X136147374Y-97420048D01*
X136185422Y-97382000D01*
X136806000Y-97382000D01*
X136806000Y-97536000D01*
G36*
X144490871Y-99454478D02*
G01*
X144556886Y-99489763D01*
X144596058Y-99501646D01*
X144572018Y-99559685D01*
X144547999Y-99680434D01*
X144547999Y-99803548D01*
X144572018Y-99924297D01*
X144619131Y-100038039D01*
X144687530Y-100140405D01*
X144774585Y-100227460D01*
X144876951Y-100295859D01*
X144990693Y-100342972D01*
X145111442Y-100366991D01*
X145234556Y-100366991D01*
X145355305Y-100342972D01*
X145469047Y-100295859D01*
X145571413Y-100227460D01*
X145622874Y-100175999D01*
X145744690Y-100175999D01*
X145747500Y-102310000D01*
X145899500Y-102462000D01*
X145950000Y-102462000D01*
X145950000Y-102770000D01*
X145899500Y-102770000D01*
X145747500Y-102922000D01*
X145744690Y-105056001D01*
X143263146Y-105056001D01*
X143233469Y-105011586D01*
X143146414Y-104924531D01*
X143044048Y-104856132D01*
X142930306Y-104809019D01*
X142809557Y-104785000D01*
X142686443Y-104785000D01*
X142565694Y-104809019D01*
X142451952Y-104856132D01*
X142349586Y-104924531D01*
X142262531Y-105011586D01*
X142194132Y-105113952D01*
X142147019Y-105227694D01*
X142123000Y-105348443D01*
X142123000Y-105471557D01*
X142147019Y-105592306D01*
X142194132Y-105706048D01*
X142262531Y-105808414D01*
X142349586Y-105895469D01*
X142451952Y-105963868D01*
X142565694Y-106010981D01*
X142686443Y-106035000D01*
X142809557Y-106035000D01*
X142930306Y-106010981D01*
X143044048Y-105963868D01*
X143146414Y-105895469D01*
X143225882Y-105816001D01*
X144704703Y-105816001D01*
X144687019Y-105858695D01*
X144663000Y-105979444D01*
X144663000Y-106102558D01*
X144687019Y-106223307D01*
X144729555Y-106326000D01*
X138217422Y-106326000D01*
X136286697Y-104395275D01*
X137235500Y-104396942D01*
X137354689Y-104385203D01*
X137469297Y-104350437D01*
X137574921Y-104293980D01*
X137640695Y-104240000D01*
X137668000Y-104240000D01*
X137687509Y-104238079D01*
X137706268Y-104232388D01*
X137723557Y-104223147D01*
X137738711Y-104210711D01*
X137751147Y-104195557D01*
X137760388Y-104178268D01*
X137766079Y-104159509D01*
X137768000Y-104140000D01*
X137768000Y-104079547D01*
X137799937Y-104019797D01*
X137805559Y-104001265D01*
X137857425Y-104001265D01*
X137978174Y-103977246D01*
X138091916Y-103930133D01*
X138194282Y-103861734D01*
X138229751Y-103826265D01*
X143743641Y-103826265D01*
X143765735Y-103828441D01*
X143787829Y-103826265D01*
X143787840Y-103826265D01*
X143853950Y-103819754D01*
X143938776Y-103794022D01*
X144016951Y-103752236D01*
X144085472Y-103696002D01*
X144099564Y-103678831D01*
X145106196Y-102672200D01*
X145156357Y-102672200D01*
X145277106Y-102648181D01*
X145390848Y-102601068D01*
X145493214Y-102532669D01*
X145580269Y-102445614D01*
X145648668Y-102343248D01*
X145695781Y-102229506D01*
X145719800Y-102108757D01*
X145719800Y-101985643D01*
X145695781Y-101864894D01*
X145648668Y-101751152D01*
X145580269Y-101648786D01*
X145493214Y-101561731D01*
X145390848Y-101493332D01*
X145277106Y-101446219D01*
X145156357Y-101422200D01*
X145033243Y-101422200D01*
X144912494Y-101446219D01*
X144798752Y-101493332D01*
X144696386Y-101561731D01*
X144609331Y-101648786D01*
X144540932Y-101751152D01*
X144493819Y-101864894D01*
X144469800Y-101985643D01*
X144469800Y-102035804D01*
X143579340Y-102926265D01*
X138229751Y-102926265D01*
X138194282Y-102890796D01*
X138091916Y-102822397D01*
X137978174Y-102775284D01*
X137857425Y-102751265D01*
X137768000Y-102751265D01*
X137768000Y-102385500D01*
X137843500Y-102310000D01*
X137845598Y-101693918D01*
X137850306Y-101692981D01*
X137964048Y-101645868D01*
X138066414Y-101577469D01*
X138153469Y-101490414D01*
X138165773Y-101472000D01*
X139173347Y-101472000D01*
X139192000Y-101473837D01*
X139210653Y-101472000D01*
X139210661Y-101472000D01*
X139266493Y-101466501D01*
X139338123Y-101444772D01*
X139404138Y-101409487D01*
X139462000Y-101362000D01*
X139473900Y-101347500D01*
X140365401Y-100456000D01*
X142005229Y-100456000D01*
X142017533Y-100474414D01*
X142104588Y-100561469D01*
X142206954Y-100629868D01*
X142320696Y-100676981D01*
X142441445Y-100701000D01*
X142564559Y-100701000D01*
X142685308Y-100676981D01*
X142799050Y-100629868D01*
X142901416Y-100561469D01*
X142988471Y-100474414D01*
X143056870Y-100372048D01*
X143103983Y-100258306D01*
X143128002Y-100137557D01*
X143128002Y-100014443D01*
X143103983Y-99893694D01*
X143056870Y-99779952D01*
X142988471Y-99677586D01*
X142901416Y-99590531D01*
X142840715Y-99549972D01*
X142868404Y-99531470D01*
X142955459Y-99444415D01*
X142967763Y-99426001D01*
X144456172Y-99426001D01*
X144490871Y-99454478D01*
G37*
X144490871Y-99454478D02*
X144556886Y-99489763D01*
X144596058Y-99501646D01*
X144572018Y-99559685D01*
X144547999Y-99680434D01*
X144547999Y-99803548D01*
X144572018Y-99924297D01*
X144619131Y-100038039D01*
X144687530Y-100140405D01*
X144774585Y-100227460D01*
X144876951Y-100295859D01*
X144990693Y-100342972D01*
X145111442Y-100366991D01*
X145234556Y-100366991D01*
X145355305Y-100342972D01*
X145469047Y-100295859D01*
X145571413Y-100227460D01*
X145622874Y-100175999D01*
X145744690Y-100175999D01*
X145747500Y-102310000D01*
X145899500Y-102462000D01*
X145950000Y-102462000D01*
X145950000Y-102770000D01*
X145899500Y-102770000D01*
X145747500Y-102922000D01*
X145744690Y-105056001D01*
X143263146Y-105056001D01*
X143233469Y-105011586D01*
X143146414Y-104924531D01*
X143044048Y-104856132D01*
X142930306Y-104809019D01*
X142809557Y-104785000D01*
X142686443Y-104785000D01*
X142565694Y-104809019D01*
X142451952Y-104856132D01*
X142349586Y-104924531D01*
X142262531Y-105011586D01*
X142194132Y-105113952D01*
X142147019Y-105227694D01*
X142123000Y-105348443D01*
X142123000Y-105471557D01*
X142147019Y-105592306D01*
X142194132Y-105706048D01*
X142262531Y-105808414D01*
X142349586Y-105895469D01*
X142451952Y-105963868D01*
X142565694Y-106010981D01*
X142686443Y-106035000D01*
X142809557Y-106035000D01*
X142930306Y-106010981D01*
X143044048Y-105963868D01*
X143146414Y-105895469D01*
X143225882Y-105816001D01*
X144704703Y-105816001D01*
X144687019Y-105858695D01*
X144663000Y-105979444D01*
X144663000Y-106102558D01*
X144687019Y-106223307D01*
X144729555Y-106326000D01*
X138217422Y-106326000D01*
X136286697Y-104395275D01*
X137235500Y-104396942D01*
X137354689Y-104385203D01*
X137469297Y-104350437D01*
X137574921Y-104293980D01*
X137640695Y-104240000D01*
X137668000Y-104240000D01*
X137687509Y-104238079D01*
X137706268Y-104232388D01*
X137723557Y-104223147D01*
X137738711Y-104210711D01*
X137751147Y-104195557D01*
X137760388Y-104178268D01*
X137766079Y-104159509D01*
X137768000Y-104140000D01*
X137768000Y-104079547D01*
X137799937Y-104019797D01*
X137805559Y-104001265D01*
X137857425Y-104001265D01*
X137978174Y-103977246D01*
X138091916Y-103930133D01*
X138194282Y-103861734D01*
X138229751Y-103826265D01*
X143743641Y-103826265D01*
X143765735Y-103828441D01*
X143787829Y-103826265D01*
X143787840Y-103826265D01*
X143853950Y-103819754D01*
X143938776Y-103794022D01*
X144016951Y-103752236D01*
X144085472Y-103696002D01*
X144099564Y-103678831D01*
X145106196Y-102672200D01*
X145156357Y-102672200D01*
X145277106Y-102648181D01*
X145390848Y-102601068D01*
X145493214Y-102532669D01*
X145580269Y-102445614D01*
X145648668Y-102343248D01*
X145695781Y-102229506D01*
X145719800Y-102108757D01*
X145719800Y-101985643D01*
X145695781Y-101864894D01*
X145648668Y-101751152D01*
X145580269Y-101648786D01*
X145493214Y-101561731D01*
X145390848Y-101493332D01*
X145277106Y-101446219D01*
X145156357Y-101422200D01*
X145033243Y-101422200D01*
X144912494Y-101446219D01*
X144798752Y-101493332D01*
X144696386Y-101561731D01*
X144609331Y-101648786D01*
X144540932Y-101751152D01*
X144493819Y-101864894D01*
X144469800Y-101985643D01*
X144469800Y-102035804D01*
X143579340Y-102926265D01*
X138229751Y-102926265D01*
X138194282Y-102890796D01*
X138091916Y-102822397D01*
X137978174Y-102775284D01*
X137857425Y-102751265D01*
X137768000Y-102751265D01*
X137768000Y-102385500D01*
X137843500Y-102310000D01*
X137845598Y-101693918D01*
X137850306Y-101692981D01*
X137964048Y-101645868D01*
X138066414Y-101577469D01*
X138153469Y-101490414D01*
X138165773Y-101472000D01*
X139173347Y-101472000D01*
X139192000Y-101473837D01*
X139210653Y-101472000D01*
X139210661Y-101472000D01*
X139266493Y-101466501D01*
X139338123Y-101444772D01*
X139404138Y-101409487D01*
X139462000Y-101362000D01*
X139473900Y-101347500D01*
X140365401Y-100456000D01*
X142005229Y-100456000D01*
X142017533Y-100474414D01*
X142104588Y-100561469D01*
X142206954Y-100629868D01*
X142320696Y-100676981D01*
X142441445Y-100701000D01*
X142564559Y-100701000D01*
X142685308Y-100676981D01*
X142799050Y-100629868D01*
X142901416Y-100561469D01*
X142988471Y-100474414D01*
X143056870Y-100372048D01*
X143103983Y-100258306D01*
X143128002Y-100137557D01*
X143128002Y-100014443D01*
X143103983Y-99893694D01*
X143056870Y-99779952D01*
X142988471Y-99677586D01*
X142901416Y-99590531D01*
X142840715Y-99549972D01*
X142868404Y-99531470D01*
X142955459Y-99444415D01*
X142967763Y-99426001D01*
X144456172Y-99426001D01*
X144490871Y-99454478D01*
G36*
X168534549Y-105056001D02*
G01*
X150926310Y-105056001D01*
X150923898Y-103224000D01*
X168402000Y-103224000D01*
X168421509Y-103222079D01*
X168440268Y-103216388D01*
X168457557Y-103207147D01*
X168472711Y-103194711D01*
X168485147Y-103179557D01*
X168494388Y-103162268D01*
X168500079Y-103143509D01*
X168502000Y-103124000D01*
X168502000Y-102108000D01*
X168500079Y-102088491D01*
X168494388Y-102069732D01*
X168485147Y-102052443D01*
X168483142Y-102050000D01*
X168534549Y-102050000D01*
X168534549Y-105056001D01*
G37*
X168534549Y-105056001D02*
X150926310Y-105056001D01*
X150923898Y-103224000D01*
X168402000Y-103224000D01*
X168421509Y-103222079D01*
X168440268Y-103216388D01*
X168457557Y-103207147D01*
X168472711Y-103194711D01*
X168485147Y-103179557D01*
X168494388Y-103162268D01*
X168500079Y-103143509D01*
X168502000Y-103124000D01*
X168502000Y-102108000D01*
X168500079Y-102088491D01*
X168494388Y-102069732D01*
X168485147Y-102052443D01*
X168483142Y-102050000D01*
X168534549Y-102050000D01*
X168534549Y-105056001D01*
G36*
X182005321Y-94658721D02*
G01*
X182001000Y-94680443D01*
X182001000Y-94803557D01*
X182025019Y-94924306D01*
X182072132Y-95038048D01*
X182140531Y-95140414D01*
X182227586Y-95227469D01*
X182329952Y-95295868D01*
X182443694Y-95342981D01*
X182564443Y-95367000D01*
X182687557Y-95367000D01*
X182808306Y-95342981D01*
X182922048Y-95295868D01*
X183024414Y-95227469D01*
X183111469Y-95140414D01*
X183123773Y-95122000D01*
X183860548Y-95122000D01*
X183860548Y-95232000D01*
X183866340Y-95290810D01*
X183883495Y-95347361D01*
X183888648Y-95357001D01*
X183883496Y-95366640D01*
X183866341Y-95423190D01*
X183860549Y-95482000D01*
X183860549Y-95602000D01*
X177354883Y-95602000D01*
X177279414Y-95526531D01*
X177177048Y-95458132D01*
X177063306Y-95411019D01*
X176942557Y-95387000D01*
X176819443Y-95387000D01*
X176698694Y-95411019D01*
X176584952Y-95458132D01*
X176482586Y-95526531D01*
X176395531Y-95613586D01*
X176327132Y-95715952D01*
X176280019Y-95829694D01*
X176256000Y-95950443D01*
X176256000Y-96073557D01*
X176280019Y-96194306D01*
X176327132Y-96308048D01*
X176395531Y-96410414D01*
X176482586Y-96497469D01*
X176584952Y-96565868D01*
X176698694Y-96612981D01*
X176819443Y-96637000D01*
X176942557Y-96637000D01*
X177063306Y-96612981D01*
X177177048Y-96565868D01*
X177279414Y-96497469D01*
X177366469Y-96410414D01*
X177398818Y-96362000D01*
X183679116Y-96362000D01*
X183654020Y-96392579D01*
X183597563Y-96498203D01*
X183562797Y-96612811D01*
X183551058Y-96732000D01*
X183551058Y-97282000D01*
X183553466Y-97306449D01*
X183553466Y-97331009D01*
X183565205Y-97450198D01*
X183584327Y-97546331D01*
X183619092Y-97660937D01*
X183656601Y-97751493D01*
X183713060Y-97857120D01*
X183767516Y-97938619D01*
X183843494Y-98031198D01*
X183912802Y-98100506D01*
X184005381Y-98176484D01*
X184086880Y-98230940D01*
X184192507Y-98287399D01*
X184283063Y-98324908D01*
X184397669Y-98359673D01*
X184493802Y-98378795D01*
X184612991Y-98390534D01*
X184637551Y-98390534D01*
X184662000Y-98392942D01*
X185162000Y-98392942D01*
X185186449Y-98390534D01*
X185211009Y-98390534D01*
X185330198Y-98378795D01*
X185426331Y-98359673D01*
X185540937Y-98324908D01*
X185562011Y-98316179D01*
X185562011Y-98843593D01*
X183593434Y-100812171D01*
X183576263Y-100826263D01*
X183562172Y-100843433D01*
X183520029Y-100894784D01*
X183503229Y-100926215D01*
X183478243Y-100972960D01*
X183452511Y-101057786D01*
X183446000Y-101123896D01*
X183446000Y-101123906D01*
X183443967Y-101144549D01*
X181916000Y-101144549D01*
X181857190Y-101150341D01*
X181800640Y-101167496D01*
X181748523Y-101195353D01*
X181702842Y-101232842D01*
X181665353Y-101278523D01*
X181637496Y-101330640D01*
X181620341Y-101387190D01*
X181614549Y-101446000D01*
X181614549Y-102166000D01*
X174025209Y-102166000D01*
X174035868Y-102150048D01*
X174082981Y-102036306D01*
X174107000Y-101915557D01*
X174107000Y-101792443D01*
X174102679Y-101770721D01*
X174147401Y-101726000D01*
X176383227Y-101726000D01*
X176395531Y-101744414D01*
X176482586Y-101831469D01*
X176584952Y-101899868D01*
X176698694Y-101946981D01*
X176819443Y-101971000D01*
X176942557Y-101971000D01*
X177063306Y-101946981D01*
X177177048Y-101899868D01*
X177279414Y-101831469D01*
X177366469Y-101744414D01*
X177434868Y-101642048D01*
X177481981Y-101528306D01*
X177506000Y-101407557D01*
X177506000Y-101284443D01*
X177481981Y-101163694D01*
X177434868Y-101049952D01*
X177366469Y-100947586D01*
X177279414Y-100860531D01*
X177177048Y-100792132D01*
X177063306Y-100745019D01*
X176942557Y-100721000D01*
X176819443Y-100721000D01*
X176698694Y-100745019D01*
X176584952Y-100792132D01*
X176482586Y-100860531D01*
X176395531Y-100947586D01*
X176383227Y-100966000D01*
X174008653Y-100966000D01*
X173989999Y-100964163D01*
X173971345Y-100966000D01*
X173971339Y-100966000D01*
X173923169Y-100970744D01*
X173915506Y-100971499D01*
X173893777Y-100978091D01*
X173843877Y-100993228D01*
X173777862Y-101028513D01*
X173720000Y-101076000D01*
X173708104Y-101090495D01*
X173565279Y-101233321D01*
X173543557Y-101229000D01*
X173420443Y-101229000D01*
X173299694Y-101253019D01*
X173185952Y-101300132D01*
X173097451Y-101359267D01*
X173097451Y-100076000D01*
X173091659Y-100017190D01*
X173074504Y-99960640D01*
X173046647Y-99908523D01*
X173020778Y-99877001D01*
X176921000Y-99877001D01*
X176921000Y-99883557D01*
X176945019Y-100004306D01*
X176992132Y-100118048D01*
X177060531Y-100220414D01*
X177147586Y-100307469D01*
X177249952Y-100375868D01*
X177363694Y-100422981D01*
X177484443Y-100447000D01*
X177607557Y-100447000D01*
X177728306Y-100422981D01*
X177842048Y-100375868D01*
X177944414Y-100307469D01*
X178031469Y-100220414D01*
X178099868Y-100118048D01*
X178146981Y-100004306D01*
X178171000Y-99883557D01*
X178171000Y-99760443D01*
X178146981Y-99639694D01*
X178099868Y-99525952D01*
X178031469Y-99423586D01*
X177944414Y-99336531D01*
X177842048Y-99268132D01*
X177728306Y-99221019D01*
X177607557Y-99197000D01*
X177484443Y-99197000D01*
X177460298Y-99201803D01*
X177433139Y-99179514D01*
X177367124Y-99144229D01*
X177295494Y-99122500D01*
X177239662Y-99117001D01*
X177239654Y-99117001D01*
X177221001Y-99115164D01*
X177202348Y-99117001D01*
X170763297Y-99117001D01*
X170780981Y-99074307D01*
X170805000Y-98953558D01*
X170805000Y-98830444D01*
X170780981Y-98709695D01*
X170733868Y-98595953D01*
X170665469Y-98493587D01*
X170632753Y-98460871D01*
X171707734Y-98460871D01*
X171920435Y-98673572D01*
X171934522Y-98690738D01*
X171951687Y-98704825D01*
X171951691Y-98704829D01*
X172003042Y-98746972D01*
X172067052Y-98781186D01*
X172081218Y-98788758D01*
X172166044Y-98814490D01*
X172232154Y-98821001D01*
X172232165Y-98821001D01*
X172254259Y-98823177D01*
X172276353Y-98821001D01*
X181430117Y-98821001D01*
X181465586Y-98856470D01*
X181567952Y-98924869D01*
X181681694Y-98971982D01*
X181802443Y-98996001D01*
X181925557Y-98996001D01*
X182046306Y-98971982D01*
X182160048Y-98924869D01*
X182262414Y-98856470D01*
X182349469Y-98769415D01*
X182417868Y-98667049D01*
X182464981Y-98553307D01*
X182489000Y-98432558D01*
X182489000Y-98309444D01*
X182464981Y-98188695D01*
X182417868Y-98074953D01*
X182349469Y-97972587D01*
X182262414Y-97885532D01*
X182160048Y-97817133D01*
X182046306Y-97770020D01*
X181925557Y-97746001D01*
X181802443Y-97746001D01*
X181681694Y-97770020D01*
X181567952Y-97817133D01*
X181465586Y-97885532D01*
X181430117Y-97921001D01*
X176140739Y-97921001D01*
X176138000Y-96572000D01*
X175986000Y-96420000D01*
X175868000Y-96420000D01*
X175868000Y-96112000D01*
X175986000Y-96112000D01*
X176138000Y-95960000D01*
X176140739Y-94610999D01*
X181957599Y-94610999D01*
X182005321Y-94658721D01*
G37*
X182005321Y-94658721D02*
X182001000Y-94680443D01*
X182001000Y-94803557D01*
X182025019Y-94924306D01*
X182072132Y-95038048D01*
X182140531Y-95140414D01*
X182227586Y-95227469D01*
X182329952Y-95295868D01*
X182443694Y-95342981D01*
X182564443Y-95367000D01*
X182687557Y-95367000D01*
X182808306Y-95342981D01*
X182922048Y-95295868D01*
X183024414Y-95227469D01*
X183111469Y-95140414D01*
X183123773Y-95122000D01*
X183860548Y-95122000D01*
X183860548Y-95232000D01*
X183866340Y-95290810D01*
X183883495Y-95347361D01*
X183888648Y-95357001D01*
X183883496Y-95366640D01*
X183866341Y-95423190D01*
X183860549Y-95482000D01*
X183860549Y-95602000D01*
X177354883Y-95602000D01*
X177279414Y-95526531D01*
X177177048Y-95458132D01*
X177063306Y-95411019D01*
X176942557Y-95387000D01*
X176819443Y-95387000D01*
X176698694Y-95411019D01*
X176584952Y-95458132D01*
X176482586Y-95526531D01*
X176395531Y-95613586D01*
X176327132Y-95715952D01*
X176280019Y-95829694D01*
X176256000Y-95950443D01*
X176256000Y-96073557D01*
X176280019Y-96194306D01*
X176327132Y-96308048D01*
X176395531Y-96410414D01*
X176482586Y-96497469D01*
X176584952Y-96565868D01*
X176698694Y-96612981D01*
X176819443Y-96637000D01*
X176942557Y-96637000D01*
X177063306Y-96612981D01*
X177177048Y-96565868D01*
X177279414Y-96497469D01*
X177366469Y-96410414D01*
X177398818Y-96362000D01*
X183679116Y-96362000D01*
X183654020Y-96392579D01*
X183597563Y-96498203D01*
X183562797Y-96612811D01*
X183551058Y-96732000D01*
X183551058Y-97282000D01*
X183553466Y-97306449D01*
X183553466Y-97331009D01*
X183565205Y-97450198D01*
X183584327Y-97546331D01*
X183619092Y-97660937D01*
X183656601Y-97751493D01*
X183713060Y-97857120D01*
X183767516Y-97938619D01*
X183843494Y-98031198D01*
X183912802Y-98100506D01*
X184005381Y-98176484D01*
X184086880Y-98230940D01*
X184192507Y-98287399D01*
X184283063Y-98324908D01*
X184397669Y-98359673D01*
X184493802Y-98378795D01*
X184612991Y-98390534D01*
X184637551Y-98390534D01*
X184662000Y-98392942D01*
X185162000Y-98392942D01*
X185186449Y-98390534D01*
X185211009Y-98390534D01*
X185330198Y-98378795D01*
X185426331Y-98359673D01*
X185540937Y-98324908D01*
X185562011Y-98316179D01*
X185562011Y-98843593D01*
X183593434Y-100812171D01*
X183576263Y-100826263D01*
X183562172Y-100843433D01*
X183520029Y-100894784D01*
X183503229Y-100926215D01*
X183478243Y-100972960D01*
X183452511Y-101057786D01*
X183446000Y-101123896D01*
X183446000Y-101123906D01*
X183443967Y-101144549D01*
X181916000Y-101144549D01*
X181857190Y-101150341D01*
X181800640Y-101167496D01*
X181748523Y-101195353D01*
X181702842Y-101232842D01*
X181665353Y-101278523D01*
X181637496Y-101330640D01*
X181620341Y-101387190D01*
X181614549Y-101446000D01*
X181614549Y-102166000D01*
X174025209Y-102166000D01*
X174035868Y-102150048D01*
X174082981Y-102036306D01*
X174107000Y-101915557D01*
X174107000Y-101792443D01*
X174102679Y-101770721D01*
X174147401Y-101726000D01*
X176383227Y-101726000D01*
X176395531Y-101744414D01*
X176482586Y-101831469D01*
X176584952Y-101899868D01*
X176698694Y-101946981D01*
X176819443Y-101971000D01*
X176942557Y-101971000D01*
X177063306Y-101946981D01*
X177177048Y-101899868D01*
X177279414Y-101831469D01*
X177366469Y-101744414D01*
X177434868Y-101642048D01*
X177481981Y-101528306D01*
X177506000Y-101407557D01*
X177506000Y-101284443D01*
X177481981Y-101163694D01*
X177434868Y-101049952D01*
X177366469Y-100947586D01*
X177279414Y-100860531D01*
X177177048Y-100792132D01*
X177063306Y-100745019D01*
X176942557Y-100721000D01*
X176819443Y-100721000D01*
X176698694Y-100745019D01*
X176584952Y-100792132D01*
X176482586Y-100860531D01*
X176395531Y-100947586D01*
X176383227Y-100966000D01*
X174008653Y-100966000D01*
X173989999Y-100964163D01*
X173971345Y-100966000D01*
X173971339Y-100966000D01*
X173923169Y-100970744D01*
X173915506Y-100971499D01*
X173893777Y-100978091D01*
X173843877Y-100993228D01*
X173777862Y-101028513D01*
X173720000Y-101076000D01*
X173708104Y-101090495D01*
X173565279Y-101233321D01*
X173543557Y-101229000D01*
X173420443Y-101229000D01*
X173299694Y-101253019D01*
X173185952Y-101300132D01*
X173097451Y-101359267D01*
X173097451Y-100076000D01*
X173091659Y-100017190D01*
X173074504Y-99960640D01*
X173046647Y-99908523D01*
X173020778Y-99877001D01*
X176921000Y-99877001D01*
X176921000Y-99883557D01*
X176945019Y-100004306D01*
X176992132Y-100118048D01*
X177060531Y-100220414D01*
X177147586Y-100307469D01*
X177249952Y-100375868D01*
X177363694Y-100422981D01*
X177484443Y-100447000D01*
X177607557Y-100447000D01*
X177728306Y-100422981D01*
X177842048Y-100375868D01*
X177944414Y-100307469D01*
X178031469Y-100220414D01*
X178099868Y-100118048D01*
X178146981Y-100004306D01*
X178171000Y-99883557D01*
X178171000Y-99760443D01*
X178146981Y-99639694D01*
X178099868Y-99525952D01*
X178031469Y-99423586D01*
X177944414Y-99336531D01*
X177842048Y-99268132D01*
X177728306Y-99221019D01*
X177607557Y-99197000D01*
X177484443Y-99197000D01*
X177460298Y-99201803D01*
X177433139Y-99179514D01*
X177367124Y-99144229D01*
X177295494Y-99122500D01*
X177239662Y-99117001D01*
X177239654Y-99117001D01*
X177221001Y-99115164D01*
X177202348Y-99117001D01*
X170763297Y-99117001D01*
X170780981Y-99074307D01*
X170805000Y-98953558D01*
X170805000Y-98830444D01*
X170780981Y-98709695D01*
X170733868Y-98595953D01*
X170665469Y-98493587D01*
X170632753Y-98460871D01*
X171707734Y-98460871D01*
X171920435Y-98673572D01*
X171934522Y-98690738D01*
X171951687Y-98704825D01*
X171951691Y-98704829D01*
X172003042Y-98746972D01*
X172067052Y-98781186D01*
X172081218Y-98788758D01*
X172166044Y-98814490D01*
X172232154Y-98821001D01*
X172232165Y-98821001D01*
X172254259Y-98823177D01*
X172276353Y-98821001D01*
X181430117Y-98821001D01*
X181465586Y-98856470D01*
X181567952Y-98924869D01*
X181681694Y-98971982D01*
X181802443Y-98996001D01*
X181925557Y-98996001D01*
X182046306Y-98971982D01*
X182160048Y-98924869D01*
X182262414Y-98856470D01*
X182349469Y-98769415D01*
X182417868Y-98667049D01*
X182464981Y-98553307D01*
X182489000Y-98432558D01*
X182489000Y-98309444D01*
X182464981Y-98188695D01*
X182417868Y-98074953D01*
X182349469Y-97972587D01*
X182262414Y-97885532D01*
X182160048Y-97817133D01*
X182046306Y-97770020D01*
X181925557Y-97746001D01*
X181802443Y-97746001D01*
X181681694Y-97770020D01*
X181567952Y-97817133D01*
X181465586Y-97885532D01*
X181430117Y-97921001D01*
X176140739Y-97921001D01*
X176138000Y-96572000D01*
X175986000Y-96420000D01*
X175868000Y-96420000D01*
X175868000Y-96112000D01*
X175986000Y-96112000D01*
X176138000Y-95960000D01*
X176140739Y-94610999D01*
X181957599Y-94610999D01*
X182005321Y-94658721D01*
G36*
X168585353Y-99908523D02*
G01*
X168557496Y-99960640D01*
X168540341Y-100017190D01*
X168534549Y-100076000D01*
X168534549Y-101150000D01*
X168073883Y-101150000D01*
X168038414Y-101114531D01*
X167936048Y-101046132D01*
X167822306Y-100999019D01*
X167701557Y-100975000D01*
X167578443Y-100975000D01*
X167457694Y-100999019D01*
X167343952Y-101046132D01*
X167241586Y-101114531D01*
X167154531Y-101201586D01*
X167086132Y-101303952D01*
X167039019Y-101417694D01*
X167015000Y-101538443D01*
X167015000Y-101661557D01*
X167039019Y-101782306D01*
X167086132Y-101896048D01*
X167154531Y-101998414D01*
X167164117Y-102008000D01*
X157335353Y-102008000D01*
X157318981Y-101925694D01*
X157271868Y-101811952D01*
X157203469Y-101709586D01*
X157116414Y-101622531D01*
X157014048Y-101554132D01*
X156900306Y-101507019D01*
X156779557Y-101483000D01*
X156656443Y-101483000D01*
X156535694Y-101507019D01*
X156421952Y-101554132D01*
X156319586Y-101622531D01*
X156232531Y-101709586D01*
X156220227Y-101728000D01*
X153290772Y-101728000D01*
X153278468Y-101709586D01*
X153191413Y-101622531D01*
X153089047Y-101554132D01*
X152975305Y-101507019D01*
X152854556Y-101483000D01*
X152731442Y-101483000D01*
X152610693Y-101507019D01*
X152496951Y-101554132D01*
X152394585Y-101622531D01*
X152307530Y-101709586D01*
X152239131Y-101811952D01*
X152192018Y-101925694D01*
X152175646Y-102008000D01*
X150923898Y-102008000D01*
X150925539Y-100761934D01*
X151304176Y-101140572D01*
X151318263Y-101157737D01*
X151335428Y-101171824D01*
X151335432Y-101171828D01*
X151386783Y-101213971D01*
X151459837Y-101253019D01*
X151464959Y-101255757D01*
X151549785Y-101281489D01*
X151615895Y-101288000D01*
X151615905Y-101288000D01*
X151638000Y-101290176D01*
X151660094Y-101288000D01*
X157554117Y-101288000D01*
X157589586Y-101323469D01*
X157691952Y-101391868D01*
X157805694Y-101438981D01*
X157926443Y-101463000D01*
X158049557Y-101463000D01*
X158170306Y-101438981D01*
X158284048Y-101391868D01*
X158386414Y-101323469D01*
X158473469Y-101236414D01*
X158541868Y-101134048D01*
X158588981Y-101020306D01*
X158613000Y-100899557D01*
X158613000Y-100776443D01*
X158588981Y-100655694D01*
X158541868Y-100541952D01*
X158473469Y-100439586D01*
X158386414Y-100352531D01*
X158284048Y-100284132D01*
X158170306Y-100237019D01*
X158049557Y-100213000D01*
X157926443Y-100213000D01*
X157805694Y-100237019D01*
X157691952Y-100284132D01*
X157589586Y-100352531D01*
X157554117Y-100388000D01*
X155460758Y-100388000D01*
X155490048Y-100375868D01*
X155592414Y-100307469D01*
X155679469Y-100220414D01*
X155747868Y-100118048D01*
X155794981Y-100004306D01*
X155819000Y-99883557D01*
X155819000Y-99877001D01*
X168611222Y-99877001D01*
X168585353Y-99908523D01*
G37*
X168585353Y-99908523D02*
X168557496Y-99960640D01*
X168540341Y-100017190D01*
X168534549Y-100076000D01*
X168534549Y-101150000D01*
X168073883Y-101150000D01*
X168038414Y-101114531D01*
X167936048Y-101046132D01*
X167822306Y-100999019D01*
X167701557Y-100975000D01*
X167578443Y-100975000D01*
X167457694Y-100999019D01*
X167343952Y-101046132D01*
X167241586Y-101114531D01*
X167154531Y-101201586D01*
X167086132Y-101303952D01*
X167039019Y-101417694D01*
X167015000Y-101538443D01*
X167015000Y-101661557D01*
X167039019Y-101782306D01*
X167086132Y-101896048D01*
X167154531Y-101998414D01*
X167164117Y-102008000D01*
X157335353Y-102008000D01*
X157318981Y-101925694D01*
X157271868Y-101811952D01*
X157203469Y-101709586D01*
X157116414Y-101622531D01*
X157014048Y-101554132D01*
X156900306Y-101507019D01*
X156779557Y-101483000D01*
X156656443Y-101483000D01*
X156535694Y-101507019D01*
X156421952Y-101554132D01*
X156319586Y-101622531D01*
X156232531Y-101709586D01*
X156220227Y-101728000D01*
X153290772Y-101728000D01*
X153278468Y-101709586D01*
X153191413Y-101622531D01*
X153089047Y-101554132D01*
X152975305Y-101507019D01*
X152854556Y-101483000D01*
X152731442Y-101483000D01*
X152610693Y-101507019D01*
X152496951Y-101554132D01*
X152394585Y-101622531D01*
X152307530Y-101709586D01*
X152239131Y-101811952D01*
X152192018Y-101925694D01*
X152175646Y-102008000D01*
X150923898Y-102008000D01*
X150925539Y-100761934D01*
X151304176Y-101140572D01*
X151318263Y-101157737D01*
X151335428Y-101171824D01*
X151335432Y-101171828D01*
X151386783Y-101213971D01*
X151459837Y-101253019D01*
X151464959Y-101255757D01*
X151549785Y-101281489D01*
X151615895Y-101288000D01*
X151615905Y-101288000D01*
X151638000Y-101290176D01*
X151660094Y-101288000D01*
X157554117Y-101288000D01*
X157589586Y-101323469D01*
X157691952Y-101391868D01*
X157805694Y-101438981D01*
X157926443Y-101463000D01*
X158049557Y-101463000D01*
X158170306Y-101438981D01*
X158284048Y-101391868D01*
X158386414Y-101323469D01*
X158473469Y-101236414D01*
X158541868Y-101134048D01*
X158588981Y-101020306D01*
X158613000Y-100899557D01*
X158613000Y-100776443D01*
X158588981Y-100655694D01*
X158541868Y-100541952D01*
X158473469Y-100439586D01*
X158386414Y-100352531D01*
X158284048Y-100284132D01*
X158170306Y-100237019D01*
X158049557Y-100213000D01*
X157926443Y-100213000D01*
X157805694Y-100237019D01*
X157691952Y-100284132D01*
X157589586Y-100352531D01*
X157554117Y-100388000D01*
X155460758Y-100388000D01*
X155490048Y-100375868D01*
X155592414Y-100307469D01*
X155679469Y-100220414D01*
X155747868Y-100118048D01*
X155794981Y-100004306D01*
X155819000Y-99883557D01*
X155819000Y-99877001D01*
X168611222Y-99877001D01*
X168585353Y-99908523D01*
G36*
X172381903Y-95912000D02*
G01*
X168148000Y-95912000D01*
X168128491Y-95913921D01*
X168109732Y-95919612D01*
X168092443Y-95928853D01*
X168077289Y-95941289D01*
X168064853Y-95956443D01*
X168055612Y-95973732D01*
X168049921Y-95992491D01*
X168048000Y-96012000D01*
X168048000Y-96520000D01*
X168049921Y-96539509D01*
X168055612Y-96558268D01*
X168064853Y-96575557D01*
X168077289Y-96590711D01*
X168092443Y-96603147D01*
X168109732Y-96612388D01*
X168128491Y-96618079D01*
X168148000Y-96620000D01*
X172381903Y-96620000D01*
X172379385Y-97859732D01*
X172227957Y-97708304D01*
X172213866Y-97691134D01*
X172145345Y-97634900D01*
X172067170Y-97593114D01*
X171982344Y-97567382D01*
X171916234Y-97560871D01*
X171916223Y-97560871D01*
X171894129Y-97558695D01*
X171872035Y-97560871D01*
X167695223Y-97560871D01*
X167673129Y-97558695D01*
X167651035Y-97560871D01*
X167651024Y-97560871D01*
X167584914Y-97567382D01*
X167505221Y-97591557D01*
X167500088Y-97593114D01*
X167421912Y-97634900D01*
X167370561Y-97677043D01*
X167370557Y-97677047D01*
X167353392Y-97691134D01*
X167339305Y-97708300D01*
X167126604Y-97921001D01*
X146471451Y-97921001D01*
X146471451Y-96716000D01*
X151562703Y-96716000D01*
X151545019Y-96758694D01*
X151521000Y-96879443D01*
X151521000Y-97002557D01*
X151545019Y-97123306D01*
X151592132Y-97237048D01*
X151660531Y-97339414D01*
X151747586Y-97426469D01*
X151849952Y-97494868D01*
X151963694Y-97541981D01*
X152084443Y-97566000D01*
X152207557Y-97566000D01*
X152328306Y-97541981D01*
X152442048Y-97494868D01*
X152544414Y-97426469D01*
X152631469Y-97339414D01*
X152643773Y-97321000D01*
X163307075Y-97321000D01*
X163338586Y-97352511D01*
X163440952Y-97420910D01*
X163554694Y-97468023D01*
X163675443Y-97492042D01*
X163798557Y-97492042D01*
X163919306Y-97468023D01*
X164033048Y-97420910D01*
X164135414Y-97352511D01*
X164222469Y-97265456D01*
X164290868Y-97163090D01*
X164337981Y-97049348D01*
X164362000Y-96928599D01*
X164362000Y-96805485D01*
X164337981Y-96684736D01*
X164290868Y-96570994D01*
X164222469Y-96468628D01*
X164135414Y-96381573D01*
X164033048Y-96313174D01*
X163919306Y-96266061D01*
X163798557Y-96242042D01*
X163693000Y-96242042D01*
X163693000Y-96204443D01*
X163668981Y-96083694D01*
X163621868Y-95969952D01*
X163553469Y-95867586D01*
X163466414Y-95780531D01*
X163364048Y-95712132D01*
X163250306Y-95665019D01*
X163129557Y-95641000D01*
X163006443Y-95641000D01*
X162885694Y-95665019D01*
X162771952Y-95712132D01*
X162669586Y-95780531D01*
X162634117Y-95816000D01*
X151308712Y-95816000D01*
X151335062Y-95752385D01*
X151359081Y-95631636D01*
X151359081Y-95599222D01*
X151401819Y-95599222D01*
X151522568Y-95575203D01*
X151636310Y-95528090D01*
X151732023Y-95464137D01*
X151789585Y-95521699D01*
X151891951Y-95590098D01*
X152005693Y-95637211D01*
X152126442Y-95661230D01*
X152249556Y-95661230D01*
X152370305Y-95637211D01*
X152484047Y-95590098D01*
X152586413Y-95521699D01*
X152673468Y-95434644D01*
X152687145Y-95414175D01*
X152722111Y-95410731D01*
X152793741Y-95389002D01*
X152859756Y-95353717D01*
X152917618Y-95306230D01*
X152929518Y-95291730D01*
X153610250Y-94610999D01*
X172379261Y-94610999D01*
X172381903Y-95912000D01*
G37*
X172381903Y-95912000D02*
X168148000Y-95912000D01*
X168128491Y-95913921D01*
X168109732Y-95919612D01*
X168092443Y-95928853D01*
X168077289Y-95941289D01*
X168064853Y-95956443D01*
X168055612Y-95973732D01*
X168049921Y-95992491D01*
X168048000Y-96012000D01*
X168048000Y-96520000D01*
X168049921Y-96539509D01*
X168055612Y-96558268D01*
X168064853Y-96575557D01*
X168077289Y-96590711D01*
X168092443Y-96603147D01*
X168109732Y-96612388D01*
X168128491Y-96618079D01*
X168148000Y-96620000D01*
X172381903Y-96620000D01*
X172379385Y-97859732D01*
X172227957Y-97708304D01*
X172213866Y-97691134D01*
X172145345Y-97634900D01*
X172067170Y-97593114D01*
X171982344Y-97567382D01*
X171916234Y-97560871D01*
X171916223Y-97560871D01*
X171894129Y-97558695D01*
X171872035Y-97560871D01*
X167695223Y-97560871D01*
X167673129Y-97558695D01*
X167651035Y-97560871D01*
X167651024Y-97560871D01*
X167584914Y-97567382D01*
X167505221Y-97591557D01*
X167500088Y-97593114D01*
X167421912Y-97634900D01*
X167370561Y-97677043D01*
X167370557Y-97677047D01*
X167353392Y-97691134D01*
X167339305Y-97708300D01*
X167126604Y-97921001D01*
X146471451Y-97921001D01*
X146471451Y-96716000D01*
X151562703Y-96716000D01*
X151545019Y-96758694D01*
X151521000Y-96879443D01*
X151521000Y-97002557D01*
X151545019Y-97123306D01*
X151592132Y-97237048D01*
X151660531Y-97339414D01*
X151747586Y-97426469D01*
X151849952Y-97494868D01*
X151963694Y-97541981D01*
X152084443Y-97566000D01*
X152207557Y-97566000D01*
X152328306Y-97541981D01*
X152442048Y-97494868D01*
X152544414Y-97426469D01*
X152631469Y-97339414D01*
X152643773Y-97321000D01*
X163307075Y-97321000D01*
X163338586Y-97352511D01*
X163440952Y-97420910D01*
X163554694Y-97468023D01*
X163675443Y-97492042D01*
X163798557Y-97492042D01*
X163919306Y-97468023D01*
X164033048Y-97420910D01*
X164135414Y-97352511D01*
X164222469Y-97265456D01*
X164290868Y-97163090D01*
X164337981Y-97049348D01*
X164362000Y-96928599D01*
X164362000Y-96805485D01*
X164337981Y-96684736D01*
X164290868Y-96570994D01*
X164222469Y-96468628D01*
X164135414Y-96381573D01*
X164033048Y-96313174D01*
X163919306Y-96266061D01*
X163798557Y-96242042D01*
X163693000Y-96242042D01*
X163693000Y-96204443D01*
X163668981Y-96083694D01*
X163621868Y-95969952D01*
X163553469Y-95867586D01*
X163466414Y-95780531D01*
X163364048Y-95712132D01*
X163250306Y-95665019D01*
X163129557Y-95641000D01*
X163006443Y-95641000D01*
X162885694Y-95665019D01*
X162771952Y-95712132D01*
X162669586Y-95780531D01*
X162634117Y-95816000D01*
X151308712Y-95816000D01*
X151335062Y-95752385D01*
X151359081Y-95631636D01*
X151359081Y-95599222D01*
X151401819Y-95599222D01*
X151522568Y-95575203D01*
X151636310Y-95528090D01*
X151732023Y-95464137D01*
X151789585Y-95521699D01*
X151891951Y-95590098D01*
X152005693Y-95637211D01*
X152126442Y-95661230D01*
X152249556Y-95661230D01*
X152370305Y-95637211D01*
X152484047Y-95590098D01*
X152586413Y-95521699D01*
X152673468Y-95434644D01*
X152687145Y-95414175D01*
X152722111Y-95410731D01*
X152793741Y-95389002D01*
X152859756Y-95353717D01*
X152917618Y-95306230D01*
X152929518Y-95291730D01*
X153610250Y-94610999D01*
X172379261Y-94610999D01*
X172381903Y-95912000D01*
G36*
X132567811Y-86135203D02*
G01*
X132668263Y-86145097D01*
X132668263Y-86197088D01*
X132692282Y-86317837D01*
X132739395Y-86431579D01*
X132807794Y-86533945D01*
X132894849Y-86621000D01*
X132997215Y-86689399D01*
X133110957Y-86736512D01*
X133231706Y-86760531D01*
X133303744Y-86760531D01*
X133354704Y-86787770D01*
X133439530Y-86813502D01*
X133505640Y-86820013D01*
X133505651Y-86820013D01*
X133527745Y-86822189D01*
X133549839Y-86820013D01*
X136806000Y-86820013D01*
X136806000Y-87022000D01*
X134112000Y-87022000D01*
X134092491Y-87023921D01*
X134073732Y-87029612D01*
X134056443Y-87038853D01*
X134041289Y-87051289D01*
X134028853Y-87066443D01*
X134019612Y-87083732D01*
X134013921Y-87102491D01*
X134012000Y-87122000D01*
X134012000Y-87630000D01*
X134013921Y-87649509D01*
X134019612Y-87668268D01*
X134028853Y-87685557D01*
X134041289Y-87700711D01*
X134056443Y-87713147D01*
X134073732Y-87722388D01*
X134092491Y-87728079D01*
X134112000Y-87730000D01*
X137922000Y-87730000D01*
X137941509Y-87728079D01*
X137960268Y-87722388D01*
X137977557Y-87713147D01*
X137992711Y-87700711D01*
X138005147Y-87685557D01*
X138014388Y-87668268D01*
X138020079Y-87649509D01*
X138022000Y-87630000D01*
X138022000Y-86820013D01*
X143965420Y-86820013D01*
X143987514Y-86822189D01*
X144009608Y-86820013D01*
X144009619Y-86820013D01*
X144075729Y-86813502D01*
X144160555Y-86787770D01*
X144226278Y-86752640D01*
X144238731Y-86745984D01*
X144290082Y-86703841D01*
X144290086Y-86703837D01*
X144307251Y-86689750D01*
X144321339Y-86672584D01*
X144437922Y-86556000D01*
X144603908Y-86556000D01*
X144626002Y-86558176D01*
X144648096Y-86556000D01*
X144648107Y-86556000D01*
X144714217Y-86549489D01*
X144799043Y-86523757D01*
X144877218Y-86481971D01*
X144945739Y-86425737D01*
X144959831Y-86408566D01*
X145171000Y-86197397D01*
X145171000Y-86257558D01*
X145195019Y-86378307D01*
X145242132Y-86492049D01*
X145310531Y-86594415D01*
X145397586Y-86681470D01*
X145499952Y-86749869D01*
X145613694Y-86796982D01*
X145734443Y-86821001D01*
X145857557Y-86821001D01*
X145978306Y-86796982D01*
X146092048Y-86749869D01*
X146194414Y-86681470D01*
X146281469Y-86594415D01*
X146293773Y-86576001D01*
X146411125Y-86576001D01*
X146366640Y-86589496D01*
X146314523Y-86617353D01*
X146268842Y-86654842D01*
X146231353Y-86700523D01*
X146203496Y-86752640D01*
X146186341Y-86809190D01*
X146180549Y-86868000D01*
X146180549Y-88958000D01*
X140895883Y-88958000D01*
X140860414Y-88922531D01*
X140758048Y-88854132D01*
X140644306Y-88807019D01*
X140523557Y-88783000D01*
X140400443Y-88783000D01*
X140279694Y-88807019D01*
X140165952Y-88854132D01*
X140063586Y-88922531D01*
X140028117Y-88958000D01*
X137663451Y-88958000D01*
X137663451Y-88238000D01*
X137657659Y-88179190D01*
X137640504Y-88122640D01*
X137612647Y-88070523D01*
X137575158Y-88024842D01*
X137529477Y-87987353D01*
X137477360Y-87959496D01*
X137420810Y-87942341D01*
X137362000Y-87936549D01*
X133402000Y-87936549D01*
X133343190Y-87942341D01*
X133286640Y-87959496D01*
X133234523Y-87987353D01*
X133188842Y-88024842D01*
X133151353Y-88070523D01*
X133123496Y-88122640D01*
X133106341Y-88179190D01*
X133100549Y-88238000D01*
X133100549Y-90578000D01*
X133106341Y-90636810D01*
X133123496Y-90693360D01*
X133151353Y-90745477D01*
X133188842Y-90791158D01*
X133234523Y-90828647D01*
X133286640Y-90856504D01*
X133343190Y-90873659D01*
X133402000Y-90879451D01*
X137362000Y-90879451D01*
X137420810Y-90873659D01*
X137477360Y-90856504D01*
X137529477Y-90828647D01*
X137575158Y-90791158D01*
X137612647Y-90745477D01*
X137640504Y-90693360D01*
X137657659Y-90636810D01*
X137663451Y-90578000D01*
X137663451Y-89858000D01*
X140028117Y-89858000D01*
X140063586Y-89893469D01*
X140165952Y-89961868D01*
X140279694Y-90008981D01*
X140400443Y-90033000D01*
X140523557Y-90033000D01*
X140644306Y-90008981D01*
X140758048Y-89961868D01*
X140860414Y-89893469D01*
X140895883Y-89858000D01*
X146180549Y-89858000D01*
X146180549Y-91892999D01*
X142444213Y-91892999D01*
X142384469Y-91803586D01*
X142297414Y-91716531D01*
X142195048Y-91648132D01*
X142081306Y-91601019D01*
X141960557Y-91577000D01*
X141837443Y-91577000D01*
X141716694Y-91601019D01*
X141602952Y-91648132D01*
X141500586Y-91716531D01*
X141413531Y-91803586D01*
X141345132Y-91905952D01*
X141298019Y-92019694D01*
X141274000Y-92140443D01*
X141274000Y-92263557D01*
X141298019Y-92384306D01*
X141345132Y-92498048D01*
X141413531Y-92600414D01*
X141500586Y-92687469D01*
X141602952Y-92755868D01*
X141716694Y-92802981D01*
X141837443Y-92827000D01*
X141960557Y-92827000D01*
X142081306Y-92802981D01*
X142195048Y-92755868D01*
X142297414Y-92687469D01*
X142331884Y-92652999D01*
X151291003Y-92652999D01*
X150478577Y-93465425D01*
X150464082Y-93477321D01*
X150416595Y-93535183D01*
X150400668Y-93564981D01*
X150381309Y-93601199D01*
X150359580Y-93672829D01*
X150352244Y-93747321D01*
X150354082Y-93765984D01*
X150354081Y-95072306D01*
X150335667Y-95084610D01*
X150248612Y-95171665D01*
X150180213Y-95274031D01*
X150133100Y-95387773D01*
X150109081Y-95508522D01*
X150109081Y-95631636D01*
X150133100Y-95752385D01*
X150159450Y-95816000D01*
X146471451Y-95816000D01*
X146471451Y-94511000D01*
X146465659Y-94452190D01*
X146448504Y-94395640D01*
X146420647Y-94343523D01*
X146383158Y-94297842D01*
X146337477Y-94260353D01*
X146285360Y-94232496D01*
X146228810Y-94215341D01*
X146170000Y-94209549D01*
X143630000Y-94209549D01*
X143571190Y-94215341D01*
X143514640Y-94232496D01*
X143462523Y-94260353D01*
X143416842Y-94297842D01*
X143379353Y-94343523D01*
X143351496Y-94395640D01*
X143334341Y-94452190D01*
X143328549Y-94511000D01*
X143328549Y-95816000D01*
X141767209Y-95816000D01*
X141777868Y-95800048D01*
X141824981Y-95686306D01*
X141849000Y-95565557D01*
X141849000Y-95442443D01*
X141824981Y-95321694D01*
X141777868Y-95207952D01*
X141709469Y-95105586D01*
X141622414Y-95018531D01*
X141520048Y-94950132D01*
X141406306Y-94903019D01*
X141285557Y-94879000D01*
X141162443Y-94879000D01*
X141041694Y-94903019D01*
X140927952Y-94950132D01*
X140825586Y-95018531D01*
X140790117Y-95054000D01*
X136222091Y-95054000D01*
X136199999Y-95051824D01*
X136177907Y-95054000D01*
X136177895Y-95054000D01*
X136111785Y-95060511D01*
X136026959Y-95086243D01*
X135981163Y-95110722D01*
X135948783Y-95128029D01*
X135897432Y-95170172D01*
X135897428Y-95170176D01*
X135880263Y-95184263D01*
X135866176Y-95201428D01*
X135609451Y-95458153D01*
X135609451Y-95396000D01*
X135603659Y-95337190D01*
X135586504Y-95280640D01*
X135558647Y-95228523D01*
X135521158Y-95182842D01*
X135475477Y-95145353D01*
X135423360Y-95117496D01*
X135366810Y-95100341D01*
X135308000Y-95094549D01*
X134308000Y-95094549D01*
X134249190Y-95100341D01*
X134192640Y-95117496D01*
X134140523Y-95145353D01*
X134094842Y-95182842D01*
X134057353Y-95228523D01*
X134029496Y-95280640D01*
X134012341Y-95337190D01*
X134006549Y-95396000D01*
X134006549Y-96432191D01*
X133902920Y-96411577D01*
X133779806Y-96411577D01*
X133709451Y-96425572D01*
X133709451Y-95396000D01*
X133703659Y-95337190D01*
X133686504Y-95280640D01*
X133658647Y-95228523D01*
X133621158Y-95182842D01*
X133575477Y-95145353D01*
X133523360Y-95117496D01*
X133466810Y-95100341D01*
X133408000Y-95094549D01*
X132455000Y-95094549D01*
X132455000Y-93196000D01*
X133056549Y-93196000D01*
X133056549Y-94596000D01*
X133062341Y-94654810D01*
X133079496Y-94711360D01*
X133107353Y-94763477D01*
X133144842Y-94809158D01*
X133190523Y-94846647D01*
X133242640Y-94874504D01*
X133299190Y-94891659D01*
X133358000Y-94897451D01*
X134358000Y-94897451D01*
X134416810Y-94891659D01*
X134473360Y-94874504D01*
X134525477Y-94846647D01*
X134571158Y-94809158D01*
X134608647Y-94763477D01*
X134636504Y-94711360D01*
X134653659Y-94654810D01*
X134659451Y-94596000D01*
X134659451Y-94346000D01*
X139954873Y-94346000D01*
X139976531Y-94378414D01*
X140063586Y-94465469D01*
X140165952Y-94533868D01*
X140279694Y-94580981D01*
X140400443Y-94605000D01*
X140523557Y-94605000D01*
X140644306Y-94580981D01*
X140758048Y-94533868D01*
X140860414Y-94465469D01*
X140947469Y-94378414D01*
X141015868Y-94276048D01*
X141062981Y-94162306D01*
X141087000Y-94041557D01*
X141087000Y-93918443D01*
X141062981Y-93797694D01*
X141015868Y-93683952D01*
X140947469Y-93581586D01*
X140860414Y-93494531D01*
X140758048Y-93426132D01*
X140644306Y-93379019D01*
X140523557Y-93355000D01*
X140400443Y-93355000D01*
X140279694Y-93379019D01*
X140165952Y-93426132D01*
X140136218Y-93446000D01*
X140101883Y-93446000D01*
X140185469Y-93362414D01*
X140253868Y-93260048D01*
X140300981Y-93146306D01*
X140325000Y-93025557D01*
X140325000Y-92902443D01*
X140300981Y-92781694D01*
X140253868Y-92667952D01*
X140185469Y-92565586D01*
X140098414Y-92478531D01*
X139996048Y-92410132D01*
X139882306Y-92363019D01*
X139761557Y-92339000D01*
X139638443Y-92339000D01*
X139517694Y-92363019D01*
X139403952Y-92410132D01*
X139301586Y-92478531D01*
X139266117Y-92514000D01*
X136069883Y-92514000D01*
X136034414Y-92478531D01*
X135932048Y-92410132D01*
X135818306Y-92363019D01*
X135697557Y-92339000D01*
X135574443Y-92339000D01*
X135453694Y-92363019D01*
X135339952Y-92410132D01*
X135237586Y-92478531D01*
X135150531Y-92565586D01*
X135082132Y-92667952D01*
X135035019Y-92781694D01*
X135011000Y-92902443D01*
X135011000Y-93025557D01*
X135035019Y-93146306D01*
X135082132Y-93260048D01*
X135150531Y-93362414D01*
X135234117Y-93446000D01*
X134659451Y-93446000D01*
X134659451Y-93196000D01*
X134653659Y-93137190D01*
X134636504Y-93080640D01*
X134608647Y-93028523D01*
X134571158Y-92982842D01*
X134525477Y-92945353D01*
X134473360Y-92917496D01*
X134416810Y-92900341D01*
X134358000Y-92894549D01*
X133358000Y-92894549D01*
X133299190Y-92900341D01*
X133242640Y-92917496D01*
X133190523Y-92945353D01*
X133144842Y-92982842D01*
X133107353Y-93028523D01*
X133079496Y-93080640D01*
X133062341Y-93137190D01*
X133056549Y-93196000D01*
X132455000Y-93196000D01*
X132455000Y-86100982D01*
X132567811Y-86135203D01*
G37*
X132567811Y-86135203D02*
X132668263Y-86145097D01*
X132668263Y-86197088D01*
X132692282Y-86317837D01*
X132739395Y-86431579D01*
X132807794Y-86533945D01*
X132894849Y-86621000D01*
X132997215Y-86689399D01*
X133110957Y-86736512D01*
X133231706Y-86760531D01*
X133303744Y-86760531D01*
X133354704Y-86787770D01*
X133439530Y-86813502D01*
X133505640Y-86820013D01*
X133505651Y-86820013D01*
X133527745Y-86822189D01*
X133549839Y-86820013D01*
X136806000Y-86820013D01*
X136806000Y-87022000D01*
X134112000Y-87022000D01*
X134092491Y-87023921D01*
X134073732Y-87029612D01*
X134056443Y-87038853D01*
X134041289Y-87051289D01*
X134028853Y-87066443D01*
X134019612Y-87083732D01*
X134013921Y-87102491D01*
X134012000Y-87122000D01*
X134012000Y-87630000D01*
X134013921Y-87649509D01*
X134019612Y-87668268D01*
X134028853Y-87685557D01*
X134041289Y-87700711D01*
X134056443Y-87713147D01*
X134073732Y-87722388D01*
X134092491Y-87728079D01*
X134112000Y-87730000D01*
X137922000Y-87730000D01*
X137941509Y-87728079D01*
X137960268Y-87722388D01*
X137977557Y-87713147D01*
X137992711Y-87700711D01*
X138005147Y-87685557D01*
X138014388Y-87668268D01*
X138020079Y-87649509D01*
X138022000Y-87630000D01*
X138022000Y-86820013D01*
X143965420Y-86820013D01*
X143987514Y-86822189D01*
X144009608Y-86820013D01*
X144009619Y-86820013D01*
X144075729Y-86813502D01*
X144160555Y-86787770D01*
X144226278Y-86752640D01*
X144238731Y-86745984D01*
X144290082Y-86703841D01*
X144290086Y-86703837D01*
X144307251Y-86689750D01*
X144321339Y-86672584D01*
X144437922Y-86556000D01*
X144603908Y-86556000D01*
X144626002Y-86558176D01*
X144648096Y-86556000D01*
X144648107Y-86556000D01*
X144714217Y-86549489D01*
X144799043Y-86523757D01*
X144877218Y-86481971D01*
X144945739Y-86425737D01*
X144959831Y-86408566D01*
X145171000Y-86197397D01*
X145171000Y-86257558D01*
X145195019Y-86378307D01*
X145242132Y-86492049D01*
X145310531Y-86594415D01*
X145397586Y-86681470D01*
X145499952Y-86749869D01*
X145613694Y-86796982D01*
X145734443Y-86821001D01*
X145857557Y-86821001D01*
X145978306Y-86796982D01*
X146092048Y-86749869D01*
X146194414Y-86681470D01*
X146281469Y-86594415D01*
X146293773Y-86576001D01*
X146411125Y-86576001D01*
X146366640Y-86589496D01*
X146314523Y-86617353D01*
X146268842Y-86654842D01*
X146231353Y-86700523D01*
X146203496Y-86752640D01*
X146186341Y-86809190D01*
X146180549Y-86868000D01*
X146180549Y-88958000D01*
X140895883Y-88958000D01*
X140860414Y-88922531D01*
X140758048Y-88854132D01*
X140644306Y-88807019D01*
X140523557Y-88783000D01*
X140400443Y-88783000D01*
X140279694Y-88807019D01*
X140165952Y-88854132D01*
X140063586Y-88922531D01*
X140028117Y-88958000D01*
X137663451Y-88958000D01*
X137663451Y-88238000D01*
X137657659Y-88179190D01*
X137640504Y-88122640D01*
X137612647Y-88070523D01*
X137575158Y-88024842D01*
X137529477Y-87987353D01*
X137477360Y-87959496D01*
X137420810Y-87942341D01*
X137362000Y-87936549D01*
X133402000Y-87936549D01*
X133343190Y-87942341D01*
X133286640Y-87959496D01*
X133234523Y-87987353D01*
X133188842Y-88024842D01*
X133151353Y-88070523D01*
X133123496Y-88122640D01*
X133106341Y-88179190D01*
X133100549Y-88238000D01*
X133100549Y-90578000D01*
X133106341Y-90636810D01*
X133123496Y-90693360D01*
X133151353Y-90745477D01*
X133188842Y-90791158D01*
X133234523Y-90828647D01*
X133286640Y-90856504D01*
X133343190Y-90873659D01*
X133402000Y-90879451D01*
X137362000Y-90879451D01*
X137420810Y-90873659D01*
X137477360Y-90856504D01*
X137529477Y-90828647D01*
X137575158Y-90791158D01*
X137612647Y-90745477D01*
X137640504Y-90693360D01*
X137657659Y-90636810D01*
X137663451Y-90578000D01*
X137663451Y-89858000D01*
X140028117Y-89858000D01*
X140063586Y-89893469D01*
X140165952Y-89961868D01*
X140279694Y-90008981D01*
X140400443Y-90033000D01*
X140523557Y-90033000D01*
X140644306Y-90008981D01*
X140758048Y-89961868D01*
X140860414Y-89893469D01*
X140895883Y-89858000D01*
X146180549Y-89858000D01*
X146180549Y-91892999D01*
X142444213Y-91892999D01*
X142384469Y-91803586D01*
X142297414Y-91716531D01*
X142195048Y-91648132D01*
X142081306Y-91601019D01*
X141960557Y-91577000D01*
X141837443Y-91577000D01*
X141716694Y-91601019D01*
X141602952Y-91648132D01*
X141500586Y-91716531D01*
X141413531Y-91803586D01*
X141345132Y-91905952D01*
X141298019Y-92019694D01*
X141274000Y-92140443D01*
X141274000Y-92263557D01*
X141298019Y-92384306D01*
X141345132Y-92498048D01*
X141413531Y-92600414D01*
X141500586Y-92687469D01*
X141602952Y-92755868D01*
X141716694Y-92802981D01*
X141837443Y-92827000D01*
X141960557Y-92827000D01*
X142081306Y-92802981D01*
X142195048Y-92755868D01*
X142297414Y-92687469D01*
X142331884Y-92652999D01*
X151291003Y-92652999D01*
X150478577Y-93465425D01*
X150464082Y-93477321D01*
X150416595Y-93535183D01*
X150400668Y-93564981D01*
X150381309Y-93601199D01*
X150359580Y-93672829D01*
X150352244Y-93747321D01*
X150354082Y-93765984D01*
X150354081Y-95072306D01*
X150335667Y-95084610D01*
X150248612Y-95171665D01*
X150180213Y-95274031D01*
X150133100Y-95387773D01*
X150109081Y-95508522D01*
X150109081Y-95631636D01*
X150133100Y-95752385D01*
X150159450Y-95816000D01*
X146471451Y-95816000D01*
X146471451Y-94511000D01*
X146465659Y-94452190D01*
X146448504Y-94395640D01*
X146420647Y-94343523D01*
X146383158Y-94297842D01*
X146337477Y-94260353D01*
X146285360Y-94232496D01*
X146228810Y-94215341D01*
X146170000Y-94209549D01*
X143630000Y-94209549D01*
X143571190Y-94215341D01*
X143514640Y-94232496D01*
X143462523Y-94260353D01*
X143416842Y-94297842D01*
X143379353Y-94343523D01*
X143351496Y-94395640D01*
X143334341Y-94452190D01*
X143328549Y-94511000D01*
X143328549Y-95816000D01*
X141767209Y-95816000D01*
X141777868Y-95800048D01*
X141824981Y-95686306D01*
X141849000Y-95565557D01*
X141849000Y-95442443D01*
X141824981Y-95321694D01*
X141777868Y-95207952D01*
X141709469Y-95105586D01*
X141622414Y-95018531D01*
X141520048Y-94950132D01*
X141406306Y-94903019D01*
X141285557Y-94879000D01*
X141162443Y-94879000D01*
X141041694Y-94903019D01*
X140927952Y-94950132D01*
X140825586Y-95018531D01*
X140790117Y-95054000D01*
X136222091Y-95054000D01*
X136199999Y-95051824D01*
X136177907Y-95054000D01*
X136177895Y-95054000D01*
X136111785Y-95060511D01*
X136026959Y-95086243D01*
X135981163Y-95110722D01*
X135948783Y-95128029D01*
X135897432Y-95170172D01*
X135897428Y-95170176D01*
X135880263Y-95184263D01*
X135866176Y-95201428D01*
X135609451Y-95458153D01*
X135609451Y-95396000D01*
X135603659Y-95337190D01*
X135586504Y-95280640D01*
X135558647Y-95228523D01*
X135521158Y-95182842D01*
X135475477Y-95145353D01*
X135423360Y-95117496D01*
X135366810Y-95100341D01*
X135308000Y-95094549D01*
X134308000Y-95094549D01*
X134249190Y-95100341D01*
X134192640Y-95117496D01*
X134140523Y-95145353D01*
X134094842Y-95182842D01*
X134057353Y-95228523D01*
X134029496Y-95280640D01*
X134012341Y-95337190D01*
X134006549Y-95396000D01*
X134006549Y-96432191D01*
X133902920Y-96411577D01*
X133779806Y-96411577D01*
X133709451Y-96425572D01*
X133709451Y-95396000D01*
X133703659Y-95337190D01*
X133686504Y-95280640D01*
X133658647Y-95228523D01*
X133621158Y-95182842D01*
X133575477Y-95145353D01*
X133523360Y-95117496D01*
X133466810Y-95100341D01*
X133408000Y-95094549D01*
X132455000Y-95094549D01*
X132455000Y-93196000D01*
X133056549Y-93196000D01*
X133056549Y-94596000D01*
X133062341Y-94654810D01*
X133079496Y-94711360D01*
X133107353Y-94763477D01*
X133144842Y-94809158D01*
X133190523Y-94846647D01*
X133242640Y-94874504D01*
X133299190Y-94891659D01*
X133358000Y-94897451D01*
X134358000Y-94897451D01*
X134416810Y-94891659D01*
X134473360Y-94874504D01*
X134525477Y-94846647D01*
X134571158Y-94809158D01*
X134608647Y-94763477D01*
X134636504Y-94711360D01*
X134653659Y-94654810D01*
X134659451Y-94596000D01*
X134659451Y-94346000D01*
X139954873Y-94346000D01*
X139976531Y-94378414D01*
X140063586Y-94465469D01*
X140165952Y-94533868D01*
X140279694Y-94580981D01*
X140400443Y-94605000D01*
X140523557Y-94605000D01*
X140644306Y-94580981D01*
X140758048Y-94533868D01*
X140860414Y-94465469D01*
X140947469Y-94378414D01*
X141015868Y-94276048D01*
X141062981Y-94162306D01*
X141087000Y-94041557D01*
X141087000Y-93918443D01*
X141062981Y-93797694D01*
X141015868Y-93683952D01*
X140947469Y-93581586D01*
X140860414Y-93494531D01*
X140758048Y-93426132D01*
X140644306Y-93379019D01*
X140523557Y-93355000D01*
X140400443Y-93355000D01*
X140279694Y-93379019D01*
X140165952Y-93426132D01*
X140136218Y-93446000D01*
X140101883Y-93446000D01*
X140185469Y-93362414D01*
X140253868Y-93260048D01*
X140300981Y-93146306D01*
X140325000Y-93025557D01*
X140325000Y-92902443D01*
X140300981Y-92781694D01*
X140253868Y-92667952D01*
X140185469Y-92565586D01*
X140098414Y-92478531D01*
X139996048Y-92410132D01*
X139882306Y-92363019D01*
X139761557Y-92339000D01*
X139638443Y-92339000D01*
X139517694Y-92363019D01*
X139403952Y-92410132D01*
X139301586Y-92478531D01*
X139266117Y-92514000D01*
X136069883Y-92514000D01*
X136034414Y-92478531D01*
X135932048Y-92410132D01*
X135818306Y-92363019D01*
X135697557Y-92339000D01*
X135574443Y-92339000D01*
X135453694Y-92363019D01*
X135339952Y-92410132D01*
X135237586Y-92478531D01*
X135150531Y-92565586D01*
X135082132Y-92667952D01*
X135035019Y-92781694D01*
X135011000Y-92902443D01*
X135011000Y-93025557D01*
X135035019Y-93146306D01*
X135082132Y-93260048D01*
X135150531Y-93362414D01*
X135234117Y-93446000D01*
X134659451Y-93446000D01*
X134659451Y-93196000D01*
X134653659Y-93137190D01*
X134636504Y-93080640D01*
X134608647Y-93028523D01*
X134571158Y-92982842D01*
X134525477Y-92945353D01*
X134473360Y-92917496D01*
X134416810Y-92900341D01*
X134358000Y-92894549D01*
X133358000Y-92894549D01*
X133299190Y-92900341D01*
X133242640Y-92917496D01*
X133190523Y-92945353D01*
X133144842Y-92982842D01*
X133107353Y-93028523D01*
X133079496Y-93080640D01*
X133062341Y-93137190D01*
X133056549Y-93196000D01*
X132455000Y-93196000D01*
X132455000Y-86100982D01*
X132567811Y-86135203D01*
G36*
X183579012Y-90966215D02*
G01*
X183604743Y-91051040D01*
X183646529Y-91129216D01*
X183688672Y-91180567D01*
X183688677Y-91180572D01*
X183702764Y-91197737D01*
X183719929Y-91211824D01*
X185562010Y-93053906D01*
X185562010Y-93988699D01*
X185513057Y-93962533D01*
X185422501Y-93925024D01*
X185365952Y-93907870D01*
X185269819Y-93888748D01*
X185211009Y-93882956D01*
X185186450Y-93882956D01*
X185162000Y-93880548D01*
X184662000Y-93880548D01*
X184637550Y-93882956D01*
X184612991Y-93882956D01*
X184554181Y-93888748D01*
X184458048Y-93907870D01*
X184401499Y-93925024D01*
X184310943Y-93962533D01*
X184258824Y-93990391D01*
X184177325Y-94044847D01*
X184131644Y-94082336D01*
X184062336Y-94151644D01*
X184024847Y-94197325D01*
X183970391Y-94278824D01*
X183942533Y-94330943D01*
X183929669Y-94362000D01*
X183123773Y-94362000D01*
X183111469Y-94343586D01*
X183024414Y-94256531D01*
X182922048Y-94188132D01*
X182808306Y-94141019D01*
X182687557Y-94117000D01*
X182564443Y-94117000D01*
X182542721Y-94121321D01*
X182396899Y-93975499D01*
X182384999Y-93960999D01*
X182327137Y-93913512D01*
X182261122Y-93878227D01*
X182189492Y-93856498D01*
X182133660Y-93850999D01*
X182133652Y-93850999D01*
X182114999Y-93849162D01*
X182096346Y-93850999D01*
X157548791Y-93850999D01*
X157624414Y-93800469D01*
X157711469Y-93713414D01*
X157723773Y-93695000D01*
X173112347Y-93695000D01*
X173131000Y-93696837D01*
X173149653Y-93695000D01*
X173149661Y-93695000D01*
X173205493Y-93689501D01*
X173277123Y-93667772D01*
X173343138Y-93632487D01*
X173401000Y-93585000D01*
X173412900Y-93570500D01*
X173906721Y-93076679D01*
X173928443Y-93081000D01*
X174051557Y-93081000D01*
X174172306Y-93056981D01*
X174286048Y-93009868D01*
X174388414Y-92941469D01*
X174475469Y-92854414D01*
X174487773Y-92836000D01*
X180858227Y-92836000D01*
X180870531Y-92854414D01*
X180957586Y-92941469D01*
X181059952Y-93009868D01*
X181173694Y-93056981D01*
X181294443Y-93081000D01*
X181417557Y-93081000D01*
X181538306Y-93056981D01*
X181652048Y-93009868D01*
X181754414Y-92941469D01*
X181841469Y-92854414D01*
X181909868Y-92752048D01*
X181956981Y-92638306D01*
X181981000Y-92517557D01*
X181981000Y-92394443D01*
X181956981Y-92273694D01*
X181909868Y-92159952D01*
X181841469Y-92057586D01*
X181815085Y-92031202D01*
X181838694Y-92040981D01*
X181959443Y-92065000D01*
X182082557Y-92065000D01*
X182203306Y-92040981D01*
X182317048Y-91993868D01*
X182419414Y-91925469D01*
X182506469Y-91838414D01*
X182574868Y-91736048D01*
X182621981Y-91622306D01*
X182646000Y-91501557D01*
X182646000Y-91378443D01*
X182621981Y-91257694D01*
X182574868Y-91143952D01*
X182506469Y-91041586D01*
X182419414Y-90954531D01*
X182317048Y-90886132D01*
X182300918Y-90879451D01*
X183570467Y-90879451D01*
X183579012Y-90966215D01*
G37*
X183579012Y-90966215D02*
X183604743Y-91051040D01*
X183646529Y-91129216D01*
X183688672Y-91180567D01*
X183688677Y-91180572D01*
X183702764Y-91197737D01*
X183719929Y-91211824D01*
X185562010Y-93053906D01*
X185562010Y-93988699D01*
X185513057Y-93962533D01*
X185422501Y-93925024D01*
X185365952Y-93907870D01*
X185269819Y-93888748D01*
X185211009Y-93882956D01*
X185186450Y-93882956D01*
X185162000Y-93880548D01*
X184662000Y-93880548D01*
X184637550Y-93882956D01*
X184612991Y-93882956D01*
X184554181Y-93888748D01*
X184458048Y-93907870D01*
X184401499Y-93925024D01*
X184310943Y-93962533D01*
X184258824Y-93990391D01*
X184177325Y-94044847D01*
X184131644Y-94082336D01*
X184062336Y-94151644D01*
X184024847Y-94197325D01*
X183970391Y-94278824D01*
X183942533Y-94330943D01*
X183929669Y-94362000D01*
X183123773Y-94362000D01*
X183111469Y-94343586D01*
X183024414Y-94256531D01*
X182922048Y-94188132D01*
X182808306Y-94141019D01*
X182687557Y-94117000D01*
X182564443Y-94117000D01*
X182542721Y-94121321D01*
X182396899Y-93975499D01*
X182384999Y-93960999D01*
X182327137Y-93913512D01*
X182261122Y-93878227D01*
X182189492Y-93856498D01*
X182133660Y-93850999D01*
X182133652Y-93850999D01*
X182114999Y-93849162D01*
X182096346Y-93850999D01*
X157548791Y-93850999D01*
X157624414Y-93800469D01*
X157711469Y-93713414D01*
X157723773Y-93695000D01*
X173112347Y-93695000D01*
X173131000Y-93696837D01*
X173149653Y-93695000D01*
X173149661Y-93695000D01*
X173205493Y-93689501D01*
X173277123Y-93667772D01*
X173343138Y-93632487D01*
X173401000Y-93585000D01*
X173412900Y-93570500D01*
X173906721Y-93076679D01*
X173928443Y-93081000D01*
X174051557Y-93081000D01*
X174172306Y-93056981D01*
X174286048Y-93009868D01*
X174388414Y-92941469D01*
X174475469Y-92854414D01*
X174487773Y-92836000D01*
X180858227Y-92836000D01*
X180870531Y-92854414D01*
X180957586Y-92941469D01*
X181059952Y-93009868D01*
X181173694Y-93056981D01*
X181294443Y-93081000D01*
X181417557Y-93081000D01*
X181538306Y-93056981D01*
X181652048Y-93009868D01*
X181754414Y-92941469D01*
X181841469Y-92854414D01*
X181909868Y-92752048D01*
X181956981Y-92638306D01*
X181981000Y-92517557D01*
X181981000Y-92394443D01*
X181956981Y-92273694D01*
X181909868Y-92159952D01*
X181841469Y-92057586D01*
X181815085Y-92031202D01*
X181838694Y-92040981D01*
X181959443Y-92065000D01*
X182082557Y-92065000D01*
X182203306Y-92040981D01*
X182317048Y-91993868D01*
X182419414Y-91925469D01*
X182506469Y-91838414D01*
X182574868Y-91736048D01*
X182621981Y-91622306D01*
X182646000Y-91501557D01*
X182646000Y-91378443D01*
X182621981Y-91257694D01*
X182574868Y-91143952D01*
X182506469Y-91041586D01*
X182419414Y-90954531D01*
X182317048Y-90886132D01*
X182300918Y-90879451D01*
X183570467Y-90879451D01*
X183579012Y-90966215D01*
G36*
X186705000Y-88086806D02*
G01*
X186686573Y-88026060D01*
X186651288Y-87960045D01*
X186623387Y-87926048D01*
X186615697Y-87916677D01*
X186615692Y-87916672D01*
X186603801Y-87902183D01*
X186589313Y-87890293D01*
X185819518Y-87120500D01*
X185807618Y-87106000D01*
X185749756Y-87058513D01*
X185683741Y-87023228D01*
X185612111Y-87001499D01*
X185577145Y-86998055D01*
X185563468Y-86977586D01*
X185476413Y-86890531D01*
X185374047Y-86822132D01*
X185260305Y-86775019D01*
X185139556Y-86751000D01*
X185016442Y-86751000D01*
X184895693Y-86775019D01*
X184781951Y-86822132D01*
X184679585Y-86890531D01*
X184592530Y-86977586D01*
X184524131Y-87079952D01*
X184477018Y-87193694D01*
X184452999Y-87314443D01*
X184452999Y-87437557D01*
X184477018Y-87558306D01*
X184524131Y-87672048D01*
X184592530Y-87774414D01*
X184679585Y-87861469D01*
X184781951Y-87929868D01*
X184798081Y-87936549D01*
X183172851Y-87936549D01*
X183179868Y-87926048D01*
X183226981Y-87812306D01*
X183251000Y-87691557D01*
X183251000Y-87568443D01*
X183226981Y-87447694D01*
X183179868Y-87333952D01*
X183111469Y-87231586D01*
X183024414Y-87144531D01*
X183006000Y-87132227D01*
X183006000Y-83301773D01*
X183024414Y-83289469D01*
X183111469Y-83202414D01*
X183179868Y-83100048D01*
X183226981Y-82986306D01*
X183251000Y-82865557D01*
X183251000Y-82742443D01*
X183226981Y-82621694D01*
X183179868Y-82507952D01*
X183128751Y-82431451D01*
X184746000Y-82431451D01*
X184804810Y-82425659D01*
X184861360Y-82408504D01*
X184913477Y-82380647D01*
X184959158Y-82343158D01*
X184996647Y-82297477D01*
X185024504Y-82245360D01*
X185041659Y-82188810D01*
X185047451Y-82130000D01*
X185047451Y-80430000D01*
X185041659Y-80371190D01*
X185024504Y-80314640D01*
X184996647Y-80262523D01*
X184959158Y-80216842D01*
X184913477Y-80179353D01*
X184861360Y-80151496D01*
X184804810Y-80134341D01*
X184746000Y-80128549D01*
X183046000Y-80128549D01*
X182987190Y-80134341D01*
X182930640Y-80151496D01*
X182878523Y-80179353D01*
X182832842Y-80216842D01*
X182795353Y-80262523D01*
X182767496Y-80314640D01*
X182750341Y-80371190D01*
X182744549Y-80430000D01*
X182744549Y-82130000D01*
X182750341Y-82188810D01*
X182751206Y-82191661D01*
X182687557Y-82179000D01*
X182564443Y-82179000D01*
X182443694Y-82203019D01*
X182329952Y-82250132D01*
X182287055Y-82278795D01*
X182311203Y-82199189D01*
X182322942Y-82080000D01*
X182320000Y-81586000D01*
X182168000Y-81434000D01*
X180776000Y-81434000D01*
X180776000Y-82536000D01*
X180928000Y-82688000D01*
X181712000Y-82690942D01*
X181831189Y-82679203D01*
X181945797Y-82644437D01*
X182035447Y-82596518D01*
X182025019Y-82621694D01*
X182001000Y-82742443D01*
X182001000Y-82865557D01*
X182025019Y-82986306D01*
X182072132Y-83100048D01*
X182140531Y-83202414D01*
X182227586Y-83289469D01*
X182246000Y-83301773D01*
X182246001Y-87132227D01*
X182227586Y-87144531D01*
X182140531Y-87231586D01*
X182072132Y-87333952D01*
X182025019Y-87447694D01*
X182001000Y-87568443D01*
X182001000Y-87691557D01*
X182025019Y-87812306D01*
X182072132Y-87926048D01*
X182079149Y-87936549D01*
X182042500Y-87936549D01*
X181983690Y-87942341D01*
X181927140Y-87959496D01*
X181875023Y-87987353D01*
X181829342Y-88024842D01*
X181791853Y-88070523D01*
X181763996Y-88122640D01*
X181746841Y-88179190D01*
X181741049Y-88238000D01*
X181741049Y-90523653D01*
X177963002Y-86745607D01*
X177963002Y-83010090D01*
X177965178Y-82987998D01*
X177963002Y-82965906D01*
X177963002Y-82965894D01*
X177956491Y-82899784D01*
X177930759Y-82814958D01*
X177906612Y-82769782D01*
X177888973Y-82736782D01*
X177846830Y-82685431D01*
X177846826Y-82685427D01*
X177832739Y-82668262D01*
X177815574Y-82654175D01*
X177241399Y-82080000D01*
X178921058Y-82080000D01*
X178932797Y-82199189D01*
X178967563Y-82313797D01*
X179024020Y-82419421D01*
X179099999Y-82512001D01*
X179192579Y-82587980D01*
X179298203Y-82644437D01*
X179412811Y-82679203D01*
X179532000Y-82690942D01*
X180316000Y-82688000D01*
X180468000Y-82536000D01*
X180468000Y-81434000D01*
X179076000Y-81434000D01*
X178924000Y-81586000D01*
X178921058Y-82080000D01*
X177241399Y-82080000D01*
X175641399Y-80480000D01*
X178921058Y-80480000D01*
X178924000Y-80974000D01*
X179076000Y-81126000D01*
X180468000Y-81126000D01*
X180468000Y-80024000D01*
X180776000Y-80024000D01*
X180776000Y-81126000D01*
X182168000Y-81126000D01*
X182320000Y-80974000D01*
X182322942Y-80480000D01*
X182311203Y-80360811D01*
X182276437Y-80246203D01*
X182219980Y-80140579D01*
X182144001Y-80047999D01*
X182051421Y-79972020D01*
X181945797Y-79915563D01*
X181831189Y-79880797D01*
X181712000Y-79869058D01*
X180928000Y-79872000D01*
X180776000Y-80024000D01*
X180468000Y-80024000D01*
X180316000Y-79872000D01*
X179532000Y-79869058D01*
X179412811Y-79880797D01*
X179298203Y-79915563D01*
X179192579Y-79972020D01*
X179099999Y-80047999D01*
X179024020Y-80140579D01*
X178967563Y-80246203D01*
X178932797Y-80360811D01*
X178921058Y-80480000D01*
X175641399Y-80480000D01*
X174988831Y-79827433D01*
X174974739Y-79810262D01*
X174906218Y-79754028D01*
X174828043Y-79712242D01*
X174743217Y-79686510D01*
X174677107Y-79679999D01*
X174677096Y-79679999D01*
X174655002Y-79677823D01*
X174632908Y-79679999D01*
X169615884Y-79679999D01*
X169649469Y-79646414D01*
X169717868Y-79544048D01*
X169764981Y-79430306D01*
X169789000Y-79309557D01*
X169789000Y-79186443D01*
X169764981Y-79065694D01*
X169717868Y-78951952D01*
X169660437Y-78866000D01*
X171881227Y-78866000D01*
X171893531Y-78884414D01*
X171980586Y-78971469D01*
X172082952Y-79039868D01*
X172196694Y-79086981D01*
X172317443Y-79111000D01*
X172440557Y-79111000D01*
X172561306Y-79086981D01*
X172675048Y-79039868D01*
X172777414Y-78971469D01*
X172864469Y-78884414D01*
X172932868Y-78782048D01*
X172979981Y-78668306D01*
X173004000Y-78547557D01*
X173004000Y-78424443D01*
X172979981Y-78303694D01*
X172932868Y-78189952D01*
X172864469Y-78087586D01*
X172777414Y-78000531D01*
X172675048Y-77932132D01*
X172561306Y-77885019D01*
X172440557Y-77861000D01*
X172317443Y-77861000D01*
X172196694Y-77885019D01*
X172082952Y-77932132D01*
X171980586Y-78000531D01*
X171893531Y-78087586D01*
X171881227Y-78106000D01*
X169489937Y-78106000D01*
X169501216Y-78099971D01*
X169569737Y-78043737D01*
X169583829Y-78026566D01*
X170054944Y-77555451D01*
X171084050Y-77555451D01*
X171108814Y-77580215D01*
X171120710Y-77594710D01*
X171178572Y-77642197D01*
X171244587Y-77677482D01*
X171316217Y-77699211D01*
X171372049Y-77704710D01*
X171372056Y-77704710D01*
X171390710Y-77706547D01*
X171409364Y-77704710D01*
X173010796Y-77704710D01*
X173080579Y-77761980D01*
X173186203Y-77818437D01*
X173202400Y-77823350D01*
X174502155Y-79123106D01*
X174514051Y-79137601D01*
X174571913Y-79185088D01*
X174637928Y-79220373D01*
X174674147Y-79231360D01*
X174709557Y-79242102D01*
X174717220Y-79242857D01*
X174765390Y-79247601D01*
X174765396Y-79247601D01*
X174784050Y-79249438D01*
X174802704Y-79247601D01*
X184003746Y-79247601D01*
X184022399Y-79249438D01*
X184041052Y-79247601D01*
X184041060Y-79247601D01*
X184096892Y-79242102D01*
X184168522Y-79220373D01*
X184234537Y-79185088D01*
X184292399Y-79137601D01*
X184304299Y-79123101D01*
X184584297Y-78843104D01*
X184584301Y-78843099D01*
X184655418Y-78771982D01*
X184826590Y-78842883D01*
X185051395Y-78887600D01*
X185280605Y-78887600D01*
X185505410Y-78842883D01*
X185717171Y-78755169D01*
X185907752Y-78627827D01*
X186069827Y-78465752D01*
X186197169Y-78275171D01*
X186284883Y-78063410D01*
X186329600Y-77838605D01*
X186329600Y-77609395D01*
X186284883Y-77384590D01*
X186197169Y-77172829D01*
X186069827Y-76982248D01*
X185907752Y-76820173D01*
X185717171Y-76692831D01*
X185629291Y-76656430D01*
X186029600Y-76658542D01*
X186148789Y-76646803D01*
X186263397Y-76612037D01*
X186369021Y-76555580D01*
X186461601Y-76479601D01*
X186537580Y-76387021D01*
X186594037Y-76281397D01*
X186628803Y-76166789D01*
X186640542Y-76047600D01*
X186637600Y-75490000D01*
X186485600Y-75338000D01*
X186282000Y-75338000D01*
X186282000Y-75030000D01*
X186485600Y-75030000D01*
X186637600Y-74878000D01*
X186640542Y-74320400D01*
X186628803Y-74201211D01*
X186594037Y-74086603D01*
X186537580Y-73980979D01*
X186461601Y-73888399D01*
X186369021Y-73812420D01*
X186310238Y-73781000D01*
X186705000Y-73781000D01*
X186705000Y-88086806D01*
G37*
X186705000Y-88086806D02*
X186686573Y-88026060D01*
X186651288Y-87960045D01*
X186623387Y-87926048D01*
X186615697Y-87916677D01*
X186615692Y-87916672D01*
X186603801Y-87902183D01*
X186589313Y-87890293D01*
X185819518Y-87120500D01*
X185807618Y-87106000D01*
X185749756Y-87058513D01*
X185683741Y-87023228D01*
X185612111Y-87001499D01*
X185577145Y-86998055D01*
X185563468Y-86977586D01*
X185476413Y-86890531D01*
X185374047Y-86822132D01*
X185260305Y-86775019D01*
X185139556Y-86751000D01*
X185016442Y-86751000D01*
X184895693Y-86775019D01*
X184781951Y-86822132D01*
X184679585Y-86890531D01*
X184592530Y-86977586D01*
X184524131Y-87079952D01*
X184477018Y-87193694D01*
X184452999Y-87314443D01*
X184452999Y-87437557D01*
X184477018Y-87558306D01*
X184524131Y-87672048D01*
X184592530Y-87774414D01*
X184679585Y-87861469D01*
X184781951Y-87929868D01*
X184798081Y-87936549D01*
X183172851Y-87936549D01*
X183179868Y-87926048D01*
X183226981Y-87812306D01*
X183251000Y-87691557D01*
X183251000Y-87568443D01*
X183226981Y-87447694D01*
X183179868Y-87333952D01*
X183111469Y-87231586D01*
X183024414Y-87144531D01*
X183006000Y-87132227D01*
X183006000Y-83301773D01*
X183024414Y-83289469D01*
X183111469Y-83202414D01*
X183179868Y-83100048D01*
X183226981Y-82986306D01*
X183251000Y-82865557D01*
X183251000Y-82742443D01*
X183226981Y-82621694D01*
X183179868Y-82507952D01*
X183128751Y-82431451D01*
X184746000Y-82431451D01*
X184804810Y-82425659D01*
X184861360Y-82408504D01*
X184913477Y-82380647D01*
X184959158Y-82343158D01*
X184996647Y-82297477D01*
X185024504Y-82245360D01*
X185041659Y-82188810D01*
X185047451Y-82130000D01*
X185047451Y-80430000D01*
X185041659Y-80371190D01*
X185024504Y-80314640D01*
X184996647Y-80262523D01*
X184959158Y-80216842D01*
X184913477Y-80179353D01*
X184861360Y-80151496D01*
X184804810Y-80134341D01*
X184746000Y-80128549D01*
X183046000Y-80128549D01*
X182987190Y-80134341D01*
X182930640Y-80151496D01*
X182878523Y-80179353D01*
X182832842Y-80216842D01*
X182795353Y-80262523D01*
X182767496Y-80314640D01*
X182750341Y-80371190D01*
X182744549Y-80430000D01*
X182744549Y-82130000D01*
X182750341Y-82188810D01*
X182751206Y-82191661D01*
X182687557Y-82179000D01*
X182564443Y-82179000D01*
X182443694Y-82203019D01*
X182329952Y-82250132D01*
X182287055Y-82278795D01*
X182311203Y-82199189D01*
X182322942Y-82080000D01*
X182320000Y-81586000D01*
X182168000Y-81434000D01*
X180776000Y-81434000D01*
X180776000Y-82536000D01*
X180928000Y-82688000D01*
X181712000Y-82690942D01*
X181831189Y-82679203D01*
X181945797Y-82644437D01*
X182035447Y-82596518D01*
X182025019Y-82621694D01*
X182001000Y-82742443D01*
X182001000Y-82865557D01*
X182025019Y-82986306D01*
X182072132Y-83100048D01*
X182140531Y-83202414D01*
X182227586Y-83289469D01*
X182246000Y-83301773D01*
X182246001Y-87132227D01*
X182227586Y-87144531D01*
X182140531Y-87231586D01*
X182072132Y-87333952D01*
X182025019Y-87447694D01*
X182001000Y-87568443D01*
X182001000Y-87691557D01*
X182025019Y-87812306D01*
X182072132Y-87926048D01*
X182079149Y-87936549D01*
X182042500Y-87936549D01*
X181983690Y-87942341D01*
X181927140Y-87959496D01*
X181875023Y-87987353D01*
X181829342Y-88024842D01*
X181791853Y-88070523D01*
X181763996Y-88122640D01*
X181746841Y-88179190D01*
X181741049Y-88238000D01*
X181741049Y-90523653D01*
X177963002Y-86745607D01*
X177963002Y-83010090D01*
X177965178Y-82987998D01*
X177963002Y-82965906D01*
X177963002Y-82965894D01*
X177956491Y-82899784D01*
X177930759Y-82814958D01*
X177906612Y-82769782D01*
X177888973Y-82736782D01*
X177846830Y-82685431D01*
X177846826Y-82685427D01*
X177832739Y-82668262D01*
X177815574Y-82654175D01*
X177241399Y-82080000D01*
X178921058Y-82080000D01*
X178932797Y-82199189D01*
X178967563Y-82313797D01*
X179024020Y-82419421D01*
X179099999Y-82512001D01*
X179192579Y-82587980D01*
X179298203Y-82644437D01*
X179412811Y-82679203D01*
X179532000Y-82690942D01*
X180316000Y-82688000D01*
X180468000Y-82536000D01*
X180468000Y-81434000D01*
X179076000Y-81434000D01*
X178924000Y-81586000D01*
X178921058Y-82080000D01*
X177241399Y-82080000D01*
X175641399Y-80480000D01*
X178921058Y-80480000D01*
X178924000Y-80974000D01*
X179076000Y-81126000D01*
X180468000Y-81126000D01*
X180468000Y-80024000D01*
X180776000Y-80024000D01*
X180776000Y-81126000D01*
X182168000Y-81126000D01*
X182320000Y-80974000D01*
X182322942Y-80480000D01*
X182311203Y-80360811D01*
X182276437Y-80246203D01*
X182219980Y-80140579D01*
X182144001Y-80047999D01*
X182051421Y-79972020D01*
X181945797Y-79915563D01*
X181831189Y-79880797D01*
X181712000Y-79869058D01*
X180928000Y-79872000D01*
X180776000Y-80024000D01*
X180468000Y-80024000D01*
X180316000Y-79872000D01*
X179532000Y-79869058D01*
X179412811Y-79880797D01*
X179298203Y-79915563D01*
X179192579Y-79972020D01*
X179099999Y-80047999D01*
X179024020Y-80140579D01*
X178967563Y-80246203D01*
X178932797Y-80360811D01*
X178921058Y-80480000D01*
X175641399Y-80480000D01*
X174988831Y-79827433D01*
X174974739Y-79810262D01*
X174906218Y-79754028D01*
X174828043Y-79712242D01*
X174743217Y-79686510D01*
X174677107Y-79679999D01*
X174677096Y-79679999D01*
X174655002Y-79677823D01*
X174632908Y-79679999D01*
X169615884Y-79679999D01*
X169649469Y-79646414D01*
X169717868Y-79544048D01*
X169764981Y-79430306D01*
X169789000Y-79309557D01*
X169789000Y-79186443D01*
X169764981Y-79065694D01*
X169717868Y-78951952D01*
X169660437Y-78866000D01*
X171881227Y-78866000D01*
X171893531Y-78884414D01*
X171980586Y-78971469D01*
X172082952Y-79039868D01*
X172196694Y-79086981D01*
X172317443Y-79111000D01*
X172440557Y-79111000D01*
X172561306Y-79086981D01*
X172675048Y-79039868D01*
X172777414Y-78971469D01*
X172864469Y-78884414D01*
X172932868Y-78782048D01*
X172979981Y-78668306D01*
X173004000Y-78547557D01*
X173004000Y-78424443D01*
X172979981Y-78303694D01*
X172932868Y-78189952D01*
X172864469Y-78087586D01*
X172777414Y-78000531D01*
X172675048Y-77932132D01*
X172561306Y-77885019D01*
X172440557Y-77861000D01*
X172317443Y-77861000D01*
X172196694Y-77885019D01*
X172082952Y-77932132D01*
X171980586Y-78000531D01*
X171893531Y-78087586D01*
X171881227Y-78106000D01*
X169489937Y-78106000D01*
X169501216Y-78099971D01*
X169569737Y-78043737D01*
X169583829Y-78026566D01*
X170054944Y-77555451D01*
X171084050Y-77555451D01*
X171108814Y-77580215D01*
X171120710Y-77594710D01*
X171178572Y-77642197D01*
X171244587Y-77677482D01*
X171316217Y-77699211D01*
X171372049Y-77704710D01*
X171372056Y-77704710D01*
X171390710Y-77706547D01*
X171409364Y-77704710D01*
X173010796Y-77704710D01*
X173080579Y-77761980D01*
X173186203Y-77818437D01*
X173202400Y-77823350D01*
X174502155Y-79123106D01*
X174514051Y-79137601D01*
X174571913Y-79185088D01*
X174637928Y-79220373D01*
X174674147Y-79231360D01*
X174709557Y-79242102D01*
X174717220Y-79242857D01*
X174765390Y-79247601D01*
X174765396Y-79247601D01*
X174784050Y-79249438D01*
X174802704Y-79247601D01*
X184003746Y-79247601D01*
X184022399Y-79249438D01*
X184041052Y-79247601D01*
X184041060Y-79247601D01*
X184096892Y-79242102D01*
X184168522Y-79220373D01*
X184234537Y-79185088D01*
X184292399Y-79137601D01*
X184304299Y-79123101D01*
X184584297Y-78843104D01*
X184584301Y-78843099D01*
X184655418Y-78771982D01*
X184826590Y-78842883D01*
X185051395Y-78887600D01*
X185280605Y-78887600D01*
X185505410Y-78842883D01*
X185717171Y-78755169D01*
X185907752Y-78627827D01*
X186069827Y-78465752D01*
X186197169Y-78275171D01*
X186284883Y-78063410D01*
X186329600Y-77838605D01*
X186329600Y-77609395D01*
X186284883Y-77384590D01*
X186197169Y-77172829D01*
X186069827Y-76982248D01*
X185907752Y-76820173D01*
X185717171Y-76692831D01*
X185629291Y-76656430D01*
X186029600Y-76658542D01*
X186148789Y-76646803D01*
X186263397Y-76612037D01*
X186369021Y-76555580D01*
X186461601Y-76479601D01*
X186537580Y-76387021D01*
X186594037Y-76281397D01*
X186628803Y-76166789D01*
X186640542Y-76047600D01*
X186637600Y-75490000D01*
X186485600Y-75338000D01*
X186282000Y-75338000D01*
X186282000Y-75030000D01*
X186485600Y-75030000D01*
X186637600Y-74878000D01*
X186640542Y-74320400D01*
X186628803Y-74201211D01*
X186594037Y-74086603D01*
X186537580Y-73980979D01*
X186461601Y-73888399D01*
X186369021Y-73812420D01*
X186310238Y-73781000D01*
X186705000Y-73781000D01*
X186705000Y-88086806D01*
G36*
X133328500Y-84682000D02*
G01*
X133348500Y-84682000D01*
X133348500Y-84990000D01*
X133328500Y-84990000D01*
X133328500Y-85010000D01*
X133196000Y-85010000D01*
X133196000Y-84662000D01*
X133328500Y-84662000D01*
X133328500Y-84682000D01*
G37*
X133328500Y-84682000D02*
X133348500Y-84682000D01*
X133348500Y-84990000D01*
X133328500Y-84990000D01*
X133328500Y-85010000D01*
X133196000Y-85010000D01*
X133196000Y-84662000D01*
X133328500Y-84662000D01*
X133328500Y-84682000D01*
G36*
X135882676Y-79804572D02*
G01*
X135896763Y-79821737D01*
X135913928Y-79835824D01*
X135913932Y-79835828D01*
X135965283Y-79877971D01*
X136014382Y-79904215D01*
X136043459Y-79919757D01*
X136128285Y-79945489D01*
X136194395Y-79952000D01*
X136194405Y-79952000D01*
X136216500Y-79954176D01*
X136238594Y-79952000D01*
X137211549Y-79952000D01*
X137211549Y-79958250D01*
X137222025Y-80064613D01*
X137253050Y-80166889D01*
X137303432Y-80261147D01*
X137371235Y-80343765D01*
X137453853Y-80411568D01*
X137548111Y-80461950D01*
X137650387Y-80492975D01*
X137756750Y-80503451D01*
X138244250Y-80503451D01*
X138350613Y-80492975D01*
X138452889Y-80461950D01*
X138547147Y-80411568D01*
X138629765Y-80343765D01*
X138697568Y-80261147D01*
X138747950Y-80166889D01*
X138778061Y-80067625D01*
X138777058Y-80202000D01*
X138788797Y-80321189D01*
X138823563Y-80435797D01*
X138880020Y-80541421D01*
X138955999Y-80634001D01*
X138994990Y-80666000D01*
X137745154Y-80666000D01*
X137726500Y-80664163D01*
X137707846Y-80666000D01*
X137707839Y-80666000D01*
X137652007Y-80671499D01*
X137580377Y-80693228D01*
X137514362Y-80728513D01*
X137494043Y-80745189D01*
X137470994Y-80764104D01*
X137470989Y-80764109D01*
X137456500Y-80776000D01*
X137444609Y-80790489D01*
X137159994Y-81075105D01*
X137080613Y-81051025D01*
X136974250Y-81040549D01*
X136486750Y-81040549D01*
X136380387Y-81051025D01*
X136278111Y-81082050D01*
X136183853Y-81132432D01*
X136101235Y-81200235D01*
X136033432Y-81282853D01*
X135983050Y-81377111D01*
X135952025Y-81479387D01*
X135941549Y-81585750D01*
X135941549Y-82146000D01*
X135763451Y-82146000D01*
X135763451Y-81576000D01*
X135757659Y-81517190D01*
X135740504Y-81460640D01*
X135712647Y-81408523D01*
X135675158Y-81362842D01*
X135629477Y-81325353D01*
X135577360Y-81297496D01*
X135520810Y-81280341D01*
X135462000Y-81274549D01*
X134662000Y-81274549D01*
X134603190Y-81280341D01*
X134546640Y-81297496D01*
X134494523Y-81325353D01*
X134448842Y-81362842D01*
X134411353Y-81408523D01*
X134383496Y-81460640D01*
X134366341Y-81517190D01*
X134360549Y-81576000D01*
X134360549Y-83476000D01*
X134366341Y-83534810D01*
X134383496Y-83591360D01*
X134411353Y-83643477D01*
X134448842Y-83689158D01*
X134494523Y-83726647D01*
X134546640Y-83754504D01*
X134603190Y-83771659D01*
X134662000Y-83777451D01*
X135462000Y-83777451D01*
X135520810Y-83771659D01*
X135577360Y-83754504D01*
X135629477Y-83726647D01*
X135675158Y-83689158D01*
X135712647Y-83643477D01*
X135740504Y-83591360D01*
X135757659Y-83534810D01*
X135763451Y-83476000D01*
X135763451Y-82906000D01*
X136128328Y-82906000D01*
X136183853Y-82951568D01*
X136278111Y-83001950D01*
X136380387Y-83032975D01*
X136486750Y-83043451D01*
X136974250Y-83043451D01*
X137076743Y-83033356D01*
X135828758Y-84281341D01*
X135827975Y-84273387D01*
X135796950Y-84171111D01*
X135746568Y-84076853D01*
X135678765Y-83994235D01*
X135596147Y-83926432D01*
X135501889Y-83876050D01*
X135399613Y-83845025D01*
X135293250Y-83834549D01*
X134805750Y-83834549D01*
X134699387Y-83845025D01*
X134620006Y-83869105D01*
X133863451Y-83112551D01*
X133863451Y-81576000D01*
X133857659Y-81517190D01*
X133840504Y-81460640D01*
X133812647Y-81408523D01*
X133775158Y-81362842D01*
X133729477Y-81325353D01*
X133677360Y-81297496D01*
X133620810Y-81280341D01*
X133562000Y-81274549D01*
X132942000Y-81274549D01*
X132942000Y-80813422D01*
X133123837Y-80631585D01*
X133147563Y-80709797D01*
X133204020Y-80815421D01*
X133279999Y-80908001D01*
X133372579Y-80983980D01*
X133478203Y-81040437D01*
X133592811Y-81075203D01*
X133712000Y-81086942D01*
X133806000Y-81084000D01*
X133958000Y-80932000D01*
X133958000Y-80872000D01*
X134266000Y-80872000D01*
X134266000Y-80932000D01*
X134418000Y-81084000D01*
X134512000Y-81086942D01*
X134631189Y-81075203D01*
X134745797Y-81040437D01*
X134851421Y-80983980D01*
X134944001Y-80908001D01*
X135019980Y-80815421D01*
X135076437Y-80709797D01*
X135111203Y-80595189D01*
X135122942Y-80476000D01*
X135120000Y-79832000D01*
X134974000Y-79686000D01*
X134974000Y-79366000D01*
X135120000Y-79220000D01*
X135120810Y-79042705D01*
X135882676Y-79804572D01*
G37*
X135882676Y-79804572D02*
X135896763Y-79821737D01*
X135913928Y-79835824D01*
X135913932Y-79835828D01*
X135965283Y-79877971D01*
X136014382Y-79904215D01*
X136043459Y-79919757D01*
X136128285Y-79945489D01*
X136194395Y-79952000D01*
X136194405Y-79952000D01*
X136216500Y-79954176D01*
X136238594Y-79952000D01*
X137211549Y-79952000D01*
X137211549Y-79958250D01*
X137222025Y-80064613D01*
X137253050Y-80166889D01*
X137303432Y-80261147D01*
X137371235Y-80343765D01*
X137453853Y-80411568D01*
X137548111Y-80461950D01*
X137650387Y-80492975D01*
X137756750Y-80503451D01*
X138244250Y-80503451D01*
X138350613Y-80492975D01*
X138452889Y-80461950D01*
X138547147Y-80411568D01*
X138629765Y-80343765D01*
X138697568Y-80261147D01*
X138747950Y-80166889D01*
X138778061Y-80067625D01*
X138777058Y-80202000D01*
X138788797Y-80321189D01*
X138823563Y-80435797D01*
X138880020Y-80541421D01*
X138955999Y-80634001D01*
X138994990Y-80666000D01*
X137745154Y-80666000D01*
X137726500Y-80664163D01*
X137707846Y-80666000D01*
X137707839Y-80666000D01*
X137652007Y-80671499D01*
X137580377Y-80693228D01*
X137514362Y-80728513D01*
X137494043Y-80745189D01*
X137470994Y-80764104D01*
X137470989Y-80764109D01*
X137456500Y-80776000D01*
X137444609Y-80790489D01*
X137159994Y-81075105D01*
X137080613Y-81051025D01*
X136974250Y-81040549D01*
X136486750Y-81040549D01*
X136380387Y-81051025D01*
X136278111Y-81082050D01*
X136183853Y-81132432D01*
X136101235Y-81200235D01*
X136033432Y-81282853D01*
X135983050Y-81377111D01*
X135952025Y-81479387D01*
X135941549Y-81585750D01*
X135941549Y-82146000D01*
X135763451Y-82146000D01*
X135763451Y-81576000D01*
X135757659Y-81517190D01*
X135740504Y-81460640D01*
X135712647Y-81408523D01*
X135675158Y-81362842D01*
X135629477Y-81325353D01*
X135577360Y-81297496D01*
X135520810Y-81280341D01*
X135462000Y-81274549D01*
X134662000Y-81274549D01*
X134603190Y-81280341D01*
X134546640Y-81297496D01*
X134494523Y-81325353D01*
X134448842Y-81362842D01*
X134411353Y-81408523D01*
X134383496Y-81460640D01*
X134366341Y-81517190D01*
X134360549Y-81576000D01*
X134360549Y-83476000D01*
X134366341Y-83534810D01*
X134383496Y-83591360D01*
X134411353Y-83643477D01*
X134448842Y-83689158D01*
X134494523Y-83726647D01*
X134546640Y-83754504D01*
X134603190Y-83771659D01*
X134662000Y-83777451D01*
X135462000Y-83777451D01*
X135520810Y-83771659D01*
X135577360Y-83754504D01*
X135629477Y-83726647D01*
X135675158Y-83689158D01*
X135712647Y-83643477D01*
X135740504Y-83591360D01*
X135757659Y-83534810D01*
X135763451Y-83476000D01*
X135763451Y-82906000D01*
X136128328Y-82906000D01*
X136183853Y-82951568D01*
X136278111Y-83001950D01*
X136380387Y-83032975D01*
X136486750Y-83043451D01*
X136974250Y-83043451D01*
X137076743Y-83033356D01*
X135828758Y-84281341D01*
X135827975Y-84273387D01*
X135796950Y-84171111D01*
X135746568Y-84076853D01*
X135678765Y-83994235D01*
X135596147Y-83926432D01*
X135501889Y-83876050D01*
X135399613Y-83845025D01*
X135293250Y-83834549D01*
X134805750Y-83834549D01*
X134699387Y-83845025D01*
X134620006Y-83869105D01*
X133863451Y-83112551D01*
X133863451Y-81576000D01*
X133857659Y-81517190D01*
X133840504Y-81460640D01*
X133812647Y-81408523D01*
X133775158Y-81362842D01*
X133729477Y-81325353D01*
X133677360Y-81297496D01*
X133620810Y-81280341D01*
X133562000Y-81274549D01*
X132942000Y-81274549D01*
X132942000Y-80813422D01*
X133123837Y-80631585D01*
X133147563Y-80709797D01*
X133204020Y-80815421D01*
X133279999Y-80908001D01*
X133372579Y-80983980D01*
X133478203Y-81040437D01*
X133592811Y-81075203D01*
X133712000Y-81086942D01*
X133806000Y-81084000D01*
X133958000Y-80932000D01*
X133958000Y-80872000D01*
X134266000Y-80872000D01*
X134266000Y-80932000D01*
X134418000Y-81084000D01*
X134512000Y-81086942D01*
X134631189Y-81075203D01*
X134745797Y-81040437D01*
X134851421Y-80983980D01*
X134944001Y-80908001D01*
X135019980Y-80815421D01*
X135076437Y-80709797D01*
X135111203Y-80595189D01*
X135122942Y-80476000D01*
X135120000Y-79832000D01*
X134974000Y-79686000D01*
X134974000Y-79366000D01*
X135120000Y-79220000D01*
X135120810Y-79042705D01*
X135882676Y-79804572D01*
G36*
X165452549Y-79764000D02*
G01*
X165452549Y-80764000D01*
X165458341Y-80822810D01*
X165475496Y-80879360D01*
X165503353Y-80931477D01*
X165540842Y-80977158D01*
X165586523Y-81014647D01*
X165638640Y-81042504D01*
X165695190Y-81059659D01*
X165754000Y-81065451D01*
X168264000Y-81065451D01*
X168322810Y-81059659D01*
X168379360Y-81042504D01*
X168431477Y-81014647D01*
X168477158Y-80977158D01*
X168514647Y-80931477D01*
X168542504Y-80879360D01*
X168559659Y-80822810D01*
X168565451Y-80764000D01*
X168565451Y-80716033D01*
X168586094Y-80714000D01*
X168586105Y-80714000D01*
X168652215Y-80707489D01*
X168737041Y-80681757D01*
X168815216Y-80639971D01*
X168883737Y-80583737D01*
X168886805Y-80579999D01*
X170030549Y-80579999D01*
X170030549Y-82080000D01*
X170036341Y-82138810D01*
X170053496Y-82195360D01*
X170081353Y-82247477D01*
X170118842Y-82293158D01*
X170164523Y-82330647D01*
X170216640Y-82358504D01*
X170273190Y-82375659D01*
X170332000Y-82381451D01*
X170743149Y-82381451D01*
X170700600Y-82424000D01*
X169874451Y-82424000D01*
X169874451Y-82347750D01*
X169863975Y-82241387D01*
X169832950Y-82139111D01*
X169782568Y-82044853D01*
X169714765Y-81962235D01*
X169632147Y-81894432D01*
X169537889Y-81844050D01*
X169435613Y-81813025D01*
X169329250Y-81802549D01*
X168841750Y-81802549D01*
X168735387Y-81813025D01*
X168656005Y-81837105D01*
X168387390Y-81568490D01*
X168375490Y-81553990D01*
X168317628Y-81506503D01*
X168251613Y-81471218D01*
X168179983Y-81449489D01*
X168124151Y-81443990D01*
X168124143Y-81443990D01*
X168105490Y-81442153D01*
X168086837Y-81443990D01*
X166020163Y-81443990D01*
X166001509Y-81442153D01*
X165982855Y-81443990D01*
X165982849Y-81443990D01*
X165934815Y-81448721D01*
X165927016Y-81449489D01*
X165905365Y-81456057D01*
X165855387Y-81471218D01*
X165789372Y-81506503D01*
X165731510Y-81553990D01*
X165725000Y-81561922D01*
X165725000Y-81472443D01*
X165700981Y-81351694D01*
X165653868Y-81237952D01*
X165585469Y-81135586D01*
X165498414Y-81048531D01*
X165396048Y-80980132D01*
X165282306Y-80933019D01*
X165161557Y-80909000D01*
X165038443Y-80909000D01*
X164917694Y-80933019D01*
X164803952Y-80980132D01*
X164701586Y-81048531D01*
X164614531Y-81135586D01*
X164546132Y-81237952D01*
X164499019Y-81351694D01*
X164475000Y-81472443D01*
X164475000Y-81595557D01*
X164499019Y-81716306D01*
X164546132Y-81830048D01*
X164559073Y-81849415D01*
X164474853Y-81894432D01*
X164392235Y-81962235D01*
X164324432Y-82044853D01*
X164274050Y-82139111D01*
X164243025Y-82241387D01*
X164232549Y-82347750D01*
X164232549Y-83253653D01*
X163935451Y-82956556D01*
X163935451Y-82347750D01*
X163924975Y-82241387D01*
X163893950Y-82139111D01*
X163843568Y-82044853D01*
X163775765Y-81962235D01*
X163693147Y-81894432D01*
X163598889Y-81844050D01*
X163496613Y-81813025D01*
X163390250Y-81802549D01*
X162902750Y-81802549D01*
X162843133Y-81808421D01*
X162843203Y-81808189D01*
X162854942Y-81689000D01*
X162852000Y-81507500D01*
X162700000Y-81355500D01*
X161698000Y-81355500D01*
X161698000Y-81375500D01*
X161390000Y-81375500D01*
X161390000Y-81355500D01*
X161370000Y-81355500D01*
X161370000Y-81047500D01*
X161390000Y-81047500D01*
X161390000Y-81027500D01*
X161698000Y-81027500D01*
X161698000Y-81047500D01*
X162700000Y-81047500D01*
X162852000Y-80895500D01*
X162854942Y-80714000D01*
X162843203Y-80594811D01*
X162808437Y-80480203D01*
X162751980Y-80374579D01*
X162676001Y-80281999D01*
X162583421Y-80206020D01*
X162477797Y-80149563D01*
X162363189Y-80114797D01*
X162244000Y-80103058D01*
X162109625Y-80104061D01*
X162208889Y-80073950D01*
X162303147Y-80023568D01*
X162385765Y-79955765D01*
X162453568Y-79873147D01*
X162503950Y-79778889D01*
X162525909Y-79706500D01*
X165458212Y-79706500D01*
X165452549Y-79764000D01*
G37*
X165452549Y-79764000D02*
X165452549Y-80764000D01*
X165458341Y-80822810D01*
X165475496Y-80879360D01*
X165503353Y-80931477D01*
X165540842Y-80977158D01*
X165586523Y-81014647D01*
X165638640Y-81042504D01*
X165695190Y-81059659D01*
X165754000Y-81065451D01*
X168264000Y-81065451D01*
X168322810Y-81059659D01*
X168379360Y-81042504D01*
X168431477Y-81014647D01*
X168477158Y-80977158D01*
X168514647Y-80931477D01*
X168542504Y-80879360D01*
X168559659Y-80822810D01*
X168565451Y-80764000D01*
X168565451Y-80716033D01*
X168586094Y-80714000D01*
X168586105Y-80714000D01*
X168652215Y-80707489D01*
X168737041Y-80681757D01*
X168815216Y-80639971D01*
X168883737Y-80583737D01*
X168886805Y-80579999D01*
X170030549Y-80579999D01*
X170030549Y-82080000D01*
X170036341Y-82138810D01*
X170053496Y-82195360D01*
X170081353Y-82247477D01*
X170118842Y-82293158D01*
X170164523Y-82330647D01*
X170216640Y-82358504D01*
X170273190Y-82375659D01*
X170332000Y-82381451D01*
X170743149Y-82381451D01*
X170700600Y-82424000D01*
X169874451Y-82424000D01*
X169874451Y-82347750D01*
X169863975Y-82241387D01*
X169832950Y-82139111D01*
X169782568Y-82044853D01*
X169714765Y-81962235D01*
X169632147Y-81894432D01*
X169537889Y-81844050D01*
X169435613Y-81813025D01*
X169329250Y-81802549D01*
X168841750Y-81802549D01*
X168735387Y-81813025D01*
X168656005Y-81837105D01*
X168387390Y-81568490D01*
X168375490Y-81553990D01*
X168317628Y-81506503D01*
X168251613Y-81471218D01*
X168179983Y-81449489D01*
X168124151Y-81443990D01*
X168124143Y-81443990D01*
X168105490Y-81442153D01*
X168086837Y-81443990D01*
X166020163Y-81443990D01*
X166001509Y-81442153D01*
X165982855Y-81443990D01*
X165982849Y-81443990D01*
X165934815Y-81448721D01*
X165927016Y-81449489D01*
X165905365Y-81456057D01*
X165855387Y-81471218D01*
X165789372Y-81506503D01*
X165731510Y-81553990D01*
X165725000Y-81561922D01*
X165725000Y-81472443D01*
X165700981Y-81351694D01*
X165653868Y-81237952D01*
X165585469Y-81135586D01*
X165498414Y-81048531D01*
X165396048Y-80980132D01*
X165282306Y-80933019D01*
X165161557Y-80909000D01*
X165038443Y-80909000D01*
X164917694Y-80933019D01*
X164803952Y-80980132D01*
X164701586Y-81048531D01*
X164614531Y-81135586D01*
X164546132Y-81237952D01*
X164499019Y-81351694D01*
X164475000Y-81472443D01*
X164475000Y-81595557D01*
X164499019Y-81716306D01*
X164546132Y-81830048D01*
X164559073Y-81849415D01*
X164474853Y-81894432D01*
X164392235Y-81962235D01*
X164324432Y-82044853D01*
X164274050Y-82139111D01*
X164243025Y-82241387D01*
X164232549Y-82347750D01*
X164232549Y-83253653D01*
X163935451Y-82956556D01*
X163935451Y-82347750D01*
X163924975Y-82241387D01*
X163893950Y-82139111D01*
X163843568Y-82044853D01*
X163775765Y-81962235D01*
X163693147Y-81894432D01*
X163598889Y-81844050D01*
X163496613Y-81813025D01*
X163390250Y-81802549D01*
X162902750Y-81802549D01*
X162843133Y-81808421D01*
X162843203Y-81808189D01*
X162854942Y-81689000D01*
X162852000Y-81507500D01*
X162700000Y-81355500D01*
X161698000Y-81355500D01*
X161698000Y-81375500D01*
X161390000Y-81375500D01*
X161390000Y-81355500D01*
X161370000Y-81355500D01*
X161370000Y-81047500D01*
X161390000Y-81047500D01*
X161390000Y-81027500D01*
X161698000Y-81027500D01*
X161698000Y-81047500D01*
X162700000Y-81047500D01*
X162852000Y-80895500D01*
X162854942Y-80714000D01*
X162843203Y-80594811D01*
X162808437Y-80480203D01*
X162751980Y-80374579D01*
X162676001Y-80281999D01*
X162583421Y-80206020D01*
X162477797Y-80149563D01*
X162363189Y-80114797D01*
X162244000Y-80103058D01*
X162109625Y-80104061D01*
X162208889Y-80073950D01*
X162303147Y-80023568D01*
X162385765Y-79955765D01*
X162453568Y-79873147D01*
X162503950Y-79778889D01*
X162525909Y-79706500D01*
X165458212Y-79706500D01*
X165452549Y-79764000D01*
G36*
X183962979Y-73812420D02*
G01*
X183961054Y-73814000D01*
X176276000Y-73814000D01*
X176256491Y-73815921D01*
X176237732Y-73821612D01*
X176220443Y-73830853D01*
X176205289Y-73843289D01*
X174766000Y-75282578D01*
X174766000Y-75198000D01*
X174614000Y-75046000D01*
X173420000Y-75043058D01*
X173300811Y-75054797D01*
X173186203Y-75089563D01*
X173080579Y-75146020D01*
X172987999Y-75221999D01*
X172912020Y-75314579D01*
X172855563Y-75420203D01*
X172820797Y-75534811D01*
X172809058Y-75654000D01*
X172812000Y-76148000D01*
X172964000Y-76300000D01*
X174766000Y-76300000D01*
X174766000Y-75792000D01*
X175074000Y-75792000D01*
X175074000Y-76300000D01*
X176876000Y-76300000D01*
X176974449Y-76201551D01*
X176994829Y-76215169D01*
X177206590Y-76302883D01*
X177431395Y-76347600D01*
X177660605Y-76347600D01*
X177885410Y-76302883D01*
X178097171Y-76215169D01*
X178287752Y-76087827D01*
X178449827Y-75925752D01*
X178577169Y-75735171D01*
X178664883Y-75523410D01*
X178709600Y-75298605D01*
X178709600Y-75069395D01*
X178664883Y-74844590D01*
X178577169Y-74632829D01*
X178503116Y-74522000D01*
X179128884Y-74522000D01*
X179054831Y-74632829D01*
X178967117Y-74844590D01*
X178922400Y-75069395D01*
X178922400Y-75298605D01*
X178967117Y-75523410D01*
X179054831Y-75735171D01*
X179182173Y-75925752D01*
X179344248Y-76087827D01*
X179534829Y-76215169D01*
X179746590Y-76302883D01*
X179971395Y-76347600D01*
X180200605Y-76347600D01*
X180425410Y-76302883D01*
X180637171Y-76215169D01*
X180827752Y-76087827D01*
X180989827Y-75925752D01*
X181117169Y-75735171D01*
X181204883Y-75523410D01*
X181249600Y-75298605D01*
X181249600Y-75069395D01*
X181204883Y-74844590D01*
X181117169Y-74632829D01*
X181043116Y-74522000D01*
X181668884Y-74522000D01*
X181594831Y-74632829D01*
X181507117Y-74844590D01*
X181462400Y-75069395D01*
X181462400Y-75298605D01*
X181507117Y-75523410D01*
X181594831Y-75735171D01*
X181722173Y-75925752D01*
X181884248Y-76087827D01*
X182074829Y-76215169D01*
X182286590Y-76302883D01*
X182511395Y-76347600D01*
X182740605Y-76347600D01*
X182965410Y-76302883D01*
X183177171Y-76215169D01*
X183367752Y-76087827D01*
X183529827Y-75925752D01*
X183657169Y-75735171D01*
X183693570Y-75647291D01*
X183691458Y-76047600D01*
X183703197Y-76166789D01*
X183737963Y-76281397D01*
X183794420Y-76387021D01*
X183870399Y-76479601D01*
X183962979Y-76555580D01*
X184068603Y-76612037D01*
X184183211Y-76646803D01*
X184302400Y-76658542D01*
X184702709Y-76656430D01*
X184614829Y-76692831D01*
X184424248Y-76820173D01*
X184262173Y-76982248D01*
X184134831Y-77172829D01*
X184047117Y-77384590D01*
X184002400Y-77609395D01*
X184002400Y-77838605D01*
X184047117Y-78063410D01*
X184118018Y-78234582D01*
X184046901Y-78305699D01*
X184046896Y-78305703D01*
X183864999Y-78487601D01*
X183507978Y-78487601D01*
X183529827Y-78465752D01*
X183657169Y-78275171D01*
X183744883Y-78063410D01*
X183789600Y-77838605D01*
X183789600Y-77609395D01*
X183744883Y-77384590D01*
X183657169Y-77172829D01*
X183529827Y-76982248D01*
X183367752Y-76820173D01*
X183177171Y-76692831D01*
X182965410Y-76605117D01*
X182740605Y-76560400D01*
X182511395Y-76560400D01*
X182286590Y-76605117D01*
X182074829Y-76692831D01*
X181884248Y-76820173D01*
X181722173Y-76982248D01*
X181594831Y-77172829D01*
X181507117Y-77384590D01*
X181462400Y-77609395D01*
X181462400Y-77838605D01*
X181507117Y-78063410D01*
X181594831Y-78275171D01*
X181722173Y-78465752D01*
X181744022Y-78487601D01*
X180967978Y-78487601D01*
X180989827Y-78465752D01*
X181117169Y-78275171D01*
X181204883Y-78063410D01*
X181249600Y-77838605D01*
X181249600Y-77609395D01*
X181204883Y-77384590D01*
X181117169Y-77172829D01*
X180989827Y-76982248D01*
X180827752Y-76820173D01*
X180637171Y-76692831D01*
X180425410Y-76605117D01*
X180200605Y-76560400D01*
X179971395Y-76560400D01*
X179746590Y-76605117D01*
X179534829Y-76692831D01*
X179344248Y-76820173D01*
X179182173Y-76982248D01*
X179054831Y-77172829D01*
X178967117Y-77384590D01*
X178922400Y-77609395D01*
X178922400Y-77838605D01*
X178967117Y-78063410D01*
X179054831Y-78275171D01*
X179182173Y-78465752D01*
X179204022Y-78487601D01*
X178427978Y-78487601D01*
X178449827Y-78465752D01*
X178577169Y-78275171D01*
X178664883Y-78063410D01*
X178709600Y-77838605D01*
X178709600Y-77609395D01*
X178664883Y-77384590D01*
X178577169Y-77172829D01*
X178449827Y-76982248D01*
X178287752Y-76820173D01*
X178097171Y-76692831D01*
X177885410Y-76605117D01*
X177660605Y-76560400D01*
X177431395Y-76560400D01*
X177206590Y-76605117D01*
X176994829Y-76692831D01*
X176974449Y-76706449D01*
X176876000Y-76608000D01*
X175074000Y-76608000D01*
X175074000Y-77710000D01*
X175226000Y-77862000D01*
X176387623Y-77864862D01*
X176427117Y-78063410D01*
X176514831Y-78275171D01*
X176642173Y-78465752D01*
X176664022Y-78487601D01*
X174941452Y-78487601D01*
X174316583Y-77862733D01*
X174614000Y-77862000D01*
X174766000Y-77710000D01*
X174766000Y-76608000D01*
X172964000Y-76608000D01*
X172812000Y-76760000D01*
X172810900Y-76944710D01*
X172321451Y-76944710D01*
X172321451Y-75904000D01*
X172310855Y-75796417D01*
X172279474Y-75692969D01*
X172228515Y-75597630D01*
X172159935Y-75514065D01*
X172107010Y-75470631D01*
X172121757Y-75443041D01*
X172133838Y-75403215D01*
X172142186Y-75375697D01*
X172189469Y-75328414D01*
X172257868Y-75226048D01*
X172304981Y-75112306D01*
X172329000Y-74991557D01*
X172329000Y-74868443D01*
X172304981Y-74747694D01*
X172257868Y-74633952D01*
X172189469Y-74531586D01*
X172102414Y-74444531D01*
X172000048Y-74376132D01*
X171886306Y-74329019D01*
X171765557Y-74305000D01*
X171642443Y-74305000D01*
X171521694Y-74329019D01*
X171407952Y-74376132D01*
X171305586Y-74444531D01*
X171218531Y-74531586D01*
X171150132Y-74633952D01*
X171103019Y-74747694D01*
X171079000Y-74868443D01*
X171079000Y-74991557D01*
X171103019Y-75112306D01*
X171138833Y-75198771D01*
X170985055Y-75352549D01*
X169270000Y-75352549D01*
X169162417Y-75363145D01*
X169058969Y-75394526D01*
X168963630Y-75445485D01*
X168880065Y-75514065D01*
X168811485Y-75597630D01*
X168760526Y-75692969D01*
X168729145Y-75796417D01*
X168718549Y-75904000D01*
X168718549Y-77004000D01*
X168729145Y-77111583D01*
X168760526Y-77215031D01*
X168792045Y-77274000D01*
X165255451Y-77274000D01*
X165255451Y-77224000D01*
X165249659Y-77165190D01*
X165232504Y-77108640D01*
X165204647Y-77056523D01*
X165167158Y-77010842D01*
X165121477Y-76973353D01*
X165069360Y-76945496D01*
X165012810Y-76928341D01*
X164954000Y-76922549D01*
X162444000Y-76922549D01*
X162385190Y-76928341D01*
X162328640Y-76945496D01*
X162276523Y-76973353D01*
X162230842Y-77010842D01*
X162193353Y-77056523D01*
X162165496Y-77108640D01*
X162148341Y-77165190D01*
X162142549Y-77224000D01*
X162142549Y-78124001D01*
X160944442Y-78124001D01*
X160925788Y-78122164D01*
X160907134Y-78124001D01*
X160907128Y-78124001D01*
X160858958Y-78128745D01*
X160851295Y-78129500D01*
X160829566Y-78136092D01*
X160779666Y-78151229D01*
X160713651Y-78186514D01*
X160655789Y-78234001D01*
X160643893Y-78248496D01*
X159945890Y-78946500D01*
X158715909Y-78946500D01*
X158693950Y-78874111D01*
X158643568Y-78779853D01*
X158575765Y-78697235D01*
X158493147Y-78629432D01*
X158398889Y-78579050D01*
X158296613Y-78548025D01*
X158190250Y-78537549D01*
X157277750Y-78537549D01*
X157171387Y-78548025D01*
X157069111Y-78579050D01*
X156974853Y-78629432D01*
X156892235Y-78697235D01*
X156824432Y-78779853D01*
X156774050Y-78874111D01*
X156743025Y-78976387D01*
X156732549Y-79082750D01*
X156732549Y-79570250D01*
X156743025Y-79676613D01*
X156774050Y-79778889D01*
X156824432Y-79873147D01*
X156892235Y-79955765D01*
X156974853Y-80023568D01*
X157069111Y-80073950D01*
X157171387Y-80104975D01*
X157277750Y-80115451D01*
X158190250Y-80115451D01*
X158296613Y-80104975D01*
X158398889Y-80073950D01*
X158493147Y-80023568D01*
X158575765Y-79955765D01*
X158643568Y-79873147D01*
X158693950Y-79778889D01*
X158715909Y-79706500D01*
X160084637Y-79706500D01*
X160103290Y-79708337D01*
X160121943Y-79706500D01*
X160121951Y-79706500D01*
X160177783Y-79701001D01*
X160249413Y-79679272D01*
X160315428Y-79643987D01*
X160373290Y-79596500D01*
X160385190Y-79582000D01*
X160542549Y-79424641D01*
X160542549Y-79570250D01*
X160553025Y-79676613D01*
X160584050Y-79778889D01*
X160634432Y-79873147D01*
X160702235Y-79955765D01*
X160784853Y-80023568D01*
X160879111Y-80073950D01*
X160978375Y-80104061D01*
X160844000Y-80103058D01*
X160724811Y-80114797D01*
X160610203Y-80149563D01*
X160504579Y-80206020D01*
X160411999Y-80281999D01*
X160336020Y-80374579D01*
X160279563Y-80480203D01*
X160244797Y-80594811D01*
X160233058Y-80714000D01*
X160236000Y-80895500D01*
X160387998Y-81047498D01*
X160236000Y-81047498D01*
X160236000Y-81182517D01*
X160001895Y-81222945D01*
X159750034Y-81319868D01*
X159688505Y-81352756D01*
X159617825Y-81582037D01*
X160368000Y-82332211D01*
X160382142Y-82318069D01*
X160599931Y-82535858D01*
X160585789Y-82550000D01*
X160599931Y-82564142D01*
X160382142Y-82781931D01*
X160368000Y-82767789D01*
X160353858Y-82781931D01*
X160136069Y-82564142D01*
X160150211Y-82550000D01*
X159400037Y-81799825D01*
X159170756Y-81870505D01*
X159061197Y-82117132D01*
X159001859Y-82380394D01*
X158995021Y-82650174D01*
X159040945Y-82916105D01*
X159137868Y-83167966D01*
X159161405Y-83212001D01*
X157841897Y-83212001D01*
X157509328Y-82879433D01*
X157551694Y-82896981D01*
X157672443Y-82921000D01*
X157795557Y-82921000D01*
X157916306Y-82896981D01*
X158030048Y-82849868D01*
X158132414Y-82781469D01*
X158219469Y-82694414D01*
X158287868Y-82592048D01*
X158334981Y-82478306D01*
X158359000Y-82357557D01*
X158359000Y-82234443D01*
X158334981Y-82113694D01*
X158287868Y-81999952D01*
X158275884Y-81982017D01*
X158296613Y-81979975D01*
X158398889Y-81948950D01*
X158493147Y-81898568D01*
X158575765Y-81830765D01*
X158643568Y-81748147D01*
X158693950Y-81653889D01*
X158724975Y-81551613D01*
X158735451Y-81445250D01*
X158735451Y-80957750D01*
X158724975Y-80851387D01*
X158693950Y-80749111D01*
X158643568Y-80654853D01*
X158575765Y-80572235D01*
X158493147Y-80504432D01*
X158398889Y-80454050D01*
X158296613Y-80423025D01*
X158190250Y-80412549D01*
X157277750Y-80412549D01*
X157171387Y-80423025D01*
X157069111Y-80454050D01*
X156974853Y-80504432D01*
X156892235Y-80572235D01*
X156824432Y-80654853D01*
X156774050Y-80749111D01*
X156743025Y-80851387D01*
X156732549Y-80957750D01*
X156732549Y-81445250D01*
X156743025Y-81551613D01*
X156774050Y-81653889D01*
X156824432Y-81748147D01*
X156892235Y-81830765D01*
X156974853Y-81898568D01*
X157069111Y-81948950D01*
X157171387Y-81979975D01*
X157192116Y-81982017D01*
X157180132Y-81999952D01*
X157133019Y-82113694D01*
X157109000Y-82234443D01*
X157109000Y-82357557D01*
X157133019Y-82478306D01*
X157150567Y-82520672D01*
X156877327Y-82247432D01*
X156863237Y-82230263D01*
X156794716Y-82174029D01*
X156744951Y-82147429D01*
X156744951Y-82093750D01*
X156734475Y-81987387D01*
X156703450Y-81885111D01*
X156653068Y-81790853D01*
X156585265Y-81708235D01*
X156502647Y-81640432D01*
X156408389Y-81590050D01*
X156374409Y-81579742D01*
X156376878Y-81576048D01*
X156423991Y-81462306D01*
X156448010Y-81341557D01*
X156448010Y-81218443D01*
X156423991Y-81097694D01*
X156376878Y-80983952D01*
X156308479Y-80881586D01*
X156304197Y-80877304D01*
X156319647Y-80858477D01*
X156347504Y-80806360D01*
X156364659Y-80749810D01*
X156370451Y-80691000D01*
X156370451Y-78041000D01*
X156364659Y-77982190D01*
X156347504Y-77925640D01*
X156319647Y-77873523D01*
X156282158Y-77827842D01*
X156236477Y-77790353D01*
X156184360Y-77762496D01*
X156127810Y-77745341D01*
X156069000Y-77739549D01*
X154319000Y-77739549D01*
X154260190Y-77745341D01*
X154203640Y-77762496D01*
X154151523Y-77790353D01*
X154105842Y-77827842D01*
X154068353Y-77873523D01*
X154040496Y-77925640D01*
X154023341Y-77982190D01*
X154017549Y-78041000D01*
X154017549Y-80465339D01*
X153936517Y-80449220D01*
X153813403Y-80449220D01*
X153697794Y-80472217D01*
X153696000Y-80232000D01*
X153544000Y-80080000D01*
X152742000Y-80080000D01*
X152742000Y-80100000D01*
X152434000Y-80100000D01*
X152434000Y-80080000D01*
X152414000Y-80080000D01*
X152414000Y-79772000D01*
X152434000Y-79772000D01*
X152434000Y-79752000D01*
X152742000Y-79752000D01*
X152742000Y-79772000D01*
X153544000Y-79772000D01*
X153696000Y-79620000D01*
X153698942Y-79226000D01*
X153687203Y-79106811D01*
X153652437Y-78992203D01*
X153595980Y-78886579D01*
X153520001Y-78793999D01*
X153427421Y-78718020D01*
X153321797Y-78661563D01*
X153310704Y-78658198D01*
X153315477Y-78655647D01*
X153361158Y-78618158D01*
X153398647Y-78572477D01*
X153426504Y-78520360D01*
X153443659Y-78463810D01*
X153449451Y-78405000D01*
X153449451Y-77896944D01*
X154653945Y-76692451D01*
X156069000Y-76692451D01*
X156127810Y-76686659D01*
X156184360Y-76669504D01*
X156236477Y-76641647D01*
X156282158Y-76604158D01*
X156319647Y-76558477D01*
X156347504Y-76506360D01*
X156364659Y-76449810D01*
X156370451Y-76391000D01*
X156370451Y-76047338D01*
X158030000Y-76047338D01*
X158030000Y-76352662D01*
X158089565Y-76652118D01*
X158206408Y-76934200D01*
X158376036Y-77188068D01*
X158591932Y-77403964D01*
X158845800Y-77573592D01*
X159127882Y-77690435D01*
X159427338Y-77750000D01*
X159732662Y-77750000D01*
X160032118Y-77690435D01*
X160314200Y-77573592D01*
X160568068Y-77403964D01*
X160783964Y-77188068D01*
X160953592Y-76934200D01*
X161070435Y-76652118D01*
X161130000Y-76352662D01*
X161130000Y-76047338D01*
X161070435Y-75747882D01*
X160953592Y-75465800D01*
X160783964Y-75211932D01*
X160568068Y-74996036D01*
X160314200Y-74826408D01*
X160032118Y-74709565D01*
X159903593Y-74684000D01*
X165452549Y-74684000D01*
X165452549Y-75684000D01*
X165458341Y-75742810D01*
X165475496Y-75799360D01*
X165503353Y-75851477D01*
X165540842Y-75897158D01*
X165586523Y-75934647D01*
X165638640Y-75962504D01*
X165695190Y-75979659D01*
X165754000Y-75985451D01*
X166428000Y-75985451D01*
X166428000Y-76020117D01*
X166392531Y-76055586D01*
X166324132Y-76157952D01*
X166277019Y-76271694D01*
X166253000Y-76392443D01*
X166253000Y-76515557D01*
X166277019Y-76636306D01*
X166324132Y-76750048D01*
X166392531Y-76852414D01*
X166479586Y-76939469D01*
X166581952Y-77007868D01*
X166695694Y-77054981D01*
X166816443Y-77079000D01*
X166939557Y-77079000D01*
X167060306Y-77054981D01*
X167174048Y-77007868D01*
X167276414Y-76939469D01*
X167363469Y-76852414D01*
X167431868Y-76750048D01*
X167478981Y-76636306D01*
X167503000Y-76515557D01*
X167503000Y-76392443D01*
X167478981Y-76271694D01*
X167431868Y-76157952D01*
X167363469Y-76055586D01*
X167328000Y-76020117D01*
X167328000Y-75985451D01*
X168264000Y-75985451D01*
X168322810Y-75979659D01*
X168379360Y-75962504D01*
X168431477Y-75934647D01*
X168477158Y-75897158D01*
X168514647Y-75851477D01*
X168542504Y-75799360D01*
X168559659Y-75742810D01*
X168565451Y-75684000D01*
X168565451Y-74684000D01*
X168559659Y-74625190D01*
X168542504Y-74568640D01*
X168514647Y-74516523D01*
X168477158Y-74470842D01*
X168431477Y-74433353D01*
X168379360Y-74405496D01*
X168322810Y-74388341D01*
X168264000Y-74382549D01*
X165754000Y-74382549D01*
X165695190Y-74388341D01*
X165638640Y-74405496D01*
X165586523Y-74433353D01*
X165540842Y-74470842D01*
X165503353Y-74516523D01*
X165475496Y-74568640D01*
X165458341Y-74625190D01*
X165452549Y-74684000D01*
X159903593Y-74684000D01*
X159732662Y-74650000D01*
X159427338Y-74650000D01*
X159127882Y-74709565D01*
X158845800Y-74826408D01*
X158591932Y-74996036D01*
X158376036Y-75211932D01*
X158206408Y-75465800D01*
X158089565Y-75747882D01*
X158030000Y-76047338D01*
X156370451Y-76047338D01*
X156370451Y-73781000D01*
X184021762Y-73781000D01*
X183962979Y-73812420D01*
G37*
X183962979Y-73812420D02*
X183961054Y-73814000D01*
X176276000Y-73814000D01*
X176256491Y-73815921D01*
X176237732Y-73821612D01*
X176220443Y-73830853D01*
X176205289Y-73843289D01*
X174766000Y-75282578D01*
X174766000Y-75198000D01*
X174614000Y-75046000D01*
X173420000Y-75043058D01*
X173300811Y-75054797D01*
X173186203Y-75089563D01*
X173080579Y-75146020D01*
X172987999Y-75221999D01*
X172912020Y-75314579D01*
X172855563Y-75420203D01*
X172820797Y-75534811D01*
X172809058Y-75654000D01*
X172812000Y-76148000D01*
X172964000Y-76300000D01*
X174766000Y-76300000D01*
X174766000Y-75792000D01*
X175074000Y-75792000D01*
X175074000Y-76300000D01*
X176876000Y-76300000D01*
X176974449Y-76201551D01*
X176994829Y-76215169D01*
X177206590Y-76302883D01*
X177431395Y-76347600D01*
X177660605Y-76347600D01*
X177885410Y-76302883D01*
X178097171Y-76215169D01*
X178287752Y-76087827D01*
X178449827Y-75925752D01*
X178577169Y-75735171D01*
X178664883Y-75523410D01*
X178709600Y-75298605D01*
X178709600Y-75069395D01*
X178664883Y-74844590D01*
X178577169Y-74632829D01*
X178503116Y-74522000D01*
X179128884Y-74522000D01*
X179054831Y-74632829D01*
X178967117Y-74844590D01*
X178922400Y-75069395D01*
X178922400Y-75298605D01*
X178967117Y-75523410D01*
X179054831Y-75735171D01*
X179182173Y-75925752D01*
X179344248Y-76087827D01*
X179534829Y-76215169D01*
X179746590Y-76302883D01*
X179971395Y-76347600D01*
X180200605Y-76347600D01*
X180425410Y-76302883D01*
X180637171Y-76215169D01*
X180827752Y-76087827D01*
X180989827Y-75925752D01*
X181117169Y-75735171D01*
X181204883Y-75523410D01*
X181249600Y-75298605D01*
X181249600Y-75069395D01*
X181204883Y-74844590D01*
X181117169Y-74632829D01*
X181043116Y-74522000D01*
X181668884Y-74522000D01*
X181594831Y-74632829D01*
X181507117Y-74844590D01*
X181462400Y-75069395D01*
X181462400Y-75298605D01*
X181507117Y-75523410D01*
X181594831Y-75735171D01*
X181722173Y-75925752D01*
X181884248Y-76087827D01*
X182074829Y-76215169D01*
X182286590Y-76302883D01*
X182511395Y-76347600D01*
X182740605Y-76347600D01*
X182965410Y-76302883D01*
X183177171Y-76215169D01*
X183367752Y-76087827D01*
X183529827Y-75925752D01*
X183657169Y-75735171D01*
X183693570Y-75647291D01*
X183691458Y-76047600D01*
X183703197Y-76166789D01*
X183737963Y-76281397D01*
X183794420Y-76387021D01*
X183870399Y-76479601D01*
X183962979Y-76555580D01*
X184068603Y-76612037D01*
X184183211Y-76646803D01*
X184302400Y-76658542D01*
X184702709Y-76656430D01*
X184614829Y-76692831D01*
X184424248Y-76820173D01*
X184262173Y-76982248D01*
X184134831Y-77172829D01*
X184047117Y-77384590D01*
X184002400Y-77609395D01*
X184002400Y-77838605D01*
X184047117Y-78063410D01*
X184118018Y-78234582D01*
X184046901Y-78305699D01*
X184046896Y-78305703D01*
X183864999Y-78487601D01*
X183507978Y-78487601D01*
X183529827Y-78465752D01*
X183657169Y-78275171D01*
X183744883Y-78063410D01*
X183789600Y-77838605D01*
X183789600Y-77609395D01*
X183744883Y-77384590D01*
X183657169Y-77172829D01*
X183529827Y-76982248D01*
X183367752Y-76820173D01*
X183177171Y-76692831D01*
X182965410Y-76605117D01*
X182740605Y-76560400D01*
X182511395Y-76560400D01*
X182286590Y-76605117D01*
X182074829Y-76692831D01*
X181884248Y-76820173D01*
X181722173Y-76982248D01*
X181594831Y-77172829D01*
X181507117Y-77384590D01*
X181462400Y-77609395D01*
X181462400Y-77838605D01*
X181507117Y-78063410D01*
X181594831Y-78275171D01*
X181722173Y-78465752D01*
X181744022Y-78487601D01*
X180967978Y-78487601D01*
X180989827Y-78465752D01*
X181117169Y-78275171D01*
X181204883Y-78063410D01*
X181249600Y-77838605D01*
X181249600Y-77609395D01*
X181204883Y-77384590D01*
X181117169Y-77172829D01*
X180989827Y-76982248D01*
X180827752Y-76820173D01*
X180637171Y-76692831D01*
X180425410Y-76605117D01*
X180200605Y-76560400D01*
X179971395Y-76560400D01*
X179746590Y-76605117D01*
X179534829Y-76692831D01*
X179344248Y-76820173D01*
X179182173Y-76982248D01*
X179054831Y-77172829D01*
X178967117Y-77384590D01*
X178922400Y-77609395D01*
X178922400Y-77838605D01*
X178967117Y-78063410D01*
X179054831Y-78275171D01*
X179182173Y-78465752D01*
X179204022Y-78487601D01*
X178427978Y-78487601D01*
X178449827Y-78465752D01*
X178577169Y-78275171D01*
X178664883Y-78063410D01*
X178709600Y-77838605D01*
X178709600Y-77609395D01*
X178664883Y-77384590D01*
X178577169Y-77172829D01*
X178449827Y-76982248D01*
X178287752Y-76820173D01*
X178097171Y-76692831D01*
X177885410Y-76605117D01*
X177660605Y-76560400D01*
X177431395Y-76560400D01*
X177206590Y-76605117D01*
X176994829Y-76692831D01*
X176974449Y-76706449D01*
X176876000Y-76608000D01*
X175074000Y-76608000D01*
X175074000Y-77710000D01*
X175226000Y-77862000D01*
X176387623Y-77864862D01*
X176427117Y-78063410D01*
X176514831Y-78275171D01*
X176642173Y-78465752D01*
X176664022Y-78487601D01*
X174941452Y-78487601D01*
X174316583Y-77862733D01*
X174614000Y-77862000D01*
X174766000Y-77710000D01*
X174766000Y-76608000D01*
X172964000Y-76608000D01*
X172812000Y-76760000D01*
X172810900Y-76944710D01*
X172321451Y-76944710D01*
X172321451Y-75904000D01*
X172310855Y-75796417D01*
X172279474Y-75692969D01*
X172228515Y-75597630D01*
X172159935Y-75514065D01*
X172107010Y-75470631D01*
X172121757Y-75443041D01*
X172133838Y-75403215D01*
X172142186Y-75375697D01*
X172189469Y-75328414D01*
X172257868Y-75226048D01*
X172304981Y-75112306D01*
X172329000Y-74991557D01*
X172329000Y-74868443D01*
X172304981Y-74747694D01*
X172257868Y-74633952D01*
X172189469Y-74531586D01*
X172102414Y-74444531D01*
X172000048Y-74376132D01*
X171886306Y-74329019D01*
X171765557Y-74305000D01*
X171642443Y-74305000D01*
X171521694Y-74329019D01*
X171407952Y-74376132D01*
X171305586Y-74444531D01*
X171218531Y-74531586D01*
X171150132Y-74633952D01*
X171103019Y-74747694D01*
X171079000Y-74868443D01*
X171079000Y-74991557D01*
X171103019Y-75112306D01*
X171138833Y-75198771D01*
X170985055Y-75352549D01*
X169270000Y-75352549D01*
X169162417Y-75363145D01*
X169058969Y-75394526D01*
X168963630Y-75445485D01*
X168880065Y-75514065D01*
X168811485Y-75597630D01*
X168760526Y-75692969D01*
X168729145Y-75796417D01*
X168718549Y-75904000D01*
X168718549Y-77004000D01*
X168729145Y-77111583D01*
X168760526Y-77215031D01*
X168792045Y-77274000D01*
X165255451Y-77274000D01*
X165255451Y-77224000D01*
X165249659Y-77165190D01*
X165232504Y-77108640D01*
X165204647Y-77056523D01*
X165167158Y-77010842D01*
X165121477Y-76973353D01*
X165069360Y-76945496D01*
X165012810Y-76928341D01*
X164954000Y-76922549D01*
X162444000Y-76922549D01*
X162385190Y-76928341D01*
X162328640Y-76945496D01*
X162276523Y-76973353D01*
X162230842Y-77010842D01*
X162193353Y-77056523D01*
X162165496Y-77108640D01*
X162148341Y-77165190D01*
X162142549Y-77224000D01*
X162142549Y-78124001D01*
X160944442Y-78124001D01*
X160925788Y-78122164D01*
X160907134Y-78124001D01*
X160907128Y-78124001D01*
X160858958Y-78128745D01*
X160851295Y-78129500D01*
X160829566Y-78136092D01*
X160779666Y-78151229D01*
X160713651Y-78186514D01*
X160655789Y-78234001D01*
X160643893Y-78248496D01*
X159945890Y-78946500D01*
X158715909Y-78946500D01*
X158693950Y-78874111D01*
X158643568Y-78779853D01*
X158575765Y-78697235D01*
X158493147Y-78629432D01*
X158398889Y-78579050D01*
X158296613Y-78548025D01*
X158190250Y-78537549D01*
X157277750Y-78537549D01*
X157171387Y-78548025D01*
X157069111Y-78579050D01*
X156974853Y-78629432D01*
X156892235Y-78697235D01*
X156824432Y-78779853D01*
X156774050Y-78874111D01*
X156743025Y-78976387D01*
X156732549Y-79082750D01*
X156732549Y-79570250D01*
X156743025Y-79676613D01*
X156774050Y-79778889D01*
X156824432Y-79873147D01*
X156892235Y-79955765D01*
X156974853Y-80023568D01*
X157069111Y-80073950D01*
X157171387Y-80104975D01*
X157277750Y-80115451D01*
X158190250Y-80115451D01*
X158296613Y-80104975D01*
X158398889Y-80073950D01*
X158493147Y-80023568D01*
X158575765Y-79955765D01*
X158643568Y-79873147D01*
X158693950Y-79778889D01*
X158715909Y-79706500D01*
X160084637Y-79706500D01*
X160103290Y-79708337D01*
X160121943Y-79706500D01*
X160121951Y-79706500D01*
X160177783Y-79701001D01*
X160249413Y-79679272D01*
X160315428Y-79643987D01*
X160373290Y-79596500D01*
X160385190Y-79582000D01*
X160542549Y-79424641D01*
X160542549Y-79570250D01*
X160553025Y-79676613D01*
X160584050Y-79778889D01*
X160634432Y-79873147D01*
X160702235Y-79955765D01*
X160784853Y-80023568D01*
X160879111Y-80073950D01*
X160978375Y-80104061D01*
X160844000Y-80103058D01*
X160724811Y-80114797D01*
X160610203Y-80149563D01*
X160504579Y-80206020D01*
X160411999Y-80281999D01*
X160336020Y-80374579D01*
X160279563Y-80480203D01*
X160244797Y-80594811D01*
X160233058Y-80714000D01*
X160236000Y-80895500D01*
X160387998Y-81047498D01*
X160236000Y-81047498D01*
X160236000Y-81182517D01*
X160001895Y-81222945D01*
X159750034Y-81319868D01*
X159688505Y-81352756D01*
X159617825Y-81582037D01*
X160368000Y-82332211D01*
X160382142Y-82318069D01*
X160599931Y-82535858D01*
X160585789Y-82550000D01*
X160599931Y-82564142D01*
X160382142Y-82781931D01*
X160368000Y-82767789D01*
X160353858Y-82781931D01*
X160136069Y-82564142D01*
X160150211Y-82550000D01*
X159400037Y-81799825D01*
X159170756Y-81870505D01*
X159061197Y-82117132D01*
X159001859Y-82380394D01*
X158995021Y-82650174D01*
X159040945Y-82916105D01*
X159137868Y-83167966D01*
X159161405Y-83212001D01*
X157841897Y-83212001D01*
X157509328Y-82879433D01*
X157551694Y-82896981D01*
X157672443Y-82921000D01*
X157795557Y-82921000D01*
X157916306Y-82896981D01*
X158030048Y-82849868D01*
X158132414Y-82781469D01*
X158219469Y-82694414D01*
X158287868Y-82592048D01*
X158334981Y-82478306D01*
X158359000Y-82357557D01*
X158359000Y-82234443D01*
X158334981Y-82113694D01*
X158287868Y-81999952D01*
X158275884Y-81982017D01*
X158296613Y-81979975D01*
X158398889Y-81948950D01*
X158493147Y-81898568D01*
X158575765Y-81830765D01*
X158643568Y-81748147D01*
X158693950Y-81653889D01*
X158724975Y-81551613D01*
X158735451Y-81445250D01*
X158735451Y-80957750D01*
X158724975Y-80851387D01*
X158693950Y-80749111D01*
X158643568Y-80654853D01*
X158575765Y-80572235D01*
X158493147Y-80504432D01*
X158398889Y-80454050D01*
X158296613Y-80423025D01*
X158190250Y-80412549D01*
X157277750Y-80412549D01*
X157171387Y-80423025D01*
X157069111Y-80454050D01*
X156974853Y-80504432D01*
X156892235Y-80572235D01*
X156824432Y-80654853D01*
X156774050Y-80749111D01*
X156743025Y-80851387D01*
X156732549Y-80957750D01*
X156732549Y-81445250D01*
X156743025Y-81551613D01*
X156774050Y-81653889D01*
X156824432Y-81748147D01*
X156892235Y-81830765D01*
X156974853Y-81898568D01*
X157069111Y-81948950D01*
X157171387Y-81979975D01*
X157192116Y-81982017D01*
X157180132Y-81999952D01*
X157133019Y-82113694D01*
X157109000Y-82234443D01*
X157109000Y-82357557D01*
X157133019Y-82478306D01*
X157150567Y-82520672D01*
X156877327Y-82247432D01*
X156863237Y-82230263D01*
X156794716Y-82174029D01*
X156744951Y-82147429D01*
X156744951Y-82093750D01*
X156734475Y-81987387D01*
X156703450Y-81885111D01*
X156653068Y-81790853D01*
X156585265Y-81708235D01*
X156502647Y-81640432D01*
X156408389Y-81590050D01*
X156374409Y-81579742D01*
X156376878Y-81576048D01*
X156423991Y-81462306D01*
X156448010Y-81341557D01*
X156448010Y-81218443D01*
X156423991Y-81097694D01*
X156376878Y-80983952D01*
X156308479Y-80881586D01*
X156304197Y-80877304D01*
X156319647Y-80858477D01*
X156347504Y-80806360D01*
X156364659Y-80749810D01*
X156370451Y-80691000D01*
X156370451Y-78041000D01*
X156364659Y-77982190D01*
X156347504Y-77925640D01*
X156319647Y-77873523D01*
X156282158Y-77827842D01*
X156236477Y-77790353D01*
X156184360Y-77762496D01*
X156127810Y-77745341D01*
X156069000Y-77739549D01*
X154319000Y-77739549D01*
X154260190Y-77745341D01*
X154203640Y-77762496D01*
X154151523Y-77790353D01*
X154105842Y-77827842D01*
X154068353Y-77873523D01*
X154040496Y-77925640D01*
X154023341Y-77982190D01*
X154017549Y-78041000D01*
X154017549Y-80465339D01*
X153936517Y-80449220D01*
X153813403Y-80449220D01*
X153697794Y-80472217D01*
X153696000Y-80232000D01*
X153544000Y-80080000D01*
X152742000Y-80080000D01*
X152742000Y-80100000D01*
X152434000Y-80100000D01*
X152434000Y-80080000D01*
X152414000Y-80080000D01*
X152414000Y-79772000D01*
X152434000Y-79772000D01*
X152434000Y-79752000D01*
X152742000Y-79752000D01*
X152742000Y-79772000D01*
X153544000Y-79772000D01*
X153696000Y-79620000D01*
X153698942Y-79226000D01*
X153687203Y-79106811D01*
X153652437Y-78992203D01*
X153595980Y-78886579D01*
X153520001Y-78793999D01*
X153427421Y-78718020D01*
X153321797Y-78661563D01*
X153310704Y-78658198D01*
X153315477Y-78655647D01*
X153361158Y-78618158D01*
X153398647Y-78572477D01*
X153426504Y-78520360D01*
X153443659Y-78463810D01*
X153449451Y-78405000D01*
X153449451Y-77896944D01*
X154653945Y-76692451D01*
X156069000Y-76692451D01*
X156127810Y-76686659D01*
X156184360Y-76669504D01*
X156236477Y-76641647D01*
X156282158Y-76604158D01*
X156319647Y-76558477D01*
X156347504Y-76506360D01*
X156364659Y-76449810D01*
X156370451Y-76391000D01*
X156370451Y-76047338D01*
X158030000Y-76047338D01*
X158030000Y-76352662D01*
X158089565Y-76652118D01*
X158206408Y-76934200D01*
X158376036Y-77188068D01*
X158591932Y-77403964D01*
X158845800Y-77573592D01*
X159127882Y-77690435D01*
X159427338Y-77750000D01*
X159732662Y-77750000D01*
X160032118Y-77690435D01*
X160314200Y-77573592D01*
X160568068Y-77403964D01*
X160783964Y-77188068D01*
X160953592Y-76934200D01*
X161070435Y-76652118D01*
X161130000Y-76352662D01*
X161130000Y-76047338D01*
X161070435Y-75747882D01*
X160953592Y-75465800D01*
X160783964Y-75211932D01*
X160568068Y-74996036D01*
X160314200Y-74826408D01*
X160032118Y-74709565D01*
X159903593Y-74684000D01*
X165452549Y-74684000D01*
X165452549Y-75684000D01*
X165458341Y-75742810D01*
X165475496Y-75799360D01*
X165503353Y-75851477D01*
X165540842Y-75897158D01*
X165586523Y-75934647D01*
X165638640Y-75962504D01*
X165695190Y-75979659D01*
X165754000Y-75985451D01*
X166428000Y-75985451D01*
X166428000Y-76020117D01*
X166392531Y-76055586D01*
X166324132Y-76157952D01*
X166277019Y-76271694D01*
X166253000Y-76392443D01*
X166253000Y-76515557D01*
X166277019Y-76636306D01*
X166324132Y-76750048D01*
X166392531Y-76852414D01*
X166479586Y-76939469D01*
X166581952Y-77007868D01*
X166695694Y-77054981D01*
X166816443Y-77079000D01*
X166939557Y-77079000D01*
X167060306Y-77054981D01*
X167174048Y-77007868D01*
X167276414Y-76939469D01*
X167363469Y-76852414D01*
X167431868Y-76750048D01*
X167478981Y-76636306D01*
X167503000Y-76515557D01*
X167503000Y-76392443D01*
X167478981Y-76271694D01*
X167431868Y-76157952D01*
X167363469Y-76055586D01*
X167328000Y-76020117D01*
X167328000Y-75985451D01*
X168264000Y-75985451D01*
X168322810Y-75979659D01*
X168379360Y-75962504D01*
X168431477Y-75934647D01*
X168477158Y-75897158D01*
X168514647Y-75851477D01*
X168542504Y-75799360D01*
X168559659Y-75742810D01*
X168565451Y-75684000D01*
X168565451Y-74684000D01*
X168559659Y-74625190D01*
X168542504Y-74568640D01*
X168514647Y-74516523D01*
X168477158Y-74470842D01*
X168431477Y-74433353D01*
X168379360Y-74405496D01*
X168322810Y-74388341D01*
X168264000Y-74382549D01*
X165754000Y-74382549D01*
X165695190Y-74388341D01*
X165638640Y-74405496D01*
X165586523Y-74433353D01*
X165540842Y-74470842D01*
X165503353Y-74516523D01*
X165475496Y-74568640D01*
X165458341Y-74625190D01*
X165452549Y-74684000D01*
X159903593Y-74684000D01*
X159732662Y-74650000D01*
X159427338Y-74650000D01*
X159127882Y-74709565D01*
X158845800Y-74826408D01*
X158591932Y-74996036D01*
X158376036Y-75211932D01*
X158206408Y-75465800D01*
X158089565Y-75747882D01*
X158030000Y-76047338D01*
X156370451Y-76047338D01*
X156370451Y-73781000D01*
X184021762Y-73781000D01*
X183962979Y-73812420D01*
G36*
X145549797Y-81476811D02*
G01*
X145538058Y-81596000D01*
X145541000Y-81990000D01*
X145693000Y-82142000D01*
X146482500Y-82142000D01*
X146482500Y-82122000D01*
X146790500Y-82122000D01*
X146790500Y-82142000D01*
X146810500Y-82142000D01*
X146810500Y-82450000D01*
X146790500Y-82450000D01*
X146790500Y-82470000D01*
X146482500Y-82470000D01*
X146482500Y-82450000D01*
X145693000Y-82450000D01*
X145541000Y-82602000D01*
X145538058Y-82996000D01*
X145549797Y-83115189D01*
X145550043Y-83116000D01*
X141911883Y-83116000D01*
X141876414Y-83080531D01*
X141774048Y-83012132D01*
X141660306Y-82965019D01*
X141539557Y-82941000D01*
X141416443Y-82941000D01*
X141350075Y-82954202D01*
X141389188Y-82859774D01*
X141430000Y-82654598D01*
X141430000Y-82445402D01*
X141389188Y-82240226D01*
X141309133Y-82046954D01*
X141192910Y-81873014D01*
X141044986Y-81725090D01*
X140871046Y-81608867D01*
X140677774Y-81528812D01*
X140472598Y-81488000D01*
X140263402Y-81488000D01*
X140058226Y-81528812D01*
X139864954Y-81608867D01*
X139691014Y-81725090D01*
X139543090Y-81873014D01*
X139426867Y-82046954D01*
X139394451Y-82125214D01*
X139394451Y-81585750D01*
X139383975Y-81479387D01*
X139367780Y-81426000D01*
X145565210Y-81426000D01*
X145549797Y-81476811D01*
G37*
X145549797Y-81476811D02*
X145538058Y-81596000D01*
X145541000Y-81990000D01*
X145693000Y-82142000D01*
X146482500Y-82142000D01*
X146482500Y-82122000D01*
X146790500Y-82122000D01*
X146790500Y-82142000D01*
X146810500Y-82142000D01*
X146810500Y-82450000D01*
X146790500Y-82450000D01*
X146790500Y-82470000D01*
X146482500Y-82470000D01*
X146482500Y-82450000D01*
X145693000Y-82450000D01*
X145541000Y-82602000D01*
X145538058Y-82996000D01*
X145549797Y-83115189D01*
X145550043Y-83116000D01*
X141911883Y-83116000D01*
X141876414Y-83080531D01*
X141774048Y-83012132D01*
X141660306Y-82965019D01*
X141539557Y-82941000D01*
X141416443Y-82941000D01*
X141350075Y-82954202D01*
X141389188Y-82859774D01*
X141430000Y-82654598D01*
X141430000Y-82445402D01*
X141389188Y-82240226D01*
X141309133Y-82046954D01*
X141192910Y-81873014D01*
X141044986Y-81725090D01*
X140871046Y-81608867D01*
X140677774Y-81528812D01*
X140472598Y-81488000D01*
X140263402Y-81488000D01*
X140058226Y-81528812D01*
X139864954Y-81608867D01*
X139691014Y-81725090D01*
X139543090Y-81873014D01*
X139426867Y-82046954D01*
X139394451Y-82125214D01*
X139394451Y-81585750D01*
X139383975Y-81479387D01*
X139367780Y-81426000D01*
X145565210Y-81426000D01*
X145549797Y-81476811D01*
G36*
X147136549Y-79116000D02*
G01*
X147142341Y-79174810D01*
X147159496Y-79231360D01*
X147187353Y-79283477D01*
X147224842Y-79329158D01*
X147270523Y-79366647D01*
X147322640Y-79394504D01*
X147379190Y-79411659D01*
X147438000Y-79417451D01*
X149438000Y-79417451D01*
X149496810Y-79411659D01*
X149553360Y-79394504D01*
X149605477Y-79366647D01*
X149651158Y-79329158D01*
X149688647Y-79283477D01*
X149716504Y-79231360D01*
X149733659Y-79174810D01*
X149739451Y-79116000D01*
X149739451Y-77666000D01*
X149826549Y-77666000D01*
X149826549Y-78405000D01*
X149832341Y-78463810D01*
X149849496Y-78520360D01*
X149877353Y-78572477D01*
X149914842Y-78618158D01*
X149960523Y-78655647D01*
X150012640Y-78683504D01*
X150069190Y-78700659D01*
X150128000Y-78706451D01*
X150238001Y-78706451D01*
X150238001Y-78924549D01*
X150188000Y-78924549D01*
X150129190Y-78930341D01*
X150072640Y-78947496D01*
X150020523Y-78975353D01*
X149974842Y-79012842D01*
X149937353Y-79058523D01*
X149909496Y-79110640D01*
X149892341Y-79167190D01*
X149886549Y-79226000D01*
X149886549Y-79398358D01*
X149870010Y-79395068D01*
X149746896Y-79395068D01*
X149626147Y-79419087D01*
X149512405Y-79466200D01*
X149410039Y-79534599D01*
X149322984Y-79621654D01*
X149254585Y-79724020D01*
X149207472Y-79837762D01*
X149183453Y-79958511D01*
X149183453Y-80081625D01*
X149207472Y-80202374D01*
X149254585Y-80316116D01*
X149322984Y-80418482D01*
X149410039Y-80505537D01*
X149512405Y-80573936D01*
X149626147Y-80621049D01*
X149746896Y-80645068D01*
X149870010Y-80645068D01*
X149888073Y-80641475D01*
X149890488Y-80666000D01*
X143596264Y-80666000D01*
X143645980Y-80605421D01*
X143702437Y-80499797D01*
X143737203Y-80385189D01*
X143748942Y-80266000D01*
X143747908Y-80110000D01*
X146558000Y-80110000D01*
X146577509Y-80108079D01*
X146596268Y-80102388D01*
X146613557Y-80093147D01*
X146628711Y-80080711D01*
X146641147Y-80065557D01*
X146650388Y-80048268D01*
X146656079Y-80029509D01*
X146658000Y-80010000D01*
X146658000Y-78994000D01*
X146656079Y-78974491D01*
X146650388Y-78955732D01*
X146641147Y-78938443D01*
X146628711Y-78923289D01*
X146613557Y-78910853D01*
X146596268Y-78901612D01*
X146577509Y-78895921D01*
X146558000Y-78894000D01*
X143748094Y-78894000D01*
X143748942Y-78766000D01*
X143737203Y-78646811D01*
X143702437Y-78532203D01*
X143645980Y-78426579D01*
X143570001Y-78333999D01*
X143477421Y-78258020D01*
X143371797Y-78201563D01*
X143336795Y-78190945D01*
X143351158Y-78179158D01*
X143388647Y-78133477D01*
X143416504Y-78081360D01*
X143433659Y-78024810D01*
X143439451Y-77966000D01*
X143439451Y-77666000D01*
X147136549Y-77666000D01*
X147136549Y-79116000D01*
G37*
X147136549Y-79116000D02*
X147142341Y-79174810D01*
X147159496Y-79231360D01*
X147187353Y-79283477D01*
X147224842Y-79329158D01*
X147270523Y-79366647D01*
X147322640Y-79394504D01*
X147379190Y-79411659D01*
X147438000Y-79417451D01*
X149438000Y-79417451D01*
X149496810Y-79411659D01*
X149553360Y-79394504D01*
X149605477Y-79366647D01*
X149651158Y-79329158D01*
X149688647Y-79283477D01*
X149716504Y-79231360D01*
X149733659Y-79174810D01*
X149739451Y-79116000D01*
X149739451Y-77666000D01*
X149826549Y-77666000D01*
X149826549Y-78405000D01*
X149832341Y-78463810D01*
X149849496Y-78520360D01*
X149877353Y-78572477D01*
X149914842Y-78618158D01*
X149960523Y-78655647D01*
X150012640Y-78683504D01*
X150069190Y-78700659D01*
X150128000Y-78706451D01*
X150238001Y-78706451D01*
X150238001Y-78924549D01*
X150188000Y-78924549D01*
X150129190Y-78930341D01*
X150072640Y-78947496D01*
X150020523Y-78975353D01*
X149974842Y-79012842D01*
X149937353Y-79058523D01*
X149909496Y-79110640D01*
X149892341Y-79167190D01*
X149886549Y-79226000D01*
X149886549Y-79398358D01*
X149870010Y-79395068D01*
X149746896Y-79395068D01*
X149626147Y-79419087D01*
X149512405Y-79466200D01*
X149410039Y-79534599D01*
X149322984Y-79621654D01*
X149254585Y-79724020D01*
X149207472Y-79837762D01*
X149183453Y-79958511D01*
X149183453Y-80081625D01*
X149207472Y-80202374D01*
X149254585Y-80316116D01*
X149322984Y-80418482D01*
X149410039Y-80505537D01*
X149512405Y-80573936D01*
X149626147Y-80621049D01*
X149746896Y-80645068D01*
X149870010Y-80645068D01*
X149888073Y-80641475D01*
X149890488Y-80666000D01*
X143596264Y-80666000D01*
X143645980Y-80605421D01*
X143702437Y-80499797D01*
X143737203Y-80385189D01*
X143748942Y-80266000D01*
X143747908Y-80110000D01*
X146558000Y-80110000D01*
X146577509Y-80108079D01*
X146596268Y-80102388D01*
X146613557Y-80093147D01*
X146628711Y-80080711D01*
X146641147Y-80065557D01*
X146650388Y-80048268D01*
X146656079Y-80029509D01*
X146658000Y-80010000D01*
X146658000Y-78994000D01*
X146656079Y-78974491D01*
X146650388Y-78955732D01*
X146641147Y-78938443D01*
X146628711Y-78923289D01*
X146613557Y-78910853D01*
X146596268Y-78901612D01*
X146577509Y-78895921D01*
X146558000Y-78894000D01*
X143748094Y-78894000D01*
X143748942Y-78766000D01*
X143737203Y-78646811D01*
X143702437Y-78532203D01*
X143645980Y-78426579D01*
X143570001Y-78333999D01*
X143477421Y-78258020D01*
X143371797Y-78201563D01*
X143336795Y-78190945D01*
X143351158Y-78179158D01*
X143388647Y-78133477D01*
X143416504Y-78081360D01*
X143433659Y-78024810D01*
X143439451Y-77966000D01*
X143439451Y-77666000D01*
X147136549Y-77666000D01*
X147136549Y-79116000D01*
G36*
X140029500Y-79348000D02*
G01*
X140049500Y-79348000D01*
X140049500Y-79656000D01*
X140029500Y-79656000D01*
X140029500Y-79676000D01*
X139721500Y-79676000D01*
X139721500Y-79656000D01*
X139701500Y-79656000D01*
X139701500Y-79348000D01*
X139721500Y-79348000D01*
X139721500Y-79328000D01*
X140029500Y-79328000D01*
X140029500Y-79348000D01*
G37*
X140029500Y-79348000D02*
X140049500Y-79348000D01*
X140049500Y-79656000D01*
X140029500Y-79656000D01*
X140029500Y-79676000D01*
X139721500Y-79676000D01*
X139721500Y-79656000D01*
X139701500Y-79656000D01*
X139701500Y-79348000D01*
X139721500Y-79348000D01*
X139721500Y-79328000D01*
X140029500Y-79328000D01*
X140029500Y-79348000D01*
G36*
X138447353Y-75825977D02*
G01*
X138484842Y-75871658D01*
X138518001Y-75898870D01*
X138518000Y-76456448D01*
X138452768Y-76483468D01*
X138414812Y-76407684D01*
X138341318Y-76313120D01*
X138250788Y-76234710D01*
X138146700Y-76175469D01*
X138033055Y-76137673D01*
X137950000Y-76125500D01*
X137798000Y-76277500D01*
X137798000Y-77254500D01*
X137872000Y-77254500D01*
X137872000Y-77562500D01*
X137798000Y-77562500D01*
X137798000Y-77582500D01*
X137598000Y-77582500D01*
X137598000Y-77562500D01*
X137549451Y-77562500D01*
X137549451Y-77254500D01*
X137598000Y-77254500D01*
X137598000Y-76277500D01*
X137446000Y-76125500D01*
X137362945Y-76137673D01*
X137249300Y-76175469D01*
X137145212Y-76234710D01*
X137054682Y-76313120D01*
X136981188Y-76407684D01*
X136968985Y-76432049D01*
X136848000Y-76432049D01*
X136789190Y-76437841D01*
X136732640Y-76454996D01*
X136723000Y-76460149D01*
X136713360Y-76454996D01*
X136656810Y-76437841D01*
X136598000Y-76432049D01*
X136198000Y-76432049D01*
X136139190Y-76437841D01*
X136082640Y-76454996D01*
X136073000Y-76460149D01*
X136063360Y-76454996D01*
X136006810Y-76437841D01*
X135948000Y-76432049D01*
X135548000Y-76432049D01*
X135489190Y-76437841D01*
X135432640Y-76454996D01*
X135423000Y-76460149D01*
X135413360Y-76454996D01*
X135356810Y-76437841D01*
X135298000Y-76432049D01*
X135232945Y-76432049D01*
X134760846Y-75959951D01*
X136148000Y-75959951D01*
X136206810Y-75954159D01*
X136263360Y-75937004D01*
X136315477Y-75909147D01*
X136361158Y-75871658D01*
X136398000Y-75826765D01*
X136434842Y-75871658D01*
X136480523Y-75909147D01*
X136532640Y-75937004D01*
X136589190Y-75954159D01*
X136648000Y-75959951D01*
X138148000Y-75959951D01*
X138206810Y-75954159D01*
X138263360Y-75937004D01*
X138315477Y-75909147D01*
X138361158Y-75871658D01*
X138398647Y-75825977D01*
X138423000Y-75780416D01*
X138447353Y-75825977D01*
G37*
X138447353Y-75825977D02*
X138484842Y-75871658D01*
X138518001Y-75898870D01*
X138518000Y-76456448D01*
X138452768Y-76483468D01*
X138414812Y-76407684D01*
X138341318Y-76313120D01*
X138250788Y-76234710D01*
X138146700Y-76175469D01*
X138033055Y-76137673D01*
X137950000Y-76125500D01*
X137798000Y-76277500D01*
X137798000Y-77254500D01*
X137872000Y-77254500D01*
X137872000Y-77562500D01*
X137798000Y-77562500D01*
X137798000Y-77582500D01*
X137598000Y-77582500D01*
X137598000Y-77562500D01*
X137549451Y-77562500D01*
X137549451Y-77254500D01*
X137598000Y-77254500D01*
X137598000Y-76277500D01*
X137446000Y-76125500D01*
X137362945Y-76137673D01*
X137249300Y-76175469D01*
X137145212Y-76234710D01*
X137054682Y-76313120D01*
X136981188Y-76407684D01*
X136968985Y-76432049D01*
X136848000Y-76432049D01*
X136789190Y-76437841D01*
X136732640Y-76454996D01*
X136723000Y-76460149D01*
X136713360Y-76454996D01*
X136656810Y-76437841D01*
X136598000Y-76432049D01*
X136198000Y-76432049D01*
X136139190Y-76437841D01*
X136082640Y-76454996D01*
X136073000Y-76460149D01*
X136063360Y-76454996D01*
X136006810Y-76437841D01*
X135948000Y-76432049D01*
X135548000Y-76432049D01*
X135489190Y-76437841D01*
X135432640Y-76454996D01*
X135423000Y-76460149D01*
X135413360Y-76454996D01*
X135356810Y-76437841D01*
X135298000Y-76432049D01*
X135232945Y-76432049D01*
X134760846Y-75959951D01*
X136148000Y-75959951D01*
X136206810Y-75954159D01*
X136263360Y-75937004D01*
X136315477Y-75909147D01*
X136361158Y-75871658D01*
X136398000Y-75826765D01*
X136434842Y-75871658D01*
X136480523Y-75909147D01*
X136532640Y-75937004D01*
X136589190Y-75954159D01*
X136648000Y-75959951D01*
X138148000Y-75959951D01*
X138206810Y-75954159D01*
X138263360Y-75937004D01*
X138315477Y-75909147D01*
X138361158Y-75871658D01*
X138398647Y-75825977D01*
X138423000Y-75780416D01*
X138447353Y-75825977D01*
G36*
X149528797Y-73875811D02*
G01*
X149517058Y-73995000D01*
X149517536Y-74068000D01*
X146050000Y-74068000D01*
X146030491Y-74069921D01*
X146011732Y-74075612D01*
X145994443Y-74084853D01*
X145979289Y-74097289D01*
X145966853Y-74112443D01*
X145957612Y-74129732D01*
X145951921Y-74148491D01*
X145950000Y-74168000D01*
X145950000Y-75184000D01*
X145951921Y-75203509D01*
X145957612Y-75222268D01*
X145966853Y-75239557D01*
X145979289Y-75254711D01*
X145994443Y-75267147D01*
X146011732Y-75276388D01*
X146030491Y-75282079D01*
X146050000Y-75284000D01*
X147139701Y-75284000D01*
X147136549Y-75316000D01*
X147136549Y-76766000D01*
X143439451Y-76766000D01*
X143439451Y-76466000D01*
X143433659Y-76407190D01*
X143416504Y-76350640D01*
X143388647Y-76298523D01*
X143351158Y-76252842D01*
X143305477Y-76215353D01*
X143253360Y-76187496D01*
X143196810Y-76170341D01*
X143138000Y-76164549D01*
X141275846Y-76164549D01*
X141472944Y-75967451D01*
X143138000Y-75967451D01*
X143196810Y-75961659D01*
X143253360Y-75944504D01*
X143305477Y-75916647D01*
X143351158Y-75879158D01*
X143388647Y-75833477D01*
X143416504Y-75781360D01*
X143433659Y-75724810D01*
X143439451Y-75666000D01*
X143439451Y-74166000D01*
X143433659Y-74107190D01*
X143416504Y-74050640D01*
X143388647Y-73998523D01*
X143351158Y-73952842D01*
X143305477Y-73915353D01*
X143253360Y-73887496D01*
X143196810Y-73870341D01*
X143138000Y-73864549D01*
X141138000Y-73864549D01*
X141079190Y-73870341D01*
X141022640Y-73887496D01*
X140970523Y-73915353D01*
X140924842Y-73952842D01*
X140887353Y-73998523D01*
X140859496Y-74050640D01*
X140842341Y-74107190D01*
X140836549Y-74166000D01*
X140836549Y-75331056D01*
X140699629Y-75467976D01*
X140733514Y-75404581D01*
X140784977Y-75234931D01*
X140798000Y-75102707D01*
X140798000Y-74314293D01*
X140784977Y-74182069D01*
X140733514Y-74012419D01*
X140649943Y-73856068D01*
X140588336Y-73781000D01*
X149557558Y-73781000D01*
X149528797Y-73875811D01*
G37*
X149528797Y-73875811D02*
X149517058Y-73995000D01*
X149517536Y-74068000D01*
X146050000Y-74068000D01*
X146030491Y-74069921D01*
X146011732Y-74075612D01*
X145994443Y-74084853D01*
X145979289Y-74097289D01*
X145966853Y-74112443D01*
X145957612Y-74129732D01*
X145951921Y-74148491D01*
X145950000Y-74168000D01*
X145950000Y-75184000D01*
X145951921Y-75203509D01*
X145957612Y-75222268D01*
X145966853Y-75239557D01*
X145979289Y-75254711D01*
X145994443Y-75267147D01*
X146011732Y-75276388D01*
X146030491Y-75282079D01*
X146050000Y-75284000D01*
X147139701Y-75284000D01*
X147136549Y-75316000D01*
X147136549Y-76766000D01*
X143439451Y-76766000D01*
X143439451Y-76466000D01*
X143433659Y-76407190D01*
X143416504Y-76350640D01*
X143388647Y-76298523D01*
X143351158Y-76252842D01*
X143305477Y-76215353D01*
X143253360Y-76187496D01*
X143196810Y-76170341D01*
X143138000Y-76164549D01*
X141275846Y-76164549D01*
X141472944Y-75967451D01*
X143138000Y-75967451D01*
X143196810Y-75961659D01*
X143253360Y-75944504D01*
X143305477Y-75916647D01*
X143351158Y-75879158D01*
X143388647Y-75833477D01*
X143416504Y-75781360D01*
X143433659Y-75724810D01*
X143439451Y-75666000D01*
X143439451Y-74166000D01*
X143433659Y-74107190D01*
X143416504Y-74050640D01*
X143388647Y-73998523D01*
X143351158Y-73952842D01*
X143305477Y-73915353D01*
X143253360Y-73887496D01*
X143196810Y-73870341D01*
X143138000Y-73864549D01*
X141138000Y-73864549D01*
X141079190Y-73870341D01*
X141022640Y-73887496D01*
X140970523Y-73915353D01*
X140924842Y-73952842D01*
X140887353Y-73998523D01*
X140859496Y-74050640D01*
X140842341Y-74107190D01*
X140836549Y-74166000D01*
X140836549Y-75331056D01*
X140699629Y-75467976D01*
X140733514Y-75404581D01*
X140784977Y-75234931D01*
X140798000Y-75102707D01*
X140798000Y-74314293D01*
X140784977Y-74182069D01*
X140733514Y-74012419D01*
X140649943Y-73856068D01*
X140588336Y-73781000D01*
X149557558Y-73781000D01*
X149528797Y-73875811D01*
G36*
X154017549Y-75884004D02*
G01*
X153962479Y-75801586D01*
X153875424Y-75714531D01*
X153773058Y-75646132D01*
X153744176Y-75634169D01*
X153747203Y-75624189D01*
X153758942Y-75505000D01*
X153756000Y-75056000D01*
X153604000Y-74904000D01*
X151792000Y-74904000D01*
X151792000Y-74924000D01*
X151484000Y-74924000D01*
X151484000Y-74904000D01*
X151464000Y-74904000D01*
X151464000Y-74596000D01*
X151484000Y-74596000D01*
X151484000Y-74576000D01*
X151792000Y-74576000D01*
X151792000Y-74596000D01*
X153604000Y-74596000D01*
X153756000Y-74444000D01*
X153758942Y-73995000D01*
X153747203Y-73875811D01*
X153718442Y-73781000D01*
X154017549Y-73781000D01*
X154017549Y-75884004D01*
G37*
X154017549Y-75884004D02*
X153962479Y-75801586D01*
X153875424Y-75714531D01*
X153773058Y-75646132D01*
X153744176Y-75634169D01*
X153747203Y-75624189D01*
X153758942Y-75505000D01*
X153756000Y-75056000D01*
X153604000Y-74904000D01*
X151792000Y-74904000D01*
X151792000Y-74924000D01*
X151484000Y-74924000D01*
X151484000Y-74904000D01*
X151464000Y-74904000D01*
X151464000Y-74596000D01*
X151484000Y-74596000D01*
X151484000Y-74576000D01*
X151792000Y-74576000D01*
X151792000Y-74596000D01*
X153604000Y-74596000D01*
X153756000Y-74444000D01*
X153758942Y-73995000D01*
X153747203Y-73875811D01*
X153718442Y-73781000D01*
X154017549Y-73781000D01*
X154017549Y-75884004D01*
M02*
