G04 #@! TF.GenerationSoftware,KiCad,Pcbnew,5.1.6-c6e7f7d~87~ubuntu18.04.1*
G04 #@! TF.CreationDate,2020-07-15T21:40:22+02:00*
G04 #@! TF.ProjectId,Mini-BT-Pcb-328P,4d696e69-2d42-4542-9d50-63622d333238,2.0*
G04 #@! TF.SameCoordinates,Original*
G04 #@! TF.FileFunction,Soldermask,Top*
G04 #@! TF.FilePolarity,Negative*
%FSLAX46Y46*%
G04 Gerber Fmt 4.6, Leading zero omitted, Abs format (unit mm)*
G04 Created by KiCad (PCBNEW 5.1.6-c6e7f7d~87~ubuntu18.04.1) date 2020-07-15 21:40:22*
%MOMM*%
%LPD*%
G01*
G04 APERTURE LIST*
%ADD10C,0.100000*%
G04 APERTURE END LIST*
D10*
G36*
X159807000Y-106765000D02*
G01*
X158709000Y-106765000D01*
X158709000Y-103517000D01*
X159807000Y-103517000D01*
X159807000Y-106765000D01*
G37*
G36*
X157267000Y-106765000D02*
G01*
X156169000Y-106765000D01*
X156169000Y-103517000D01*
X157267000Y-103517000D01*
X157267000Y-106765000D01*
G37*
G36*
X154727000Y-106765000D02*
G01*
X153629000Y-106765000D01*
X153629000Y-103517000D01*
X154727000Y-103517000D01*
X154727000Y-106765000D01*
G37*
G36*
X152187000Y-106765000D02*
G01*
X151089000Y-106765000D01*
X151089000Y-103517000D01*
X152187000Y-103517000D01*
X152187000Y-106765000D01*
G37*
G36*
X149647000Y-106765000D02*
G01*
X148549000Y-106765000D01*
X148549000Y-103517000D01*
X149647000Y-103517000D01*
X149647000Y-106765000D01*
G37*
G36*
X147107000Y-106765000D02*
G01*
X146009000Y-106765000D01*
X146009000Y-103517000D01*
X147107000Y-103517000D01*
X147107000Y-106765000D01*
G37*
G36*
X142027000Y-106765000D02*
G01*
X140929000Y-106765000D01*
X140929000Y-103517000D01*
X142027000Y-103517000D01*
X142027000Y-106765000D01*
G37*
G36*
X144567000Y-106765000D02*
G01*
X143469000Y-106765000D01*
X143469000Y-103517000D01*
X144567000Y-103517000D01*
X144567000Y-106765000D01*
G37*
G36*
X134407000Y-106765000D02*
G01*
X133309000Y-106765000D01*
X133309000Y-103517000D01*
X134407000Y-103517000D01*
X134407000Y-106765000D01*
G37*
G36*
X139487000Y-106765000D02*
G01*
X138389000Y-106765000D01*
X138389000Y-103517000D01*
X139487000Y-103517000D01*
X139487000Y-106765000D01*
G37*
G36*
X136947000Y-106765000D02*
G01*
X135849000Y-106765000D01*
X135849000Y-103517000D01*
X136947000Y-103517000D01*
X136947000Y-106765000D01*
G37*
G36*
X172607000Y-106593000D02*
G01*
X171309000Y-106593000D01*
X171309000Y-103495000D01*
X172607000Y-103495000D01*
X172607000Y-106593000D01*
G37*
G36*
X174607000Y-106593000D02*
G01*
X173309000Y-106593000D01*
X173309000Y-103495000D01*
X174607000Y-103495000D01*
X174607000Y-106593000D01*
G37*
G36*
X176607000Y-106593000D02*
G01*
X175309000Y-106593000D01*
X175309000Y-103495000D01*
X176607000Y-103495000D01*
X176607000Y-106593000D01*
G37*
G36*
X178607000Y-106593000D02*
G01*
X177309000Y-106593000D01*
X177309000Y-103495000D01*
X178607000Y-103495000D01*
X178607000Y-106593000D01*
G37*
G36*
X182607000Y-106593000D02*
G01*
X181309000Y-106593000D01*
X181309000Y-103495000D01*
X182607000Y-103495000D01*
X182607000Y-106593000D01*
G37*
G36*
X184607000Y-106593000D02*
G01*
X183309000Y-106593000D01*
X183309000Y-103495000D01*
X184607000Y-103495000D01*
X184607000Y-106593000D01*
G37*
G36*
X180607000Y-106593000D02*
G01*
X179309000Y-106593000D01*
X179309000Y-103495000D01*
X180607000Y-103495000D01*
X180607000Y-106593000D01*
G37*
G36*
X186607000Y-106593000D02*
G01*
X185309000Y-106593000D01*
X185309000Y-103495000D01*
X186607000Y-103495000D01*
X186607000Y-106593000D01*
G37*
G36*
X170275068Y-103295674D02*
G01*
X170318347Y-103308803D01*
X170358228Y-103330120D01*
X170393188Y-103358812D01*
X170421880Y-103393772D01*
X170443197Y-103433653D01*
X170456326Y-103476932D01*
X170461000Y-103524392D01*
X170461000Y-104755608D01*
X170456326Y-104803068D01*
X170443197Y-104846347D01*
X170421880Y-104886228D01*
X170393188Y-104921188D01*
X170358228Y-104949880D01*
X170318347Y-104971197D01*
X170275068Y-104984326D01*
X170227608Y-104989000D01*
X167096392Y-104989000D01*
X167048932Y-104984326D01*
X167005653Y-104971197D01*
X166965772Y-104949880D01*
X166930812Y-104921188D01*
X166902120Y-104886228D01*
X166880803Y-104846347D01*
X166867674Y-104803068D01*
X166863000Y-104755608D01*
X166863000Y-103524392D01*
X166867674Y-103476932D01*
X166880803Y-103433653D01*
X166902120Y-103393772D01*
X166930812Y-103358812D01*
X166965772Y-103330120D01*
X167005653Y-103308803D01*
X167048932Y-103295674D01*
X167096392Y-103291000D01*
X170227608Y-103291000D01*
X170275068Y-103295674D01*
G37*
G36*
X164675068Y-103295674D02*
G01*
X164718347Y-103308803D01*
X164758228Y-103330120D01*
X164793188Y-103358812D01*
X164821880Y-103393772D01*
X164843197Y-103433653D01*
X164856326Y-103476932D01*
X164861000Y-103524392D01*
X164861000Y-104755608D01*
X164856326Y-104803068D01*
X164843197Y-104846347D01*
X164821880Y-104886228D01*
X164793188Y-104921188D01*
X164758228Y-104949880D01*
X164718347Y-104971197D01*
X164675068Y-104984326D01*
X164627608Y-104989000D01*
X161496392Y-104989000D01*
X161448932Y-104984326D01*
X161405653Y-104971197D01*
X161365772Y-104949880D01*
X161330812Y-104921188D01*
X161302120Y-104886228D01*
X161280803Y-104846347D01*
X161267674Y-104803068D01*
X161263000Y-104755608D01*
X161263000Y-103524392D01*
X161267674Y-103476932D01*
X161280803Y-103433653D01*
X161302120Y-103393772D01*
X161330812Y-103358812D01*
X161365772Y-103330120D01*
X161405653Y-103308803D01*
X161448932Y-103295674D01*
X161496392Y-103291000D01*
X164627608Y-103291000D01*
X164675068Y-103295674D01*
G37*
G36*
X149647000Y-101715000D02*
G01*
X148549000Y-101715000D01*
X148549000Y-98467000D01*
X149647000Y-98467000D01*
X149647000Y-101715000D01*
G37*
G36*
X134407000Y-101715000D02*
G01*
X133309000Y-101715000D01*
X133309000Y-98467000D01*
X134407000Y-98467000D01*
X134407000Y-101715000D01*
G37*
G36*
X136947000Y-101715000D02*
G01*
X135849000Y-101715000D01*
X135849000Y-98467000D01*
X136947000Y-98467000D01*
X136947000Y-101715000D01*
G37*
G36*
X139487000Y-101715000D02*
G01*
X138389000Y-101715000D01*
X138389000Y-98467000D01*
X139487000Y-98467000D01*
X139487000Y-101715000D01*
G37*
G36*
X144567000Y-101715000D02*
G01*
X143469000Y-101715000D01*
X143469000Y-98467000D01*
X144567000Y-98467000D01*
X144567000Y-101715000D01*
G37*
G36*
X154727000Y-101715000D02*
G01*
X153629000Y-101715000D01*
X153629000Y-98467000D01*
X154727000Y-98467000D01*
X154727000Y-101715000D01*
G37*
G36*
X157267000Y-101715000D02*
G01*
X156169000Y-101715000D01*
X156169000Y-98467000D01*
X157267000Y-98467000D01*
X157267000Y-101715000D01*
G37*
G36*
X142027000Y-101715000D02*
G01*
X140929000Y-101715000D01*
X140929000Y-98467000D01*
X142027000Y-98467000D01*
X142027000Y-101715000D01*
G37*
G36*
X159807000Y-101715000D02*
G01*
X158709000Y-101715000D01*
X158709000Y-98467000D01*
X159807000Y-98467000D01*
X159807000Y-101715000D01*
G37*
G36*
X147107000Y-101715000D02*
G01*
X146009000Y-101715000D01*
X146009000Y-98467000D01*
X147107000Y-98467000D01*
X147107000Y-101715000D01*
G37*
G36*
X152187000Y-101715000D02*
G01*
X151089000Y-101715000D01*
X151089000Y-98467000D01*
X152187000Y-98467000D01*
X152187000Y-101715000D01*
G37*
G36*
X136885000Y-97783000D02*
G01*
X134387000Y-97783000D01*
X134387000Y-96185000D01*
X136885000Y-96185000D01*
X136885000Y-97783000D01*
G37*
G36*
X165097605Y-93319708D02*
G01*
X165106841Y-93322510D01*
X165115354Y-93327060D01*
X165122816Y-93333184D01*
X165128940Y-93340646D01*
X165133490Y-93349159D01*
X165136292Y-93358395D01*
X165137479Y-93370453D01*
X165137479Y-93865547D01*
X165135977Y-93880798D01*
X165135312Y-93884141D01*
X165135071Y-93889045D01*
X165135071Y-93914556D01*
X165133642Y-93929072D01*
X165115479Y-94020379D01*
X165114762Y-94022742D01*
X165114761Y-94022748D01*
X165111959Y-94031984D01*
X165111242Y-94034347D01*
X165075612Y-94120366D01*
X165068740Y-94133224D01*
X165017009Y-94210644D01*
X165015447Y-94212547D01*
X165015444Y-94212552D01*
X165009321Y-94220013D01*
X165007756Y-94221920D01*
X164941920Y-94287756D01*
X164940014Y-94289320D01*
X164940013Y-94289321D01*
X164932552Y-94295444D01*
X164932547Y-94295447D01*
X164930644Y-94297009D01*
X164853224Y-94348740D01*
X164840366Y-94355612D01*
X164754347Y-94391242D01*
X164751986Y-94391958D01*
X164751984Y-94391959D01*
X164742748Y-94394761D01*
X164742742Y-94394762D01*
X164740379Y-94395479D01*
X164649072Y-94413642D01*
X164634556Y-94415071D01*
X164609045Y-94415071D01*
X164599291Y-94416032D01*
X164598675Y-94416186D01*
X164585547Y-94417479D01*
X164090453Y-94417479D01*
X164075202Y-94415977D01*
X164071859Y-94415312D01*
X164066955Y-94415071D01*
X164041444Y-94415071D01*
X164026928Y-94413642D01*
X163935621Y-94395479D01*
X163933258Y-94394762D01*
X163933252Y-94394761D01*
X163924016Y-94391959D01*
X163924014Y-94391958D01*
X163921653Y-94391242D01*
X163835634Y-94355612D01*
X163822776Y-94348740D01*
X163745356Y-94297009D01*
X163743453Y-94295447D01*
X163743448Y-94295444D01*
X163735987Y-94289321D01*
X163735986Y-94289320D01*
X163734080Y-94287756D01*
X163668244Y-94221920D01*
X163666679Y-94220013D01*
X163660556Y-94212552D01*
X163660553Y-94212547D01*
X163658991Y-94210644D01*
X163607260Y-94133224D01*
X163600388Y-94120366D01*
X163564758Y-94034347D01*
X163564041Y-94031984D01*
X163561239Y-94022748D01*
X163561238Y-94022742D01*
X163560521Y-94020379D01*
X163542358Y-93929072D01*
X163540929Y-93914556D01*
X163540929Y-93889045D01*
X163539968Y-93879291D01*
X163539814Y-93878675D01*
X163538521Y-93865547D01*
X163538521Y-93370453D01*
X163539708Y-93358395D01*
X163542510Y-93349159D01*
X163547060Y-93340646D01*
X163553184Y-93333184D01*
X163560646Y-93327060D01*
X163569159Y-93322510D01*
X163578395Y-93319708D01*
X163590453Y-93318521D01*
X165085547Y-93318521D01*
X165097605Y-93319708D01*
G37*
G36*
X149670000Y-94253000D02*
G01*
X149022000Y-94253000D01*
X149022000Y-92555000D01*
X149670000Y-92555000D01*
X149670000Y-94253000D01*
G37*
G36*
X154470000Y-94253000D02*
G01*
X153822000Y-94253000D01*
X153822000Y-92555000D01*
X154470000Y-92555000D01*
X154470000Y-94253000D01*
G37*
G36*
X153670000Y-94253000D02*
G01*
X153022000Y-94253000D01*
X153022000Y-92555000D01*
X153670000Y-92555000D01*
X153670000Y-94253000D01*
G37*
G36*
X152070000Y-94253000D02*
G01*
X151422000Y-94253000D01*
X151422000Y-92555000D01*
X152070000Y-92555000D01*
X152070000Y-94253000D01*
G37*
G36*
X151270000Y-94253000D02*
G01*
X150622000Y-94253000D01*
X150622000Y-92555000D01*
X151270000Y-92555000D01*
X151270000Y-94253000D01*
G37*
G36*
X150470000Y-94253000D02*
G01*
X149822000Y-94253000D01*
X149822000Y-92555000D01*
X150470000Y-92555000D01*
X150470000Y-94253000D01*
G37*
G36*
X155270000Y-94253000D02*
G01*
X154622000Y-94253000D01*
X154622000Y-92555000D01*
X155270000Y-92555000D01*
X155270000Y-94253000D01*
G37*
G36*
X152870000Y-94253000D02*
G01*
X152222000Y-94253000D01*
X152222000Y-92555000D01*
X152870000Y-92555000D01*
X152870000Y-94253000D01*
G37*
G36*
X164600798Y-92020023D02*
G01*
X164604141Y-92020688D01*
X164609045Y-92020929D01*
X164634556Y-92020929D01*
X164649072Y-92022358D01*
X164740379Y-92040521D01*
X164742742Y-92041238D01*
X164742748Y-92041239D01*
X164751984Y-92044041D01*
X164751986Y-92044042D01*
X164754347Y-92044758D01*
X164840366Y-92080388D01*
X164853224Y-92087260D01*
X164930644Y-92138991D01*
X164932547Y-92140553D01*
X164932552Y-92140556D01*
X164940013Y-92146679D01*
X164941920Y-92148244D01*
X165007756Y-92214080D01*
X165009320Y-92215986D01*
X165009321Y-92215987D01*
X165015444Y-92223448D01*
X165015447Y-92223453D01*
X165017009Y-92225356D01*
X165068740Y-92302776D01*
X165075612Y-92315634D01*
X165111242Y-92401653D01*
X165111958Y-92404014D01*
X165111959Y-92404016D01*
X165114761Y-92413252D01*
X165114762Y-92413258D01*
X165115479Y-92415621D01*
X165133642Y-92506928D01*
X165135071Y-92521444D01*
X165135071Y-92546955D01*
X165136032Y-92556709D01*
X165136186Y-92557325D01*
X165137479Y-92570453D01*
X165137479Y-93065547D01*
X165136292Y-93077605D01*
X165133490Y-93086841D01*
X165128940Y-93095354D01*
X165122816Y-93102816D01*
X165115354Y-93108940D01*
X165106841Y-93113490D01*
X165097605Y-93116292D01*
X165085547Y-93117479D01*
X163590453Y-93117479D01*
X163578395Y-93116292D01*
X163569159Y-93113490D01*
X163560646Y-93108940D01*
X163553184Y-93102816D01*
X163547060Y-93095354D01*
X163542510Y-93086841D01*
X163539708Y-93077605D01*
X163538521Y-93065547D01*
X163538521Y-92570453D01*
X163540023Y-92555202D01*
X163540688Y-92551859D01*
X163540929Y-92546955D01*
X163540929Y-92521444D01*
X163542358Y-92506928D01*
X163560521Y-92415621D01*
X163561238Y-92413258D01*
X163561239Y-92413252D01*
X163564041Y-92404016D01*
X163564042Y-92404014D01*
X163564758Y-92401653D01*
X163600388Y-92315634D01*
X163607260Y-92302776D01*
X163658991Y-92225356D01*
X163660553Y-92223453D01*
X163660556Y-92223448D01*
X163666679Y-92215987D01*
X163666680Y-92215986D01*
X163668244Y-92214080D01*
X163734080Y-92148244D01*
X163735987Y-92146679D01*
X163743448Y-92140556D01*
X163743453Y-92140553D01*
X163745356Y-92138991D01*
X163822776Y-92087260D01*
X163835634Y-92080388D01*
X163921653Y-92044758D01*
X163924014Y-92044042D01*
X163924016Y-92044041D01*
X163933252Y-92041239D01*
X163933258Y-92041238D01*
X163935621Y-92040521D01*
X164026928Y-92022358D01*
X164041444Y-92020929D01*
X164066955Y-92020929D01*
X164076709Y-92019968D01*
X164077325Y-92019814D01*
X164090453Y-92018521D01*
X164585547Y-92018521D01*
X164600798Y-92020023D01*
G37*
G36*
X136885000Y-92283000D02*
G01*
X134387000Y-92283000D01*
X134387000Y-90685000D01*
X136885000Y-90685000D01*
X136885000Y-92283000D01*
G37*
G36*
X157245000Y-92278000D02*
G01*
X155547000Y-92278000D01*
X155547000Y-91630000D01*
X157245000Y-91630000D01*
X157245000Y-92278000D01*
G37*
G36*
X148745000Y-92278000D02*
G01*
X147047000Y-92278000D01*
X147047000Y-91630000D01*
X148745000Y-91630000D01*
X148745000Y-92278000D01*
G37*
G36*
X161044159Y-90187911D02*
G01*
X161089744Y-90201739D01*
X161131761Y-90224198D01*
X161168583Y-90254417D01*
X161198802Y-90291239D01*
X161221261Y-90333256D01*
X161235089Y-90378841D01*
X161240000Y-90428704D01*
X161240000Y-91435296D01*
X161235089Y-91485159D01*
X161221261Y-91530744D01*
X161198802Y-91572761D01*
X161168583Y-91609583D01*
X161131761Y-91639802D01*
X161089744Y-91662261D01*
X161044159Y-91676089D01*
X160994296Y-91681000D01*
X160412704Y-91681000D01*
X160362841Y-91676089D01*
X160317256Y-91662261D01*
X160275239Y-91639802D01*
X160238417Y-91609583D01*
X160208198Y-91572761D01*
X160185739Y-91530744D01*
X160171911Y-91485159D01*
X160167000Y-91435296D01*
X160167000Y-90428704D01*
X160171911Y-90378841D01*
X160185739Y-90333256D01*
X160208198Y-90291239D01*
X160238417Y-90254417D01*
X160275239Y-90224198D01*
X160317256Y-90201739D01*
X160362841Y-90187911D01*
X160412704Y-90183000D01*
X160994296Y-90183000D01*
X161044159Y-90187911D01*
G37*
G36*
X159169159Y-90187911D02*
G01*
X159214744Y-90201739D01*
X159256761Y-90224198D01*
X159293583Y-90254417D01*
X159323802Y-90291239D01*
X159346261Y-90333256D01*
X159360089Y-90378841D01*
X159365000Y-90428704D01*
X159365000Y-91435296D01*
X159360089Y-91485159D01*
X159346261Y-91530744D01*
X159323802Y-91572761D01*
X159293583Y-91609583D01*
X159256761Y-91639802D01*
X159214744Y-91662261D01*
X159169159Y-91676089D01*
X159119296Y-91681000D01*
X158537704Y-91681000D01*
X158487841Y-91676089D01*
X158442256Y-91662261D01*
X158400239Y-91639802D01*
X158363417Y-91609583D01*
X158333198Y-91572761D01*
X158310739Y-91530744D01*
X158296911Y-91485159D01*
X158292000Y-91435296D01*
X158292000Y-90428704D01*
X158296911Y-90378841D01*
X158310739Y-90333256D01*
X158333198Y-90291239D01*
X158363417Y-90254417D01*
X158400239Y-90224198D01*
X158442256Y-90201739D01*
X158487841Y-90187911D01*
X158537704Y-90183000D01*
X159119296Y-90183000D01*
X159169159Y-90187911D01*
G37*
G36*
X157245000Y-91478000D02*
G01*
X155547000Y-91478000D01*
X155547000Y-90830000D01*
X157245000Y-90830000D01*
X157245000Y-91478000D01*
G37*
G36*
X148745000Y-91478000D02*
G01*
X147047000Y-91478000D01*
X147047000Y-90830000D01*
X148745000Y-90830000D01*
X148745000Y-91478000D01*
G37*
G36*
X170091000Y-91227000D02*
G01*
X167483000Y-91227000D01*
X167483000Y-90129000D01*
X170091000Y-90129000D01*
X170091000Y-91227000D01*
G37*
G36*
X146058159Y-89425911D02*
G01*
X146103744Y-89439739D01*
X146145761Y-89462198D01*
X146182583Y-89492417D01*
X146212802Y-89529239D01*
X146235261Y-89571256D01*
X146249089Y-89616841D01*
X146254000Y-89666704D01*
X146254000Y-90673296D01*
X146249089Y-90723159D01*
X146235261Y-90768744D01*
X146212802Y-90810761D01*
X146182583Y-90847583D01*
X146145761Y-90877802D01*
X146103744Y-90900261D01*
X146058159Y-90914089D01*
X146008296Y-90919000D01*
X145426704Y-90919000D01*
X145376841Y-90914089D01*
X145331256Y-90900261D01*
X145289239Y-90877802D01*
X145252417Y-90847583D01*
X145222198Y-90810761D01*
X145199739Y-90768744D01*
X145185911Y-90723159D01*
X145181000Y-90673296D01*
X145181000Y-89666704D01*
X145185911Y-89616841D01*
X145199739Y-89571256D01*
X145222198Y-89529239D01*
X145252417Y-89492417D01*
X145289239Y-89462198D01*
X145331256Y-89439739D01*
X145376841Y-89425911D01*
X145426704Y-89421000D01*
X146008296Y-89421000D01*
X146058159Y-89425911D01*
G37*
G36*
X144183159Y-89425911D02*
G01*
X144228744Y-89439739D01*
X144270761Y-89462198D01*
X144307583Y-89492417D01*
X144337802Y-89529239D01*
X144360261Y-89571256D01*
X144374089Y-89616841D01*
X144379000Y-89666704D01*
X144379000Y-90673296D01*
X144374089Y-90723159D01*
X144360261Y-90768744D01*
X144337802Y-90810761D01*
X144307583Y-90847583D01*
X144270761Y-90877802D01*
X144228744Y-90900261D01*
X144183159Y-90914089D01*
X144133296Y-90919000D01*
X143551704Y-90919000D01*
X143501841Y-90914089D01*
X143456256Y-90900261D01*
X143414239Y-90877802D01*
X143377417Y-90847583D01*
X143347198Y-90810761D01*
X143324739Y-90768744D01*
X143310911Y-90723159D01*
X143306000Y-90673296D01*
X143306000Y-89666704D01*
X143310911Y-89616841D01*
X143324739Y-89571256D01*
X143347198Y-89529239D01*
X143377417Y-89492417D01*
X143414239Y-89462198D01*
X143456256Y-89439739D01*
X143501841Y-89425911D01*
X143551704Y-89421000D01*
X144133296Y-89421000D01*
X144183159Y-89425911D01*
G37*
G36*
X148745000Y-90678000D02*
G01*
X147047000Y-90678000D01*
X147047000Y-90030000D01*
X148745000Y-90030000D01*
X148745000Y-90678000D01*
G37*
G36*
X157245000Y-90678000D02*
G01*
X155547000Y-90678000D01*
X155547000Y-90030000D01*
X157245000Y-90030000D01*
X157245000Y-90678000D01*
G37*
G36*
X180635000Y-90203000D02*
G01*
X179537000Y-90203000D01*
X179537000Y-88105000D01*
X180635000Y-88105000D01*
X180635000Y-90203000D01*
G37*
G36*
X179365000Y-90203000D02*
G01*
X178267000Y-90203000D01*
X178267000Y-88105000D01*
X179365000Y-88105000D01*
X179365000Y-90203000D01*
G37*
G36*
X176825000Y-90203000D02*
G01*
X175727000Y-90203000D01*
X175727000Y-88105000D01*
X176825000Y-88105000D01*
X176825000Y-90203000D01*
G37*
G36*
X181905000Y-90203000D02*
G01*
X180807000Y-90203000D01*
X180807000Y-88105000D01*
X181905000Y-88105000D01*
X181905000Y-90203000D01*
G37*
G36*
X183175000Y-90203000D02*
G01*
X182077000Y-90203000D01*
X182077000Y-88105000D01*
X183175000Y-88105000D01*
X183175000Y-90203000D01*
G37*
G36*
X184445000Y-90203000D02*
G01*
X183347000Y-90203000D01*
X183347000Y-88105000D01*
X184445000Y-88105000D01*
X184445000Y-90203000D01*
G37*
G36*
X185715000Y-90203000D02*
G01*
X184617000Y-90203000D01*
X184617000Y-88105000D01*
X185715000Y-88105000D01*
X185715000Y-90203000D01*
G37*
G36*
X178095000Y-90203000D02*
G01*
X176997000Y-90203000D01*
X176997000Y-88105000D01*
X178095000Y-88105000D01*
X178095000Y-90203000D01*
G37*
G36*
X135929000Y-90156000D02*
G01*
X133311000Y-90156000D01*
X133311000Y-87748000D01*
X135929000Y-87748000D01*
X135929000Y-90156000D01*
G37*
G36*
X157245000Y-89878000D02*
G01*
X155547000Y-89878000D01*
X155547000Y-89230000D01*
X157245000Y-89230000D01*
X157245000Y-89878000D01*
G37*
G36*
X148745000Y-89878000D02*
G01*
X147047000Y-89878000D01*
X147047000Y-89230000D01*
X148745000Y-89230000D01*
X148745000Y-89878000D01*
G37*
G36*
X161044159Y-88155911D02*
G01*
X161089744Y-88169739D01*
X161131761Y-88192198D01*
X161168583Y-88222417D01*
X161198802Y-88259239D01*
X161221261Y-88301256D01*
X161235089Y-88346841D01*
X161240000Y-88396704D01*
X161240000Y-89403296D01*
X161235089Y-89453159D01*
X161221261Y-89498744D01*
X161198802Y-89540761D01*
X161168583Y-89577583D01*
X161131761Y-89607802D01*
X161089744Y-89630261D01*
X161044159Y-89644089D01*
X160994296Y-89649000D01*
X160412704Y-89649000D01*
X160362841Y-89644089D01*
X160317256Y-89630261D01*
X160275239Y-89607802D01*
X160238417Y-89577583D01*
X160208198Y-89540761D01*
X160185739Y-89498744D01*
X160171911Y-89453159D01*
X160167000Y-89403296D01*
X160167000Y-88396704D01*
X160171911Y-88346841D01*
X160185739Y-88301256D01*
X160208198Y-88259239D01*
X160238417Y-88222417D01*
X160275239Y-88192198D01*
X160317256Y-88169739D01*
X160362841Y-88155911D01*
X160412704Y-88151000D01*
X160994296Y-88151000D01*
X161044159Y-88155911D01*
G37*
G36*
X159169159Y-88155911D02*
G01*
X159214744Y-88169739D01*
X159256761Y-88192198D01*
X159293583Y-88222417D01*
X159323802Y-88259239D01*
X159346261Y-88301256D01*
X159360089Y-88346841D01*
X159365000Y-88396704D01*
X159365000Y-89403296D01*
X159360089Y-89453159D01*
X159346261Y-89498744D01*
X159323802Y-89540761D01*
X159293583Y-89577583D01*
X159256761Y-89607802D01*
X159214744Y-89630261D01*
X159169159Y-89644089D01*
X159119296Y-89649000D01*
X158537704Y-89649000D01*
X158487841Y-89644089D01*
X158442256Y-89630261D01*
X158400239Y-89607802D01*
X158363417Y-89577583D01*
X158333198Y-89540761D01*
X158310739Y-89498744D01*
X158296911Y-89453159D01*
X158292000Y-89403296D01*
X158292000Y-88396704D01*
X158296911Y-88346841D01*
X158310739Y-88301256D01*
X158333198Y-88259239D01*
X158363417Y-88222417D01*
X158400239Y-88192198D01*
X158442256Y-88169739D01*
X158487841Y-88155911D01*
X158537704Y-88151000D01*
X159119296Y-88151000D01*
X159169159Y-88155911D01*
G37*
G36*
X157245000Y-89078000D02*
G01*
X155547000Y-89078000D01*
X155547000Y-88430000D01*
X157245000Y-88430000D01*
X157245000Y-89078000D01*
G37*
G36*
X148745000Y-89078000D02*
G01*
X147047000Y-89078000D01*
X147047000Y-88430000D01*
X148745000Y-88430000D01*
X148745000Y-89078000D01*
G37*
G36*
X144183159Y-87393911D02*
G01*
X144228744Y-87407739D01*
X144270761Y-87430198D01*
X144307583Y-87460417D01*
X144337802Y-87497239D01*
X144360261Y-87539256D01*
X144374089Y-87584841D01*
X144379000Y-87634704D01*
X144379000Y-88641296D01*
X144374089Y-88691159D01*
X144360261Y-88736744D01*
X144337802Y-88778761D01*
X144307583Y-88815583D01*
X144270761Y-88845802D01*
X144228744Y-88868261D01*
X144183159Y-88882089D01*
X144133296Y-88887000D01*
X143551704Y-88887000D01*
X143501841Y-88882089D01*
X143456256Y-88868261D01*
X143414239Y-88845802D01*
X143377417Y-88815583D01*
X143347198Y-88778761D01*
X143324739Y-88736744D01*
X143310911Y-88691159D01*
X143306000Y-88641296D01*
X143306000Y-87634704D01*
X143310911Y-87584841D01*
X143324739Y-87539256D01*
X143347198Y-87497239D01*
X143377417Y-87460417D01*
X143414239Y-87430198D01*
X143456256Y-87407739D01*
X143501841Y-87393911D01*
X143551704Y-87389000D01*
X144133296Y-87389000D01*
X144183159Y-87393911D01*
G37*
G36*
X146058159Y-87393911D02*
G01*
X146103744Y-87407739D01*
X146145761Y-87430198D01*
X146182583Y-87460417D01*
X146212802Y-87497239D01*
X146235261Y-87539256D01*
X146249089Y-87584841D01*
X146254000Y-87634704D01*
X146254000Y-88641296D01*
X146249089Y-88691159D01*
X146235261Y-88736744D01*
X146212802Y-88778761D01*
X146182583Y-88815583D01*
X146145761Y-88845802D01*
X146103744Y-88868261D01*
X146058159Y-88882089D01*
X146008296Y-88887000D01*
X145426704Y-88887000D01*
X145376841Y-88882089D01*
X145331256Y-88868261D01*
X145289239Y-88845802D01*
X145252417Y-88815583D01*
X145222198Y-88778761D01*
X145199739Y-88736744D01*
X145185911Y-88691159D01*
X145181000Y-88641296D01*
X145181000Y-87634704D01*
X145185911Y-87584841D01*
X145199739Y-87539256D01*
X145222198Y-87497239D01*
X145252417Y-87460417D01*
X145289239Y-87430198D01*
X145331256Y-87407739D01*
X145376841Y-87393911D01*
X145426704Y-87389000D01*
X146008296Y-87389000D01*
X146058159Y-87393911D01*
G37*
G36*
X166781000Y-88687000D02*
G01*
X164173000Y-88687000D01*
X164173000Y-87589000D01*
X166781000Y-87589000D01*
X166781000Y-88687000D01*
G37*
G36*
X148745000Y-88278000D02*
G01*
X147047000Y-88278000D01*
X147047000Y-87630000D01*
X148745000Y-87630000D01*
X148745000Y-88278000D01*
G37*
G36*
X157245000Y-88278000D02*
G01*
X155547000Y-88278000D01*
X155547000Y-87630000D01*
X157245000Y-87630000D01*
X157245000Y-88278000D01*
G37*
G36*
X140516000Y-87531000D02*
G01*
X139768000Y-87531000D01*
X139768000Y-86373000D01*
X140516000Y-86373000D01*
X140516000Y-87531000D01*
G37*
G36*
X138616000Y-87531000D02*
G01*
X137868000Y-87531000D01*
X137868000Y-86373000D01*
X138616000Y-86373000D01*
X138616000Y-87531000D01*
G37*
G36*
X157245000Y-87478000D02*
G01*
X155547000Y-87478000D01*
X155547000Y-86830000D01*
X157245000Y-86830000D01*
X157245000Y-87478000D01*
G37*
G36*
X148745000Y-87478000D02*
G01*
X147047000Y-87478000D01*
X147047000Y-86830000D01*
X148745000Y-86830000D01*
X148745000Y-87478000D01*
G37*
G36*
X178607000Y-86893000D02*
G01*
X177309000Y-86893000D01*
X177309000Y-83795000D01*
X178607000Y-83795000D01*
X178607000Y-86893000D01*
G37*
G36*
X172607000Y-86893000D02*
G01*
X171309000Y-86893000D01*
X171309000Y-83795000D01*
X172607000Y-83795000D01*
X172607000Y-86893000D01*
G37*
G36*
X184607000Y-86893000D02*
G01*
X183309000Y-86893000D01*
X183309000Y-83795000D01*
X184607000Y-83795000D01*
X184607000Y-86893000D01*
G37*
G36*
X186607000Y-86893000D02*
G01*
X185309000Y-86893000D01*
X185309000Y-83795000D01*
X186607000Y-83795000D01*
X186607000Y-86893000D01*
G37*
G36*
X182607000Y-86893000D02*
G01*
X181309000Y-86893000D01*
X181309000Y-83795000D01*
X182607000Y-83795000D01*
X182607000Y-86893000D01*
G37*
G36*
X180607000Y-86893000D02*
G01*
X179309000Y-86893000D01*
X179309000Y-83795000D01*
X180607000Y-83795000D01*
X180607000Y-86893000D01*
G37*
G36*
X174607000Y-86893000D02*
G01*
X173309000Y-86893000D01*
X173309000Y-83795000D01*
X174607000Y-83795000D01*
X174607000Y-86893000D01*
G37*
G36*
X176607000Y-86893000D02*
G01*
X175309000Y-86893000D01*
X175309000Y-83795000D01*
X176607000Y-83795000D01*
X176607000Y-86893000D01*
G37*
G36*
X157245000Y-86678000D02*
G01*
X155547000Y-86678000D01*
X155547000Y-86030000D01*
X157245000Y-86030000D01*
X157245000Y-86678000D01*
G37*
G36*
X148745000Y-86678000D02*
G01*
X147047000Y-86678000D01*
X147047000Y-86030000D01*
X148745000Y-86030000D01*
X148745000Y-86678000D01*
G37*
G36*
X155270000Y-85753000D02*
G01*
X154622000Y-85753000D01*
X154622000Y-84055000D01*
X155270000Y-84055000D01*
X155270000Y-85753000D01*
G37*
G36*
X149670000Y-85753000D02*
G01*
X149022000Y-85753000D01*
X149022000Y-84055000D01*
X149670000Y-84055000D01*
X149670000Y-85753000D01*
G37*
G36*
X150470000Y-85753000D02*
G01*
X149822000Y-85753000D01*
X149822000Y-84055000D01*
X150470000Y-84055000D01*
X150470000Y-85753000D01*
G37*
G36*
X151270000Y-85753000D02*
G01*
X150622000Y-85753000D01*
X150622000Y-84055000D01*
X151270000Y-84055000D01*
X151270000Y-85753000D01*
G37*
G36*
X152070000Y-85753000D02*
G01*
X151422000Y-85753000D01*
X151422000Y-84055000D01*
X152070000Y-84055000D01*
X152070000Y-85753000D01*
G37*
G36*
X152870000Y-85753000D02*
G01*
X152222000Y-85753000D01*
X152222000Y-84055000D01*
X152870000Y-84055000D01*
X152870000Y-85753000D01*
G37*
G36*
X153670000Y-85753000D02*
G01*
X153022000Y-85753000D01*
X153022000Y-84055000D01*
X153670000Y-84055000D01*
X153670000Y-85753000D01*
G37*
G36*
X154470000Y-85753000D02*
G01*
X153822000Y-85753000D01*
X153822000Y-84055000D01*
X154470000Y-84055000D01*
X154470000Y-85753000D01*
G37*
G36*
X138616000Y-85331000D02*
G01*
X137868000Y-85331000D01*
X137868000Y-84173000D01*
X138616000Y-84173000D01*
X138616000Y-85331000D01*
G37*
G36*
X139566000Y-85331000D02*
G01*
X138818000Y-85331000D01*
X138818000Y-84173000D01*
X139566000Y-84173000D01*
X139566000Y-85331000D01*
G37*
G36*
X140516000Y-85331000D02*
G01*
X139768000Y-85331000D01*
X139768000Y-84173000D01*
X140516000Y-84173000D01*
X140516000Y-85331000D01*
G37*
G36*
X135929000Y-83956000D02*
G01*
X133311000Y-83956000D01*
X133311000Y-81548000D01*
X135929000Y-81548000D01*
X135929000Y-83956000D01*
G37*
G36*
X160500105Y-81749389D02*
G01*
X160604560Y-81770166D01*
X160752153Y-81831301D01*
X160884982Y-81920055D01*
X160997945Y-82033018D01*
X161086699Y-82165847D01*
X161147834Y-82313440D01*
X161179000Y-82470123D01*
X161179000Y-82629877D01*
X161147834Y-82786560D01*
X161086699Y-82934153D01*
X160997945Y-83066982D01*
X160884982Y-83179945D01*
X160752153Y-83268699D01*
X160604560Y-83329834D01*
X160500105Y-83350611D01*
X160447878Y-83361000D01*
X160288122Y-83361000D01*
X160235895Y-83350611D01*
X160131440Y-83329834D01*
X159983847Y-83268699D01*
X159851018Y-83179945D01*
X159738055Y-83066982D01*
X159649301Y-82934153D01*
X159588166Y-82786560D01*
X159557000Y-82629877D01*
X159557000Y-82470123D01*
X159588166Y-82313440D01*
X159649301Y-82165847D01*
X159738055Y-82033018D01*
X159851018Y-81920055D01*
X159983847Y-81831301D01*
X160131440Y-81770166D01*
X160235895Y-81749389D01*
X160288122Y-81739000D01*
X160447878Y-81739000D01*
X160500105Y-81749389D01*
G37*
G36*
X140500105Y-81749389D02*
G01*
X140604560Y-81770166D01*
X140752153Y-81831301D01*
X140884982Y-81920055D01*
X140997945Y-82033018D01*
X141086699Y-82165847D01*
X141147834Y-82313440D01*
X141179000Y-82470123D01*
X141179000Y-82629877D01*
X141147834Y-82786560D01*
X141086699Y-82934153D01*
X140997945Y-83066982D01*
X140884982Y-83179945D01*
X140752153Y-83268699D01*
X140604560Y-83329834D01*
X140500105Y-83350611D01*
X140447878Y-83361000D01*
X140288122Y-83361000D01*
X140235895Y-83350611D01*
X140131440Y-83329834D01*
X139983847Y-83268699D01*
X139851018Y-83179945D01*
X139738055Y-83066982D01*
X139649301Y-82934153D01*
X139588166Y-82786560D01*
X139557000Y-82629877D01*
X139557000Y-82470123D01*
X139588166Y-82313440D01*
X139649301Y-82165847D01*
X139738055Y-82033018D01*
X139851018Y-81920055D01*
X139983847Y-81831301D01*
X140131440Y-81770166D01*
X140235895Y-81749389D01*
X140288122Y-81739000D01*
X140447878Y-81739000D01*
X140500105Y-81749389D01*
G37*
G36*
X184795000Y-82179000D02*
G01*
X182997000Y-82179000D01*
X182997000Y-80381000D01*
X184795000Y-80381000D01*
X184795000Y-82179000D01*
G37*
G36*
X165977000Y-80813000D02*
G01*
X162729000Y-80813000D01*
X162729000Y-79715000D01*
X165977000Y-79715000D01*
X165977000Y-80813000D01*
G37*
G36*
X171027000Y-80813000D02*
G01*
X167779000Y-80813000D01*
X167779000Y-79715000D01*
X171027000Y-79715000D01*
X171027000Y-80813000D01*
G37*
G36*
X152445159Y-79653911D02*
G01*
X152490744Y-79667739D01*
X152532761Y-79690198D01*
X152569583Y-79720417D01*
X152599802Y-79757239D01*
X152622261Y-79799256D01*
X152636089Y-79844841D01*
X152641000Y-79894704D01*
X152641000Y-80476296D01*
X152636089Y-80526159D01*
X152622261Y-80571744D01*
X152599802Y-80613761D01*
X152569583Y-80650583D01*
X152532761Y-80680802D01*
X152490744Y-80703261D01*
X152445159Y-80717089D01*
X152395296Y-80722000D01*
X151388704Y-80722000D01*
X151338841Y-80717089D01*
X151293256Y-80703261D01*
X151251239Y-80680802D01*
X151214417Y-80650583D01*
X151184198Y-80613761D01*
X151161739Y-80571744D01*
X151147911Y-80526159D01*
X151143000Y-80476296D01*
X151143000Y-79894704D01*
X151147911Y-79844841D01*
X151161739Y-79799256D01*
X151184198Y-79757239D01*
X151214417Y-79720417D01*
X151251239Y-79690198D01*
X151293256Y-79667739D01*
X151338841Y-79653911D01*
X151388704Y-79649000D01*
X152395296Y-79649000D01*
X152445159Y-79653911D01*
G37*
G36*
X156001159Y-79653911D02*
G01*
X156046744Y-79667739D01*
X156088761Y-79690198D01*
X156125583Y-79720417D01*
X156155802Y-79757239D01*
X156178261Y-79799256D01*
X156192089Y-79844841D01*
X156197000Y-79894704D01*
X156197000Y-80476296D01*
X156192089Y-80526159D01*
X156178261Y-80571744D01*
X156155802Y-80613761D01*
X156125583Y-80650583D01*
X156088761Y-80680802D01*
X156046744Y-80703261D01*
X156001159Y-80717089D01*
X155951296Y-80722000D01*
X154944704Y-80722000D01*
X154894841Y-80717089D01*
X154849256Y-80703261D01*
X154807239Y-80680802D01*
X154770417Y-80650583D01*
X154740198Y-80613761D01*
X154717739Y-80571744D01*
X154703911Y-80526159D01*
X154699000Y-80476296D01*
X154699000Y-79894704D01*
X154703911Y-79844841D01*
X154717739Y-79799256D01*
X154740198Y-79757239D01*
X154770417Y-79720417D01*
X154807239Y-79690198D01*
X154849256Y-79667739D01*
X154894841Y-79653911D01*
X154944704Y-79649000D01*
X155951296Y-79649000D01*
X156001159Y-79653911D01*
G37*
G36*
X142539159Y-79575411D02*
G01*
X142584744Y-79589239D01*
X142626761Y-79611698D01*
X142663583Y-79641917D01*
X142693802Y-79678739D01*
X142716261Y-79720756D01*
X142730089Y-79766341D01*
X142735000Y-79816204D01*
X142735000Y-80397796D01*
X142730089Y-80447659D01*
X142716261Y-80493244D01*
X142693802Y-80535261D01*
X142663583Y-80572083D01*
X142626761Y-80602302D01*
X142584744Y-80624761D01*
X142539159Y-80638589D01*
X142489296Y-80643500D01*
X141482704Y-80643500D01*
X141432841Y-80638589D01*
X141387256Y-80624761D01*
X141345239Y-80602302D01*
X141308417Y-80572083D01*
X141278198Y-80535261D01*
X141255739Y-80493244D01*
X141241911Y-80447659D01*
X141237000Y-80397796D01*
X141237000Y-79816204D01*
X141241911Y-79766341D01*
X141255739Y-79720756D01*
X141278198Y-79678739D01*
X141308417Y-79641917D01*
X141345239Y-79611698D01*
X141387256Y-79589239D01*
X141432841Y-79575411D01*
X141482704Y-79570500D01*
X142489296Y-79570500D01*
X142539159Y-79575411D01*
G37*
G36*
X148635159Y-79575411D02*
G01*
X148680744Y-79589239D01*
X148722761Y-79611698D01*
X148759583Y-79641917D01*
X148789802Y-79678739D01*
X148812261Y-79720756D01*
X148826089Y-79766341D01*
X148831000Y-79816204D01*
X148831000Y-80397796D01*
X148826089Y-80447659D01*
X148812261Y-80493244D01*
X148789802Y-80535261D01*
X148759583Y-80572083D01*
X148722761Y-80602302D01*
X148680744Y-80624761D01*
X148635159Y-80638589D01*
X148585296Y-80643500D01*
X147578704Y-80643500D01*
X147528841Y-80638589D01*
X147483256Y-80624761D01*
X147441239Y-80602302D01*
X147404417Y-80572083D01*
X147374198Y-80535261D01*
X147351739Y-80493244D01*
X147337911Y-80447659D01*
X147333000Y-80397796D01*
X147333000Y-79816204D01*
X147337911Y-79766341D01*
X147351739Y-79720756D01*
X147374198Y-79678739D01*
X147404417Y-79641917D01*
X147441239Y-79611698D01*
X147483256Y-79589239D01*
X147528841Y-79575411D01*
X147578704Y-79570500D01*
X148585296Y-79570500D01*
X148635159Y-79575411D01*
G37*
G36*
X156001159Y-77778911D02*
G01*
X156046744Y-77792739D01*
X156088761Y-77815198D01*
X156125583Y-77845417D01*
X156155802Y-77882239D01*
X156178261Y-77924256D01*
X156192089Y-77969841D01*
X156197000Y-78019704D01*
X156197000Y-78601296D01*
X156192089Y-78651159D01*
X156178261Y-78696744D01*
X156155802Y-78738761D01*
X156125583Y-78775583D01*
X156088761Y-78805802D01*
X156046744Y-78828261D01*
X156001159Y-78842089D01*
X155951296Y-78847000D01*
X154944704Y-78847000D01*
X154894841Y-78842089D01*
X154849256Y-78828261D01*
X154807239Y-78805802D01*
X154770417Y-78775583D01*
X154740198Y-78738761D01*
X154717739Y-78696744D01*
X154703911Y-78651159D01*
X154699000Y-78601296D01*
X154699000Y-78019704D01*
X154703911Y-77969841D01*
X154717739Y-77924256D01*
X154740198Y-77882239D01*
X154770417Y-77845417D01*
X154807239Y-77815198D01*
X154849256Y-77792739D01*
X154894841Y-77778911D01*
X154944704Y-77774000D01*
X155951296Y-77774000D01*
X156001159Y-77778911D01*
G37*
G36*
X152445159Y-77778911D02*
G01*
X152490744Y-77792739D01*
X152532761Y-77815198D01*
X152569583Y-77845417D01*
X152599802Y-77882239D01*
X152622261Y-77924256D01*
X152636089Y-77969841D01*
X152641000Y-78019704D01*
X152641000Y-78601296D01*
X152636089Y-78651159D01*
X152622261Y-78696744D01*
X152599802Y-78738761D01*
X152569583Y-78775583D01*
X152532761Y-78805802D01*
X152490744Y-78828261D01*
X152445159Y-78842089D01*
X152395296Y-78847000D01*
X151388704Y-78847000D01*
X151338841Y-78842089D01*
X151293256Y-78828261D01*
X151251239Y-78805802D01*
X151214417Y-78775583D01*
X151184198Y-78738761D01*
X151161739Y-78696744D01*
X151147911Y-78651159D01*
X151143000Y-78601296D01*
X151143000Y-78019704D01*
X151147911Y-77969841D01*
X151161739Y-77924256D01*
X151184198Y-77882239D01*
X151214417Y-77845417D01*
X151251239Y-77815198D01*
X151293256Y-77792739D01*
X151338841Y-77778911D01*
X151388704Y-77774000D01*
X152395296Y-77774000D01*
X152445159Y-77778911D01*
G37*
G36*
X148635159Y-77700411D02*
G01*
X148680744Y-77714239D01*
X148722761Y-77736698D01*
X148759583Y-77766917D01*
X148789802Y-77803739D01*
X148812261Y-77845756D01*
X148826089Y-77891341D01*
X148831000Y-77941204D01*
X148831000Y-78522796D01*
X148826089Y-78572659D01*
X148812261Y-78618244D01*
X148789802Y-78660261D01*
X148759583Y-78697083D01*
X148722761Y-78727302D01*
X148680744Y-78749761D01*
X148635159Y-78763589D01*
X148585296Y-78768500D01*
X147578704Y-78768500D01*
X147528841Y-78763589D01*
X147483256Y-78749761D01*
X147441239Y-78727302D01*
X147404417Y-78697083D01*
X147374198Y-78660261D01*
X147351739Y-78618244D01*
X147337911Y-78572659D01*
X147333000Y-78522796D01*
X147333000Y-77941204D01*
X147337911Y-77891341D01*
X147351739Y-77845756D01*
X147374198Y-77803739D01*
X147404417Y-77766917D01*
X147441239Y-77736698D01*
X147483256Y-77714239D01*
X147528841Y-77700411D01*
X147578704Y-77695500D01*
X148585296Y-77695500D01*
X148635159Y-77700411D01*
G37*
G36*
X142539159Y-77700411D02*
G01*
X142584744Y-77714239D01*
X142626761Y-77736698D01*
X142663583Y-77766917D01*
X142693802Y-77803739D01*
X142716261Y-77845756D01*
X142730089Y-77891341D01*
X142735000Y-77941204D01*
X142735000Y-78522796D01*
X142730089Y-78572659D01*
X142716261Y-78618244D01*
X142693802Y-78660261D01*
X142663583Y-78697083D01*
X142626761Y-78727302D01*
X142584744Y-78749761D01*
X142539159Y-78763589D01*
X142489296Y-78768500D01*
X141482704Y-78768500D01*
X141432841Y-78763589D01*
X141387256Y-78749761D01*
X141345239Y-78727302D01*
X141308417Y-78697083D01*
X141278198Y-78660261D01*
X141255739Y-78618244D01*
X141241911Y-78572659D01*
X141237000Y-78522796D01*
X141237000Y-77941204D01*
X141241911Y-77891341D01*
X141255739Y-77845756D01*
X141278198Y-77803739D01*
X141308417Y-77766917D01*
X141345239Y-77736698D01*
X141387256Y-77714239D01*
X141432841Y-77700411D01*
X141482704Y-77695500D01*
X142489296Y-77695500D01*
X142539159Y-77700411D01*
G37*
G36*
X182804039Y-76828935D02*
G01*
X182892196Y-76846470D01*
X182989484Y-76886768D01*
X183058277Y-76915263D01*
X183132505Y-76964861D01*
X183207749Y-77015137D01*
X183334863Y-77142251D01*
X183356745Y-77175000D01*
X183434737Y-77291723D01*
X183451530Y-77332266D01*
X183503530Y-77457804D01*
X183511724Y-77499000D01*
X183538600Y-77634115D01*
X183538600Y-77813885D01*
X183523193Y-77891341D01*
X183503530Y-77990196D01*
X183491307Y-78019704D01*
X183434737Y-78156277D01*
X183434736Y-78156278D01*
X183334863Y-78305749D01*
X183207749Y-78432863D01*
X183132505Y-78483139D01*
X183058277Y-78532737D01*
X183010364Y-78552583D01*
X182892196Y-78601530D01*
X182808167Y-78618244D01*
X182715885Y-78636600D01*
X182536115Y-78636600D01*
X182443833Y-78618244D01*
X182359804Y-78601530D01*
X182241636Y-78552583D01*
X182193723Y-78532737D01*
X182119495Y-78483139D01*
X182044251Y-78432863D01*
X181917137Y-78305749D01*
X181817264Y-78156278D01*
X181817263Y-78156277D01*
X181760693Y-78019704D01*
X181748470Y-77990196D01*
X181728807Y-77891341D01*
X181713400Y-77813885D01*
X181713400Y-77634115D01*
X181740276Y-77499000D01*
X181748470Y-77457804D01*
X181800470Y-77332266D01*
X181817263Y-77291723D01*
X181895255Y-77175000D01*
X181917137Y-77142251D01*
X182044251Y-77015137D01*
X182119495Y-76964861D01*
X182193723Y-76915263D01*
X182262516Y-76886768D01*
X182359804Y-76846470D01*
X182447961Y-76828935D01*
X182536115Y-76811400D01*
X182715885Y-76811400D01*
X182804039Y-76828935D01*
G37*
G36*
X177724039Y-76828935D02*
G01*
X177812196Y-76846470D01*
X177909484Y-76886768D01*
X177978277Y-76915263D01*
X178052505Y-76964861D01*
X178127749Y-77015137D01*
X178254863Y-77142251D01*
X178276745Y-77175000D01*
X178354737Y-77291723D01*
X178371530Y-77332266D01*
X178423530Y-77457804D01*
X178431724Y-77499000D01*
X178458600Y-77634115D01*
X178458600Y-77813885D01*
X178443193Y-77891341D01*
X178423530Y-77990196D01*
X178411307Y-78019704D01*
X178354737Y-78156277D01*
X178354736Y-78156278D01*
X178254863Y-78305749D01*
X178127749Y-78432863D01*
X178052505Y-78483139D01*
X177978277Y-78532737D01*
X177930364Y-78552583D01*
X177812196Y-78601530D01*
X177728167Y-78618244D01*
X177635885Y-78636600D01*
X177456115Y-78636600D01*
X177363833Y-78618244D01*
X177279804Y-78601530D01*
X177161636Y-78552583D01*
X177113723Y-78532737D01*
X177039495Y-78483139D01*
X176964251Y-78432863D01*
X176837137Y-78305749D01*
X176737264Y-78156278D01*
X176737263Y-78156277D01*
X176680693Y-78019704D01*
X176668470Y-77990196D01*
X176648807Y-77891341D01*
X176633400Y-77813885D01*
X176633400Y-77634115D01*
X176660276Y-77499000D01*
X176668470Y-77457804D01*
X176720470Y-77332266D01*
X176737263Y-77291723D01*
X176815255Y-77175000D01*
X176837137Y-77142251D01*
X176964251Y-77015137D01*
X177039495Y-76964861D01*
X177113723Y-76915263D01*
X177182516Y-76886768D01*
X177279804Y-76846470D01*
X177367961Y-76828935D01*
X177456115Y-76811400D01*
X177635885Y-76811400D01*
X177724039Y-76828935D01*
G37*
G36*
X180264039Y-76828935D02*
G01*
X180352196Y-76846470D01*
X180449484Y-76886768D01*
X180518277Y-76915263D01*
X180592505Y-76964861D01*
X180667749Y-77015137D01*
X180794863Y-77142251D01*
X180816745Y-77175000D01*
X180894737Y-77291723D01*
X180911530Y-77332266D01*
X180963530Y-77457804D01*
X180971724Y-77499000D01*
X180998600Y-77634115D01*
X180998600Y-77813885D01*
X180983193Y-77891341D01*
X180963530Y-77990196D01*
X180951307Y-78019704D01*
X180894737Y-78156277D01*
X180894736Y-78156278D01*
X180794863Y-78305749D01*
X180667749Y-78432863D01*
X180592505Y-78483139D01*
X180518277Y-78532737D01*
X180470364Y-78552583D01*
X180352196Y-78601530D01*
X180268167Y-78618244D01*
X180175885Y-78636600D01*
X179996115Y-78636600D01*
X179903833Y-78618244D01*
X179819804Y-78601530D01*
X179701636Y-78552583D01*
X179653723Y-78532737D01*
X179579495Y-78483139D01*
X179504251Y-78432863D01*
X179377137Y-78305749D01*
X179277264Y-78156278D01*
X179277263Y-78156277D01*
X179220693Y-78019704D01*
X179208470Y-77990196D01*
X179188807Y-77891341D01*
X179173400Y-77813885D01*
X179173400Y-77634115D01*
X179200276Y-77499000D01*
X179208470Y-77457804D01*
X179260470Y-77332266D01*
X179277263Y-77291723D01*
X179355255Y-77175000D01*
X179377137Y-77142251D01*
X179504251Y-77015137D01*
X179579495Y-76964861D01*
X179653723Y-76915263D01*
X179722516Y-76886768D01*
X179819804Y-76846470D01*
X179907961Y-76828935D01*
X179996115Y-76811400D01*
X180175885Y-76811400D01*
X180264039Y-76828935D01*
G37*
G36*
X185344039Y-76828935D02*
G01*
X185432196Y-76846470D01*
X185529484Y-76886768D01*
X185598277Y-76915263D01*
X185672505Y-76964861D01*
X185747749Y-77015137D01*
X185874863Y-77142251D01*
X185896745Y-77175000D01*
X185974737Y-77291723D01*
X185991530Y-77332266D01*
X186043530Y-77457804D01*
X186051724Y-77499000D01*
X186078600Y-77634115D01*
X186078600Y-77813885D01*
X186063193Y-77891341D01*
X186043530Y-77990196D01*
X186031307Y-78019704D01*
X185974737Y-78156277D01*
X185974736Y-78156278D01*
X185874863Y-78305749D01*
X185747749Y-78432863D01*
X185672505Y-78483139D01*
X185598277Y-78532737D01*
X185550364Y-78552583D01*
X185432196Y-78601530D01*
X185348167Y-78618244D01*
X185255885Y-78636600D01*
X185076115Y-78636600D01*
X184983833Y-78618244D01*
X184899804Y-78601530D01*
X184781636Y-78552583D01*
X184733723Y-78532737D01*
X184659495Y-78483139D01*
X184584251Y-78432863D01*
X184457137Y-78305749D01*
X184357264Y-78156278D01*
X184357263Y-78156277D01*
X184300693Y-78019704D01*
X184288470Y-77990196D01*
X184268807Y-77891341D01*
X184253400Y-77813885D01*
X184253400Y-77634115D01*
X184280276Y-77499000D01*
X184288470Y-77457804D01*
X184340470Y-77332266D01*
X184357263Y-77291723D01*
X184435255Y-77175000D01*
X184457137Y-77142251D01*
X184584251Y-77015137D01*
X184659495Y-76964861D01*
X184733723Y-76915263D01*
X184802516Y-76886768D01*
X184899804Y-76846470D01*
X184987961Y-76828935D01*
X185076115Y-76811400D01*
X185255885Y-76811400D01*
X185344039Y-76828935D01*
G37*
G36*
X171027000Y-78273000D02*
G01*
X167779000Y-78273000D01*
X167779000Y-77175000D01*
X171027000Y-77175000D01*
X171027000Y-78273000D01*
G37*
G36*
X165977000Y-78273000D02*
G01*
X162729000Y-78273000D01*
X162729000Y-77175000D01*
X165977000Y-77175000D01*
X165977000Y-78273000D01*
G37*
G36*
X139073922Y-76654329D02*
G01*
X139123767Y-76664244D01*
X139264626Y-76722590D01*
X139349330Y-76779187D01*
X139391395Y-76807294D01*
X139499206Y-76915105D01*
X139499312Y-76915264D01*
X139583910Y-77041874D01*
X139642256Y-77182733D01*
X139672000Y-77332268D01*
X139672000Y-77484732D01*
X139642256Y-77634267D01*
X139583910Y-77775126D01*
X139532164Y-77852569D01*
X139499206Y-77901895D01*
X139391395Y-78009706D01*
X139349330Y-78037813D01*
X139264626Y-78094410D01*
X139123767Y-78152756D01*
X139106060Y-78156278D01*
X138974234Y-78182500D01*
X138821766Y-78182500D01*
X138689940Y-78156278D01*
X138672233Y-78152756D01*
X138531374Y-78094410D01*
X138446670Y-78037813D01*
X138404605Y-78009706D01*
X138296794Y-77901895D01*
X138263836Y-77852569D01*
X138212090Y-77775126D01*
X138153744Y-77634267D01*
X138124000Y-77484732D01*
X138124000Y-77332268D01*
X138153744Y-77182733D01*
X138212090Y-77041874D01*
X138296688Y-76915264D01*
X138296794Y-76915105D01*
X138404605Y-76807294D01*
X138446670Y-76779187D01*
X138531374Y-76722590D01*
X138672233Y-76664244D01*
X138722078Y-76654329D01*
X138821766Y-76634500D01*
X138974234Y-76634500D01*
X139073922Y-76654329D01*
G37*
G36*
X134073922Y-76654329D02*
G01*
X134123767Y-76664244D01*
X134264626Y-76722590D01*
X134349330Y-76779187D01*
X134391395Y-76807294D01*
X134499206Y-76915105D01*
X134499312Y-76915264D01*
X134583910Y-77041874D01*
X134642256Y-77182733D01*
X134672000Y-77332268D01*
X134672000Y-77484732D01*
X134642256Y-77634267D01*
X134583910Y-77775126D01*
X134532164Y-77852569D01*
X134499206Y-77901895D01*
X134391395Y-78009706D01*
X134349330Y-78037813D01*
X134264626Y-78094410D01*
X134123767Y-78152756D01*
X134106060Y-78156278D01*
X133974234Y-78182500D01*
X133821766Y-78182500D01*
X133689940Y-78156278D01*
X133672233Y-78152756D01*
X133531374Y-78094410D01*
X133446670Y-78037813D01*
X133404605Y-78009706D01*
X133296794Y-77901895D01*
X133263836Y-77852569D01*
X133212090Y-77775126D01*
X133153744Y-77634267D01*
X133124000Y-77484732D01*
X133124000Y-77332268D01*
X133153744Y-77182733D01*
X133212090Y-77041874D01*
X133296688Y-76915264D01*
X133296794Y-76915105D01*
X133404605Y-76807294D01*
X133446670Y-76779187D01*
X133531374Y-76722590D01*
X133672233Y-76664244D01*
X133722078Y-76654329D01*
X133821766Y-76634500D01*
X133974234Y-76634500D01*
X134073922Y-76654329D01*
G37*
G36*
X159958902Y-74950919D02*
G01*
X159958905Y-74950920D01*
X159958904Y-74950920D01*
X160195307Y-75048841D01*
X160309893Y-75125405D01*
X160400170Y-75185726D01*
X160408064Y-75191001D01*
X160588999Y-75371936D01*
X160731159Y-75584693D01*
X160737804Y-75600736D01*
X160829081Y-75821098D01*
X160879000Y-76072058D01*
X160879000Y-76327942D01*
X160829081Y-76578902D01*
X160829080Y-76578904D01*
X160731159Y-76815307D01*
X160664476Y-76915105D01*
X160597638Y-77015136D01*
X160588999Y-77028064D01*
X160408064Y-77208999D01*
X160195307Y-77351159D01*
X160028144Y-77420400D01*
X159958902Y-77449081D01*
X159707942Y-77499000D01*
X159452058Y-77499000D01*
X159201098Y-77449081D01*
X159131856Y-77420400D01*
X158964693Y-77351159D01*
X158751936Y-77208999D01*
X158571001Y-77028064D01*
X158562363Y-77015136D01*
X158495524Y-76915105D01*
X158428841Y-76815307D01*
X158330920Y-76578904D01*
X158330919Y-76578902D01*
X158281000Y-76327942D01*
X158281000Y-76072058D01*
X158330919Y-75821098D01*
X158422196Y-75600736D01*
X158428841Y-75584693D01*
X158571001Y-75371936D01*
X158751936Y-75191001D01*
X158759831Y-75185726D01*
X158850107Y-75125405D01*
X158964693Y-75048841D01*
X159201096Y-74950920D01*
X159201095Y-74950920D01*
X159201098Y-74950919D01*
X159452058Y-74901000D01*
X159707942Y-74901000D01*
X159958902Y-74950919D01*
G37*
G36*
X142539159Y-76097911D02*
G01*
X142584744Y-76111739D01*
X142626761Y-76134198D01*
X142663583Y-76164417D01*
X142693802Y-76201239D01*
X142716261Y-76243256D01*
X142730089Y-76288841D01*
X142735000Y-76338704D01*
X142735000Y-76920296D01*
X142730089Y-76970159D01*
X142716261Y-77015744D01*
X142693802Y-77057761D01*
X142663583Y-77094583D01*
X142626761Y-77124802D01*
X142584744Y-77147261D01*
X142539159Y-77161089D01*
X142489296Y-77166000D01*
X141482704Y-77166000D01*
X141432841Y-77161089D01*
X141387256Y-77147261D01*
X141345239Y-77124802D01*
X141308417Y-77094583D01*
X141278198Y-77057761D01*
X141255739Y-77015744D01*
X141241911Y-76970159D01*
X141237000Y-76920296D01*
X141237000Y-76338704D01*
X141241911Y-76288841D01*
X141255739Y-76243256D01*
X141278198Y-76201239D01*
X141308417Y-76164417D01*
X141345239Y-76134198D01*
X141387256Y-76111739D01*
X141432841Y-76097911D01*
X141482704Y-76093000D01*
X142489296Y-76093000D01*
X142539159Y-76097911D01*
G37*
G36*
X152445159Y-76097911D02*
G01*
X152490744Y-76111739D01*
X152532761Y-76134198D01*
X152569583Y-76164417D01*
X152599802Y-76201239D01*
X152622261Y-76243256D01*
X152636089Y-76288841D01*
X152641000Y-76338704D01*
X152641000Y-76920296D01*
X152636089Y-76970159D01*
X152622261Y-77015744D01*
X152599802Y-77057761D01*
X152569583Y-77094583D01*
X152532761Y-77124802D01*
X152490744Y-77147261D01*
X152445159Y-77161089D01*
X152395296Y-77166000D01*
X151388704Y-77166000D01*
X151338841Y-77161089D01*
X151293256Y-77147261D01*
X151251239Y-77124802D01*
X151214417Y-77094583D01*
X151184198Y-77057761D01*
X151161739Y-77015744D01*
X151147911Y-76970159D01*
X151143000Y-76920296D01*
X151143000Y-76338704D01*
X151147911Y-76288841D01*
X151161739Y-76243256D01*
X151184198Y-76201239D01*
X151214417Y-76164417D01*
X151251239Y-76134198D01*
X151293256Y-76111739D01*
X151338841Y-76097911D01*
X151388704Y-76093000D01*
X152395296Y-76093000D01*
X152445159Y-76097911D01*
G37*
G36*
X156001159Y-76097911D02*
G01*
X156046744Y-76111739D01*
X156088761Y-76134198D01*
X156125583Y-76164417D01*
X156155802Y-76201239D01*
X156178261Y-76243256D01*
X156192089Y-76288841D01*
X156197000Y-76338704D01*
X156197000Y-76920296D01*
X156192089Y-76970159D01*
X156178261Y-77015744D01*
X156155802Y-77057761D01*
X156125583Y-77094583D01*
X156088761Y-77124802D01*
X156046744Y-77147261D01*
X156001159Y-77161089D01*
X155951296Y-77166000D01*
X154944704Y-77166000D01*
X154894841Y-77161089D01*
X154849256Y-77147261D01*
X154807239Y-77124802D01*
X154770417Y-77094583D01*
X154740198Y-77057761D01*
X154717739Y-77015744D01*
X154703911Y-76970159D01*
X154699000Y-76920296D01*
X154699000Y-76338704D01*
X154703911Y-76288841D01*
X154717739Y-76243256D01*
X154740198Y-76201239D01*
X154770417Y-76164417D01*
X154807239Y-76134198D01*
X154849256Y-76111739D01*
X154894841Y-76097911D01*
X154944704Y-76093000D01*
X155951296Y-76093000D01*
X156001159Y-76097911D01*
G37*
G36*
X148635159Y-76097911D02*
G01*
X148680744Y-76111739D01*
X148722761Y-76134198D01*
X148759583Y-76164417D01*
X148789802Y-76201239D01*
X148812261Y-76243256D01*
X148826089Y-76288841D01*
X148831000Y-76338704D01*
X148831000Y-76920296D01*
X148826089Y-76970159D01*
X148812261Y-77015744D01*
X148789802Y-77057761D01*
X148759583Y-77094583D01*
X148722761Y-77124802D01*
X148680744Y-77147261D01*
X148635159Y-77161089D01*
X148585296Y-77166000D01*
X147578704Y-77166000D01*
X147528841Y-77161089D01*
X147483256Y-77147261D01*
X147441239Y-77124802D01*
X147404417Y-77094583D01*
X147374198Y-77057761D01*
X147351739Y-77015744D01*
X147337911Y-76970159D01*
X147333000Y-76920296D01*
X147333000Y-76338704D01*
X147337911Y-76288841D01*
X147351739Y-76243256D01*
X147374198Y-76201239D01*
X147404417Y-76164417D01*
X147441239Y-76134198D01*
X147483256Y-76111739D01*
X147528841Y-76097911D01*
X147578704Y-76093000D01*
X148585296Y-76093000D01*
X148635159Y-76097911D01*
G37*
G36*
X186078600Y-76096600D02*
G01*
X184253400Y-76096600D01*
X184253400Y-74271400D01*
X186078600Y-74271400D01*
X186078600Y-76096600D01*
G37*
G36*
X182804040Y-74288935D02*
G01*
X182892196Y-74306470D01*
X182989484Y-74346768D01*
X183058277Y-74375263D01*
X183116013Y-74413841D01*
X183207749Y-74475137D01*
X183334863Y-74602251D01*
X183334864Y-74602253D01*
X183434737Y-74751723D01*
X183463232Y-74820516D01*
X183503530Y-74917804D01*
X183503530Y-74917806D01*
X183538600Y-75094115D01*
X183538600Y-75273885D01*
X183531801Y-75308064D01*
X183503530Y-75450196D01*
X183474769Y-75519631D01*
X183434737Y-75616277D01*
X183385139Y-75690505D01*
X183334863Y-75765749D01*
X183207749Y-75892863D01*
X183132505Y-75943139D01*
X183058277Y-75992737D01*
X182989484Y-76021232D01*
X182892196Y-76061530D01*
X182804040Y-76079065D01*
X182715885Y-76096600D01*
X182536115Y-76096600D01*
X182447960Y-76079065D01*
X182359804Y-76061530D01*
X182262516Y-76021232D01*
X182193723Y-75992737D01*
X182119495Y-75943139D01*
X182044251Y-75892863D01*
X181917137Y-75765749D01*
X181866861Y-75690505D01*
X181817263Y-75616277D01*
X181777231Y-75519631D01*
X181748470Y-75450196D01*
X181720199Y-75308064D01*
X181713400Y-75273885D01*
X181713400Y-75094115D01*
X181748470Y-74917806D01*
X181748470Y-74917804D01*
X181788768Y-74820516D01*
X181817263Y-74751723D01*
X181917136Y-74602253D01*
X181917137Y-74602251D01*
X182044251Y-74475137D01*
X182135987Y-74413841D01*
X182193723Y-74375263D01*
X182262516Y-74346768D01*
X182359804Y-74306470D01*
X182447961Y-74288935D01*
X182536115Y-74271400D01*
X182715885Y-74271400D01*
X182804040Y-74288935D01*
G37*
G36*
X180264040Y-74288935D02*
G01*
X180352196Y-74306470D01*
X180449484Y-74346768D01*
X180518277Y-74375263D01*
X180576013Y-74413841D01*
X180667749Y-74475137D01*
X180794863Y-74602251D01*
X180794864Y-74602253D01*
X180894737Y-74751723D01*
X180923232Y-74820516D01*
X180963530Y-74917804D01*
X180963530Y-74917806D01*
X180998600Y-75094115D01*
X180998600Y-75273885D01*
X180991801Y-75308064D01*
X180963530Y-75450196D01*
X180934769Y-75519631D01*
X180894737Y-75616277D01*
X180845139Y-75690505D01*
X180794863Y-75765749D01*
X180667749Y-75892863D01*
X180592505Y-75943139D01*
X180518277Y-75992737D01*
X180449484Y-76021232D01*
X180352196Y-76061530D01*
X180264040Y-76079065D01*
X180175885Y-76096600D01*
X179996115Y-76096600D01*
X179907960Y-76079065D01*
X179819804Y-76061530D01*
X179722516Y-76021232D01*
X179653723Y-75992737D01*
X179579495Y-75943139D01*
X179504251Y-75892863D01*
X179377137Y-75765749D01*
X179326861Y-75690505D01*
X179277263Y-75616277D01*
X179237231Y-75519631D01*
X179208470Y-75450196D01*
X179180199Y-75308064D01*
X179173400Y-75273885D01*
X179173400Y-75094115D01*
X179208470Y-74917806D01*
X179208470Y-74917804D01*
X179248768Y-74820516D01*
X179277263Y-74751723D01*
X179377136Y-74602253D01*
X179377137Y-74602251D01*
X179504251Y-74475137D01*
X179595987Y-74413841D01*
X179653723Y-74375263D01*
X179722516Y-74346768D01*
X179819804Y-74306470D01*
X179907961Y-74288935D01*
X179996115Y-74271400D01*
X180175885Y-74271400D01*
X180264040Y-74288935D01*
G37*
G36*
X177724040Y-74288935D02*
G01*
X177812196Y-74306470D01*
X177909484Y-74346768D01*
X177978277Y-74375263D01*
X178036013Y-74413841D01*
X178127749Y-74475137D01*
X178254863Y-74602251D01*
X178254864Y-74602253D01*
X178354737Y-74751723D01*
X178383232Y-74820516D01*
X178423530Y-74917804D01*
X178423530Y-74917806D01*
X178458600Y-75094115D01*
X178458600Y-75273885D01*
X178451801Y-75308064D01*
X178423530Y-75450196D01*
X178394769Y-75519631D01*
X178354737Y-75616277D01*
X178305139Y-75690505D01*
X178254863Y-75765749D01*
X178127749Y-75892863D01*
X178052505Y-75943139D01*
X177978277Y-75992737D01*
X177909484Y-76021232D01*
X177812196Y-76061530D01*
X177724040Y-76079065D01*
X177635885Y-76096600D01*
X177456115Y-76096600D01*
X177367960Y-76079065D01*
X177279804Y-76061530D01*
X177182516Y-76021232D01*
X177113723Y-75992737D01*
X177039495Y-75943139D01*
X176964251Y-75892863D01*
X176837137Y-75765749D01*
X176786861Y-75690505D01*
X176737263Y-75616277D01*
X176697231Y-75519631D01*
X176668470Y-75450196D01*
X176640199Y-75308064D01*
X176633400Y-75273885D01*
X176633400Y-75094115D01*
X176668470Y-74917806D01*
X176668470Y-74917804D01*
X176708768Y-74820516D01*
X176737263Y-74751723D01*
X176837136Y-74602253D01*
X176837137Y-74602251D01*
X176964251Y-74475137D01*
X177055987Y-74413841D01*
X177113723Y-74375263D01*
X177182516Y-74346768D01*
X177279804Y-74306470D01*
X177367961Y-74288935D01*
X177456115Y-74271400D01*
X177635885Y-74271400D01*
X177724040Y-74288935D01*
G37*
G36*
X171027000Y-75733000D02*
G01*
X167779000Y-75733000D01*
X167779000Y-74635000D01*
X171027000Y-74635000D01*
X171027000Y-75733000D01*
G37*
G36*
X165977000Y-75733000D02*
G01*
X162729000Y-75733000D01*
X162729000Y-74635000D01*
X165977000Y-74635000D01*
X165977000Y-75733000D01*
G37*
G36*
X140025225Y-73718890D02*
G01*
X140113029Y-73745526D01*
X140147562Y-73756001D01*
X140260309Y-73816265D01*
X140359133Y-73897367D01*
X140440235Y-73996190D01*
X140440237Y-73996194D01*
X140500498Y-74108935D01*
X140537610Y-74231274D01*
X140547000Y-74326616D01*
X140547000Y-75090384D01*
X140537610Y-75185726D01*
X140518172Y-75249802D01*
X140500499Y-75308063D01*
X140440235Y-75420810D01*
X140359133Y-75519633D01*
X140260310Y-75600735D01*
X140147563Y-75660999D01*
X140113030Y-75671474D01*
X140025226Y-75698110D01*
X139898000Y-75710640D01*
X139770775Y-75698110D01*
X139682971Y-75671474D01*
X139648438Y-75660999D01*
X139535691Y-75600735D01*
X139436868Y-75519633D01*
X139355766Y-75420810D01*
X139295501Y-75308063D01*
X139259991Y-75191001D01*
X139258390Y-75185725D01*
X139249000Y-75090384D01*
X139249000Y-74326617D01*
X139258390Y-74231275D01*
X139295502Y-74108936D01*
X139301686Y-74097367D01*
X139355765Y-73996191D01*
X139436867Y-73897367D01*
X139535690Y-73816265D01*
X139648437Y-73756001D01*
X139682970Y-73745526D01*
X139770774Y-73718890D01*
X139898000Y-73706360D01*
X140025225Y-73718890D01*
G37*
G36*
X133025226Y-73718890D02*
G01*
X133113030Y-73745526D01*
X133147563Y-73756001D01*
X133260310Y-73816265D01*
X133359133Y-73897367D01*
X133440235Y-73996190D01*
X133440237Y-73996194D01*
X133500498Y-74108935D01*
X133537610Y-74231274D01*
X133547000Y-74326616D01*
X133547000Y-75090384D01*
X133537610Y-75185726D01*
X133518172Y-75249802D01*
X133500499Y-75308063D01*
X133440235Y-75420810D01*
X133359133Y-75519633D01*
X133260309Y-75600735D01*
X133147562Y-75660999D01*
X133113029Y-75671474D01*
X133025225Y-75698110D01*
X132898000Y-75710640D01*
X132770774Y-75698110D01*
X132682970Y-75671474D01*
X132648437Y-75660999D01*
X132535690Y-75600735D01*
X132436867Y-75519633D01*
X132355765Y-75420809D01*
X132295501Y-75308062D01*
X132276612Y-75245792D01*
X132258390Y-75185725D01*
X132249000Y-75090383D01*
X132249000Y-74326616D01*
X132258390Y-74231275D01*
X132270761Y-74190495D01*
X132295501Y-74108937D01*
X132355766Y-73996190D01*
X132436868Y-73897367D01*
X132535691Y-73816265D01*
X132648438Y-73756001D01*
X132682971Y-73745526D01*
X132770775Y-73718890D01*
X132898000Y-73706360D01*
X133025226Y-73718890D01*
G37*
G36*
X148635159Y-74222911D02*
G01*
X148680744Y-74236739D01*
X148722761Y-74259198D01*
X148759583Y-74289417D01*
X148789802Y-74326239D01*
X148812261Y-74368256D01*
X148826089Y-74413841D01*
X148831000Y-74463704D01*
X148831000Y-75045296D01*
X148826089Y-75095159D01*
X148812261Y-75140744D01*
X148789802Y-75182761D01*
X148759583Y-75219583D01*
X148722761Y-75249802D01*
X148680744Y-75272261D01*
X148635159Y-75286089D01*
X148585296Y-75291000D01*
X147578704Y-75291000D01*
X147528841Y-75286089D01*
X147483256Y-75272261D01*
X147441239Y-75249802D01*
X147404417Y-75219583D01*
X147374198Y-75182761D01*
X147351739Y-75140744D01*
X147337911Y-75095159D01*
X147333000Y-75045296D01*
X147333000Y-74463704D01*
X147337911Y-74413841D01*
X147351739Y-74368256D01*
X147374198Y-74326239D01*
X147404417Y-74289417D01*
X147441239Y-74259198D01*
X147483256Y-74236739D01*
X147528841Y-74222911D01*
X147578704Y-74218000D01*
X148585296Y-74218000D01*
X148635159Y-74222911D01*
G37*
G36*
X142539159Y-74222911D02*
G01*
X142584744Y-74236739D01*
X142626761Y-74259198D01*
X142663583Y-74289417D01*
X142693802Y-74326239D01*
X142716261Y-74368256D01*
X142730089Y-74413841D01*
X142735000Y-74463704D01*
X142735000Y-75045296D01*
X142730089Y-75095159D01*
X142716261Y-75140744D01*
X142693802Y-75182761D01*
X142663583Y-75219583D01*
X142626761Y-75249802D01*
X142584744Y-75272261D01*
X142539159Y-75286089D01*
X142489296Y-75291000D01*
X141482704Y-75291000D01*
X141432841Y-75286089D01*
X141387256Y-75272261D01*
X141345239Y-75249802D01*
X141308417Y-75219583D01*
X141278198Y-75182761D01*
X141255739Y-75140744D01*
X141241911Y-75095159D01*
X141237000Y-75045296D01*
X141237000Y-74463704D01*
X141241911Y-74413841D01*
X141255739Y-74368256D01*
X141278198Y-74326239D01*
X141308417Y-74289417D01*
X141345239Y-74259198D01*
X141387256Y-74236739D01*
X141432841Y-74222911D01*
X141482704Y-74218000D01*
X142489296Y-74218000D01*
X142539159Y-74222911D01*
G37*
G36*
X152445159Y-74222911D02*
G01*
X152490744Y-74236739D01*
X152532761Y-74259198D01*
X152569583Y-74289417D01*
X152599802Y-74326239D01*
X152622261Y-74368256D01*
X152636089Y-74413841D01*
X152641000Y-74463704D01*
X152641000Y-75045296D01*
X152636089Y-75095159D01*
X152622261Y-75140744D01*
X152599802Y-75182761D01*
X152569583Y-75219583D01*
X152532761Y-75249802D01*
X152490744Y-75272261D01*
X152445159Y-75286089D01*
X152395296Y-75291000D01*
X151388704Y-75291000D01*
X151338841Y-75286089D01*
X151293256Y-75272261D01*
X151251239Y-75249802D01*
X151214417Y-75219583D01*
X151184198Y-75182761D01*
X151161739Y-75140744D01*
X151147911Y-75095159D01*
X151143000Y-75045296D01*
X151143000Y-74463704D01*
X151147911Y-74413841D01*
X151161739Y-74368256D01*
X151184198Y-74326239D01*
X151214417Y-74289417D01*
X151251239Y-74259198D01*
X151293256Y-74236739D01*
X151338841Y-74222911D01*
X151388704Y-74218000D01*
X152395296Y-74218000D01*
X152445159Y-74222911D01*
G37*
G36*
X156001159Y-74222911D02*
G01*
X156046744Y-74236739D01*
X156088761Y-74259198D01*
X156125583Y-74289417D01*
X156155802Y-74326239D01*
X156178261Y-74368256D01*
X156192089Y-74413841D01*
X156197000Y-74463704D01*
X156197000Y-75045296D01*
X156192089Y-75095159D01*
X156178261Y-75140744D01*
X156155802Y-75182761D01*
X156125583Y-75219583D01*
X156088761Y-75249802D01*
X156046744Y-75272261D01*
X156001159Y-75286089D01*
X155951296Y-75291000D01*
X154944704Y-75291000D01*
X154894841Y-75286089D01*
X154849256Y-75272261D01*
X154807239Y-75249802D01*
X154770417Y-75219583D01*
X154740198Y-75182761D01*
X154717739Y-75140744D01*
X154703911Y-75095159D01*
X154699000Y-75045296D01*
X154699000Y-74463704D01*
X154703911Y-74413841D01*
X154717739Y-74368256D01*
X154740198Y-74326239D01*
X154770417Y-74289417D01*
X154807239Y-74259198D01*
X154849256Y-74236739D01*
X154894841Y-74222911D01*
X154944704Y-74218000D01*
X155951296Y-74218000D01*
X156001159Y-74222911D01*
G37*
M02*
