G04 #@! TF.GenerationSoftware,KiCad,Pcbnew,5.1.6-c6e7f7d~87~ubuntu18.04.1*
G04 #@! TF.CreationDate,2020-07-15T21:40:22+02:00*
G04 #@! TF.ProjectId,Mini-BT-Pcb-328P,4d696e69-2d42-4542-9d50-63622d333238,2.0*
G04 #@! TF.SameCoordinates,Original*
G04 #@! TF.FileFunction,Paste,Bot*
G04 #@! TF.FilePolarity,Positive*
%FSLAX46Y46*%
G04 Gerber Fmt 4.6, Leading zero omitted, Abs format (unit mm)*
G04 Created by KiCad (PCBNEW 5.1.6-c6e7f7d~87~ubuntu18.04.1) date 2020-07-15 21:40:22*
%MOMM*%
%LPD*%
G01*
G04 APERTURE LIST*
%ADD10R,2.180000X1.600000*%
%ADD11R,2.540000X3.510000*%
%ADD12R,3.020000X1.510000*%
%ADD13R,2.510000X1.000000*%
%ADD14R,1.500000X1.900000*%
%ADD15R,0.400000X1.350000*%
%ADD16R,1.000000X1.400000*%
%ADD17R,2.000000X3.800000*%
%ADD18R,2.000000X1.500000*%
%ADD19R,0.800000X1.900000*%
%ADD20R,3.960000X5.080000*%
%ADD21R,3.960000X2.340000*%
%ADD22R,1.750000X2.650000*%
G04 APERTURE END LIST*
D10*
X180622000Y-81280000D03*
X171422000Y-81280000D03*
G36*
G01*
X169020000Y-77004000D02*
X169020000Y-75904000D01*
G75*
G02*
X169270000Y-75654000I250000J0D01*
G01*
X171770000Y-75654000D01*
G75*
G02*
X172020000Y-75904000I0J-250000D01*
G01*
X172020000Y-77004000D01*
G75*
G02*
X171770000Y-77254000I-250000J0D01*
G01*
X169270000Y-77254000D01*
G75*
G02*
X169020000Y-77004000I0J250000D01*
G01*
G37*
G36*
G01*
X173420000Y-77004000D02*
X173420000Y-75904000D01*
G75*
G02*
X173670000Y-75654000I250000J0D01*
G01*
X176170000Y-75654000D01*
G75*
G02*
X176420000Y-75904000I0J-250000D01*
G01*
X176420000Y-77004000D01*
G75*
G02*
X176170000Y-77254000I-250000J0D01*
G01*
X173670000Y-77254000D01*
G75*
G02*
X173420000Y-77004000I0J250000D01*
G01*
G37*
D11*
X144900000Y-96266000D03*
X174260000Y-96266000D03*
D12*
X151638000Y-77650000D03*
X151638000Y-74750000D03*
G36*
G01*
X133662000Y-97587750D02*
X133662000Y-98500250D01*
G75*
G02*
X133418250Y-98744000I-243750J0D01*
G01*
X132930750Y-98744000D01*
G75*
G02*
X132687000Y-98500250I0J243750D01*
G01*
X132687000Y-97587750D01*
G75*
G02*
X132930750Y-97344000I243750J0D01*
G01*
X133418250Y-97344000D01*
G75*
G02*
X133662000Y-97587750I0J-243750D01*
G01*
G37*
G36*
G01*
X135537000Y-97587750D02*
X135537000Y-98500250D01*
G75*
G02*
X135293250Y-98744000I-243750J0D01*
G01*
X134805750Y-98744000D01*
G75*
G02*
X134562000Y-98500250I0J243750D01*
G01*
X134562000Y-97587750D01*
G75*
G02*
X134805750Y-97344000I243750J0D01*
G01*
X135293250Y-97344000D01*
G75*
G02*
X135537000Y-97587750I0J-243750D01*
G01*
G37*
G36*
G01*
X137513000Y-79958250D02*
X137513000Y-79045750D01*
G75*
G02*
X137756750Y-78802000I243750J0D01*
G01*
X138244250Y-78802000D01*
G75*
G02*
X138488000Y-79045750I0J-243750D01*
G01*
X138488000Y-79958250D01*
G75*
G02*
X138244250Y-80202000I-243750J0D01*
G01*
X137756750Y-80202000D01*
G75*
G02*
X137513000Y-79958250I0J243750D01*
G01*
G37*
G36*
G01*
X139388000Y-79958250D02*
X139388000Y-79045750D01*
G75*
G02*
X139631750Y-78802000I243750J0D01*
G01*
X140119250Y-78802000D01*
G75*
G02*
X140363000Y-79045750I0J-243750D01*
G01*
X140363000Y-79958250D01*
G75*
G02*
X140119250Y-80202000I-243750J0D01*
G01*
X139631750Y-80202000D01*
G75*
G02*
X139388000Y-79958250I0J243750D01*
G01*
G37*
G36*
G01*
X134562000Y-85292250D02*
X134562000Y-84379750D01*
G75*
G02*
X134805750Y-84136000I243750J0D01*
G01*
X135293250Y-84136000D01*
G75*
G02*
X135537000Y-84379750I0J-243750D01*
G01*
X135537000Y-85292250D01*
G75*
G02*
X135293250Y-85536000I-243750J0D01*
G01*
X134805750Y-85536000D01*
G75*
G02*
X134562000Y-85292250I0J243750D01*
G01*
G37*
G36*
G01*
X132687000Y-85292250D02*
X132687000Y-84379750D01*
G75*
G02*
X132930750Y-84136000I243750J0D01*
G01*
X133418250Y-84136000D01*
G75*
G02*
X133662000Y-84379750I0J-243750D01*
G01*
X133662000Y-85292250D01*
G75*
G02*
X133418250Y-85536000I-243750J0D01*
G01*
X132930750Y-85536000D01*
G75*
G02*
X132687000Y-85292250I0J243750D01*
G01*
G37*
G36*
G01*
X169573000Y-82347750D02*
X169573000Y-83260250D01*
G75*
G02*
X169329250Y-83504000I-243750J0D01*
G01*
X168841750Y-83504000D01*
G75*
G02*
X168598000Y-83260250I0J243750D01*
G01*
X168598000Y-82347750D01*
G75*
G02*
X168841750Y-82104000I243750J0D01*
G01*
X169329250Y-82104000D01*
G75*
G02*
X169573000Y-82347750I0J-243750D01*
G01*
G37*
G36*
G01*
X167698000Y-82347750D02*
X167698000Y-83260250D01*
G75*
G02*
X167454250Y-83504000I-243750J0D01*
G01*
X166966750Y-83504000D01*
G75*
G02*
X166723000Y-83260250I0J243750D01*
G01*
X166723000Y-82347750D01*
G75*
G02*
X166966750Y-82104000I243750J0D01*
G01*
X167454250Y-82104000D01*
G75*
G02*
X167698000Y-82347750I0J-243750D01*
G01*
G37*
D13*
X167009000Y-75184000D03*
X167009000Y-80264000D03*
X163699000Y-77724000D03*
D14*
X137398000Y-74708500D03*
D15*
X135748000Y-77408500D03*
X135098000Y-77408500D03*
X137698000Y-77408500D03*
X137048000Y-77408500D03*
X136398000Y-77408500D03*
D14*
X135398000Y-74708500D03*
D16*
X151638000Y-82126000D03*
X152588000Y-79926000D03*
X150688000Y-79926000D03*
X133858000Y-93896000D03*
X132908000Y-96096000D03*
X134808000Y-96096000D03*
D17*
X148438000Y-77216000D03*
D18*
X142138000Y-77216000D03*
X142138000Y-74916000D03*
X142138000Y-79516000D03*
D19*
X135062000Y-82526000D03*
X133162000Y-82526000D03*
X134112000Y-79526000D03*
G36*
G01*
X157277750Y-80714000D02*
X158190250Y-80714000D01*
G75*
G02*
X158434000Y-80957750I0J-243750D01*
G01*
X158434000Y-81445250D01*
G75*
G02*
X158190250Y-81689000I-243750J0D01*
G01*
X157277750Y-81689000D01*
G75*
G02*
X157034000Y-81445250I0J243750D01*
G01*
X157034000Y-80957750D01*
G75*
G02*
X157277750Y-80714000I243750J0D01*
G01*
G37*
G36*
G01*
X157277750Y-78839000D02*
X158190250Y-78839000D01*
G75*
G02*
X158434000Y-79082750I0J-243750D01*
G01*
X158434000Y-79570250D01*
G75*
G02*
X158190250Y-79814000I-243750J0D01*
G01*
X157277750Y-79814000D01*
G75*
G02*
X157034000Y-79570250I0J243750D01*
G01*
X157034000Y-79082750D01*
G75*
G02*
X157277750Y-78839000I243750J0D01*
G01*
G37*
G36*
G01*
X162000250Y-79814000D02*
X161087750Y-79814000D01*
G75*
G02*
X160844000Y-79570250I0J243750D01*
G01*
X160844000Y-79082750D01*
G75*
G02*
X161087750Y-78839000I243750J0D01*
G01*
X162000250Y-78839000D01*
G75*
G02*
X162244000Y-79082750I0J-243750D01*
G01*
X162244000Y-79570250D01*
G75*
G02*
X162000250Y-79814000I-243750J0D01*
G01*
G37*
G36*
G01*
X162000250Y-81689000D02*
X161087750Y-81689000D01*
G75*
G02*
X160844000Y-81445250I0J243750D01*
G01*
X160844000Y-80957750D01*
G75*
G02*
X161087750Y-80714000I243750J0D01*
G01*
X162000250Y-80714000D01*
G75*
G02*
X162244000Y-80957750I0J-243750D01*
G01*
X162244000Y-81445250D01*
G75*
G02*
X162000250Y-81689000I-243750J0D01*
G01*
G37*
G36*
G01*
X139093000Y-81585750D02*
X139093000Y-82498250D01*
G75*
G02*
X138849250Y-82742000I-243750J0D01*
G01*
X138361750Y-82742000D01*
G75*
G02*
X138118000Y-82498250I0J243750D01*
G01*
X138118000Y-81585750D01*
G75*
G02*
X138361750Y-81342000I243750J0D01*
G01*
X138849250Y-81342000D01*
G75*
G02*
X139093000Y-81585750I0J-243750D01*
G01*
G37*
G36*
G01*
X137218000Y-81585750D02*
X137218000Y-82498250D01*
G75*
G02*
X136974250Y-82742000I-243750J0D01*
G01*
X136486750Y-82742000D01*
G75*
G02*
X136243000Y-82498250I0J243750D01*
G01*
X136243000Y-81585750D01*
G75*
G02*
X136486750Y-81342000I243750J0D01*
G01*
X136974250Y-81342000D01*
G75*
G02*
X137218000Y-81585750I0J-243750D01*
G01*
G37*
G36*
G01*
X148024000Y-82752250D02*
X148024000Y-81839750D01*
G75*
G02*
X148267750Y-81596000I243750J0D01*
G01*
X148755250Y-81596000D01*
G75*
G02*
X148999000Y-81839750I0J-243750D01*
G01*
X148999000Y-82752250D01*
G75*
G02*
X148755250Y-82996000I-243750J0D01*
G01*
X148267750Y-82996000D01*
G75*
G02*
X148024000Y-82752250I0J243750D01*
G01*
G37*
G36*
G01*
X146149000Y-82752250D02*
X146149000Y-81839750D01*
G75*
G02*
X146392750Y-81596000I243750J0D01*
G01*
X146880250Y-81596000D01*
G75*
G02*
X147124000Y-81839750I0J-243750D01*
G01*
X147124000Y-82752250D01*
G75*
G02*
X146880250Y-82996000I-243750J0D01*
G01*
X146392750Y-82996000D01*
G75*
G02*
X146149000Y-82752250I0J243750D01*
G01*
G37*
G36*
G01*
X153593500Y-83006250D02*
X153593500Y-82093750D01*
G75*
G02*
X153837250Y-81850000I243750J0D01*
G01*
X154324750Y-81850000D01*
G75*
G02*
X154568500Y-82093750I0J-243750D01*
G01*
X154568500Y-83006250D01*
G75*
G02*
X154324750Y-83250000I-243750J0D01*
G01*
X153837250Y-83250000D01*
G75*
G02*
X153593500Y-83006250I0J243750D01*
G01*
G37*
G36*
G01*
X155468500Y-83006250D02*
X155468500Y-82093750D01*
G75*
G02*
X155712250Y-81850000I243750J0D01*
G01*
X156199750Y-81850000D01*
G75*
G02*
X156443500Y-82093750I0J-243750D01*
G01*
X156443500Y-83006250D01*
G75*
G02*
X156199750Y-83250000I-243750J0D01*
G01*
X155712250Y-83250000D01*
G75*
G02*
X155468500Y-83006250I0J243750D01*
G01*
G37*
G36*
G01*
X165509000Y-82347750D02*
X165509000Y-83260250D01*
G75*
G02*
X165265250Y-83504000I-243750J0D01*
G01*
X164777750Y-83504000D01*
G75*
G02*
X164534000Y-83260250I0J243750D01*
G01*
X164534000Y-82347750D01*
G75*
G02*
X164777750Y-82104000I243750J0D01*
G01*
X165265250Y-82104000D01*
G75*
G02*
X165509000Y-82347750I0J-243750D01*
G01*
G37*
G36*
G01*
X163634000Y-82347750D02*
X163634000Y-83260250D01*
G75*
G02*
X163390250Y-83504000I-243750J0D01*
G01*
X162902750Y-83504000D01*
G75*
G02*
X162659000Y-83260250I0J243750D01*
G01*
X162659000Y-82347750D01*
G75*
G02*
X162902750Y-82104000I243750J0D01*
G01*
X163390250Y-82104000D01*
G75*
G02*
X163634000Y-82347750I0J-243750D01*
G01*
G37*
D20*
X148335500Y-102616000D03*
D21*
X135255500Y-102616000D03*
X183896000Y-102616000D03*
D20*
X170816000Y-102616000D03*
X170942500Y-89408000D03*
D21*
X184022500Y-89408000D03*
X135382000Y-89408000D03*
D20*
X148462000Y-89408000D03*
D22*
X155194000Y-75066000D03*
X155194000Y-79366000D03*
M02*
