G04 #@! TF.GenerationSoftware,KiCad,Pcbnew,5.1.6-c6e7f7d~87~ubuntu18.04.1*
G04 #@! TF.CreationDate,2020-07-15T21:40:22+02:00*
G04 #@! TF.ProjectId,Mini-BT-Pcb-328P,4d696e69-2d42-4542-9d50-63622d333238,2.0*
G04 #@! TF.SameCoordinates,Original*
G04 #@! TF.FileFunction,Soldermask,Bot*
G04 #@! TF.FilePolarity,Negative*
%FSLAX46Y46*%
G04 Gerber Fmt 4.6, Leading zero omitted, Abs format (unit mm)*
G04 Created by KiCad (PCBNEW 5.1.6-c6e7f7d~87~ubuntu18.04.1) date 2020-07-15 21:40:22*
%MOMM*%
%LPD*%
G01*
G04 APERTURE LIST*
%ADD10C,0.100000*%
G04 APERTURE END LIST*
D10*
G36*
X134520798Y-106390023D02*
G01*
X134524141Y-106390688D01*
X134529045Y-106390929D01*
X134554556Y-106390929D01*
X134569072Y-106392358D01*
X134660379Y-106410521D01*
X134662742Y-106411238D01*
X134662748Y-106411239D01*
X134671984Y-106414041D01*
X134671986Y-106414042D01*
X134674347Y-106414758D01*
X134760366Y-106450388D01*
X134773224Y-106457260D01*
X134850644Y-106508991D01*
X134852547Y-106510553D01*
X134852552Y-106510556D01*
X134860013Y-106516679D01*
X134861920Y-106518244D01*
X134927756Y-106584080D01*
X134929320Y-106585986D01*
X134929321Y-106585987D01*
X134935444Y-106593448D01*
X134935447Y-106593453D01*
X134937009Y-106595356D01*
X134988740Y-106672776D01*
X134995612Y-106685634D01*
X135031242Y-106771653D01*
X135031958Y-106774014D01*
X135031959Y-106774016D01*
X135034761Y-106783252D01*
X135034762Y-106783258D01*
X135035479Y-106785621D01*
X135053642Y-106876928D01*
X135055071Y-106891444D01*
X135055071Y-106916955D01*
X135056032Y-106926709D01*
X135056186Y-106927325D01*
X135057479Y-106940453D01*
X135057479Y-107435547D01*
X135055977Y-107450798D01*
X135055312Y-107454141D01*
X135055071Y-107459045D01*
X135055071Y-107484556D01*
X135053642Y-107499072D01*
X135035479Y-107590379D01*
X135034762Y-107592742D01*
X135034761Y-107592748D01*
X135031959Y-107601984D01*
X135031242Y-107604347D01*
X134995612Y-107690366D01*
X134988740Y-107703224D01*
X134937009Y-107780644D01*
X134935447Y-107782547D01*
X134935444Y-107782552D01*
X134929321Y-107790013D01*
X134927756Y-107791920D01*
X134861920Y-107857756D01*
X134860014Y-107859320D01*
X134860013Y-107859321D01*
X134852552Y-107865444D01*
X134852547Y-107865447D01*
X134850644Y-107867009D01*
X134773224Y-107918740D01*
X134760366Y-107925612D01*
X134674347Y-107961242D01*
X134671986Y-107961958D01*
X134671984Y-107961959D01*
X134662748Y-107964761D01*
X134662742Y-107964762D01*
X134660379Y-107965479D01*
X134569072Y-107983642D01*
X134554556Y-107985071D01*
X134529045Y-107985071D01*
X134519291Y-107986032D01*
X134518675Y-107986186D01*
X134505547Y-107987479D01*
X134010453Y-107987479D01*
X133998395Y-107986292D01*
X133989159Y-107983490D01*
X133980646Y-107978940D01*
X133973184Y-107972816D01*
X133967060Y-107965354D01*
X133962510Y-107956841D01*
X133959708Y-107947605D01*
X133958521Y-107935547D01*
X133958521Y-106440453D01*
X133959708Y-106428395D01*
X133962510Y-106419159D01*
X133967060Y-106410646D01*
X133973184Y-106403184D01*
X133980646Y-106397060D01*
X133989159Y-106392510D01*
X133998395Y-106389708D01*
X134010453Y-106388521D01*
X134505547Y-106388521D01*
X134520798Y-106390023D01*
G37*
G36*
X185279605Y-106389708D02*
G01*
X185288841Y-106392510D01*
X185297354Y-106397060D01*
X185304816Y-106403184D01*
X185310940Y-106410646D01*
X185315490Y-106419159D01*
X185318292Y-106428395D01*
X185319479Y-106440453D01*
X185319479Y-107935547D01*
X185318292Y-107947605D01*
X185315490Y-107956841D01*
X185310940Y-107965354D01*
X185304816Y-107972816D01*
X185297354Y-107978940D01*
X185288841Y-107983490D01*
X185279605Y-107986292D01*
X185267547Y-107987479D01*
X184772453Y-107987479D01*
X184757202Y-107985977D01*
X184753859Y-107985312D01*
X184748955Y-107985071D01*
X184723444Y-107985071D01*
X184708928Y-107983642D01*
X184617621Y-107965479D01*
X184615258Y-107964762D01*
X184615252Y-107964761D01*
X184606016Y-107961959D01*
X184606014Y-107961958D01*
X184603653Y-107961242D01*
X184517634Y-107925612D01*
X184504776Y-107918740D01*
X184427356Y-107867009D01*
X184425453Y-107865447D01*
X184425448Y-107865444D01*
X184417987Y-107859321D01*
X184417986Y-107859320D01*
X184416080Y-107857756D01*
X184350244Y-107791920D01*
X184348679Y-107790013D01*
X184342556Y-107782552D01*
X184342553Y-107782547D01*
X184340991Y-107780644D01*
X184289260Y-107703224D01*
X184282388Y-107690366D01*
X184246758Y-107604347D01*
X184246041Y-107601984D01*
X184243239Y-107592748D01*
X184243238Y-107592742D01*
X184242521Y-107590379D01*
X184224358Y-107499072D01*
X184222929Y-107484556D01*
X184222929Y-107459045D01*
X184221968Y-107449291D01*
X184221814Y-107448675D01*
X184220521Y-107435547D01*
X184220521Y-106940453D01*
X184222023Y-106925202D01*
X184222688Y-106921859D01*
X184222929Y-106916955D01*
X184222929Y-106891444D01*
X184224358Y-106876928D01*
X184242521Y-106785621D01*
X184243238Y-106783258D01*
X184243239Y-106783252D01*
X184246041Y-106774016D01*
X184246042Y-106774014D01*
X184246758Y-106771653D01*
X184282388Y-106685634D01*
X184289260Y-106672776D01*
X184340991Y-106595356D01*
X184342553Y-106593453D01*
X184342556Y-106593448D01*
X184348679Y-106585987D01*
X184348680Y-106585986D01*
X184350244Y-106584080D01*
X184416080Y-106518244D01*
X184417987Y-106516679D01*
X184425448Y-106510556D01*
X184425453Y-106510553D01*
X184427356Y-106508991D01*
X184504776Y-106457260D01*
X184517634Y-106450388D01*
X184603653Y-106414758D01*
X184606014Y-106414042D01*
X184606016Y-106414041D01*
X184615252Y-106411239D01*
X184615258Y-106411238D01*
X184617621Y-106410521D01*
X184708928Y-106392358D01*
X184723444Y-106390929D01*
X184748955Y-106390929D01*
X184758709Y-106389968D01*
X184759325Y-106389814D01*
X184772453Y-106388521D01*
X185267547Y-106388521D01*
X185279605Y-106389708D01*
G37*
G36*
X186082798Y-106390023D02*
G01*
X186086141Y-106390688D01*
X186091045Y-106390929D01*
X186116556Y-106390929D01*
X186131072Y-106392358D01*
X186222379Y-106410521D01*
X186224742Y-106411238D01*
X186224748Y-106411239D01*
X186233984Y-106414041D01*
X186233986Y-106414042D01*
X186236347Y-106414758D01*
X186322366Y-106450388D01*
X186335224Y-106457260D01*
X186412644Y-106508991D01*
X186414547Y-106510553D01*
X186414552Y-106510556D01*
X186422013Y-106516679D01*
X186423920Y-106518244D01*
X186489756Y-106584080D01*
X186491320Y-106585986D01*
X186491321Y-106585987D01*
X186497444Y-106593448D01*
X186497447Y-106593453D01*
X186499009Y-106595356D01*
X186550740Y-106672776D01*
X186557612Y-106685634D01*
X186593242Y-106771653D01*
X186593958Y-106774014D01*
X186593959Y-106774016D01*
X186596761Y-106783252D01*
X186596762Y-106783258D01*
X186597479Y-106785621D01*
X186615642Y-106876928D01*
X186617071Y-106891444D01*
X186617071Y-106916955D01*
X186618032Y-106926709D01*
X186618186Y-106927325D01*
X186619479Y-106940453D01*
X186619479Y-107435547D01*
X186617977Y-107450798D01*
X186617312Y-107454141D01*
X186617071Y-107459045D01*
X186617071Y-107484556D01*
X186615642Y-107499072D01*
X186597479Y-107590379D01*
X186596762Y-107592742D01*
X186596761Y-107592748D01*
X186593959Y-107601984D01*
X186593242Y-107604347D01*
X186557612Y-107690366D01*
X186550740Y-107703224D01*
X186499009Y-107780644D01*
X186497447Y-107782547D01*
X186497444Y-107782552D01*
X186491321Y-107790013D01*
X186489756Y-107791920D01*
X186423920Y-107857756D01*
X186422014Y-107859320D01*
X186422013Y-107859321D01*
X186414552Y-107865444D01*
X186414547Y-107865447D01*
X186412644Y-107867009D01*
X186335224Y-107918740D01*
X186322366Y-107925612D01*
X186236347Y-107961242D01*
X186233986Y-107961958D01*
X186233984Y-107961959D01*
X186224748Y-107964761D01*
X186224742Y-107964762D01*
X186222379Y-107965479D01*
X186131072Y-107983642D01*
X186116556Y-107985071D01*
X186091045Y-107985071D01*
X186081291Y-107986032D01*
X186080675Y-107986186D01*
X186067547Y-107987479D01*
X185572453Y-107987479D01*
X185560395Y-107986292D01*
X185551159Y-107983490D01*
X185542646Y-107978940D01*
X185535184Y-107972816D01*
X185529060Y-107965354D01*
X185524510Y-107956841D01*
X185521708Y-107947605D01*
X185520521Y-107935547D01*
X185520521Y-106440453D01*
X185521708Y-106428395D01*
X185524510Y-106419159D01*
X185529060Y-106410646D01*
X185535184Y-106403184D01*
X185542646Y-106397060D01*
X185551159Y-106392510D01*
X185560395Y-106389708D01*
X185572453Y-106388521D01*
X186067547Y-106388521D01*
X186082798Y-106390023D01*
G37*
G36*
X133717605Y-106389708D02*
G01*
X133726841Y-106392510D01*
X133735354Y-106397060D01*
X133742816Y-106403184D01*
X133748940Y-106410646D01*
X133753490Y-106419159D01*
X133756292Y-106428395D01*
X133757479Y-106440453D01*
X133757479Y-107935547D01*
X133756292Y-107947605D01*
X133753490Y-107956841D01*
X133748940Y-107965354D01*
X133742816Y-107972816D01*
X133735354Y-107978940D01*
X133726841Y-107983490D01*
X133717605Y-107986292D01*
X133705547Y-107987479D01*
X133210453Y-107987479D01*
X133195202Y-107985977D01*
X133191859Y-107985312D01*
X133186955Y-107985071D01*
X133161444Y-107985071D01*
X133146928Y-107983642D01*
X133055621Y-107965479D01*
X133053258Y-107964762D01*
X133053252Y-107964761D01*
X133044016Y-107961959D01*
X133044014Y-107961958D01*
X133041653Y-107961242D01*
X132955634Y-107925612D01*
X132942776Y-107918740D01*
X132865356Y-107867009D01*
X132863453Y-107865447D01*
X132863448Y-107865444D01*
X132855987Y-107859321D01*
X132855986Y-107859320D01*
X132854080Y-107857756D01*
X132788244Y-107791920D01*
X132786679Y-107790013D01*
X132780556Y-107782552D01*
X132780553Y-107782547D01*
X132778991Y-107780644D01*
X132727260Y-107703224D01*
X132720388Y-107690366D01*
X132684758Y-107604347D01*
X132684041Y-107601984D01*
X132681239Y-107592748D01*
X132681238Y-107592742D01*
X132680521Y-107590379D01*
X132662358Y-107499072D01*
X132660929Y-107484556D01*
X132660929Y-107459045D01*
X132659968Y-107449291D01*
X132659814Y-107448675D01*
X132658521Y-107435547D01*
X132658521Y-106940453D01*
X132660023Y-106925202D01*
X132660688Y-106921859D01*
X132660929Y-106916955D01*
X132660929Y-106891444D01*
X132662358Y-106876928D01*
X132680521Y-106785621D01*
X132681238Y-106783258D01*
X132681239Y-106783252D01*
X132684041Y-106774016D01*
X132684042Y-106774014D01*
X132684758Y-106771653D01*
X132720388Y-106685634D01*
X132727260Y-106672776D01*
X132778991Y-106595356D01*
X132780553Y-106593453D01*
X132780556Y-106593448D01*
X132786679Y-106585987D01*
X132786680Y-106585986D01*
X132788244Y-106584080D01*
X132854080Y-106518244D01*
X132855987Y-106516679D01*
X132863448Y-106510556D01*
X132863453Y-106510553D01*
X132865356Y-106508991D01*
X132942776Y-106457260D01*
X132955634Y-106450388D01*
X133041653Y-106414758D01*
X133044014Y-106414042D01*
X133044016Y-106414041D01*
X133053252Y-106411239D01*
X133053258Y-106411238D01*
X133055621Y-106410521D01*
X133146928Y-106392358D01*
X133161444Y-106390929D01*
X133186955Y-106390929D01*
X133196709Y-106389968D01*
X133197325Y-106389814D01*
X133210453Y-106388521D01*
X133705547Y-106388521D01*
X133717605Y-106389708D01*
G37*
G36*
X150364500Y-105205000D02*
G01*
X146306500Y-105205000D01*
X146306500Y-100027000D01*
X150364500Y-100027000D01*
X150364500Y-105205000D01*
G37*
G36*
X172845000Y-105205000D02*
G01*
X168787000Y-105205000D01*
X168787000Y-100027000D01*
X172845000Y-100027000D01*
X172845000Y-105205000D01*
G37*
G36*
X185925000Y-103835000D02*
G01*
X181867000Y-103835000D01*
X181867000Y-101397000D01*
X185925000Y-101397000D01*
X185925000Y-103835000D01*
G37*
G36*
X137284500Y-103835000D02*
G01*
X133226500Y-103835000D01*
X133226500Y-101397000D01*
X137284500Y-101397000D01*
X137284500Y-103835000D01*
G37*
G36*
X133515159Y-97299911D02*
G01*
X133560744Y-97313739D01*
X133602761Y-97336198D01*
X133639583Y-97366417D01*
X133669802Y-97403239D01*
X133692261Y-97445256D01*
X133706089Y-97490841D01*
X133711000Y-97540704D01*
X133711000Y-98547296D01*
X133706089Y-98597159D01*
X133692261Y-98642744D01*
X133669802Y-98684761D01*
X133639583Y-98721583D01*
X133602761Y-98751802D01*
X133560744Y-98774261D01*
X133515159Y-98788089D01*
X133465296Y-98793000D01*
X132883704Y-98793000D01*
X132833841Y-98788089D01*
X132788256Y-98774261D01*
X132746239Y-98751802D01*
X132709417Y-98721583D01*
X132679198Y-98684761D01*
X132656739Y-98642744D01*
X132642911Y-98597159D01*
X132638000Y-98547296D01*
X132638000Y-97540704D01*
X132642911Y-97490841D01*
X132656739Y-97445256D01*
X132679198Y-97403239D01*
X132709417Y-97366417D01*
X132746239Y-97336198D01*
X132788256Y-97313739D01*
X132833841Y-97299911D01*
X132883704Y-97295000D01*
X133465296Y-97295000D01*
X133515159Y-97299911D01*
G37*
G36*
X135390159Y-97299911D02*
G01*
X135435744Y-97313739D01*
X135477761Y-97336198D01*
X135514583Y-97366417D01*
X135544802Y-97403239D01*
X135567261Y-97445256D01*
X135581089Y-97490841D01*
X135586000Y-97540704D01*
X135586000Y-98547296D01*
X135581089Y-98597159D01*
X135567261Y-98642744D01*
X135544802Y-98684761D01*
X135514583Y-98721583D01*
X135477761Y-98751802D01*
X135435744Y-98774261D01*
X135390159Y-98788089D01*
X135340296Y-98793000D01*
X134758704Y-98793000D01*
X134708841Y-98788089D01*
X134663256Y-98774261D01*
X134621239Y-98751802D01*
X134584417Y-98721583D01*
X134554198Y-98684761D01*
X134531739Y-98642744D01*
X134517911Y-98597159D01*
X134513000Y-98547296D01*
X134513000Y-97540704D01*
X134517911Y-97490841D01*
X134531739Y-97445256D01*
X134554198Y-97403239D01*
X134584417Y-97366417D01*
X134621239Y-97336198D01*
X134663256Y-97313739D01*
X134708841Y-97299911D01*
X134758704Y-97295000D01*
X135340296Y-97295000D01*
X135390159Y-97299911D01*
G37*
G36*
X175579000Y-98070000D02*
G01*
X172941000Y-98070000D01*
X172941000Y-94462000D01*
X175579000Y-94462000D01*
X175579000Y-98070000D01*
G37*
G36*
X146219000Y-98070000D02*
G01*
X143581000Y-98070000D01*
X143581000Y-94462000D01*
X146219000Y-94462000D01*
X146219000Y-98070000D01*
G37*
G36*
X185671605Y-96683708D02*
G01*
X185680841Y-96686510D01*
X185689354Y-96691060D01*
X185696816Y-96697184D01*
X185702940Y-96704646D01*
X185707490Y-96713159D01*
X185710292Y-96722395D01*
X185711479Y-96734453D01*
X185711479Y-97279547D01*
X185709977Y-97294798D01*
X185709312Y-97298141D01*
X185709071Y-97303045D01*
X185709071Y-97328556D01*
X185707642Y-97343072D01*
X185689479Y-97434379D01*
X185688762Y-97436742D01*
X185688761Y-97436748D01*
X185686180Y-97445256D01*
X185685242Y-97448347D01*
X185649612Y-97534366D01*
X185642740Y-97547224D01*
X185591009Y-97624644D01*
X185589447Y-97626547D01*
X185589444Y-97626552D01*
X185583321Y-97634013D01*
X185581756Y-97635920D01*
X185515920Y-97701756D01*
X185514014Y-97703320D01*
X185514013Y-97703321D01*
X185506552Y-97709444D01*
X185506547Y-97709447D01*
X185504644Y-97711009D01*
X185427224Y-97762740D01*
X185414366Y-97769612D01*
X185328347Y-97805242D01*
X185325986Y-97805958D01*
X185325984Y-97805959D01*
X185316748Y-97808761D01*
X185316742Y-97808762D01*
X185314379Y-97809479D01*
X185223072Y-97827642D01*
X185208556Y-97829071D01*
X185183045Y-97829071D01*
X185173291Y-97830032D01*
X185172675Y-97830186D01*
X185159547Y-97831479D01*
X184664453Y-97831479D01*
X184649202Y-97829977D01*
X184645859Y-97829312D01*
X184640955Y-97829071D01*
X184615444Y-97829071D01*
X184600928Y-97827642D01*
X184509621Y-97809479D01*
X184507258Y-97808762D01*
X184507252Y-97808761D01*
X184498016Y-97805959D01*
X184498014Y-97805958D01*
X184495653Y-97805242D01*
X184409634Y-97769612D01*
X184396776Y-97762740D01*
X184319356Y-97711009D01*
X184317453Y-97709447D01*
X184317448Y-97709444D01*
X184309987Y-97703321D01*
X184309986Y-97703320D01*
X184308080Y-97701756D01*
X184242244Y-97635920D01*
X184240679Y-97634013D01*
X184234556Y-97626552D01*
X184234553Y-97626547D01*
X184232991Y-97624644D01*
X184181260Y-97547224D01*
X184174388Y-97534366D01*
X184138758Y-97448347D01*
X184137820Y-97445256D01*
X184135239Y-97436748D01*
X184135238Y-97436742D01*
X184134521Y-97434379D01*
X184116358Y-97343072D01*
X184114929Y-97328556D01*
X184114929Y-97303045D01*
X184113968Y-97293291D01*
X184113814Y-97292675D01*
X184112521Y-97279547D01*
X184112521Y-96734453D01*
X184113708Y-96722395D01*
X184116510Y-96713159D01*
X184121060Y-96704646D01*
X184127184Y-96697184D01*
X184134646Y-96691060D01*
X184143159Y-96686510D01*
X184152395Y-96683708D01*
X184164453Y-96682521D01*
X185659547Y-96682521D01*
X185671605Y-96683708D01*
G37*
G36*
X135357000Y-96845000D02*
G01*
X134259000Y-96845000D01*
X134259000Y-95347000D01*
X135357000Y-95347000D01*
X135357000Y-96845000D01*
G37*
G36*
X133457000Y-96845000D02*
G01*
X132359000Y-96845000D01*
X132359000Y-95347000D01*
X133457000Y-95347000D01*
X133457000Y-96845000D01*
G37*
G36*
X185711000Y-96531000D02*
G01*
X184113000Y-96531000D01*
X184113000Y-95433000D01*
X185711000Y-95433000D01*
X185711000Y-96531000D01*
G37*
G36*
X185174798Y-94134023D02*
G01*
X185178141Y-94134688D01*
X185183045Y-94134929D01*
X185208556Y-94134929D01*
X185223072Y-94136358D01*
X185314379Y-94154521D01*
X185316742Y-94155238D01*
X185316748Y-94155239D01*
X185325984Y-94158041D01*
X185325986Y-94158042D01*
X185328347Y-94158758D01*
X185414366Y-94194388D01*
X185427224Y-94201260D01*
X185504644Y-94252991D01*
X185506547Y-94254553D01*
X185506552Y-94254556D01*
X185514013Y-94260679D01*
X185515920Y-94262244D01*
X185581756Y-94328080D01*
X185583320Y-94329986D01*
X185583321Y-94329987D01*
X185589444Y-94337448D01*
X185589447Y-94337453D01*
X185591009Y-94339356D01*
X185642740Y-94416776D01*
X185649612Y-94429634D01*
X185685242Y-94515653D01*
X185685958Y-94518014D01*
X185685959Y-94518016D01*
X185688761Y-94527252D01*
X185688762Y-94527258D01*
X185689479Y-94529621D01*
X185707642Y-94620928D01*
X185709071Y-94635444D01*
X185709071Y-94660955D01*
X185710032Y-94670709D01*
X185710186Y-94671325D01*
X185711479Y-94684453D01*
X185711479Y-95229547D01*
X185710292Y-95241605D01*
X185707490Y-95250841D01*
X185702940Y-95259354D01*
X185696816Y-95266816D01*
X185689354Y-95272940D01*
X185680841Y-95277490D01*
X185671605Y-95280292D01*
X185659547Y-95281479D01*
X184164453Y-95281479D01*
X184152395Y-95280292D01*
X184143159Y-95277490D01*
X184134646Y-95272940D01*
X184127184Y-95266816D01*
X184121060Y-95259354D01*
X184116510Y-95250841D01*
X184113708Y-95241605D01*
X184112521Y-95229547D01*
X184112521Y-94684453D01*
X184114023Y-94669202D01*
X184114688Y-94665859D01*
X184114929Y-94660955D01*
X184114929Y-94635444D01*
X184116358Y-94620928D01*
X184134521Y-94529621D01*
X184135238Y-94527258D01*
X184135239Y-94527252D01*
X184138041Y-94518016D01*
X184138042Y-94518014D01*
X184138758Y-94515653D01*
X184174388Y-94429634D01*
X184181260Y-94416776D01*
X184232991Y-94339356D01*
X184234553Y-94337453D01*
X184234556Y-94337448D01*
X184240679Y-94329987D01*
X184240680Y-94329986D01*
X184242244Y-94328080D01*
X184308080Y-94262244D01*
X184309987Y-94260679D01*
X184317448Y-94254556D01*
X184317453Y-94254553D01*
X184319356Y-94252991D01*
X184396776Y-94201260D01*
X184409634Y-94194388D01*
X184495653Y-94158758D01*
X184498014Y-94158042D01*
X184498016Y-94158041D01*
X184507252Y-94155239D01*
X184507258Y-94155238D01*
X184509621Y-94154521D01*
X184600928Y-94136358D01*
X184615444Y-94134929D01*
X184640955Y-94134929D01*
X184650709Y-94133968D01*
X184651325Y-94133814D01*
X184664453Y-94132521D01*
X185159547Y-94132521D01*
X185174798Y-94134023D01*
G37*
G36*
X134407000Y-94645000D02*
G01*
X133309000Y-94645000D01*
X133309000Y-93147000D01*
X134407000Y-93147000D01*
X134407000Y-94645000D01*
G37*
G36*
X172971500Y-91997000D02*
G01*
X168913500Y-91997000D01*
X168913500Y-86819000D01*
X172971500Y-86819000D01*
X172971500Y-91997000D01*
G37*
G36*
X150491000Y-91997000D02*
G01*
X146433000Y-91997000D01*
X146433000Y-86819000D01*
X150491000Y-86819000D01*
X150491000Y-91997000D01*
G37*
G36*
X137411000Y-90627000D02*
G01*
X133353000Y-90627000D01*
X133353000Y-88189000D01*
X137411000Y-88189000D01*
X137411000Y-90627000D01*
G37*
G36*
X186051500Y-90627000D02*
G01*
X181993500Y-90627000D01*
X181993500Y-88189000D01*
X186051500Y-88189000D01*
X186051500Y-90627000D01*
G37*
G36*
X135390159Y-84091911D02*
G01*
X135435744Y-84105739D01*
X135477761Y-84128198D01*
X135514583Y-84158417D01*
X135544802Y-84195239D01*
X135567261Y-84237256D01*
X135581089Y-84282841D01*
X135586000Y-84332704D01*
X135586000Y-85339296D01*
X135581089Y-85389159D01*
X135567261Y-85434744D01*
X135544802Y-85476761D01*
X135514583Y-85513583D01*
X135477761Y-85543802D01*
X135435744Y-85566261D01*
X135390159Y-85580089D01*
X135340296Y-85585000D01*
X134758704Y-85585000D01*
X134708841Y-85580089D01*
X134663256Y-85566261D01*
X134621239Y-85543802D01*
X134584417Y-85513583D01*
X134554198Y-85476761D01*
X134531739Y-85434744D01*
X134517911Y-85389159D01*
X134513000Y-85339296D01*
X134513000Y-84332704D01*
X134517911Y-84282841D01*
X134531739Y-84237256D01*
X134554198Y-84195239D01*
X134584417Y-84158417D01*
X134621239Y-84128198D01*
X134663256Y-84105739D01*
X134708841Y-84091911D01*
X134758704Y-84087000D01*
X135340296Y-84087000D01*
X135390159Y-84091911D01*
G37*
G36*
X133515159Y-84091911D02*
G01*
X133560744Y-84105739D01*
X133602761Y-84128198D01*
X133639583Y-84158417D01*
X133669802Y-84195239D01*
X133692261Y-84237256D01*
X133706089Y-84282841D01*
X133711000Y-84332704D01*
X133711000Y-85339296D01*
X133706089Y-85389159D01*
X133692261Y-85434744D01*
X133669802Y-85476761D01*
X133639583Y-85513583D01*
X133602761Y-85543802D01*
X133560744Y-85566261D01*
X133515159Y-85580089D01*
X133465296Y-85585000D01*
X132883704Y-85585000D01*
X132833841Y-85580089D01*
X132788256Y-85566261D01*
X132746239Y-85543802D01*
X132709417Y-85513583D01*
X132679198Y-85476761D01*
X132656739Y-85434744D01*
X132642911Y-85389159D01*
X132638000Y-85339296D01*
X132638000Y-84332704D01*
X132642911Y-84282841D01*
X132656739Y-84237256D01*
X132679198Y-84195239D01*
X132709417Y-84158417D01*
X132746239Y-84128198D01*
X132788256Y-84105739D01*
X132833841Y-84091911D01*
X132883704Y-84087000D01*
X133465296Y-84087000D01*
X133515159Y-84091911D01*
G37*
G36*
X167551159Y-82059911D02*
G01*
X167596744Y-82073739D01*
X167638761Y-82096198D01*
X167675583Y-82126417D01*
X167705802Y-82163239D01*
X167728261Y-82205256D01*
X167742089Y-82250841D01*
X167747000Y-82300704D01*
X167747000Y-83307296D01*
X167742089Y-83357159D01*
X167728261Y-83402744D01*
X167705802Y-83444761D01*
X167675583Y-83481583D01*
X167638761Y-83511802D01*
X167596744Y-83534261D01*
X167551159Y-83548089D01*
X167501296Y-83553000D01*
X166919704Y-83553000D01*
X166869841Y-83548089D01*
X166824256Y-83534261D01*
X166782239Y-83511802D01*
X166745417Y-83481583D01*
X166715198Y-83444761D01*
X166692739Y-83402744D01*
X166678911Y-83357159D01*
X166674000Y-83307296D01*
X166674000Y-82300704D01*
X166678911Y-82250841D01*
X166692739Y-82205256D01*
X166715198Y-82163239D01*
X166745417Y-82126417D01*
X166782239Y-82096198D01*
X166824256Y-82073739D01*
X166869841Y-82059911D01*
X166919704Y-82055000D01*
X167501296Y-82055000D01*
X167551159Y-82059911D01*
G37*
G36*
X169426159Y-82059911D02*
G01*
X169471744Y-82073739D01*
X169513761Y-82096198D01*
X169550583Y-82126417D01*
X169580802Y-82163239D01*
X169603261Y-82205256D01*
X169617089Y-82250841D01*
X169622000Y-82300704D01*
X169622000Y-83307296D01*
X169617089Y-83357159D01*
X169603261Y-83402744D01*
X169580802Y-83444761D01*
X169550583Y-83481583D01*
X169513761Y-83511802D01*
X169471744Y-83534261D01*
X169426159Y-83548089D01*
X169376296Y-83553000D01*
X168794704Y-83553000D01*
X168744841Y-83548089D01*
X168699256Y-83534261D01*
X168657239Y-83511802D01*
X168620417Y-83481583D01*
X168590198Y-83444761D01*
X168567739Y-83402744D01*
X168553911Y-83357159D01*
X168549000Y-83307296D01*
X168549000Y-82300704D01*
X168553911Y-82250841D01*
X168567739Y-82205256D01*
X168590198Y-82163239D01*
X168620417Y-82126417D01*
X168657239Y-82096198D01*
X168699256Y-82073739D01*
X168744841Y-82059911D01*
X168794704Y-82055000D01*
X169376296Y-82055000D01*
X169426159Y-82059911D01*
G37*
G36*
X163487159Y-82059911D02*
G01*
X163532744Y-82073739D01*
X163574761Y-82096198D01*
X163611583Y-82126417D01*
X163641802Y-82163239D01*
X163664261Y-82205256D01*
X163678089Y-82250841D01*
X163683000Y-82300704D01*
X163683000Y-83307296D01*
X163678089Y-83357159D01*
X163664261Y-83402744D01*
X163641802Y-83444761D01*
X163611583Y-83481583D01*
X163574761Y-83511802D01*
X163532744Y-83534261D01*
X163487159Y-83548089D01*
X163437296Y-83553000D01*
X162855704Y-83553000D01*
X162805841Y-83548089D01*
X162760256Y-83534261D01*
X162718239Y-83511802D01*
X162681417Y-83481583D01*
X162651198Y-83444761D01*
X162628739Y-83402744D01*
X162614911Y-83357159D01*
X162610000Y-83307296D01*
X162610000Y-82300704D01*
X162614911Y-82250841D01*
X162628739Y-82205256D01*
X162651198Y-82163239D01*
X162681417Y-82126417D01*
X162718239Y-82096198D01*
X162760256Y-82073739D01*
X162805841Y-82059911D01*
X162855704Y-82055000D01*
X163437296Y-82055000D01*
X163487159Y-82059911D01*
G37*
G36*
X165362159Y-82059911D02*
G01*
X165407744Y-82073739D01*
X165449761Y-82096198D01*
X165486583Y-82126417D01*
X165516802Y-82163239D01*
X165539261Y-82205256D01*
X165553089Y-82250841D01*
X165558000Y-82300704D01*
X165558000Y-83307296D01*
X165553089Y-83357159D01*
X165539261Y-83402744D01*
X165516802Y-83444761D01*
X165486583Y-83481583D01*
X165449761Y-83511802D01*
X165407744Y-83534261D01*
X165362159Y-83548089D01*
X165312296Y-83553000D01*
X164730704Y-83553000D01*
X164680841Y-83548089D01*
X164635256Y-83534261D01*
X164593239Y-83511802D01*
X164556417Y-83481583D01*
X164526198Y-83444761D01*
X164503739Y-83402744D01*
X164489911Y-83357159D01*
X164485000Y-83307296D01*
X164485000Y-82300704D01*
X164489911Y-82250841D01*
X164503739Y-82205256D01*
X164526198Y-82163239D01*
X164556417Y-82126417D01*
X164593239Y-82096198D01*
X164635256Y-82073739D01*
X164680841Y-82059911D01*
X164730704Y-82055000D01*
X165312296Y-82055000D01*
X165362159Y-82059911D01*
G37*
G36*
X135511000Y-83525000D02*
G01*
X134613000Y-83525000D01*
X134613000Y-81527000D01*
X135511000Y-81527000D01*
X135511000Y-83525000D01*
G37*
G36*
X133611000Y-83525000D02*
G01*
X132713000Y-83525000D01*
X132713000Y-81527000D01*
X133611000Y-81527000D01*
X133611000Y-83525000D01*
G37*
G36*
X160500105Y-81749389D02*
G01*
X160604560Y-81770166D01*
X160752153Y-81831301D01*
X160884982Y-81920055D01*
X160997945Y-82033018D01*
X161086699Y-82165847D01*
X161147834Y-82313440D01*
X161147834Y-82313442D01*
X161179000Y-82470122D01*
X161179000Y-82629878D01*
X161170665Y-82671782D01*
X161147834Y-82786560D01*
X161086699Y-82934153D01*
X160997945Y-83066982D01*
X160884982Y-83179945D01*
X160752153Y-83268699D01*
X160604560Y-83329834D01*
X160500105Y-83350611D01*
X160447878Y-83361000D01*
X160288122Y-83361000D01*
X160235895Y-83350611D01*
X160131440Y-83329834D01*
X159983847Y-83268699D01*
X159851018Y-83179945D01*
X159738055Y-83066982D01*
X159649301Y-82934153D01*
X159588166Y-82786560D01*
X159565335Y-82671782D01*
X159557000Y-82629878D01*
X159557000Y-82470122D01*
X159588166Y-82313442D01*
X159588166Y-82313440D01*
X159649301Y-82165847D01*
X159738055Y-82033018D01*
X159851018Y-81920055D01*
X159983847Y-81831301D01*
X160131440Y-81770166D01*
X160235895Y-81749389D01*
X160288122Y-81739000D01*
X160447878Y-81739000D01*
X160500105Y-81749389D01*
G37*
G36*
X140500105Y-81749389D02*
G01*
X140604560Y-81770166D01*
X140752153Y-81831301D01*
X140884982Y-81920055D01*
X140997945Y-82033018D01*
X141086699Y-82165847D01*
X141147834Y-82313440D01*
X141147834Y-82313442D01*
X141179000Y-82470122D01*
X141179000Y-82629878D01*
X141170665Y-82671782D01*
X141147834Y-82786560D01*
X141086699Y-82934153D01*
X140997945Y-83066982D01*
X140884982Y-83179945D01*
X140752153Y-83268699D01*
X140604560Y-83329834D01*
X140500105Y-83350611D01*
X140447878Y-83361000D01*
X140288122Y-83361000D01*
X140235895Y-83350611D01*
X140131440Y-83329834D01*
X139983847Y-83268699D01*
X139851018Y-83179945D01*
X139738055Y-83066982D01*
X139649301Y-82934153D01*
X139588166Y-82786560D01*
X139565335Y-82671782D01*
X139557000Y-82629878D01*
X139557000Y-82470122D01*
X139588166Y-82313442D01*
X139588166Y-82313440D01*
X139649301Y-82165847D01*
X139738055Y-82033018D01*
X139851018Y-81920055D01*
X139983847Y-81831301D01*
X140131440Y-81770166D01*
X140235895Y-81749389D01*
X140288122Y-81739000D01*
X140447878Y-81739000D01*
X140500105Y-81749389D01*
G37*
G36*
X154421659Y-81805911D02*
G01*
X154467244Y-81819739D01*
X154509261Y-81842198D01*
X154546083Y-81872417D01*
X154576302Y-81909239D01*
X154598761Y-81951256D01*
X154612589Y-81996841D01*
X154617500Y-82046704D01*
X154617500Y-83053296D01*
X154612589Y-83103159D01*
X154598761Y-83148744D01*
X154576302Y-83190761D01*
X154546083Y-83227583D01*
X154509261Y-83257802D01*
X154467244Y-83280261D01*
X154421659Y-83294089D01*
X154371796Y-83299000D01*
X153790204Y-83299000D01*
X153740341Y-83294089D01*
X153694756Y-83280261D01*
X153652739Y-83257802D01*
X153615917Y-83227583D01*
X153585698Y-83190761D01*
X153563239Y-83148744D01*
X153549411Y-83103159D01*
X153544500Y-83053296D01*
X153544500Y-82046704D01*
X153549411Y-81996841D01*
X153563239Y-81951256D01*
X153585698Y-81909239D01*
X153615917Y-81872417D01*
X153652739Y-81842198D01*
X153694756Y-81819739D01*
X153740341Y-81805911D01*
X153790204Y-81801000D01*
X154371796Y-81801000D01*
X154421659Y-81805911D01*
G37*
G36*
X156296659Y-81805911D02*
G01*
X156342244Y-81819739D01*
X156384261Y-81842198D01*
X156421083Y-81872417D01*
X156451302Y-81909239D01*
X156473761Y-81951256D01*
X156487589Y-81996841D01*
X156492500Y-82046704D01*
X156492500Y-83053296D01*
X156487589Y-83103159D01*
X156473761Y-83148744D01*
X156451302Y-83190761D01*
X156421083Y-83227583D01*
X156384261Y-83257802D01*
X156342244Y-83280261D01*
X156296659Y-83294089D01*
X156246796Y-83299000D01*
X155665204Y-83299000D01*
X155615341Y-83294089D01*
X155569756Y-83280261D01*
X155527739Y-83257802D01*
X155490917Y-83227583D01*
X155460698Y-83190761D01*
X155438239Y-83148744D01*
X155424411Y-83103159D01*
X155419500Y-83053296D01*
X155419500Y-82046704D01*
X155424411Y-81996841D01*
X155438239Y-81951256D01*
X155460698Y-81909239D01*
X155490917Y-81872417D01*
X155527739Y-81842198D01*
X155569756Y-81819739D01*
X155615341Y-81805911D01*
X155665204Y-81801000D01*
X156246796Y-81801000D01*
X156296659Y-81805911D01*
G37*
G36*
X146977159Y-81551911D02*
G01*
X147022744Y-81565739D01*
X147064761Y-81588198D01*
X147101583Y-81618417D01*
X147131802Y-81655239D01*
X147154261Y-81697256D01*
X147168089Y-81742841D01*
X147173000Y-81792704D01*
X147173000Y-82799296D01*
X147168089Y-82849159D01*
X147154261Y-82894744D01*
X147131802Y-82936761D01*
X147101583Y-82973583D01*
X147064761Y-83003802D01*
X147022744Y-83026261D01*
X146977159Y-83040089D01*
X146927296Y-83045000D01*
X146345704Y-83045000D01*
X146295841Y-83040089D01*
X146250256Y-83026261D01*
X146208239Y-83003802D01*
X146171417Y-82973583D01*
X146141198Y-82936761D01*
X146118739Y-82894744D01*
X146104911Y-82849159D01*
X146100000Y-82799296D01*
X146100000Y-81792704D01*
X146104911Y-81742841D01*
X146118739Y-81697256D01*
X146141198Y-81655239D01*
X146171417Y-81618417D01*
X146208239Y-81588198D01*
X146250256Y-81565739D01*
X146295841Y-81551911D01*
X146345704Y-81547000D01*
X146927296Y-81547000D01*
X146977159Y-81551911D01*
G37*
G36*
X148852159Y-81551911D02*
G01*
X148897744Y-81565739D01*
X148939761Y-81588198D01*
X148976583Y-81618417D01*
X149006802Y-81655239D01*
X149029261Y-81697256D01*
X149043089Y-81742841D01*
X149048000Y-81792704D01*
X149048000Y-82799296D01*
X149043089Y-82849159D01*
X149029261Y-82894744D01*
X149006802Y-82936761D01*
X148976583Y-82973583D01*
X148939761Y-83003802D01*
X148897744Y-83026261D01*
X148852159Y-83040089D01*
X148802296Y-83045000D01*
X148220704Y-83045000D01*
X148170841Y-83040089D01*
X148125256Y-83026261D01*
X148083239Y-83003802D01*
X148046417Y-82973583D01*
X148016198Y-82936761D01*
X147993739Y-82894744D01*
X147979911Y-82849159D01*
X147975000Y-82799296D01*
X147975000Y-81792704D01*
X147979911Y-81742841D01*
X147993739Y-81697256D01*
X148016198Y-81655239D01*
X148046417Y-81618417D01*
X148083239Y-81588198D01*
X148125256Y-81565739D01*
X148170841Y-81551911D01*
X148220704Y-81547000D01*
X148802296Y-81547000D01*
X148852159Y-81551911D01*
G37*
G36*
X152187000Y-82875000D02*
G01*
X151089000Y-82875000D01*
X151089000Y-81377000D01*
X152187000Y-81377000D01*
X152187000Y-82875000D01*
G37*
G36*
X137071159Y-81297911D02*
G01*
X137116744Y-81311739D01*
X137158761Y-81334198D01*
X137195583Y-81364417D01*
X137225802Y-81401239D01*
X137248261Y-81443256D01*
X137262089Y-81488841D01*
X137267000Y-81538704D01*
X137267000Y-82545296D01*
X137262089Y-82595159D01*
X137248261Y-82640744D01*
X137225802Y-82682761D01*
X137195583Y-82719583D01*
X137158761Y-82749802D01*
X137116744Y-82772261D01*
X137071159Y-82786089D01*
X137021296Y-82791000D01*
X136439704Y-82791000D01*
X136389841Y-82786089D01*
X136344256Y-82772261D01*
X136302239Y-82749802D01*
X136265417Y-82719583D01*
X136235198Y-82682761D01*
X136212739Y-82640744D01*
X136198911Y-82595159D01*
X136194000Y-82545296D01*
X136194000Y-81538704D01*
X136198911Y-81488841D01*
X136212739Y-81443256D01*
X136235198Y-81401239D01*
X136265417Y-81364417D01*
X136302239Y-81334198D01*
X136344256Y-81311739D01*
X136389841Y-81297911D01*
X136439704Y-81293000D01*
X137021296Y-81293000D01*
X137071159Y-81297911D01*
G37*
G36*
X138946159Y-81297911D02*
G01*
X138991744Y-81311739D01*
X139033761Y-81334198D01*
X139070583Y-81364417D01*
X139100802Y-81401239D01*
X139123261Y-81443256D01*
X139137089Y-81488841D01*
X139142000Y-81538704D01*
X139142000Y-82545296D01*
X139137089Y-82595159D01*
X139123261Y-82640744D01*
X139100802Y-82682761D01*
X139070583Y-82719583D01*
X139033761Y-82749802D01*
X138991744Y-82772261D01*
X138946159Y-82786089D01*
X138896296Y-82791000D01*
X138314704Y-82791000D01*
X138264841Y-82786089D01*
X138219256Y-82772261D01*
X138177239Y-82749802D01*
X138140417Y-82719583D01*
X138110198Y-82682761D01*
X138087739Y-82640744D01*
X138073911Y-82595159D01*
X138069000Y-82545296D01*
X138069000Y-81538704D01*
X138073911Y-81488841D01*
X138087739Y-81443256D01*
X138110198Y-81401239D01*
X138140417Y-81364417D01*
X138177239Y-81334198D01*
X138219256Y-81311739D01*
X138264841Y-81297911D01*
X138314704Y-81293000D01*
X138896296Y-81293000D01*
X138946159Y-81297911D01*
G37*
G36*
X184795000Y-82179000D02*
G01*
X182997000Y-82179000D01*
X182997000Y-80381000D01*
X184795000Y-80381000D01*
X184795000Y-82179000D01*
G37*
G36*
X172561000Y-82129000D02*
G01*
X170283000Y-82129000D01*
X170283000Y-80431000D01*
X172561000Y-80431000D01*
X172561000Y-82129000D01*
G37*
G36*
X181761000Y-82129000D02*
G01*
X179483000Y-82129000D01*
X179483000Y-80431000D01*
X181761000Y-80431000D01*
X181761000Y-82129000D01*
G37*
G36*
X162097159Y-80669911D02*
G01*
X162142744Y-80683739D01*
X162184761Y-80706198D01*
X162221583Y-80736417D01*
X162251802Y-80773239D01*
X162274261Y-80815256D01*
X162288089Y-80860841D01*
X162293000Y-80910704D01*
X162293000Y-81492296D01*
X162288089Y-81542159D01*
X162274261Y-81587744D01*
X162251802Y-81629761D01*
X162221583Y-81666583D01*
X162184761Y-81696802D01*
X162142744Y-81719261D01*
X162097159Y-81733089D01*
X162047296Y-81738000D01*
X161040704Y-81738000D01*
X160990841Y-81733089D01*
X160945256Y-81719261D01*
X160903239Y-81696802D01*
X160866417Y-81666583D01*
X160836198Y-81629761D01*
X160813739Y-81587744D01*
X160799911Y-81542159D01*
X160795000Y-81492296D01*
X160795000Y-80910704D01*
X160799911Y-80860841D01*
X160813739Y-80815256D01*
X160836198Y-80773239D01*
X160866417Y-80736417D01*
X160903239Y-80706198D01*
X160945256Y-80683739D01*
X160990841Y-80669911D01*
X161040704Y-80665000D01*
X162047296Y-80665000D01*
X162097159Y-80669911D01*
G37*
G36*
X158287159Y-80669911D02*
G01*
X158332744Y-80683739D01*
X158374761Y-80706198D01*
X158411583Y-80736417D01*
X158441802Y-80773239D01*
X158464261Y-80815256D01*
X158478089Y-80860841D01*
X158483000Y-80910704D01*
X158483000Y-81492296D01*
X158478089Y-81542159D01*
X158464261Y-81587744D01*
X158441802Y-81629761D01*
X158411583Y-81666583D01*
X158374761Y-81696802D01*
X158332744Y-81719261D01*
X158287159Y-81733089D01*
X158237296Y-81738000D01*
X157230704Y-81738000D01*
X157180841Y-81733089D01*
X157135256Y-81719261D01*
X157093239Y-81696802D01*
X157056417Y-81666583D01*
X157026198Y-81629761D01*
X157003739Y-81587744D01*
X156989911Y-81542159D01*
X156985000Y-81492296D01*
X156985000Y-80910704D01*
X156989911Y-80860841D01*
X157003739Y-80815256D01*
X157026198Y-80773239D01*
X157056417Y-80736417D01*
X157093239Y-80706198D01*
X157135256Y-80683739D01*
X157180841Y-80669911D01*
X157230704Y-80665000D01*
X158237296Y-80665000D01*
X158287159Y-80669911D01*
G37*
G36*
X168313000Y-80813000D02*
G01*
X165705000Y-80813000D01*
X165705000Y-79715000D01*
X168313000Y-79715000D01*
X168313000Y-80813000D01*
G37*
G36*
X156118000Y-80740000D02*
G01*
X154270000Y-80740000D01*
X154270000Y-77992000D01*
X156118000Y-77992000D01*
X156118000Y-80740000D01*
G37*
G36*
X151237000Y-80675000D02*
G01*
X150139000Y-80675000D01*
X150139000Y-79177000D01*
X151237000Y-79177000D01*
X151237000Y-80675000D01*
G37*
G36*
X153137000Y-80675000D02*
G01*
X152039000Y-80675000D01*
X152039000Y-79177000D01*
X153137000Y-79177000D01*
X153137000Y-80675000D01*
G37*
G36*
X134561000Y-80525000D02*
G01*
X133663000Y-80525000D01*
X133663000Y-78527000D01*
X134561000Y-78527000D01*
X134561000Y-80525000D01*
G37*
G36*
X143187000Y-80315000D02*
G01*
X141089000Y-80315000D01*
X141089000Y-78717000D01*
X143187000Y-78717000D01*
X143187000Y-80315000D01*
G37*
G36*
X140216159Y-78757911D02*
G01*
X140261744Y-78771739D01*
X140303761Y-78794198D01*
X140340583Y-78824417D01*
X140370802Y-78861239D01*
X140393261Y-78903256D01*
X140407089Y-78948841D01*
X140412000Y-78998704D01*
X140412000Y-80005296D01*
X140407089Y-80055159D01*
X140393261Y-80100744D01*
X140370802Y-80142761D01*
X140340583Y-80179583D01*
X140303761Y-80209802D01*
X140261744Y-80232261D01*
X140216159Y-80246089D01*
X140166296Y-80251000D01*
X139584704Y-80251000D01*
X139534841Y-80246089D01*
X139489256Y-80232261D01*
X139447239Y-80209802D01*
X139410417Y-80179583D01*
X139380198Y-80142761D01*
X139357739Y-80100744D01*
X139343911Y-80055159D01*
X139339000Y-80005296D01*
X139339000Y-78998704D01*
X139343911Y-78948841D01*
X139357739Y-78903256D01*
X139380198Y-78861239D01*
X139410417Y-78824417D01*
X139447239Y-78794198D01*
X139489256Y-78771739D01*
X139534841Y-78757911D01*
X139584704Y-78753000D01*
X140166296Y-78753000D01*
X140216159Y-78757911D01*
G37*
G36*
X138341159Y-78757911D02*
G01*
X138386744Y-78771739D01*
X138428761Y-78794198D01*
X138465583Y-78824417D01*
X138495802Y-78861239D01*
X138518261Y-78903256D01*
X138532089Y-78948841D01*
X138537000Y-78998704D01*
X138537000Y-80005296D01*
X138532089Y-80055159D01*
X138518261Y-80100744D01*
X138495802Y-80142761D01*
X138465583Y-80179583D01*
X138428761Y-80209802D01*
X138386744Y-80232261D01*
X138341159Y-80246089D01*
X138291296Y-80251000D01*
X137709704Y-80251000D01*
X137659841Y-80246089D01*
X137614256Y-80232261D01*
X137572239Y-80209802D01*
X137535417Y-80179583D01*
X137505198Y-80142761D01*
X137482739Y-80100744D01*
X137468911Y-80055159D01*
X137464000Y-80005296D01*
X137464000Y-78998704D01*
X137468911Y-78948841D01*
X137482739Y-78903256D01*
X137505198Y-78861239D01*
X137535417Y-78824417D01*
X137572239Y-78794198D01*
X137614256Y-78771739D01*
X137659841Y-78757911D01*
X137709704Y-78753000D01*
X138291296Y-78753000D01*
X138341159Y-78757911D01*
G37*
G36*
X162097159Y-78794911D02*
G01*
X162142744Y-78808739D01*
X162184761Y-78831198D01*
X162221583Y-78861417D01*
X162251802Y-78898239D01*
X162274261Y-78940256D01*
X162288089Y-78985841D01*
X162293000Y-79035704D01*
X162293000Y-79617296D01*
X162288089Y-79667159D01*
X162274261Y-79712744D01*
X162251802Y-79754761D01*
X162221583Y-79791583D01*
X162184761Y-79821802D01*
X162142744Y-79844261D01*
X162097159Y-79858089D01*
X162047296Y-79863000D01*
X161040704Y-79863000D01*
X160990841Y-79858089D01*
X160945256Y-79844261D01*
X160903239Y-79821802D01*
X160866417Y-79791583D01*
X160836198Y-79754761D01*
X160813739Y-79712744D01*
X160799911Y-79667159D01*
X160795000Y-79617296D01*
X160795000Y-79035704D01*
X160799911Y-78985841D01*
X160813739Y-78940256D01*
X160836198Y-78898239D01*
X160866417Y-78861417D01*
X160903239Y-78831198D01*
X160945256Y-78808739D01*
X160990841Y-78794911D01*
X161040704Y-78790000D01*
X162047296Y-78790000D01*
X162097159Y-78794911D01*
G37*
G36*
X158287159Y-78794911D02*
G01*
X158332744Y-78808739D01*
X158374761Y-78831198D01*
X158411583Y-78861417D01*
X158441802Y-78898239D01*
X158464261Y-78940256D01*
X158478089Y-78985841D01*
X158483000Y-79035704D01*
X158483000Y-79617296D01*
X158478089Y-79667159D01*
X158464261Y-79712744D01*
X158441802Y-79754761D01*
X158411583Y-79791583D01*
X158374761Y-79821802D01*
X158332744Y-79844261D01*
X158287159Y-79858089D01*
X158237296Y-79863000D01*
X157230704Y-79863000D01*
X157180841Y-79858089D01*
X157135256Y-79844261D01*
X157093239Y-79821802D01*
X157056417Y-79791583D01*
X157026198Y-79754761D01*
X157003739Y-79712744D01*
X156989911Y-79667159D01*
X156985000Y-79617296D01*
X156985000Y-79035704D01*
X156989911Y-78985841D01*
X157003739Y-78940256D01*
X157026198Y-78898239D01*
X157056417Y-78861417D01*
X157093239Y-78831198D01*
X157135256Y-78808739D01*
X157180841Y-78794911D01*
X157230704Y-78790000D01*
X158237296Y-78790000D01*
X158287159Y-78794911D01*
G37*
G36*
X149487000Y-79165000D02*
G01*
X147389000Y-79165000D01*
X147389000Y-75267000D01*
X149487000Y-75267000D01*
X149487000Y-79165000D01*
G37*
G36*
X185344039Y-76828935D02*
G01*
X185432196Y-76846470D01*
X185529484Y-76886768D01*
X185598277Y-76915263D01*
X185598278Y-76915264D01*
X185747749Y-77015137D01*
X185874863Y-77142251D01*
X185874864Y-77142253D01*
X185974737Y-77291723D01*
X185979408Y-77303000D01*
X186043530Y-77457804D01*
X186078600Y-77634117D01*
X186078600Y-77813883D01*
X186043530Y-77990196D01*
X186003232Y-78087484D01*
X185974737Y-78156277D01*
X185974736Y-78156278D01*
X185874863Y-78305749D01*
X185747749Y-78432863D01*
X185716115Y-78454000D01*
X185598277Y-78532737D01*
X185529484Y-78561232D01*
X185432196Y-78601530D01*
X185344040Y-78619065D01*
X185255885Y-78636600D01*
X185076115Y-78636600D01*
X184987960Y-78619065D01*
X184899804Y-78601530D01*
X184802516Y-78561232D01*
X184733723Y-78532737D01*
X184615885Y-78454000D01*
X184584251Y-78432863D01*
X184457137Y-78305749D01*
X184357264Y-78156278D01*
X184357263Y-78156277D01*
X184328768Y-78087484D01*
X184288470Y-77990196D01*
X184253400Y-77813883D01*
X184253400Y-77634117D01*
X184288470Y-77457804D01*
X184352592Y-77303000D01*
X184357263Y-77291723D01*
X184457136Y-77142253D01*
X184457137Y-77142251D01*
X184584251Y-77015137D01*
X184733722Y-76915264D01*
X184733723Y-76915263D01*
X184802516Y-76886768D01*
X184899804Y-76846470D01*
X184987961Y-76828935D01*
X185076115Y-76811400D01*
X185255885Y-76811400D01*
X185344039Y-76828935D01*
G37*
G36*
X182804039Y-76828935D02*
G01*
X182892196Y-76846470D01*
X182989484Y-76886768D01*
X183058277Y-76915263D01*
X183058278Y-76915264D01*
X183207749Y-77015137D01*
X183334863Y-77142251D01*
X183334864Y-77142253D01*
X183434737Y-77291723D01*
X183439408Y-77303000D01*
X183503530Y-77457804D01*
X183538600Y-77634117D01*
X183538600Y-77813883D01*
X183503530Y-77990196D01*
X183463232Y-78087484D01*
X183434737Y-78156277D01*
X183434736Y-78156278D01*
X183334863Y-78305749D01*
X183207749Y-78432863D01*
X183176115Y-78454000D01*
X183058277Y-78532737D01*
X182989484Y-78561232D01*
X182892196Y-78601530D01*
X182804040Y-78619065D01*
X182715885Y-78636600D01*
X182536115Y-78636600D01*
X182447960Y-78619065D01*
X182359804Y-78601530D01*
X182262516Y-78561232D01*
X182193723Y-78532737D01*
X182075885Y-78454000D01*
X182044251Y-78432863D01*
X181917137Y-78305749D01*
X181817264Y-78156278D01*
X181817263Y-78156277D01*
X181788768Y-78087484D01*
X181748470Y-77990196D01*
X181713400Y-77813883D01*
X181713400Y-77634117D01*
X181748470Y-77457804D01*
X181812592Y-77303000D01*
X181817263Y-77291723D01*
X181917136Y-77142253D01*
X181917137Y-77142251D01*
X182044251Y-77015137D01*
X182193722Y-76915264D01*
X182193723Y-76915263D01*
X182262516Y-76886768D01*
X182359804Y-76846470D01*
X182447961Y-76828935D01*
X182536115Y-76811400D01*
X182715885Y-76811400D01*
X182804039Y-76828935D01*
G37*
G36*
X180264039Y-76828935D02*
G01*
X180352196Y-76846470D01*
X180449484Y-76886768D01*
X180518277Y-76915263D01*
X180518278Y-76915264D01*
X180667749Y-77015137D01*
X180794863Y-77142251D01*
X180794864Y-77142253D01*
X180894737Y-77291723D01*
X180899408Y-77303000D01*
X180963530Y-77457804D01*
X180998600Y-77634117D01*
X180998600Y-77813883D01*
X180963530Y-77990196D01*
X180923232Y-78087484D01*
X180894737Y-78156277D01*
X180894736Y-78156278D01*
X180794863Y-78305749D01*
X180667749Y-78432863D01*
X180636115Y-78454000D01*
X180518277Y-78532737D01*
X180449484Y-78561232D01*
X180352196Y-78601530D01*
X180264040Y-78619065D01*
X180175885Y-78636600D01*
X179996115Y-78636600D01*
X179907960Y-78619065D01*
X179819804Y-78601530D01*
X179722516Y-78561232D01*
X179653723Y-78532737D01*
X179535885Y-78454000D01*
X179504251Y-78432863D01*
X179377137Y-78305749D01*
X179277264Y-78156278D01*
X179277263Y-78156277D01*
X179248768Y-78087484D01*
X179208470Y-77990196D01*
X179173400Y-77813883D01*
X179173400Y-77634117D01*
X179208470Y-77457804D01*
X179272592Y-77303000D01*
X179277263Y-77291723D01*
X179377136Y-77142253D01*
X179377137Y-77142251D01*
X179504251Y-77015137D01*
X179653722Y-76915264D01*
X179653723Y-76915263D01*
X179722516Y-76886768D01*
X179819804Y-76846470D01*
X179907961Y-76828935D01*
X179996115Y-76811400D01*
X180175885Y-76811400D01*
X180264039Y-76828935D01*
G37*
G36*
X177724039Y-76828935D02*
G01*
X177812196Y-76846470D01*
X177909484Y-76886768D01*
X177978277Y-76915263D01*
X177978278Y-76915264D01*
X178127749Y-77015137D01*
X178254863Y-77142251D01*
X178254864Y-77142253D01*
X178354737Y-77291723D01*
X178359408Y-77303000D01*
X178423530Y-77457804D01*
X178458600Y-77634117D01*
X178458600Y-77813883D01*
X178423530Y-77990196D01*
X178383232Y-78087484D01*
X178354737Y-78156277D01*
X178354736Y-78156278D01*
X178254863Y-78305749D01*
X178127749Y-78432863D01*
X178096115Y-78454000D01*
X177978277Y-78532737D01*
X177909484Y-78561232D01*
X177812196Y-78601530D01*
X177724040Y-78619065D01*
X177635885Y-78636600D01*
X177456115Y-78636600D01*
X177367960Y-78619065D01*
X177279804Y-78601530D01*
X177182516Y-78561232D01*
X177113723Y-78532737D01*
X176995885Y-78454000D01*
X176964251Y-78432863D01*
X176837137Y-78305749D01*
X176737264Y-78156278D01*
X176737263Y-78156277D01*
X176708768Y-78087484D01*
X176668470Y-77990196D01*
X176633400Y-77813883D01*
X176633400Y-77634117D01*
X176668470Y-77457804D01*
X176732592Y-77303000D01*
X176737263Y-77291723D01*
X176837136Y-77142253D01*
X176837137Y-77142251D01*
X176964251Y-77015137D01*
X177113722Y-76915264D01*
X177113723Y-76915263D01*
X177182516Y-76886768D01*
X177279804Y-76846470D01*
X177367961Y-76828935D01*
X177456115Y-76811400D01*
X177635885Y-76811400D01*
X177724039Y-76828935D01*
G37*
G36*
X153197000Y-78454000D02*
G01*
X150079000Y-78454000D01*
X150079000Y-76846000D01*
X153197000Y-76846000D01*
X153197000Y-78454000D01*
G37*
G36*
X165003000Y-78273000D02*
G01*
X162395000Y-78273000D01*
X162395000Y-77175000D01*
X165003000Y-77175000D01*
X165003000Y-78273000D01*
G37*
G36*
X134073922Y-76654329D02*
G01*
X134123767Y-76664244D01*
X134264626Y-76722590D01*
X134349330Y-76779187D01*
X134391395Y-76807294D01*
X134499206Y-76915105D01*
X134499312Y-76915264D01*
X134583910Y-77041874D01*
X134642256Y-77182733D01*
X134647481Y-77209000D01*
X134666179Y-77303000D01*
X134672000Y-77332268D01*
X134672000Y-77484732D01*
X134642256Y-77634267D01*
X134583910Y-77775126D01*
X134558013Y-77813883D01*
X134499206Y-77901895D01*
X134391395Y-78009706D01*
X134349330Y-78037813D01*
X134264626Y-78094410D01*
X134123767Y-78152756D01*
X134106060Y-78156278D01*
X133974234Y-78182500D01*
X133821766Y-78182500D01*
X133689940Y-78156278D01*
X133672233Y-78152756D01*
X133531374Y-78094410D01*
X133446670Y-78037813D01*
X133404605Y-78009706D01*
X133296794Y-77901895D01*
X133237987Y-77813883D01*
X133212090Y-77775126D01*
X133153744Y-77634267D01*
X133124000Y-77484732D01*
X133124000Y-77332268D01*
X133129822Y-77303000D01*
X133148519Y-77209000D01*
X133153744Y-77182733D01*
X133212090Y-77041874D01*
X133296688Y-76915264D01*
X133296794Y-76915105D01*
X133404605Y-76807294D01*
X133446670Y-76779187D01*
X133531374Y-76722590D01*
X133672233Y-76664244D01*
X133722078Y-76654329D01*
X133821766Y-76634500D01*
X133974234Y-76634500D01*
X134073922Y-76654329D01*
G37*
G36*
X139073922Y-76654329D02*
G01*
X139123767Y-76664244D01*
X139264626Y-76722590D01*
X139349330Y-76779187D01*
X139391395Y-76807294D01*
X139499206Y-76915105D01*
X139499312Y-76915264D01*
X139583910Y-77041874D01*
X139642256Y-77182733D01*
X139647481Y-77209000D01*
X139666179Y-77303000D01*
X139672000Y-77332268D01*
X139672000Y-77484732D01*
X139642256Y-77634267D01*
X139583910Y-77775126D01*
X139558013Y-77813883D01*
X139499206Y-77901895D01*
X139391395Y-78009706D01*
X139349330Y-78037813D01*
X139264626Y-78094410D01*
X139123767Y-78152756D01*
X139106060Y-78156278D01*
X138974234Y-78182500D01*
X138821766Y-78182500D01*
X138689940Y-78156278D01*
X138672233Y-78152756D01*
X138531374Y-78094410D01*
X138446670Y-78037813D01*
X138404605Y-78009706D01*
X138296794Y-77901895D01*
X138237987Y-77813883D01*
X138212090Y-77775126D01*
X138153744Y-77634267D01*
X138124000Y-77484732D01*
X138124000Y-77332268D01*
X138129822Y-77303000D01*
X138148519Y-77209000D01*
X138153744Y-77182733D01*
X138212090Y-77041874D01*
X138296688Y-76915264D01*
X138296794Y-76915105D01*
X138404605Y-76807294D01*
X138446670Y-76779187D01*
X138531374Y-76722590D01*
X138672233Y-76664244D01*
X138722078Y-76654329D01*
X138821766Y-76634500D01*
X138974234Y-76634500D01*
X139073922Y-76654329D01*
G37*
G36*
X135347000Y-78132500D02*
G01*
X134849000Y-78132500D01*
X134849000Y-76684500D01*
X135347000Y-76684500D01*
X135347000Y-78132500D01*
G37*
G36*
X137947000Y-78132500D02*
G01*
X137449000Y-78132500D01*
X137449000Y-76684500D01*
X137947000Y-76684500D01*
X137947000Y-78132500D01*
G37*
G36*
X137297000Y-78132500D02*
G01*
X136799000Y-78132500D01*
X136799000Y-76684500D01*
X137297000Y-76684500D01*
X137297000Y-78132500D01*
G37*
G36*
X135997000Y-78132500D02*
G01*
X135499000Y-78132500D01*
X135499000Y-76684500D01*
X135997000Y-76684500D01*
X135997000Y-78132500D01*
G37*
G36*
X136647000Y-78132500D02*
G01*
X136149000Y-78132500D01*
X136149000Y-76684500D01*
X136647000Y-76684500D01*
X136647000Y-78132500D01*
G37*
G36*
X143187000Y-78015000D02*
G01*
X141089000Y-78015000D01*
X141089000Y-76417000D01*
X143187000Y-76417000D01*
X143187000Y-78015000D01*
G37*
G36*
X159958902Y-74950919D02*
G01*
X159958905Y-74950920D01*
X159958904Y-74950920D01*
X160195307Y-75048841D01*
X160257480Y-75090384D01*
X160400170Y-75185726D01*
X160408064Y-75191001D01*
X160588999Y-75371936D01*
X160731159Y-75584693D01*
X160747936Y-75625196D01*
X160829081Y-75821098D01*
X160879000Y-76072058D01*
X160879000Y-76327942D01*
X160829081Y-76578902D01*
X160829080Y-76578904D01*
X160731159Y-76815307D01*
X160664476Y-76915105D01*
X160589000Y-77028063D01*
X160408063Y-77209000D01*
X160337466Y-77256171D01*
X160195307Y-77351159D01*
X160028144Y-77420400D01*
X159958902Y-77449081D01*
X159707942Y-77499000D01*
X159452058Y-77499000D01*
X159201098Y-77449081D01*
X159131856Y-77420400D01*
X158964693Y-77351159D01*
X158822534Y-77256171D01*
X158751937Y-77209000D01*
X158571000Y-77028063D01*
X158495524Y-76915105D01*
X158428841Y-76815307D01*
X158330920Y-76578904D01*
X158330919Y-76578902D01*
X158281000Y-76327942D01*
X158281000Y-76072058D01*
X158330919Y-75821098D01*
X158412064Y-75625196D01*
X158428841Y-75584693D01*
X158571001Y-75371936D01*
X158751936Y-75191001D01*
X158759831Y-75185726D01*
X158902520Y-75090384D01*
X158964693Y-75048841D01*
X159201096Y-74950920D01*
X159201095Y-74950920D01*
X159201098Y-74950919D01*
X159452058Y-74901000D01*
X159707942Y-74901000D01*
X159958902Y-74950919D01*
G37*
G36*
X171883068Y-75609674D02*
G01*
X171926347Y-75622803D01*
X171966228Y-75644120D01*
X172001188Y-75672812D01*
X172029880Y-75707772D01*
X172051197Y-75747653D01*
X172064326Y-75790932D01*
X172069000Y-75838392D01*
X172069000Y-77069608D01*
X172064326Y-77117068D01*
X172051197Y-77160347D01*
X172029880Y-77200228D01*
X172001188Y-77235188D01*
X171966228Y-77263880D01*
X171926347Y-77285197D01*
X171883068Y-77298326D01*
X171835608Y-77303000D01*
X169204392Y-77303000D01*
X169156932Y-77298326D01*
X169113653Y-77285197D01*
X169073772Y-77263880D01*
X169038812Y-77235188D01*
X169010120Y-77200228D01*
X168988803Y-77160347D01*
X168975674Y-77117068D01*
X168971000Y-77069608D01*
X168971000Y-75838392D01*
X168975674Y-75790932D01*
X168988803Y-75747653D01*
X169010120Y-75707772D01*
X169038812Y-75672812D01*
X169073772Y-75644120D01*
X169113653Y-75622803D01*
X169156932Y-75609674D01*
X169204392Y-75605000D01*
X171835608Y-75605000D01*
X171883068Y-75609674D01*
G37*
G36*
X176283068Y-75609674D02*
G01*
X176326347Y-75622803D01*
X176366228Y-75644120D01*
X176401188Y-75672812D01*
X176429880Y-75707772D01*
X176451197Y-75747653D01*
X176464326Y-75790932D01*
X176469000Y-75838392D01*
X176469000Y-77069608D01*
X176464326Y-77117068D01*
X176451197Y-77160347D01*
X176429880Y-77200228D01*
X176401188Y-77235188D01*
X176366228Y-77263880D01*
X176326347Y-77285197D01*
X176283068Y-77298326D01*
X176235608Y-77303000D01*
X173604392Y-77303000D01*
X173556932Y-77298326D01*
X173513653Y-77285197D01*
X173473772Y-77263880D01*
X173438812Y-77235188D01*
X173410120Y-77200228D01*
X173388803Y-77160347D01*
X173375674Y-77117068D01*
X173371000Y-77069608D01*
X173371000Y-75838392D01*
X173375674Y-75790932D01*
X173388803Y-75747653D01*
X173410120Y-75707772D01*
X173438812Y-75672812D01*
X173473772Y-75644120D01*
X173513653Y-75622803D01*
X173556932Y-75609674D01*
X173604392Y-75605000D01*
X176235608Y-75605000D01*
X176283068Y-75609674D01*
G37*
G36*
X156118000Y-76440000D02*
G01*
X154270000Y-76440000D01*
X154270000Y-73692000D01*
X156118000Y-73692000D01*
X156118000Y-76440000D01*
G37*
G36*
X182804040Y-74288935D02*
G01*
X182892196Y-74306470D01*
X182989484Y-74346768D01*
X183058277Y-74375263D01*
X183058278Y-74375264D01*
X183207749Y-74475137D01*
X183334863Y-74602251D01*
X183334864Y-74602253D01*
X183434737Y-74751723D01*
X183463232Y-74820516D01*
X183503530Y-74917804D01*
X183503530Y-74917806D01*
X183538600Y-75094115D01*
X183538600Y-75273885D01*
X183531801Y-75308064D01*
X183503530Y-75450196D01*
X183474769Y-75519631D01*
X183434737Y-75616277D01*
X183396961Y-75672812D01*
X183334863Y-75765749D01*
X183207749Y-75892863D01*
X183132505Y-75943139D01*
X183058277Y-75992737D01*
X182989484Y-76021232D01*
X182892196Y-76061530D01*
X182804040Y-76079065D01*
X182715885Y-76096600D01*
X182536115Y-76096600D01*
X182447960Y-76079065D01*
X182359804Y-76061530D01*
X182262516Y-76021232D01*
X182193723Y-75992737D01*
X182119495Y-75943139D01*
X182044251Y-75892863D01*
X181917137Y-75765749D01*
X181855039Y-75672812D01*
X181817263Y-75616277D01*
X181777231Y-75519631D01*
X181748470Y-75450196D01*
X181720199Y-75308064D01*
X181713400Y-75273885D01*
X181713400Y-75094115D01*
X181748470Y-74917806D01*
X181748470Y-74917804D01*
X181788768Y-74820516D01*
X181817263Y-74751723D01*
X181917136Y-74602253D01*
X181917137Y-74602251D01*
X182044251Y-74475137D01*
X182193722Y-74375264D01*
X182193723Y-74375263D01*
X182262516Y-74346768D01*
X182359804Y-74306470D01*
X182447961Y-74288935D01*
X182536115Y-74271400D01*
X182715885Y-74271400D01*
X182804040Y-74288935D01*
G37*
G36*
X186078600Y-76096600D02*
G01*
X184253400Y-76096600D01*
X184253400Y-74271400D01*
X186078600Y-74271400D01*
X186078600Y-76096600D01*
G37*
G36*
X177724040Y-74288935D02*
G01*
X177812196Y-74306470D01*
X177909484Y-74346768D01*
X177978277Y-74375263D01*
X177978278Y-74375264D01*
X178127749Y-74475137D01*
X178254863Y-74602251D01*
X178254864Y-74602253D01*
X178354737Y-74751723D01*
X178383232Y-74820516D01*
X178423530Y-74917804D01*
X178423530Y-74917806D01*
X178458600Y-75094115D01*
X178458600Y-75273885D01*
X178451801Y-75308064D01*
X178423530Y-75450196D01*
X178394769Y-75519631D01*
X178354737Y-75616277D01*
X178316961Y-75672812D01*
X178254863Y-75765749D01*
X178127749Y-75892863D01*
X178052505Y-75943139D01*
X177978277Y-75992737D01*
X177909484Y-76021232D01*
X177812196Y-76061530D01*
X177724040Y-76079065D01*
X177635885Y-76096600D01*
X177456115Y-76096600D01*
X177367960Y-76079065D01*
X177279804Y-76061530D01*
X177182516Y-76021232D01*
X177113723Y-75992737D01*
X177039495Y-75943139D01*
X176964251Y-75892863D01*
X176837137Y-75765749D01*
X176775039Y-75672812D01*
X176737263Y-75616277D01*
X176697231Y-75519631D01*
X176668470Y-75450196D01*
X176640199Y-75308064D01*
X176633400Y-75273885D01*
X176633400Y-75094115D01*
X176668470Y-74917806D01*
X176668470Y-74917804D01*
X176708768Y-74820516D01*
X176737263Y-74751723D01*
X176837136Y-74602253D01*
X176837137Y-74602251D01*
X176964251Y-74475137D01*
X177113722Y-74375264D01*
X177113723Y-74375263D01*
X177182516Y-74346768D01*
X177279804Y-74306470D01*
X177367961Y-74288935D01*
X177456115Y-74271400D01*
X177635885Y-74271400D01*
X177724040Y-74288935D01*
G37*
G36*
X180264040Y-74288935D02*
G01*
X180352196Y-74306470D01*
X180449484Y-74346768D01*
X180518277Y-74375263D01*
X180518278Y-74375264D01*
X180667749Y-74475137D01*
X180794863Y-74602251D01*
X180794864Y-74602253D01*
X180894737Y-74751723D01*
X180923232Y-74820516D01*
X180963530Y-74917804D01*
X180963530Y-74917806D01*
X180998600Y-75094115D01*
X180998600Y-75273885D01*
X180991801Y-75308064D01*
X180963530Y-75450196D01*
X180934769Y-75519631D01*
X180894737Y-75616277D01*
X180856961Y-75672812D01*
X180794863Y-75765749D01*
X180667749Y-75892863D01*
X180592505Y-75943139D01*
X180518277Y-75992737D01*
X180449484Y-76021232D01*
X180352196Y-76061530D01*
X180264040Y-76079065D01*
X180175885Y-76096600D01*
X179996115Y-76096600D01*
X179907960Y-76079065D01*
X179819804Y-76061530D01*
X179722516Y-76021232D01*
X179653723Y-75992737D01*
X179579495Y-75943139D01*
X179504251Y-75892863D01*
X179377137Y-75765749D01*
X179315039Y-75672812D01*
X179277263Y-75616277D01*
X179237231Y-75519631D01*
X179208470Y-75450196D01*
X179180199Y-75308064D01*
X179173400Y-75273885D01*
X179173400Y-75094115D01*
X179208470Y-74917806D01*
X179208470Y-74917804D01*
X179248768Y-74820516D01*
X179277263Y-74751723D01*
X179377136Y-74602253D01*
X179377137Y-74602251D01*
X179504251Y-74475137D01*
X179653722Y-74375264D01*
X179653723Y-74375263D01*
X179722516Y-74346768D01*
X179819804Y-74306470D01*
X179907961Y-74288935D01*
X179996115Y-74271400D01*
X180175885Y-74271400D01*
X180264040Y-74288935D01*
G37*
G36*
X168313000Y-75733000D02*
G01*
X165705000Y-75733000D01*
X165705000Y-74635000D01*
X168313000Y-74635000D01*
X168313000Y-75733000D01*
G37*
G36*
X143187000Y-75715000D02*
G01*
X141089000Y-75715000D01*
X141089000Y-74117000D01*
X143187000Y-74117000D01*
X143187000Y-75715000D01*
G37*
G36*
X139927437Y-73709259D02*
G01*
X139932338Y-73709500D01*
X139973070Y-73709500D01*
X139977865Y-73712063D01*
X139987245Y-73714908D01*
X139992099Y-73715628D01*
X140025224Y-73718890D01*
X140103418Y-73742610D01*
X140147562Y-73756001D01*
X140260309Y-73816265D01*
X140359133Y-73897367D01*
X140440235Y-73996190D01*
X140494314Y-74097366D01*
X140500498Y-74108935D01*
X140537610Y-74231274D01*
X140547000Y-74326616D01*
X140547000Y-75090384D01*
X140537610Y-75185726D01*
X140512955Y-75267000D01*
X140500499Y-75308063D01*
X140440235Y-75420810D01*
X140359133Y-75519633D01*
X140260310Y-75600735D01*
X140147563Y-75660999D01*
X140108620Y-75672812D01*
X140025225Y-75698110D01*
X139992098Y-75701373D01*
X139982484Y-75703285D01*
X139973429Y-75707036D01*
X139972735Y-75707500D01*
X139932338Y-75707500D01*
X139927437Y-75707741D01*
X139898000Y-75710640D01*
X139868563Y-75707741D01*
X139863662Y-75707500D01*
X138649000Y-75707500D01*
X138649000Y-73709500D01*
X139863662Y-73709500D01*
X139868563Y-73709259D01*
X139898000Y-73706360D01*
X139927437Y-73709259D01*
G37*
G36*
X132927437Y-73709259D02*
G01*
X132932338Y-73709500D01*
X134147000Y-73709500D01*
X134147000Y-75707500D01*
X132932338Y-75707500D01*
X132927437Y-75707741D01*
X132898000Y-75710640D01*
X132868563Y-75707741D01*
X132863662Y-75707500D01*
X132822928Y-75707500D01*
X132818135Y-75704938D01*
X132803902Y-75701373D01*
X132770775Y-75698110D01*
X132687380Y-75672812D01*
X132648437Y-75660999D01*
X132535690Y-75600735D01*
X132436867Y-75519633D01*
X132355765Y-75420809D01*
X132295501Y-75308062D01*
X132283045Y-75267000D01*
X132258390Y-75185725D01*
X132249000Y-75090383D01*
X132249000Y-74326616D01*
X132258390Y-74231275D01*
X132270761Y-74190495D01*
X132295501Y-74108937D01*
X132355766Y-73996190D01*
X132436868Y-73897367D01*
X132535691Y-73816265D01*
X132648438Y-73756001D01*
X132692582Y-73742610D01*
X132770776Y-73718890D01*
X132803901Y-73715628D01*
X132813514Y-73713716D01*
X132822570Y-73709965D01*
X132823266Y-73709500D01*
X132863662Y-73709500D01*
X132868563Y-73709259D01*
X132898000Y-73706360D01*
X132927437Y-73709259D01*
G37*
G36*
X138197000Y-75707500D02*
G01*
X136599000Y-75707500D01*
X136599000Y-73709500D01*
X138197000Y-73709500D01*
X138197000Y-75707500D01*
G37*
G36*
X136197000Y-75707500D02*
G01*
X134599000Y-75707500D01*
X134599000Y-73709500D01*
X136197000Y-73709500D01*
X136197000Y-75707500D01*
G37*
G36*
X153197000Y-75554000D02*
G01*
X150079000Y-75554000D01*
X150079000Y-73946000D01*
X153197000Y-73946000D01*
X153197000Y-75554000D01*
G37*
M02*
