M48
INCH,TZ
T1C0.0138
T2C0.0236
T3C0.0300
T4C0.0335
T5C0.0394
T6C0.0400
%
G90
G05
T1
X52236Y-30100
X52236Y-41800
X52478Y-33912
X52693Y-38203
X52700Y-36100
X53000Y-34400
X53100Y-41500
X53200Y-39400
X53400Y-30000
X53400Y-36600
X53700Y-31600
X53700Y-42300
X53900Y-33500
X54100Y-34300
X54100Y-38200
X54200Y-39800
X54250Y-40699
X54296Y-39400
X54344Y-38654
X54400Y-40400
X55000Y-36600
X55300Y-35200
X55300Y-37000
X55300Y-37900
X55600Y-37600
X55700Y-32900
X55800Y-32328
X55800Y-40400
X55866Y-36300
X56091Y-38994
X56104Y-39400
X56200Y-41500
X56600Y-33500
X56700Y-36700
X56700Y-42443
X56900Y-29800
X56900Y-30900
X56935Y-33500
X57000Y-34300
X57124Y-40176
X57155Y-39269
X57200Y-41748
X57400Y-33166
X57400Y-33935
X57500Y-31300
X57700Y-29400
X57900Y-38300
X58000Y-33404
X58000Y-36700
X58400Y-33400
X58600Y-37500
X58980Y-31504
X59041Y-30000
X59200Y-32146
X59200Y-42100
X59344Y-37626
X59583Y-37391
X59600Y-35600
X59600Y-40466
X59666Y-35115
X59700Y-36200
X59700Y-42200
X59800Y-32815
X59900Y-38166
X59917Y-37416
X60083Y-35806
X60155Y-40200
X60200Y-41200
X60400Y-35700
X60424Y-30000
X60581Y-31919
X60700Y-34500
X60700Y-42200
X61000Y-34166
X61000Y-34738
X61000Y-35600
X61000Y-36200
X61100Y-39300
X61317Y-33162
X61348Y-32000
X61573Y-36500
X61700Y-40200
X61900Y-36738
X61901Y-33634
X62100Y-32400
X62200Y-29500
X62200Y-30500
X62200Y-39700
X62400Y-33900
X62900Y-37500
X63400Y-29500
X63400Y-30500
X63600Y-34500
X63782Y-32618
X63800Y-34200
X64100Y-33162
X64200Y-37900
X64400Y-34700
X64463Y-38137
X64800Y-39800
X65000Y-32100
X65100Y-37600
X65300Y-34200
X65400Y-32600
X65400Y-41962
X65700Y-30100
X65700Y-33900
X65700Y-35600
X65700Y-36200
X65800Y-41748
X65966Y-33638
X66000Y-40000
X66100Y-36200
X66100Y-40400
X66200Y-41900
X66300Y-35000
X66400Y-37900
X66600Y-31200
X66734Y-37566
X67000Y-38934
X67100Y-33993
X67200Y-41700
X67600Y-29500
X67600Y-32800
X67800Y-37400
X67866Y-30900
X68200Y-32000
X68300Y-40100
X68400Y-29200
X68400Y-42443
X68500Y-36400
X68976Y-35800
X69100Y-36700
X69300Y-30800
X69300Y-31600
X69621Y-32800
X69638Y-37800
X69638Y-39900
X69900Y-39300
X70400Y-35800
X70400Y-42200
X70600Y-30100
X70800Y-36700
X70900Y-36100
X71100Y-39900
X71400Y-36400
X71600Y-38729
X71662Y-36000
X71900Y-32600
X71900Y-34500
X71900Y-37300
X72300Y-36500
X72865Y-34400
X73300Y-35901
T3
X55263Y-32500
X63137Y-32500
T4
X52716Y-30476
X54684Y-30476
T5
X72400Y-32000
T6
X69900Y-29600
X69900Y-30600
X70900Y-29600
X70900Y-30600
X71900Y-29600
X71900Y-30600
X72900Y-29600
X72900Y-30600
T2
G00X52322Y-29551
M15
G01X52322Y-29275
M16
G05
G00X55078Y-29275
M15
G01X55078Y-29551
M16
G05
T0
M30
