%TF.GenerationSoftware,KiCad,Pcbnew,5.0.2-bee76a0~70~ubuntu18.04.1*%
%TF.CreationDate,2019-10-11T12:06:12+02:00*%
%TF.ProjectId,Mini-BT-Pcb-328P,4d696e69-2d42-4542-9d50-63622d333238,rev?*%
%TF.SameCoordinates,Original*%
%TF.FileFunction,Paste,Top*%
%TF.FilePolarity,Positive*%
%FSLAX46Y46*%
G04 Gerber Fmt 4.6, Leading zero omitted, Abs format (unit mm)*
G04 Created by KiCad (PCBNEW 5.0.2-bee76a0~70~ubuntu18.04.1) date ven 11 ott 2019 12:06:12 CEST*
%MOMM*%
%LPD*%
G01*
G04 APERTURE LIST*
%ADD10C,0.150000*%
%ADD11C,0.975000*%
%ADD12R,3.150000X1.000000*%
%ADD13R,1.000000X3.150000*%
%ADD14C,1.600000*%
%ADD15R,2.510000X1.000000*%
%ADD16R,2.400000X1.500000*%
%ADD17R,1.600000X0.550000*%
%ADD18R,0.550000X1.600000*%
%ADD19R,0.650000X1.060000*%
%ADD20R,2.520000X2.310000*%
%ADD21R,1.000000X2.000000*%
%ADD22R,1.200000X3.000000*%
G04 APERTURE END LIST*
D10*
X132080000Y-108406000D02*
X132080000Y-73406000D01*
X187080000Y-108406000D02*
X132080000Y-108406000D01*
X187080000Y-73406000D02*
X187080000Y-108406000D01*
X132080000Y-73406000D02*
X187080000Y-73406000D01*
G36*
X148562142Y-79620674D02*
X148585803Y-79624184D01*
X148609007Y-79629996D01*
X148631529Y-79638054D01*
X148653153Y-79648282D01*
X148673670Y-79660579D01*
X148692883Y-79674829D01*
X148710607Y-79690893D01*
X148726671Y-79708617D01*
X148740921Y-79727830D01*
X148753218Y-79748347D01*
X148763446Y-79769971D01*
X148771504Y-79792493D01*
X148777316Y-79815697D01*
X148780826Y-79839358D01*
X148782000Y-79863250D01*
X148782000Y-80350750D01*
X148780826Y-80374642D01*
X148777316Y-80398303D01*
X148771504Y-80421507D01*
X148763446Y-80444029D01*
X148753218Y-80465653D01*
X148740921Y-80486170D01*
X148726671Y-80505383D01*
X148710607Y-80523107D01*
X148692883Y-80539171D01*
X148673670Y-80553421D01*
X148653153Y-80565718D01*
X148631529Y-80575946D01*
X148609007Y-80584004D01*
X148585803Y-80589816D01*
X148562142Y-80593326D01*
X148538250Y-80594500D01*
X147625750Y-80594500D01*
X147601858Y-80593326D01*
X147578197Y-80589816D01*
X147554993Y-80584004D01*
X147532471Y-80575946D01*
X147510847Y-80565718D01*
X147490330Y-80553421D01*
X147471117Y-80539171D01*
X147453393Y-80523107D01*
X147437329Y-80505383D01*
X147423079Y-80486170D01*
X147410782Y-80465653D01*
X147400554Y-80444029D01*
X147392496Y-80421507D01*
X147386684Y-80398303D01*
X147383174Y-80374642D01*
X147382000Y-80350750D01*
X147382000Y-79863250D01*
X147383174Y-79839358D01*
X147386684Y-79815697D01*
X147392496Y-79792493D01*
X147400554Y-79769971D01*
X147410782Y-79748347D01*
X147423079Y-79727830D01*
X147437329Y-79708617D01*
X147453393Y-79690893D01*
X147471117Y-79674829D01*
X147490330Y-79660579D01*
X147510847Y-79648282D01*
X147532471Y-79638054D01*
X147554993Y-79629996D01*
X147578197Y-79624184D01*
X147601858Y-79620674D01*
X147625750Y-79619500D01*
X148538250Y-79619500D01*
X148562142Y-79620674D01*
X148562142Y-79620674D01*
G37*
D11*
X148082000Y-80107000D03*
D10*
G36*
X148562142Y-77745674D02*
X148585803Y-77749184D01*
X148609007Y-77754996D01*
X148631529Y-77763054D01*
X148653153Y-77773282D01*
X148673670Y-77785579D01*
X148692883Y-77799829D01*
X148710607Y-77815893D01*
X148726671Y-77833617D01*
X148740921Y-77852830D01*
X148753218Y-77873347D01*
X148763446Y-77894971D01*
X148771504Y-77917493D01*
X148777316Y-77940697D01*
X148780826Y-77964358D01*
X148782000Y-77988250D01*
X148782000Y-78475750D01*
X148780826Y-78499642D01*
X148777316Y-78523303D01*
X148771504Y-78546507D01*
X148763446Y-78569029D01*
X148753218Y-78590653D01*
X148740921Y-78611170D01*
X148726671Y-78630383D01*
X148710607Y-78648107D01*
X148692883Y-78664171D01*
X148673670Y-78678421D01*
X148653153Y-78690718D01*
X148631529Y-78700946D01*
X148609007Y-78709004D01*
X148585803Y-78714816D01*
X148562142Y-78718326D01*
X148538250Y-78719500D01*
X147625750Y-78719500D01*
X147601858Y-78718326D01*
X147578197Y-78714816D01*
X147554993Y-78709004D01*
X147532471Y-78700946D01*
X147510847Y-78690718D01*
X147490330Y-78678421D01*
X147471117Y-78664171D01*
X147453393Y-78648107D01*
X147437329Y-78630383D01*
X147423079Y-78611170D01*
X147410782Y-78590653D01*
X147400554Y-78569029D01*
X147392496Y-78546507D01*
X147386684Y-78523303D01*
X147383174Y-78499642D01*
X147382000Y-78475750D01*
X147382000Y-77988250D01*
X147383174Y-77964358D01*
X147386684Y-77940697D01*
X147392496Y-77917493D01*
X147400554Y-77894971D01*
X147410782Y-77873347D01*
X147423079Y-77852830D01*
X147437329Y-77833617D01*
X147453393Y-77815893D01*
X147471117Y-77799829D01*
X147490330Y-77785579D01*
X147510847Y-77773282D01*
X147532471Y-77763054D01*
X147554993Y-77754996D01*
X147578197Y-77749184D01*
X147601858Y-77745674D01*
X147625750Y-77744500D01*
X148538250Y-77744500D01*
X148562142Y-77745674D01*
X148562142Y-77745674D01*
G37*
D11*
X148082000Y-78232000D03*
D12*
X169403000Y-80264000D03*
X164353000Y-80264000D03*
X169403000Y-77724000D03*
X164353000Y-77724000D03*
X169403000Y-75184000D03*
X164353000Y-75184000D03*
D13*
X133858000Y-105141000D03*
X133858000Y-100091000D03*
X136398000Y-105141000D03*
X136398000Y-100091000D03*
X138938000Y-105141000D03*
X138938000Y-100091000D03*
X141478000Y-105141000D03*
X141478000Y-100091000D03*
X144018000Y-105141000D03*
X144018000Y-100091000D03*
X146558000Y-105141000D03*
X146558000Y-100091000D03*
X149098000Y-105141000D03*
X149098000Y-100091000D03*
X151638000Y-105141000D03*
X151638000Y-100091000D03*
X154178000Y-105141000D03*
X154178000Y-100091000D03*
X156718000Y-105141000D03*
X156718000Y-100091000D03*
X159258000Y-105141000D03*
X159258000Y-100091000D03*
D10*
G36*
X164586504Y-103341204D02*
X164610773Y-103344804D01*
X164634571Y-103350765D01*
X164657671Y-103359030D01*
X164679849Y-103369520D01*
X164700893Y-103382133D01*
X164720598Y-103396747D01*
X164738777Y-103413223D01*
X164755253Y-103431402D01*
X164769867Y-103451107D01*
X164782480Y-103472151D01*
X164792970Y-103494329D01*
X164801235Y-103517429D01*
X164807196Y-103541227D01*
X164810796Y-103565496D01*
X164812000Y-103590000D01*
X164812000Y-104690000D01*
X164810796Y-104714504D01*
X164807196Y-104738773D01*
X164801235Y-104762571D01*
X164792970Y-104785671D01*
X164782480Y-104807849D01*
X164769867Y-104828893D01*
X164755253Y-104848598D01*
X164738777Y-104866777D01*
X164720598Y-104883253D01*
X164700893Y-104897867D01*
X164679849Y-104910480D01*
X164657671Y-104920970D01*
X164634571Y-104929235D01*
X164610773Y-104935196D01*
X164586504Y-104938796D01*
X164562000Y-104940000D01*
X161562000Y-104940000D01*
X161537496Y-104938796D01*
X161513227Y-104935196D01*
X161489429Y-104929235D01*
X161466329Y-104920970D01*
X161444151Y-104910480D01*
X161423107Y-104897867D01*
X161403402Y-104883253D01*
X161385223Y-104866777D01*
X161368747Y-104848598D01*
X161354133Y-104828893D01*
X161341520Y-104807849D01*
X161331030Y-104785671D01*
X161322765Y-104762571D01*
X161316804Y-104738773D01*
X161313204Y-104714504D01*
X161312000Y-104690000D01*
X161312000Y-103590000D01*
X161313204Y-103565496D01*
X161316804Y-103541227D01*
X161322765Y-103517429D01*
X161331030Y-103494329D01*
X161341520Y-103472151D01*
X161354133Y-103451107D01*
X161368747Y-103431402D01*
X161385223Y-103413223D01*
X161403402Y-103396747D01*
X161423107Y-103382133D01*
X161444151Y-103369520D01*
X161466329Y-103359030D01*
X161489429Y-103350765D01*
X161513227Y-103344804D01*
X161537496Y-103341204D01*
X161562000Y-103340000D01*
X164562000Y-103340000D01*
X164586504Y-103341204D01*
X164586504Y-103341204D01*
G37*
D14*
X163062000Y-104140000D03*
D10*
G36*
X170186504Y-103341204D02*
X170210773Y-103344804D01*
X170234571Y-103350765D01*
X170257671Y-103359030D01*
X170279849Y-103369520D01*
X170300893Y-103382133D01*
X170320598Y-103396747D01*
X170338777Y-103413223D01*
X170355253Y-103431402D01*
X170369867Y-103451107D01*
X170382480Y-103472151D01*
X170392970Y-103494329D01*
X170401235Y-103517429D01*
X170407196Y-103541227D01*
X170410796Y-103565496D01*
X170412000Y-103590000D01*
X170412000Y-104690000D01*
X170410796Y-104714504D01*
X170407196Y-104738773D01*
X170401235Y-104762571D01*
X170392970Y-104785671D01*
X170382480Y-104807849D01*
X170369867Y-104828893D01*
X170355253Y-104848598D01*
X170338777Y-104866777D01*
X170320598Y-104883253D01*
X170300893Y-104897867D01*
X170279849Y-104910480D01*
X170257671Y-104920970D01*
X170234571Y-104929235D01*
X170210773Y-104935196D01*
X170186504Y-104938796D01*
X170162000Y-104940000D01*
X167162000Y-104940000D01*
X167137496Y-104938796D01*
X167113227Y-104935196D01*
X167089429Y-104929235D01*
X167066329Y-104920970D01*
X167044151Y-104910480D01*
X167023107Y-104897867D01*
X167003402Y-104883253D01*
X166985223Y-104866777D01*
X166968747Y-104848598D01*
X166954133Y-104828893D01*
X166941520Y-104807849D01*
X166931030Y-104785671D01*
X166922765Y-104762571D01*
X166916804Y-104738773D01*
X166913204Y-104714504D01*
X166912000Y-104690000D01*
X166912000Y-103590000D01*
X166913204Y-103565496D01*
X166916804Y-103541227D01*
X166922765Y-103517429D01*
X166931030Y-103494329D01*
X166941520Y-103472151D01*
X166954133Y-103451107D01*
X166968747Y-103431402D01*
X166985223Y-103413223D01*
X167003402Y-103396747D01*
X167023107Y-103382133D01*
X167044151Y-103369520D01*
X167066329Y-103359030D01*
X167089429Y-103350765D01*
X167113227Y-103344804D01*
X167137496Y-103341204D01*
X167162000Y-103340000D01*
X170162000Y-103340000D01*
X170186504Y-103341204D01*
X170186504Y-103341204D01*
G37*
D14*
X168662000Y-104140000D03*
D10*
G36*
X145985142Y-89471174D02*
X146008803Y-89474684D01*
X146032007Y-89480496D01*
X146054529Y-89488554D01*
X146076153Y-89498782D01*
X146096670Y-89511079D01*
X146115883Y-89525329D01*
X146133607Y-89541393D01*
X146149671Y-89559117D01*
X146163921Y-89578330D01*
X146176218Y-89598847D01*
X146186446Y-89620471D01*
X146194504Y-89642993D01*
X146200316Y-89666197D01*
X146203826Y-89689858D01*
X146205000Y-89713750D01*
X146205000Y-90626250D01*
X146203826Y-90650142D01*
X146200316Y-90673803D01*
X146194504Y-90697007D01*
X146186446Y-90719529D01*
X146176218Y-90741153D01*
X146163921Y-90761670D01*
X146149671Y-90780883D01*
X146133607Y-90798607D01*
X146115883Y-90814671D01*
X146096670Y-90828921D01*
X146076153Y-90841218D01*
X146054529Y-90851446D01*
X146032007Y-90859504D01*
X146008803Y-90865316D01*
X145985142Y-90868826D01*
X145961250Y-90870000D01*
X145473750Y-90870000D01*
X145449858Y-90868826D01*
X145426197Y-90865316D01*
X145402993Y-90859504D01*
X145380471Y-90851446D01*
X145358847Y-90841218D01*
X145338330Y-90828921D01*
X145319117Y-90814671D01*
X145301393Y-90798607D01*
X145285329Y-90780883D01*
X145271079Y-90761670D01*
X145258782Y-90741153D01*
X145248554Y-90719529D01*
X145240496Y-90697007D01*
X145234684Y-90673803D01*
X145231174Y-90650142D01*
X145230000Y-90626250D01*
X145230000Y-89713750D01*
X145231174Y-89689858D01*
X145234684Y-89666197D01*
X145240496Y-89642993D01*
X145248554Y-89620471D01*
X145258782Y-89598847D01*
X145271079Y-89578330D01*
X145285329Y-89559117D01*
X145301393Y-89541393D01*
X145319117Y-89525329D01*
X145338330Y-89511079D01*
X145358847Y-89498782D01*
X145380471Y-89488554D01*
X145402993Y-89480496D01*
X145426197Y-89474684D01*
X145449858Y-89471174D01*
X145473750Y-89470000D01*
X145961250Y-89470000D01*
X145985142Y-89471174D01*
X145985142Y-89471174D01*
G37*
D11*
X145717500Y-90170000D03*
D10*
G36*
X144110142Y-89471174D02*
X144133803Y-89474684D01*
X144157007Y-89480496D01*
X144179529Y-89488554D01*
X144201153Y-89498782D01*
X144221670Y-89511079D01*
X144240883Y-89525329D01*
X144258607Y-89541393D01*
X144274671Y-89559117D01*
X144288921Y-89578330D01*
X144301218Y-89598847D01*
X144311446Y-89620471D01*
X144319504Y-89642993D01*
X144325316Y-89666197D01*
X144328826Y-89689858D01*
X144330000Y-89713750D01*
X144330000Y-90626250D01*
X144328826Y-90650142D01*
X144325316Y-90673803D01*
X144319504Y-90697007D01*
X144311446Y-90719529D01*
X144301218Y-90741153D01*
X144288921Y-90761670D01*
X144274671Y-90780883D01*
X144258607Y-90798607D01*
X144240883Y-90814671D01*
X144221670Y-90828921D01*
X144201153Y-90841218D01*
X144179529Y-90851446D01*
X144157007Y-90859504D01*
X144133803Y-90865316D01*
X144110142Y-90868826D01*
X144086250Y-90870000D01*
X143598750Y-90870000D01*
X143574858Y-90868826D01*
X143551197Y-90865316D01*
X143527993Y-90859504D01*
X143505471Y-90851446D01*
X143483847Y-90841218D01*
X143463330Y-90828921D01*
X143444117Y-90814671D01*
X143426393Y-90798607D01*
X143410329Y-90780883D01*
X143396079Y-90761670D01*
X143383782Y-90741153D01*
X143373554Y-90719529D01*
X143365496Y-90697007D01*
X143359684Y-90673803D01*
X143356174Y-90650142D01*
X143355000Y-90626250D01*
X143355000Y-89713750D01*
X143356174Y-89689858D01*
X143359684Y-89666197D01*
X143365496Y-89642993D01*
X143373554Y-89620471D01*
X143383782Y-89598847D01*
X143396079Y-89578330D01*
X143410329Y-89559117D01*
X143426393Y-89541393D01*
X143444117Y-89525329D01*
X143463330Y-89511079D01*
X143483847Y-89498782D01*
X143505471Y-89488554D01*
X143527993Y-89480496D01*
X143551197Y-89474684D01*
X143574858Y-89471174D01*
X143598750Y-89470000D01*
X144086250Y-89470000D01*
X144110142Y-89471174D01*
X144110142Y-89471174D01*
G37*
D11*
X143842500Y-90170000D03*
D10*
G36*
X144110142Y-87439174D02*
X144133803Y-87442684D01*
X144157007Y-87448496D01*
X144179529Y-87456554D01*
X144201153Y-87466782D01*
X144221670Y-87479079D01*
X144240883Y-87493329D01*
X144258607Y-87509393D01*
X144274671Y-87527117D01*
X144288921Y-87546330D01*
X144301218Y-87566847D01*
X144311446Y-87588471D01*
X144319504Y-87610993D01*
X144325316Y-87634197D01*
X144328826Y-87657858D01*
X144330000Y-87681750D01*
X144330000Y-88594250D01*
X144328826Y-88618142D01*
X144325316Y-88641803D01*
X144319504Y-88665007D01*
X144311446Y-88687529D01*
X144301218Y-88709153D01*
X144288921Y-88729670D01*
X144274671Y-88748883D01*
X144258607Y-88766607D01*
X144240883Y-88782671D01*
X144221670Y-88796921D01*
X144201153Y-88809218D01*
X144179529Y-88819446D01*
X144157007Y-88827504D01*
X144133803Y-88833316D01*
X144110142Y-88836826D01*
X144086250Y-88838000D01*
X143598750Y-88838000D01*
X143574858Y-88836826D01*
X143551197Y-88833316D01*
X143527993Y-88827504D01*
X143505471Y-88819446D01*
X143483847Y-88809218D01*
X143463330Y-88796921D01*
X143444117Y-88782671D01*
X143426393Y-88766607D01*
X143410329Y-88748883D01*
X143396079Y-88729670D01*
X143383782Y-88709153D01*
X143373554Y-88687529D01*
X143365496Y-88665007D01*
X143359684Y-88641803D01*
X143356174Y-88618142D01*
X143355000Y-88594250D01*
X143355000Y-87681750D01*
X143356174Y-87657858D01*
X143359684Y-87634197D01*
X143365496Y-87610993D01*
X143373554Y-87588471D01*
X143383782Y-87566847D01*
X143396079Y-87546330D01*
X143410329Y-87527117D01*
X143426393Y-87509393D01*
X143444117Y-87493329D01*
X143463330Y-87479079D01*
X143483847Y-87466782D01*
X143505471Y-87456554D01*
X143527993Y-87448496D01*
X143551197Y-87442684D01*
X143574858Y-87439174D01*
X143598750Y-87438000D01*
X144086250Y-87438000D01*
X144110142Y-87439174D01*
X144110142Y-87439174D01*
G37*
D11*
X143842500Y-88138000D03*
D10*
G36*
X145985142Y-87439174D02*
X146008803Y-87442684D01*
X146032007Y-87448496D01*
X146054529Y-87456554D01*
X146076153Y-87466782D01*
X146096670Y-87479079D01*
X146115883Y-87493329D01*
X146133607Y-87509393D01*
X146149671Y-87527117D01*
X146163921Y-87546330D01*
X146176218Y-87566847D01*
X146186446Y-87588471D01*
X146194504Y-87610993D01*
X146200316Y-87634197D01*
X146203826Y-87657858D01*
X146205000Y-87681750D01*
X146205000Y-88594250D01*
X146203826Y-88618142D01*
X146200316Y-88641803D01*
X146194504Y-88665007D01*
X146186446Y-88687529D01*
X146176218Y-88709153D01*
X146163921Y-88729670D01*
X146149671Y-88748883D01*
X146133607Y-88766607D01*
X146115883Y-88782671D01*
X146096670Y-88796921D01*
X146076153Y-88809218D01*
X146054529Y-88819446D01*
X146032007Y-88827504D01*
X146008803Y-88833316D01*
X145985142Y-88836826D01*
X145961250Y-88838000D01*
X145473750Y-88838000D01*
X145449858Y-88836826D01*
X145426197Y-88833316D01*
X145402993Y-88827504D01*
X145380471Y-88819446D01*
X145358847Y-88809218D01*
X145338330Y-88796921D01*
X145319117Y-88782671D01*
X145301393Y-88766607D01*
X145285329Y-88748883D01*
X145271079Y-88729670D01*
X145258782Y-88709153D01*
X145248554Y-88687529D01*
X145240496Y-88665007D01*
X145234684Y-88641803D01*
X145231174Y-88618142D01*
X145230000Y-88594250D01*
X145230000Y-87681750D01*
X145231174Y-87657858D01*
X145234684Y-87634197D01*
X145240496Y-87610993D01*
X145248554Y-87588471D01*
X145258782Y-87566847D01*
X145271079Y-87546330D01*
X145285329Y-87527117D01*
X145301393Y-87509393D01*
X145319117Y-87493329D01*
X145338330Y-87479079D01*
X145358847Y-87466782D01*
X145380471Y-87456554D01*
X145402993Y-87448496D01*
X145426197Y-87442684D01*
X145449858Y-87439174D01*
X145473750Y-87438000D01*
X145961250Y-87438000D01*
X145985142Y-87439174D01*
X145985142Y-87439174D01*
G37*
D11*
X145717500Y-88138000D03*
D10*
G36*
X159096142Y-88201174D02*
X159119803Y-88204684D01*
X159143007Y-88210496D01*
X159165529Y-88218554D01*
X159187153Y-88228782D01*
X159207670Y-88241079D01*
X159226883Y-88255329D01*
X159244607Y-88271393D01*
X159260671Y-88289117D01*
X159274921Y-88308330D01*
X159287218Y-88328847D01*
X159297446Y-88350471D01*
X159305504Y-88372993D01*
X159311316Y-88396197D01*
X159314826Y-88419858D01*
X159316000Y-88443750D01*
X159316000Y-89356250D01*
X159314826Y-89380142D01*
X159311316Y-89403803D01*
X159305504Y-89427007D01*
X159297446Y-89449529D01*
X159287218Y-89471153D01*
X159274921Y-89491670D01*
X159260671Y-89510883D01*
X159244607Y-89528607D01*
X159226883Y-89544671D01*
X159207670Y-89558921D01*
X159187153Y-89571218D01*
X159165529Y-89581446D01*
X159143007Y-89589504D01*
X159119803Y-89595316D01*
X159096142Y-89598826D01*
X159072250Y-89600000D01*
X158584750Y-89600000D01*
X158560858Y-89598826D01*
X158537197Y-89595316D01*
X158513993Y-89589504D01*
X158491471Y-89581446D01*
X158469847Y-89571218D01*
X158449330Y-89558921D01*
X158430117Y-89544671D01*
X158412393Y-89528607D01*
X158396329Y-89510883D01*
X158382079Y-89491670D01*
X158369782Y-89471153D01*
X158359554Y-89449529D01*
X158351496Y-89427007D01*
X158345684Y-89403803D01*
X158342174Y-89380142D01*
X158341000Y-89356250D01*
X158341000Y-88443750D01*
X158342174Y-88419858D01*
X158345684Y-88396197D01*
X158351496Y-88372993D01*
X158359554Y-88350471D01*
X158369782Y-88328847D01*
X158382079Y-88308330D01*
X158396329Y-88289117D01*
X158412393Y-88271393D01*
X158430117Y-88255329D01*
X158449330Y-88241079D01*
X158469847Y-88228782D01*
X158491471Y-88218554D01*
X158513993Y-88210496D01*
X158537197Y-88204684D01*
X158560858Y-88201174D01*
X158584750Y-88200000D01*
X159072250Y-88200000D01*
X159096142Y-88201174D01*
X159096142Y-88201174D01*
G37*
D11*
X158828500Y-88900000D03*
D10*
G36*
X160971142Y-88201174D02*
X160994803Y-88204684D01*
X161018007Y-88210496D01*
X161040529Y-88218554D01*
X161062153Y-88228782D01*
X161082670Y-88241079D01*
X161101883Y-88255329D01*
X161119607Y-88271393D01*
X161135671Y-88289117D01*
X161149921Y-88308330D01*
X161162218Y-88328847D01*
X161172446Y-88350471D01*
X161180504Y-88372993D01*
X161186316Y-88396197D01*
X161189826Y-88419858D01*
X161191000Y-88443750D01*
X161191000Y-89356250D01*
X161189826Y-89380142D01*
X161186316Y-89403803D01*
X161180504Y-89427007D01*
X161172446Y-89449529D01*
X161162218Y-89471153D01*
X161149921Y-89491670D01*
X161135671Y-89510883D01*
X161119607Y-89528607D01*
X161101883Y-89544671D01*
X161082670Y-89558921D01*
X161062153Y-89571218D01*
X161040529Y-89581446D01*
X161018007Y-89589504D01*
X160994803Y-89595316D01*
X160971142Y-89598826D01*
X160947250Y-89600000D01*
X160459750Y-89600000D01*
X160435858Y-89598826D01*
X160412197Y-89595316D01*
X160388993Y-89589504D01*
X160366471Y-89581446D01*
X160344847Y-89571218D01*
X160324330Y-89558921D01*
X160305117Y-89544671D01*
X160287393Y-89528607D01*
X160271329Y-89510883D01*
X160257079Y-89491670D01*
X160244782Y-89471153D01*
X160234554Y-89449529D01*
X160226496Y-89427007D01*
X160220684Y-89403803D01*
X160217174Y-89380142D01*
X160216000Y-89356250D01*
X160216000Y-88443750D01*
X160217174Y-88419858D01*
X160220684Y-88396197D01*
X160226496Y-88372993D01*
X160234554Y-88350471D01*
X160244782Y-88328847D01*
X160257079Y-88308330D01*
X160271329Y-88289117D01*
X160287393Y-88271393D01*
X160305117Y-88255329D01*
X160324330Y-88241079D01*
X160344847Y-88228782D01*
X160366471Y-88218554D01*
X160388993Y-88210496D01*
X160412197Y-88204684D01*
X160435858Y-88201174D01*
X160459750Y-88200000D01*
X160947250Y-88200000D01*
X160971142Y-88201174D01*
X160971142Y-88201174D01*
G37*
D11*
X160703500Y-88900000D03*
D10*
G36*
X160971142Y-90233174D02*
X160994803Y-90236684D01*
X161018007Y-90242496D01*
X161040529Y-90250554D01*
X161062153Y-90260782D01*
X161082670Y-90273079D01*
X161101883Y-90287329D01*
X161119607Y-90303393D01*
X161135671Y-90321117D01*
X161149921Y-90340330D01*
X161162218Y-90360847D01*
X161172446Y-90382471D01*
X161180504Y-90404993D01*
X161186316Y-90428197D01*
X161189826Y-90451858D01*
X161191000Y-90475750D01*
X161191000Y-91388250D01*
X161189826Y-91412142D01*
X161186316Y-91435803D01*
X161180504Y-91459007D01*
X161172446Y-91481529D01*
X161162218Y-91503153D01*
X161149921Y-91523670D01*
X161135671Y-91542883D01*
X161119607Y-91560607D01*
X161101883Y-91576671D01*
X161082670Y-91590921D01*
X161062153Y-91603218D01*
X161040529Y-91613446D01*
X161018007Y-91621504D01*
X160994803Y-91627316D01*
X160971142Y-91630826D01*
X160947250Y-91632000D01*
X160459750Y-91632000D01*
X160435858Y-91630826D01*
X160412197Y-91627316D01*
X160388993Y-91621504D01*
X160366471Y-91613446D01*
X160344847Y-91603218D01*
X160324330Y-91590921D01*
X160305117Y-91576671D01*
X160287393Y-91560607D01*
X160271329Y-91542883D01*
X160257079Y-91523670D01*
X160244782Y-91503153D01*
X160234554Y-91481529D01*
X160226496Y-91459007D01*
X160220684Y-91435803D01*
X160217174Y-91412142D01*
X160216000Y-91388250D01*
X160216000Y-90475750D01*
X160217174Y-90451858D01*
X160220684Y-90428197D01*
X160226496Y-90404993D01*
X160234554Y-90382471D01*
X160244782Y-90360847D01*
X160257079Y-90340330D01*
X160271329Y-90321117D01*
X160287393Y-90303393D01*
X160305117Y-90287329D01*
X160324330Y-90273079D01*
X160344847Y-90260782D01*
X160366471Y-90250554D01*
X160388993Y-90242496D01*
X160412197Y-90236684D01*
X160435858Y-90233174D01*
X160459750Y-90232000D01*
X160947250Y-90232000D01*
X160971142Y-90233174D01*
X160971142Y-90233174D01*
G37*
D11*
X160703500Y-90932000D03*
D10*
G36*
X159096142Y-90233174D02*
X159119803Y-90236684D01*
X159143007Y-90242496D01*
X159165529Y-90250554D01*
X159187153Y-90260782D01*
X159207670Y-90273079D01*
X159226883Y-90287329D01*
X159244607Y-90303393D01*
X159260671Y-90321117D01*
X159274921Y-90340330D01*
X159287218Y-90360847D01*
X159297446Y-90382471D01*
X159305504Y-90404993D01*
X159311316Y-90428197D01*
X159314826Y-90451858D01*
X159316000Y-90475750D01*
X159316000Y-91388250D01*
X159314826Y-91412142D01*
X159311316Y-91435803D01*
X159305504Y-91459007D01*
X159297446Y-91481529D01*
X159287218Y-91503153D01*
X159274921Y-91523670D01*
X159260671Y-91542883D01*
X159244607Y-91560607D01*
X159226883Y-91576671D01*
X159207670Y-91590921D01*
X159187153Y-91603218D01*
X159165529Y-91613446D01*
X159143007Y-91621504D01*
X159119803Y-91627316D01*
X159096142Y-91630826D01*
X159072250Y-91632000D01*
X158584750Y-91632000D01*
X158560858Y-91630826D01*
X158537197Y-91627316D01*
X158513993Y-91621504D01*
X158491471Y-91613446D01*
X158469847Y-91603218D01*
X158449330Y-91590921D01*
X158430117Y-91576671D01*
X158412393Y-91560607D01*
X158396329Y-91542883D01*
X158382079Y-91523670D01*
X158369782Y-91503153D01*
X158359554Y-91481529D01*
X158351496Y-91459007D01*
X158345684Y-91435803D01*
X158342174Y-91412142D01*
X158341000Y-91388250D01*
X158341000Y-90475750D01*
X158342174Y-90451858D01*
X158345684Y-90428197D01*
X158351496Y-90404993D01*
X158359554Y-90382471D01*
X158369782Y-90360847D01*
X158382079Y-90340330D01*
X158396329Y-90321117D01*
X158412393Y-90303393D01*
X158430117Y-90287329D01*
X158449330Y-90273079D01*
X158469847Y-90260782D01*
X158491471Y-90250554D01*
X158513993Y-90242496D01*
X158537197Y-90236684D01*
X158560858Y-90233174D01*
X158584750Y-90232000D01*
X159072250Y-90232000D01*
X159096142Y-90233174D01*
X159096142Y-90233174D01*
G37*
D11*
X158828500Y-90932000D03*
D15*
X168787000Y-90678000D03*
X165477000Y-88138000D03*
D16*
X135636000Y-96984000D03*
X135636000Y-91484000D03*
D10*
G36*
X148562142Y-76143174D02*
X148585803Y-76146684D01*
X148609007Y-76152496D01*
X148631529Y-76160554D01*
X148653153Y-76170782D01*
X148673670Y-76183079D01*
X148692883Y-76197329D01*
X148710607Y-76213393D01*
X148726671Y-76231117D01*
X148740921Y-76250330D01*
X148753218Y-76270847D01*
X148763446Y-76292471D01*
X148771504Y-76314993D01*
X148777316Y-76338197D01*
X148780826Y-76361858D01*
X148782000Y-76385750D01*
X148782000Y-76873250D01*
X148780826Y-76897142D01*
X148777316Y-76920803D01*
X148771504Y-76944007D01*
X148763446Y-76966529D01*
X148753218Y-76988153D01*
X148740921Y-77008670D01*
X148726671Y-77027883D01*
X148710607Y-77045607D01*
X148692883Y-77061671D01*
X148673670Y-77075921D01*
X148653153Y-77088218D01*
X148631529Y-77098446D01*
X148609007Y-77106504D01*
X148585803Y-77112316D01*
X148562142Y-77115826D01*
X148538250Y-77117000D01*
X147625750Y-77117000D01*
X147601858Y-77115826D01*
X147578197Y-77112316D01*
X147554993Y-77106504D01*
X147532471Y-77098446D01*
X147510847Y-77088218D01*
X147490330Y-77075921D01*
X147471117Y-77061671D01*
X147453393Y-77045607D01*
X147437329Y-77027883D01*
X147423079Y-77008670D01*
X147410782Y-76988153D01*
X147400554Y-76966529D01*
X147392496Y-76944007D01*
X147386684Y-76920803D01*
X147383174Y-76897142D01*
X147382000Y-76873250D01*
X147382000Y-76385750D01*
X147383174Y-76361858D01*
X147386684Y-76338197D01*
X147392496Y-76314993D01*
X147400554Y-76292471D01*
X147410782Y-76270847D01*
X147423079Y-76250330D01*
X147437329Y-76231117D01*
X147453393Y-76213393D01*
X147471117Y-76197329D01*
X147490330Y-76183079D01*
X147510847Y-76170782D01*
X147532471Y-76160554D01*
X147554993Y-76152496D01*
X147578197Y-76146684D01*
X147601858Y-76143174D01*
X147625750Y-76142000D01*
X148538250Y-76142000D01*
X148562142Y-76143174D01*
X148562142Y-76143174D01*
G37*
D11*
X148082000Y-76629500D03*
D10*
G36*
X148562142Y-74268174D02*
X148585803Y-74271684D01*
X148609007Y-74277496D01*
X148631529Y-74285554D01*
X148653153Y-74295782D01*
X148673670Y-74308079D01*
X148692883Y-74322329D01*
X148710607Y-74338393D01*
X148726671Y-74356117D01*
X148740921Y-74375330D01*
X148753218Y-74395847D01*
X148763446Y-74417471D01*
X148771504Y-74439993D01*
X148777316Y-74463197D01*
X148780826Y-74486858D01*
X148782000Y-74510750D01*
X148782000Y-74998250D01*
X148780826Y-75022142D01*
X148777316Y-75045803D01*
X148771504Y-75069007D01*
X148763446Y-75091529D01*
X148753218Y-75113153D01*
X148740921Y-75133670D01*
X148726671Y-75152883D01*
X148710607Y-75170607D01*
X148692883Y-75186671D01*
X148673670Y-75200921D01*
X148653153Y-75213218D01*
X148631529Y-75223446D01*
X148609007Y-75231504D01*
X148585803Y-75237316D01*
X148562142Y-75240826D01*
X148538250Y-75242000D01*
X147625750Y-75242000D01*
X147601858Y-75240826D01*
X147578197Y-75237316D01*
X147554993Y-75231504D01*
X147532471Y-75223446D01*
X147510847Y-75213218D01*
X147490330Y-75200921D01*
X147471117Y-75186671D01*
X147453393Y-75170607D01*
X147437329Y-75152883D01*
X147423079Y-75133670D01*
X147410782Y-75113153D01*
X147400554Y-75091529D01*
X147392496Y-75069007D01*
X147386684Y-75045803D01*
X147383174Y-75022142D01*
X147382000Y-74998250D01*
X147382000Y-74510750D01*
X147383174Y-74486858D01*
X147386684Y-74463197D01*
X147392496Y-74439993D01*
X147400554Y-74417471D01*
X147410782Y-74395847D01*
X147423079Y-74375330D01*
X147437329Y-74356117D01*
X147453393Y-74338393D01*
X147471117Y-74322329D01*
X147490330Y-74308079D01*
X147510847Y-74295782D01*
X147532471Y-74285554D01*
X147554993Y-74277496D01*
X147578197Y-74271684D01*
X147601858Y-74268174D01*
X147625750Y-74267000D01*
X148538250Y-74267000D01*
X148562142Y-74268174D01*
X148562142Y-74268174D01*
G37*
D11*
X148082000Y-74754500D03*
D10*
G36*
X155928142Y-74268174D02*
X155951803Y-74271684D01*
X155975007Y-74277496D01*
X155997529Y-74285554D01*
X156019153Y-74295782D01*
X156039670Y-74308079D01*
X156058883Y-74322329D01*
X156076607Y-74338393D01*
X156092671Y-74356117D01*
X156106921Y-74375330D01*
X156119218Y-74395847D01*
X156129446Y-74417471D01*
X156137504Y-74439993D01*
X156143316Y-74463197D01*
X156146826Y-74486858D01*
X156148000Y-74510750D01*
X156148000Y-74998250D01*
X156146826Y-75022142D01*
X156143316Y-75045803D01*
X156137504Y-75069007D01*
X156129446Y-75091529D01*
X156119218Y-75113153D01*
X156106921Y-75133670D01*
X156092671Y-75152883D01*
X156076607Y-75170607D01*
X156058883Y-75186671D01*
X156039670Y-75200921D01*
X156019153Y-75213218D01*
X155997529Y-75223446D01*
X155975007Y-75231504D01*
X155951803Y-75237316D01*
X155928142Y-75240826D01*
X155904250Y-75242000D01*
X154991750Y-75242000D01*
X154967858Y-75240826D01*
X154944197Y-75237316D01*
X154920993Y-75231504D01*
X154898471Y-75223446D01*
X154876847Y-75213218D01*
X154856330Y-75200921D01*
X154837117Y-75186671D01*
X154819393Y-75170607D01*
X154803329Y-75152883D01*
X154789079Y-75133670D01*
X154776782Y-75113153D01*
X154766554Y-75091529D01*
X154758496Y-75069007D01*
X154752684Y-75045803D01*
X154749174Y-75022142D01*
X154748000Y-74998250D01*
X154748000Y-74510750D01*
X154749174Y-74486858D01*
X154752684Y-74463197D01*
X154758496Y-74439993D01*
X154766554Y-74417471D01*
X154776782Y-74395847D01*
X154789079Y-74375330D01*
X154803329Y-74356117D01*
X154819393Y-74338393D01*
X154837117Y-74322329D01*
X154856330Y-74308079D01*
X154876847Y-74295782D01*
X154898471Y-74285554D01*
X154920993Y-74277496D01*
X154944197Y-74271684D01*
X154967858Y-74268174D01*
X154991750Y-74267000D01*
X155904250Y-74267000D01*
X155928142Y-74268174D01*
X155928142Y-74268174D01*
G37*
D11*
X155448000Y-74754500D03*
D10*
G36*
X155928142Y-76143174D02*
X155951803Y-76146684D01*
X155975007Y-76152496D01*
X155997529Y-76160554D01*
X156019153Y-76170782D01*
X156039670Y-76183079D01*
X156058883Y-76197329D01*
X156076607Y-76213393D01*
X156092671Y-76231117D01*
X156106921Y-76250330D01*
X156119218Y-76270847D01*
X156129446Y-76292471D01*
X156137504Y-76314993D01*
X156143316Y-76338197D01*
X156146826Y-76361858D01*
X156148000Y-76385750D01*
X156148000Y-76873250D01*
X156146826Y-76897142D01*
X156143316Y-76920803D01*
X156137504Y-76944007D01*
X156129446Y-76966529D01*
X156119218Y-76988153D01*
X156106921Y-77008670D01*
X156092671Y-77027883D01*
X156076607Y-77045607D01*
X156058883Y-77061671D01*
X156039670Y-77075921D01*
X156019153Y-77088218D01*
X155997529Y-77098446D01*
X155975007Y-77106504D01*
X155951803Y-77112316D01*
X155928142Y-77115826D01*
X155904250Y-77117000D01*
X154991750Y-77117000D01*
X154967858Y-77115826D01*
X154944197Y-77112316D01*
X154920993Y-77106504D01*
X154898471Y-77098446D01*
X154876847Y-77088218D01*
X154856330Y-77075921D01*
X154837117Y-77061671D01*
X154819393Y-77045607D01*
X154803329Y-77027883D01*
X154789079Y-77008670D01*
X154776782Y-76988153D01*
X154766554Y-76966529D01*
X154758496Y-76944007D01*
X154752684Y-76920803D01*
X154749174Y-76897142D01*
X154748000Y-76873250D01*
X154748000Y-76385750D01*
X154749174Y-76361858D01*
X154752684Y-76338197D01*
X154758496Y-76314993D01*
X154766554Y-76292471D01*
X154776782Y-76270847D01*
X154789079Y-76250330D01*
X154803329Y-76231117D01*
X154819393Y-76213393D01*
X154837117Y-76197329D01*
X154856330Y-76183079D01*
X154876847Y-76170782D01*
X154898471Y-76160554D01*
X154920993Y-76152496D01*
X154944197Y-76146684D01*
X154967858Y-76143174D01*
X154991750Y-76142000D01*
X155904250Y-76142000D01*
X155928142Y-76143174D01*
X155928142Y-76143174D01*
G37*
D11*
X155448000Y-76629500D03*
D10*
G36*
X152372142Y-76143174D02*
X152395803Y-76146684D01*
X152419007Y-76152496D01*
X152441529Y-76160554D01*
X152463153Y-76170782D01*
X152483670Y-76183079D01*
X152502883Y-76197329D01*
X152520607Y-76213393D01*
X152536671Y-76231117D01*
X152550921Y-76250330D01*
X152563218Y-76270847D01*
X152573446Y-76292471D01*
X152581504Y-76314993D01*
X152587316Y-76338197D01*
X152590826Y-76361858D01*
X152592000Y-76385750D01*
X152592000Y-76873250D01*
X152590826Y-76897142D01*
X152587316Y-76920803D01*
X152581504Y-76944007D01*
X152573446Y-76966529D01*
X152563218Y-76988153D01*
X152550921Y-77008670D01*
X152536671Y-77027883D01*
X152520607Y-77045607D01*
X152502883Y-77061671D01*
X152483670Y-77075921D01*
X152463153Y-77088218D01*
X152441529Y-77098446D01*
X152419007Y-77106504D01*
X152395803Y-77112316D01*
X152372142Y-77115826D01*
X152348250Y-77117000D01*
X151435750Y-77117000D01*
X151411858Y-77115826D01*
X151388197Y-77112316D01*
X151364993Y-77106504D01*
X151342471Y-77098446D01*
X151320847Y-77088218D01*
X151300330Y-77075921D01*
X151281117Y-77061671D01*
X151263393Y-77045607D01*
X151247329Y-77027883D01*
X151233079Y-77008670D01*
X151220782Y-76988153D01*
X151210554Y-76966529D01*
X151202496Y-76944007D01*
X151196684Y-76920803D01*
X151193174Y-76897142D01*
X151192000Y-76873250D01*
X151192000Y-76385750D01*
X151193174Y-76361858D01*
X151196684Y-76338197D01*
X151202496Y-76314993D01*
X151210554Y-76292471D01*
X151220782Y-76270847D01*
X151233079Y-76250330D01*
X151247329Y-76231117D01*
X151263393Y-76213393D01*
X151281117Y-76197329D01*
X151300330Y-76183079D01*
X151320847Y-76170782D01*
X151342471Y-76160554D01*
X151364993Y-76152496D01*
X151388197Y-76146684D01*
X151411858Y-76143174D01*
X151435750Y-76142000D01*
X152348250Y-76142000D01*
X152372142Y-76143174D01*
X152372142Y-76143174D01*
G37*
D11*
X151892000Y-76629500D03*
D10*
G36*
X152372142Y-74268174D02*
X152395803Y-74271684D01*
X152419007Y-74277496D01*
X152441529Y-74285554D01*
X152463153Y-74295782D01*
X152483670Y-74308079D01*
X152502883Y-74322329D01*
X152520607Y-74338393D01*
X152536671Y-74356117D01*
X152550921Y-74375330D01*
X152563218Y-74395847D01*
X152573446Y-74417471D01*
X152581504Y-74439993D01*
X152587316Y-74463197D01*
X152590826Y-74486858D01*
X152592000Y-74510750D01*
X152592000Y-74998250D01*
X152590826Y-75022142D01*
X152587316Y-75045803D01*
X152581504Y-75069007D01*
X152573446Y-75091529D01*
X152563218Y-75113153D01*
X152550921Y-75133670D01*
X152536671Y-75152883D01*
X152520607Y-75170607D01*
X152502883Y-75186671D01*
X152483670Y-75200921D01*
X152463153Y-75213218D01*
X152441529Y-75223446D01*
X152419007Y-75231504D01*
X152395803Y-75237316D01*
X152372142Y-75240826D01*
X152348250Y-75242000D01*
X151435750Y-75242000D01*
X151411858Y-75240826D01*
X151388197Y-75237316D01*
X151364993Y-75231504D01*
X151342471Y-75223446D01*
X151320847Y-75213218D01*
X151300330Y-75200921D01*
X151281117Y-75186671D01*
X151263393Y-75170607D01*
X151247329Y-75152883D01*
X151233079Y-75133670D01*
X151220782Y-75113153D01*
X151210554Y-75091529D01*
X151202496Y-75069007D01*
X151196684Y-75045803D01*
X151193174Y-75022142D01*
X151192000Y-74998250D01*
X151192000Y-74510750D01*
X151193174Y-74486858D01*
X151196684Y-74463197D01*
X151202496Y-74439993D01*
X151210554Y-74417471D01*
X151220782Y-74395847D01*
X151233079Y-74375330D01*
X151247329Y-74356117D01*
X151263393Y-74338393D01*
X151281117Y-74322329D01*
X151300330Y-74308079D01*
X151320847Y-74295782D01*
X151342471Y-74285554D01*
X151364993Y-74277496D01*
X151388197Y-74271684D01*
X151411858Y-74268174D01*
X151435750Y-74267000D01*
X152348250Y-74267000D01*
X152372142Y-74268174D01*
X152372142Y-74268174D01*
G37*
D11*
X151892000Y-74754500D03*
D10*
G36*
X142466142Y-74268174D02*
X142489803Y-74271684D01*
X142513007Y-74277496D01*
X142535529Y-74285554D01*
X142557153Y-74295782D01*
X142577670Y-74308079D01*
X142596883Y-74322329D01*
X142614607Y-74338393D01*
X142630671Y-74356117D01*
X142644921Y-74375330D01*
X142657218Y-74395847D01*
X142667446Y-74417471D01*
X142675504Y-74439993D01*
X142681316Y-74463197D01*
X142684826Y-74486858D01*
X142686000Y-74510750D01*
X142686000Y-74998250D01*
X142684826Y-75022142D01*
X142681316Y-75045803D01*
X142675504Y-75069007D01*
X142667446Y-75091529D01*
X142657218Y-75113153D01*
X142644921Y-75133670D01*
X142630671Y-75152883D01*
X142614607Y-75170607D01*
X142596883Y-75186671D01*
X142577670Y-75200921D01*
X142557153Y-75213218D01*
X142535529Y-75223446D01*
X142513007Y-75231504D01*
X142489803Y-75237316D01*
X142466142Y-75240826D01*
X142442250Y-75242000D01*
X141529750Y-75242000D01*
X141505858Y-75240826D01*
X141482197Y-75237316D01*
X141458993Y-75231504D01*
X141436471Y-75223446D01*
X141414847Y-75213218D01*
X141394330Y-75200921D01*
X141375117Y-75186671D01*
X141357393Y-75170607D01*
X141341329Y-75152883D01*
X141327079Y-75133670D01*
X141314782Y-75113153D01*
X141304554Y-75091529D01*
X141296496Y-75069007D01*
X141290684Y-75045803D01*
X141287174Y-75022142D01*
X141286000Y-74998250D01*
X141286000Y-74510750D01*
X141287174Y-74486858D01*
X141290684Y-74463197D01*
X141296496Y-74439993D01*
X141304554Y-74417471D01*
X141314782Y-74395847D01*
X141327079Y-74375330D01*
X141341329Y-74356117D01*
X141357393Y-74338393D01*
X141375117Y-74322329D01*
X141394330Y-74308079D01*
X141414847Y-74295782D01*
X141436471Y-74285554D01*
X141458993Y-74277496D01*
X141482197Y-74271684D01*
X141505858Y-74268174D01*
X141529750Y-74267000D01*
X142442250Y-74267000D01*
X142466142Y-74268174D01*
X142466142Y-74268174D01*
G37*
D11*
X141986000Y-74754500D03*
D10*
G36*
X142466142Y-76143174D02*
X142489803Y-76146684D01*
X142513007Y-76152496D01*
X142535529Y-76160554D01*
X142557153Y-76170782D01*
X142577670Y-76183079D01*
X142596883Y-76197329D01*
X142614607Y-76213393D01*
X142630671Y-76231117D01*
X142644921Y-76250330D01*
X142657218Y-76270847D01*
X142667446Y-76292471D01*
X142675504Y-76314993D01*
X142681316Y-76338197D01*
X142684826Y-76361858D01*
X142686000Y-76385750D01*
X142686000Y-76873250D01*
X142684826Y-76897142D01*
X142681316Y-76920803D01*
X142675504Y-76944007D01*
X142667446Y-76966529D01*
X142657218Y-76988153D01*
X142644921Y-77008670D01*
X142630671Y-77027883D01*
X142614607Y-77045607D01*
X142596883Y-77061671D01*
X142577670Y-77075921D01*
X142557153Y-77088218D01*
X142535529Y-77098446D01*
X142513007Y-77106504D01*
X142489803Y-77112316D01*
X142466142Y-77115826D01*
X142442250Y-77117000D01*
X141529750Y-77117000D01*
X141505858Y-77115826D01*
X141482197Y-77112316D01*
X141458993Y-77106504D01*
X141436471Y-77098446D01*
X141414847Y-77088218D01*
X141394330Y-77075921D01*
X141375117Y-77061671D01*
X141357393Y-77045607D01*
X141341329Y-77027883D01*
X141327079Y-77008670D01*
X141314782Y-76988153D01*
X141304554Y-76966529D01*
X141296496Y-76944007D01*
X141290684Y-76920803D01*
X141287174Y-76897142D01*
X141286000Y-76873250D01*
X141286000Y-76385750D01*
X141287174Y-76361858D01*
X141290684Y-76338197D01*
X141296496Y-76314993D01*
X141304554Y-76292471D01*
X141314782Y-76270847D01*
X141327079Y-76250330D01*
X141341329Y-76231117D01*
X141357393Y-76213393D01*
X141375117Y-76197329D01*
X141394330Y-76183079D01*
X141414847Y-76170782D01*
X141436471Y-76160554D01*
X141458993Y-76152496D01*
X141482197Y-76146684D01*
X141505858Y-76143174D01*
X141529750Y-76142000D01*
X142442250Y-76142000D01*
X142466142Y-76143174D01*
X142466142Y-76143174D01*
G37*
D11*
X141986000Y-76629500D03*
D17*
X147896000Y-86354000D03*
X147896000Y-87154000D03*
X147896000Y-87954000D03*
X147896000Y-88754000D03*
X147896000Y-89554000D03*
X147896000Y-90354000D03*
X147896000Y-91154000D03*
X147896000Y-91954000D03*
D18*
X149346000Y-93404000D03*
X150146000Y-93404000D03*
X150946000Y-93404000D03*
X151746000Y-93404000D03*
X152546000Y-93404000D03*
X153346000Y-93404000D03*
X154146000Y-93404000D03*
X154946000Y-93404000D03*
D17*
X156396000Y-91954000D03*
X156396000Y-91154000D03*
X156396000Y-90354000D03*
X156396000Y-89554000D03*
X156396000Y-88754000D03*
X156396000Y-87954000D03*
X156396000Y-87154000D03*
X156396000Y-86354000D03*
D18*
X154946000Y-84904000D03*
X154146000Y-84904000D03*
X153346000Y-84904000D03*
X152546000Y-84904000D03*
X151746000Y-84904000D03*
X150946000Y-84904000D03*
X150146000Y-84904000D03*
X149346000Y-84904000D03*
D19*
X140142000Y-84752000D03*
X139192000Y-84752000D03*
X138242000Y-84752000D03*
X138242000Y-86952000D03*
X140142000Y-86952000D03*
D10*
G36*
X142466142Y-77745674D02*
X142489803Y-77749184D01*
X142513007Y-77754996D01*
X142535529Y-77763054D01*
X142557153Y-77773282D01*
X142577670Y-77785579D01*
X142596883Y-77799829D01*
X142614607Y-77815893D01*
X142630671Y-77833617D01*
X142644921Y-77852830D01*
X142657218Y-77873347D01*
X142667446Y-77894971D01*
X142675504Y-77917493D01*
X142681316Y-77940697D01*
X142684826Y-77964358D01*
X142686000Y-77988250D01*
X142686000Y-78475750D01*
X142684826Y-78499642D01*
X142681316Y-78523303D01*
X142675504Y-78546507D01*
X142667446Y-78569029D01*
X142657218Y-78590653D01*
X142644921Y-78611170D01*
X142630671Y-78630383D01*
X142614607Y-78648107D01*
X142596883Y-78664171D01*
X142577670Y-78678421D01*
X142557153Y-78690718D01*
X142535529Y-78700946D01*
X142513007Y-78709004D01*
X142489803Y-78714816D01*
X142466142Y-78718326D01*
X142442250Y-78719500D01*
X141529750Y-78719500D01*
X141505858Y-78718326D01*
X141482197Y-78714816D01*
X141458993Y-78709004D01*
X141436471Y-78700946D01*
X141414847Y-78690718D01*
X141394330Y-78678421D01*
X141375117Y-78664171D01*
X141357393Y-78648107D01*
X141341329Y-78630383D01*
X141327079Y-78611170D01*
X141314782Y-78590653D01*
X141304554Y-78569029D01*
X141296496Y-78546507D01*
X141290684Y-78523303D01*
X141287174Y-78499642D01*
X141286000Y-78475750D01*
X141286000Y-77988250D01*
X141287174Y-77964358D01*
X141290684Y-77940697D01*
X141296496Y-77917493D01*
X141304554Y-77894971D01*
X141314782Y-77873347D01*
X141327079Y-77852830D01*
X141341329Y-77833617D01*
X141357393Y-77815893D01*
X141375117Y-77799829D01*
X141394330Y-77785579D01*
X141414847Y-77773282D01*
X141436471Y-77763054D01*
X141458993Y-77754996D01*
X141482197Y-77749184D01*
X141505858Y-77745674D01*
X141529750Y-77744500D01*
X142442250Y-77744500D01*
X142466142Y-77745674D01*
X142466142Y-77745674D01*
G37*
D11*
X141986000Y-78232000D03*
D10*
G36*
X142466142Y-79620674D02*
X142489803Y-79624184D01*
X142513007Y-79629996D01*
X142535529Y-79638054D01*
X142557153Y-79648282D01*
X142577670Y-79660579D01*
X142596883Y-79674829D01*
X142614607Y-79690893D01*
X142630671Y-79708617D01*
X142644921Y-79727830D01*
X142657218Y-79748347D01*
X142667446Y-79769971D01*
X142675504Y-79792493D01*
X142681316Y-79815697D01*
X142684826Y-79839358D01*
X142686000Y-79863250D01*
X142686000Y-80350750D01*
X142684826Y-80374642D01*
X142681316Y-80398303D01*
X142675504Y-80421507D01*
X142667446Y-80444029D01*
X142657218Y-80465653D01*
X142644921Y-80486170D01*
X142630671Y-80505383D01*
X142614607Y-80523107D01*
X142596883Y-80539171D01*
X142577670Y-80553421D01*
X142557153Y-80565718D01*
X142535529Y-80575946D01*
X142513007Y-80584004D01*
X142489803Y-80589816D01*
X142466142Y-80593326D01*
X142442250Y-80594500D01*
X141529750Y-80594500D01*
X141505858Y-80593326D01*
X141482197Y-80589816D01*
X141458993Y-80584004D01*
X141436471Y-80575946D01*
X141414847Y-80565718D01*
X141394330Y-80553421D01*
X141375117Y-80539171D01*
X141357393Y-80523107D01*
X141341329Y-80505383D01*
X141327079Y-80486170D01*
X141314782Y-80465653D01*
X141304554Y-80444029D01*
X141296496Y-80421507D01*
X141290684Y-80398303D01*
X141287174Y-80374642D01*
X141286000Y-80350750D01*
X141286000Y-79863250D01*
X141287174Y-79839358D01*
X141290684Y-79815697D01*
X141296496Y-79792493D01*
X141304554Y-79769971D01*
X141314782Y-79748347D01*
X141327079Y-79727830D01*
X141341329Y-79708617D01*
X141357393Y-79690893D01*
X141375117Y-79674829D01*
X141394330Y-79660579D01*
X141414847Y-79648282D01*
X141436471Y-79638054D01*
X141458993Y-79629996D01*
X141482197Y-79624184D01*
X141505858Y-79620674D01*
X141529750Y-79619500D01*
X142442250Y-79619500D01*
X142466142Y-79620674D01*
X142466142Y-79620674D01*
G37*
D11*
X141986000Y-80107000D03*
D10*
G36*
X152372142Y-77824174D02*
X152395803Y-77827684D01*
X152419007Y-77833496D01*
X152441529Y-77841554D01*
X152463153Y-77851782D01*
X152483670Y-77864079D01*
X152502883Y-77878329D01*
X152520607Y-77894393D01*
X152536671Y-77912117D01*
X152550921Y-77931330D01*
X152563218Y-77951847D01*
X152573446Y-77973471D01*
X152581504Y-77995993D01*
X152587316Y-78019197D01*
X152590826Y-78042858D01*
X152592000Y-78066750D01*
X152592000Y-78554250D01*
X152590826Y-78578142D01*
X152587316Y-78601803D01*
X152581504Y-78625007D01*
X152573446Y-78647529D01*
X152563218Y-78669153D01*
X152550921Y-78689670D01*
X152536671Y-78708883D01*
X152520607Y-78726607D01*
X152502883Y-78742671D01*
X152483670Y-78756921D01*
X152463153Y-78769218D01*
X152441529Y-78779446D01*
X152419007Y-78787504D01*
X152395803Y-78793316D01*
X152372142Y-78796826D01*
X152348250Y-78798000D01*
X151435750Y-78798000D01*
X151411858Y-78796826D01*
X151388197Y-78793316D01*
X151364993Y-78787504D01*
X151342471Y-78779446D01*
X151320847Y-78769218D01*
X151300330Y-78756921D01*
X151281117Y-78742671D01*
X151263393Y-78726607D01*
X151247329Y-78708883D01*
X151233079Y-78689670D01*
X151220782Y-78669153D01*
X151210554Y-78647529D01*
X151202496Y-78625007D01*
X151196684Y-78601803D01*
X151193174Y-78578142D01*
X151192000Y-78554250D01*
X151192000Y-78066750D01*
X151193174Y-78042858D01*
X151196684Y-78019197D01*
X151202496Y-77995993D01*
X151210554Y-77973471D01*
X151220782Y-77951847D01*
X151233079Y-77931330D01*
X151247329Y-77912117D01*
X151263393Y-77894393D01*
X151281117Y-77878329D01*
X151300330Y-77864079D01*
X151320847Y-77851782D01*
X151342471Y-77841554D01*
X151364993Y-77833496D01*
X151388197Y-77827684D01*
X151411858Y-77824174D01*
X151435750Y-77823000D01*
X152348250Y-77823000D01*
X152372142Y-77824174D01*
X152372142Y-77824174D01*
G37*
D11*
X151892000Y-78310500D03*
D10*
G36*
X152372142Y-79699174D02*
X152395803Y-79702684D01*
X152419007Y-79708496D01*
X152441529Y-79716554D01*
X152463153Y-79726782D01*
X152483670Y-79739079D01*
X152502883Y-79753329D01*
X152520607Y-79769393D01*
X152536671Y-79787117D01*
X152550921Y-79806330D01*
X152563218Y-79826847D01*
X152573446Y-79848471D01*
X152581504Y-79870993D01*
X152587316Y-79894197D01*
X152590826Y-79917858D01*
X152592000Y-79941750D01*
X152592000Y-80429250D01*
X152590826Y-80453142D01*
X152587316Y-80476803D01*
X152581504Y-80500007D01*
X152573446Y-80522529D01*
X152563218Y-80544153D01*
X152550921Y-80564670D01*
X152536671Y-80583883D01*
X152520607Y-80601607D01*
X152502883Y-80617671D01*
X152483670Y-80631921D01*
X152463153Y-80644218D01*
X152441529Y-80654446D01*
X152419007Y-80662504D01*
X152395803Y-80668316D01*
X152372142Y-80671826D01*
X152348250Y-80673000D01*
X151435750Y-80673000D01*
X151411858Y-80671826D01*
X151388197Y-80668316D01*
X151364993Y-80662504D01*
X151342471Y-80654446D01*
X151320847Y-80644218D01*
X151300330Y-80631921D01*
X151281117Y-80617671D01*
X151263393Y-80601607D01*
X151247329Y-80583883D01*
X151233079Y-80564670D01*
X151220782Y-80544153D01*
X151210554Y-80522529D01*
X151202496Y-80500007D01*
X151196684Y-80476803D01*
X151193174Y-80453142D01*
X151192000Y-80429250D01*
X151192000Y-79941750D01*
X151193174Y-79917858D01*
X151196684Y-79894197D01*
X151202496Y-79870993D01*
X151210554Y-79848471D01*
X151220782Y-79826847D01*
X151233079Y-79806330D01*
X151247329Y-79787117D01*
X151263393Y-79769393D01*
X151281117Y-79753329D01*
X151300330Y-79739079D01*
X151320847Y-79726782D01*
X151342471Y-79716554D01*
X151364993Y-79708496D01*
X151388197Y-79702684D01*
X151411858Y-79699174D01*
X151435750Y-79698000D01*
X152348250Y-79698000D01*
X152372142Y-79699174D01*
X152372142Y-79699174D01*
G37*
D11*
X151892000Y-80185500D03*
D10*
G36*
X155928142Y-79699174D02*
X155951803Y-79702684D01*
X155975007Y-79708496D01*
X155997529Y-79716554D01*
X156019153Y-79726782D01*
X156039670Y-79739079D01*
X156058883Y-79753329D01*
X156076607Y-79769393D01*
X156092671Y-79787117D01*
X156106921Y-79806330D01*
X156119218Y-79826847D01*
X156129446Y-79848471D01*
X156137504Y-79870993D01*
X156143316Y-79894197D01*
X156146826Y-79917858D01*
X156148000Y-79941750D01*
X156148000Y-80429250D01*
X156146826Y-80453142D01*
X156143316Y-80476803D01*
X156137504Y-80500007D01*
X156129446Y-80522529D01*
X156119218Y-80544153D01*
X156106921Y-80564670D01*
X156092671Y-80583883D01*
X156076607Y-80601607D01*
X156058883Y-80617671D01*
X156039670Y-80631921D01*
X156019153Y-80644218D01*
X155997529Y-80654446D01*
X155975007Y-80662504D01*
X155951803Y-80668316D01*
X155928142Y-80671826D01*
X155904250Y-80673000D01*
X154991750Y-80673000D01*
X154967858Y-80671826D01*
X154944197Y-80668316D01*
X154920993Y-80662504D01*
X154898471Y-80654446D01*
X154876847Y-80644218D01*
X154856330Y-80631921D01*
X154837117Y-80617671D01*
X154819393Y-80601607D01*
X154803329Y-80583883D01*
X154789079Y-80564670D01*
X154776782Y-80544153D01*
X154766554Y-80522529D01*
X154758496Y-80500007D01*
X154752684Y-80476803D01*
X154749174Y-80453142D01*
X154748000Y-80429250D01*
X154748000Y-79941750D01*
X154749174Y-79917858D01*
X154752684Y-79894197D01*
X154758496Y-79870993D01*
X154766554Y-79848471D01*
X154776782Y-79826847D01*
X154789079Y-79806330D01*
X154803329Y-79787117D01*
X154819393Y-79769393D01*
X154837117Y-79753329D01*
X154856330Y-79739079D01*
X154876847Y-79726782D01*
X154898471Y-79716554D01*
X154920993Y-79708496D01*
X154944197Y-79702684D01*
X154967858Y-79699174D01*
X154991750Y-79698000D01*
X155904250Y-79698000D01*
X155928142Y-79699174D01*
X155928142Y-79699174D01*
G37*
D11*
X155448000Y-80185500D03*
D10*
G36*
X155928142Y-77824174D02*
X155951803Y-77827684D01*
X155975007Y-77833496D01*
X155997529Y-77841554D01*
X156019153Y-77851782D01*
X156039670Y-77864079D01*
X156058883Y-77878329D01*
X156076607Y-77894393D01*
X156092671Y-77912117D01*
X156106921Y-77931330D01*
X156119218Y-77951847D01*
X156129446Y-77973471D01*
X156137504Y-77995993D01*
X156143316Y-78019197D01*
X156146826Y-78042858D01*
X156148000Y-78066750D01*
X156148000Y-78554250D01*
X156146826Y-78578142D01*
X156143316Y-78601803D01*
X156137504Y-78625007D01*
X156129446Y-78647529D01*
X156119218Y-78669153D01*
X156106921Y-78689670D01*
X156092671Y-78708883D01*
X156076607Y-78726607D01*
X156058883Y-78742671D01*
X156039670Y-78756921D01*
X156019153Y-78769218D01*
X155997529Y-78779446D01*
X155975007Y-78787504D01*
X155951803Y-78793316D01*
X155928142Y-78796826D01*
X155904250Y-78798000D01*
X154991750Y-78798000D01*
X154967858Y-78796826D01*
X154944197Y-78793316D01*
X154920993Y-78787504D01*
X154898471Y-78779446D01*
X154876847Y-78769218D01*
X154856330Y-78756921D01*
X154837117Y-78742671D01*
X154819393Y-78726607D01*
X154803329Y-78708883D01*
X154789079Y-78689670D01*
X154776782Y-78669153D01*
X154766554Y-78647529D01*
X154758496Y-78625007D01*
X154752684Y-78601803D01*
X154749174Y-78578142D01*
X154748000Y-78554250D01*
X154748000Y-78066750D01*
X154749174Y-78042858D01*
X154752684Y-78019197D01*
X154758496Y-77995993D01*
X154766554Y-77973471D01*
X154776782Y-77951847D01*
X154789079Y-77931330D01*
X154803329Y-77912117D01*
X154819393Y-77894393D01*
X154837117Y-77878329D01*
X154856330Y-77864079D01*
X154876847Y-77851782D01*
X154898471Y-77841554D01*
X154920993Y-77833496D01*
X154944197Y-77827684D01*
X154967858Y-77824174D01*
X154991750Y-77823000D01*
X155904250Y-77823000D01*
X155928142Y-77824174D01*
X155928142Y-77824174D01*
G37*
D11*
X155448000Y-78310500D03*
D20*
X134620000Y-82752000D03*
X134620000Y-88952000D03*
D21*
X185166000Y-89154000D03*
X183896000Y-89154000D03*
X182626000Y-89154000D03*
X181356000Y-89154000D03*
X180086000Y-89154000D03*
X178816000Y-89154000D03*
X177546000Y-89154000D03*
X176276000Y-89154000D03*
D22*
X171958000Y-105044000D03*
X173958000Y-105044000D03*
X175958000Y-105044000D03*
X177958000Y-105044000D03*
X179958000Y-105044000D03*
X181958000Y-105044000D03*
X183958000Y-105044000D03*
X185958000Y-105044000D03*
X185958000Y-85344000D03*
X183958000Y-85344000D03*
X181958000Y-85344000D03*
X179958000Y-85344000D03*
X177958000Y-85344000D03*
X175958000Y-85344000D03*
X173958000Y-85344000D03*
X171958000Y-85344000D03*
M02*
