M48
;DRILL file {KiCad 5.0.2-bee76a0~70~ubuntu18.04.1} date gio 10 ott 2019 23:15:12 CEST
;FORMAT={-:-/ absolute / inch / decimal}
FMAT,2
INCH,TZ
T1C0.0138
T2C0.0236
T3C0.0300
T4C0.0335
T5C0.0394
T6C0.0400
%
G90
G05
T1
X5.2236Y-3.01
X5.2236Y-4.18
X5.2433Y-3.39
X5.2693Y-3.8203
X5.27Y-3.43
X5.28Y-3.19
X5.31Y-4.15
X5.32Y-3.15
X5.34Y-3.
X5.34Y-3.18
X5.36Y-3.35
X5.41Y-3.79
X5.41Y-3.83
X5.42Y-3.6
X5.42Y-4.14
X5.44Y-3.47
X5.47Y-3.1615
X5.4734Y-3.83
X5.5Y-3.6
X5.51Y-3.95
X5.53Y-3.52
X5.53Y-3.7
X5.53Y-3.79
X5.56Y-3.76
X5.57Y-3.29
X5.57Y-4.03
X5.5866Y-3.63
X5.6104Y-3.94
X5.62Y-4.15
X5.6222Y-3.2157
X5.66Y-3.35
X5.67Y-4.2443
X5.68Y-3.0134
X5.69Y-2.9136
X5.7155Y-3.99
X5.72Y-2.98
X5.72Y-4.1748
X5.74Y-3.3166
X5.74Y-3.3935
X5.75Y-3.13
X5.77Y-2.94
X5.784Y-2.98
X5.8Y-3.3404
X5.84Y-3.34
X5.898Y-3.1504
X5.9041Y-3.
X5.92Y-3.2146
X5.92Y-4.21
X5.9344Y-3.7626
X5.9583Y-3.7391
X5.96Y-3.56
X5.96Y-4.0466
X5.9666Y-3.5115
X5.97Y-3.62
X5.97Y-4.22
X5.98Y-3.2815
X5.99Y-3.8166
X5.9917Y-3.7416
X6.0083Y-3.5806
X6.0155Y-4.02
X6.04Y-3.57
X6.0424Y-3.
X6.07Y-3.45
X6.07Y-4.22
X6.1Y-3.4166
X6.1Y-3.4738
X6.1Y-3.56
X6.1Y-3.62
X6.11Y-3.93
X6.1317Y-3.3162
X6.1348Y-3.2
X6.1573Y-3.65
X6.17Y-4.02
X6.19Y-3.6738
X6.1901Y-3.3634
X6.21Y-3.24
X6.22Y-3.97
X6.24Y-3.39
X6.36Y-3.45
X6.3782Y-3.2618
X6.38Y-3.42
X6.41Y-3.3162
X6.42Y-3.79
X6.44Y-3.47
X6.4463Y-3.8137
X6.5Y-3.21
X6.54Y-3.26
X6.54Y-4.1962
X6.57Y-3.01
X6.57Y-3.39
X6.57Y-3.56
X6.57Y-3.62
X6.58Y-4.1748
X6.5966Y-3.3638
X6.61Y-4.04
X6.62Y-4.19
X6.63Y-3.5
X6.64Y-3.79
X6.66Y-3.12
X6.7Y-3.88
X6.71Y-3.37
X6.72Y-4.17
X6.76Y-2.95
X6.76Y-3.28
X6.77Y-3.88
X6.7866Y-3.09
X6.84Y-4.2443
X6.85Y-3.64
X6.87Y-3.2
X6.8726Y-3.48
X6.8976Y-3.58
X6.9621Y-3.28
X6.99Y-3.93
X7.04Y-3.58
X7.04Y-4.22
X7.09Y-3.61
X7.14Y-3.64
X7.19Y-3.26
X7.19Y-3.45
X7.19Y-3.73
X7.21Y-3.83
X7.2865Y-3.44
X7.33Y-3.5901
T3
X5.5263Y-3.25
X6.3137Y-3.25
T4
X5.2716Y-3.0476
X5.4684Y-3.0476
T5
X7.24Y-3.2
T6
X6.99Y-2.96
X6.99Y-3.06
X7.09Y-2.96
X7.09Y-3.06
X7.19Y-2.96
X7.19Y-3.06
X7.29Y-2.96
X7.29Y-3.06
T2
X5.2322Y-2.9551G85X5.2322Y-2.9275
G05
X5.5078Y-2.9275G85X5.5078Y-2.9551
G05
T0
M30
