%TF.GenerationSoftware,KiCad,Pcbnew,5.0.2-bee76a0~70~ubuntu18.04.1*%
%TF.CreationDate,2019-10-11T12:06:12+02:00*%
%TF.ProjectId,Mini-BT-Pcb-328P,4d696e69-2d42-4542-9d50-63622d333238,rev?*%
%TF.SameCoordinates,Original*%
%TF.FileFunction,Paste,Bot*%
%TF.FilePolarity,Positive*%
%FSLAX46Y46*%
G04 Gerber Fmt 4.6, Leading zero omitted, Abs format (unit mm)*
G04 Created by KiCad (PCBNEW 5.0.2-bee76a0~70~ubuntu18.04.1) date ven 11 ott 2019 12:06:12 CEST*
%MOMM*%
%LPD*%
G01*
G04 APERTURE LIST*
%ADD10C,0.150000*%
%ADD11R,2.180000X1.600000*%
%ADD12C,1.600000*%
%ADD13R,2.540000X3.510000*%
%ADD14R,3.020000X1.510000*%
%ADD15C,0.975000*%
%ADD16R,2.510000X1.000000*%
%ADD17R,1.500000X1.900000*%
%ADD18R,0.400000X1.350000*%
%ADD19R,1.000000X1.400000*%
%ADD20R,2.000000X3.800000*%
%ADD21R,2.000000X1.500000*%
%ADD22R,0.800000X1.900000*%
%ADD23R,3.960000X5.080000*%
%ADD24R,3.960000X2.340000*%
%ADD25R,1.750000X2.650000*%
G04 APERTURE END LIST*
D10*
X132080000Y-108406000D02*
X132080000Y-73406000D01*
X187080000Y-108406000D02*
X132080000Y-108406000D01*
X187080000Y-73406000D02*
X187080000Y-108406000D01*
X132080000Y-73406000D02*
X187080000Y-73406000D01*
D11*
X180622000Y-81280000D03*
X171422000Y-81280000D03*
D10*
G36*
X171794504Y-75655204D02*
X171818773Y-75658804D01*
X171842571Y-75664765D01*
X171865671Y-75673030D01*
X171887849Y-75683520D01*
X171908893Y-75696133D01*
X171928598Y-75710747D01*
X171946777Y-75727223D01*
X171963253Y-75745402D01*
X171977867Y-75765107D01*
X171990480Y-75786151D01*
X172000970Y-75808329D01*
X172009235Y-75831429D01*
X172015196Y-75855227D01*
X172018796Y-75879496D01*
X172020000Y-75904000D01*
X172020000Y-77004000D01*
X172018796Y-77028504D01*
X172015196Y-77052773D01*
X172009235Y-77076571D01*
X172000970Y-77099671D01*
X171990480Y-77121849D01*
X171977867Y-77142893D01*
X171963253Y-77162598D01*
X171946777Y-77180777D01*
X171928598Y-77197253D01*
X171908893Y-77211867D01*
X171887849Y-77224480D01*
X171865671Y-77234970D01*
X171842571Y-77243235D01*
X171818773Y-77249196D01*
X171794504Y-77252796D01*
X171770000Y-77254000D01*
X169270000Y-77254000D01*
X169245496Y-77252796D01*
X169221227Y-77249196D01*
X169197429Y-77243235D01*
X169174329Y-77234970D01*
X169152151Y-77224480D01*
X169131107Y-77211867D01*
X169111402Y-77197253D01*
X169093223Y-77180777D01*
X169076747Y-77162598D01*
X169062133Y-77142893D01*
X169049520Y-77121849D01*
X169039030Y-77099671D01*
X169030765Y-77076571D01*
X169024804Y-77052773D01*
X169021204Y-77028504D01*
X169020000Y-77004000D01*
X169020000Y-75904000D01*
X169021204Y-75879496D01*
X169024804Y-75855227D01*
X169030765Y-75831429D01*
X169039030Y-75808329D01*
X169049520Y-75786151D01*
X169062133Y-75765107D01*
X169076747Y-75745402D01*
X169093223Y-75727223D01*
X169111402Y-75710747D01*
X169131107Y-75696133D01*
X169152151Y-75683520D01*
X169174329Y-75673030D01*
X169197429Y-75664765D01*
X169221227Y-75658804D01*
X169245496Y-75655204D01*
X169270000Y-75654000D01*
X171770000Y-75654000D01*
X171794504Y-75655204D01*
X171794504Y-75655204D01*
G37*
D12*
X170520000Y-76454000D03*
D10*
G36*
X176194504Y-75655204D02*
X176218773Y-75658804D01*
X176242571Y-75664765D01*
X176265671Y-75673030D01*
X176287849Y-75683520D01*
X176308893Y-75696133D01*
X176328598Y-75710747D01*
X176346777Y-75727223D01*
X176363253Y-75745402D01*
X176377867Y-75765107D01*
X176390480Y-75786151D01*
X176400970Y-75808329D01*
X176409235Y-75831429D01*
X176415196Y-75855227D01*
X176418796Y-75879496D01*
X176420000Y-75904000D01*
X176420000Y-77004000D01*
X176418796Y-77028504D01*
X176415196Y-77052773D01*
X176409235Y-77076571D01*
X176400970Y-77099671D01*
X176390480Y-77121849D01*
X176377867Y-77142893D01*
X176363253Y-77162598D01*
X176346777Y-77180777D01*
X176328598Y-77197253D01*
X176308893Y-77211867D01*
X176287849Y-77224480D01*
X176265671Y-77234970D01*
X176242571Y-77243235D01*
X176218773Y-77249196D01*
X176194504Y-77252796D01*
X176170000Y-77254000D01*
X173670000Y-77254000D01*
X173645496Y-77252796D01*
X173621227Y-77249196D01*
X173597429Y-77243235D01*
X173574329Y-77234970D01*
X173552151Y-77224480D01*
X173531107Y-77211867D01*
X173511402Y-77197253D01*
X173493223Y-77180777D01*
X173476747Y-77162598D01*
X173462133Y-77142893D01*
X173449520Y-77121849D01*
X173439030Y-77099671D01*
X173430765Y-77076571D01*
X173424804Y-77052773D01*
X173421204Y-77028504D01*
X173420000Y-77004000D01*
X173420000Y-75904000D01*
X173421204Y-75879496D01*
X173424804Y-75855227D01*
X173430765Y-75831429D01*
X173439030Y-75808329D01*
X173449520Y-75786151D01*
X173462133Y-75765107D01*
X173476747Y-75745402D01*
X173493223Y-75727223D01*
X173511402Y-75710747D01*
X173531107Y-75696133D01*
X173552151Y-75683520D01*
X173574329Y-75673030D01*
X173597429Y-75664765D01*
X173621227Y-75658804D01*
X173645496Y-75655204D01*
X173670000Y-75654000D01*
X176170000Y-75654000D01*
X176194504Y-75655204D01*
X176194504Y-75655204D01*
G37*
D12*
X174920000Y-76454000D03*
D13*
X144900000Y-96266000D03*
X174260000Y-96266000D03*
D14*
X151638000Y-77650000D03*
X151638000Y-74750000D03*
D10*
G36*
X133442142Y-97345174D02*
X133465803Y-97348684D01*
X133489007Y-97354496D01*
X133511529Y-97362554D01*
X133533153Y-97372782D01*
X133553670Y-97385079D01*
X133572883Y-97399329D01*
X133590607Y-97415393D01*
X133606671Y-97433117D01*
X133620921Y-97452330D01*
X133633218Y-97472847D01*
X133643446Y-97494471D01*
X133651504Y-97516993D01*
X133657316Y-97540197D01*
X133660826Y-97563858D01*
X133662000Y-97587750D01*
X133662000Y-98500250D01*
X133660826Y-98524142D01*
X133657316Y-98547803D01*
X133651504Y-98571007D01*
X133643446Y-98593529D01*
X133633218Y-98615153D01*
X133620921Y-98635670D01*
X133606671Y-98654883D01*
X133590607Y-98672607D01*
X133572883Y-98688671D01*
X133553670Y-98702921D01*
X133533153Y-98715218D01*
X133511529Y-98725446D01*
X133489007Y-98733504D01*
X133465803Y-98739316D01*
X133442142Y-98742826D01*
X133418250Y-98744000D01*
X132930750Y-98744000D01*
X132906858Y-98742826D01*
X132883197Y-98739316D01*
X132859993Y-98733504D01*
X132837471Y-98725446D01*
X132815847Y-98715218D01*
X132795330Y-98702921D01*
X132776117Y-98688671D01*
X132758393Y-98672607D01*
X132742329Y-98654883D01*
X132728079Y-98635670D01*
X132715782Y-98615153D01*
X132705554Y-98593529D01*
X132697496Y-98571007D01*
X132691684Y-98547803D01*
X132688174Y-98524142D01*
X132687000Y-98500250D01*
X132687000Y-97587750D01*
X132688174Y-97563858D01*
X132691684Y-97540197D01*
X132697496Y-97516993D01*
X132705554Y-97494471D01*
X132715782Y-97472847D01*
X132728079Y-97452330D01*
X132742329Y-97433117D01*
X132758393Y-97415393D01*
X132776117Y-97399329D01*
X132795330Y-97385079D01*
X132815847Y-97372782D01*
X132837471Y-97362554D01*
X132859993Y-97354496D01*
X132883197Y-97348684D01*
X132906858Y-97345174D01*
X132930750Y-97344000D01*
X133418250Y-97344000D01*
X133442142Y-97345174D01*
X133442142Y-97345174D01*
G37*
D15*
X133174500Y-98044000D03*
D10*
G36*
X135317142Y-97345174D02*
X135340803Y-97348684D01*
X135364007Y-97354496D01*
X135386529Y-97362554D01*
X135408153Y-97372782D01*
X135428670Y-97385079D01*
X135447883Y-97399329D01*
X135465607Y-97415393D01*
X135481671Y-97433117D01*
X135495921Y-97452330D01*
X135508218Y-97472847D01*
X135518446Y-97494471D01*
X135526504Y-97516993D01*
X135532316Y-97540197D01*
X135535826Y-97563858D01*
X135537000Y-97587750D01*
X135537000Y-98500250D01*
X135535826Y-98524142D01*
X135532316Y-98547803D01*
X135526504Y-98571007D01*
X135518446Y-98593529D01*
X135508218Y-98615153D01*
X135495921Y-98635670D01*
X135481671Y-98654883D01*
X135465607Y-98672607D01*
X135447883Y-98688671D01*
X135428670Y-98702921D01*
X135408153Y-98715218D01*
X135386529Y-98725446D01*
X135364007Y-98733504D01*
X135340803Y-98739316D01*
X135317142Y-98742826D01*
X135293250Y-98744000D01*
X134805750Y-98744000D01*
X134781858Y-98742826D01*
X134758197Y-98739316D01*
X134734993Y-98733504D01*
X134712471Y-98725446D01*
X134690847Y-98715218D01*
X134670330Y-98702921D01*
X134651117Y-98688671D01*
X134633393Y-98672607D01*
X134617329Y-98654883D01*
X134603079Y-98635670D01*
X134590782Y-98615153D01*
X134580554Y-98593529D01*
X134572496Y-98571007D01*
X134566684Y-98547803D01*
X134563174Y-98524142D01*
X134562000Y-98500250D01*
X134562000Y-97587750D01*
X134563174Y-97563858D01*
X134566684Y-97540197D01*
X134572496Y-97516993D01*
X134580554Y-97494471D01*
X134590782Y-97472847D01*
X134603079Y-97452330D01*
X134617329Y-97433117D01*
X134633393Y-97415393D01*
X134651117Y-97399329D01*
X134670330Y-97385079D01*
X134690847Y-97372782D01*
X134712471Y-97362554D01*
X134734993Y-97354496D01*
X134758197Y-97348684D01*
X134781858Y-97345174D01*
X134805750Y-97344000D01*
X135293250Y-97344000D01*
X135317142Y-97345174D01*
X135317142Y-97345174D01*
G37*
D15*
X135049500Y-98044000D03*
D10*
G36*
X138268142Y-78803174D02*
X138291803Y-78806684D01*
X138315007Y-78812496D01*
X138337529Y-78820554D01*
X138359153Y-78830782D01*
X138379670Y-78843079D01*
X138398883Y-78857329D01*
X138416607Y-78873393D01*
X138432671Y-78891117D01*
X138446921Y-78910330D01*
X138459218Y-78930847D01*
X138469446Y-78952471D01*
X138477504Y-78974993D01*
X138483316Y-78998197D01*
X138486826Y-79021858D01*
X138488000Y-79045750D01*
X138488000Y-79958250D01*
X138486826Y-79982142D01*
X138483316Y-80005803D01*
X138477504Y-80029007D01*
X138469446Y-80051529D01*
X138459218Y-80073153D01*
X138446921Y-80093670D01*
X138432671Y-80112883D01*
X138416607Y-80130607D01*
X138398883Y-80146671D01*
X138379670Y-80160921D01*
X138359153Y-80173218D01*
X138337529Y-80183446D01*
X138315007Y-80191504D01*
X138291803Y-80197316D01*
X138268142Y-80200826D01*
X138244250Y-80202000D01*
X137756750Y-80202000D01*
X137732858Y-80200826D01*
X137709197Y-80197316D01*
X137685993Y-80191504D01*
X137663471Y-80183446D01*
X137641847Y-80173218D01*
X137621330Y-80160921D01*
X137602117Y-80146671D01*
X137584393Y-80130607D01*
X137568329Y-80112883D01*
X137554079Y-80093670D01*
X137541782Y-80073153D01*
X137531554Y-80051529D01*
X137523496Y-80029007D01*
X137517684Y-80005803D01*
X137514174Y-79982142D01*
X137513000Y-79958250D01*
X137513000Y-79045750D01*
X137514174Y-79021858D01*
X137517684Y-78998197D01*
X137523496Y-78974993D01*
X137531554Y-78952471D01*
X137541782Y-78930847D01*
X137554079Y-78910330D01*
X137568329Y-78891117D01*
X137584393Y-78873393D01*
X137602117Y-78857329D01*
X137621330Y-78843079D01*
X137641847Y-78830782D01*
X137663471Y-78820554D01*
X137685993Y-78812496D01*
X137709197Y-78806684D01*
X137732858Y-78803174D01*
X137756750Y-78802000D01*
X138244250Y-78802000D01*
X138268142Y-78803174D01*
X138268142Y-78803174D01*
G37*
D15*
X138000500Y-79502000D03*
D10*
G36*
X140143142Y-78803174D02*
X140166803Y-78806684D01*
X140190007Y-78812496D01*
X140212529Y-78820554D01*
X140234153Y-78830782D01*
X140254670Y-78843079D01*
X140273883Y-78857329D01*
X140291607Y-78873393D01*
X140307671Y-78891117D01*
X140321921Y-78910330D01*
X140334218Y-78930847D01*
X140344446Y-78952471D01*
X140352504Y-78974993D01*
X140358316Y-78998197D01*
X140361826Y-79021858D01*
X140363000Y-79045750D01*
X140363000Y-79958250D01*
X140361826Y-79982142D01*
X140358316Y-80005803D01*
X140352504Y-80029007D01*
X140344446Y-80051529D01*
X140334218Y-80073153D01*
X140321921Y-80093670D01*
X140307671Y-80112883D01*
X140291607Y-80130607D01*
X140273883Y-80146671D01*
X140254670Y-80160921D01*
X140234153Y-80173218D01*
X140212529Y-80183446D01*
X140190007Y-80191504D01*
X140166803Y-80197316D01*
X140143142Y-80200826D01*
X140119250Y-80202000D01*
X139631750Y-80202000D01*
X139607858Y-80200826D01*
X139584197Y-80197316D01*
X139560993Y-80191504D01*
X139538471Y-80183446D01*
X139516847Y-80173218D01*
X139496330Y-80160921D01*
X139477117Y-80146671D01*
X139459393Y-80130607D01*
X139443329Y-80112883D01*
X139429079Y-80093670D01*
X139416782Y-80073153D01*
X139406554Y-80051529D01*
X139398496Y-80029007D01*
X139392684Y-80005803D01*
X139389174Y-79982142D01*
X139388000Y-79958250D01*
X139388000Y-79045750D01*
X139389174Y-79021858D01*
X139392684Y-78998197D01*
X139398496Y-78974993D01*
X139406554Y-78952471D01*
X139416782Y-78930847D01*
X139429079Y-78910330D01*
X139443329Y-78891117D01*
X139459393Y-78873393D01*
X139477117Y-78857329D01*
X139496330Y-78843079D01*
X139516847Y-78830782D01*
X139538471Y-78820554D01*
X139560993Y-78812496D01*
X139584197Y-78806684D01*
X139607858Y-78803174D01*
X139631750Y-78802000D01*
X140119250Y-78802000D01*
X140143142Y-78803174D01*
X140143142Y-78803174D01*
G37*
D15*
X139875500Y-79502000D03*
D10*
G36*
X135317142Y-84137174D02*
X135340803Y-84140684D01*
X135364007Y-84146496D01*
X135386529Y-84154554D01*
X135408153Y-84164782D01*
X135428670Y-84177079D01*
X135447883Y-84191329D01*
X135465607Y-84207393D01*
X135481671Y-84225117D01*
X135495921Y-84244330D01*
X135508218Y-84264847D01*
X135518446Y-84286471D01*
X135526504Y-84308993D01*
X135532316Y-84332197D01*
X135535826Y-84355858D01*
X135537000Y-84379750D01*
X135537000Y-85292250D01*
X135535826Y-85316142D01*
X135532316Y-85339803D01*
X135526504Y-85363007D01*
X135518446Y-85385529D01*
X135508218Y-85407153D01*
X135495921Y-85427670D01*
X135481671Y-85446883D01*
X135465607Y-85464607D01*
X135447883Y-85480671D01*
X135428670Y-85494921D01*
X135408153Y-85507218D01*
X135386529Y-85517446D01*
X135364007Y-85525504D01*
X135340803Y-85531316D01*
X135317142Y-85534826D01*
X135293250Y-85536000D01*
X134805750Y-85536000D01*
X134781858Y-85534826D01*
X134758197Y-85531316D01*
X134734993Y-85525504D01*
X134712471Y-85517446D01*
X134690847Y-85507218D01*
X134670330Y-85494921D01*
X134651117Y-85480671D01*
X134633393Y-85464607D01*
X134617329Y-85446883D01*
X134603079Y-85427670D01*
X134590782Y-85407153D01*
X134580554Y-85385529D01*
X134572496Y-85363007D01*
X134566684Y-85339803D01*
X134563174Y-85316142D01*
X134562000Y-85292250D01*
X134562000Y-84379750D01*
X134563174Y-84355858D01*
X134566684Y-84332197D01*
X134572496Y-84308993D01*
X134580554Y-84286471D01*
X134590782Y-84264847D01*
X134603079Y-84244330D01*
X134617329Y-84225117D01*
X134633393Y-84207393D01*
X134651117Y-84191329D01*
X134670330Y-84177079D01*
X134690847Y-84164782D01*
X134712471Y-84154554D01*
X134734993Y-84146496D01*
X134758197Y-84140684D01*
X134781858Y-84137174D01*
X134805750Y-84136000D01*
X135293250Y-84136000D01*
X135317142Y-84137174D01*
X135317142Y-84137174D01*
G37*
D15*
X135049500Y-84836000D03*
D10*
G36*
X133442142Y-84137174D02*
X133465803Y-84140684D01*
X133489007Y-84146496D01*
X133511529Y-84154554D01*
X133533153Y-84164782D01*
X133553670Y-84177079D01*
X133572883Y-84191329D01*
X133590607Y-84207393D01*
X133606671Y-84225117D01*
X133620921Y-84244330D01*
X133633218Y-84264847D01*
X133643446Y-84286471D01*
X133651504Y-84308993D01*
X133657316Y-84332197D01*
X133660826Y-84355858D01*
X133662000Y-84379750D01*
X133662000Y-85292250D01*
X133660826Y-85316142D01*
X133657316Y-85339803D01*
X133651504Y-85363007D01*
X133643446Y-85385529D01*
X133633218Y-85407153D01*
X133620921Y-85427670D01*
X133606671Y-85446883D01*
X133590607Y-85464607D01*
X133572883Y-85480671D01*
X133553670Y-85494921D01*
X133533153Y-85507218D01*
X133511529Y-85517446D01*
X133489007Y-85525504D01*
X133465803Y-85531316D01*
X133442142Y-85534826D01*
X133418250Y-85536000D01*
X132930750Y-85536000D01*
X132906858Y-85534826D01*
X132883197Y-85531316D01*
X132859993Y-85525504D01*
X132837471Y-85517446D01*
X132815847Y-85507218D01*
X132795330Y-85494921D01*
X132776117Y-85480671D01*
X132758393Y-85464607D01*
X132742329Y-85446883D01*
X132728079Y-85427670D01*
X132715782Y-85407153D01*
X132705554Y-85385529D01*
X132697496Y-85363007D01*
X132691684Y-85339803D01*
X132688174Y-85316142D01*
X132687000Y-85292250D01*
X132687000Y-84379750D01*
X132688174Y-84355858D01*
X132691684Y-84332197D01*
X132697496Y-84308993D01*
X132705554Y-84286471D01*
X132715782Y-84264847D01*
X132728079Y-84244330D01*
X132742329Y-84225117D01*
X132758393Y-84207393D01*
X132776117Y-84191329D01*
X132795330Y-84177079D01*
X132815847Y-84164782D01*
X132837471Y-84154554D01*
X132859993Y-84146496D01*
X132883197Y-84140684D01*
X132906858Y-84137174D01*
X132930750Y-84136000D01*
X133418250Y-84136000D01*
X133442142Y-84137174D01*
X133442142Y-84137174D01*
G37*
D15*
X133174500Y-84836000D03*
D10*
G36*
X169353142Y-82105174D02*
X169376803Y-82108684D01*
X169400007Y-82114496D01*
X169422529Y-82122554D01*
X169444153Y-82132782D01*
X169464670Y-82145079D01*
X169483883Y-82159329D01*
X169501607Y-82175393D01*
X169517671Y-82193117D01*
X169531921Y-82212330D01*
X169544218Y-82232847D01*
X169554446Y-82254471D01*
X169562504Y-82276993D01*
X169568316Y-82300197D01*
X169571826Y-82323858D01*
X169573000Y-82347750D01*
X169573000Y-83260250D01*
X169571826Y-83284142D01*
X169568316Y-83307803D01*
X169562504Y-83331007D01*
X169554446Y-83353529D01*
X169544218Y-83375153D01*
X169531921Y-83395670D01*
X169517671Y-83414883D01*
X169501607Y-83432607D01*
X169483883Y-83448671D01*
X169464670Y-83462921D01*
X169444153Y-83475218D01*
X169422529Y-83485446D01*
X169400007Y-83493504D01*
X169376803Y-83499316D01*
X169353142Y-83502826D01*
X169329250Y-83504000D01*
X168841750Y-83504000D01*
X168817858Y-83502826D01*
X168794197Y-83499316D01*
X168770993Y-83493504D01*
X168748471Y-83485446D01*
X168726847Y-83475218D01*
X168706330Y-83462921D01*
X168687117Y-83448671D01*
X168669393Y-83432607D01*
X168653329Y-83414883D01*
X168639079Y-83395670D01*
X168626782Y-83375153D01*
X168616554Y-83353529D01*
X168608496Y-83331007D01*
X168602684Y-83307803D01*
X168599174Y-83284142D01*
X168598000Y-83260250D01*
X168598000Y-82347750D01*
X168599174Y-82323858D01*
X168602684Y-82300197D01*
X168608496Y-82276993D01*
X168616554Y-82254471D01*
X168626782Y-82232847D01*
X168639079Y-82212330D01*
X168653329Y-82193117D01*
X168669393Y-82175393D01*
X168687117Y-82159329D01*
X168706330Y-82145079D01*
X168726847Y-82132782D01*
X168748471Y-82122554D01*
X168770993Y-82114496D01*
X168794197Y-82108684D01*
X168817858Y-82105174D01*
X168841750Y-82104000D01*
X169329250Y-82104000D01*
X169353142Y-82105174D01*
X169353142Y-82105174D01*
G37*
D15*
X169085500Y-82804000D03*
D10*
G36*
X167478142Y-82105174D02*
X167501803Y-82108684D01*
X167525007Y-82114496D01*
X167547529Y-82122554D01*
X167569153Y-82132782D01*
X167589670Y-82145079D01*
X167608883Y-82159329D01*
X167626607Y-82175393D01*
X167642671Y-82193117D01*
X167656921Y-82212330D01*
X167669218Y-82232847D01*
X167679446Y-82254471D01*
X167687504Y-82276993D01*
X167693316Y-82300197D01*
X167696826Y-82323858D01*
X167698000Y-82347750D01*
X167698000Y-83260250D01*
X167696826Y-83284142D01*
X167693316Y-83307803D01*
X167687504Y-83331007D01*
X167679446Y-83353529D01*
X167669218Y-83375153D01*
X167656921Y-83395670D01*
X167642671Y-83414883D01*
X167626607Y-83432607D01*
X167608883Y-83448671D01*
X167589670Y-83462921D01*
X167569153Y-83475218D01*
X167547529Y-83485446D01*
X167525007Y-83493504D01*
X167501803Y-83499316D01*
X167478142Y-83502826D01*
X167454250Y-83504000D01*
X166966750Y-83504000D01*
X166942858Y-83502826D01*
X166919197Y-83499316D01*
X166895993Y-83493504D01*
X166873471Y-83485446D01*
X166851847Y-83475218D01*
X166831330Y-83462921D01*
X166812117Y-83448671D01*
X166794393Y-83432607D01*
X166778329Y-83414883D01*
X166764079Y-83395670D01*
X166751782Y-83375153D01*
X166741554Y-83353529D01*
X166733496Y-83331007D01*
X166727684Y-83307803D01*
X166724174Y-83284142D01*
X166723000Y-83260250D01*
X166723000Y-82347750D01*
X166724174Y-82323858D01*
X166727684Y-82300197D01*
X166733496Y-82276993D01*
X166741554Y-82254471D01*
X166751782Y-82232847D01*
X166764079Y-82212330D01*
X166778329Y-82193117D01*
X166794393Y-82175393D01*
X166812117Y-82159329D01*
X166831330Y-82145079D01*
X166851847Y-82132782D01*
X166873471Y-82122554D01*
X166895993Y-82114496D01*
X166919197Y-82108684D01*
X166942858Y-82105174D01*
X166966750Y-82104000D01*
X167454250Y-82104000D01*
X167478142Y-82105174D01*
X167478142Y-82105174D01*
G37*
D15*
X167210500Y-82804000D03*
D16*
X167009000Y-75184000D03*
X167009000Y-80264000D03*
X163699000Y-77724000D03*
D17*
X137398000Y-74708500D03*
D18*
X135748000Y-77408500D03*
X135098000Y-77408500D03*
X137698000Y-77408500D03*
X137048000Y-77408500D03*
X136398000Y-77408500D03*
D17*
X135398000Y-74708500D03*
D19*
X151638000Y-82126000D03*
X152588000Y-79926000D03*
X150688000Y-79926000D03*
X133858000Y-93896000D03*
X132908000Y-96096000D03*
X134808000Y-96096000D03*
D20*
X148438000Y-77216000D03*
D21*
X142138000Y-77216000D03*
X142138000Y-74916000D03*
X142138000Y-79516000D03*
D22*
X135062000Y-82526000D03*
X133162000Y-82526000D03*
X134112000Y-79526000D03*
D10*
G36*
X158214142Y-80715174D02*
X158237803Y-80718684D01*
X158261007Y-80724496D01*
X158283529Y-80732554D01*
X158305153Y-80742782D01*
X158325670Y-80755079D01*
X158344883Y-80769329D01*
X158362607Y-80785393D01*
X158378671Y-80803117D01*
X158392921Y-80822330D01*
X158405218Y-80842847D01*
X158415446Y-80864471D01*
X158423504Y-80886993D01*
X158429316Y-80910197D01*
X158432826Y-80933858D01*
X158434000Y-80957750D01*
X158434000Y-81445250D01*
X158432826Y-81469142D01*
X158429316Y-81492803D01*
X158423504Y-81516007D01*
X158415446Y-81538529D01*
X158405218Y-81560153D01*
X158392921Y-81580670D01*
X158378671Y-81599883D01*
X158362607Y-81617607D01*
X158344883Y-81633671D01*
X158325670Y-81647921D01*
X158305153Y-81660218D01*
X158283529Y-81670446D01*
X158261007Y-81678504D01*
X158237803Y-81684316D01*
X158214142Y-81687826D01*
X158190250Y-81689000D01*
X157277750Y-81689000D01*
X157253858Y-81687826D01*
X157230197Y-81684316D01*
X157206993Y-81678504D01*
X157184471Y-81670446D01*
X157162847Y-81660218D01*
X157142330Y-81647921D01*
X157123117Y-81633671D01*
X157105393Y-81617607D01*
X157089329Y-81599883D01*
X157075079Y-81580670D01*
X157062782Y-81560153D01*
X157052554Y-81538529D01*
X157044496Y-81516007D01*
X157038684Y-81492803D01*
X157035174Y-81469142D01*
X157034000Y-81445250D01*
X157034000Y-80957750D01*
X157035174Y-80933858D01*
X157038684Y-80910197D01*
X157044496Y-80886993D01*
X157052554Y-80864471D01*
X157062782Y-80842847D01*
X157075079Y-80822330D01*
X157089329Y-80803117D01*
X157105393Y-80785393D01*
X157123117Y-80769329D01*
X157142330Y-80755079D01*
X157162847Y-80742782D01*
X157184471Y-80732554D01*
X157206993Y-80724496D01*
X157230197Y-80718684D01*
X157253858Y-80715174D01*
X157277750Y-80714000D01*
X158190250Y-80714000D01*
X158214142Y-80715174D01*
X158214142Y-80715174D01*
G37*
D15*
X157734000Y-81201500D03*
D10*
G36*
X158214142Y-78840174D02*
X158237803Y-78843684D01*
X158261007Y-78849496D01*
X158283529Y-78857554D01*
X158305153Y-78867782D01*
X158325670Y-78880079D01*
X158344883Y-78894329D01*
X158362607Y-78910393D01*
X158378671Y-78928117D01*
X158392921Y-78947330D01*
X158405218Y-78967847D01*
X158415446Y-78989471D01*
X158423504Y-79011993D01*
X158429316Y-79035197D01*
X158432826Y-79058858D01*
X158434000Y-79082750D01*
X158434000Y-79570250D01*
X158432826Y-79594142D01*
X158429316Y-79617803D01*
X158423504Y-79641007D01*
X158415446Y-79663529D01*
X158405218Y-79685153D01*
X158392921Y-79705670D01*
X158378671Y-79724883D01*
X158362607Y-79742607D01*
X158344883Y-79758671D01*
X158325670Y-79772921D01*
X158305153Y-79785218D01*
X158283529Y-79795446D01*
X158261007Y-79803504D01*
X158237803Y-79809316D01*
X158214142Y-79812826D01*
X158190250Y-79814000D01*
X157277750Y-79814000D01*
X157253858Y-79812826D01*
X157230197Y-79809316D01*
X157206993Y-79803504D01*
X157184471Y-79795446D01*
X157162847Y-79785218D01*
X157142330Y-79772921D01*
X157123117Y-79758671D01*
X157105393Y-79742607D01*
X157089329Y-79724883D01*
X157075079Y-79705670D01*
X157062782Y-79685153D01*
X157052554Y-79663529D01*
X157044496Y-79641007D01*
X157038684Y-79617803D01*
X157035174Y-79594142D01*
X157034000Y-79570250D01*
X157034000Y-79082750D01*
X157035174Y-79058858D01*
X157038684Y-79035197D01*
X157044496Y-79011993D01*
X157052554Y-78989471D01*
X157062782Y-78967847D01*
X157075079Y-78947330D01*
X157089329Y-78928117D01*
X157105393Y-78910393D01*
X157123117Y-78894329D01*
X157142330Y-78880079D01*
X157162847Y-78867782D01*
X157184471Y-78857554D01*
X157206993Y-78849496D01*
X157230197Y-78843684D01*
X157253858Y-78840174D01*
X157277750Y-78839000D01*
X158190250Y-78839000D01*
X158214142Y-78840174D01*
X158214142Y-78840174D01*
G37*
D15*
X157734000Y-79326500D03*
D10*
G36*
X162024142Y-78840174D02*
X162047803Y-78843684D01*
X162071007Y-78849496D01*
X162093529Y-78857554D01*
X162115153Y-78867782D01*
X162135670Y-78880079D01*
X162154883Y-78894329D01*
X162172607Y-78910393D01*
X162188671Y-78928117D01*
X162202921Y-78947330D01*
X162215218Y-78967847D01*
X162225446Y-78989471D01*
X162233504Y-79011993D01*
X162239316Y-79035197D01*
X162242826Y-79058858D01*
X162244000Y-79082750D01*
X162244000Y-79570250D01*
X162242826Y-79594142D01*
X162239316Y-79617803D01*
X162233504Y-79641007D01*
X162225446Y-79663529D01*
X162215218Y-79685153D01*
X162202921Y-79705670D01*
X162188671Y-79724883D01*
X162172607Y-79742607D01*
X162154883Y-79758671D01*
X162135670Y-79772921D01*
X162115153Y-79785218D01*
X162093529Y-79795446D01*
X162071007Y-79803504D01*
X162047803Y-79809316D01*
X162024142Y-79812826D01*
X162000250Y-79814000D01*
X161087750Y-79814000D01*
X161063858Y-79812826D01*
X161040197Y-79809316D01*
X161016993Y-79803504D01*
X160994471Y-79795446D01*
X160972847Y-79785218D01*
X160952330Y-79772921D01*
X160933117Y-79758671D01*
X160915393Y-79742607D01*
X160899329Y-79724883D01*
X160885079Y-79705670D01*
X160872782Y-79685153D01*
X160862554Y-79663529D01*
X160854496Y-79641007D01*
X160848684Y-79617803D01*
X160845174Y-79594142D01*
X160844000Y-79570250D01*
X160844000Y-79082750D01*
X160845174Y-79058858D01*
X160848684Y-79035197D01*
X160854496Y-79011993D01*
X160862554Y-78989471D01*
X160872782Y-78967847D01*
X160885079Y-78947330D01*
X160899329Y-78928117D01*
X160915393Y-78910393D01*
X160933117Y-78894329D01*
X160952330Y-78880079D01*
X160972847Y-78867782D01*
X160994471Y-78857554D01*
X161016993Y-78849496D01*
X161040197Y-78843684D01*
X161063858Y-78840174D01*
X161087750Y-78839000D01*
X162000250Y-78839000D01*
X162024142Y-78840174D01*
X162024142Y-78840174D01*
G37*
D15*
X161544000Y-79326500D03*
D10*
G36*
X162024142Y-80715174D02*
X162047803Y-80718684D01*
X162071007Y-80724496D01*
X162093529Y-80732554D01*
X162115153Y-80742782D01*
X162135670Y-80755079D01*
X162154883Y-80769329D01*
X162172607Y-80785393D01*
X162188671Y-80803117D01*
X162202921Y-80822330D01*
X162215218Y-80842847D01*
X162225446Y-80864471D01*
X162233504Y-80886993D01*
X162239316Y-80910197D01*
X162242826Y-80933858D01*
X162244000Y-80957750D01*
X162244000Y-81445250D01*
X162242826Y-81469142D01*
X162239316Y-81492803D01*
X162233504Y-81516007D01*
X162225446Y-81538529D01*
X162215218Y-81560153D01*
X162202921Y-81580670D01*
X162188671Y-81599883D01*
X162172607Y-81617607D01*
X162154883Y-81633671D01*
X162135670Y-81647921D01*
X162115153Y-81660218D01*
X162093529Y-81670446D01*
X162071007Y-81678504D01*
X162047803Y-81684316D01*
X162024142Y-81687826D01*
X162000250Y-81689000D01*
X161087750Y-81689000D01*
X161063858Y-81687826D01*
X161040197Y-81684316D01*
X161016993Y-81678504D01*
X160994471Y-81670446D01*
X160972847Y-81660218D01*
X160952330Y-81647921D01*
X160933117Y-81633671D01*
X160915393Y-81617607D01*
X160899329Y-81599883D01*
X160885079Y-81580670D01*
X160872782Y-81560153D01*
X160862554Y-81538529D01*
X160854496Y-81516007D01*
X160848684Y-81492803D01*
X160845174Y-81469142D01*
X160844000Y-81445250D01*
X160844000Y-80957750D01*
X160845174Y-80933858D01*
X160848684Y-80910197D01*
X160854496Y-80886993D01*
X160862554Y-80864471D01*
X160872782Y-80842847D01*
X160885079Y-80822330D01*
X160899329Y-80803117D01*
X160915393Y-80785393D01*
X160933117Y-80769329D01*
X160952330Y-80755079D01*
X160972847Y-80742782D01*
X160994471Y-80732554D01*
X161016993Y-80724496D01*
X161040197Y-80718684D01*
X161063858Y-80715174D01*
X161087750Y-80714000D01*
X162000250Y-80714000D01*
X162024142Y-80715174D01*
X162024142Y-80715174D01*
G37*
D15*
X161544000Y-81201500D03*
D10*
G36*
X138873142Y-81343174D02*
X138896803Y-81346684D01*
X138920007Y-81352496D01*
X138942529Y-81360554D01*
X138964153Y-81370782D01*
X138984670Y-81383079D01*
X139003883Y-81397329D01*
X139021607Y-81413393D01*
X139037671Y-81431117D01*
X139051921Y-81450330D01*
X139064218Y-81470847D01*
X139074446Y-81492471D01*
X139082504Y-81514993D01*
X139088316Y-81538197D01*
X139091826Y-81561858D01*
X139093000Y-81585750D01*
X139093000Y-82498250D01*
X139091826Y-82522142D01*
X139088316Y-82545803D01*
X139082504Y-82569007D01*
X139074446Y-82591529D01*
X139064218Y-82613153D01*
X139051921Y-82633670D01*
X139037671Y-82652883D01*
X139021607Y-82670607D01*
X139003883Y-82686671D01*
X138984670Y-82700921D01*
X138964153Y-82713218D01*
X138942529Y-82723446D01*
X138920007Y-82731504D01*
X138896803Y-82737316D01*
X138873142Y-82740826D01*
X138849250Y-82742000D01*
X138361750Y-82742000D01*
X138337858Y-82740826D01*
X138314197Y-82737316D01*
X138290993Y-82731504D01*
X138268471Y-82723446D01*
X138246847Y-82713218D01*
X138226330Y-82700921D01*
X138207117Y-82686671D01*
X138189393Y-82670607D01*
X138173329Y-82652883D01*
X138159079Y-82633670D01*
X138146782Y-82613153D01*
X138136554Y-82591529D01*
X138128496Y-82569007D01*
X138122684Y-82545803D01*
X138119174Y-82522142D01*
X138118000Y-82498250D01*
X138118000Y-81585750D01*
X138119174Y-81561858D01*
X138122684Y-81538197D01*
X138128496Y-81514993D01*
X138136554Y-81492471D01*
X138146782Y-81470847D01*
X138159079Y-81450330D01*
X138173329Y-81431117D01*
X138189393Y-81413393D01*
X138207117Y-81397329D01*
X138226330Y-81383079D01*
X138246847Y-81370782D01*
X138268471Y-81360554D01*
X138290993Y-81352496D01*
X138314197Y-81346684D01*
X138337858Y-81343174D01*
X138361750Y-81342000D01*
X138849250Y-81342000D01*
X138873142Y-81343174D01*
X138873142Y-81343174D01*
G37*
D15*
X138605500Y-82042000D03*
D10*
G36*
X136998142Y-81343174D02*
X137021803Y-81346684D01*
X137045007Y-81352496D01*
X137067529Y-81360554D01*
X137089153Y-81370782D01*
X137109670Y-81383079D01*
X137128883Y-81397329D01*
X137146607Y-81413393D01*
X137162671Y-81431117D01*
X137176921Y-81450330D01*
X137189218Y-81470847D01*
X137199446Y-81492471D01*
X137207504Y-81514993D01*
X137213316Y-81538197D01*
X137216826Y-81561858D01*
X137218000Y-81585750D01*
X137218000Y-82498250D01*
X137216826Y-82522142D01*
X137213316Y-82545803D01*
X137207504Y-82569007D01*
X137199446Y-82591529D01*
X137189218Y-82613153D01*
X137176921Y-82633670D01*
X137162671Y-82652883D01*
X137146607Y-82670607D01*
X137128883Y-82686671D01*
X137109670Y-82700921D01*
X137089153Y-82713218D01*
X137067529Y-82723446D01*
X137045007Y-82731504D01*
X137021803Y-82737316D01*
X136998142Y-82740826D01*
X136974250Y-82742000D01*
X136486750Y-82742000D01*
X136462858Y-82740826D01*
X136439197Y-82737316D01*
X136415993Y-82731504D01*
X136393471Y-82723446D01*
X136371847Y-82713218D01*
X136351330Y-82700921D01*
X136332117Y-82686671D01*
X136314393Y-82670607D01*
X136298329Y-82652883D01*
X136284079Y-82633670D01*
X136271782Y-82613153D01*
X136261554Y-82591529D01*
X136253496Y-82569007D01*
X136247684Y-82545803D01*
X136244174Y-82522142D01*
X136243000Y-82498250D01*
X136243000Y-81585750D01*
X136244174Y-81561858D01*
X136247684Y-81538197D01*
X136253496Y-81514993D01*
X136261554Y-81492471D01*
X136271782Y-81470847D01*
X136284079Y-81450330D01*
X136298329Y-81431117D01*
X136314393Y-81413393D01*
X136332117Y-81397329D01*
X136351330Y-81383079D01*
X136371847Y-81370782D01*
X136393471Y-81360554D01*
X136415993Y-81352496D01*
X136439197Y-81346684D01*
X136462858Y-81343174D01*
X136486750Y-81342000D01*
X136974250Y-81342000D01*
X136998142Y-81343174D01*
X136998142Y-81343174D01*
G37*
D15*
X136730500Y-82042000D03*
D10*
G36*
X148779142Y-81597174D02*
X148802803Y-81600684D01*
X148826007Y-81606496D01*
X148848529Y-81614554D01*
X148870153Y-81624782D01*
X148890670Y-81637079D01*
X148909883Y-81651329D01*
X148927607Y-81667393D01*
X148943671Y-81685117D01*
X148957921Y-81704330D01*
X148970218Y-81724847D01*
X148980446Y-81746471D01*
X148988504Y-81768993D01*
X148994316Y-81792197D01*
X148997826Y-81815858D01*
X148999000Y-81839750D01*
X148999000Y-82752250D01*
X148997826Y-82776142D01*
X148994316Y-82799803D01*
X148988504Y-82823007D01*
X148980446Y-82845529D01*
X148970218Y-82867153D01*
X148957921Y-82887670D01*
X148943671Y-82906883D01*
X148927607Y-82924607D01*
X148909883Y-82940671D01*
X148890670Y-82954921D01*
X148870153Y-82967218D01*
X148848529Y-82977446D01*
X148826007Y-82985504D01*
X148802803Y-82991316D01*
X148779142Y-82994826D01*
X148755250Y-82996000D01*
X148267750Y-82996000D01*
X148243858Y-82994826D01*
X148220197Y-82991316D01*
X148196993Y-82985504D01*
X148174471Y-82977446D01*
X148152847Y-82967218D01*
X148132330Y-82954921D01*
X148113117Y-82940671D01*
X148095393Y-82924607D01*
X148079329Y-82906883D01*
X148065079Y-82887670D01*
X148052782Y-82867153D01*
X148042554Y-82845529D01*
X148034496Y-82823007D01*
X148028684Y-82799803D01*
X148025174Y-82776142D01*
X148024000Y-82752250D01*
X148024000Y-81839750D01*
X148025174Y-81815858D01*
X148028684Y-81792197D01*
X148034496Y-81768993D01*
X148042554Y-81746471D01*
X148052782Y-81724847D01*
X148065079Y-81704330D01*
X148079329Y-81685117D01*
X148095393Y-81667393D01*
X148113117Y-81651329D01*
X148132330Y-81637079D01*
X148152847Y-81624782D01*
X148174471Y-81614554D01*
X148196993Y-81606496D01*
X148220197Y-81600684D01*
X148243858Y-81597174D01*
X148267750Y-81596000D01*
X148755250Y-81596000D01*
X148779142Y-81597174D01*
X148779142Y-81597174D01*
G37*
D15*
X148511500Y-82296000D03*
D10*
G36*
X146904142Y-81597174D02*
X146927803Y-81600684D01*
X146951007Y-81606496D01*
X146973529Y-81614554D01*
X146995153Y-81624782D01*
X147015670Y-81637079D01*
X147034883Y-81651329D01*
X147052607Y-81667393D01*
X147068671Y-81685117D01*
X147082921Y-81704330D01*
X147095218Y-81724847D01*
X147105446Y-81746471D01*
X147113504Y-81768993D01*
X147119316Y-81792197D01*
X147122826Y-81815858D01*
X147124000Y-81839750D01*
X147124000Y-82752250D01*
X147122826Y-82776142D01*
X147119316Y-82799803D01*
X147113504Y-82823007D01*
X147105446Y-82845529D01*
X147095218Y-82867153D01*
X147082921Y-82887670D01*
X147068671Y-82906883D01*
X147052607Y-82924607D01*
X147034883Y-82940671D01*
X147015670Y-82954921D01*
X146995153Y-82967218D01*
X146973529Y-82977446D01*
X146951007Y-82985504D01*
X146927803Y-82991316D01*
X146904142Y-82994826D01*
X146880250Y-82996000D01*
X146392750Y-82996000D01*
X146368858Y-82994826D01*
X146345197Y-82991316D01*
X146321993Y-82985504D01*
X146299471Y-82977446D01*
X146277847Y-82967218D01*
X146257330Y-82954921D01*
X146238117Y-82940671D01*
X146220393Y-82924607D01*
X146204329Y-82906883D01*
X146190079Y-82887670D01*
X146177782Y-82867153D01*
X146167554Y-82845529D01*
X146159496Y-82823007D01*
X146153684Y-82799803D01*
X146150174Y-82776142D01*
X146149000Y-82752250D01*
X146149000Y-81839750D01*
X146150174Y-81815858D01*
X146153684Y-81792197D01*
X146159496Y-81768993D01*
X146167554Y-81746471D01*
X146177782Y-81724847D01*
X146190079Y-81704330D01*
X146204329Y-81685117D01*
X146220393Y-81667393D01*
X146238117Y-81651329D01*
X146257330Y-81637079D01*
X146277847Y-81624782D01*
X146299471Y-81614554D01*
X146321993Y-81606496D01*
X146345197Y-81600684D01*
X146368858Y-81597174D01*
X146392750Y-81596000D01*
X146880250Y-81596000D01*
X146904142Y-81597174D01*
X146904142Y-81597174D01*
G37*
D15*
X146636500Y-82296000D03*
D10*
G36*
X154348642Y-81851174D02*
X154372303Y-81854684D01*
X154395507Y-81860496D01*
X154418029Y-81868554D01*
X154439653Y-81878782D01*
X154460170Y-81891079D01*
X154479383Y-81905329D01*
X154497107Y-81921393D01*
X154513171Y-81939117D01*
X154527421Y-81958330D01*
X154539718Y-81978847D01*
X154549946Y-82000471D01*
X154558004Y-82022993D01*
X154563816Y-82046197D01*
X154567326Y-82069858D01*
X154568500Y-82093750D01*
X154568500Y-83006250D01*
X154567326Y-83030142D01*
X154563816Y-83053803D01*
X154558004Y-83077007D01*
X154549946Y-83099529D01*
X154539718Y-83121153D01*
X154527421Y-83141670D01*
X154513171Y-83160883D01*
X154497107Y-83178607D01*
X154479383Y-83194671D01*
X154460170Y-83208921D01*
X154439653Y-83221218D01*
X154418029Y-83231446D01*
X154395507Y-83239504D01*
X154372303Y-83245316D01*
X154348642Y-83248826D01*
X154324750Y-83250000D01*
X153837250Y-83250000D01*
X153813358Y-83248826D01*
X153789697Y-83245316D01*
X153766493Y-83239504D01*
X153743971Y-83231446D01*
X153722347Y-83221218D01*
X153701830Y-83208921D01*
X153682617Y-83194671D01*
X153664893Y-83178607D01*
X153648829Y-83160883D01*
X153634579Y-83141670D01*
X153622282Y-83121153D01*
X153612054Y-83099529D01*
X153603996Y-83077007D01*
X153598184Y-83053803D01*
X153594674Y-83030142D01*
X153593500Y-83006250D01*
X153593500Y-82093750D01*
X153594674Y-82069858D01*
X153598184Y-82046197D01*
X153603996Y-82022993D01*
X153612054Y-82000471D01*
X153622282Y-81978847D01*
X153634579Y-81958330D01*
X153648829Y-81939117D01*
X153664893Y-81921393D01*
X153682617Y-81905329D01*
X153701830Y-81891079D01*
X153722347Y-81878782D01*
X153743971Y-81868554D01*
X153766493Y-81860496D01*
X153789697Y-81854684D01*
X153813358Y-81851174D01*
X153837250Y-81850000D01*
X154324750Y-81850000D01*
X154348642Y-81851174D01*
X154348642Y-81851174D01*
G37*
D15*
X154081000Y-82550000D03*
D10*
G36*
X156223642Y-81851174D02*
X156247303Y-81854684D01*
X156270507Y-81860496D01*
X156293029Y-81868554D01*
X156314653Y-81878782D01*
X156335170Y-81891079D01*
X156354383Y-81905329D01*
X156372107Y-81921393D01*
X156388171Y-81939117D01*
X156402421Y-81958330D01*
X156414718Y-81978847D01*
X156424946Y-82000471D01*
X156433004Y-82022993D01*
X156438816Y-82046197D01*
X156442326Y-82069858D01*
X156443500Y-82093750D01*
X156443500Y-83006250D01*
X156442326Y-83030142D01*
X156438816Y-83053803D01*
X156433004Y-83077007D01*
X156424946Y-83099529D01*
X156414718Y-83121153D01*
X156402421Y-83141670D01*
X156388171Y-83160883D01*
X156372107Y-83178607D01*
X156354383Y-83194671D01*
X156335170Y-83208921D01*
X156314653Y-83221218D01*
X156293029Y-83231446D01*
X156270507Y-83239504D01*
X156247303Y-83245316D01*
X156223642Y-83248826D01*
X156199750Y-83250000D01*
X155712250Y-83250000D01*
X155688358Y-83248826D01*
X155664697Y-83245316D01*
X155641493Y-83239504D01*
X155618971Y-83231446D01*
X155597347Y-83221218D01*
X155576830Y-83208921D01*
X155557617Y-83194671D01*
X155539893Y-83178607D01*
X155523829Y-83160883D01*
X155509579Y-83141670D01*
X155497282Y-83121153D01*
X155487054Y-83099529D01*
X155478996Y-83077007D01*
X155473184Y-83053803D01*
X155469674Y-83030142D01*
X155468500Y-83006250D01*
X155468500Y-82093750D01*
X155469674Y-82069858D01*
X155473184Y-82046197D01*
X155478996Y-82022993D01*
X155487054Y-82000471D01*
X155497282Y-81978847D01*
X155509579Y-81958330D01*
X155523829Y-81939117D01*
X155539893Y-81921393D01*
X155557617Y-81905329D01*
X155576830Y-81891079D01*
X155597347Y-81878782D01*
X155618971Y-81868554D01*
X155641493Y-81860496D01*
X155664697Y-81854684D01*
X155688358Y-81851174D01*
X155712250Y-81850000D01*
X156199750Y-81850000D01*
X156223642Y-81851174D01*
X156223642Y-81851174D01*
G37*
D15*
X155956000Y-82550000D03*
D10*
G36*
X165289142Y-82105174D02*
X165312803Y-82108684D01*
X165336007Y-82114496D01*
X165358529Y-82122554D01*
X165380153Y-82132782D01*
X165400670Y-82145079D01*
X165419883Y-82159329D01*
X165437607Y-82175393D01*
X165453671Y-82193117D01*
X165467921Y-82212330D01*
X165480218Y-82232847D01*
X165490446Y-82254471D01*
X165498504Y-82276993D01*
X165504316Y-82300197D01*
X165507826Y-82323858D01*
X165509000Y-82347750D01*
X165509000Y-83260250D01*
X165507826Y-83284142D01*
X165504316Y-83307803D01*
X165498504Y-83331007D01*
X165490446Y-83353529D01*
X165480218Y-83375153D01*
X165467921Y-83395670D01*
X165453671Y-83414883D01*
X165437607Y-83432607D01*
X165419883Y-83448671D01*
X165400670Y-83462921D01*
X165380153Y-83475218D01*
X165358529Y-83485446D01*
X165336007Y-83493504D01*
X165312803Y-83499316D01*
X165289142Y-83502826D01*
X165265250Y-83504000D01*
X164777750Y-83504000D01*
X164753858Y-83502826D01*
X164730197Y-83499316D01*
X164706993Y-83493504D01*
X164684471Y-83485446D01*
X164662847Y-83475218D01*
X164642330Y-83462921D01*
X164623117Y-83448671D01*
X164605393Y-83432607D01*
X164589329Y-83414883D01*
X164575079Y-83395670D01*
X164562782Y-83375153D01*
X164552554Y-83353529D01*
X164544496Y-83331007D01*
X164538684Y-83307803D01*
X164535174Y-83284142D01*
X164534000Y-83260250D01*
X164534000Y-82347750D01*
X164535174Y-82323858D01*
X164538684Y-82300197D01*
X164544496Y-82276993D01*
X164552554Y-82254471D01*
X164562782Y-82232847D01*
X164575079Y-82212330D01*
X164589329Y-82193117D01*
X164605393Y-82175393D01*
X164623117Y-82159329D01*
X164642330Y-82145079D01*
X164662847Y-82132782D01*
X164684471Y-82122554D01*
X164706993Y-82114496D01*
X164730197Y-82108684D01*
X164753858Y-82105174D01*
X164777750Y-82104000D01*
X165265250Y-82104000D01*
X165289142Y-82105174D01*
X165289142Y-82105174D01*
G37*
D15*
X165021500Y-82804000D03*
D10*
G36*
X163414142Y-82105174D02*
X163437803Y-82108684D01*
X163461007Y-82114496D01*
X163483529Y-82122554D01*
X163505153Y-82132782D01*
X163525670Y-82145079D01*
X163544883Y-82159329D01*
X163562607Y-82175393D01*
X163578671Y-82193117D01*
X163592921Y-82212330D01*
X163605218Y-82232847D01*
X163615446Y-82254471D01*
X163623504Y-82276993D01*
X163629316Y-82300197D01*
X163632826Y-82323858D01*
X163634000Y-82347750D01*
X163634000Y-83260250D01*
X163632826Y-83284142D01*
X163629316Y-83307803D01*
X163623504Y-83331007D01*
X163615446Y-83353529D01*
X163605218Y-83375153D01*
X163592921Y-83395670D01*
X163578671Y-83414883D01*
X163562607Y-83432607D01*
X163544883Y-83448671D01*
X163525670Y-83462921D01*
X163505153Y-83475218D01*
X163483529Y-83485446D01*
X163461007Y-83493504D01*
X163437803Y-83499316D01*
X163414142Y-83502826D01*
X163390250Y-83504000D01*
X162902750Y-83504000D01*
X162878858Y-83502826D01*
X162855197Y-83499316D01*
X162831993Y-83493504D01*
X162809471Y-83485446D01*
X162787847Y-83475218D01*
X162767330Y-83462921D01*
X162748117Y-83448671D01*
X162730393Y-83432607D01*
X162714329Y-83414883D01*
X162700079Y-83395670D01*
X162687782Y-83375153D01*
X162677554Y-83353529D01*
X162669496Y-83331007D01*
X162663684Y-83307803D01*
X162660174Y-83284142D01*
X162659000Y-83260250D01*
X162659000Y-82347750D01*
X162660174Y-82323858D01*
X162663684Y-82300197D01*
X162669496Y-82276993D01*
X162677554Y-82254471D01*
X162687782Y-82232847D01*
X162700079Y-82212330D01*
X162714329Y-82193117D01*
X162730393Y-82175393D01*
X162748117Y-82159329D01*
X162767330Y-82145079D01*
X162787847Y-82132782D01*
X162809471Y-82122554D01*
X162831993Y-82114496D01*
X162855197Y-82108684D01*
X162878858Y-82105174D01*
X162902750Y-82104000D01*
X163390250Y-82104000D01*
X163414142Y-82105174D01*
X163414142Y-82105174D01*
G37*
D15*
X163146500Y-82804000D03*
D23*
X148335500Y-102616000D03*
D24*
X135255500Y-102616000D03*
X183896000Y-102616000D03*
D23*
X170816000Y-102616000D03*
X170942500Y-89408000D03*
D24*
X184022500Y-89408000D03*
X135382000Y-89408000D03*
D23*
X148462000Y-89408000D03*
D25*
X155194000Y-75066000D03*
X155194000Y-79366000D03*
M02*
