%TF.GenerationSoftware,KiCad,Pcbnew,5.0.2-bee76a0~70~ubuntu18.04.1*%
%TF.CreationDate,2019-10-10T23:15:17+02:00*%
%TF.ProjectId,Mini-BT-Pcb-328P,4d696e69-2d42-4542-9d50-63622d333238,rev?*%
%TF.SameCoordinates,Original*%
%TF.FileFunction,Copper,L2,Bot*%
%TF.FilePolarity,Positive*%
%FSLAX46Y46*%
G04 Gerber Fmt 4.6, Leading zero omitted, Abs format (unit mm)*
G04 Created by KiCad (PCBNEW 5.0.2-bee76a0~70~ubuntu18.04.1) date gio 10 ott 2019 23:15:17 CEST*
%MOMM*%
%LPD*%
G01*
G04 APERTURE LIST*
%ADD10C,0.150000*%
%ADD11C,0.500000*%
%ADD12C,1.524000*%
%ADD13R,2.180000X1.600000*%
%ADD14C,1.600000*%
%ADD15R,1.500000X1.000000*%
%ADD16R,2.540000X3.510000*%
%ADD17R,3.020000X1.510000*%
%ADD18C,0.975000*%
%ADD19R,1.700000X1.700000*%
%ADD20R,2.510000X1.000000*%
%ADD21R,1.500000X1.900000*%
%ADD22C,1.450000*%
%ADD23R,0.400000X1.350000*%
%ADD24O,1.200000X1.900000*%
%ADD25R,1.200000X1.900000*%
%ADD26R,1.000000X1.400000*%
%ADD27R,2.000000X3.800000*%
%ADD28R,2.000000X1.500000*%
%ADD29R,0.800000X1.900000*%
%ADD30R,3.960000X5.080000*%
%ADD31R,3.960000X2.340000*%
%ADD32R,1.750000X2.650000*%
%ADD33O,1.727200X1.727200*%
%ADD34R,1.727200X1.727200*%
%ADD35C,0.650000*%
%ADD36C,0.160000*%
%ADD37C,0.300000*%
%ADD38C,0.200000*%
G04 APERTURE END LIST*
D10*
X132080000Y-108406000D02*
X132080000Y-73406000D01*
X187080000Y-108406000D02*
X132080000Y-108406000D01*
X187080000Y-73406000D02*
X187080000Y-108406000D01*
X132080000Y-73406000D02*
X187080000Y-73406000D01*
D11*
X186070000Y-107188000D03*
D10*
G36*
X185570000Y-106438000D02*
X186070000Y-106438000D01*
X186070000Y-106438602D01*
X186094534Y-106438602D01*
X186143365Y-106443412D01*
X186191490Y-106452984D01*
X186238445Y-106467228D01*
X186283778Y-106486005D01*
X186327051Y-106509136D01*
X186367850Y-106536396D01*
X186405779Y-106567524D01*
X186440476Y-106602221D01*
X186471604Y-106640150D01*
X186498864Y-106680949D01*
X186521995Y-106724222D01*
X186540772Y-106769555D01*
X186555016Y-106816510D01*
X186564588Y-106864635D01*
X186569398Y-106913466D01*
X186569398Y-106938000D01*
X186570000Y-106938000D01*
X186570000Y-107438000D01*
X186569398Y-107438000D01*
X186569398Y-107462534D01*
X186564588Y-107511365D01*
X186555016Y-107559490D01*
X186540772Y-107606445D01*
X186521995Y-107651778D01*
X186498864Y-107695051D01*
X186471604Y-107735850D01*
X186440476Y-107773779D01*
X186405779Y-107808476D01*
X186367850Y-107839604D01*
X186327051Y-107866864D01*
X186283778Y-107889995D01*
X186238445Y-107908772D01*
X186191490Y-107923016D01*
X186143365Y-107932588D01*
X186094534Y-107937398D01*
X186070000Y-107937398D01*
X186070000Y-107938000D01*
X185570000Y-107938000D01*
X185570000Y-106438000D01*
X185570000Y-106438000D01*
G37*
D11*
X184770000Y-107188000D03*
D10*
G36*
X184770000Y-107937398D02*
X184745466Y-107937398D01*
X184696635Y-107932588D01*
X184648510Y-107923016D01*
X184601555Y-107908772D01*
X184556222Y-107889995D01*
X184512949Y-107866864D01*
X184472150Y-107839604D01*
X184434221Y-107808476D01*
X184399524Y-107773779D01*
X184368396Y-107735850D01*
X184341136Y-107695051D01*
X184318005Y-107651778D01*
X184299228Y-107606445D01*
X184284984Y-107559490D01*
X184275412Y-107511365D01*
X184270602Y-107462534D01*
X184270602Y-107438000D01*
X184270000Y-107438000D01*
X184270000Y-106938000D01*
X184270602Y-106938000D01*
X184270602Y-106913466D01*
X184275412Y-106864635D01*
X184284984Y-106816510D01*
X184299228Y-106769555D01*
X184318005Y-106724222D01*
X184341136Y-106680949D01*
X184368396Y-106640150D01*
X184399524Y-106602221D01*
X184434221Y-106567524D01*
X184472150Y-106536396D01*
X184512949Y-106509136D01*
X184556222Y-106486005D01*
X184601555Y-106467228D01*
X184648510Y-106452984D01*
X184696635Y-106443412D01*
X184745466Y-106438602D01*
X184770000Y-106438602D01*
X184770000Y-106438000D01*
X185270000Y-106438000D01*
X185270000Y-107938000D01*
X184770000Y-107938000D01*
X184770000Y-107937398D01*
X184770000Y-107937398D01*
G37*
D12*
X140368000Y-82550000D03*
X160368000Y-82550000D03*
D13*
X180622000Y-81280000D03*
X171422000Y-81280000D03*
D10*
G36*
X171794504Y-75655204D02*
X171818773Y-75658804D01*
X171842571Y-75664765D01*
X171865671Y-75673030D01*
X171887849Y-75683520D01*
X171908893Y-75696133D01*
X171928598Y-75710747D01*
X171946777Y-75727223D01*
X171963253Y-75745402D01*
X171977867Y-75765107D01*
X171990480Y-75786151D01*
X172000970Y-75808329D01*
X172009235Y-75831429D01*
X172015196Y-75855227D01*
X172018796Y-75879496D01*
X172020000Y-75904000D01*
X172020000Y-77004000D01*
X172018796Y-77028504D01*
X172015196Y-77052773D01*
X172009235Y-77076571D01*
X172000970Y-77099671D01*
X171990480Y-77121849D01*
X171977867Y-77142893D01*
X171963253Y-77162598D01*
X171946777Y-77180777D01*
X171928598Y-77197253D01*
X171908893Y-77211867D01*
X171887849Y-77224480D01*
X171865671Y-77234970D01*
X171842571Y-77243235D01*
X171818773Y-77249196D01*
X171794504Y-77252796D01*
X171770000Y-77254000D01*
X169270000Y-77254000D01*
X169245496Y-77252796D01*
X169221227Y-77249196D01*
X169197429Y-77243235D01*
X169174329Y-77234970D01*
X169152151Y-77224480D01*
X169131107Y-77211867D01*
X169111402Y-77197253D01*
X169093223Y-77180777D01*
X169076747Y-77162598D01*
X169062133Y-77142893D01*
X169049520Y-77121849D01*
X169039030Y-77099671D01*
X169030765Y-77076571D01*
X169024804Y-77052773D01*
X169021204Y-77028504D01*
X169020000Y-77004000D01*
X169020000Y-75904000D01*
X169021204Y-75879496D01*
X169024804Y-75855227D01*
X169030765Y-75831429D01*
X169039030Y-75808329D01*
X169049520Y-75786151D01*
X169062133Y-75765107D01*
X169076747Y-75745402D01*
X169093223Y-75727223D01*
X169111402Y-75710747D01*
X169131107Y-75696133D01*
X169152151Y-75683520D01*
X169174329Y-75673030D01*
X169197429Y-75664765D01*
X169221227Y-75658804D01*
X169245496Y-75655204D01*
X169270000Y-75654000D01*
X171770000Y-75654000D01*
X171794504Y-75655204D01*
X171794504Y-75655204D01*
G37*
D14*
X170520000Y-76454000D03*
D10*
G36*
X176194504Y-75655204D02*
X176218773Y-75658804D01*
X176242571Y-75664765D01*
X176265671Y-75673030D01*
X176287849Y-75683520D01*
X176308893Y-75696133D01*
X176328598Y-75710747D01*
X176346777Y-75727223D01*
X176363253Y-75745402D01*
X176377867Y-75765107D01*
X176390480Y-75786151D01*
X176400970Y-75808329D01*
X176409235Y-75831429D01*
X176415196Y-75855227D01*
X176418796Y-75879496D01*
X176420000Y-75904000D01*
X176420000Y-77004000D01*
X176418796Y-77028504D01*
X176415196Y-77052773D01*
X176409235Y-77076571D01*
X176400970Y-77099671D01*
X176390480Y-77121849D01*
X176377867Y-77142893D01*
X176363253Y-77162598D01*
X176346777Y-77180777D01*
X176328598Y-77197253D01*
X176308893Y-77211867D01*
X176287849Y-77224480D01*
X176265671Y-77234970D01*
X176242571Y-77243235D01*
X176218773Y-77249196D01*
X176194504Y-77252796D01*
X176170000Y-77254000D01*
X173670000Y-77254000D01*
X173645496Y-77252796D01*
X173621227Y-77249196D01*
X173597429Y-77243235D01*
X173574329Y-77234970D01*
X173552151Y-77224480D01*
X173531107Y-77211867D01*
X173511402Y-77197253D01*
X173493223Y-77180777D01*
X173476747Y-77162598D01*
X173462133Y-77142893D01*
X173449520Y-77121849D01*
X173439030Y-77099671D01*
X173430765Y-77076571D01*
X173424804Y-77052773D01*
X173421204Y-77028504D01*
X173420000Y-77004000D01*
X173420000Y-75904000D01*
X173421204Y-75879496D01*
X173424804Y-75855227D01*
X173430765Y-75831429D01*
X173439030Y-75808329D01*
X173449520Y-75786151D01*
X173462133Y-75765107D01*
X173476747Y-75745402D01*
X173493223Y-75727223D01*
X173511402Y-75710747D01*
X173531107Y-75696133D01*
X173552151Y-75683520D01*
X173574329Y-75673030D01*
X173597429Y-75664765D01*
X173621227Y-75658804D01*
X173645496Y-75655204D01*
X173670000Y-75654000D01*
X176170000Y-75654000D01*
X176194504Y-75655204D01*
X176194504Y-75655204D01*
G37*
D14*
X174920000Y-76454000D03*
D11*
X134508000Y-107188000D03*
D10*
G36*
X134008000Y-106438000D02*
X134508000Y-106438000D01*
X134508000Y-106438602D01*
X134532534Y-106438602D01*
X134581365Y-106443412D01*
X134629490Y-106452984D01*
X134676445Y-106467228D01*
X134721778Y-106486005D01*
X134765051Y-106509136D01*
X134805850Y-106536396D01*
X134843779Y-106567524D01*
X134878476Y-106602221D01*
X134909604Y-106640150D01*
X134936864Y-106680949D01*
X134959995Y-106724222D01*
X134978772Y-106769555D01*
X134993016Y-106816510D01*
X135002588Y-106864635D01*
X135007398Y-106913466D01*
X135007398Y-106938000D01*
X135008000Y-106938000D01*
X135008000Y-107438000D01*
X135007398Y-107438000D01*
X135007398Y-107462534D01*
X135002588Y-107511365D01*
X134993016Y-107559490D01*
X134978772Y-107606445D01*
X134959995Y-107651778D01*
X134936864Y-107695051D01*
X134909604Y-107735850D01*
X134878476Y-107773779D01*
X134843779Y-107808476D01*
X134805850Y-107839604D01*
X134765051Y-107866864D01*
X134721778Y-107889995D01*
X134676445Y-107908772D01*
X134629490Y-107923016D01*
X134581365Y-107932588D01*
X134532534Y-107937398D01*
X134508000Y-107937398D01*
X134508000Y-107938000D01*
X134008000Y-107938000D01*
X134008000Y-106438000D01*
X134008000Y-106438000D01*
G37*
D11*
X133208000Y-107188000D03*
D10*
G36*
X133208000Y-107937398D02*
X133183466Y-107937398D01*
X133134635Y-107932588D01*
X133086510Y-107923016D01*
X133039555Y-107908772D01*
X132994222Y-107889995D01*
X132950949Y-107866864D01*
X132910150Y-107839604D01*
X132872221Y-107808476D01*
X132837524Y-107773779D01*
X132806396Y-107735850D01*
X132779136Y-107695051D01*
X132756005Y-107651778D01*
X132737228Y-107606445D01*
X132722984Y-107559490D01*
X132713412Y-107511365D01*
X132708602Y-107462534D01*
X132708602Y-107438000D01*
X132708000Y-107438000D01*
X132708000Y-106938000D01*
X132708602Y-106938000D01*
X132708602Y-106913466D01*
X132713412Y-106864635D01*
X132722984Y-106816510D01*
X132737228Y-106769555D01*
X132756005Y-106724222D01*
X132779136Y-106680949D01*
X132806396Y-106640150D01*
X132837524Y-106602221D01*
X132872221Y-106567524D01*
X132910150Y-106536396D01*
X132950949Y-106509136D01*
X132994222Y-106486005D01*
X133039555Y-106467228D01*
X133086510Y-106452984D01*
X133134635Y-106443412D01*
X133183466Y-106438602D01*
X133208000Y-106438602D01*
X133208000Y-106438000D01*
X133708000Y-106438000D01*
X133708000Y-107938000D01*
X133208000Y-107938000D01*
X133208000Y-107937398D01*
X133208000Y-107937398D01*
G37*
D11*
X184912000Y-94682000D03*
D10*
G36*
X184162000Y-95232000D02*
X184162000Y-94682000D01*
X184162602Y-94682000D01*
X184162602Y-94657466D01*
X184167412Y-94608635D01*
X184176984Y-94560510D01*
X184191228Y-94513555D01*
X184210005Y-94468222D01*
X184233136Y-94424949D01*
X184260396Y-94384150D01*
X184291524Y-94346221D01*
X184326221Y-94311524D01*
X184364150Y-94280396D01*
X184404949Y-94253136D01*
X184448222Y-94230005D01*
X184493555Y-94211228D01*
X184540510Y-94196984D01*
X184588635Y-94187412D01*
X184637466Y-94182602D01*
X184662000Y-94182602D01*
X184662000Y-94182000D01*
X185162000Y-94182000D01*
X185162000Y-94182602D01*
X185186534Y-94182602D01*
X185235365Y-94187412D01*
X185283490Y-94196984D01*
X185330445Y-94211228D01*
X185375778Y-94230005D01*
X185419051Y-94253136D01*
X185459850Y-94280396D01*
X185497779Y-94311524D01*
X185532476Y-94346221D01*
X185563604Y-94384150D01*
X185590864Y-94424949D01*
X185613995Y-94468222D01*
X185632772Y-94513555D01*
X185647016Y-94560510D01*
X185656588Y-94608635D01*
X185661398Y-94657466D01*
X185661398Y-94682000D01*
X185662000Y-94682000D01*
X185662000Y-95232000D01*
X184162000Y-95232000D01*
X184162000Y-95232000D01*
G37*
D11*
X184912000Y-97282000D03*
D10*
G36*
X185661398Y-97282000D02*
X185661398Y-97306534D01*
X185656588Y-97355365D01*
X185647016Y-97403490D01*
X185632772Y-97450445D01*
X185613995Y-97495778D01*
X185590864Y-97539051D01*
X185563604Y-97579850D01*
X185532476Y-97617779D01*
X185497779Y-97652476D01*
X185459850Y-97683604D01*
X185419051Y-97710864D01*
X185375778Y-97733995D01*
X185330445Y-97752772D01*
X185283490Y-97767016D01*
X185235365Y-97776588D01*
X185186534Y-97781398D01*
X185162000Y-97781398D01*
X185162000Y-97782000D01*
X184662000Y-97782000D01*
X184662000Y-97781398D01*
X184637466Y-97781398D01*
X184588635Y-97776588D01*
X184540510Y-97767016D01*
X184493555Y-97752772D01*
X184448222Y-97733995D01*
X184404949Y-97710864D01*
X184364150Y-97683604D01*
X184326221Y-97652476D01*
X184291524Y-97617779D01*
X184260396Y-97579850D01*
X184233136Y-97539051D01*
X184210005Y-97495778D01*
X184191228Y-97450445D01*
X184176984Y-97403490D01*
X184167412Y-97355365D01*
X184162602Y-97306534D01*
X184162602Y-97282000D01*
X184162000Y-97282000D01*
X184162000Y-96732000D01*
X185662000Y-96732000D01*
X185662000Y-97282000D01*
X185661398Y-97282000D01*
X185661398Y-97282000D01*
G37*
D15*
X184912000Y-95982000D03*
D16*
X144900000Y-96266000D03*
X174260000Y-96266000D03*
D17*
X151638000Y-77650000D03*
X151638000Y-74750000D03*
D10*
G36*
X133442142Y-97345174D02*
X133465803Y-97348684D01*
X133489007Y-97354496D01*
X133511529Y-97362554D01*
X133533153Y-97372782D01*
X133553670Y-97385079D01*
X133572883Y-97399329D01*
X133590607Y-97415393D01*
X133606671Y-97433117D01*
X133620921Y-97452330D01*
X133633218Y-97472847D01*
X133643446Y-97494471D01*
X133651504Y-97516993D01*
X133657316Y-97540197D01*
X133660826Y-97563858D01*
X133662000Y-97587750D01*
X133662000Y-98500250D01*
X133660826Y-98524142D01*
X133657316Y-98547803D01*
X133651504Y-98571007D01*
X133643446Y-98593529D01*
X133633218Y-98615153D01*
X133620921Y-98635670D01*
X133606671Y-98654883D01*
X133590607Y-98672607D01*
X133572883Y-98688671D01*
X133553670Y-98702921D01*
X133533153Y-98715218D01*
X133511529Y-98725446D01*
X133489007Y-98733504D01*
X133465803Y-98739316D01*
X133442142Y-98742826D01*
X133418250Y-98744000D01*
X132930750Y-98744000D01*
X132906858Y-98742826D01*
X132883197Y-98739316D01*
X132859993Y-98733504D01*
X132837471Y-98725446D01*
X132815847Y-98715218D01*
X132795330Y-98702921D01*
X132776117Y-98688671D01*
X132758393Y-98672607D01*
X132742329Y-98654883D01*
X132728079Y-98635670D01*
X132715782Y-98615153D01*
X132705554Y-98593529D01*
X132697496Y-98571007D01*
X132691684Y-98547803D01*
X132688174Y-98524142D01*
X132687000Y-98500250D01*
X132687000Y-97587750D01*
X132688174Y-97563858D01*
X132691684Y-97540197D01*
X132697496Y-97516993D01*
X132705554Y-97494471D01*
X132715782Y-97472847D01*
X132728079Y-97452330D01*
X132742329Y-97433117D01*
X132758393Y-97415393D01*
X132776117Y-97399329D01*
X132795330Y-97385079D01*
X132815847Y-97372782D01*
X132837471Y-97362554D01*
X132859993Y-97354496D01*
X132883197Y-97348684D01*
X132906858Y-97345174D01*
X132930750Y-97344000D01*
X133418250Y-97344000D01*
X133442142Y-97345174D01*
X133442142Y-97345174D01*
G37*
D18*
X133174500Y-98044000D03*
D10*
G36*
X135317142Y-97345174D02*
X135340803Y-97348684D01*
X135364007Y-97354496D01*
X135386529Y-97362554D01*
X135408153Y-97372782D01*
X135428670Y-97385079D01*
X135447883Y-97399329D01*
X135465607Y-97415393D01*
X135481671Y-97433117D01*
X135495921Y-97452330D01*
X135508218Y-97472847D01*
X135518446Y-97494471D01*
X135526504Y-97516993D01*
X135532316Y-97540197D01*
X135535826Y-97563858D01*
X135537000Y-97587750D01*
X135537000Y-98500250D01*
X135535826Y-98524142D01*
X135532316Y-98547803D01*
X135526504Y-98571007D01*
X135518446Y-98593529D01*
X135508218Y-98615153D01*
X135495921Y-98635670D01*
X135481671Y-98654883D01*
X135465607Y-98672607D01*
X135447883Y-98688671D01*
X135428670Y-98702921D01*
X135408153Y-98715218D01*
X135386529Y-98725446D01*
X135364007Y-98733504D01*
X135340803Y-98739316D01*
X135317142Y-98742826D01*
X135293250Y-98744000D01*
X134805750Y-98744000D01*
X134781858Y-98742826D01*
X134758197Y-98739316D01*
X134734993Y-98733504D01*
X134712471Y-98725446D01*
X134690847Y-98715218D01*
X134670330Y-98702921D01*
X134651117Y-98688671D01*
X134633393Y-98672607D01*
X134617329Y-98654883D01*
X134603079Y-98635670D01*
X134590782Y-98615153D01*
X134580554Y-98593529D01*
X134572496Y-98571007D01*
X134566684Y-98547803D01*
X134563174Y-98524142D01*
X134562000Y-98500250D01*
X134562000Y-97587750D01*
X134563174Y-97563858D01*
X134566684Y-97540197D01*
X134572496Y-97516993D01*
X134580554Y-97494471D01*
X134590782Y-97472847D01*
X134603079Y-97452330D01*
X134617329Y-97433117D01*
X134633393Y-97415393D01*
X134651117Y-97399329D01*
X134670330Y-97385079D01*
X134690847Y-97372782D01*
X134712471Y-97362554D01*
X134734993Y-97354496D01*
X134758197Y-97348684D01*
X134781858Y-97345174D01*
X134805750Y-97344000D01*
X135293250Y-97344000D01*
X135317142Y-97345174D01*
X135317142Y-97345174D01*
G37*
D18*
X135049500Y-98044000D03*
D10*
G36*
X138268142Y-78803174D02*
X138291803Y-78806684D01*
X138315007Y-78812496D01*
X138337529Y-78820554D01*
X138359153Y-78830782D01*
X138379670Y-78843079D01*
X138398883Y-78857329D01*
X138416607Y-78873393D01*
X138432671Y-78891117D01*
X138446921Y-78910330D01*
X138459218Y-78930847D01*
X138469446Y-78952471D01*
X138477504Y-78974993D01*
X138483316Y-78998197D01*
X138486826Y-79021858D01*
X138488000Y-79045750D01*
X138488000Y-79958250D01*
X138486826Y-79982142D01*
X138483316Y-80005803D01*
X138477504Y-80029007D01*
X138469446Y-80051529D01*
X138459218Y-80073153D01*
X138446921Y-80093670D01*
X138432671Y-80112883D01*
X138416607Y-80130607D01*
X138398883Y-80146671D01*
X138379670Y-80160921D01*
X138359153Y-80173218D01*
X138337529Y-80183446D01*
X138315007Y-80191504D01*
X138291803Y-80197316D01*
X138268142Y-80200826D01*
X138244250Y-80202000D01*
X137756750Y-80202000D01*
X137732858Y-80200826D01*
X137709197Y-80197316D01*
X137685993Y-80191504D01*
X137663471Y-80183446D01*
X137641847Y-80173218D01*
X137621330Y-80160921D01*
X137602117Y-80146671D01*
X137584393Y-80130607D01*
X137568329Y-80112883D01*
X137554079Y-80093670D01*
X137541782Y-80073153D01*
X137531554Y-80051529D01*
X137523496Y-80029007D01*
X137517684Y-80005803D01*
X137514174Y-79982142D01*
X137513000Y-79958250D01*
X137513000Y-79045750D01*
X137514174Y-79021858D01*
X137517684Y-78998197D01*
X137523496Y-78974993D01*
X137531554Y-78952471D01*
X137541782Y-78930847D01*
X137554079Y-78910330D01*
X137568329Y-78891117D01*
X137584393Y-78873393D01*
X137602117Y-78857329D01*
X137621330Y-78843079D01*
X137641847Y-78830782D01*
X137663471Y-78820554D01*
X137685993Y-78812496D01*
X137709197Y-78806684D01*
X137732858Y-78803174D01*
X137756750Y-78802000D01*
X138244250Y-78802000D01*
X138268142Y-78803174D01*
X138268142Y-78803174D01*
G37*
D18*
X138000500Y-79502000D03*
D10*
G36*
X140143142Y-78803174D02*
X140166803Y-78806684D01*
X140190007Y-78812496D01*
X140212529Y-78820554D01*
X140234153Y-78830782D01*
X140254670Y-78843079D01*
X140273883Y-78857329D01*
X140291607Y-78873393D01*
X140307671Y-78891117D01*
X140321921Y-78910330D01*
X140334218Y-78930847D01*
X140344446Y-78952471D01*
X140352504Y-78974993D01*
X140358316Y-78998197D01*
X140361826Y-79021858D01*
X140363000Y-79045750D01*
X140363000Y-79958250D01*
X140361826Y-79982142D01*
X140358316Y-80005803D01*
X140352504Y-80029007D01*
X140344446Y-80051529D01*
X140334218Y-80073153D01*
X140321921Y-80093670D01*
X140307671Y-80112883D01*
X140291607Y-80130607D01*
X140273883Y-80146671D01*
X140254670Y-80160921D01*
X140234153Y-80173218D01*
X140212529Y-80183446D01*
X140190007Y-80191504D01*
X140166803Y-80197316D01*
X140143142Y-80200826D01*
X140119250Y-80202000D01*
X139631750Y-80202000D01*
X139607858Y-80200826D01*
X139584197Y-80197316D01*
X139560993Y-80191504D01*
X139538471Y-80183446D01*
X139516847Y-80173218D01*
X139496330Y-80160921D01*
X139477117Y-80146671D01*
X139459393Y-80130607D01*
X139443329Y-80112883D01*
X139429079Y-80093670D01*
X139416782Y-80073153D01*
X139406554Y-80051529D01*
X139398496Y-80029007D01*
X139392684Y-80005803D01*
X139389174Y-79982142D01*
X139388000Y-79958250D01*
X139388000Y-79045750D01*
X139389174Y-79021858D01*
X139392684Y-78998197D01*
X139398496Y-78974993D01*
X139406554Y-78952471D01*
X139416782Y-78930847D01*
X139429079Y-78910330D01*
X139443329Y-78891117D01*
X139459393Y-78873393D01*
X139477117Y-78857329D01*
X139496330Y-78843079D01*
X139516847Y-78830782D01*
X139538471Y-78820554D01*
X139560993Y-78812496D01*
X139584197Y-78806684D01*
X139607858Y-78803174D01*
X139631750Y-78802000D01*
X140119250Y-78802000D01*
X140143142Y-78803174D01*
X140143142Y-78803174D01*
G37*
D18*
X139875500Y-79502000D03*
D10*
G36*
X133442142Y-84137174D02*
X133465803Y-84140684D01*
X133489007Y-84146496D01*
X133511529Y-84154554D01*
X133533153Y-84164782D01*
X133553670Y-84177079D01*
X133572883Y-84191329D01*
X133590607Y-84207393D01*
X133606671Y-84225117D01*
X133620921Y-84244330D01*
X133633218Y-84264847D01*
X133643446Y-84286471D01*
X133651504Y-84308993D01*
X133657316Y-84332197D01*
X133660826Y-84355858D01*
X133662000Y-84379750D01*
X133662000Y-85292250D01*
X133660826Y-85316142D01*
X133657316Y-85339803D01*
X133651504Y-85363007D01*
X133643446Y-85385529D01*
X133633218Y-85407153D01*
X133620921Y-85427670D01*
X133606671Y-85446883D01*
X133590607Y-85464607D01*
X133572883Y-85480671D01*
X133553670Y-85494921D01*
X133533153Y-85507218D01*
X133511529Y-85517446D01*
X133489007Y-85525504D01*
X133465803Y-85531316D01*
X133442142Y-85534826D01*
X133418250Y-85536000D01*
X132930750Y-85536000D01*
X132906858Y-85534826D01*
X132883197Y-85531316D01*
X132859993Y-85525504D01*
X132837471Y-85517446D01*
X132815847Y-85507218D01*
X132795330Y-85494921D01*
X132776117Y-85480671D01*
X132758393Y-85464607D01*
X132742329Y-85446883D01*
X132728079Y-85427670D01*
X132715782Y-85407153D01*
X132705554Y-85385529D01*
X132697496Y-85363007D01*
X132691684Y-85339803D01*
X132688174Y-85316142D01*
X132687000Y-85292250D01*
X132687000Y-84379750D01*
X132688174Y-84355858D01*
X132691684Y-84332197D01*
X132697496Y-84308993D01*
X132705554Y-84286471D01*
X132715782Y-84264847D01*
X132728079Y-84244330D01*
X132742329Y-84225117D01*
X132758393Y-84207393D01*
X132776117Y-84191329D01*
X132795330Y-84177079D01*
X132815847Y-84164782D01*
X132837471Y-84154554D01*
X132859993Y-84146496D01*
X132883197Y-84140684D01*
X132906858Y-84137174D01*
X132930750Y-84136000D01*
X133418250Y-84136000D01*
X133442142Y-84137174D01*
X133442142Y-84137174D01*
G37*
D18*
X133174500Y-84836000D03*
D10*
G36*
X135317142Y-84137174D02*
X135340803Y-84140684D01*
X135364007Y-84146496D01*
X135386529Y-84154554D01*
X135408153Y-84164782D01*
X135428670Y-84177079D01*
X135447883Y-84191329D01*
X135465607Y-84207393D01*
X135481671Y-84225117D01*
X135495921Y-84244330D01*
X135508218Y-84264847D01*
X135518446Y-84286471D01*
X135526504Y-84308993D01*
X135532316Y-84332197D01*
X135535826Y-84355858D01*
X135537000Y-84379750D01*
X135537000Y-85292250D01*
X135535826Y-85316142D01*
X135532316Y-85339803D01*
X135526504Y-85363007D01*
X135518446Y-85385529D01*
X135508218Y-85407153D01*
X135495921Y-85427670D01*
X135481671Y-85446883D01*
X135465607Y-85464607D01*
X135447883Y-85480671D01*
X135428670Y-85494921D01*
X135408153Y-85507218D01*
X135386529Y-85517446D01*
X135364007Y-85525504D01*
X135340803Y-85531316D01*
X135317142Y-85534826D01*
X135293250Y-85536000D01*
X134805750Y-85536000D01*
X134781858Y-85534826D01*
X134758197Y-85531316D01*
X134734993Y-85525504D01*
X134712471Y-85517446D01*
X134690847Y-85507218D01*
X134670330Y-85494921D01*
X134651117Y-85480671D01*
X134633393Y-85464607D01*
X134617329Y-85446883D01*
X134603079Y-85427670D01*
X134590782Y-85407153D01*
X134580554Y-85385529D01*
X134572496Y-85363007D01*
X134566684Y-85339803D01*
X134563174Y-85316142D01*
X134562000Y-85292250D01*
X134562000Y-84379750D01*
X134563174Y-84355858D01*
X134566684Y-84332197D01*
X134572496Y-84308993D01*
X134580554Y-84286471D01*
X134590782Y-84264847D01*
X134603079Y-84244330D01*
X134617329Y-84225117D01*
X134633393Y-84207393D01*
X134651117Y-84191329D01*
X134670330Y-84177079D01*
X134690847Y-84164782D01*
X134712471Y-84154554D01*
X134734993Y-84146496D01*
X134758197Y-84140684D01*
X134781858Y-84137174D01*
X134805750Y-84136000D01*
X135293250Y-84136000D01*
X135317142Y-84137174D01*
X135317142Y-84137174D01*
G37*
D18*
X135049500Y-84836000D03*
D10*
G36*
X169353142Y-82105174D02*
X169376803Y-82108684D01*
X169400007Y-82114496D01*
X169422529Y-82122554D01*
X169444153Y-82132782D01*
X169464670Y-82145079D01*
X169483883Y-82159329D01*
X169501607Y-82175393D01*
X169517671Y-82193117D01*
X169531921Y-82212330D01*
X169544218Y-82232847D01*
X169554446Y-82254471D01*
X169562504Y-82276993D01*
X169568316Y-82300197D01*
X169571826Y-82323858D01*
X169573000Y-82347750D01*
X169573000Y-83260250D01*
X169571826Y-83284142D01*
X169568316Y-83307803D01*
X169562504Y-83331007D01*
X169554446Y-83353529D01*
X169544218Y-83375153D01*
X169531921Y-83395670D01*
X169517671Y-83414883D01*
X169501607Y-83432607D01*
X169483883Y-83448671D01*
X169464670Y-83462921D01*
X169444153Y-83475218D01*
X169422529Y-83485446D01*
X169400007Y-83493504D01*
X169376803Y-83499316D01*
X169353142Y-83502826D01*
X169329250Y-83504000D01*
X168841750Y-83504000D01*
X168817858Y-83502826D01*
X168794197Y-83499316D01*
X168770993Y-83493504D01*
X168748471Y-83485446D01*
X168726847Y-83475218D01*
X168706330Y-83462921D01*
X168687117Y-83448671D01*
X168669393Y-83432607D01*
X168653329Y-83414883D01*
X168639079Y-83395670D01*
X168626782Y-83375153D01*
X168616554Y-83353529D01*
X168608496Y-83331007D01*
X168602684Y-83307803D01*
X168599174Y-83284142D01*
X168598000Y-83260250D01*
X168598000Y-82347750D01*
X168599174Y-82323858D01*
X168602684Y-82300197D01*
X168608496Y-82276993D01*
X168616554Y-82254471D01*
X168626782Y-82232847D01*
X168639079Y-82212330D01*
X168653329Y-82193117D01*
X168669393Y-82175393D01*
X168687117Y-82159329D01*
X168706330Y-82145079D01*
X168726847Y-82132782D01*
X168748471Y-82122554D01*
X168770993Y-82114496D01*
X168794197Y-82108684D01*
X168817858Y-82105174D01*
X168841750Y-82104000D01*
X169329250Y-82104000D01*
X169353142Y-82105174D01*
X169353142Y-82105174D01*
G37*
D18*
X169085500Y-82804000D03*
D10*
G36*
X167478142Y-82105174D02*
X167501803Y-82108684D01*
X167525007Y-82114496D01*
X167547529Y-82122554D01*
X167569153Y-82132782D01*
X167589670Y-82145079D01*
X167608883Y-82159329D01*
X167626607Y-82175393D01*
X167642671Y-82193117D01*
X167656921Y-82212330D01*
X167669218Y-82232847D01*
X167679446Y-82254471D01*
X167687504Y-82276993D01*
X167693316Y-82300197D01*
X167696826Y-82323858D01*
X167698000Y-82347750D01*
X167698000Y-83260250D01*
X167696826Y-83284142D01*
X167693316Y-83307803D01*
X167687504Y-83331007D01*
X167679446Y-83353529D01*
X167669218Y-83375153D01*
X167656921Y-83395670D01*
X167642671Y-83414883D01*
X167626607Y-83432607D01*
X167608883Y-83448671D01*
X167589670Y-83462921D01*
X167569153Y-83475218D01*
X167547529Y-83485446D01*
X167525007Y-83493504D01*
X167501803Y-83499316D01*
X167478142Y-83502826D01*
X167454250Y-83504000D01*
X166966750Y-83504000D01*
X166942858Y-83502826D01*
X166919197Y-83499316D01*
X166895993Y-83493504D01*
X166873471Y-83485446D01*
X166851847Y-83475218D01*
X166831330Y-83462921D01*
X166812117Y-83448671D01*
X166794393Y-83432607D01*
X166778329Y-83414883D01*
X166764079Y-83395670D01*
X166751782Y-83375153D01*
X166741554Y-83353529D01*
X166733496Y-83331007D01*
X166727684Y-83307803D01*
X166724174Y-83284142D01*
X166723000Y-83260250D01*
X166723000Y-82347750D01*
X166724174Y-82323858D01*
X166727684Y-82300197D01*
X166733496Y-82276993D01*
X166741554Y-82254471D01*
X166751782Y-82232847D01*
X166764079Y-82212330D01*
X166778329Y-82193117D01*
X166794393Y-82175393D01*
X166812117Y-82159329D01*
X166831330Y-82145079D01*
X166851847Y-82132782D01*
X166873471Y-82122554D01*
X166895993Y-82114496D01*
X166919197Y-82108684D01*
X166942858Y-82105174D01*
X166966750Y-82104000D01*
X167454250Y-82104000D01*
X167478142Y-82105174D01*
X167478142Y-82105174D01*
G37*
D18*
X167210500Y-82804000D03*
D19*
X183896000Y-81280000D03*
D20*
X167009000Y-75184000D03*
X167009000Y-80264000D03*
X163699000Y-77724000D03*
D21*
X137398000Y-74708500D03*
D22*
X133898000Y-77408500D03*
D23*
X135748000Y-77408500D03*
X135098000Y-77408500D03*
X137698000Y-77408500D03*
X137048000Y-77408500D03*
X136398000Y-77408500D03*
D22*
X138898000Y-77408500D03*
D21*
X135398000Y-74708500D03*
D24*
X132898000Y-74708500D03*
X139898000Y-74708500D03*
D25*
X139298000Y-74708500D03*
X133498000Y-74708500D03*
D26*
X151638000Y-82126000D03*
X152588000Y-79926000D03*
X150688000Y-79926000D03*
X133858000Y-93896000D03*
X132908000Y-96096000D03*
X134808000Y-96096000D03*
D27*
X148438000Y-77216000D03*
D28*
X142138000Y-77216000D03*
X142138000Y-74916000D03*
X142138000Y-79516000D03*
D29*
X135062000Y-82526000D03*
X133162000Y-82526000D03*
X134112000Y-79526000D03*
D10*
G36*
X158214142Y-80715174D02*
X158237803Y-80718684D01*
X158261007Y-80724496D01*
X158283529Y-80732554D01*
X158305153Y-80742782D01*
X158325670Y-80755079D01*
X158344883Y-80769329D01*
X158362607Y-80785393D01*
X158378671Y-80803117D01*
X158392921Y-80822330D01*
X158405218Y-80842847D01*
X158415446Y-80864471D01*
X158423504Y-80886993D01*
X158429316Y-80910197D01*
X158432826Y-80933858D01*
X158434000Y-80957750D01*
X158434000Y-81445250D01*
X158432826Y-81469142D01*
X158429316Y-81492803D01*
X158423504Y-81516007D01*
X158415446Y-81538529D01*
X158405218Y-81560153D01*
X158392921Y-81580670D01*
X158378671Y-81599883D01*
X158362607Y-81617607D01*
X158344883Y-81633671D01*
X158325670Y-81647921D01*
X158305153Y-81660218D01*
X158283529Y-81670446D01*
X158261007Y-81678504D01*
X158237803Y-81684316D01*
X158214142Y-81687826D01*
X158190250Y-81689000D01*
X157277750Y-81689000D01*
X157253858Y-81687826D01*
X157230197Y-81684316D01*
X157206993Y-81678504D01*
X157184471Y-81670446D01*
X157162847Y-81660218D01*
X157142330Y-81647921D01*
X157123117Y-81633671D01*
X157105393Y-81617607D01*
X157089329Y-81599883D01*
X157075079Y-81580670D01*
X157062782Y-81560153D01*
X157052554Y-81538529D01*
X157044496Y-81516007D01*
X157038684Y-81492803D01*
X157035174Y-81469142D01*
X157034000Y-81445250D01*
X157034000Y-80957750D01*
X157035174Y-80933858D01*
X157038684Y-80910197D01*
X157044496Y-80886993D01*
X157052554Y-80864471D01*
X157062782Y-80842847D01*
X157075079Y-80822330D01*
X157089329Y-80803117D01*
X157105393Y-80785393D01*
X157123117Y-80769329D01*
X157142330Y-80755079D01*
X157162847Y-80742782D01*
X157184471Y-80732554D01*
X157206993Y-80724496D01*
X157230197Y-80718684D01*
X157253858Y-80715174D01*
X157277750Y-80714000D01*
X158190250Y-80714000D01*
X158214142Y-80715174D01*
X158214142Y-80715174D01*
G37*
D18*
X157734000Y-81201500D03*
D10*
G36*
X158214142Y-78840174D02*
X158237803Y-78843684D01*
X158261007Y-78849496D01*
X158283529Y-78857554D01*
X158305153Y-78867782D01*
X158325670Y-78880079D01*
X158344883Y-78894329D01*
X158362607Y-78910393D01*
X158378671Y-78928117D01*
X158392921Y-78947330D01*
X158405218Y-78967847D01*
X158415446Y-78989471D01*
X158423504Y-79011993D01*
X158429316Y-79035197D01*
X158432826Y-79058858D01*
X158434000Y-79082750D01*
X158434000Y-79570250D01*
X158432826Y-79594142D01*
X158429316Y-79617803D01*
X158423504Y-79641007D01*
X158415446Y-79663529D01*
X158405218Y-79685153D01*
X158392921Y-79705670D01*
X158378671Y-79724883D01*
X158362607Y-79742607D01*
X158344883Y-79758671D01*
X158325670Y-79772921D01*
X158305153Y-79785218D01*
X158283529Y-79795446D01*
X158261007Y-79803504D01*
X158237803Y-79809316D01*
X158214142Y-79812826D01*
X158190250Y-79814000D01*
X157277750Y-79814000D01*
X157253858Y-79812826D01*
X157230197Y-79809316D01*
X157206993Y-79803504D01*
X157184471Y-79795446D01*
X157162847Y-79785218D01*
X157142330Y-79772921D01*
X157123117Y-79758671D01*
X157105393Y-79742607D01*
X157089329Y-79724883D01*
X157075079Y-79705670D01*
X157062782Y-79685153D01*
X157052554Y-79663529D01*
X157044496Y-79641007D01*
X157038684Y-79617803D01*
X157035174Y-79594142D01*
X157034000Y-79570250D01*
X157034000Y-79082750D01*
X157035174Y-79058858D01*
X157038684Y-79035197D01*
X157044496Y-79011993D01*
X157052554Y-78989471D01*
X157062782Y-78967847D01*
X157075079Y-78947330D01*
X157089329Y-78928117D01*
X157105393Y-78910393D01*
X157123117Y-78894329D01*
X157142330Y-78880079D01*
X157162847Y-78867782D01*
X157184471Y-78857554D01*
X157206993Y-78849496D01*
X157230197Y-78843684D01*
X157253858Y-78840174D01*
X157277750Y-78839000D01*
X158190250Y-78839000D01*
X158214142Y-78840174D01*
X158214142Y-78840174D01*
G37*
D18*
X157734000Y-79326500D03*
D10*
G36*
X162024142Y-78840174D02*
X162047803Y-78843684D01*
X162071007Y-78849496D01*
X162093529Y-78857554D01*
X162115153Y-78867782D01*
X162135670Y-78880079D01*
X162154883Y-78894329D01*
X162172607Y-78910393D01*
X162188671Y-78928117D01*
X162202921Y-78947330D01*
X162215218Y-78967847D01*
X162225446Y-78989471D01*
X162233504Y-79011993D01*
X162239316Y-79035197D01*
X162242826Y-79058858D01*
X162244000Y-79082750D01*
X162244000Y-79570250D01*
X162242826Y-79594142D01*
X162239316Y-79617803D01*
X162233504Y-79641007D01*
X162225446Y-79663529D01*
X162215218Y-79685153D01*
X162202921Y-79705670D01*
X162188671Y-79724883D01*
X162172607Y-79742607D01*
X162154883Y-79758671D01*
X162135670Y-79772921D01*
X162115153Y-79785218D01*
X162093529Y-79795446D01*
X162071007Y-79803504D01*
X162047803Y-79809316D01*
X162024142Y-79812826D01*
X162000250Y-79814000D01*
X161087750Y-79814000D01*
X161063858Y-79812826D01*
X161040197Y-79809316D01*
X161016993Y-79803504D01*
X160994471Y-79795446D01*
X160972847Y-79785218D01*
X160952330Y-79772921D01*
X160933117Y-79758671D01*
X160915393Y-79742607D01*
X160899329Y-79724883D01*
X160885079Y-79705670D01*
X160872782Y-79685153D01*
X160862554Y-79663529D01*
X160854496Y-79641007D01*
X160848684Y-79617803D01*
X160845174Y-79594142D01*
X160844000Y-79570250D01*
X160844000Y-79082750D01*
X160845174Y-79058858D01*
X160848684Y-79035197D01*
X160854496Y-79011993D01*
X160862554Y-78989471D01*
X160872782Y-78967847D01*
X160885079Y-78947330D01*
X160899329Y-78928117D01*
X160915393Y-78910393D01*
X160933117Y-78894329D01*
X160952330Y-78880079D01*
X160972847Y-78867782D01*
X160994471Y-78857554D01*
X161016993Y-78849496D01*
X161040197Y-78843684D01*
X161063858Y-78840174D01*
X161087750Y-78839000D01*
X162000250Y-78839000D01*
X162024142Y-78840174D01*
X162024142Y-78840174D01*
G37*
D18*
X161544000Y-79326500D03*
D10*
G36*
X162024142Y-80715174D02*
X162047803Y-80718684D01*
X162071007Y-80724496D01*
X162093529Y-80732554D01*
X162115153Y-80742782D01*
X162135670Y-80755079D01*
X162154883Y-80769329D01*
X162172607Y-80785393D01*
X162188671Y-80803117D01*
X162202921Y-80822330D01*
X162215218Y-80842847D01*
X162225446Y-80864471D01*
X162233504Y-80886993D01*
X162239316Y-80910197D01*
X162242826Y-80933858D01*
X162244000Y-80957750D01*
X162244000Y-81445250D01*
X162242826Y-81469142D01*
X162239316Y-81492803D01*
X162233504Y-81516007D01*
X162225446Y-81538529D01*
X162215218Y-81560153D01*
X162202921Y-81580670D01*
X162188671Y-81599883D01*
X162172607Y-81617607D01*
X162154883Y-81633671D01*
X162135670Y-81647921D01*
X162115153Y-81660218D01*
X162093529Y-81670446D01*
X162071007Y-81678504D01*
X162047803Y-81684316D01*
X162024142Y-81687826D01*
X162000250Y-81689000D01*
X161087750Y-81689000D01*
X161063858Y-81687826D01*
X161040197Y-81684316D01*
X161016993Y-81678504D01*
X160994471Y-81670446D01*
X160972847Y-81660218D01*
X160952330Y-81647921D01*
X160933117Y-81633671D01*
X160915393Y-81617607D01*
X160899329Y-81599883D01*
X160885079Y-81580670D01*
X160872782Y-81560153D01*
X160862554Y-81538529D01*
X160854496Y-81516007D01*
X160848684Y-81492803D01*
X160845174Y-81469142D01*
X160844000Y-81445250D01*
X160844000Y-80957750D01*
X160845174Y-80933858D01*
X160848684Y-80910197D01*
X160854496Y-80886993D01*
X160862554Y-80864471D01*
X160872782Y-80842847D01*
X160885079Y-80822330D01*
X160899329Y-80803117D01*
X160915393Y-80785393D01*
X160933117Y-80769329D01*
X160952330Y-80755079D01*
X160972847Y-80742782D01*
X160994471Y-80732554D01*
X161016993Y-80724496D01*
X161040197Y-80718684D01*
X161063858Y-80715174D01*
X161087750Y-80714000D01*
X162000250Y-80714000D01*
X162024142Y-80715174D01*
X162024142Y-80715174D01*
G37*
D18*
X161544000Y-81201500D03*
D10*
G36*
X138873142Y-81343174D02*
X138896803Y-81346684D01*
X138920007Y-81352496D01*
X138942529Y-81360554D01*
X138964153Y-81370782D01*
X138984670Y-81383079D01*
X139003883Y-81397329D01*
X139021607Y-81413393D01*
X139037671Y-81431117D01*
X139051921Y-81450330D01*
X139064218Y-81470847D01*
X139074446Y-81492471D01*
X139082504Y-81514993D01*
X139088316Y-81538197D01*
X139091826Y-81561858D01*
X139093000Y-81585750D01*
X139093000Y-82498250D01*
X139091826Y-82522142D01*
X139088316Y-82545803D01*
X139082504Y-82569007D01*
X139074446Y-82591529D01*
X139064218Y-82613153D01*
X139051921Y-82633670D01*
X139037671Y-82652883D01*
X139021607Y-82670607D01*
X139003883Y-82686671D01*
X138984670Y-82700921D01*
X138964153Y-82713218D01*
X138942529Y-82723446D01*
X138920007Y-82731504D01*
X138896803Y-82737316D01*
X138873142Y-82740826D01*
X138849250Y-82742000D01*
X138361750Y-82742000D01*
X138337858Y-82740826D01*
X138314197Y-82737316D01*
X138290993Y-82731504D01*
X138268471Y-82723446D01*
X138246847Y-82713218D01*
X138226330Y-82700921D01*
X138207117Y-82686671D01*
X138189393Y-82670607D01*
X138173329Y-82652883D01*
X138159079Y-82633670D01*
X138146782Y-82613153D01*
X138136554Y-82591529D01*
X138128496Y-82569007D01*
X138122684Y-82545803D01*
X138119174Y-82522142D01*
X138118000Y-82498250D01*
X138118000Y-81585750D01*
X138119174Y-81561858D01*
X138122684Y-81538197D01*
X138128496Y-81514993D01*
X138136554Y-81492471D01*
X138146782Y-81470847D01*
X138159079Y-81450330D01*
X138173329Y-81431117D01*
X138189393Y-81413393D01*
X138207117Y-81397329D01*
X138226330Y-81383079D01*
X138246847Y-81370782D01*
X138268471Y-81360554D01*
X138290993Y-81352496D01*
X138314197Y-81346684D01*
X138337858Y-81343174D01*
X138361750Y-81342000D01*
X138849250Y-81342000D01*
X138873142Y-81343174D01*
X138873142Y-81343174D01*
G37*
D18*
X138605500Y-82042000D03*
D10*
G36*
X136998142Y-81343174D02*
X137021803Y-81346684D01*
X137045007Y-81352496D01*
X137067529Y-81360554D01*
X137089153Y-81370782D01*
X137109670Y-81383079D01*
X137128883Y-81397329D01*
X137146607Y-81413393D01*
X137162671Y-81431117D01*
X137176921Y-81450330D01*
X137189218Y-81470847D01*
X137199446Y-81492471D01*
X137207504Y-81514993D01*
X137213316Y-81538197D01*
X137216826Y-81561858D01*
X137218000Y-81585750D01*
X137218000Y-82498250D01*
X137216826Y-82522142D01*
X137213316Y-82545803D01*
X137207504Y-82569007D01*
X137199446Y-82591529D01*
X137189218Y-82613153D01*
X137176921Y-82633670D01*
X137162671Y-82652883D01*
X137146607Y-82670607D01*
X137128883Y-82686671D01*
X137109670Y-82700921D01*
X137089153Y-82713218D01*
X137067529Y-82723446D01*
X137045007Y-82731504D01*
X137021803Y-82737316D01*
X136998142Y-82740826D01*
X136974250Y-82742000D01*
X136486750Y-82742000D01*
X136462858Y-82740826D01*
X136439197Y-82737316D01*
X136415993Y-82731504D01*
X136393471Y-82723446D01*
X136371847Y-82713218D01*
X136351330Y-82700921D01*
X136332117Y-82686671D01*
X136314393Y-82670607D01*
X136298329Y-82652883D01*
X136284079Y-82633670D01*
X136271782Y-82613153D01*
X136261554Y-82591529D01*
X136253496Y-82569007D01*
X136247684Y-82545803D01*
X136244174Y-82522142D01*
X136243000Y-82498250D01*
X136243000Y-81585750D01*
X136244174Y-81561858D01*
X136247684Y-81538197D01*
X136253496Y-81514993D01*
X136261554Y-81492471D01*
X136271782Y-81470847D01*
X136284079Y-81450330D01*
X136298329Y-81431117D01*
X136314393Y-81413393D01*
X136332117Y-81397329D01*
X136351330Y-81383079D01*
X136371847Y-81370782D01*
X136393471Y-81360554D01*
X136415993Y-81352496D01*
X136439197Y-81346684D01*
X136462858Y-81343174D01*
X136486750Y-81342000D01*
X136974250Y-81342000D01*
X136998142Y-81343174D01*
X136998142Y-81343174D01*
G37*
D18*
X136730500Y-82042000D03*
D10*
G36*
X148779142Y-81597174D02*
X148802803Y-81600684D01*
X148826007Y-81606496D01*
X148848529Y-81614554D01*
X148870153Y-81624782D01*
X148890670Y-81637079D01*
X148909883Y-81651329D01*
X148927607Y-81667393D01*
X148943671Y-81685117D01*
X148957921Y-81704330D01*
X148970218Y-81724847D01*
X148980446Y-81746471D01*
X148988504Y-81768993D01*
X148994316Y-81792197D01*
X148997826Y-81815858D01*
X148999000Y-81839750D01*
X148999000Y-82752250D01*
X148997826Y-82776142D01*
X148994316Y-82799803D01*
X148988504Y-82823007D01*
X148980446Y-82845529D01*
X148970218Y-82867153D01*
X148957921Y-82887670D01*
X148943671Y-82906883D01*
X148927607Y-82924607D01*
X148909883Y-82940671D01*
X148890670Y-82954921D01*
X148870153Y-82967218D01*
X148848529Y-82977446D01*
X148826007Y-82985504D01*
X148802803Y-82991316D01*
X148779142Y-82994826D01*
X148755250Y-82996000D01*
X148267750Y-82996000D01*
X148243858Y-82994826D01*
X148220197Y-82991316D01*
X148196993Y-82985504D01*
X148174471Y-82977446D01*
X148152847Y-82967218D01*
X148132330Y-82954921D01*
X148113117Y-82940671D01*
X148095393Y-82924607D01*
X148079329Y-82906883D01*
X148065079Y-82887670D01*
X148052782Y-82867153D01*
X148042554Y-82845529D01*
X148034496Y-82823007D01*
X148028684Y-82799803D01*
X148025174Y-82776142D01*
X148024000Y-82752250D01*
X148024000Y-81839750D01*
X148025174Y-81815858D01*
X148028684Y-81792197D01*
X148034496Y-81768993D01*
X148042554Y-81746471D01*
X148052782Y-81724847D01*
X148065079Y-81704330D01*
X148079329Y-81685117D01*
X148095393Y-81667393D01*
X148113117Y-81651329D01*
X148132330Y-81637079D01*
X148152847Y-81624782D01*
X148174471Y-81614554D01*
X148196993Y-81606496D01*
X148220197Y-81600684D01*
X148243858Y-81597174D01*
X148267750Y-81596000D01*
X148755250Y-81596000D01*
X148779142Y-81597174D01*
X148779142Y-81597174D01*
G37*
D18*
X148511500Y-82296000D03*
D10*
G36*
X146904142Y-81597174D02*
X146927803Y-81600684D01*
X146951007Y-81606496D01*
X146973529Y-81614554D01*
X146995153Y-81624782D01*
X147015670Y-81637079D01*
X147034883Y-81651329D01*
X147052607Y-81667393D01*
X147068671Y-81685117D01*
X147082921Y-81704330D01*
X147095218Y-81724847D01*
X147105446Y-81746471D01*
X147113504Y-81768993D01*
X147119316Y-81792197D01*
X147122826Y-81815858D01*
X147124000Y-81839750D01*
X147124000Y-82752250D01*
X147122826Y-82776142D01*
X147119316Y-82799803D01*
X147113504Y-82823007D01*
X147105446Y-82845529D01*
X147095218Y-82867153D01*
X147082921Y-82887670D01*
X147068671Y-82906883D01*
X147052607Y-82924607D01*
X147034883Y-82940671D01*
X147015670Y-82954921D01*
X146995153Y-82967218D01*
X146973529Y-82977446D01*
X146951007Y-82985504D01*
X146927803Y-82991316D01*
X146904142Y-82994826D01*
X146880250Y-82996000D01*
X146392750Y-82996000D01*
X146368858Y-82994826D01*
X146345197Y-82991316D01*
X146321993Y-82985504D01*
X146299471Y-82977446D01*
X146277847Y-82967218D01*
X146257330Y-82954921D01*
X146238117Y-82940671D01*
X146220393Y-82924607D01*
X146204329Y-82906883D01*
X146190079Y-82887670D01*
X146177782Y-82867153D01*
X146167554Y-82845529D01*
X146159496Y-82823007D01*
X146153684Y-82799803D01*
X146150174Y-82776142D01*
X146149000Y-82752250D01*
X146149000Y-81839750D01*
X146150174Y-81815858D01*
X146153684Y-81792197D01*
X146159496Y-81768993D01*
X146167554Y-81746471D01*
X146177782Y-81724847D01*
X146190079Y-81704330D01*
X146204329Y-81685117D01*
X146220393Y-81667393D01*
X146238117Y-81651329D01*
X146257330Y-81637079D01*
X146277847Y-81624782D01*
X146299471Y-81614554D01*
X146321993Y-81606496D01*
X146345197Y-81600684D01*
X146368858Y-81597174D01*
X146392750Y-81596000D01*
X146880250Y-81596000D01*
X146904142Y-81597174D01*
X146904142Y-81597174D01*
G37*
D18*
X146636500Y-82296000D03*
D10*
G36*
X154348642Y-81851174D02*
X154372303Y-81854684D01*
X154395507Y-81860496D01*
X154418029Y-81868554D01*
X154439653Y-81878782D01*
X154460170Y-81891079D01*
X154479383Y-81905329D01*
X154497107Y-81921393D01*
X154513171Y-81939117D01*
X154527421Y-81958330D01*
X154539718Y-81978847D01*
X154549946Y-82000471D01*
X154558004Y-82022993D01*
X154563816Y-82046197D01*
X154567326Y-82069858D01*
X154568500Y-82093750D01*
X154568500Y-83006250D01*
X154567326Y-83030142D01*
X154563816Y-83053803D01*
X154558004Y-83077007D01*
X154549946Y-83099529D01*
X154539718Y-83121153D01*
X154527421Y-83141670D01*
X154513171Y-83160883D01*
X154497107Y-83178607D01*
X154479383Y-83194671D01*
X154460170Y-83208921D01*
X154439653Y-83221218D01*
X154418029Y-83231446D01*
X154395507Y-83239504D01*
X154372303Y-83245316D01*
X154348642Y-83248826D01*
X154324750Y-83250000D01*
X153837250Y-83250000D01*
X153813358Y-83248826D01*
X153789697Y-83245316D01*
X153766493Y-83239504D01*
X153743971Y-83231446D01*
X153722347Y-83221218D01*
X153701830Y-83208921D01*
X153682617Y-83194671D01*
X153664893Y-83178607D01*
X153648829Y-83160883D01*
X153634579Y-83141670D01*
X153622282Y-83121153D01*
X153612054Y-83099529D01*
X153603996Y-83077007D01*
X153598184Y-83053803D01*
X153594674Y-83030142D01*
X153593500Y-83006250D01*
X153593500Y-82093750D01*
X153594674Y-82069858D01*
X153598184Y-82046197D01*
X153603996Y-82022993D01*
X153612054Y-82000471D01*
X153622282Y-81978847D01*
X153634579Y-81958330D01*
X153648829Y-81939117D01*
X153664893Y-81921393D01*
X153682617Y-81905329D01*
X153701830Y-81891079D01*
X153722347Y-81878782D01*
X153743971Y-81868554D01*
X153766493Y-81860496D01*
X153789697Y-81854684D01*
X153813358Y-81851174D01*
X153837250Y-81850000D01*
X154324750Y-81850000D01*
X154348642Y-81851174D01*
X154348642Y-81851174D01*
G37*
D18*
X154081000Y-82550000D03*
D10*
G36*
X156223642Y-81851174D02*
X156247303Y-81854684D01*
X156270507Y-81860496D01*
X156293029Y-81868554D01*
X156314653Y-81878782D01*
X156335170Y-81891079D01*
X156354383Y-81905329D01*
X156372107Y-81921393D01*
X156388171Y-81939117D01*
X156402421Y-81958330D01*
X156414718Y-81978847D01*
X156424946Y-82000471D01*
X156433004Y-82022993D01*
X156438816Y-82046197D01*
X156442326Y-82069858D01*
X156443500Y-82093750D01*
X156443500Y-83006250D01*
X156442326Y-83030142D01*
X156438816Y-83053803D01*
X156433004Y-83077007D01*
X156424946Y-83099529D01*
X156414718Y-83121153D01*
X156402421Y-83141670D01*
X156388171Y-83160883D01*
X156372107Y-83178607D01*
X156354383Y-83194671D01*
X156335170Y-83208921D01*
X156314653Y-83221218D01*
X156293029Y-83231446D01*
X156270507Y-83239504D01*
X156247303Y-83245316D01*
X156223642Y-83248826D01*
X156199750Y-83250000D01*
X155712250Y-83250000D01*
X155688358Y-83248826D01*
X155664697Y-83245316D01*
X155641493Y-83239504D01*
X155618971Y-83231446D01*
X155597347Y-83221218D01*
X155576830Y-83208921D01*
X155557617Y-83194671D01*
X155539893Y-83178607D01*
X155523829Y-83160883D01*
X155509579Y-83141670D01*
X155497282Y-83121153D01*
X155487054Y-83099529D01*
X155478996Y-83077007D01*
X155473184Y-83053803D01*
X155469674Y-83030142D01*
X155468500Y-83006250D01*
X155468500Y-82093750D01*
X155469674Y-82069858D01*
X155473184Y-82046197D01*
X155478996Y-82022993D01*
X155487054Y-82000471D01*
X155497282Y-81978847D01*
X155509579Y-81958330D01*
X155523829Y-81939117D01*
X155539893Y-81921393D01*
X155557617Y-81905329D01*
X155576830Y-81891079D01*
X155597347Y-81878782D01*
X155618971Y-81868554D01*
X155641493Y-81860496D01*
X155664697Y-81854684D01*
X155688358Y-81851174D01*
X155712250Y-81850000D01*
X156199750Y-81850000D01*
X156223642Y-81851174D01*
X156223642Y-81851174D01*
G37*
D18*
X155956000Y-82550000D03*
D10*
G36*
X165289142Y-82105174D02*
X165312803Y-82108684D01*
X165336007Y-82114496D01*
X165358529Y-82122554D01*
X165380153Y-82132782D01*
X165400670Y-82145079D01*
X165419883Y-82159329D01*
X165437607Y-82175393D01*
X165453671Y-82193117D01*
X165467921Y-82212330D01*
X165480218Y-82232847D01*
X165490446Y-82254471D01*
X165498504Y-82276993D01*
X165504316Y-82300197D01*
X165507826Y-82323858D01*
X165509000Y-82347750D01*
X165509000Y-83260250D01*
X165507826Y-83284142D01*
X165504316Y-83307803D01*
X165498504Y-83331007D01*
X165490446Y-83353529D01*
X165480218Y-83375153D01*
X165467921Y-83395670D01*
X165453671Y-83414883D01*
X165437607Y-83432607D01*
X165419883Y-83448671D01*
X165400670Y-83462921D01*
X165380153Y-83475218D01*
X165358529Y-83485446D01*
X165336007Y-83493504D01*
X165312803Y-83499316D01*
X165289142Y-83502826D01*
X165265250Y-83504000D01*
X164777750Y-83504000D01*
X164753858Y-83502826D01*
X164730197Y-83499316D01*
X164706993Y-83493504D01*
X164684471Y-83485446D01*
X164662847Y-83475218D01*
X164642330Y-83462921D01*
X164623117Y-83448671D01*
X164605393Y-83432607D01*
X164589329Y-83414883D01*
X164575079Y-83395670D01*
X164562782Y-83375153D01*
X164552554Y-83353529D01*
X164544496Y-83331007D01*
X164538684Y-83307803D01*
X164535174Y-83284142D01*
X164534000Y-83260250D01*
X164534000Y-82347750D01*
X164535174Y-82323858D01*
X164538684Y-82300197D01*
X164544496Y-82276993D01*
X164552554Y-82254471D01*
X164562782Y-82232847D01*
X164575079Y-82212330D01*
X164589329Y-82193117D01*
X164605393Y-82175393D01*
X164623117Y-82159329D01*
X164642330Y-82145079D01*
X164662847Y-82132782D01*
X164684471Y-82122554D01*
X164706993Y-82114496D01*
X164730197Y-82108684D01*
X164753858Y-82105174D01*
X164777750Y-82104000D01*
X165265250Y-82104000D01*
X165289142Y-82105174D01*
X165289142Y-82105174D01*
G37*
D18*
X165021500Y-82804000D03*
D10*
G36*
X163414142Y-82105174D02*
X163437803Y-82108684D01*
X163461007Y-82114496D01*
X163483529Y-82122554D01*
X163505153Y-82132782D01*
X163525670Y-82145079D01*
X163544883Y-82159329D01*
X163562607Y-82175393D01*
X163578671Y-82193117D01*
X163592921Y-82212330D01*
X163605218Y-82232847D01*
X163615446Y-82254471D01*
X163623504Y-82276993D01*
X163629316Y-82300197D01*
X163632826Y-82323858D01*
X163634000Y-82347750D01*
X163634000Y-83260250D01*
X163632826Y-83284142D01*
X163629316Y-83307803D01*
X163623504Y-83331007D01*
X163615446Y-83353529D01*
X163605218Y-83375153D01*
X163592921Y-83395670D01*
X163578671Y-83414883D01*
X163562607Y-83432607D01*
X163544883Y-83448671D01*
X163525670Y-83462921D01*
X163505153Y-83475218D01*
X163483529Y-83485446D01*
X163461007Y-83493504D01*
X163437803Y-83499316D01*
X163414142Y-83502826D01*
X163390250Y-83504000D01*
X162902750Y-83504000D01*
X162878858Y-83502826D01*
X162855197Y-83499316D01*
X162831993Y-83493504D01*
X162809471Y-83485446D01*
X162787847Y-83475218D01*
X162767330Y-83462921D01*
X162748117Y-83448671D01*
X162730393Y-83432607D01*
X162714329Y-83414883D01*
X162700079Y-83395670D01*
X162687782Y-83375153D01*
X162677554Y-83353529D01*
X162669496Y-83331007D01*
X162663684Y-83307803D01*
X162660174Y-83284142D01*
X162659000Y-83260250D01*
X162659000Y-82347750D01*
X162660174Y-82323858D01*
X162663684Y-82300197D01*
X162669496Y-82276993D01*
X162677554Y-82254471D01*
X162687782Y-82232847D01*
X162700079Y-82212330D01*
X162714329Y-82193117D01*
X162730393Y-82175393D01*
X162748117Y-82159329D01*
X162767330Y-82145079D01*
X162787847Y-82132782D01*
X162809471Y-82122554D01*
X162831993Y-82114496D01*
X162855197Y-82108684D01*
X162878858Y-82105174D01*
X162902750Y-82104000D01*
X163390250Y-82104000D01*
X163414142Y-82105174D01*
X163414142Y-82105174D01*
G37*
D18*
X163146500Y-82804000D03*
D30*
X148335500Y-102616000D03*
D31*
X135255500Y-102616000D03*
X183896000Y-102616000D03*
D30*
X170816000Y-102616000D03*
X170942500Y-89408000D03*
D31*
X184022500Y-89408000D03*
X135382000Y-89408000D03*
D30*
X148462000Y-89408000D03*
D32*
X155194000Y-75066000D03*
X155194000Y-79366000D03*
D33*
X177546000Y-75184000D03*
X177546000Y-77724000D03*
X180086000Y-75184000D03*
X180086000Y-77724000D03*
X182626000Y-75184000D03*
X182626000Y-77724000D03*
D34*
X185166000Y-75184000D03*
D33*
X185166000Y-77724000D03*
D35*
X171958000Y-98552000D03*
X144018000Y-107806000D03*
X173736000Y-107806000D03*
X148336000Y-84836000D03*
X176838001Y-83312000D03*
X185077999Y-87376000D03*
X186182644Y-91188546D03*
X171704000Y-83312000D03*
X171704000Y-74930000D03*
X155823010Y-81280000D03*
X151892000Y-83351002D03*
X142802636Y-81679934D03*
X145172999Y-101346000D03*
X137668000Y-105156000D03*
X157988000Y-100838000D03*
X162005200Y-82850800D03*
X146558000Y-74676000D03*
X168656000Y-96266000D03*
X146050000Y-79502000D03*
X167894000Y-102616000D03*
X150368000Y-106934000D03*
X151384000Y-102783001D03*
X168148000Y-106426000D03*
X137414000Y-96266000D03*
X183134000Y-97282000D03*
X135636000Y-76200000D03*
X134112000Y-81026000D03*
X138938000Y-80301001D03*
X156396000Y-92710000D03*
X180086000Y-91694000D03*
X177546000Y-99822000D03*
X155194000Y-99822000D03*
X178816000Y-90932000D03*
X175198000Y-90932000D03*
X178816000Y-107188000D03*
X154178000Y-107188000D03*
X156718000Y-102108000D03*
X152792999Y-102108000D03*
X173990000Y-92456000D03*
X181356000Y-92456000D03*
X157226000Y-93315000D03*
X182626000Y-87630000D03*
X182626000Y-82804000D03*
X182626000Y-94742000D03*
X152187999Y-95036230D03*
X135636000Y-80772000D03*
X139024999Y-97282000D03*
X137414000Y-97282000D03*
X163068000Y-96266000D03*
X140462000Y-89408000D03*
X140462000Y-96266000D03*
X140462000Y-93980000D03*
X165100000Y-81534000D03*
X174498000Y-81280000D03*
X170688000Y-105918000D03*
X142748000Y-105410000D03*
X145796000Y-84241000D03*
X145796000Y-86196001D03*
X151384000Y-90424000D03*
X161544000Y-87630000D03*
X154178000Y-87630000D03*
X135128000Y-80010000D03*
X145288000Y-75692000D03*
X146912998Y-75692000D03*
X133841363Y-97036577D03*
X133180010Y-86106000D03*
X166878000Y-86106000D03*
X166878000Y-76454000D03*
X157734000Y-82296000D03*
X158496000Y-86106000D03*
X139700000Y-91440000D03*
X137668000Y-91440000D03*
X134874000Y-105410000D03*
X147320000Y-84846000D03*
X154940000Y-91948000D03*
X145288000Y-106041001D03*
X167132000Y-106041001D03*
X166878000Y-91948000D03*
X168402000Y-88900000D03*
X151551000Y-89191193D03*
X151638000Y-91948000D03*
X141899000Y-92202000D03*
X154940000Y-90424000D03*
X166878000Y-90424000D03*
X154940000Y-88235000D03*
X163576000Y-88138000D03*
X167553000Y-85441000D03*
X166116000Y-106583000D03*
X151638000Y-107188000D03*
X153477010Y-76200000D03*
X149963002Y-76200000D03*
X157228680Y-85431000D03*
X152146000Y-96941000D03*
X163737000Y-96867042D03*
X162814000Y-84231000D03*
X155746002Y-84231000D03*
X162052000Y-86868000D03*
X154940000Y-86781000D03*
X153416000Y-90678000D03*
X151340262Y-94974222D03*
X150734081Y-95570079D03*
X152609617Y-90946794D03*
X142503002Y-100076000D03*
X139954000Y-100330000D03*
X143764000Y-85090000D03*
X136144000Y-85090000D03*
X133858000Y-87122000D03*
X138176000Y-88138000D03*
X166116000Y-82804000D03*
X141478000Y-102362000D03*
X170180000Y-98552000D03*
X170434000Y-85598000D03*
X174563000Y-88392000D03*
X149808453Y-80020068D03*
X141224000Y-95504000D03*
X141478000Y-83566000D03*
X150368000Y-81651001D03*
X132680000Y-76454000D03*
X132680000Y-106172000D03*
X169164000Y-79248000D03*
X172379000Y-78486000D03*
X144272000Y-76541000D03*
X144526000Y-74006000D03*
D36*
X175503002Y-98552000D02*
X171958000Y-98552000D01*
X184912000Y-95982000D02*
X178073002Y-95982000D01*
X178073002Y-95982000D02*
X175503002Y-98552000D01*
X144018000Y-107806000D02*
X173736000Y-107806000D01*
X175314001Y-84836000D02*
X176838001Y-83312000D01*
X162278608Y-84591010D02*
X162523598Y-84836000D01*
X157173268Y-84591010D02*
X162278608Y-84591010D01*
X162523598Y-84836000D02*
X175314001Y-84836000D01*
X156928278Y-84836000D02*
X157173268Y-84591010D01*
X148336000Y-84836000D02*
X156928278Y-84836000D01*
X186333801Y-88172183D02*
X186333801Y-91037389D01*
X185077999Y-87376000D02*
X185537618Y-87376000D01*
X186333801Y-91037389D02*
X186182644Y-91188546D01*
X185537618Y-87376000D02*
X186333801Y-88172183D01*
D37*
X155194000Y-79816000D02*
X155542010Y-80164010D01*
X155194000Y-79366000D02*
X155194000Y-79816000D01*
X155194000Y-81788000D02*
X155956000Y-82550000D01*
X155194000Y-79366000D02*
X155194000Y-81788000D01*
X156543500Y-82550000D02*
X157655501Y-83662001D01*
X155956000Y-82550000D02*
X156543500Y-82550000D01*
X169250000Y-77724000D02*
X170520000Y-76454000D01*
X163699000Y-77724000D02*
X169250000Y-77724000D01*
X171161990Y-83854010D02*
X171704000Y-83312000D01*
X163146500Y-82804000D02*
X164196510Y-83854010D01*
X164196510Y-83854010D02*
X171161990Y-83854010D01*
X171704000Y-75270000D02*
X170520000Y-76454000D01*
X171704000Y-74930000D02*
X171704000Y-75270000D01*
D36*
X184022399Y-78867601D02*
X184302401Y-78587599D01*
X174784051Y-78867601D02*
X184022399Y-78867601D01*
X184302401Y-78587599D02*
X185166000Y-77724000D01*
X173241160Y-77324710D02*
X174784051Y-78867601D01*
X171390710Y-77324710D02*
X173241160Y-77324710D01*
X170520000Y-76454000D02*
X171390710Y-77324710D01*
D37*
X133174500Y-82538500D02*
X133162000Y-82526000D01*
D36*
X155823010Y-82417010D02*
X155956000Y-82550000D01*
X155823010Y-81280000D02*
X155823010Y-82417010D01*
D37*
X152141008Y-83600010D02*
X151892000Y-83351002D01*
X155956000Y-82550000D02*
X154905990Y-83600010D01*
X154905990Y-83600010D02*
X152141008Y-83600010D01*
D36*
X142343017Y-81679934D02*
X142802636Y-81679934D01*
X142171082Y-81507999D02*
X142343017Y-81679934D01*
X138710001Y-81507999D02*
X142171082Y-81507999D01*
X138605500Y-81612500D02*
X138710001Y-81507999D01*
X138605500Y-82042000D02*
X138605500Y-81612500D01*
X133162000Y-84823500D02*
X133174500Y-84836000D01*
X133162000Y-82526000D02*
X133162000Y-84823500D01*
X136891499Y-83756001D02*
X138605500Y-82042000D01*
X134254499Y-83756001D02*
X136891499Y-83756001D01*
X133174500Y-84836000D02*
X134254499Y-83756001D01*
D37*
X141362999Y-105156000D02*
X137668000Y-105156000D01*
X145172999Y-101346000D02*
X141362999Y-105156000D01*
X157988000Y-100838000D02*
X151638000Y-100838000D01*
X151638000Y-100838000D02*
X150525999Y-99725999D01*
X146075499Y-99725999D02*
X150525999Y-99725999D01*
X145172999Y-100628499D02*
X146075499Y-99725999D01*
X145172999Y-101346000D02*
X145172999Y-100628499D01*
X162288499Y-83662001D02*
X163146500Y-82804000D01*
X157655501Y-83662001D02*
X162288499Y-83662001D01*
X163099700Y-82850800D02*
X163146500Y-82804000D01*
X162005200Y-82850800D02*
X163099700Y-82850800D01*
D36*
X185166000Y-74160400D02*
X185166000Y-75184000D01*
X185045999Y-74040399D02*
X185166000Y-74160400D01*
X176433601Y-74040399D02*
X185045999Y-74040399D01*
X174920000Y-75554000D02*
X176433601Y-74040399D01*
X174920000Y-76454000D02*
X174920000Y-75554000D01*
D37*
X142124000Y-79502000D02*
X142138000Y-79516000D01*
X139875500Y-79502000D02*
X142124000Y-79502000D01*
X151638000Y-74750000D02*
X146632000Y-74750000D01*
X146632000Y-74750000D02*
X146558000Y-74676000D01*
X142152000Y-79502000D02*
X142138000Y-79516000D01*
X174260000Y-96266000D02*
X168656000Y-96266000D01*
X146050000Y-79502000D02*
X142152000Y-79502000D01*
X167726999Y-102783001D02*
X167894000Y-102616000D01*
X148335500Y-102616000D02*
X150615500Y-102616000D01*
X150615500Y-102616000D02*
X150782501Y-102783001D01*
X138103500Y-106934000D02*
X150368000Y-106934000D01*
X135255500Y-102616000D02*
X135255500Y-104086000D01*
X135255500Y-104086000D02*
X138103500Y-106934000D01*
X150782501Y-102783001D02*
X151384000Y-102783001D01*
X151384000Y-102783001D02*
X167726999Y-102783001D01*
X168479990Y-106757990D02*
X168148000Y-106426000D01*
X178247008Y-106757990D02*
X168479990Y-106757990D01*
X178491999Y-106512999D02*
X178247008Y-106757990D01*
X184770000Y-107188000D02*
X184094999Y-106512999D01*
X184094999Y-106512999D02*
X178491999Y-106512999D01*
X135636000Y-98044000D02*
X135049500Y-98044000D01*
X137414000Y-96266000D02*
X135636000Y-98044000D01*
D36*
X183134000Y-97282000D02*
X184912000Y-97282000D01*
X161544000Y-81374000D02*
X161544000Y-81201500D01*
X160368000Y-82550000D02*
X161544000Y-81374000D01*
D37*
X139875500Y-79502000D02*
X139700000Y-79502000D01*
X139700000Y-79502000D02*
X138938000Y-80264000D01*
X134112000Y-79526000D02*
X134112000Y-81026000D01*
D36*
X138900999Y-80264000D02*
X138938000Y-80301001D01*
X138679210Y-80264000D02*
X138900999Y-80264000D01*
X136588386Y-80482010D02*
X138461200Y-80482010D01*
X135511375Y-79404999D02*
X136588386Y-80482010D01*
X134793001Y-79404999D02*
X135511375Y-79404999D01*
X138461200Y-80482010D02*
X138679210Y-80264000D01*
X134672000Y-79526000D02*
X134793001Y-79404999D01*
X134112000Y-79526000D02*
X134672000Y-79526000D01*
X152588000Y-79926000D02*
X152588000Y-79726000D01*
X173856598Y-91694000D02*
X180086000Y-91694000D01*
X156396000Y-92710000D02*
X172840598Y-92710000D01*
X172840598Y-92710000D02*
X173856598Y-91694000D01*
X155518999Y-99497001D02*
X155194000Y-99822000D01*
X177546000Y-99822000D02*
X177221001Y-99497001D01*
X177221001Y-99497001D02*
X155518999Y-99497001D01*
X178816000Y-90932000D02*
X175198000Y-90932000D01*
X178816000Y-107188000D02*
X154178000Y-107188000D01*
X156718000Y-102108000D02*
X152792999Y-102108000D01*
X173990000Y-92456000D02*
X181356000Y-92456000D01*
X173990000Y-92456000D02*
X173131000Y-93315000D01*
X173131000Y-93315000D02*
X157226000Y-93315000D01*
X182626000Y-82804000D02*
X182626000Y-87630000D01*
X184852000Y-94742000D02*
X184912000Y-94682000D01*
X182626000Y-94742000D02*
X184852000Y-94742000D01*
X182114999Y-94230999D02*
X182626000Y-94742000D01*
X152647618Y-95036230D02*
X153452849Y-94230999D01*
X153452849Y-94230999D02*
X182114999Y-94230999D01*
X152187999Y-95036230D02*
X152647618Y-95036230D01*
D37*
X154038999Y-77690999D02*
X153968999Y-77760999D01*
X153368001Y-80976001D02*
X135840001Y-80976001D01*
X153968999Y-77760999D02*
X153968999Y-80375003D01*
X156419001Y-77760999D02*
X156349001Y-77690999D01*
X156349001Y-77690999D02*
X154038999Y-77690999D01*
X167009000Y-80264000D02*
X156419001Y-80264000D01*
X153968999Y-80375003D02*
X153368001Y-80976001D01*
X156419001Y-80264000D02*
X156419001Y-77760999D01*
X135840001Y-80976001D02*
X135636000Y-80772000D01*
X139024999Y-97282000D02*
X137414000Y-97282000D01*
X163068000Y-96266000D02*
X144900000Y-96266000D01*
X135382000Y-89408000D02*
X140462000Y-89408000D01*
X140462000Y-89408000D02*
X148462000Y-89408000D01*
X140462000Y-96266000D02*
X144900000Y-96266000D01*
X133858000Y-93896000D02*
X140378000Y-93896000D01*
X140378000Y-93896000D02*
X140462000Y-93980000D01*
X170816000Y-102616000D02*
X183896000Y-102616000D01*
X170942500Y-89408000D02*
X184022500Y-89408000D01*
X183896000Y-101146000D02*
X183896000Y-102616000D01*
X186012010Y-99029990D02*
X183896000Y-101146000D01*
X186012010Y-92867510D02*
X186012010Y-99029990D01*
X184022500Y-90878000D02*
X186012010Y-92867510D01*
X184022500Y-89408000D02*
X184022500Y-90878000D01*
X184706000Y-102616000D02*
X183896000Y-102616000D01*
X186176000Y-104086000D02*
X184706000Y-102616000D01*
X186176000Y-104684000D02*
X186176000Y-104086000D01*
X186070000Y-104790000D02*
X186176000Y-104684000D01*
X186070000Y-107188000D02*
X186070000Y-104790000D01*
D36*
X171422000Y-82240000D02*
X171422000Y-81280000D01*
X170858000Y-82804000D02*
X171422000Y-82240000D01*
X169085500Y-82804000D02*
X170858000Y-82804000D01*
X168105490Y-81823990D02*
X169085500Y-82804000D01*
X166001510Y-81823990D02*
X168105490Y-81823990D01*
X165021500Y-82804000D02*
X166001510Y-81823990D01*
X165021500Y-82804000D02*
X165021500Y-81612500D01*
X165021500Y-81612500D02*
X165100000Y-81534000D01*
X171422000Y-81280000D02*
X174498000Y-81280000D01*
X142774001Y-105436001D02*
X142748000Y-105410000D01*
X170688000Y-105918000D02*
X170206001Y-105436001D01*
X170206001Y-105436001D02*
X142774001Y-105436001D01*
X153657000Y-82126000D02*
X154081000Y-82550000D01*
X151638000Y-82126000D02*
X153657000Y-82126000D01*
X145796000Y-84241000D02*
X148007210Y-84241000D01*
X148007210Y-84241000D02*
X149347209Y-82901001D01*
X149347209Y-82901001D02*
X150202999Y-82901001D01*
X150202999Y-82901001D02*
X150978000Y-82126000D01*
X150978000Y-82126000D02*
X151638000Y-82126000D01*
X151384000Y-90424000D02*
X151384000Y-89964381D01*
X151384000Y-89964381D02*
X150945999Y-89526380D01*
X145796000Y-86196001D02*
X150712001Y-86196001D01*
X150945999Y-86429999D02*
X150945999Y-89526380D01*
X150712001Y-86196001D02*
X150945999Y-86429999D01*
X161544000Y-87630000D02*
X154178000Y-87630000D01*
X136246500Y-82526000D02*
X136730500Y-82042000D01*
X135062000Y-82526000D02*
X136246500Y-82526000D01*
X135030999Y-80107001D02*
X135128000Y-80010000D01*
X135030999Y-81384999D02*
X135030999Y-80107001D01*
X135062000Y-82526000D02*
X135062000Y-81416000D01*
X135062000Y-81416000D02*
X135030999Y-81384999D01*
X145288000Y-75692000D02*
X146912998Y-75692000D01*
D37*
X132908000Y-97777500D02*
X133174500Y-98044000D01*
X133174500Y-96362500D02*
X132908000Y-96096000D01*
X133174500Y-98044000D02*
X133174500Y-96362500D01*
X133841363Y-97377137D02*
X133174500Y-98044000D01*
X133841363Y-97036577D02*
X133841363Y-97377137D01*
X166878000Y-75315000D02*
X167009000Y-75184000D01*
X166878000Y-76454000D02*
X166878000Y-75315000D01*
D36*
X157734000Y-81201500D02*
X157734000Y-82296000D01*
D37*
X158496000Y-86106000D02*
X166878000Y-86106000D01*
X155525990Y-86106000D02*
X154930991Y-85511001D01*
X158496000Y-86106000D02*
X155525990Y-86106000D01*
X154930991Y-85511001D02*
X147654001Y-85511001D01*
X144626002Y-86106000D02*
X133180010Y-86106000D01*
X147644001Y-85521001D02*
X145211001Y-85521001D01*
X145211001Y-85521001D02*
X144626002Y-86106000D01*
X147654001Y-85511001D02*
X147644001Y-85521001D01*
X139700000Y-91440000D02*
X137668000Y-91440000D01*
X134874000Y-106822000D02*
X134508000Y-107188000D01*
X134874000Y-105410000D02*
X134874000Y-106822000D01*
D36*
X145505598Y-84846000D02*
X147320000Y-84846000D01*
X144830599Y-84171001D02*
X145505598Y-84846000D01*
X140911371Y-84171001D02*
X144830599Y-84171001D01*
X140368000Y-82550000D02*
X140368000Y-83627630D01*
X140368000Y-83627630D02*
X140911371Y-84171001D01*
X154940000Y-91948000D02*
X166878000Y-91948000D01*
X167068998Y-105977999D02*
X167132000Y-106041001D01*
X145810621Y-105977999D02*
X167068998Y-105977999D01*
X145288000Y-106041001D02*
X145747619Y-106041001D01*
X145747619Y-106041001D02*
X145810621Y-105977999D01*
X168110807Y-89191193D02*
X168402000Y-88900000D01*
X151551000Y-89191193D02*
X168110807Y-89191193D01*
X151638000Y-91948000D02*
X151313001Y-92272999D01*
X151313001Y-92272999D02*
X141969999Y-92272999D01*
X141969999Y-92272999D02*
X141899000Y-92202000D01*
X154940000Y-90424000D02*
X166878000Y-90424000D01*
X154940000Y-88235000D02*
X163479000Y-88235000D01*
X163479000Y-88235000D02*
X163576000Y-88138000D01*
X167456000Y-85344000D02*
X167553000Y-85441000D01*
X166116000Y-106583000D02*
X153319000Y-106583000D01*
X153038999Y-106863001D02*
X153319000Y-106583000D01*
X151962999Y-106863001D02*
X153038999Y-106863001D01*
X151638000Y-107188000D02*
X151962999Y-106863001D01*
X149963002Y-76200000D02*
X153477010Y-76200000D01*
X167543000Y-85431000D02*
X167553000Y-85441000D01*
X157228680Y-85431000D02*
X167543000Y-85431000D01*
X152146000Y-96941000D02*
X163663042Y-96941000D01*
X163663042Y-96941000D02*
X163737000Y-96867042D01*
X162814000Y-84231000D02*
X155746002Y-84231000D01*
X162052000Y-86868000D02*
X155027000Y-86868000D01*
X155027000Y-86868000D02*
X154940000Y-86781000D01*
X151340262Y-94785738D02*
X151340262Y-94974222D01*
X153416000Y-90678000D02*
X153416000Y-92710000D01*
X153416000Y-92710000D02*
X151340262Y-94785738D01*
X150734081Y-95570079D02*
X150734081Y-93747321D01*
X150734081Y-93747321D02*
X152546000Y-91935402D01*
X152546000Y-91935402D02*
X152546000Y-90883177D01*
X152546000Y-90883177D02*
X152609617Y-90946794D01*
X142503002Y-100076000D02*
X140208000Y-100076000D01*
X140208000Y-100076000D02*
X139954000Y-100330000D01*
X143764000Y-85090000D02*
X136144000Y-85090000D01*
X137758290Y-87720290D02*
X138176000Y-88138000D01*
X133858000Y-87122000D02*
X134456290Y-87720290D01*
X134456290Y-87720290D02*
X137758290Y-87720290D01*
X133498000Y-74708500D02*
X139898000Y-74708500D01*
X139138000Y-74708500D02*
X139898000Y-74708500D01*
X138898000Y-74948500D02*
X139138000Y-74708500D01*
X138898000Y-77408500D02*
X138898000Y-74948500D01*
X167210500Y-82804000D02*
X166116000Y-82804000D01*
X141478000Y-102362000D02*
X145288000Y-98552000D01*
X145288000Y-98552000D02*
X170180000Y-98552000D01*
X174563000Y-88004498D02*
X174563000Y-88392000D01*
X170434000Y-85598000D02*
X172156502Y-85598000D01*
X172156502Y-85598000D02*
X174563000Y-88004498D01*
D37*
X151638000Y-77650000D02*
X151564000Y-77650000D01*
X148438000Y-77216000D02*
X148438000Y-76316000D01*
X154878000Y-74750000D02*
X155194000Y-75066000D01*
X142138000Y-77216000D02*
X148438000Y-77216000D01*
D36*
X150248000Y-79926000D02*
X150688000Y-79926000D01*
X148438000Y-77216000D02*
X148438000Y-78116000D01*
X150604000Y-80010000D02*
X150688000Y-79926000D01*
X150593932Y-80020068D02*
X150688000Y-79926000D01*
X149808453Y-80020068D02*
X150593932Y-80020068D01*
X148438000Y-77476000D02*
X148438000Y-77216000D01*
X150688000Y-79926000D02*
X150688000Y-79726000D01*
D37*
X151204000Y-77216000D02*
X151638000Y-77650000D01*
X148438000Y-77216000D02*
X151204000Y-77216000D01*
X153060000Y-77650000D02*
X151638000Y-77650000D01*
X155194000Y-75516000D02*
X153060000Y-77650000D01*
X155194000Y-75066000D02*
X155194000Y-75516000D01*
X150688000Y-78600000D02*
X151638000Y-77650000D01*
X150688000Y-79926000D02*
X150688000Y-78600000D01*
X136200000Y-95504000D02*
X141224000Y-95504000D01*
X134808000Y-96096000D02*
X135608000Y-96096000D01*
X135608000Y-96096000D02*
X136200000Y-95504000D01*
X147241500Y-83566000D02*
X141478000Y-83566000D01*
X148511500Y-82296000D02*
X147241500Y-83566000D01*
X149723001Y-82296000D02*
X150368000Y-81651001D01*
X148511500Y-82296000D02*
X149723001Y-82296000D01*
X136216500Y-79502000D02*
X138000500Y-79502000D01*
X135098000Y-78383500D02*
X136216500Y-79502000D01*
X135098000Y-77408500D02*
X135098000Y-78383500D01*
X141888000Y-74916000D02*
X142138000Y-74916000D01*
X140787999Y-76016001D02*
X141888000Y-74916000D01*
X140787999Y-77109503D02*
X140787999Y-76016001D01*
X139414001Y-78483501D02*
X140787999Y-77109503D01*
X139018999Y-78483501D02*
X139414001Y-78483501D01*
X138000500Y-79502000D02*
X139018999Y-78483501D01*
X135098000Y-76933500D02*
X135098000Y-77408500D01*
X134293501Y-76129001D02*
X135098000Y-76933500D01*
X133004999Y-76129001D02*
X134293501Y-76129001D01*
X132680000Y-76454000D02*
X133004999Y-76129001D01*
X133208000Y-107188000D02*
X133208000Y-106700000D01*
X133208000Y-106700000D02*
X132680000Y-106172000D01*
D36*
X161544000Y-79326500D02*
X169085500Y-79326500D01*
X169085500Y-79326500D02*
X169164000Y-79248000D01*
X160103290Y-79326500D02*
X157734000Y-79326500D01*
X160925789Y-78504001D02*
X160103290Y-79326500D01*
X165178001Y-78504001D02*
X160925789Y-78504001D01*
X172379000Y-78486000D02*
X165196002Y-78486000D01*
X165196002Y-78486000D02*
X165178001Y-78504001D01*
X144272000Y-74260000D02*
X144526000Y-74006000D01*
X144272000Y-76541000D02*
X144272000Y-74260000D01*
D38*
G36*
X181610123Y-103786000D02*
X181633407Y-103903054D01*
X181699712Y-104002288D01*
X181798946Y-104068593D01*
X181916000Y-104091877D01*
X185545481Y-104091877D01*
X185726001Y-104272397D01*
X185726000Y-104494855D01*
X185720463Y-104503142D01*
X185646110Y-104614419D01*
X185611184Y-104790000D01*
X185620001Y-104834325D01*
X185620000Y-106060897D01*
X185468212Y-105959475D01*
X185270000Y-105920048D01*
X184770000Y-105920048D01*
X184757894Y-105922456D01*
X184720991Y-105922456D01*
X184619944Y-105932408D01*
X184523811Y-105951530D01*
X184426649Y-105981004D01*
X184336093Y-106018513D01*
X184246543Y-106066378D01*
X184165044Y-106120834D01*
X184086556Y-106185248D01*
X184017248Y-106254556D01*
X183952834Y-106333044D01*
X183898378Y-106414543D01*
X183850513Y-106504093D01*
X183813004Y-106594649D01*
X183783530Y-106691811D01*
X183764408Y-106787944D01*
X183754456Y-106888991D01*
X183754456Y-106925894D01*
X183752048Y-106938000D01*
X183752048Y-107438000D01*
X183754456Y-107450106D01*
X183754456Y-107487009D01*
X183764408Y-107588056D01*
X183783530Y-107684189D01*
X183813004Y-107781351D01*
X183850513Y-107871907D01*
X183898378Y-107961457D01*
X183944845Y-108031000D01*
X174319297Y-108031000D01*
X174361000Y-107930320D01*
X174361000Y-107681680D01*
X174313912Y-107568000D01*
X178312117Y-107568000D01*
X178461966Y-107717849D01*
X178691680Y-107813000D01*
X178940320Y-107813000D01*
X179170034Y-107717849D01*
X179345849Y-107542034D01*
X179441000Y-107312320D01*
X179441000Y-107063680D01*
X179345849Y-106833966D01*
X179170034Y-106658151D01*
X178940320Y-106563000D01*
X178691680Y-106563000D01*
X178461966Y-106658151D01*
X178312117Y-106808000D01*
X166699297Y-106808000D01*
X166741000Y-106707320D01*
X166741000Y-106533884D01*
X166777966Y-106570850D01*
X167007680Y-106666001D01*
X167256320Y-106666001D01*
X167486034Y-106570850D01*
X167661849Y-106395035D01*
X167757000Y-106165321D01*
X167757000Y-105916681D01*
X167715297Y-105816001D01*
X170048601Y-105816001D01*
X170063000Y-105830400D01*
X170063000Y-106042320D01*
X170158151Y-106272034D01*
X170333966Y-106447849D01*
X170563680Y-106543000D01*
X170812320Y-106543000D01*
X171042034Y-106447849D01*
X171217849Y-106272034D01*
X171313000Y-106042320D01*
X171313000Y-105793680D01*
X171217849Y-105563966D01*
X171115760Y-105461877D01*
X172796000Y-105461877D01*
X172913054Y-105438593D01*
X173012288Y-105372288D01*
X173078593Y-105273054D01*
X173101877Y-105156000D01*
X173101877Y-103066000D01*
X181610123Y-103066000D01*
X181610123Y-103786000D01*
X181610123Y-103786000D01*
G37*
X181610123Y-103786000D02*
X181633407Y-103903054D01*
X181699712Y-104002288D01*
X181798946Y-104068593D01*
X181916000Y-104091877D01*
X185545481Y-104091877D01*
X185726001Y-104272397D01*
X185726000Y-104494855D01*
X185720463Y-104503142D01*
X185646110Y-104614419D01*
X185611184Y-104790000D01*
X185620001Y-104834325D01*
X185620000Y-106060897D01*
X185468212Y-105959475D01*
X185270000Y-105920048D01*
X184770000Y-105920048D01*
X184757894Y-105922456D01*
X184720991Y-105922456D01*
X184619944Y-105932408D01*
X184523811Y-105951530D01*
X184426649Y-105981004D01*
X184336093Y-106018513D01*
X184246543Y-106066378D01*
X184165044Y-106120834D01*
X184086556Y-106185248D01*
X184017248Y-106254556D01*
X183952834Y-106333044D01*
X183898378Y-106414543D01*
X183850513Y-106504093D01*
X183813004Y-106594649D01*
X183783530Y-106691811D01*
X183764408Y-106787944D01*
X183754456Y-106888991D01*
X183754456Y-106925894D01*
X183752048Y-106938000D01*
X183752048Y-107438000D01*
X183754456Y-107450106D01*
X183754456Y-107487009D01*
X183764408Y-107588056D01*
X183783530Y-107684189D01*
X183813004Y-107781351D01*
X183850513Y-107871907D01*
X183898378Y-107961457D01*
X183944845Y-108031000D01*
X174319297Y-108031000D01*
X174361000Y-107930320D01*
X174361000Y-107681680D01*
X174313912Y-107568000D01*
X178312117Y-107568000D01*
X178461966Y-107717849D01*
X178691680Y-107813000D01*
X178940320Y-107813000D01*
X179170034Y-107717849D01*
X179345849Y-107542034D01*
X179441000Y-107312320D01*
X179441000Y-107063680D01*
X179345849Y-106833966D01*
X179170034Y-106658151D01*
X178940320Y-106563000D01*
X178691680Y-106563000D01*
X178461966Y-106658151D01*
X178312117Y-106808000D01*
X166699297Y-106808000D01*
X166741000Y-106707320D01*
X166741000Y-106533884D01*
X166777966Y-106570850D01*
X167007680Y-106666001D01*
X167256320Y-106666001D01*
X167486034Y-106570850D01*
X167661849Y-106395035D01*
X167757000Y-106165321D01*
X167757000Y-105916681D01*
X167715297Y-105816001D01*
X170048601Y-105816001D01*
X170063000Y-105830400D01*
X170063000Y-106042320D01*
X170158151Y-106272034D01*
X170333966Y-106447849D01*
X170563680Y-106543000D01*
X170812320Y-106543000D01*
X171042034Y-106447849D01*
X171217849Y-106272034D01*
X171313000Y-106042320D01*
X171313000Y-105793680D01*
X171217849Y-105563966D01*
X171115760Y-105461877D01*
X172796000Y-105461877D01*
X172913054Y-105438593D01*
X173012288Y-105372288D01*
X173078593Y-105273054D01*
X173101877Y-105156000D01*
X173101877Y-103066000D01*
X181610123Y-103066000D01*
X181610123Y-103786000D01*
G36*
X139837000Y-96141680D02*
X139837000Y-96390320D01*
X139932151Y-96620034D01*
X140107966Y-96795849D01*
X140337680Y-96891000D01*
X140586320Y-96891000D01*
X140816034Y-96795849D01*
X140895883Y-96716000D01*
X143324123Y-96716000D01*
X143324123Y-98021000D01*
X143347407Y-98138054D01*
X143413712Y-98237288D01*
X143512946Y-98303593D01*
X143630000Y-98326877D01*
X144975722Y-98326877D01*
X143128002Y-100174597D01*
X143128002Y-99951680D01*
X143032851Y-99721966D01*
X142857036Y-99546151D01*
X142627322Y-99451000D01*
X142378682Y-99451000D01*
X142148968Y-99546151D01*
X141999119Y-99696000D01*
X140245418Y-99696000D01*
X140207999Y-99688557D01*
X140170580Y-99696000D01*
X140170576Y-99696000D01*
X140093571Y-99711317D01*
X140078320Y-99705000D01*
X139829680Y-99705000D01*
X139599966Y-99800151D01*
X139424151Y-99975966D01*
X139329000Y-100205680D01*
X139329000Y-100454320D01*
X139424151Y-100684034D01*
X139599966Y-100859849D01*
X139829680Y-100955000D01*
X140078320Y-100955000D01*
X140308034Y-100859849D01*
X140483849Y-100684034D01*
X140578304Y-100456000D01*
X141999119Y-100456000D01*
X142148968Y-100605849D01*
X142378682Y-100701000D01*
X142601600Y-100701000D01*
X141565600Y-101737000D01*
X141353680Y-101737000D01*
X141123966Y-101832151D01*
X140948151Y-102007966D01*
X140853000Y-102237680D01*
X140853000Y-102486320D01*
X140948151Y-102716034D01*
X141123966Y-102891849D01*
X141353680Y-102987000D01*
X141602320Y-102987000D01*
X141832034Y-102891849D01*
X142007849Y-102716034D01*
X142103000Y-102486320D01*
X142103000Y-102274400D01*
X145445401Y-98932000D01*
X169676117Y-98932000D01*
X169825966Y-99081849D01*
X169910830Y-99117001D01*
X155556418Y-99117001D01*
X155518999Y-99109558D01*
X155481580Y-99117001D01*
X155481575Y-99117001D01*
X155370731Y-99139049D01*
X155284002Y-99197000D01*
X155069680Y-99197000D01*
X154839966Y-99292151D01*
X154664151Y-99467966D01*
X154569000Y-99697680D01*
X154569000Y-99946320D01*
X154664151Y-100176034D01*
X154839966Y-100351849D01*
X154927242Y-100388000D01*
X151824396Y-100388000D01*
X150875539Y-99439144D01*
X150850431Y-99401567D01*
X150701580Y-99302108D01*
X150570320Y-99275999D01*
X150570319Y-99275999D01*
X150525999Y-99267183D01*
X150481679Y-99275999D01*
X146119819Y-99275999D01*
X146075499Y-99267183D01*
X146031179Y-99275999D01*
X146031178Y-99275999D01*
X145899918Y-99302108D01*
X145751067Y-99401567D01*
X145725960Y-99439142D01*
X144886142Y-100278961D01*
X144848568Y-100304067D01*
X144823462Y-100341641D01*
X144749109Y-100452918D01*
X144714183Y-100628499D01*
X144723000Y-100672824D01*
X144723000Y-100912116D01*
X144643150Y-100991966D01*
X144547999Y-101221680D01*
X144547999Y-101334604D01*
X141176604Y-104706000D01*
X138101883Y-104706000D01*
X138022034Y-104626151D01*
X137792320Y-104531000D01*
X137543680Y-104531000D01*
X137313966Y-104626151D01*
X137138151Y-104801966D01*
X137043000Y-105031680D01*
X137043000Y-105280320D01*
X137138151Y-105510034D01*
X137313966Y-105685849D01*
X137543680Y-105781000D01*
X137792320Y-105781000D01*
X138022034Y-105685849D01*
X138101883Y-105606000D01*
X141318679Y-105606000D01*
X141362999Y-105614816D01*
X141407319Y-105606000D01*
X141407320Y-105606000D01*
X141538580Y-105579891D01*
X141687431Y-105480432D01*
X141712539Y-105442855D01*
X145184395Y-101971000D01*
X145297319Y-101971000D01*
X145527033Y-101875849D01*
X145702848Y-101700034D01*
X145747500Y-101592235D01*
X145747500Y-102310000D01*
X145899500Y-102462000D01*
X148181500Y-102462000D01*
X148181500Y-102442000D01*
X148489500Y-102442000D01*
X148489500Y-102462000D01*
X150771500Y-102462000D01*
X150923500Y-102310000D01*
X150923500Y-101983680D01*
X152167999Y-101983680D01*
X152167999Y-102232320D01*
X152263150Y-102462034D01*
X152438965Y-102637849D01*
X152668679Y-102733000D01*
X152917319Y-102733000D01*
X153147033Y-102637849D01*
X153296882Y-102488000D01*
X156214117Y-102488000D01*
X156363966Y-102637849D01*
X156593680Y-102733000D01*
X156842320Y-102733000D01*
X157072034Y-102637849D01*
X157247849Y-102462034D01*
X157343000Y-102232320D01*
X157343000Y-101983680D01*
X157247849Y-101753966D01*
X157072034Y-101578151D01*
X156842320Y-101483000D01*
X156593680Y-101483000D01*
X156363966Y-101578151D01*
X156214117Y-101728000D01*
X153296882Y-101728000D01*
X153147033Y-101578151D01*
X152917319Y-101483000D01*
X152668679Y-101483000D01*
X152438965Y-101578151D01*
X152263150Y-101753966D01*
X152167999Y-101983680D01*
X150923500Y-101983680D01*
X150923500Y-100759896D01*
X151288462Y-101124857D01*
X151313568Y-101162432D01*
X151462419Y-101261891D01*
X151593679Y-101288000D01*
X151593680Y-101288000D01*
X151638000Y-101296816D01*
X151682320Y-101288000D01*
X157554117Y-101288000D01*
X157633966Y-101367849D01*
X157863680Y-101463000D01*
X158112320Y-101463000D01*
X158342034Y-101367849D01*
X158517849Y-101192034D01*
X158613000Y-100962320D01*
X158613000Y-100713680D01*
X158517849Y-100483966D01*
X158342034Y-100308151D01*
X158112320Y-100213000D01*
X157863680Y-100213000D01*
X157633966Y-100308151D01*
X157554117Y-100388000D01*
X155460758Y-100388000D01*
X155548034Y-100351849D01*
X155723849Y-100176034D01*
X155819000Y-99946320D01*
X155819000Y-99877001D01*
X168608160Y-99877001D01*
X168553407Y-99958946D01*
X168530123Y-100076000D01*
X168530123Y-105056001D01*
X150923500Y-105056001D01*
X150923500Y-102922000D01*
X150771500Y-102770000D01*
X148489500Y-102770000D01*
X148489500Y-102790000D01*
X148181500Y-102790000D01*
X148181500Y-102770000D01*
X145899500Y-102770000D01*
X145747500Y-102922000D01*
X145747500Y-105056001D01*
X143277863Y-105056001D01*
X143277849Y-105055966D01*
X143102034Y-104880151D01*
X142872320Y-104785000D01*
X142623680Y-104785000D01*
X142393966Y-104880151D01*
X142218151Y-105055966D01*
X142123000Y-105285680D01*
X142123000Y-105534320D01*
X142218151Y-105764034D01*
X142393966Y-105939849D01*
X142623680Y-106035000D01*
X142872320Y-106035000D01*
X143102034Y-105939849D01*
X143225882Y-105816001D01*
X144704703Y-105816001D01*
X144663000Y-105916681D01*
X144663000Y-106165321D01*
X144758151Y-106395035D01*
X144933966Y-106570850D01*
X145163680Y-106666001D01*
X145412320Y-106666001D01*
X145642034Y-106570850D01*
X145793581Y-106419303D01*
X145895887Y-106398953D01*
X145957179Y-106357999D01*
X153006600Y-106357999D01*
X152881599Y-106483001D01*
X152000418Y-106483001D01*
X151962999Y-106475558D01*
X151925580Y-106483001D01*
X151925575Y-106483001D01*
X151814731Y-106505049D01*
X151728002Y-106563000D01*
X151513680Y-106563000D01*
X151283966Y-106658151D01*
X151108151Y-106833966D01*
X151013000Y-107063680D01*
X151013000Y-107312320D01*
X151060088Y-107426000D01*
X144521883Y-107426000D01*
X144372034Y-107276151D01*
X144142320Y-107181000D01*
X143893680Y-107181000D01*
X143663966Y-107276151D01*
X143488151Y-107451966D01*
X143393000Y-107681680D01*
X143393000Y-107930320D01*
X143434703Y-108031000D01*
X135051278Y-108031000D01*
X135110793Y-107971485D01*
X135148832Y-107925133D01*
X135203288Y-107843634D01*
X135231555Y-107790751D01*
X135269064Y-107700195D01*
X135286470Y-107642816D01*
X135305592Y-107546683D01*
X135311469Y-107487009D01*
X135311469Y-107450106D01*
X135313877Y-107438000D01*
X135313877Y-106938000D01*
X135311810Y-106927607D01*
X135324000Y-106866321D01*
X135332816Y-106822001D01*
X135324000Y-106777681D01*
X135324000Y-105843883D01*
X135403849Y-105764034D01*
X135499000Y-105534320D01*
X135499000Y-105285680D01*
X135403849Y-105055966D01*
X135228034Y-104880151D01*
X134998320Y-104785000D01*
X134749680Y-104785000D01*
X134519966Y-104880151D01*
X134344151Y-105055966D01*
X134249000Y-105285680D01*
X134249000Y-105534320D01*
X134344151Y-105764034D01*
X134424000Y-105843883D01*
X134424001Y-106132123D01*
X134008000Y-106132123D01*
X133890946Y-106155407D01*
X133858000Y-106177420D01*
X133825054Y-106155407D01*
X133708000Y-106132123D01*
X133305000Y-106132123D01*
X133305000Y-106047680D01*
X133209849Y-105817966D01*
X133034034Y-105642151D01*
X132804320Y-105547000D01*
X132555680Y-105547000D01*
X132455000Y-105588703D01*
X132455000Y-102922000D01*
X132667500Y-102922000D01*
X132667500Y-103906938D01*
X132760062Y-104130404D01*
X132931095Y-104301437D01*
X133154561Y-104394000D01*
X134949500Y-104394000D01*
X135101500Y-104242000D01*
X135101500Y-102770000D01*
X135409500Y-102770000D01*
X135409500Y-104242000D01*
X135561500Y-104394000D01*
X137356439Y-104394000D01*
X137579905Y-104301437D01*
X137750938Y-104130404D01*
X137843500Y-103906938D01*
X137843500Y-102922000D01*
X137691500Y-102770000D01*
X135409500Y-102770000D01*
X135101500Y-102770000D01*
X132819500Y-102770000D01*
X132667500Y-102922000D01*
X132455000Y-102922000D01*
X132455000Y-101325062D01*
X132667500Y-101325062D01*
X132667500Y-102310000D01*
X132819500Y-102462000D01*
X135101500Y-102462000D01*
X135101500Y-100990000D01*
X135409500Y-100990000D01*
X135409500Y-102462000D01*
X137691500Y-102462000D01*
X137843500Y-102310000D01*
X137843500Y-101325062D01*
X137750938Y-101101596D01*
X137579905Y-100930563D01*
X137356439Y-100838000D01*
X135561500Y-100838000D01*
X135409500Y-100990000D01*
X135101500Y-100990000D01*
X134949500Y-100838000D01*
X133154561Y-100838000D01*
X132931095Y-100930563D01*
X132760062Y-101101596D01*
X132667500Y-101325062D01*
X132455000Y-101325062D01*
X132455000Y-98758533D01*
X132542105Y-98888895D01*
X132720417Y-99008039D01*
X132930750Y-99049877D01*
X133418250Y-99049877D01*
X133628583Y-99008039D01*
X133806895Y-98888895D01*
X133926039Y-98710583D01*
X133954000Y-98570014D01*
X133954000Y-98864938D01*
X134046562Y-99088404D01*
X134217595Y-99259437D01*
X134441061Y-99352000D01*
X134743500Y-99352000D01*
X134895500Y-99200000D01*
X134895500Y-98198000D01*
X135203500Y-98198000D01*
X135203500Y-99200000D01*
X135355500Y-99352000D01*
X135657939Y-99352000D01*
X135881405Y-99259437D01*
X136052438Y-99088404D01*
X136145000Y-98864938D01*
X136145000Y-98350000D01*
X135993000Y-98198000D01*
X135203500Y-98198000D01*
X134895500Y-98198000D01*
X134875500Y-98198000D01*
X134875500Y-97890000D01*
X134895500Y-97890000D01*
X134895500Y-97870000D01*
X135203500Y-97870000D01*
X135203500Y-97890000D01*
X135993000Y-97890000D01*
X136145000Y-97738000D01*
X136145000Y-97223062D01*
X136117919Y-97157680D01*
X136789000Y-97157680D01*
X136789000Y-97406320D01*
X136884151Y-97636034D01*
X137059966Y-97811849D01*
X137289680Y-97907000D01*
X137538320Y-97907000D01*
X137768034Y-97811849D01*
X137847883Y-97732000D01*
X138591116Y-97732000D01*
X138670965Y-97811849D01*
X138900679Y-97907000D01*
X139149319Y-97907000D01*
X139379033Y-97811849D01*
X139554848Y-97636034D01*
X139649999Y-97406320D01*
X139649999Y-97157680D01*
X139554848Y-96927966D01*
X139379033Y-96752151D01*
X139149319Y-96657000D01*
X138900679Y-96657000D01*
X138670965Y-96752151D01*
X138591116Y-96832000D01*
X137847883Y-96832000D01*
X137768034Y-96752151D01*
X137538320Y-96657000D01*
X137289680Y-96657000D01*
X137059966Y-96752151D01*
X136884151Y-96927966D01*
X136789000Y-97157680D01*
X136117919Y-97157680D01*
X136052438Y-96999596D01*
X135881405Y-96828563D01*
X135657939Y-96736000D01*
X135613877Y-96736000D01*
X135613877Y-96553647D01*
X135652320Y-96546000D01*
X135652321Y-96546000D01*
X135783581Y-96519891D01*
X135932432Y-96420432D01*
X135957540Y-96382855D01*
X136386396Y-95954000D01*
X139914740Y-95954000D01*
X139837000Y-96141680D01*
X139837000Y-96141680D01*
G37*
X139837000Y-96141680D02*
X139837000Y-96390320D01*
X139932151Y-96620034D01*
X140107966Y-96795849D01*
X140337680Y-96891000D01*
X140586320Y-96891000D01*
X140816034Y-96795849D01*
X140895883Y-96716000D01*
X143324123Y-96716000D01*
X143324123Y-98021000D01*
X143347407Y-98138054D01*
X143413712Y-98237288D01*
X143512946Y-98303593D01*
X143630000Y-98326877D01*
X144975722Y-98326877D01*
X143128002Y-100174597D01*
X143128002Y-99951680D01*
X143032851Y-99721966D01*
X142857036Y-99546151D01*
X142627322Y-99451000D01*
X142378682Y-99451000D01*
X142148968Y-99546151D01*
X141999119Y-99696000D01*
X140245418Y-99696000D01*
X140207999Y-99688557D01*
X140170580Y-99696000D01*
X140170576Y-99696000D01*
X140093571Y-99711317D01*
X140078320Y-99705000D01*
X139829680Y-99705000D01*
X139599966Y-99800151D01*
X139424151Y-99975966D01*
X139329000Y-100205680D01*
X139329000Y-100454320D01*
X139424151Y-100684034D01*
X139599966Y-100859849D01*
X139829680Y-100955000D01*
X140078320Y-100955000D01*
X140308034Y-100859849D01*
X140483849Y-100684034D01*
X140578304Y-100456000D01*
X141999119Y-100456000D01*
X142148968Y-100605849D01*
X142378682Y-100701000D01*
X142601600Y-100701000D01*
X141565600Y-101737000D01*
X141353680Y-101737000D01*
X141123966Y-101832151D01*
X140948151Y-102007966D01*
X140853000Y-102237680D01*
X140853000Y-102486320D01*
X140948151Y-102716034D01*
X141123966Y-102891849D01*
X141353680Y-102987000D01*
X141602320Y-102987000D01*
X141832034Y-102891849D01*
X142007849Y-102716034D01*
X142103000Y-102486320D01*
X142103000Y-102274400D01*
X145445401Y-98932000D01*
X169676117Y-98932000D01*
X169825966Y-99081849D01*
X169910830Y-99117001D01*
X155556418Y-99117001D01*
X155518999Y-99109558D01*
X155481580Y-99117001D01*
X155481575Y-99117001D01*
X155370731Y-99139049D01*
X155284002Y-99197000D01*
X155069680Y-99197000D01*
X154839966Y-99292151D01*
X154664151Y-99467966D01*
X154569000Y-99697680D01*
X154569000Y-99946320D01*
X154664151Y-100176034D01*
X154839966Y-100351849D01*
X154927242Y-100388000D01*
X151824396Y-100388000D01*
X150875539Y-99439144D01*
X150850431Y-99401567D01*
X150701580Y-99302108D01*
X150570320Y-99275999D01*
X150570319Y-99275999D01*
X150525999Y-99267183D01*
X150481679Y-99275999D01*
X146119819Y-99275999D01*
X146075499Y-99267183D01*
X146031179Y-99275999D01*
X146031178Y-99275999D01*
X145899918Y-99302108D01*
X145751067Y-99401567D01*
X145725960Y-99439142D01*
X144886142Y-100278961D01*
X144848568Y-100304067D01*
X144823462Y-100341641D01*
X144749109Y-100452918D01*
X144714183Y-100628499D01*
X144723000Y-100672824D01*
X144723000Y-100912116D01*
X144643150Y-100991966D01*
X144547999Y-101221680D01*
X144547999Y-101334604D01*
X141176604Y-104706000D01*
X138101883Y-104706000D01*
X138022034Y-104626151D01*
X137792320Y-104531000D01*
X137543680Y-104531000D01*
X137313966Y-104626151D01*
X137138151Y-104801966D01*
X137043000Y-105031680D01*
X137043000Y-105280320D01*
X137138151Y-105510034D01*
X137313966Y-105685849D01*
X137543680Y-105781000D01*
X137792320Y-105781000D01*
X138022034Y-105685849D01*
X138101883Y-105606000D01*
X141318679Y-105606000D01*
X141362999Y-105614816D01*
X141407319Y-105606000D01*
X141407320Y-105606000D01*
X141538580Y-105579891D01*
X141687431Y-105480432D01*
X141712539Y-105442855D01*
X145184395Y-101971000D01*
X145297319Y-101971000D01*
X145527033Y-101875849D01*
X145702848Y-101700034D01*
X145747500Y-101592235D01*
X145747500Y-102310000D01*
X145899500Y-102462000D01*
X148181500Y-102462000D01*
X148181500Y-102442000D01*
X148489500Y-102442000D01*
X148489500Y-102462000D01*
X150771500Y-102462000D01*
X150923500Y-102310000D01*
X150923500Y-101983680D01*
X152167999Y-101983680D01*
X152167999Y-102232320D01*
X152263150Y-102462034D01*
X152438965Y-102637849D01*
X152668679Y-102733000D01*
X152917319Y-102733000D01*
X153147033Y-102637849D01*
X153296882Y-102488000D01*
X156214117Y-102488000D01*
X156363966Y-102637849D01*
X156593680Y-102733000D01*
X156842320Y-102733000D01*
X157072034Y-102637849D01*
X157247849Y-102462034D01*
X157343000Y-102232320D01*
X157343000Y-101983680D01*
X157247849Y-101753966D01*
X157072034Y-101578151D01*
X156842320Y-101483000D01*
X156593680Y-101483000D01*
X156363966Y-101578151D01*
X156214117Y-101728000D01*
X153296882Y-101728000D01*
X153147033Y-101578151D01*
X152917319Y-101483000D01*
X152668679Y-101483000D01*
X152438965Y-101578151D01*
X152263150Y-101753966D01*
X152167999Y-101983680D01*
X150923500Y-101983680D01*
X150923500Y-100759896D01*
X151288462Y-101124857D01*
X151313568Y-101162432D01*
X151462419Y-101261891D01*
X151593679Y-101288000D01*
X151593680Y-101288000D01*
X151638000Y-101296816D01*
X151682320Y-101288000D01*
X157554117Y-101288000D01*
X157633966Y-101367849D01*
X157863680Y-101463000D01*
X158112320Y-101463000D01*
X158342034Y-101367849D01*
X158517849Y-101192034D01*
X158613000Y-100962320D01*
X158613000Y-100713680D01*
X158517849Y-100483966D01*
X158342034Y-100308151D01*
X158112320Y-100213000D01*
X157863680Y-100213000D01*
X157633966Y-100308151D01*
X157554117Y-100388000D01*
X155460758Y-100388000D01*
X155548034Y-100351849D01*
X155723849Y-100176034D01*
X155819000Y-99946320D01*
X155819000Y-99877001D01*
X168608160Y-99877001D01*
X168553407Y-99958946D01*
X168530123Y-100076000D01*
X168530123Y-105056001D01*
X150923500Y-105056001D01*
X150923500Y-102922000D01*
X150771500Y-102770000D01*
X148489500Y-102770000D01*
X148489500Y-102790000D01*
X148181500Y-102790000D01*
X148181500Y-102770000D01*
X145899500Y-102770000D01*
X145747500Y-102922000D01*
X145747500Y-105056001D01*
X143277863Y-105056001D01*
X143277849Y-105055966D01*
X143102034Y-104880151D01*
X142872320Y-104785000D01*
X142623680Y-104785000D01*
X142393966Y-104880151D01*
X142218151Y-105055966D01*
X142123000Y-105285680D01*
X142123000Y-105534320D01*
X142218151Y-105764034D01*
X142393966Y-105939849D01*
X142623680Y-106035000D01*
X142872320Y-106035000D01*
X143102034Y-105939849D01*
X143225882Y-105816001D01*
X144704703Y-105816001D01*
X144663000Y-105916681D01*
X144663000Y-106165321D01*
X144758151Y-106395035D01*
X144933966Y-106570850D01*
X145163680Y-106666001D01*
X145412320Y-106666001D01*
X145642034Y-106570850D01*
X145793581Y-106419303D01*
X145895887Y-106398953D01*
X145957179Y-106357999D01*
X153006600Y-106357999D01*
X152881599Y-106483001D01*
X152000418Y-106483001D01*
X151962999Y-106475558D01*
X151925580Y-106483001D01*
X151925575Y-106483001D01*
X151814731Y-106505049D01*
X151728002Y-106563000D01*
X151513680Y-106563000D01*
X151283966Y-106658151D01*
X151108151Y-106833966D01*
X151013000Y-107063680D01*
X151013000Y-107312320D01*
X151060088Y-107426000D01*
X144521883Y-107426000D01*
X144372034Y-107276151D01*
X144142320Y-107181000D01*
X143893680Y-107181000D01*
X143663966Y-107276151D01*
X143488151Y-107451966D01*
X143393000Y-107681680D01*
X143393000Y-107930320D01*
X143434703Y-108031000D01*
X135051278Y-108031000D01*
X135110793Y-107971485D01*
X135148832Y-107925133D01*
X135203288Y-107843634D01*
X135231555Y-107790751D01*
X135269064Y-107700195D01*
X135286470Y-107642816D01*
X135305592Y-107546683D01*
X135311469Y-107487009D01*
X135311469Y-107450106D01*
X135313877Y-107438000D01*
X135313877Y-106938000D01*
X135311810Y-106927607D01*
X135324000Y-106866321D01*
X135332816Y-106822001D01*
X135324000Y-106777681D01*
X135324000Y-105843883D01*
X135403849Y-105764034D01*
X135499000Y-105534320D01*
X135499000Y-105285680D01*
X135403849Y-105055966D01*
X135228034Y-104880151D01*
X134998320Y-104785000D01*
X134749680Y-104785000D01*
X134519966Y-104880151D01*
X134344151Y-105055966D01*
X134249000Y-105285680D01*
X134249000Y-105534320D01*
X134344151Y-105764034D01*
X134424000Y-105843883D01*
X134424001Y-106132123D01*
X134008000Y-106132123D01*
X133890946Y-106155407D01*
X133858000Y-106177420D01*
X133825054Y-106155407D01*
X133708000Y-106132123D01*
X133305000Y-106132123D01*
X133305000Y-106047680D01*
X133209849Y-105817966D01*
X133034034Y-105642151D01*
X132804320Y-105547000D01*
X132555680Y-105547000D01*
X132455000Y-105588703D01*
X132455000Y-102922000D01*
X132667500Y-102922000D01*
X132667500Y-103906938D01*
X132760062Y-104130404D01*
X132931095Y-104301437D01*
X133154561Y-104394000D01*
X134949500Y-104394000D01*
X135101500Y-104242000D01*
X135101500Y-102770000D01*
X135409500Y-102770000D01*
X135409500Y-104242000D01*
X135561500Y-104394000D01*
X137356439Y-104394000D01*
X137579905Y-104301437D01*
X137750938Y-104130404D01*
X137843500Y-103906938D01*
X137843500Y-102922000D01*
X137691500Y-102770000D01*
X135409500Y-102770000D01*
X135101500Y-102770000D01*
X132819500Y-102770000D01*
X132667500Y-102922000D01*
X132455000Y-102922000D01*
X132455000Y-101325062D01*
X132667500Y-101325062D01*
X132667500Y-102310000D01*
X132819500Y-102462000D01*
X135101500Y-102462000D01*
X135101500Y-100990000D01*
X135409500Y-100990000D01*
X135409500Y-102462000D01*
X137691500Y-102462000D01*
X137843500Y-102310000D01*
X137843500Y-101325062D01*
X137750938Y-101101596D01*
X137579905Y-100930563D01*
X137356439Y-100838000D01*
X135561500Y-100838000D01*
X135409500Y-100990000D01*
X135101500Y-100990000D01*
X134949500Y-100838000D01*
X133154561Y-100838000D01*
X132931095Y-100930563D01*
X132760062Y-101101596D01*
X132667500Y-101325062D01*
X132455000Y-101325062D01*
X132455000Y-98758533D01*
X132542105Y-98888895D01*
X132720417Y-99008039D01*
X132930750Y-99049877D01*
X133418250Y-99049877D01*
X133628583Y-99008039D01*
X133806895Y-98888895D01*
X133926039Y-98710583D01*
X133954000Y-98570014D01*
X133954000Y-98864938D01*
X134046562Y-99088404D01*
X134217595Y-99259437D01*
X134441061Y-99352000D01*
X134743500Y-99352000D01*
X134895500Y-99200000D01*
X134895500Y-98198000D01*
X135203500Y-98198000D01*
X135203500Y-99200000D01*
X135355500Y-99352000D01*
X135657939Y-99352000D01*
X135881405Y-99259437D01*
X136052438Y-99088404D01*
X136145000Y-98864938D01*
X136145000Y-98350000D01*
X135993000Y-98198000D01*
X135203500Y-98198000D01*
X134895500Y-98198000D01*
X134875500Y-98198000D01*
X134875500Y-97890000D01*
X134895500Y-97890000D01*
X134895500Y-97870000D01*
X135203500Y-97870000D01*
X135203500Y-97890000D01*
X135993000Y-97890000D01*
X136145000Y-97738000D01*
X136145000Y-97223062D01*
X136117919Y-97157680D01*
X136789000Y-97157680D01*
X136789000Y-97406320D01*
X136884151Y-97636034D01*
X137059966Y-97811849D01*
X137289680Y-97907000D01*
X137538320Y-97907000D01*
X137768034Y-97811849D01*
X137847883Y-97732000D01*
X138591116Y-97732000D01*
X138670965Y-97811849D01*
X138900679Y-97907000D01*
X139149319Y-97907000D01*
X139379033Y-97811849D01*
X139554848Y-97636034D01*
X139649999Y-97406320D01*
X139649999Y-97157680D01*
X139554848Y-96927966D01*
X139379033Y-96752151D01*
X139149319Y-96657000D01*
X138900679Y-96657000D01*
X138670965Y-96752151D01*
X138591116Y-96832000D01*
X137847883Y-96832000D01*
X137768034Y-96752151D01*
X137538320Y-96657000D01*
X137289680Y-96657000D01*
X137059966Y-96752151D01*
X136884151Y-96927966D01*
X136789000Y-97157680D01*
X136117919Y-97157680D01*
X136052438Y-96999596D01*
X135881405Y-96828563D01*
X135657939Y-96736000D01*
X135613877Y-96736000D01*
X135613877Y-96553647D01*
X135652320Y-96546000D01*
X135652321Y-96546000D01*
X135783581Y-96519891D01*
X135932432Y-96420432D01*
X135957540Y-96382855D01*
X136386396Y-95954000D01*
X139914740Y-95954000D01*
X139837000Y-96141680D01*
G36*
X183795753Y-96365753D02*
X183683475Y-96533788D01*
X183644048Y-96732000D01*
X183644048Y-97282000D01*
X183646456Y-97294106D01*
X183646456Y-97331009D01*
X183656408Y-97432056D01*
X183675530Y-97528189D01*
X183705004Y-97625351D01*
X183742513Y-97715907D01*
X183790378Y-97805457D01*
X183844834Y-97886956D01*
X183909248Y-97965444D01*
X183978556Y-98034752D01*
X184057044Y-98099166D01*
X184138543Y-98153622D01*
X184228093Y-98201487D01*
X184318649Y-98238996D01*
X184415811Y-98268470D01*
X184511944Y-98287592D01*
X184612991Y-98297544D01*
X184649894Y-98297544D01*
X184662000Y-98299952D01*
X185162000Y-98299952D01*
X185174106Y-98297544D01*
X185211009Y-98297544D01*
X185312056Y-98287592D01*
X185408189Y-98268470D01*
X185505351Y-98238996D01*
X185562011Y-98215527D01*
X185562011Y-98843593D01*
X183609145Y-100796460D01*
X183571568Y-100821568D01*
X183472109Y-100970420D01*
X183455805Y-101052389D01*
X183438353Y-101140123D01*
X181916000Y-101140123D01*
X181798946Y-101163407D01*
X181699712Y-101229712D01*
X181633407Y-101328946D01*
X181610123Y-101446000D01*
X181610123Y-102166000D01*
X173101877Y-102166000D01*
X173101877Y-100076000D01*
X173078593Y-99958946D01*
X173023840Y-99877001D01*
X176921000Y-99877001D01*
X176921000Y-99946320D01*
X177016151Y-100176034D01*
X177191966Y-100351849D01*
X177421680Y-100447000D01*
X177670320Y-100447000D01*
X177900034Y-100351849D01*
X178075849Y-100176034D01*
X178171000Y-99946320D01*
X178171000Y-99697680D01*
X178075849Y-99467966D01*
X177900034Y-99292151D01*
X177670320Y-99197000D01*
X177455998Y-99197000D01*
X177369269Y-99139049D01*
X177258425Y-99117001D01*
X177258420Y-99117001D01*
X177221001Y-99109558D01*
X177183582Y-99117001D01*
X172227170Y-99117001D01*
X172312034Y-99081849D01*
X172461883Y-98932000D01*
X175465583Y-98932000D01*
X175503002Y-98939443D01*
X175540421Y-98932000D01*
X175540426Y-98932000D01*
X175651270Y-98909952D01*
X175776966Y-98825964D01*
X175798166Y-98794236D01*
X178230403Y-96362000D01*
X183801370Y-96362000D01*
X183795753Y-96365753D01*
X183795753Y-96365753D01*
G37*
X183795753Y-96365753D02*
X183683475Y-96533788D01*
X183644048Y-96732000D01*
X183644048Y-97282000D01*
X183646456Y-97294106D01*
X183646456Y-97331009D01*
X183656408Y-97432056D01*
X183675530Y-97528189D01*
X183705004Y-97625351D01*
X183742513Y-97715907D01*
X183790378Y-97805457D01*
X183844834Y-97886956D01*
X183909248Y-97965444D01*
X183978556Y-98034752D01*
X184057044Y-98099166D01*
X184138543Y-98153622D01*
X184228093Y-98201487D01*
X184318649Y-98238996D01*
X184415811Y-98268470D01*
X184511944Y-98287592D01*
X184612991Y-98297544D01*
X184649894Y-98297544D01*
X184662000Y-98299952D01*
X185162000Y-98299952D01*
X185174106Y-98297544D01*
X185211009Y-98297544D01*
X185312056Y-98287592D01*
X185408189Y-98268470D01*
X185505351Y-98238996D01*
X185562011Y-98215527D01*
X185562011Y-98843593D01*
X183609145Y-100796460D01*
X183571568Y-100821568D01*
X183472109Y-100970420D01*
X183455805Y-101052389D01*
X183438353Y-101140123D01*
X181916000Y-101140123D01*
X181798946Y-101163407D01*
X181699712Y-101229712D01*
X181633407Y-101328946D01*
X181610123Y-101446000D01*
X181610123Y-102166000D01*
X173101877Y-102166000D01*
X173101877Y-100076000D01*
X173078593Y-99958946D01*
X173023840Y-99877001D01*
X176921000Y-99877001D01*
X176921000Y-99946320D01*
X177016151Y-100176034D01*
X177191966Y-100351849D01*
X177421680Y-100447000D01*
X177670320Y-100447000D01*
X177900034Y-100351849D01*
X178075849Y-100176034D01*
X178171000Y-99946320D01*
X178171000Y-99697680D01*
X178075849Y-99467966D01*
X177900034Y-99292151D01*
X177670320Y-99197000D01*
X177455998Y-99197000D01*
X177369269Y-99139049D01*
X177258425Y-99117001D01*
X177258420Y-99117001D01*
X177221001Y-99109558D01*
X177183582Y-99117001D01*
X172227170Y-99117001D01*
X172312034Y-99081849D01*
X172461883Y-98932000D01*
X175465583Y-98932000D01*
X175503002Y-98939443D01*
X175540421Y-98932000D01*
X175540426Y-98932000D01*
X175651270Y-98909952D01*
X175776966Y-98825964D01*
X175798166Y-98794236D01*
X178230403Y-96362000D01*
X183801370Y-96362000D01*
X183795753Y-96365753D01*
G36*
X172382000Y-95960000D02*
X172534000Y-96112000D01*
X174106000Y-96112000D01*
X174106000Y-96092000D01*
X174414000Y-96092000D01*
X174414000Y-96112000D01*
X175986000Y-96112000D01*
X176138000Y-95960000D01*
X176138000Y-94610999D01*
X181957599Y-94610999D01*
X182001000Y-94654400D01*
X182001000Y-94866320D01*
X182096151Y-95096034D01*
X182271966Y-95271849D01*
X182501680Y-95367000D01*
X182750320Y-95367000D01*
X182980034Y-95271849D01*
X183129883Y-95122000D01*
X183856123Y-95122000D01*
X183856123Y-95232000D01*
X183879407Y-95349054D01*
X183884716Y-95357000D01*
X183879407Y-95364946D01*
X183856123Y-95482000D01*
X183856123Y-95602000D01*
X178110421Y-95602000D01*
X178073002Y-95594557D01*
X178035583Y-95602000D01*
X178035578Y-95602000D01*
X177924734Y-95624048D01*
X177924732Y-95624049D01*
X177924733Y-95624049D01*
X177841624Y-95679581D01*
X177799038Y-95708036D01*
X177777840Y-95739761D01*
X176138000Y-97379602D01*
X176138000Y-96572000D01*
X175986000Y-96420000D01*
X174414000Y-96420000D01*
X174414000Y-96440000D01*
X174106000Y-96440000D01*
X174106000Y-96420000D01*
X172534000Y-96420000D01*
X172382000Y-96572000D01*
X172382000Y-98092117D01*
X172312034Y-98022151D01*
X172082320Y-97927000D01*
X171833680Y-97927000D01*
X171603966Y-98022151D01*
X171428151Y-98197966D01*
X171333000Y-98427680D01*
X171333000Y-98676320D01*
X171428151Y-98906034D01*
X171603966Y-99081849D01*
X171688830Y-99117001D01*
X170449170Y-99117001D01*
X170534034Y-99081849D01*
X170709849Y-98906034D01*
X170805000Y-98676320D01*
X170805000Y-98427680D01*
X170709849Y-98197966D01*
X170534034Y-98022151D01*
X170304320Y-97927000D01*
X170055680Y-97927000D01*
X169825966Y-98022151D01*
X169676117Y-98172000D01*
X146429911Y-98172000D01*
X146452593Y-98138054D01*
X146475877Y-98021000D01*
X146475877Y-96716000D01*
X151562703Y-96716000D01*
X151521000Y-96816680D01*
X151521000Y-97065320D01*
X151616151Y-97295034D01*
X151791966Y-97470849D01*
X152021680Y-97566000D01*
X152270320Y-97566000D01*
X152500034Y-97470849D01*
X152649883Y-97321000D01*
X163307075Y-97321000D01*
X163382966Y-97396891D01*
X163612680Y-97492042D01*
X163861320Y-97492042D01*
X164091034Y-97396891D01*
X164266849Y-97221076D01*
X164362000Y-96991362D01*
X164362000Y-96742722D01*
X164266849Y-96513008D01*
X164091034Y-96337193D01*
X163861320Y-96242042D01*
X163693000Y-96242042D01*
X163693000Y-96141680D01*
X163597849Y-95911966D01*
X163422034Y-95736151D01*
X163192320Y-95641000D01*
X162943680Y-95641000D01*
X162713966Y-95736151D01*
X162634117Y-95816000D01*
X151308712Y-95816000D01*
X151359081Y-95694399D01*
X151359081Y-95599222D01*
X151464582Y-95599222D01*
X151694296Y-95504071D01*
X151733127Y-95465241D01*
X151833965Y-95566079D01*
X152063679Y-95661230D01*
X152312319Y-95661230D01*
X152542033Y-95566079D01*
X152693580Y-95414532D01*
X152795886Y-95394182D01*
X152921582Y-95310194D01*
X152942782Y-95278466D01*
X153610250Y-94610999D01*
X172382000Y-94610999D01*
X172382000Y-95960000D01*
X172382000Y-95960000D01*
G37*
X172382000Y-95960000D02*
X172534000Y-96112000D01*
X174106000Y-96112000D01*
X174106000Y-96092000D01*
X174414000Y-96092000D01*
X174414000Y-96112000D01*
X175986000Y-96112000D01*
X176138000Y-95960000D01*
X176138000Y-94610999D01*
X181957599Y-94610999D01*
X182001000Y-94654400D01*
X182001000Y-94866320D01*
X182096151Y-95096034D01*
X182271966Y-95271849D01*
X182501680Y-95367000D01*
X182750320Y-95367000D01*
X182980034Y-95271849D01*
X183129883Y-95122000D01*
X183856123Y-95122000D01*
X183856123Y-95232000D01*
X183879407Y-95349054D01*
X183884716Y-95357000D01*
X183879407Y-95364946D01*
X183856123Y-95482000D01*
X183856123Y-95602000D01*
X178110421Y-95602000D01*
X178073002Y-95594557D01*
X178035583Y-95602000D01*
X178035578Y-95602000D01*
X177924734Y-95624048D01*
X177924732Y-95624049D01*
X177924733Y-95624049D01*
X177841624Y-95679581D01*
X177799038Y-95708036D01*
X177777840Y-95739761D01*
X176138000Y-97379602D01*
X176138000Y-96572000D01*
X175986000Y-96420000D01*
X174414000Y-96420000D01*
X174414000Y-96440000D01*
X174106000Y-96440000D01*
X174106000Y-96420000D01*
X172534000Y-96420000D01*
X172382000Y-96572000D01*
X172382000Y-98092117D01*
X172312034Y-98022151D01*
X172082320Y-97927000D01*
X171833680Y-97927000D01*
X171603966Y-98022151D01*
X171428151Y-98197966D01*
X171333000Y-98427680D01*
X171333000Y-98676320D01*
X171428151Y-98906034D01*
X171603966Y-99081849D01*
X171688830Y-99117001D01*
X170449170Y-99117001D01*
X170534034Y-99081849D01*
X170709849Y-98906034D01*
X170805000Y-98676320D01*
X170805000Y-98427680D01*
X170709849Y-98197966D01*
X170534034Y-98022151D01*
X170304320Y-97927000D01*
X170055680Y-97927000D01*
X169825966Y-98022151D01*
X169676117Y-98172000D01*
X146429911Y-98172000D01*
X146452593Y-98138054D01*
X146475877Y-98021000D01*
X146475877Y-96716000D01*
X151562703Y-96716000D01*
X151521000Y-96816680D01*
X151521000Y-97065320D01*
X151616151Y-97295034D01*
X151791966Y-97470849D01*
X152021680Y-97566000D01*
X152270320Y-97566000D01*
X152500034Y-97470849D01*
X152649883Y-97321000D01*
X163307075Y-97321000D01*
X163382966Y-97396891D01*
X163612680Y-97492042D01*
X163861320Y-97492042D01*
X164091034Y-97396891D01*
X164266849Y-97221076D01*
X164362000Y-96991362D01*
X164362000Y-96742722D01*
X164266849Y-96513008D01*
X164091034Y-96337193D01*
X163861320Y-96242042D01*
X163693000Y-96242042D01*
X163693000Y-96141680D01*
X163597849Y-95911966D01*
X163422034Y-95736151D01*
X163192320Y-95641000D01*
X162943680Y-95641000D01*
X162713966Y-95736151D01*
X162634117Y-95816000D01*
X151308712Y-95816000D01*
X151359081Y-95694399D01*
X151359081Y-95599222D01*
X151464582Y-95599222D01*
X151694296Y-95504071D01*
X151733127Y-95465241D01*
X151833965Y-95566079D01*
X152063679Y-95661230D01*
X152312319Y-95661230D01*
X152542033Y-95566079D01*
X152693580Y-95414532D01*
X152795886Y-95394182D01*
X152921582Y-95310194D01*
X152942782Y-95278466D01*
X153610250Y-94610999D01*
X172382000Y-94610999D01*
X172382000Y-95960000D01*
G36*
X186705000Y-88090515D02*
X186691753Y-88023915D01*
X186607765Y-87898219D01*
X186576040Y-87877021D01*
X185832782Y-87133764D01*
X185811582Y-87102036D01*
X185685886Y-87018048D01*
X185583580Y-86997698D01*
X185432033Y-86846151D01*
X185202319Y-86751000D01*
X184953679Y-86751000D01*
X184723965Y-86846151D01*
X184548150Y-87021966D01*
X184452999Y-87251680D01*
X184452999Y-87500320D01*
X184548150Y-87730034D01*
X184723965Y-87905849D01*
X184787396Y-87932123D01*
X183177351Y-87932123D01*
X183251000Y-87754320D01*
X183251000Y-87505680D01*
X183155849Y-87275966D01*
X183006000Y-87126117D01*
X183006000Y-83307883D01*
X183155849Y-83158034D01*
X183251000Y-82928320D01*
X183251000Y-82679680D01*
X183155849Y-82449966D01*
X183141760Y-82435877D01*
X184746000Y-82435877D01*
X184863054Y-82412593D01*
X184962288Y-82346288D01*
X185028593Y-82247054D01*
X185051877Y-82130000D01*
X185051877Y-80430000D01*
X185028593Y-80312946D01*
X184962288Y-80213712D01*
X184863054Y-80147407D01*
X184746000Y-80124123D01*
X183046000Y-80124123D01*
X182928946Y-80147407D01*
X182829712Y-80213712D01*
X182763407Y-80312946D01*
X182740123Y-80430000D01*
X182740123Y-82130000D01*
X182749870Y-82179000D01*
X182501680Y-82179000D01*
X182293342Y-82265297D01*
X182320000Y-82200939D01*
X182320000Y-81586000D01*
X182168000Y-81434000D01*
X180776000Y-81434000D01*
X180776000Y-82536000D01*
X180928000Y-82688000D01*
X181832938Y-82688000D01*
X182031647Y-82605693D01*
X182001000Y-82679680D01*
X182001000Y-82928320D01*
X182096151Y-83158034D01*
X182246000Y-83307883D01*
X182246001Y-87126116D01*
X182096151Y-87275966D01*
X182001000Y-87505680D01*
X182001000Y-87754320D01*
X182074649Y-87932123D01*
X182042500Y-87932123D01*
X181925446Y-87955407D01*
X181826212Y-88021712D01*
X181759907Y-88120946D01*
X181736623Y-88238000D01*
X181736623Y-88958000D01*
X174829758Y-88958000D01*
X174917034Y-88921849D01*
X175092849Y-88746034D01*
X175188000Y-88516320D01*
X175188000Y-88267680D01*
X175092849Y-88037966D01*
X174923395Y-87868512D01*
X174920952Y-87856230D01*
X174872667Y-87783966D01*
X174858163Y-87762260D01*
X174858162Y-87762259D01*
X174836964Y-87730534D01*
X174805239Y-87709336D01*
X172451666Y-85355764D01*
X172430466Y-85324036D01*
X172304770Y-85240048D01*
X172193926Y-85218000D01*
X172193921Y-85218000D01*
X172183866Y-85216000D01*
X175276582Y-85216000D01*
X175314001Y-85223443D01*
X175351420Y-85216000D01*
X175351425Y-85216000D01*
X175462269Y-85193952D01*
X175587965Y-85109964D01*
X175609165Y-85078236D01*
X176750403Y-83937000D01*
X176962321Y-83937000D01*
X177192035Y-83841849D01*
X177367850Y-83666034D01*
X177463001Y-83436320D01*
X177463001Y-83187680D01*
X177367850Y-82957966D01*
X177192035Y-82782151D01*
X176962321Y-82687000D01*
X176713681Y-82687000D01*
X176483967Y-82782151D01*
X176308152Y-82957966D01*
X176213001Y-83187680D01*
X176213001Y-83399598D01*
X175156601Y-84456000D01*
X163397297Y-84456000D01*
X163439000Y-84355320D01*
X163439000Y-84106680D01*
X163343849Y-83876966D01*
X163276760Y-83809877D01*
X163390250Y-83809877D01*
X163495121Y-83789017D01*
X163846971Y-84140867D01*
X163872078Y-84178442D01*
X164020929Y-84277901D01*
X164152189Y-84304010D01*
X164152193Y-84304010D01*
X164196509Y-84312825D01*
X164240826Y-84304010D01*
X171117670Y-84304010D01*
X171161990Y-84312826D01*
X171206310Y-84304010D01*
X171206311Y-84304010D01*
X171337571Y-84277901D01*
X171486422Y-84178442D01*
X171511530Y-84140865D01*
X171715395Y-83937000D01*
X171828320Y-83937000D01*
X172058034Y-83841849D01*
X172233849Y-83666034D01*
X172329000Y-83436320D01*
X172329000Y-83187680D01*
X172233849Y-82957966D01*
X172058034Y-82782151D01*
X171828320Y-82687000D01*
X171579680Y-82687000D01*
X171464828Y-82734574D01*
X171664242Y-82535160D01*
X171695964Y-82513964D01*
X171717160Y-82482242D01*
X171717163Y-82482239D01*
X171779951Y-82388270D01*
X171779951Y-82388269D01*
X171779952Y-82388268D01*
X171780428Y-82385877D01*
X172512000Y-82385877D01*
X172629054Y-82362593D01*
X172728288Y-82296288D01*
X172794593Y-82197054D01*
X172817877Y-82080000D01*
X172817877Y-81660000D01*
X173994117Y-81660000D01*
X174143966Y-81809849D01*
X174373680Y-81905000D01*
X174622320Y-81905000D01*
X174852034Y-81809849D01*
X175027849Y-81634034D01*
X175047745Y-81586000D01*
X178924000Y-81586000D01*
X178924000Y-82200939D01*
X179016563Y-82424405D01*
X179187596Y-82595438D01*
X179411062Y-82688000D01*
X180316000Y-82688000D01*
X180468000Y-82536000D01*
X180468000Y-81434000D01*
X179076000Y-81434000D01*
X178924000Y-81586000D01*
X175047745Y-81586000D01*
X175123000Y-81404320D01*
X175123000Y-81155680D01*
X175027849Y-80925966D01*
X174852034Y-80750151D01*
X174622320Y-80655000D01*
X174373680Y-80655000D01*
X174143966Y-80750151D01*
X173994117Y-80900000D01*
X172817877Y-80900000D01*
X172817877Y-80480000D01*
X172794593Y-80362946D01*
X172791998Y-80359061D01*
X178924000Y-80359061D01*
X178924000Y-80974000D01*
X179076000Y-81126000D01*
X180468000Y-81126000D01*
X180468000Y-80024000D01*
X180776000Y-80024000D01*
X180776000Y-81126000D01*
X182168000Y-81126000D01*
X182320000Y-80974000D01*
X182320000Y-80359061D01*
X182227437Y-80135595D01*
X182056404Y-79964562D01*
X181832938Y-79872000D01*
X180928000Y-79872000D01*
X180776000Y-80024000D01*
X180468000Y-80024000D01*
X180316000Y-79872000D01*
X179411062Y-79872000D01*
X179187596Y-79964562D01*
X179016563Y-80135595D01*
X178924000Y-80359061D01*
X172791998Y-80359061D01*
X172728288Y-80263712D01*
X172629054Y-80197407D01*
X172512000Y-80174123D01*
X170332000Y-80174123D01*
X170214946Y-80197407D01*
X170115712Y-80263712D01*
X170049407Y-80362946D01*
X170026123Y-80480000D01*
X170026123Y-82080000D01*
X170049407Y-82197054D01*
X170115712Y-82296288D01*
X170214946Y-82362593D01*
X170332000Y-82385877D01*
X170738722Y-82385877D01*
X170700600Y-82424000D01*
X169878877Y-82424000D01*
X169878877Y-82347750D01*
X169837039Y-82137417D01*
X169717895Y-81959105D01*
X169539583Y-81839961D01*
X169329250Y-81798123D01*
X168841750Y-81798123D01*
X168654308Y-81835408D01*
X168400654Y-81581754D01*
X168379454Y-81550026D01*
X168253758Y-81466038D01*
X168142914Y-81443990D01*
X168142909Y-81443990D01*
X168105490Y-81436547D01*
X168068071Y-81443990D01*
X166038928Y-81443990D01*
X166001509Y-81436547D01*
X165964090Y-81443990D01*
X165964086Y-81443990D01*
X165853242Y-81466038D01*
X165853241Y-81466039D01*
X165853240Y-81466039D01*
X165759271Y-81528827D01*
X165759268Y-81528830D01*
X165727546Y-81550026D01*
X165725000Y-81553836D01*
X165725000Y-81409680D01*
X165629849Y-81179966D01*
X165454034Y-81004151D01*
X165224320Y-80909000D01*
X164975680Y-80909000D01*
X164745966Y-81004151D01*
X164570151Y-81179966D01*
X164475000Y-81409680D01*
X164475000Y-81658320D01*
X164553962Y-81848951D01*
X164389105Y-81959105D01*
X164269961Y-82137417D01*
X164228123Y-82347750D01*
X164228123Y-83249227D01*
X163939877Y-82960982D01*
X163939877Y-82347750D01*
X163898039Y-82137417D01*
X163778895Y-81959105D01*
X163600583Y-81839961D01*
X163390250Y-81798123D01*
X162902750Y-81798123D01*
X162852000Y-81808218D01*
X162852000Y-81507500D01*
X162700000Y-81355500D01*
X161698000Y-81355500D01*
X161698000Y-81375500D01*
X161390000Y-81375500D01*
X161390000Y-81355500D01*
X161370000Y-81355500D01*
X161370000Y-81047500D01*
X161390000Y-81047500D01*
X161390000Y-81027500D01*
X161698000Y-81027500D01*
X161698000Y-81047500D01*
X162700000Y-81047500D01*
X162852000Y-80895500D01*
X162852000Y-80714000D01*
X165448123Y-80714000D01*
X165448123Y-80764000D01*
X165471407Y-80881054D01*
X165537712Y-80980288D01*
X165636946Y-81046593D01*
X165754000Y-81069877D01*
X168264000Y-81069877D01*
X168381054Y-81046593D01*
X168480288Y-80980288D01*
X168546593Y-80881054D01*
X168569877Y-80764000D01*
X168569877Y-79764000D01*
X168558439Y-79706500D01*
X168738617Y-79706500D01*
X168809966Y-79777849D01*
X169039680Y-79873000D01*
X169288320Y-79873000D01*
X169518034Y-79777849D01*
X169693849Y-79602034D01*
X169789000Y-79372320D01*
X169789000Y-79123680D01*
X169693849Y-78893966D01*
X169665883Y-78866000D01*
X171875117Y-78866000D01*
X172024966Y-79015849D01*
X172254680Y-79111000D01*
X172503320Y-79111000D01*
X172733034Y-79015849D01*
X172908849Y-78840034D01*
X173004000Y-78610320D01*
X173004000Y-78361680D01*
X172908849Y-78131966D01*
X172733034Y-77956151D01*
X172503320Y-77861000D01*
X172254680Y-77861000D01*
X172024966Y-77956151D01*
X171875117Y-78106000D01*
X169488275Y-78106000D01*
X169574432Y-78048432D01*
X169599540Y-78010855D01*
X170050518Y-77559877D01*
X171088476Y-77559877D01*
X171095548Y-77566948D01*
X171116746Y-77598674D01*
X171242442Y-77682662D01*
X171353286Y-77704710D01*
X171353291Y-77704710D01*
X171390710Y-77712153D01*
X171428129Y-77704710D01*
X173010868Y-77704710D01*
X173075595Y-77769437D01*
X173200029Y-77820980D01*
X174488891Y-79109842D01*
X174510087Y-79141565D01*
X174541809Y-79162761D01*
X174541812Y-79162764D01*
X174635781Y-79225552D01*
X174635782Y-79225552D01*
X174635783Y-79225553D01*
X174746627Y-79247601D01*
X174746631Y-79247601D01*
X174784050Y-79255044D01*
X174821469Y-79247601D01*
X183984980Y-79247601D01*
X184022399Y-79255044D01*
X184059818Y-79247601D01*
X184059823Y-79247601D01*
X184170667Y-79225553D01*
X184296363Y-79141565D01*
X184317563Y-79109837D01*
X184597564Y-78829837D01*
X184597566Y-78829834D01*
X184649239Y-78778161D01*
X184711986Y-78820087D01*
X185051397Y-78887600D01*
X185280603Y-78887600D01*
X185620014Y-78820087D01*
X186004909Y-78562909D01*
X186262087Y-78178014D01*
X186352396Y-77724000D01*
X186262087Y-77269986D01*
X186004909Y-76885091D01*
X185661451Y-76655600D01*
X186150539Y-76655600D01*
X186374005Y-76563037D01*
X186545038Y-76392004D01*
X186637600Y-76168538D01*
X186637600Y-75490000D01*
X186485600Y-75338000D01*
X185320000Y-75338000D01*
X185320000Y-75358000D01*
X185012000Y-75358000D01*
X185012000Y-75338000D01*
X184992000Y-75338000D01*
X184992000Y-75030000D01*
X185012000Y-75030000D01*
X185012000Y-75010000D01*
X185320000Y-75010000D01*
X185320000Y-75030000D01*
X186485600Y-75030000D01*
X186637600Y-74878000D01*
X186637600Y-74199462D01*
X186545038Y-73975996D01*
X186374005Y-73804963D01*
X186316153Y-73781000D01*
X186705000Y-73781000D01*
X186705000Y-88090515D01*
X186705000Y-88090515D01*
G37*
X186705000Y-88090515D02*
X186691753Y-88023915D01*
X186607765Y-87898219D01*
X186576040Y-87877021D01*
X185832782Y-87133764D01*
X185811582Y-87102036D01*
X185685886Y-87018048D01*
X185583580Y-86997698D01*
X185432033Y-86846151D01*
X185202319Y-86751000D01*
X184953679Y-86751000D01*
X184723965Y-86846151D01*
X184548150Y-87021966D01*
X184452999Y-87251680D01*
X184452999Y-87500320D01*
X184548150Y-87730034D01*
X184723965Y-87905849D01*
X184787396Y-87932123D01*
X183177351Y-87932123D01*
X183251000Y-87754320D01*
X183251000Y-87505680D01*
X183155849Y-87275966D01*
X183006000Y-87126117D01*
X183006000Y-83307883D01*
X183155849Y-83158034D01*
X183251000Y-82928320D01*
X183251000Y-82679680D01*
X183155849Y-82449966D01*
X183141760Y-82435877D01*
X184746000Y-82435877D01*
X184863054Y-82412593D01*
X184962288Y-82346288D01*
X185028593Y-82247054D01*
X185051877Y-82130000D01*
X185051877Y-80430000D01*
X185028593Y-80312946D01*
X184962288Y-80213712D01*
X184863054Y-80147407D01*
X184746000Y-80124123D01*
X183046000Y-80124123D01*
X182928946Y-80147407D01*
X182829712Y-80213712D01*
X182763407Y-80312946D01*
X182740123Y-80430000D01*
X182740123Y-82130000D01*
X182749870Y-82179000D01*
X182501680Y-82179000D01*
X182293342Y-82265297D01*
X182320000Y-82200939D01*
X182320000Y-81586000D01*
X182168000Y-81434000D01*
X180776000Y-81434000D01*
X180776000Y-82536000D01*
X180928000Y-82688000D01*
X181832938Y-82688000D01*
X182031647Y-82605693D01*
X182001000Y-82679680D01*
X182001000Y-82928320D01*
X182096151Y-83158034D01*
X182246000Y-83307883D01*
X182246001Y-87126116D01*
X182096151Y-87275966D01*
X182001000Y-87505680D01*
X182001000Y-87754320D01*
X182074649Y-87932123D01*
X182042500Y-87932123D01*
X181925446Y-87955407D01*
X181826212Y-88021712D01*
X181759907Y-88120946D01*
X181736623Y-88238000D01*
X181736623Y-88958000D01*
X174829758Y-88958000D01*
X174917034Y-88921849D01*
X175092849Y-88746034D01*
X175188000Y-88516320D01*
X175188000Y-88267680D01*
X175092849Y-88037966D01*
X174923395Y-87868512D01*
X174920952Y-87856230D01*
X174872667Y-87783966D01*
X174858163Y-87762260D01*
X174858162Y-87762259D01*
X174836964Y-87730534D01*
X174805239Y-87709336D01*
X172451666Y-85355764D01*
X172430466Y-85324036D01*
X172304770Y-85240048D01*
X172193926Y-85218000D01*
X172193921Y-85218000D01*
X172183866Y-85216000D01*
X175276582Y-85216000D01*
X175314001Y-85223443D01*
X175351420Y-85216000D01*
X175351425Y-85216000D01*
X175462269Y-85193952D01*
X175587965Y-85109964D01*
X175609165Y-85078236D01*
X176750403Y-83937000D01*
X176962321Y-83937000D01*
X177192035Y-83841849D01*
X177367850Y-83666034D01*
X177463001Y-83436320D01*
X177463001Y-83187680D01*
X177367850Y-82957966D01*
X177192035Y-82782151D01*
X176962321Y-82687000D01*
X176713681Y-82687000D01*
X176483967Y-82782151D01*
X176308152Y-82957966D01*
X176213001Y-83187680D01*
X176213001Y-83399598D01*
X175156601Y-84456000D01*
X163397297Y-84456000D01*
X163439000Y-84355320D01*
X163439000Y-84106680D01*
X163343849Y-83876966D01*
X163276760Y-83809877D01*
X163390250Y-83809877D01*
X163495121Y-83789017D01*
X163846971Y-84140867D01*
X163872078Y-84178442D01*
X164020929Y-84277901D01*
X164152189Y-84304010D01*
X164152193Y-84304010D01*
X164196509Y-84312825D01*
X164240826Y-84304010D01*
X171117670Y-84304010D01*
X171161990Y-84312826D01*
X171206310Y-84304010D01*
X171206311Y-84304010D01*
X171337571Y-84277901D01*
X171486422Y-84178442D01*
X171511530Y-84140865D01*
X171715395Y-83937000D01*
X171828320Y-83937000D01*
X172058034Y-83841849D01*
X172233849Y-83666034D01*
X172329000Y-83436320D01*
X172329000Y-83187680D01*
X172233849Y-82957966D01*
X172058034Y-82782151D01*
X171828320Y-82687000D01*
X171579680Y-82687000D01*
X171464828Y-82734574D01*
X171664242Y-82535160D01*
X171695964Y-82513964D01*
X171717160Y-82482242D01*
X171717163Y-82482239D01*
X171779951Y-82388270D01*
X171779951Y-82388269D01*
X171779952Y-82388268D01*
X171780428Y-82385877D01*
X172512000Y-82385877D01*
X172629054Y-82362593D01*
X172728288Y-82296288D01*
X172794593Y-82197054D01*
X172817877Y-82080000D01*
X172817877Y-81660000D01*
X173994117Y-81660000D01*
X174143966Y-81809849D01*
X174373680Y-81905000D01*
X174622320Y-81905000D01*
X174852034Y-81809849D01*
X175027849Y-81634034D01*
X175047745Y-81586000D01*
X178924000Y-81586000D01*
X178924000Y-82200939D01*
X179016563Y-82424405D01*
X179187596Y-82595438D01*
X179411062Y-82688000D01*
X180316000Y-82688000D01*
X180468000Y-82536000D01*
X180468000Y-81434000D01*
X179076000Y-81434000D01*
X178924000Y-81586000D01*
X175047745Y-81586000D01*
X175123000Y-81404320D01*
X175123000Y-81155680D01*
X175027849Y-80925966D01*
X174852034Y-80750151D01*
X174622320Y-80655000D01*
X174373680Y-80655000D01*
X174143966Y-80750151D01*
X173994117Y-80900000D01*
X172817877Y-80900000D01*
X172817877Y-80480000D01*
X172794593Y-80362946D01*
X172791998Y-80359061D01*
X178924000Y-80359061D01*
X178924000Y-80974000D01*
X179076000Y-81126000D01*
X180468000Y-81126000D01*
X180468000Y-80024000D01*
X180776000Y-80024000D01*
X180776000Y-81126000D01*
X182168000Y-81126000D01*
X182320000Y-80974000D01*
X182320000Y-80359061D01*
X182227437Y-80135595D01*
X182056404Y-79964562D01*
X181832938Y-79872000D01*
X180928000Y-79872000D01*
X180776000Y-80024000D01*
X180468000Y-80024000D01*
X180316000Y-79872000D01*
X179411062Y-79872000D01*
X179187596Y-79964562D01*
X179016563Y-80135595D01*
X178924000Y-80359061D01*
X172791998Y-80359061D01*
X172728288Y-80263712D01*
X172629054Y-80197407D01*
X172512000Y-80174123D01*
X170332000Y-80174123D01*
X170214946Y-80197407D01*
X170115712Y-80263712D01*
X170049407Y-80362946D01*
X170026123Y-80480000D01*
X170026123Y-82080000D01*
X170049407Y-82197054D01*
X170115712Y-82296288D01*
X170214946Y-82362593D01*
X170332000Y-82385877D01*
X170738722Y-82385877D01*
X170700600Y-82424000D01*
X169878877Y-82424000D01*
X169878877Y-82347750D01*
X169837039Y-82137417D01*
X169717895Y-81959105D01*
X169539583Y-81839961D01*
X169329250Y-81798123D01*
X168841750Y-81798123D01*
X168654308Y-81835408D01*
X168400654Y-81581754D01*
X168379454Y-81550026D01*
X168253758Y-81466038D01*
X168142914Y-81443990D01*
X168142909Y-81443990D01*
X168105490Y-81436547D01*
X168068071Y-81443990D01*
X166038928Y-81443990D01*
X166001509Y-81436547D01*
X165964090Y-81443990D01*
X165964086Y-81443990D01*
X165853242Y-81466038D01*
X165853241Y-81466039D01*
X165853240Y-81466039D01*
X165759271Y-81528827D01*
X165759268Y-81528830D01*
X165727546Y-81550026D01*
X165725000Y-81553836D01*
X165725000Y-81409680D01*
X165629849Y-81179966D01*
X165454034Y-81004151D01*
X165224320Y-80909000D01*
X164975680Y-80909000D01*
X164745966Y-81004151D01*
X164570151Y-81179966D01*
X164475000Y-81409680D01*
X164475000Y-81658320D01*
X164553962Y-81848951D01*
X164389105Y-81959105D01*
X164269961Y-82137417D01*
X164228123Y-82347750D01*
X164228123Y-83249227D01*
X163939877Y-82960982D01*
X163939877Y-82347750D01*
X163898039Y-82137417D01*
X163778895Y-81959105D01*
X163600583Y-81839961D01*
X163390250Y-81798123D01*
X162902750Y-81798123D01*
X162852000Y-81808218D01*
X162852000Y-81507500D01*
X162700000Y-81355500D01*
X161698000Y-81355500D01*
X161698000Y-81375500D01*
X161390000Y-81375500D01*
X161390000Y-81355500D01*
X161370000Y-81355500D01*
X161370000Y-81047500D01*
X161390000Y-81047500D01*
X161390000Y-81027500D01*
X161698000Y-81027500D01*
X161698000Y-81047500D01*
X162700000Y-81047500D01*
X162852000Y-80895500D01*
X162852000Y-80714000D01*
X165448123Y-80714000D01*
X165448123Y-80764000D01*
X165471407Y-80881054D01*
X165537712Y-80980288D01*
X165636946Y-81046593D01*
X165754000Y-81069877D01*
X168264000Y-81069877D01*
X168381054Y-81046593D01*
X168480288Y-80980288D01*
X168546593Y-80881054D01*
X168569877Y-80764000D01*
X168569877Y-79764000D01*
X168558439Y-79706500D01*
X168738617Y-79706500D01*
X168809966Y-79777849D01*
X169039680Y-79873000D01*
X169288320Y-79873000D01*
X169518034Y-79777849D01*
X169693849Y-79602034D01*
X169789000Y-79372320D01*
X169789000Y-79123680D01*
X169693849Y-78893966D01*
X169665883Y-78866000D01*
X171875117Y-78866000D01*
X172024966Y-79015849D01*
X172254680Y-79111000D01*
X172503320Y-79111000D01*
X172733034Y-79015849D01*
X172908849Y-78840034D01*
X173004000Y-78610320D01*
X173004000Y-78361680D01*
X172908849Y-78131966D01*
X172733034Y-77956151D01*
X172503320Y-77861000D01*
X172254680Y-77861000D01*
X172024966Y-77956151D01*
X171875117Y-78106000D01*
X169488275Y-78106000D01*
X169574432Y-78048432D01*
X169599540Y-78010855D01*
X170050518Y-77559877D01*
X171088476Y-77559877D01*
X171095548Y-77566948D01*
X171116746Y-77598674D01*
X171242442Y-77682662D01*
X171353286Y-77704710D01*
X171353291Y-77704710D01*
X171390710Y-77712153D01*
X171428129Y-77704710D01*
X173010868Y-77704710D01*
X173075595Y-77769437D01*
X173200029Y-77820980D01*
X174488891Y-79109842D01*
X174510087Y-79141565D01*
X174541809Y-79162761D01*
X174541812Y-79162764D01*
X174635781Y-79225552D01*
X174635782Y-79225552D01*
X174635783Y-79225553D01*
X174746627Y-79247601D01*
X174746631Y-79247601D01*
X174784050Y-79255044D01*
X174821469Y-79247601D01*
X183984980Y-79247601D01*
X184022399Y-79255044D01*
X184059818Y-79247601D01*
X184059823Y-79247601D01*
X184170667Y-79225553D01*
X184296363Y-79141565D01*
X184317563Y-79109837D01*
X184597564Y-78829837D01*
X184597566Y-78829834D01*
X184649239Y-78778161D01*
X184711986Y-78820087D01*
X185051397Y-78887600D01*
X185280603Y-78887600D01*
X185620014Y-78820087D01*
X186004909Y-78562909D01*
X186262087Y-78178014D01*
X186352396Y-77724000D01*
X186262087Y-77269986D01*
X186004909Y-76885091D01*
X185661451Y-76655600D01*
X186150539Y-76655600D01*
X186374005Y-76563037D01*
X186545038Y-76392004D01*
X186637600Y-76168538D01*
X186637600Y-75490000D01*
X186485600Y-75338000D01*
X185320000Y-75338000D01*
X185320000Y-75358000D01*
X185012000Y-75358000D01*
X185012000Y-75338000D01*
X184992000Y-75338000D01*
X184992000Y-75030000D01*
X185012000Y-75030000D01*
X185012000Y-75010000D01*
X185320000Y-75010000D01*
X185320000Y-75030000D01*
X186485600Y-75030000D01*
X186637600Y-74878000D01*
X186637600Y-74199462D01*
X186545038Y-73975996D01*
X186374005Y-73804963D01*
X186316153Y-73781000D01*
X186705000Y-73781000D01*
X186705000Y-88090515D01*
G36*
X135203500Y-84682000D02*
X135223500Y-84682000D01*
X135223500Y-84990000D01*
X135203500Y-84990000D01*
X135203500Y-85010000D01*
X134895500Y-85010000D01*
X134895500Y-84990000D01*
X134875500Y-84990000D01*
X134875500Y-84682000D01*
X134895500Y-84682000D01*
X134895500Y-84662000D01*
X135203500Y-84662000D01*
X135203500Y-84682000D01*
X135203500Y-84682000D01*
G37*
X135203500Y-84682000D02*
X135223500Y-84682000D01*
X135223500Y-84990000D01*
X135203500Y-84990000D01*
X135203500Y-85010000D01*
X134895500Y-85010000D01*
X134895500Y-84990000D01*
X134875500Y-84990000D01*
X134875500Y-84682000D01*
X134895500Y-84682000D01*
X134895500Y-84662000D01*
X135203500Y-84662000D01*
X135203500Y-84682000D01*
G36*
X132873000Y-77204615D02*
X132873000Y-77612385D01*
X133029047Y-77989116D01*
X133234045Y-78194114D01*
X133196563Y-78231595D01*
X133104000Y-78455061D01*
X133104000Y-79220000D01*
X133256000Y-79372000D01*
X133958000Y-79372000D01*
X133958000Y-79352000D01*
X134266000Y-79352000D01*
X134266000Y-79372000D01*
X134286000Y-79372000D01*
X134286000Y-79680000D01*
X134266000Y-79680000D01*
X134266000Y-80932000D01*
X134418000Y-81084000D01*
X134632938Y-81084000D01*
X134650999Y-81076519D01*
X134650999Y-81272311D01*
X134544946Y-81293407D01*
X134445712Y-81359712D01*
X134379407Y-81458946D01*
X134356123Y-81576000D01*
X134356123Y-83376001D01*
X134291917Y-83376001D01*
X134254498Y-83368558D01*
X134217079Y-83376001D01*
X134217075Y-83376001D01*
X134106231Y-83398049D01*
X134106230Y-83398050D01*
X134106229Y-83398050D01*
X134040933Y-83441680D01*
X133980535Y-83482037D01*
X133959337Y-83513763D01*
X133605692Y-83867408D01*
X133542000Y-83854739D01*
X133542000Y-83781877D01*
X133562000Y-83781877D01*
X133679054Y-83758593D01*
X133778288Y-83692288D01*
X133844593Y-83593054D01*
X133867877Y-83476000D01*
X133867877Y-81576000D01*
X133844593Y-81458946D01*
X133778288Y-81359712D01*
X133679054Y-81293407D01*
X133562000Y-81270123D01*
X132762000Y-81270123D01*
X132644946Y-81293407D01*
X132545712Y-81359712D01*
X132479407Y-81458946D01*
X132456123Y-81576000D01*
X132456123Y-83476000D01*
X132479407Y-83593054D01*
X132545712Y-83692288D01*
X132644946Y-83758593D01*
X132762000Y-83781877D01*
X132782001Y-83781877D01*
X132782001Y-83859711D01*
X132720417Y-83871961D01*
X132542105Y-83991105D01*
X132455000Y-84121467D01*
X132455000Y-79832000D01*
X133104000Y-79832000D01*
X133104000Y-80596939D01*
X133196563Y-80820405D01*
X133367596Y-80991438D01*
X133591062Y-81084000D01*
X133806000Y-81084000D01*
X133958000Y-80932000D01*
X133958000Y-79680000D01*
X133256000Y-79680000D01*
X133104000Y-79832000D01*
X132455000Y-79832000D01*
X132455000Y-77037297D01*
X132555680Y-77079000D01*
X132804320Y-77079000D01*
X132950032Y-77018644D01*
X132873000Y-77204615D01*
X132873000Y-77204615D01*
G37*
X132873000Y-77204615D02*
X132873000Y-77612385D01*
X133029047Y-77989116D01*
X133234045Y-78194114D01*
X133196563Y-78231595D01*
X133104000Y-78455061D01*
X133104000Y-79220000D01*
X133256000Y-79372000D01*
X133958000Y-79372000D01*
X133958000Y-79352000D01*
X134266000Y-79352000D01*
X134266000Y-79372000D01*
X134286000Y-79372000D01*
X134286000Y-79680000D01*
X134266000Y-79680000D01*
X134266000Y-80932000D01*
X134418000Y-81084000D01*
X134632938Y-81084000D01*
X134650999Y-81076519D01*
X134650999Y-81272311D01*
X134544946Y-81293407D01*
X134445712Y-81359712D01*
X134379407Y-81458946D01*
X134356123Y-81576000D01*
X134356123Y-83376001D01*
X134291917Y-83376001D01*
X134254498Y-83368558D01*
X134217079Y-83376001D01*
X134217075Y-83376001D01*
X134106231Y-83398049D01*
X134106230Y-83398050D01*
X134106229Y-83398050D01*
X134040933Y-83441680D01*
X133980535Y-83482037D01*
X133959337Y-83513763D01*
X133605692Y-83867408D01*
X133542000Y-83854739D01*
X133542000Y-83781877D01*
X133562000Y-83781877D01*
X133679054Y-83758593D01*
X133778288Y-83692288D01*
X133844593Y-83593054D01*
X133867877Y-83476000D01*
X133867877Y-81576000D01*
X133844593Y-81458946D01*
X133778288Y-81359712D01*
X133679054Y-81293407D01*
X133562000Y-81270123D01*
X132762000Y-81270123D01*
X132644946Y-81293407D01*
X132545712Y-81359712D01*
X132479407Y-81458946D01*
X132456123Y-81576000D01*
X132456123Y-83476000D01*
X132479407Y-83593054D01*
X132545712Y-83692288D01*
X132644946Y-83758593D01*
X132762000Y-83781877D01*
X132782001Y-83781877D01*
X132782001Y-83859711D01*
X132720417Y-83871961D01*
X132542105Y-83991105D01*
X132455000Y-84121467D01*
X132455000Y-79832000D01*
X133104000Y-79832000D01*
X133104000Y-80596939D01*
X133196563Y-80820405D01*
X133367596Y-80991438D01*
X133591062Y-81084000D01*
X133806000Y-81084000D01*
X133958000Y-80932000D01*
X133958000Y-79680000D01*
X133256000Y-79680000D01*
X133104000Y-79832000D01*
X132455000Y-79832000D01*
X132455000Y-77037297D01*
X132555680Y-77079000D01*
X132804320Y-77079000D01*
X132950032Y-77018644D01*
X132873000Y-77204615D01*
G36*
X160236000Y-80895500D02*
X160387998Y-81047498D01*
X160236000Y-81047498D01*
X160236000Y-81185934D01*
X159998713Y-81202858D01*
X159676551Y-81336302D01*
X159603421Y-81567632D01*
X160368000Y-82332211D01*
X160382142Y-82318069D01*
X160599931Y-82535858D01*
X160585789Y-82550000D01*
X160599931Y-82564142D01*
X160382142Y-82781931D01*
X160368000Y-82767789D01*
X160353858Y-82781931D01*
X160136069Y-82564142D01*
X160150211Y-82550000D01*
X159385632Y-81785421D01*
X159154302Y-81858551D01*
X158982083Y-82375647D01*
X159020858Y-82919287D01*
X159142104Y-83212001D01*
X157841897Y-83212001D01*
X157509328Y-82879433D01*
X157609680Y-82921000D01*
X157858320Y-82921000D01*
X158088034Y-82825849D01*
X158263849Y-82650034D01*
X158359000Y-82420320D01*
X158359000Y-82171680D01*
X158278495Y-81977324D01*
X158400583Y-81953039D01*
X158578895Y-81833895D01*
X158698039Y-81655583D01*
X158739877Y-81445250D01*
X158739877Y-80957750D01*
X158698039Y-80747417D01*
X158675711Y-80714000D01*
X160236000Y-80714000D01*
X160236000Y-80895500D01*
X160236000Y-80895500D01*
G37*
X160236000Y-80895500D02*
X160387998Y-81047498D01*
X160236000Y-81047498D01*
X160236000Y-81185934D01*
X159998713Y-81202858D01*
X159676551Y-81336302D01*
X159603421Y-81567632D01*
X160368000Y-82332211D01*
X160382142Y-82318069D01*
X160599931Y-82535858D01*
X160585789Y-82550000D01*
X160599931Y-82564142D01*
X160382142Y-82781931D01*
X160368000Y-82767789D01*
X160353858Y-82781931D01*
X160136069Y-82564142D01*
X160150211Y-82550000D01*
X159385632Y-81785421D01*
X159154302Y-81858551D01*
X158982083Y-82375647D01*
X159020858Y-82919287D01*
X159142104Y-83212001D01*
X157841897Y-83212001D01*
X157509328Y-82879433D01*
X157609680Y-82921000D01*
X157858320Y-82921000D01*
X158088034Y-82825849D01*
X158263849Y-82650034D01*
X158359000Y-82420320D01*
X158359000Y-82171680D01*
X158278495Y-81977324D01*
X158400583Y-81953039D01*
X158578895Y-81833895D01*
X158698039Y-81655583D01*
X158739877Y-81445250D01*
X158739877Y-80957750D01*
X158698039Y-80747417D01*
X158675711Y-80714000D01*
X160236000Y-80714000D01*
X160236000Y-80895500D01*
G36*
X145541000Y-81475062D02*
X145541000Y-81990000D01*
X145693000Y-82142000D01*
X146482500Y-82142000D01*
X146482500Y-82122000D01*
X146790500Y-82122000D01*
X146790500Y-82142000D01*
X146810500Y-82142000D01*
X146810500Y-82450000D01*
X146790500Y-82450000D01*
X146790500Y-82470000D01*
X146482500Y-82470000D01*
X146482500Y-82450000D01*
X145693000Y-82450000D01*
X145541000Y-82602000D01*
X145541000Y-83116000D01*
X141911883Y-83116000D01*
X141832034Y-83036151D01*
X141602320Y-82941000D01*
X141355543Y-82941000D01*
X141430000Y-82761245D01*
X141430000Y-82338755D01*
X141268320Y-81948425D01*
X141207894Y-81887999D01*
X142013682Y-81887999D01*
X142047853Y-81922170D01*
X142069053Y-81953898D01*
X142194749Y-82037886D01*
X142297055Y-82058236D01*
X142448602Y-82209783D01*
X142678316Y-82304934D01*
X142926956Y-82304934D01*
X143156670Y-82209783D01*
X143332485Y-82033968D01*
X143427636Y-81804254D01*
X143427636Y-81555614D01*
X143373948Y-81426001D01*
X145561322Y-81426001D01*
X145541000Y-81475062D01*
X145541000Y-81475062D01*
G37*
X145541000Y-81475062D02*
X145541000Y-81990000D01*
X145693000Y-82142000D01*
X146482500Y-82142000D01*
X146482500Y-82122000D01*
X146790500Y-82122000D01*
X146790500Y-82142000D01*
X146810500Y-82142000D01*
X146810500Y-82450000D01*
X146790500Y-82450000D01*
X146790500Y-82470000D01*
X146482500Y-82470000D01*
X146482500Y-82450000D01*
X145693000Y-82450000D01*
X145541000Y-82602000D01*
X145541000Y-83116000D01*
X141911883Y-83116000D01*
X141832034Y-83036151D01*
X141602320Y-82941000D01*
X141355543Y-82941000D01*
X141430000Y-82761245D01*
X141430000Y-82338755D01*
X141268320Y-81948425D01*
X141207894Y-81887999D01*
X142013682Y-81887999D01*
X142047853Y-81922170D01*
X142069053Y-81953898D01*
X142194749Y-82037886D01*
X142297055Y-82058236D01*
X142448602Y-82209783D01*
X142678316Y-82304934D01*
X142926956Y-82304934D01*
X143156670Y-82209783D01*
X143332485Y-82033968D01*
X143427636Y-81804254D01*
X143427636Y-81555614D01*
X143373948Y-81426001D01*
X145561322Y-81426001D01*
X145541000Y-81475062D01*
G36*
X135866962Y-79788857D02*
X135892068Y-79826432D01*
X136040919Y-79925891D01*
X136172179Y-79952000D01*
X136172180Y-79952000D01*
X136216500Y-79960816D01*
X136260820Y-79952000D01*
X137207123Y-79952000D01*
X137207123Y-79958250D01*
X137248961Y-80168583D01*
X137368105Y-80346895D01*
X137546417Y-80466039D01*
X137756750Y-80507877D01*
X138244250Y-80507877D01*
X138454583Y-80466039D01*
X138632895Y-80346895D01*
X138752039Y-80168583D01*
X138780000Y-80028014D01*
X138780000Y-80322938D01*
X138864111Y-80526001D01*
X136210599Y-80526001D01*
X136165849Y-80417966D01*
X135990034Y-80242151D01*
X135760320Y-80147000D01*
X135747748Y-80147000D01*
X135753000Y-80134320D01*
X135753000Y-79885680D01*
X135657849Y-79655966D01*
X135482034Y-79480151D01*
X135252320Y-79385000D01*
X135120000Y-79385000D01*
X135120000Y-79371998D01*
X134968002Y-79371998D01*
X135120000Y-79220000D01*
X135120000Y-79041895D01*
X135866962Y-79788857D01*
X135866962Y-79788857D01*
G37*
X135866962Y-79788857D02*
X135892068Y-79826432D01*
X136040919Y-79925891D01*
X136172179Y-79952000D01*
X136172180Y-79952000D01*
X136216500Y-79960816D01*
X136260820Y-79952000D01*
X137207123Y-79952000D01*
X137207123Y-79958250D01*
X137248961Y-80168583D01*
X137368105Y-80346895D01*
X137546417Y-80466039D01*
X137756750Y-80507877D01*
X138244250Y-80507877D01*
X138454583Y-80466039D01*
X138632895Y-80346895D01*
X138752039Y-80168583D01*
X138780000Y-80028014D01*
X138780000Y-80322938D01*
X138864111Y-80526001D01*
X136210599Y-80526001D01*
X136165849Y-80417966D01*
X135990034Y-80242151D01*
X135760320Y-80147000D01*
X135747748Y-80147000D01*
X135753000Y-80134320D01*
X135753000Y-79885680D01*
X135657849Y-79655966D01*
X135482034Y-79480151D01*
X135252320Y-79385000D01*
X135120000Y-79385000D01*
X135120000Y-79371998D01*
X134968002Y-79371998D01*
X135120000Y-79220000D01*
X135120000Y-79041895D01*
X135866962Y-79788857D01*
G36*
X147132123Y-79116000D02*
X147155407Y-79233054D01*
X147221712Y-79332288D01*
X147320946Y-79398593D01*
X147438000Y-79421877D01*
X149438000Y-79421877D01*
X149555054Y-79398593D01*
X149654288Y-79332288D01*
X149720593Y-79233054D01*
X149743877Y-79116000D01*
X149743877Y-77666000D01*
X149822123Y-77666000D01*
X149822123Y-78405000D01*
X149845407Y-78522054D01*
X149911712Y-78621288D01*
X150010946Y-78687593D01*
X150128000Y-78710877D01*
X150238001Y-78710877D01*
X150238001Y-78920123D01*
X150188000Y-78920123D01*
X150070946Y-78943407D01*
X149971712Y-79009712D01*
X149905407Y-79108946D01*
X149882123Y-79226000D01*
X149882123Y-79395068D01*
X149684133Y-79395068D01*
X149454419Y-79490219D01*
X149278604Y-79666034D01*
X149183453Y-79895748D01*
X149183453Y-80144388D01*
X149278604Y-80374102D01*
X149430503Y-80526001D01*
X143688399Y-80526001D01*
X143746000Y-80386938D01*
X143746000Y-79822000D01*
X143594000Y-79670000D01*
X142292000Y-79670000D01*
X142292000Y-79690000D01*
X141984000Y-79690000D01*
X141984000Y-79670000D01*
X140833000Y-79670000D01*
X140819000Y-79656000D01*
X140029500Y-79656000D01*
X140029500Y-79676000D01*
X139721500Y-79676000D01*
X139721500Y-79656000D01*
X139701500Y-79656000D01*
X139701500Y-79348000D01*
X139721500Y-79348000D01*
X139721500Y-79328000D01*
X140029500Y-79328000D01*
X140029500Y-79348000D01*
X140668000Y-79348000D01*
X140682000Y-79362000D01*
X141984000Y-79362000D01*
X141984000Y-79342000D01*
X142292000Y-79342000D01*
X142292000Y-79362000D01*
X143594000Y-79362000D01*
X143746000Y-79210000D01*
X143746000Y-78645062D01*
X143653438Y-78421596D01*
X143482405Y-78250563D01*
X143340238Y-78191675D01*
X143354288Y-78182288D01*
X143420593Y-78083054D01*
X143443877Y-77966000D01*
X143443877Y-77666000D01*
X147132123Y-77666000D01*
X147132123Y-79116000D01*
X147132123Y-79116000D01*
G37*
X147132123Y-79116000D02*
X147155407Y-79233054D01*
X147221712Y-79332288D01*
X147320946Y-79398593D01*
X147438000Y-79421877D01*
X149438000Y-79421877D01*
X149555054Y-79398593D01*
X149654288Y-79332288D01*
X149720593Y-79233054D01*
X149743877Y-79116000D01*
X149743877Y-77666000D01*
X149822123Y-77666000D01*
X149822123Y-78405000D01*
X149845407Y-78522054D01*
X149911712Y-78621288D01*
X150010946Y-78687593D01*
X150128000Y-78710877D01*
X150238001Y-78710877D01*
X150238001Y-78920123D01*
X150188000Y-78920123D01*
X150070946Y-78943407D01*
X149971712Y-79009712D01*
X149905407Y-79108946D01*
X149882123Y-79226000D01*
X149882123Y-79395068D01*
X149684133Y-79395068D01*
X149454419Y-79490219D01*
X149278604Y-79666034D01*
X149183453Y-79895748D01*
X149183453Y-80144388D01*
X149278604Y-80374102D01*
X149430503Y-80526001D01*
X143688399Y-80526001D01*
X143746000Y-80386938D01*
X143746000Y-79822000D01*
X143594000Y-79670000D01*
X142292000Y-79670000D01*
X142292000Y-79690000D01*
X141984000Y-79690000D01*
X141984000Y-79670000D01*
X140833000Y-79670000D01*
X140819000Y-79656000D01*
X140029500Y-79656000D01*
X140029500Y-79676000D01*
X139721500Y-79676000D01*
X139721500Y-79656000D01*
X139701500Y-79656000D01*
X139701500Y-79348000D01*
X139721500Y-79348000D01*
X139721500Y-79328000D01*
X140029500Y-79328000D01*
X140029500Y-79348000D01*
X140668000Y-79348000D01*
X140682000Y-79362000D01*
X141984000Y-79362000D01*
X141984000Y-79342000D01*
X142292000Y-79342000D01*
X142292000Y-79362000D01*
X143594000Y-79362000D01*
X143746000Y-79210000D01*
X143746000Y-78645062D01*
X143653438Y-78421596D01*
X143482405Y-78250563D01*
X143340238Y-78191675D01*
X143354288Y-78182288D01*
X143420593Y-78083054D01*
X143443877Y-77966000D01*
X143443877Y-77666000D01*
X147132123Y-77666000D01*
X147132123Y-79116000D01*
G36*
X152742000Y-79772000D02*
X152762000Y-79772000D01*
X152762000Y-80080000D01*
X152742000Y-80080000D01*
X152742000Y-80100000D01*
X152434000Y-80100000D01*
X152434000Y-80080000D01*
X152414000Y-80080000D01*
X152414000Y-79772000D01*
X152434000Y-79772000D01*
X152434000Y-79752000D01*
X152742000Y-79752000D01*
X152742000Y-79772000D01*
X152742000Y-79772000D01*
G37*
X152742000Y-79772000D02*
X152762000Y-79772000D01*
X152762000Y-80080000D01*
X152742000Y-80080000D01*
X152742000Y-80100000D01*
X152434000Y-80100000D01*
X152434000Y-80080000D01*
X152414000Y-80080000D01*
X152414000Y-79772000D01*
X152434000Y-79772000D01*
X152434000Y-79752000D01*
X152742000Y-79752000D01*
X152742000Y-79772000D01*
G36*
X183957995Y-73804963D02*
X183786962Y-73975996D01*
X183694400Y-74199462D01*
X183694400Y-74688549D01*
X183464909Y-74345091D01*
X183080014Y-74087913D01*
X182740603Y-74020400D01*
X182511397Y-74020400D01*
X182171986Y-74087913D01*
X181787091Y-74345091D01*
X181529913Y-74729986D01*
X181439604Y-75184000D01*
X181529913Y-75638014D01*
X181787091Y-76022909D01*
X182171986Y-76280087D01*
X182511397Y-76347600D01*
X182740603Y-76347600D01*
X183080014Y-76280087D01*
X183464909Y-76022909D01*
X183694400Y-75679451D01*
X183694400Y-76168538D01*
X183786962Y-76392004D01*
X183957995Y-76563037D01*
X184181461Y-76655600D01*
X184670549Y-76655600D01*
X184327091Y-76885091D01*
X184069913Y-77269986D01*
X183979604Y-77724000D01*
X184069913Y-78178014D01*
X184111839Y-78240761D01*
X184060166Y-78292434D01*
X184060163Y-78292436D01*
X183864999Y-78487601D01*
X183515228Y-78487601D01*
X183722087Y-78178014D01*
X183812396Y-77724000D01*
X183722087Y-77269986D01*
X183464909Y-76885091D01*
X183080014Y-76627913D01*
X182740603Y-76560400D01*
X182511397Y-76560400D01*
X182171986Y-76627913D01*
X181787091Y-76885091D01*
X181529913Y-77269986D01*
X181439604Y-77724000D01*
X181529913Y-78178014D01*
X181736772Y-78487601D01*
X180975228Y-78487601D01*
X181182087Y-78178014D01*
X181272396Y-77724000D01*
X181182087Y-77269986D01*
X180924909Y-76885091D01*
X180540014Y-76627913D01*
X180200603Y-76560400D01*
X179971397Y-76560400D01*
X179631986Y-76627913D01*
X179247091Y-76885091D01*
X178989913Y-77269986D01*
X178899604Y-77724000D01*
X178989913Y-78178014D01*
X179196772Y-78487601D01*
X178435228Y-78487601D01*
X178642087Y-78178014D01*
X178732396Y-77724000D01*
X178642087Y-77269986D01*
X178384909Y-76885091D01*
X178000014Y-76627913D01*
X177660603Y-76560400D01*
X177431397Y-76560400D01*
X177091986Y-76627913D01*
X176974449Y-76706449D01*
X176876000Y-76608000D01*
X175074000Y-76608000D01*
X175074000Y-77710000D01*
X175226000Y-77862000D01*
X176387054Y-77862000D01*
X176449913Y-78178014D01*
X176656772Y-78487601D01*
X174941453Y-78487601D01*
X174315851Y-77862000D01*
X174614000Y-77862000D01*
X174766000Y-77710000D01*
X174766000Y-76608000D01*
X172964000Y-76608000D01*
X172812000Y-76760000D01*
X172812000Y-76944710D01*
X172325877Y-76944710D01*
X172325877Y-75904000D01*
X172283563Y-75691275D01*
X172177849Y-75533062D01*
X172812000Y-75533062D01*
X172812000Y-76148000D01*
X172964000Y-76300000D01*
X174766000Y-76300000D01*
X174766000Y-75198000D01*
X175074000Y-75198000D01*
X175074000Y-76300000D01*
X176876000Y-76300000D01*
X176974449Y-76201551D01*
X177091986Y-76280087D01*
X177431397Y-76347600D01*
X177660603Y-76347600D01*
X178000014Y-76280087D01*
X178384909Y-76022909D01*
X178642087Y-75638014D01*
X178732396Y-75184000D01*
X178899604Y-75184000D01*
X178989913Y-75638014D01*
X179247091Y-76022909D01*
X179631986Y-76280087D01*
X179971397Y-76347600D01*
X180200603Y-76347600D01*
X180540014Y-76280087D01*
X180924909Y-76022909D01*
X181182087Y-75638014D01*
X181272396Y-75184000D01*
X181182087Y-74729986D01*
X180924909Y-74345091D01*
X180540014Y-74087913D01*
X180200603Y-74020400D01*
X179971397Y-74020400D01*
X179631986Y-74087913D01*
X179247091Y-74345091D01*
X178989913Y-74729986D01*
X178899604Y-75184000D01*
X178732396Y-75184000D01*
X178642087Y-74729986D01*
X178384909Y-74345091D01*
X178000014Y-74087913D01*
X177660603Y-74020400D01*
X177431397Y-74020400D01*
X177091986Y-74087913D01*
X176707091Y-74345091D01*
X176449913Y-74729986D01*
X176387054Y-75046000D01*
X175226000Y-75046000D01*
X175074000Y-75198000D01*
X174766000Y-75198000D01*
X174614000Y-75046000D01*
X173299061Y-75046000D01*
X173075595Y-75138563D01*
X172904562Y-75309596D01*
X172812000Y-75533062D01*
X172177849Y-75533062D01*
X172163064Y-75510936D01*
X172108557Y-75474516D01*
X172127891Y-75445581D01*
X172141694Y-75376189D01*
X172233849Y-75284034D01*
X172329000Y-75054320D01*
X172329000Y-74805680D01*
X172233849Y-74575966D01*
X172058034Y-74400151D01*
X171828320Y-74305000D01*
X171579680Y-74305000D01*
X171349966Y-74400151D01*
X171174151Y-74575966D01*
X171079000Y-74805680D01*
X171079000Y-75054320D01*
X171138834Y-75198771D01*
X170989481Y-75348123D01*
X169270000Y-75348123D01*
X169057275Y-75390437D01*
X168876936Y-75510936D01*
X168756437Y-75691275D01*
X168714123Y-75904000D01*
X168714123Y-77004000D01*
X168756437Y-77216725D01*
X168794707Y-77274000D01*
X165259877Y-77274000D01*
X165259877Y-77224000D01*
X165236593Y-77106946D01*
X165170288Y-77007712D01*
X165071054Y-76941407D01*
X164954000Y-76918123D01*
X162444000Y-76918123D01*
X162326946Y-76941407D01*
X162227712Y-77007712D01*
X162161407Y-77106946D01*
X162138123Y-77224000D01*
X162138123Y-78124001D01*
X160963207Y-78124001D01*
X160925788Y-78116558D01*
X160888369Y-78124001D01*
X160888365Y-78124001D01*
X160777521Y-78146049D01*
X160777520Y-78146050D01*
X160777519Y-78146050D01*
X160683551Y-78208838D01*
X160651825Y-78230037D01*
X160630627Y-78261763D01*
X159945890Y-78946500D01*
X158712775Y-78946500D01*
X158698039Y-78872417D01*
X158578895Y-78694105D01*
X158400583Y-78574961D01*
X158190250Y-78533123D01*
X157277750Y-78533123D01*
X157067417Y-78574961D01*
X156889105Y-78694105D01*
X156869001Y-78724193D01*
X156869001Y-77805319D01*
X156877817Y-77760999D01*
X156868101Y-77712153D01*
X156842892Y-77585418D01*
X156743433Y-77436567D01*
X156705856Y-77411459D01*
X156698541Y-77404144D01*
X156673433Y-77366567D01*
X156524582Y-77267108D01*
X156393322Y-77240999D01*
X156393321Y-77240999D01*
X156349001Y-77232183D01*
X156304681Y-77240999D01*
X154105396Y-77240999D01*
X154649519Y-76696877D01*
X156069000Y-76696877D01*
X156186054Y-76673593D01*
X156285288Y-76607288D01*
X156351593Y-76508054D01*
X156374877Y-76391000D01*
X156374877Y-75891686D01*
X158030000Y-75891686D01*
X158030000Y-76508314D01*
X158265974Y-77078004D01*
X158701996Y-77514026D01*
X159271686Y-77750000D01*
X159888314Y-77750000D01*
X160458004Y-77514026D01*
X160894026Y-77078004D01*
X161130000Y-76508314D01*
X161130000Y-75891686D01*
X160894026Y-75321996D01*
X160458004Y-74885974D01*
X159970398Y-74684000D01*
X165448123Y-74684000D01*
X165448123Y-75684000D01*
X165471407Y-75801054D01*
X165537712Y-75900288D01*
X165636946Y-75966593D01*
X165754000Y-75989877D01*
X166428000Y-75989877D01*
X166428000Y-76020117D01*
X166348151Y-76099966D01*
X166253000Y-76329680D01*
X166253000Y-76578320D01*
X166348151Y-76808034D01*
X166523966Y-76983849D01*
X166753680Y-77079000D01*
X167002320Y-77079000D01*
X167232034Y-76983849D01*
X167407849Y-76808034D01*
X167503000Y-76578320D01*
X167503000Y-76329680D01*
X167407849Y-76099966D01*
X167328000Y-76020117D01*
X167328000Y-75989877D01*
X168264000Y-75989877D01*
X168381054Y-75966593D01*
X168480288Y-75900288D01*
X168546593Y-75801054D01*
X168569877Y-75684000D01*
X168569877Y-74684000D01*
X168546593Y-74566946D01*
X168480288Y-74467712D01*
X168381054Y-74401407D01*
X168264000Y-74378123D01*
X165754000Y-74378123D01*
X165636946Y-74401407D01*
X165537712Y-74467712D01*
X165471407Y-74566946D01*
X165448123Y-74684000D01*
X159970398Y-74684000D01*
X159888314Y-74650000D01*
X159271686Y-74650000D01*
X158701996Y-74885974D01*
X158265974Y-75321996D01*
X158030000Y-75891686D01*
X156374877Y-75891686D01*
X156374877Y-73781000D01*
X184015847Y-73781000D01*
X183957995Y-73804963D01*
X183957995Y-73804963D01*
G37*
X183957995Y-73804963D02*
X183786962Y-73975996D01*
X183694400Y-74199462D01*
X183694400Y-74688549D01*
X183464909Y-74345091D01*
X183080014Y-74087913D01*
X182740603Y-74020400D01*
X182511397Y-74020400D01*
X182171986Y-74087913D01*
X181787091Y-74345091D01*
X181529913Y-74729986D01*
X181439604Y-75184000D01*
X181529913Y-75638014D01*
X181787091Y-76022909D01*
X182171986Y-76280087D01*
X182511397Y-76347600D01*
X182740603Y-76347600D01*
X183080014Y-76280087D01*
X183464909Y-76022909D01*
X183694400Y-75679451D01*
X183694400Y-76168538D01*
X183786962Y-76392004D01*
X183957995Y-76563037D01*
X184181461Y-76655600D01*
X184670549Y-76655600D01*
X184327091Y-76885091D01*
X184069913Y-77269986D01*
X183979604Y-77724000D01*
X184069913Y-78178014D01*
X184111839Y-78240761D01*
X184060166Y-78292434D01*
X184060163Y-78292436D01*
X183864999Y-78487601D01*
X183515228Y-78487601D01*
X183722087Y-78178014D01*
X183812396Y-77724000D01*
X183722087Y-77269986D01*
X183464909Y-76885091D01*
X183080014Y-76627913D01*
X182740603Y-76560400D01*
X182511397Y-76560400D01*
X182171986Y-76627913D01*
X181787091Y-76885091D01*
X181529913Y-77269986D01*
X181439604Y-77724000D01*
X181529913Y-78178014D01*
X181736772Y-78487601D01*
X180975228Y-78487601D01*
X181182087Y-78178014D01*
X181272396Y-77724000D01*
X181182087Y-77269986D01*
X180924909Y-76885091D01*
X180540014Y-76627913D01*
X180200603Y-76560400D01*
X179971397Y-76560400D01*
X179631986Y-76627913D01*
X179247091Y-76885091D01*
X178989913Y-77269986D01*
X178899604Y-77724000D01*
X178989913Y-78178014D01*
X179196772Y-78487601D01*
X178435228Y-78487601D01*
X178642087Y-78178014D01*
X178732396Y-77724000D01*
X178642087Y-77269986D01*
X178384909Y-76885091D01*
X178000014Y-76627913D01*
X177660603Y-76560400D01*
X177431397Y-76560400D01*
X177091986Y-76627913D01*
X176974449Y-76706449D01*
X176876000Y-76608000D01*
X175074000Y-76608000D01*
X175074000Y-77710000D01*
X175226000Y-77862000D01*
X176387054Y-77862000D01*
X176449913Y-78178014D01*
X176656772Y-78487601D01*
X174941453Y-78487601D01*
X174315851Y-77862000D01*
X174614000Y-77862000D01*
X174766000Y-77710000D01*
X174766000Y-76608000D01*
X172964000Y-76608000D01*
X172812000Y-76760000D01*
X172812000Y-76944710D01*
X172325877Y-76944710D01*
X172325877Y-75904000D01*
X172283563Y-75691275D01*
X172177849Y-75533062D01*
X172812000Y-75533062D01*
X172812000Y-76148000D01*
X172964000Y-76300000D01*
X174766000Y-76300000D01*
X174766000Y-75198000D01*
X175074000Y-75198000D01*
X175074000Y-76300000D01*
X176876000Y-76300000D01*
X176974449Y-76201551D01*
X177091986Y-76280087D01*
X177431397Y-76347600D01*
X177660603Y-76347600D01*
X178000014Y-76280087D01*
X178384909Y-76022909D01*
X178642087Y-75638014D01*
X178732396Y-75184000D01*
X178899604Y-75184000D01*
X178989913Y-75638014D01*
X179247091Y-76022909D01*
X179631986Y-76280087D01*
X179971397Y-76347600D01*
X180200603Y-76347600D01*
X180540014Y-76280087D01*
X180924909Y-76022909D01*
X181182087Y-75638014D01*
X181272396Y-75184000D01*
X181182087Y-74729986D01*
X180924909Y-74345091D01*
X180540014Y-74087913D01*
X180200603Y-74020400D01*
X179971397Y-74020400D01*
X179631986Y-74087913D01*
X179247091Y-74345091D01*
X178989913Y-74729986D01*
X178899604Y-75184000D01*
X178732396Y-75184000D01*
X178642087Y-74729986D01*
X178384909Y-74345091D01*
X178000014Y-74087913D01*
X177660603Y-74020400D01*
X177431397Y-74020400D01*
X177091986Y-74087913D01*
X176707091Y-74345091D01*
X176449913Y-74729986D01*
X176387054Y-75046000D01*
X175226000Y-75046000D01*
X175074000Y-75198000D01*
X174766000Y-75198000D01*
X174614000Y-75046000D01*
X173299061Y-75046000D01*
X173075595Y-75138563D01*
X172904562Y-75309596D01*
X172812000Y-75533062D01*
X172177849Y-75533062D01*
X172163064Y-75510936D01*
X172108557Y-75474516D01*
X172127891Y-75445581D01*
X172141694Y-75376189D01*
X172233849Y-75284034D01*
X172329000Y-75054320D01*
X172329000Y-74805680D01*
X172233849Y-74575966D01*
X172058034Y-74400151D01*
X171828320Y-74305000D01*
X171579680Y-74305000D01*
X171349966Y-74400151D01*
X171174151Y-74575966D01*
X171079000Y-74805680D01*
X171079000Y-75054320D01*
X171138834Y-75198771D01*
X170989481Y-75348123D01*
X169270000Y-75348123D01*
X169057275Y-75390437D01*
X168876936Y-75510936D01*
X168756437Y-75691275D01*
X168714123Y-75904000D01*
X168714123Y-77004000D01*
X168756437Y-77216725D01*
X168794707Y-77274000D01*
X165259877Y-77274000D01*
X165259877Y-77224000D01*
X165236593Y-77106946D01*
X165170288Y-77007712D01*
X165071054Y-76941407D01*
X164954000Y-76918123D01*
X162444000Y-76918123D01*
X162326946Y-76941407D01*
X162227712Y-77007712D01*
X162161407Y-77106946D01*
X162138123Y-77224000D01*
X162138123Y-78124001D01*
X160963207Y-78124001D01*
X160925788Y-78116558D01*
X160888369Y-78124001D01*
X160888365Y-78124001D01*
X160777521Y-78146049D01*
X160777520Y-78146050D01*
X160777519Y-78146050D01*
X160683551Y-78208838D01*
X160651825Y-78230037D01*
X160630627Y-78261763D01*
X159945890Y-78946500D01*
X158712775Y-78946500D01*
X158698039Y-78872417D01*
X158578895Y-78694105D01*
X158400583Y-78574961D01*
X158190250Y-78533123D01*
X157277750Y-78533123D01*
X157067417Y-78574961D01*
X156889105Y-78694105D01*
X156869001Y-78724193D01*
X156869001Y-77805319D01*
X156877817Y-77760999D01*
X156868101Y-77712153D01*
X156842892Y-77585418D01*
X156743433Y-77436567D01*
X156705856Y-77411459D01*
X156698541Y-77404144D01*
X156673433Y-77366567D01*
X156524582Y-77267108D01*
X156393322Y-77240999D01*
X156393321Y-77240999D01*
X156349001Y-77232183D01*
X156304681Y-77240999D01*
X154105396Y-77240999D01*
X154649519Y-76696877D01*
X156069000Y-76696877D01*
X156186054Y-76673593D01*
X156285288Y-76607288D01*
X156351593Y-76508054D01*
X156374877Y-76391000D01*
X156374877Y-75891686D01*
X158030000Y-75891686D01*
X158030000Y-76508314D01*
X158265974Y-77078004D01*
X158701996Y-77514026D01*
X159271686Y-77750000D01*
X159888314Y-77750000D01*
X160458004Y-77514026D01*
X160894026Y-77078004D01*
X161130000Y-76508314D01*
X161130000Y-75891686D01*
X160894026Y-75321996D01*
X160458004Y-74885974D01*
X159970398Y-74684000D01*
X165448123Y-74684000D01*
X165448123Y-75684000D01*
X165471407Y-75801054D01*
X165537712Y-75900288D01*
X165636946Y-75966593D01*
X165754000Y-75989877D01*
X166428000Y-75989877D01*
X166428000Y-76020117D01*
X166348151Y-76099966D01*
X166253000Y-76329680D01*
X166253000Y-76578320D01*
X166348151Y-76808034D01*
X166523966Y-76983849D01*
X166753680Y-77079000D01*
X167002320Y-77079000D01*
X167232034Y-76983849D01*
X167407849Y-76808034D01*
X167503000Y-76578320D01*
X167503000Y-76329680D01*
X167407849Y-76099966D01*
X167328000Y-76020117D01*
X167328000Y-75989877D01*
X168264000Y-75989877D01*
X168381054Y-75966593D01*
X168480288Y-75900288D01*
X168546593Y-75801054D01*
X168569877Y-75684000D01*
X168569877Y-74684000D01*
X168546593Y-74566946D01*
X168480288Y-74467712D01*
X168381054Y-74401407D01*
X168264000Y-74378123D01*
X165754000Y-74378123D01*
X165636946Y-74401407D01*
X165537712Y-74467712D01*
X165471407Y-74566946D01*
X165448123Y-74684000D01*
X159970398Y-74684000D01*
X159888314Y-74650000D01*
X159271686Y-74650000D01*
X158701996Y-74885974D01*
X158265974Y-75321996D01*
X158030000Y-75891686D01*
X156374877Y-75891686D01*
X156374877Y-73781000D01*
X184015847Y-73781000D01*
X183957995Y-73804963D01*
G36*
X138481712Y-75874788D02*
X138518001Y-75899035D01*
X138518000Y-76456449D01*
X138452563Y-76483554D01*
X138413438Y-76389096D01*
X138242405Y-76218063D01*
X138018939Y-76125500D01*
X137950000Y-76125500D01*
X137798000Y-76277500D01*
X137798000Y-77254500D01*
X137872000Y-77254500D01*
X137872000Y-77562500D01*
X137798000Y-77562500D01*
X137798000Y-77582500D01*
X137598000Y-77582500D01*
X137598000Y-77562500D01*
X137553877Y-77562500D01*
X137553877Y-77254500D01*
X137598000Y-77254500D01*
X137598000Y-76277500D01*
X137446000Y-76125500D01*
X137377061Y-76125500D01*
X137153595Y-76218063D01*
X136982562Y-76389096D01*
X136966604Y-76427623D01*
X136848000Y-76427623D01*
X136730946Y-76450907D01*
X136723000Y-76456216D01*
X136715054Y-76450907D01*
X136598000Y-76427623D01*
X136198000Y-76427623D01*
X136080946Y-76450907D01*
X136073000Y-76456216D01*
X136065054Y-76450907D01*
X135948000Y-76427623D01*
X135548000Y-76427623D01*
X135430946Y-76450907D01*
X135423000Y-76456216D01*
X135415054Y-76450907D01*
X135298000Y-76427623D01*
X135228519Y-76427623D01*
X134765272Y-75964377D01*
X136148000Y-75964377D01*
X136265054Y-75941093D01*
X136364288Y-75874788D01*
X136398000Y-75824334D01*
X136431712Y-75874788D01*
X136530946Y-75941093D01*
X136648000Y-75964377D01*
X138148000Y-75964377D01*
X138265054Y-75941093D01*
X138364288Y-75874788D01*
X138423000Y-75786918D01*
X138481712Y-75874788D01*
X138481712Y-75874788D01*
G37*
X138481712Y-75874788D02*
X138518001Y-75899035D01*
X138518000Y-76456449D01*
X138452563Y-76483554D01*
X138413438Y-76389096D01*
X138242405Y-76218063D01*
X138018939Y-76125500D01*
X137950000Y-76125500D01*
X137798000Y-76277500D01*
X137798000Y-77254500D01*
X137872000Y-77254500D01*
X137872000Y-77562500D01*
X137798000Y-77562500D01*
X137798000Y-77582500D01*
X137598000Y-77582500D01*
X137598000Y-77562500D01*
X137553877Y-77562500D01*
X137553877Y-77254500D01*
X137598000Y-77254500D01*
X137598000Y-76277500D01*
X137446000Y-76125500D01*
X137377061Y-76125500D01*
X137153595Y-76218063D01*
X136982562Y-76389096D01*
X136966604Y-76427623D01*
X136848000Y-76427623D01*
X136730946Y-76450907D01*
X136723000Y-76456216D01*
X136715054Y-76450907D01*
X136598000Y-76427623D01*
X136198000Y-76427623D01*
X136080946Y-76450907D01*
X136073000Y-76456216D01*
X136065054Y-76450907D01*
X135948000Y-76427623D01*
X135548000Y-76427623D01*
X135430946Y-76450907D01*
X135423000Y-76456216D01*
X135415054Y-76450907D01*
X135298000Y-76427623D01*
X135228519Y-76427623D01*
X134765272Y-75964377D01*
X136148000Y-75964377D01*
X136265054Y-75941093D01*
X136364288Y-75874788D01*
X136398000Y-75824334D01*
X136431712Y-75874788D01*
X136530946Y-75941093D01*
X136648000Y-75964377D01*
X138148000Y-75964377D01*
X138265054Y-75941093D01*
X138364288Y-75874788D01*
X138423000Y-75786918D01*
X138481712Y-75874788D01*
G36*
X149520000Y-73874061D02*
X149520000Y-74444000D01*
X149672000Y-74596000D01*
X151484000Y-74596000D01*
X151484000Y-74576000D01*
X151792000Y-74576000D01*
X151792000Y-74596000D01*
X153604000Y-74596000D01*
X153756000Y-74444000D01*
X153756000Y-73874061D01*
X153717453Y-73781000D01*
X154013123Y-73781000D01*
X154013123Y-75861089D01*
X154006859Y-75845966D01*
X153831044Y-75670151D01*
X153751359Y-75637144D01*
X153756000Y-75625939D01*
X153756000Y-75056000D01*
X153604000Y-74904000D01*
X151792000Y-74904000D01*
X151792000Y-74924000D01*
X151484000Y-74924000D01*
X151484000Y-74904000D01*
X149672000Y-74904000D01*
X149544660Y-75031340D01*
X149438000Y-75010123D01*
X147438000Y-75010123D01*
X147320946Y-75033407D01*
X147221712Y-75099712D01*
X147198860Y-75133913D01*
X147037318Y-75067000D01*
X146788678Y-75067000D01*
X146558964Y-75162151D01*
X146409115Y-75312000D01*
X145791883Y-75312000D01*
X145642034Y-75162151D01*
X145412320Y-75067000D01*
X145163680Y-75067000D01*
X144933966Y-75162151D01*
X144758151Y-75337966D01*
X144663000Y-75567680D01*
X144663000Y-75816320D01*
X144758151Y-76046034D01*
X144933966Y-76221849D01*
X145163680Y-76317000D01*
X145412320Y-76317000D01*
X145642034Y-76221849D01*
X145791883Y-76072000D01*
X146409115Y-76072000D01*
X146558964Y-76221849D01*
X146788678Y-76317000D01*
X147037318Y-76317000D01*
X147132123Y-76277730D01*
X147132123Y-76766000D01*
X144855297Y-76766000D01*
X144897000Y-76665320D01*
X144897000Y-76416680D01*
X144801849Y-76186966D01*
X144652000Y-76037117D01*
X144652000Y-74630304D01*
X144880034Y-74535849D01*
X145055849Y-74360034D01*
X145151000Y-74130320D01*
X145151000Y-73881680D01*
X145109297Y-73781000D01*
X149558547Y-73781000D01*
X149520000Y-73874061D01*
X149520000Y-73874061D01*
G37*
X149520000Y-73874061D02*
X149520000Y-74444000D01*
X149672000Y-74596000D01*
X151484000Y-74596000D01*
X151484000Y-74576000D01*
X151792000Y-74576000D01*
X151792000Y-74596000D01*
X153604000Y-74596000D01*
X153756000Y-74444000D01*
X153756000Y-73874061D01*
X153717453Y-73781000D01*
X154013123Y-73781000D01*
X154013123Y-75861089D01*
X154006859Y-75845966D01*
X153831044Y-75670151D01*
X153751359Y-75637144D01*
X153756000Y-75625939D01*
X153756000Y-75056000D01*
X153604000Y-74904000D01*
X151792000Y-74904000D01*
X151792000Y-74924000D01*
X151484000Y-74924000D01*
X151484000Y-74904000D01*
X149672000Y-74904000D01*
X149544660Y-75031340D01*
X149438000Y-75010123D01*
X147438000Y-75010123D01*
X147320946Y-75033407D01*
X147221712Y-75099712D01*
X147198860Y-75133913D01*
X147037318Y-75067000D01*
X146788678Y-75067000D01*
X146558964Y-75162151D01*
X146409115Y-75312000D01*
X145791883Y-75312000D01*
X145642034Y-75162151D01*
X145412320Y-75067000D01*
X145163680Y-75067000D01*
X144933966Y-75162151D01*
X144758151Y-75337966D01*
X144663000Y-75567680D01*
X144663000Y-75816320D01*
X144758151Y-76046034D01*
X144933966Y-76221849D01*
X145163680Y-76317000D01*
X145412320Y-76317000D01*
X145642034Y-76221849D01*
X145791883Y-76072000D01*
X146409115Y-76072000D01*
X146558964Y-76221849D01*
X146788678Y-76317000D01*
X147037318Y-76317000D01*
X147132123Y-76277730D01*
X147132123Y-76766000D01*
X144855297Y-76766000D01*
X144897000Y-76665320D01*
X144897000Y-76416680D01*
X144801849Y-76186966D01*
X144652000Y-76037117D01*
X144652000Y-74630304D01*
X144880034Y-74535849D01*
X145055849Y-74360034D01*
X145151000Y-74130320D01*
X145151000Y-73881680D01*
X145109297Y-73781000D01*
X149558547Y-73781000D01*
X149520000Y-73874061D01*
G36*
X185011998Y-73864398D02*
X184928600Y-73781000D01*
X185011998Y-73781000D01*
X185011998Y-73864398D01*
X185011998Y-73864398D01*
G37*
X185011998Y-73864398D02*
X184928600Y-73781000D01*
X185011998Y-73781000D01*
X185011998Y-73864398D01*
M02*
